<svg width="613" height="326" viewBox="0 0 613 326" fill="none" xmlns="http://www.w3.org/2000/svg">
<path d="M566.199 192.038V318.633H46.8008V177.952H91.5079V192.038H98.4323V186.675H105.323V109.312H112.657V100.954H115.658V88.845H118.547V100.954H131.213V109.312H150.045V106.873H155.936V109.312H159.993V174.89H163.883V171.951H167.661V174.89H171.551V186.675H177.661V192.038H186.326V67.7364H190.621V63.3059H196.511V67.7364H216.849V60.2441H223.662V58.0176H234.183V60.2441H240.999V169.684H247.615V158.962H254.279V129.884H261.497V116.383H263.509V129.884H270.727V174.89H272.72V172.641H278.611V174.89H280.675V208.433H288.451V129.857L339.331 103.229V147.591H344.348V142.314H352.462V147.591H356.731V191.001H359.572V182.327H365.459V191.001H370.312V171.299H372.908V160.577H375.24V157.727H381.242V160.577H392.019V171.299H394.614V181.17H402.911V176.777H409.798V181.17H413.465V129.857L421.025 133.311V123.883H442.356V143.071L449.916 146.528V181.17H459.418V165.015L467.618 158.305V104.169H472.917V109.312H516.992V104.169H522.291V176.468L529.338 183.632V192.038H534.258V169.102H549.371V192.038H566.199Z" fill="#E7F4FA"/>
<path d="M606.613 326.001H6.38684C2.86071 326.001 0 323.134 0 319.601C0 316.068 2.86071 313.201 6.38684 313.201H606.613C610.139 313.201 613 316.068 613 319.601C613 323.134 610.139 326.001 606.613 326.001Z" fill="#A6A8A9"/>
<path d="M432.162 283.878C432.162 283.878 436.153 263.687 432.162 256.758C428.171 249.818 423.124 256.758 423.124 256.758C423.124 256.758 428.335 268.487 423.124 282.554L432.162 283.878Z" fill="#A6A8A9"/>
<path d="M363.306 286.02C362.714 284.997 362.435 284.035 362.48 283.134L474.711 304.384C474.425 305.239 473.816 306.034 472.894 306.77C471.798 307.646 470.289 308.416 468.45 309.084C464.774 310.419 459.882 311.312 454.627 311.869C444.121 312.982 432.284 312.742 426.1 312.1L426.1 312.1C420.806 311.556 410.308 309.57 405.089 308.135L405.078 308.124L404.951 308.089C398.959 306.426 387.848 302.324 378.468 297.447C373.776 295.007 369.544 292.388 366.605 289.8C365.135 288.506 364.009 287.237 363.306 286.02Z" fill="#E6E6E6" stroke="#4E4E4E"/>
<path d="M359.562 277.722L357.957 286.262C357.616 288.049 358.792 289.77 360.574 290.101L473.976 311.572C475.757 311.914 477.472 310.734 477.802 308.946L479.407 300.407C479.737 298.619 478.571 296.898 476.79 296.567L363.388 275.096C361.607 274.754 359.892 275.935 359.562 277.722Z" fill="#4E4E4E"/>
<path d="M450.105 291.514C450.105 286.273 426.675 280.227 417.956 280.227C409.237 280.227 404.619 282.897 404.619 282.897L450.105 291.514Z" fill="#A6A8A9"/>
<path d="M432.162 172.266C432.162 172.266 436.153 192.457 432.162 199.386C428.171 206.326 423.124 199.386 423.124 199.386C423.124 199.386 428.335 187.657 423.124 173.59L432.162 172.266Z" fill="#A6A8A9"/>
<path d="M474.711 151.759L362.48 173.009C362.435 172.108 362.714 171.145 363.306 170.122C364.009 168.906 365.135 167.637 366.605 166.343C369.544 163.755 373.776 161.136 378.468 158.696C387.848 153.819 398.959 149.717 404.951 148.054L405.078 148.019L405.089 148.008C410.308 146.573 420.806 144.587 426.1 144.042L426.1 144.042C432.284 143.401 444.121 143.161 454.627 144.274C459.882 144.831 464.774 145.724 468.45 147.059C470.289 147.727 471.798 148.497 472.894 149.373C473.816 150.109 474.425 150.903 474.711 151.759Z" fill="#E6E6E6" stroke="#4E4E4E"/>
<path d="M359.562 178.421L357.957 169.881C357.616 168.094 358.792 166.373 360.574 166.042L473.976 144.571C475.757 144.229 477.472 145.409 477.802 147.197L479.407 155.736C479.737 157.524 478.571 159.245 476.79 159.576L363.388 181.047C361.607 181.378 359.892 180.208 359.562 178.421Z" fill="#4E4E4E"/>
<path d="M450.105 164.629C450.105 169.87 426.675 175.916 417.956 175.916C409.237 175.916 404.619 173.246 404.619 173.246L450.105 164.629Z" fill="#A6A8A9"/>
<path d="M198.585 275.118L177.585 277.877L177.585 285.766L457.021 247.734L457.021 241.246L435.922 244.015L422.409 228.183L435.922 212.35L457.021 215.119L457.021 208.632L177.585 170.6L177.585 178.488L198.585 181.247L239.332 228.194L198.585 275.14L198.585 275.118ZM244.753 234.427L271.745 265.53L211.46 273.43L244.764 234.427L244.753 234.427ZM378.803 228.172L396.703 207.197L399.606 207.572L417.473 228.161L399.606 248.749L396.703 249.124L378.803 228.149L378.803 228.172ZM391.206 249.863L356.396 254.431L375.626 231.901L391.217 249.863L391.206 249.863ZM375.615 224.431L356.385 201.901L391.195 206.469L375.604 224.431L375.615 224.431ZM372.371 228.172L348.71 255.435L345.489 255.854L321.849 228.172L345.489 200.478L348.71 200.897L372.371 228.161L372.371 228.172ZM292.262 262.838L317.902 232.806L338.683 256.748L292.262 262.838ZM338.683 199.584L317.902 223.527L292.262 193.494L338.683 199.584ZM313.878 228.172L282.707 264.096L280.959 264.328L250.096 228.183L280.959 192.037L282.707 192.269L313.878 228.194L313.878 228.172ZM431.7 244.556L405.466 247.998L419.957 231.029L431.7 244.556ZM431.7 211.787L419.957 225.314L405.466 208.345L431.7 211.787ZM211.449 182.913L271.734 190.813L244.742 221.916L211.438 182.913L211.449 182.913Z" fill="#0071ED"/>
<path d="M158.409 295.915L134 299.887L134 311.262L458.736 256.393L458.736 247.026L434.218 251.02L418.506 228.17L434.218 205.32L458.736 209.314L458.736 199.947L134 145.078L134 156.453L158.409 160.425L205.753 228.17L158.409 295.915ZM212.064 237.195L243.433 282.068L173.373 293.476L212.064 237.195ZM367.841 228.17L388.643 197.906L392.019 198.457L412.788 228.17L392.019 257.883L388.643 258.435L367.841 228.17ZM382.244 259.472L341.783 266.059L364.125 233.554L382.233 259.472L382.244 259.472ZM364.136 222.775L341.794 190.271L382.255 196.858L364.147 222.775L364.136 222.775ZM360.364 228.17L332.866 267.515L329.128 268.122L301.662 228.17L329.128 188.218L332.866 188.825L360.364 228.17ZM267.27 278.195L297.066 234.867L321.211 269.424L267.27 278.206L267.27 278.195ZM321.211 186.939L297.066 221.495L267.27 178.167L321.211 186.95L321.211 186.939ZM292.394 228.181L256.165 280.005L254.131 280.336L218.266 228.17L254.131 176.005L256.165 176.336L292.394 228.159L292.394 228.181ZM429.314 251.826L398.836 256.791L415.669 232.308L429.314 251.837L429.314 251.826ZM429.314 204.537L415.669 224.066L398.836 199.583L429.314 204.548L429.314 204.537ZM173.373 162.875L243.433 174.283L212.064 219.156L173.373 162.875Z" fill="#004E7C"/>
<path d="M479.66 240.815L479.66 214.986C479.66 212.293 477.484 210.109 474.8 210.109L362.564 210.109C359.88 210.109 357.704 212.293 357.704 214.986L357.704 240.815C357.704 243.508 359.88 245.692 362.564 245.692L474.8 245.692C477.484 245.692 479.66 243.508 479.66 240.815Z" fill="#4E4E4E"/>
<path d="M474.8 242.348L362.563 242.348C361.728 242.348 361.046 241.664 361.046 240.825L361.046 214.996C361.046 214.157 361.728 213.473 362.564 213.473L474.8 213.473C475.636 213.473 476.317 214.157 476.317 214.996L476.317 240.825C476.317 241.664 475.636 242.348 474.8 242.348Z" fill="#E6E6E6"/>
</svg>
