<svg width="425" height="400" viewBox="0 0 425 400" fill="none" xmlns="http://www.w3.org/2000/svg">
    <style>
        @keyframes cloud-move1 {
            0% {
                transform: translateX(-30px);
                opacity: 0;
            }
            10% {
                opacity: .0015;
            }
            25% {
                opacity: 1;
            }
            50% {
                opacity: 1;
            }
            75% {
                opacity: .0015;
            }
            100% {
                transform: translateX(560px);
                opacity: 0;
            }
        }
        @keyframes cloud-move2 {
            0% {
                transform: translateX(-510px);
                opacity: 0;
            }
            10% {
                opacity: .0015;
            }
            25% {
                opacity: 1;
            }
            50% {
                opacity: 1;
            }
            75% {
                opacity: .0015;
            }
            100% {
                transform: translateX(80px);
                opacity: 0;
            }
        }
        .cloud1 {
            animation: cloud-move1 8s;
            animation-iteration-count: infinite;
        }
        .cloud2 {
            animation: cloud-move2 6s;
            animation-iteration-count: infinite;
        }

        @keyframes star {
            0% {
                transform: scale(0.3) rotate(-45deg);
                opacity: .0015;
            }
            25% {
                opacity: .5;
            }
            50% {
                transform: scale(1) rotate(0deg);
                opacity: 1;
            }
            75% {
                opacity: .5;
            }
            100% {
                transform: scale(0.3) rotate(45deg);
                opacity: .0015;
            }
        }
        .star1 {
            animation: star .2s;
            animation-iteration-count: infinite;
            transform-origin: 50% 50%;
            transform-box: fill-box;
        }
        .star2 {
            animation: star .25s;
            animation-iteration-count: infinite;
            transform-origin: 50% 50%;
            transform-box: fill-box;
        }
        .star3 {
            animation: star .3s;
            animation-iteration-count: infinite;
            transform-origin: 50% 50%;
            transform-box: fill-box;
        }
        .star4 {
            animation: star .35s;
            animation-iteration-count: infinite;
            transform-origin: 50% 50%;
            transform-box: fill-box;
        }
    </style>
    <g clip-path="url(#clip0_120_15242)">
        <g class="cloud1">
            <path d="M75.1396 308.473C81.1039 308.473 93.3577 319.052 75.8451 320.746C58.3326 322.44 32.1022 321.66 21.4895 321.697C4.16457 321.755 -0.1323 321.047 0.00511565 313.967C0.0843937 309.871 2.3491 301.307 11.4819 300.231C20.9821 299.113 14.7799 307.2 26.3783 307.519C36.2563 307.792 37.9608 298.173 47.6116 298.011C59.0303 297.821 56.9347 308.23 63.5465 309.927C70.811 311.79 69.1831 308.473 75.1448 308.473H75.1396Z" fill="#E7F4FA"/>
        </g>
        <g class="cloud2">
            <path d="M365.372 136.631C353.646 137.41 342.442 136.387 330.938 133.784C329.173 133.385 327.302 132.852 326.108 131.369C324.298 129.126 324.842 125.349 326.795 123.254C328.748 121.161 331.692 120.532 334.408 120.822C336.147 121.01 337.931 121.523 339.609 120.989C341.707 120.323 343.094 118.214 344.5 116.38C345.906 114.544 347.811 112.731 349.978 113.016C351.604 113.23 352.883 114.575 354.328 115.416C355.774 116.259 357.872 116.346 358.702 114.797C360.475 111.481 357.986 102.388 367.118 102.388C380.302 102.388 378.149 111.542 379.737 113.481C382.142 116.425 386.425 115.778 389.911 114.781C393.396 113.785 397.545 112.839 400.233 115.471C402.564 117.754 402.804 121.94 405.283 124.025C407.923 126.245 411.67 125.061 414.868 124.065C418.065 123.069 422.188 122.701 424.043 125.732C425.599 128.272 424.439 131.964 422.227 133.824C420.015 135.687 417.098 136.142 414.315 136.327C396.256 137.529 379.858 135.661 365.374 136.625L365.372 136.631Z" fill="#E7F4FA"/>
        </g>
        <path d="M277.853 194.472C246.242 181.682 204.127 184.802 177.923 184.802C151.719 184.802 85.6886 190.939 86.1035 195.513C86.5184 200.087 108.357 241.891 134.561 241.891C160.765 241.891 256.847 219.117 256.847 219.117L277.853 194.472Z" fill="#DB9923"/>
        <path d="M263.296 87.3356C261.565 72.1115 265.946 73.6363 267.051 65.2143C267.603 61.0126 261.85 56.4462 259.89 57.0302C256.227 58.1216 261.911 70.2115 257.081 65.8089C255.849 64.6858 256.874 59.3108 255.511 59.1628C250.265 58.5893 255.228 75.4227 254.007 82.4388C252.81 89.3122 263.293 87.3356 263.293 87.3356H263.296Z" fill="#EFAEA6"/>
        <path d="M242.932 27.6681C242.932 27.6681 241.98 22.1266 243.069 22.0447C244.155 21.9628 264.242 20.438 264.242 20.438L265.145 25.9161L251.985 28.2178L242.934 27.6681H242.932Z" fill="white"/>
        <path d="M237.554 27.9005C243.434 27.3535 269.503 25.5776 269.503 25.5776L270.346 34.026L261.24 34.9853L237.433 36.2696L237.552 27.9005H237.554Z" fill="#D9EEF4"/>
        <path d="M275.05 34.0157C275.151 36.5394 259.173 63.893 255.276 65.4864C255.191 65.5208 255.114 65.5419 255.043 65.5525C254.908 65.571 254.745 65.5393 254.554 65.46C250.255 63.708 232.177 38.6059 232.28 36.8644C232.293 36.653 232.845 36.4522 233.818 36.2619C241.257 34.8085 273.19 33.9602 274.908 33.8307C275 33.8228 275.048 33.8889 275.05 34.0183V34.0157Z" fill="#85D0F5"/>
        <path d="M237.554 27.9008C236.613 28.0382 231.74 36.7773 232.248 36.7403C232.755 36.7033 243.32 36.41 243.344 35.8973C243.368 35.3846 238.373 27.7819 237.554 27.9008Z" fill="#61ACCD"/>
        <path d="M248.238 27.0893C247.297 27.2267 242.424 35.9658 242.931 35.9288C243.436 35.8891 254.004 35.5984 254.028 35.0858C254.052 34.5731 249.057 26.9704 248.238 27.0893Z" fill="#85D0F5"/>
        <path d="M258.811 26.2885C257.87 26.4259 252.997 35.165 253.505 35.128C254.009 35.0883 264.577 34.7977 264.601 34.285C264.625 33.7723 259.63 26.1696 258.811 26.2885Z" fill="#6BCCF2"/>
        <path d="M254.551 65.4573C250.252 63.7053 232.174 38.6032 232.277 36.8618C232.29 36.6503 232.842 36.4495 233.815 36.2592C237.985 36.1403 242.932 35.9263 242.932 35.9263L254.551 65.4573Z" fill="#ABE0F4"/>
        <path opacity="0.34" d="M275.05 34.0156C275.15 36.5393 259.173 63.8929 255.275 65.4864L264.197 34.4173L275.05 34.0156Z" fill="#026596"/>
        <path d="M269.503 25.5776C268.563 25.7151 263.69 34.4541 264.197 34.4171C264.702 34.3775 275.135 34.5228 275.159 34.0128C275.182 33.5002 270.32 25.4614 269.503 25.5803V25.5776Z" fill="#64B6D9"/>
        <path d="M243.066 22.0449C242.152 22.1559 237.231 28.0383 237.723 28.0013C238.214 27.9643 248.444 27.523 248.481 27.1848C248.518 26.8465 243.859 21.9471 243.066 22.0449Z" fill="#61ACCD"/>
        <path d="M253.878 21.2226C252.963 21.3336 248.043 27.2161 248.534 27.1791C249.026 27.1421 259.255 26.7007 259.292 26.3625C259.329 26.0242 254.671 21.1249 253.878 21.2226Z" fill="#85D0F5"/>
        <path d="M264.239 20.438C263.325 20.549 258.404 26.4314 258.896 26.3944C259.387 26.3574 269.617 25.9161 269.654 25.5778C269.691 25.2396 265.032 20.3402 264.239 20.438Z" fill="#85D0F5"/>
        <path d="M254.028 35.0859L254.961 65.9594L242.932 35.9289L254.028 35.0859Z" fill="#70CAF3"/>
        <path d="M259.236 66.0649C258.79 64.0512 257.125 57.9362 258.227 57.4315C259.329 56.9268 261.287 56.8396 262.563 57.82C263.84 58.8004 264.302 63.7949 264.302 63.7949L259.236 66.0649Z" fill="#EFAEA6"/>
        <path d="M131.876 202.066C130.946 204.188 133.15 205.904 133.866 208.303C134.474 210.346 132.458 212.616 130.87 210.134C127.413 204.733 124.802 223.989 117.968 218.482C114.477 215.671 114.303 210.515 115.714 207.851C118.066 203.406 122.189 199.659 124.229 196.892C124.821 196.089 127.529 190.701 129.953 189.884C132.844 188.909 135.542 192.624 136.659 193.417C137.835 194.25 132.807 199.944 131.876 202.066Z" fill="#EFAEA6"/>
        <path d="M201.686 144.566L211.609 141.231C211.609 141.231 221.088 138.697 218.39 137.663C214.788 136.284 214.836 135.946 212.997 134.463C211.99 133.652 209.572 129.635 208.512 128.015C208.496 127.989 208.478 127.962 208.459 127.936C206.604 125.095 204.747 122.188 204.747 122.188L204.477 121.409L203.187 120.468L202.881 120.243L196.346 115.468C196.346 115.468 194.073 122.048 195.952 126.237C197.664 130.055 199.025 140.813 201.689 144.566H201.686Z" fill="#EFAEA6"/>
        <path opacity="0.14" d="M208.462 127.936C206.607 125.095 204.749 122.189 204.749 122.189L204.48 121.409L203.19 120.468L202.883 120.244L201.684 120.405C201.684 120.405 198.396 123.806 198.198 125.275C197.918 127.363 203.219 129.91 208.465 127.936H208.462Z" fill="#1F1F3B"/>
        <path opacity="0.46" d="M207.444 227.62C207.444 227.62 207.455 227.623 207.468 227.631C207.479 227.528 207.479 227.483 207.479 227.47C207.468 227.491 207.444 227.62 207.444 227.62Z" fill="#1F1F39"/>
        <path d="M197.302 132.558C200.764 132.178 202.194 137.458 206.324 137.363C208.504 137.312 208.372 134.564 209.308 133.491C209.884 132.831 211.239 131.779 211.681 132.167C233.088 151.038 216.699 206.157 219.593 209.45C221.96 212.143 205.402 220.208 194.416 218.742C179.348 216.731 178.844 201.063 179.002 198.045C179.161 195.027 184.113 143.507 184.113 143.507C184.113 143.507 191.24 138.914 197.302 132.556V132.558Z" fill="white"/>
        <path d="M197.3 132.558C197.3 132.558 192.429 134.44 186.869 136.837C178.286 140.246 151.022 157.642 144.035 162.882C137.957 167.441 126.396 189.919 125.17 191.882C123.941 193.843 132.44 204.384 134.255 202.014C136.07 199.643 146.353 181.912 152.074 175.81C157.314 170.221 174.88 162.821 176.88 164.629C179.309 166.825 180.168 171.098 178.606 177.348C177.234 182.842 176.867 188.954 174.959 196.544C173.109 203.895 161.418 222.367 165.858 226.22C171.51 231.127 191.214 228.754 196.367 222.372C197.268 221.255 197.744 220.118 197.952 218.908C198.742 214.386 195.838 208.874 197.786 199.731C199.16 193.296 201.152 181.814 201.094 173.984C200.97 157.327 198.103 137.183 197.305 132.556L197.3 132.558Z" fill="#004E7C"/>
        <path d="M251.143 79.6082C250.474 83.3924 247.633 110.093 244.156 113.848C241.016 117.236 227.734 125.436 211.329 132.093C211.329 132.093 210.935 138.409 212.902 147.103C215.499 158.59 209.5 167.554 212.138 181.507C214.371 193.325 214.876 208.631 212.024 216.313C210.357 220.805 210.888 223.289 216.968 223.498C220.253 223.611 228.879 220.839 231.027 214.817C233.968 206.577 228.03 188.626 226.884 183.119C226.437 180.976 226.167 175.809 225.869 172.749C225.398 167.935 228.305 151.852 231.056 149.016C234.568 145.396 251.232 129.247 256.153 122.463C260.463 116.523 263.933 86.4287 264.596 82.1107C264.945 79.8407 251.668 76.6379 251.145 79.6055L251.143 79.6082Z" fill="#004E7C"/>
        <path d="M189.3 120.235C189.3 120.235 194.957 125.346 197.529 126.493C197.637 126.541 197.748 126.58 197.869 126.615C200.66 127.402 207.074 124.627 210.319 120.28C211.717 118.409 204.669 116.248 206.043 114.541C206.844 113.547 204.804 112.733 202.428 111.864C200.816 111.277 199.051 110.661 197.917 109.948C197.854 109.908 197.79 109.868 197.732 109.826L191.768 117.186L189.297 120.233L189.3 120.235Z" fill="#EFAEA6"/>
        <path d="M187.582 124.828C188.042 129.35 197.967 127.809 197.87 126.615C197.756 125.222 194.268 124.305 194.305 123.018C194.36 121.081 195.499 121.755 197.246 121.515C199.114 121.256 200.763 119.319 197.801 119.015C195.359 118.764 195.283 117.886 195.978 116.948C196.126 116.747 196.31 116.544 196.511 116.343C197.788 115.083 198.147 115.304 198.459 113.949C198.771 112.593 196.089 113.196 197.243 111.132C197.465 110.738 198.285 110.585 198.591 110.022C199.606 108.164 200.232 107.205 198.832 105.722C196.133 102.866 193.536 105.456 192.563 107.387C191.937 108.632 189.437 107.033 187.838 109.234C186.586 110.963 187.704 111.552 186.652 113.143C186.015 114.102 183.153 114.662 183.105 116.93C183.1 117.154 183.105 117.366 183.127 117.567C183.449 121.129 187.204 121.16 187.577 124.831L187.582 124.828Z" fill="#1F1F3B"/>
        <path opacity="0.18" d="M206.35 138.626C206.302 138.594 206.188 138.702 206.017 138.914C205.221 139.897 203.173 143.115 200.478 145.274C199.754 145.853 198.985 146.358 198.179 146.72C197.024 147.238 195.79 147.602 194.513 147.679C194.429 147.684 194.347 147.69 194.26 147.692C194.236 147.692 194.207 147.692 194.18 147.695C192.072 147.75 170.402 145.914 170.402 145.914C170.402 145.914 178.475 141.271 178.956 140.758C178.248 140.637 182.891 144.587 182.191 144.466C181.808 144.397 181.427 144.331 181.047 144.268C181.567 143.467 182.061 142.719 182.516 142.037C182.883 142.114 183.256 142.188 183.634 142.262C184.199 142.373 184.773 142.481 185.346 142.584C189.075 143.263 192.769 143.765 193.898 143.67C194.794 143.591 195.663 143.427 196.501 143.189C196.707 143.134 196.913 143.07 197.116 143.004C197.515 142.878 197.907 142.735 198.29 142.579C199.149 142.23 199.968 141.823 200.742 141.379C202.277 140.499 203.622 139.49 204.738 138.567C205.591 137.862 205.737 136.76 206.743 136.741C208.081 136.718 206.765 138.914 206.352 138.626H206.35Z" fill="#1F1F39"/>
        <path d="M207.793 139.233C206.979 139.418 206.598 139.141 206.188 138.856C206.157 138.834 206.099 138.856 206.014 138.911C205.393 139.334 203.371 141.71 200.594 143.599C199.175 144.564 197.555 145.399 195.827 145.777C195.288 145.895 194.738 145.969 194.181 145.985C191.527 146.075 187.904 145.47 184.3 144.833C183.592 144.712 182.886 144.585 182.186 144.46C181.803 144.392 181.422 144.326 181.042 144.262C178.132 143.768 175.447 143.393 173.566 143.52C168.73 143.839 162.157 150.43 154.645 151.268C150.041 151.783 132.674 150.224 130.716 149.397C128.758 148.567 127.391 146.707 127.344 145.597C127.294 144.487 129.009 143.911 131.828 143.493C134.645 143.073 144.811 147.301 154.364 146.004C163.917 144.701 166.034 138.861 172.662 137.579C176.322 136.871 181.028 138.401 185.264 139.847C185.814 140.034 186.361 140.222 186.892 140.401C189.672 141.342 192.14 142.106 193.821 141.961C195.161 141.847 196.44 141.532 197.645 141.089C198.784 140.674 199.852 140.148 200.843 139.564C202.304 138.713 203.591 137.743 204.658 136.858C205.512 136.152 205.602 135.748 206.609 135.729C207.943 135.708 208.369 136.736 208.398 137.365C208.424 137.994 208.353 139.109 207.793 139.233Z" fill="#BD934A"/>
        <g class="star1">
            <path d="M226.559 62.5555C231.741 61.5909 232.412 59.2655 233.155 52.104C234.042 58.8506 234.986 61.3901 240.303 61.9953C235.744 64.0697 234.145 64.8228 233.567 72.6714C232.179 64.7858 231.144 64.1173 226.559 62.5581V62.5555Z" fill="white"/>
        </g>
        <g class="star2">
            <path d="M270.016 13.6755C276.797 12.4123 277.674 9.37066 278.644 0C279.806 8.82629 281.038 12.148 287.999 12.9408C282.037 15.6574 279.941 16.6405 279.185 26.907C277.37 16.5876 276.014 15.7156 270.016 13.6755Z" fill="white"/>
        </g>
        <path d="M277.854 194.472C273.33 250.865 231.463 291.627 218.654 319.189C218.654 319.189 218.654 319.195 218.649 319.197C216.051 324.794 214.627 329.931 214.912 334.701C214.923 334.87 214.923 335.029 214.926 335.188V335.193C214.968 339.416 212.22 342.695 207.878 345.029C207.873 345.029 207.867 345.034 207.862 345.037C205.626 346.236 202.973 347.185 200.058 347.877C199.226 348.078 198.37 348.253 197.5 348.411C196.496 348.599 195.466 348.749 194.401 348.871H194.395L194.371 348.876C194.303 348.884 194.231 348.892 194.16 348.9C185.979 349.865 176.766 349.133 169.267 346.704C168.881 346.58 168.5 346.45 168.125 346.316C167.982 346.26 167.85 346.21 167.716 346.165C167.716 346.165 167.71 346.165 167.705 346.16C166.069 345.56 164.531 344.87 163.12 344.093C162.985 344.019 162.853 343.945 162.721 343.869C162.457 343.718 162.198 343.565 161.947 343.406C161.82 343.327 161.693 343.247 161.571 343.168C161.447 343.086 161.323 343.007 161.202 342.925C161.175 342.907 161.146 342.888 161.12 342.87C160.916 342.732 160.721 342.595 160.528 342.455C160.514 342.444 160.501 342.434 160.485 342.423C160.372 342.338 160.253 342.251 160.142 342.167C160.055 342.101 159.967 342.032 159.878 341.963C159.74 341.855 159.605 341.747 159.473 341.638C159.291 341.488 159.111 341.334 158.939 341.178C158.921 341.162 158.905 341.147 158.887 341.131C158.81 341.062 158.733 340.993 158.662 340.925C158.646 340.911 158.636 340.901 158.622 340.888C158.559 340.83 158.498 340.769 158.435 340.708C158.173 340.457 157.925 340.201 157.687 339.936C155.721 337.769 154.516 335.214 154.349 332.286C154.288 331.234 154.088 330.132 153.739 328.993C153.739 328.993 153.739 328.988 153.739 328.985C152.925 326.25 151.326 323.277 149.154 320.022C144.934 313.645 138.496 306.193 131.332 297.38C112.731 274.542 88.974 241.055 86.1094 195.307C86.1094 195.307 128.639 208.512 179.177 209.45C238.77 210.555 277.859 194.477 277.859 194.477L277.854 194.472Z" fill="#F2B233"/>
        <path d="M233.812 236.555C233.012 233.347 231.183 230.868 228.524 229.383C225.668 227.787 222.018 227.412 217.676 228.27C214.471 228.902 211.688 231.354 209.167 235.77C207.146 239.311 205.256 244.248 203.554 250.439C202.91 252.783 202.283 255.325 201.683 258.058C200.603 258.029 199.524 257.968 198.457 257.878C195.434 257.622 192.585 257.109 189.99 256.369C190.159 256.211 190.323 256.049 190.484 255.886C194.247 252.07 196.097 247.022 195.83 241.288C195.354 231.053 188.552 225.726 182.044 225.726H181.949C178.767 225.749 175.818 227.028 173.64 229.327C171.304 231.793 170.001 235.268 169.877 239.38C169.671 246.124 172.422 251.877 177.834 256.015C178.178 256.277 178.526 256.53 178.883 256.779C176.433 257.421 173.688 257.709 170.739 257.614C168.278 257.535 165.905 257.336 163.651 257.03C163.239 251.097 163.03 246.673 163.125 244.639C163.31 240.791 162.486 237.152 160.744 234.121C159.074 231.214 156.643 229.042 153.897 228.009C149.545 226.37 145.082 227.734 141.958 231.658C136.036 239.092 136.818 245.043 138.52 248.724C141.326 254.794 148.67 259.223 158.955 261.313C160.065 276.059 162.081 297.245 163.878 315.331C164.217 318.724 164.547 322.009 164.861 325.122C165.189 328.372 165.504 331.435 165.792 334.239C165.9 335.317 166.008 336.358 166.111 337.354C166.159 337.827 166.209 338.29 166.254 338.742C166.653 342.589 166.978 345.718 167.203 347.861C167.38 349.524 167.491 350.594 167.53 350.945C167.583 351.445 167.782 351.897 168.075 352.259C168.537 352.829 169.24 353.184 170.012 353.184C170.099 353.184 170.189 353.178 170.279 353.17C170.784 353.117 171.235 352.917 171.6 352.615C172.229 352.1 172.594 351.289 172.501 350.419C172.493 350.34 172.417 349.629 172.287 348.379C172.092 346.524 171.772 343.485 171.37 339.59C171.36 339.482 171.349 339.371 171.336 339.26C171.19 337.862 171.035 336.355 170.873 334.759C170.588 331.974 170.274 328.909 169.943 325.642C169.605 322.294 169.246 318.732 168.878 315.038C167.121 297.367 165.15 276.709 164.026 262.127C166.117 262.378 168.305 262.542 170.575 262.616C175.952 262.791 180.812 261.847 184.805 259.908C189.607 261.829 195.103 262.812 200.648 263.031C199.051 271.207 197.632 280.819 196.406 291.769C195.531 299.57 194.834 307.361 194.279 314.596C193.914 319.364 193.613 323.888 193.365 328.015C193.169 331.282 193.005 334.299 192.87 336.99C192.791 338.588 192.722 340.071 192.662 341.424C192.662 341.437 192.662 341.453 192.662 341.466C192.421 346.907 192.329 350.211 192.326 350.306C192.326 350.343 192.326 350.377 192.326 350.411C192.345 351.743 193.412 352.835 194.76 352.872H194.829C196.018 352.872 197.019 352.037 197.268 350.911C197.305 350.758 197.323 350.599 197.326 350.438C197.326 350.345 197.416 347.172 197.646 341.929C197.664 341.498 197.685 341.054 197.706 340.594C197.751 339.622 197.799 338.586 197.852 337.494C197.986 334.812 198.148 331.792 198.346 328.52C198.6 324.281 198.911 319.615 199.287 314.694C199.834 307.585 200.521 299.943 201.377 292.298C202.64 281.043 204.101 271.247 205.745 263.018C210.906 262.796 215.943 261.95 220.316 260.621C230.358 257.569 235.908 244.961 233.807 236.558L233.812 236.555ZM152.18 254.073C147.571 252.141 144.418 249.564 143.06 246.623C141.445 243.127 142.391 239.137 145.869 234.769C147.148 233.162 148.676 232.335 150.293 232.335C150.895 232.335 151.514 232.451 152.135 232.684C155.234 233.852 158.435 238.016 158.128 244.396C158.033 246.417 158.213 250.563 158.583 256.102C156.254 255.561 154.106 254.881 152.18 254.07V254.073ZM184.557 254.305C183.193 253.631 181.959 252.876 180.873 252.043C176.735 248.877 174.716 244.665 174.874 239.531C175.07 233.072 178.828 230.752 181.986 230.725H182.038C184.086 230.725 186.145 231.642 187.691 233.246C189.583 235.21 190.669 238.072 190.83 241.515C191.031 245.823 189.675 249.575 186.919 252.371C186.216 253.084 185.426 253.729 184.557 254.303V254.305ZM218.863 255.835C215.105 256.977 210.996 257.696 206.823 257.96C207.325 255.756 207.841 253.687 208.372 251.758C212.563 236.526 216.604 233.579 218.636 233.178C219.69 232.969 220.816 232.829 221.926 232.829C225.02 232.829 227.996 233.928 228.955 237.771C230.49 243.915 226.046 253.653 218.86 255.838L218.863 255.835Z" fill="white"/>
        <g opacity="0.19">
            <path d="M131.329 297.375C112.728 274.537 88.971 241.256 86.1064 195.51L108.775 200.917C106.428 231.444 116.269 256.723 131.329 297.375Z" fill="#EA4F26"/>
        </g>
        <path d="M148.286 338.044C148.308 339.233 148.344 340.449 148.387 341.68C148.532 345.618 148.781 349.677 149.047 353.353C149.137 354.611 149.235 355.821 149.328 356.968C149.787 362.633 150.226 366.7 150.226 366.7C150.226 367.398 150.247 368.09 150.292 368.775C150.363 369.99 150.503 371.193 150.704 372.371C150.977 373.978 151.362 375.543 151.857 377.062C152.43 378.846 153.154 380.564 154.008 382.199C157.414 388.727 162.903 393.969 169.58 397.032C170.244 397.339 170.923 397.622 171.61 397.883C175.233 399.257 179.157 400.008 183.261 400.003H185.637C189.783 399.995 193.75 399.22 197.402 397.806C199.384 397.04 201.278 396.089 203.057 394.968C210.424 390.331 215.852 382.844 217.829 374.039C218.107 372.805 218.315 371.547 218.45 370.265C218.58 369.068 218.643 367.853 218.643 366.621C218.643 366.621 218.664 366.196 218.704 365.432C218.765 364.253 218.857 362.258 218.965 359.758C219.087 356.944 219.222 353.487 219.338 349.825C219.399 347.885 219.452 345.89 219.497 343.897C219.576 340.391 219.618 336.905 219.597 333.787C219.586 331.797 219.544 329.958 219.475 328.362C219.335 325.278 219.068 323.108 218.624 322.513C216.434 319.585 154.592 319.541 150.197 322.601C148.537 323.753 148.136 330.32 148.276 338.049L148.286 338.044Z" fill="#4E4E4E"/>
        <path opacity="0.6" d="M148.992 351.577C159.272 348.741 209.701 341.651 219.206 340.15C219.114 338.892 219.019 337.679 218.926 336.535L148.908 343.683C148.847 345.623 148.612 348.765 148.992 351.577Z" fill="black"/>
        <path opacity="0.6" d="M150.562 368.796C164.126 365.884 210.324 358.942 219.026 357.544C218.955 356.326 218.815 355.126 218.614 353.947L149.423 360.356C149.365 361.534 149.827 365.984 150.562 368.796Z" fill="black"/>
        <path d="M222.938 332.97L223.043 333.908C223.337 336.493 221.439 338.837 218.807 339.141L150.057 347.129C147.425 347.436 145.055 345.589 144.762 343.004L144.656 342.066C144.363 339.482 146.26 337.138 148.892 336.834L217.642 328.845C220.274 328.539 222.644 330.386 222.938 332.97Z" fill="#A6A8A9"/>
        <path d="M223.001 350.491L223.107 351.429C223.4 354.013 221.527 356.355 218.921 356.656L150.864 364.57C148.258 364.874 145.909 363.025 145.615 360.44L145.51 359.502C145.216 356.918 147.09 354.576 149.696 354.275L217.753 346.36C220.359 346.056 222.708 347.906 223.001 350.491Z" fill="#A6A8A9"/>
        <path opacity="0.6" d="M151.862 377.062C152.436 378.846 154.423 383.008 155.504 384.324C171.106 381.568 206.926 375.558 217.838 374.039C218.115 372.805 218.324 371.547 218.459 370.265L151.862 377.065V377.062Z" fill="black"/>
        <path d="M221.897 368.088L222.002 369.026C222.296 371.61 220.551 373.936 218.107 374.221L154.238 381.652C151.794 381.938 149.574 380.072 149.28 377.488L149.175 376.549C148.881 373.965 150.626 371.639 153.07 371.354L216.939 363.92C219.383 363.635 221.603 365.501 221.897 368.085V368.088Z" fill="#A6A8A9"/>
        <path d="M293.114 304.076C292.697 303.379 292.266 302.673 291.819 301.959C292.501 302.908 292.924 303.606 293.114 304.076Z" fill="#3B3B4D"/>
        <path d="M168.379 20.5728C168.379 20.5728 167.946 23.1626 167.073 27.6497C164.251 42.1074 156.839 76.2445 144.498 106.846C132.067 137.669 92.3301 195.672 92.3301 195.672C90.0337 194.842 87.7188 193.938 85.3959 192.963C41.4442 174.52 -1.52716 129.889 19.6004 73.5147C19.7564 73.0839 19.9281 72.6506 20.1131 72.2145C41.6001 16.7252 97.8558 -9.82503 158.171 15.7051C158.992 16.0513 159.809 16.4081 160.618 16.7675C163.287 17.9646 165.876 19.2357 168.379 20.5728Z" fill="#F2B233"/>
        <path d="M77.5232 30.4431C76.7885 31.0271 75.8161 31.7089 74.7379 32.4462C73.6571 33.1887 72.4679 33.9974 71.2311 34.917C69.9944 35.8366 68.7048 36.8699 67.4311 38.0802C66.1574 39.2905 64.8968 40.6884 63.7737 42.3031L63.7394 42.3533C61.2738 45.9023 62.1512 50.7779 65.7002 53.2434C69.2492 55.709 74.1248 54.8316 76.5903 51.2826C76.6088 51.2588 76.6485 51.1981 76.6643 51.1743C77.4439 50.0089 78.7678 48.7299 80.5727 47.3716C81.4712 46.6871 82.4807 45.9816 83.5932 45.202C84.7084 44.4171 85.924 43.5689 87.2717 42.4801C90.5935 39.7873 91.1062 34.9117 88.4133 31.5873C85.7364 28.2841 80.9004 27.7582 77.5787 30.4008L77.5232 30.4431Z" fill="white"/>
        <path d="M148.255 30.4879C144.859 28.498 141.305 26.6694 137.574 25.1129C133.845 23.5537 129.937 22.2747 125.92 21.3736C121.906 20.4698 117.791 19.9519 113.708 19.8118C109.626 19.6665 105.582 19.8911 101.642 20.3694H101.632C97.4749 20.8768 94.5152 24.6557 95.0199 28.8125C95.522 32.9561 99.2798 35.9079 103.421 35.4296C109.99 34.6685 116.377 34.8773 122.521 36.3201C128.671 37.7392 134.614 40.3845 140.351 43.8093L140.372 43.8225C144.045 46.0158 148.8 44.8161 150.99 41.1429C153.184 37.4697 151.984 32.7156 148.311 30.5249L148.258 30.4932L148.255 30.4879Z" fill="white"/>
        <g opacity="0.19">
            <path d="M20.1131 72.2119C48.3573 131.75 74.1808 162.636 102.76 177.744L92.3301 195.669C90.0311 194.839 87.7188 193.935 85.3933 192.96C41.4442 174.52 -1.52449 129.889 19.6005 73.5147C19.759 73.084 19.9282 72.6479 20.1131 72.2119Z" fill="#EA4F26"/>
        </g>
        <g class="star3">
            <path d="M248.531 291.228C257.482 289.944 258.758 286.249 260.42 274.804C261.58 285.665 263.06 289.785 272.159 291.022C264.223 294.119 261.432 295.242 260.016 307.797C258.06 295.084 256.316 293.958 248.531 291.228Z" fill="white"/>
        </g>
        <path d="M87.5911 208.118C94.3266 208.118 99.7867 202.522 99.7867 195.619C99.7867 188.715 94.3266 183.119 87.5911 183.119C80.8557 183.119 75.3955 188.715 75.3955 195.619C75.3955 202.522 80.8557 208.118 87.5911 208.118Z" fill="#CC820A"/>
        <path d="M87.5915 203.166C91.659 203.166 94.9564 199.787 94.9564 195.619C94.9564 191.45 91.659 188.071 87.5915 188.071C83.524 188.071 80.2266 191.45 80.2266 195.619C80.2266 199.787 83.524 203.166 87.5915 203.166Z" fill="#F4C83D"/>
        <g class="star4">
            <path d="M69.0664 124.181C82.0231 122.321 83.8729 116.975 86.2777 100.403C87.9557 116.126 90.0989 122.088 103.272 123.882C91.7822 128.367 87.7443 129.995 85.6937 148.168C82.8634 129.762 80.3397 128.134 69.0664 124.184V124.181Z" fill="white"/>
        </g>
        
    </g>
    <defs>
        <clipPath id="clip0_120_15242">
            <rect width="424.753" height="400" fill="white"/>
        </clipPath>
    </defs>
</svg>
