<svg width="16" height="15" viewBox="0 0 16 15" fill="none" xmlns="http://www.w3.org/2000/svg">
<g clip-path="url(#clip0_150_9586)">
<path d="M2.67725 9.37402H4.23974C4.49849 9.37402 4.70849 9.16402 4.70849 8.90527V7.34277C4.70849 7.08402 4.49849 6.87402 4.23974 6.87402H2.67725C2.4185 6.87402 2.2085 7.08402 2.2085 7.34277V8.90527C2.2085 9.16402 2.4185 9.37402 2.67725 9.37402Z" fill="#4E4E4E"/>
<path d="M2.67725 13.124H4.23974C4.49849 13.124 4.70849 12.914 4.70849 12.6553V11.0928C4.70849 10.834 4.49849 10.624 4.23974 10.624H2.67725C2.4185 10.624 2.2085 10.834 2.2085 11.0928V12.6553C2.2085 12.914 2.4185 13.124 2.67725 13.124Z" fill="#4E4E4E"/>
<path d="M7.05273 9.37402H8.61523C8.87398 9.37402 9.08398 9.16402 9.08398 8.90527V7.34277C9.08398 7.08402 8.87398 6.87402 8.61523 6.87402H7.05273C6.79398 6.87402 6.58398 7.08402 6.58398 7.34277V8.90527C6.58398 9.16402 6.79398 9.37402 7.05273 9.37402Z" fill="#4E4E4E"/>
<path d="M7.05273 13.124H8.61523C8.87398 13.124 9.08398 12.914 9.08398 12.6553V11.0928C9.08398 10.834 8.87398 10.624 8.61523 10.624H7.05273C6.79398 10.624 6.58398 10.834 6.58398 11.0928V12.6553C6.58398 12.914 6.79398 13.124 7.05273 13.124Z" fill="#4E4E4E"/>
<path d="M11.4268 9.37402H12.9893C13.248 9.37402 13.458 9.16402 13.458 8.90527V7.34277C13.458 7.08402 13.248 6.87402 12.9893 6.87402H11.4268C11.168 6.87402 10.958 7.08402 10.958 7.34277V8.90527C10.958 9.16402 11.168 9.37402 11.4268 9.37402Z" fill="#4E4E4E"/>
<path d="M13.4585 1.875H12.8335V0.625C12.8335 0.28 12.5535 0 12.2085 0H11.5835C11.2385 0 10.9585 0.28 10.9585 0.625V1.875H4.7085V0.625C4.7085 0.28 4.4285 0 4.0835 0H3.4585C3.1135 0 2.8335 0.28 2.8335 0.625V1.875H2.2085C1.17475 1.875 0.333496 2.71625 0.333496 3.75V13.125C0.333496 14.1587 1.17475 15 2.2085 15H13.4585C14.4922 15 15.3335 14.1587 15.3335 13.125V3.75C15.3335 2.71625 14.4922 1.875 13.4585 1.875ZM14.0835 13.125C14.0835 13.4694 13.8029 13.75 13.4585 13.75H2.2085C1.86412 13.75 1.5835 13.4694 1.5835 13.125V6.275H14.0835V13.125Z" fill="#4E4E4E"/>
</g>
<defs>
<clipPath id="clip0_150_9586">
<rect width="15" height="15" fill="white" transform="translate(0.333496)"/>
</clipPath>
</defs>
</svg>
