<svg width="15" height="16" viewBox="0 0 15 16" fill="none" xmlns="http://www.w3.org/2000/svg">
<path d="M14.6637 12.3544L12.3472 10.0376C11.8858 9.57808 11.1217 9.59205 10.6442 10.0697L9.47714 11.2365C9.40341 11.1959 9.32709 11.1534 9.24685 11.1084C8.50986 10.7 7.50116 10.1403 6.43971 9.07811C5.37512 8.01365 4.8149 7.0034 4.40529 6.26593C4.36207 6.1878 4.32065 6.11247 4.27976 6.04094L5.06303 5.25882L5.44812 4.87326C5.92633 4.39492 5.93952 3.63104 5.47919 3.17015L3.16268 0.853118C2.70235 0.392875 1.93791 0.406837 1.45969 0.88518L0.806819 1.5418L0.82466 1.55951C0.605743 1.83885 0.422809 2.16102 0.286676 2.50844C0.161186 2.83914 0.083057 3.15472 0.0473321 3.47094C-0.258548 6.00676 0.900247 8.32431 4.04507 11.4692C8.39217 15.816 11.8954 15.4876 12.0465 15.4716C12.3756 15.4322 12.6911 15.3536 13.0117 15.2291C13.3561 15.0945 13.678 14.9119 13.9572 14.6934L13.9714 14.7061L14.6329 14.0584C15.1101 13.5802 15.1238 12.816 14.6637 12.3544Z" fill="#0071ED"/>
</svg>
