<svg width="15" height="16" viewBox="0 0 15 16" fill="none" xmlns="http://www.w3.org/2000/svg">
<path d="M10.0397 8.00001L14.4736 3.56639C15.1752 2.86482 15.1752 1.7275 14.4736 1.02628C13.7728 0.325062 12.6347 0.325062 11.9339 1.02628L7.49991 5.46061L3.06594 1.02628C2.36508 0.325062 1.22704 0.325062 0.526182 1.02628C-0.175394 1.72785 -0.175394 2.86518 0.526182 3.56639L4.9598 8.00001L0.526182 12.4336C-0.175394 13.1352 -0.175394 14.2725 0.526182 14.9737C0.876431 15.3247 1.3366 15.4996 1.79606 15.4996C2.25515 15.4996 2.71569 15.3247 3.06594 14.9737L7.49991 10.5401L11.9339 14.9741C12.2845 15.3251 12.7443 15.5 13.2038 15.5C13.6632 15.5 14.1234 15.3251 14.4736 14.9741C15.1752 14.2725 15.1752 13.1352 14.4736 12.434L10.0397 8.00001Z" fill="#4E4E4E"/>
</svg>
