<svg width="15" height="16" viewBox="0 0 15 16" fill="none" xmlns="http://www.w3.org/2000/svg">
<path d="M10.0398 7.99989L14.4737 3.56627C15.1753 2.86469 15.1753 1.72737 14.4737 1.02616C13.7729 0.32494 12.6348 0.32494 11.934 1.02616L7.5 5.46049L3.06603 1.02616C2.36517 0.32494 1.22713 0.32494 0.526273 1.02616C-0.175302 1.72773 -0.175302 2.86505 0.526273 3.56627L4.95989 7.99989L0.526273 12.4335C-0.175302 13.1351 -0.175302 14.2724 0.526273 14.9736C0.876522 15.3246 1.3367 15.4995 1.79615 15.4995C2.25525 15.4995 2.71578 15.3246 3.06603 14.9736L7.5 10.54L11.934 14.974C12.2846 15.3249 12.7444 15.4999 13.2039 15.4999C13.6633 15.4999 14.1235 15.3249 14.4737 14.974C15.1753 14.2724 15.1753 13.1351 14.4737 12.4339L10.0398 7.99989Z" fill="white"/>
</svg>
