<svg xmlns="http://www.w3.org/2000/svg" xmlns:xlink="http://www.w3.org/1999/xlink" viewBox="0 0 720 360">
<style type="text/css">
	.st0{fill:#E6E6E6;}
	.st1{fill:#E7F4FA;}
	.st2{fill:#AFB7BA;}
	.st3{fill:#939FA3;}
	.st4{fill:#FFFFFF;}
	.st5{fill:none;stroke:#00DDF7;stroke-width:4.3101;stroke-linecap:round;stroke-linejoin:round;stroke-dasharray:431.0133;}
	.st6{opacity:0.12;fill:#1F1F3B;enable-background:new    ;}
	.st7{fill:none;stroke:#4E4E4E;stroke-width:13;stroke-miterlimit:10;}
	.st8{fill:#4E4E4E;}
	.st9{fill:#BD934A;}
	.st10{opacity:0.15;fill:#1F1F39;enable-background:new    ;}
	.st11{fill:#A68248;}
	.st12{opacity:0.18;fill:#FFFFFF;enable-background:new    ;}
	.st13{fill:#1F1F39;}
	.st14{opacity:0.85;fill:#1F1F39;enable-background:new    ;}
	.st15{fill:#004E7C;}
	.st16{fill:#0071ED;}
	.st17{opacity:9.000000e-02;enable-background:new    ;}
	.st18{opacity:0.24;fill:#1F1F3B;enable-background:new    ;}
	.st19{fill:#EFAEA6;}
	.st20{opacity:0.14;fill:#1F1F3B;enable-background:new    ;}
	.st21{fill:#1F1F3B;}
	.st22{opacity:0.46;fill:#1F1F3B;enable-background:new    ;}
	.st23{opacity:0.79;fill:#1F1F3B;enable-background:new    ;}
	.st24{opacity:0.35;fill:#1F1F3B;enable-background:new    ;}
	.st25{fill:#E79E9C;}
	.st26{fill:#191939;}
	.st27{fill:#F4AD00;}
	@keyframes dash {
		from {
		  stroke-dashoffset: 500;
		}
		to {
		  stroke-dashoffset: 0;
		}
	}
	.line {
		stroke-dasharray: 500;
		animation: dash 5s linear infinite;
	}
	@keyframes fly {
		0% {
			transform: translate(0px, 0px);
		}
		100% {
			transform: translate(10px, -10px);
		}
	}
	.aeroplane {
		animation: fly 2.5s linear infinite;
	}
	@keyframes cloud-move {
		0% {
			transform: translateX(-90%);
			opacity: 0;
		}
		10% {
			opacity: .0015;
		}
		25% {
			opacity: 1;
		}
		50% {
			opacity: 1;
		}
		75% {
			opacity: 1;
		}
		100% {
			transform: translateX(560px);
			opacity: 0;
		}
	}
	.cloud {
		animation: cloud-move 10s linear infinite;
	}
</style>
<g>
	<path class="st0" d="M428.2,360c146.3,0,264.8-3.3,264.8-7.3c0-4.1-118.5-7.3-264.8-7.3s-264.8,3.3-264.8,7.3
		C163.4,356.7,281.9,360,428.2,360z"/>
	<g class="cloud">
		<path class="st1" d="M574.2,128c-3.8,0-11.7,7.2-0.4,8.4c11.3,1.1,28.1,0.6,34.9,0.7c11.1,0,13.9-0.4,13.8-5.3
			c-0.1-2.8-1.5-4.7-7.3-5.3c-6.1-0.8-3-8-10.4-7.8c-6.4,0.2-7,9.7-12.8,7.3c-5.8-2.3-4.6,4-8.9,5.2C578.3,132.4,578,128,574.2,128
			L574.2,128z"/>
		<path class="st1" d="M390.6,83.5c-11.1,0.7-21.8-0.3-32.8-2.8c-1.6-0.3-3.4-0.9-4.6-2.3c-1.7-2.2-1.2-5.7,0.7-7.8
			c1.9-2,4.7-2.6,7.2-2.3c1.6,0.2,3.4,0.7,4.9,0.2c2-0.6,3.4-2.6,4.7-4.4c1.4-1.7,3.2-3.4,5.3-3.2c1.6,0.2,2.8,1.5,4.1,2.3
			c1.4,0.8,3.4,0.9,4.1-0.6c1.7-3.2-0.6-11.8,8-11.8c12.6,0,10.4,8.7,12,10.6c2.2,2.8,6.4,2.2,9.7,1.3c3.3-0.9,7.2-1.8,9.8,0.7
			c2.2,2.2,2.4,6.1,4.7,8.2c2.5,2.2,6,1,9.1,0.1c3-0.9,7-1.3,8.7,1.6c1.5,2.4,0.3,5.9-1.7,7.7c-2.1,1.7-4.9,2.2-7.5,2.3
			C419.9,84.4,404.4,82.6,390.6,83.5L390.6,83.5z"/>
	</g>
	<g class="aeroplane">
		<path class="st2" d="M658.5,63.2c-0.6,0.5-1.1,1.6-2.8-0.9c-1.9-2.9-10.4-10.9-10-11.3c1-0.8,57.8-35.8,57.8-35.8L658.5,63.2z"/>
		<path class="st3" d="M655.8,49.3c-1.6,1.4-1.8,1.3-1.1,3.5c1.6,5,2,11.5,3.1,10.9c1.1-0.7,45.7-48.5,45.7-48.5
			S656.5,48.7,655.8,49.3z"/>
		<path class="st4" d="M703.5,15.2c0,0.1-0.8,1.1-2,2.8c-5.9,8.4-23.7,32.8-27,33.6c-0.9,0.3-2.2,0.4-3.6,0.5
			c-0.7,0.1-1.4,0.1-2.2,0.1c-0.1,0-0.1,0-0.2,0c-6.1,0.3-13.7-0.4-14.4-1.3v-0.1c0-0.1,0.1-0.2,0.3-0.4l0,0
			c0.2-0.3,0.5-0.5,0.9-0.9l0,0c0.1-0.1,0.2-0.2,0.3-0.3l0,0C664.1,42.3,702.3,16.1,703.5,15.2L703.5,15.2L703.5,15.2L703.5,15.2z"
			/>
		<path class="st4" d="M703.5,15.2c-11.4,4.1-76,34.7-69.4,35.8c6.6,1,9.9,0.2,11.6,0C646.3,50.9,703.5,15.2,703.5,15.2z"/>
	</g>
	<g class="line">
		<path class="st5" d="M401.8,117.8c0,0,77.9,20.9,146.3-7.8c0,0,40.7-18.1,25.8-44.5c0,0-9.1-18.4-31.6-11.8
			c-22.6,6.6-25.9,25.1-16.7,38.6c9.8,14.6,32.2,11.4,36.6,10.7c0,0,39.7-6.1,79.4-39.1"/>
	</g>
	<path class="st0" d="M645.6,188.3v4.2l0,0L645,334.6c0,4.5-1.7,8.6-4.5,11.7c-3.3,3.7-8.1,6-13.4,6l-296.4-0.1
		c-4.4,0-8.4-1.6-11.6-4.3c-3.9-3.3-6.3-8.2-6.2-13.6l0.7-157.3c0-0.5,0-1,0.1-1.6l0,0c0-6.9,0.1-13.7,0.1-19
		c18,15.5,42.8,32.9,67.9,48.4c40.8,25.3,82.4,45.7,97.2,45.8c11.2,0.1,46.5-17.3,84.8-39.4c33.8-19.4,58.3-33,82-50.9
		c-0.1,8.1-0.1,19.7-0.1,26.4v0.1C645.6,187.3,645.6,187.8,645.6,188.3z"/>
	<path class="st4" d="M640.5,346.4c-3.3,3.7-8.1,6-13.4,6l-296.4-0.2c-4.4,0-8.4-1.6-11.6-4.3c39-27.2,135.4-108.1,158.3-108.5
		C498.3,239.1,607.1,322.6,640.5,346.4z"/>
	<path class="st4" d="M640.9,163.9c-3.3-3.7-2.8-9.4-8.1-9.5l-308-1.3c-4.4,0-9.1,0.5-11,3.4c38.7,27.6,134,110,156.8,110.6
		C491.4,267.8,607.4,187.3,640.9,163.9z"/>
	<path class="st6" d="M645.6,161.2c-3.3-3.7-5.1-4-10.4-4L327.2,156c-4.4,0-9.7-0.8-12.8,1.9c37.3,34.2,127.9,115,155.1,115
		C495.2,272.7,612,188.4,645.6,161.2L645.6,161.2z"/>
	<path class="st4" d="M645.6,160.7c-3.3-3.7-7-6.2-12.3-6.2l-307.9-1.3c-4.4,0-8.1,1.7-11.2,4.4c38.7,27.6,134.1,109.1,157,109.7
		C492,267.8,612.1,184.1,645.6,160.7z"/>
	<path class="st7" d="M253.8,324c-1,26.8-45.4,35.8-44.7,9.7c0.2-7,5.3-11.5,11.3-11.5c5.1,0,11,2.9,11,11.7
		c0,13.9-17.8,16-31.1,15.1c-19.1-1.4-26-9.6-25.7-17.6c0.3-9.6,8.3-12.2,14.1-12c7.7,0.3,9.9,7.2,9.7,13.5
		c-1,24.7-110.8,17.8-198.3,13.3"/>
	<path class="st8" d="M262.4,315.8c-2.3,10.3-4.9,17.2-10.4,16c-6.6-1.3-5.4-10.8-2.7-14.8C252,312.9,262.4,315.8,262.4,315.8z"/>
	<path class="st9" d="M317.2,259c-1.4,2.8-2.8,5.4-4.3,8c-12.3,21.6-27.6,38.4-36.6,43.4c-6,3.4-5.6-13.7-13.8-20.9
		c-3.8-3.3-5.9-7.2-4.5-10.8c4.8-11.6,27.1-47.2,32-69.2c3.8-17-2.7-44-5-59.6c-0.7-4.7-1-8.2-0.6-10.3c1.8-8.6,45.6-15.9,45.6-15.9
		c-1.4,23.4,8.6,59.7,0,100c-0.3,1.6-0.7,3.2-1.1,4.8c-0.7,2.6-1.4,5.1-2.2,7.7C324.1,244.1,320.8,251.7,317.2,259z"/>
	<path class="st10" d="M258,278.7c-1.6,3.6,0.7,7.5,4.5,10.8c2.8-2.3,11.4-2.4,23.1-19.5c18.7-27.2,33-74.4,15.2-127.8l-15.8,7.8
		c2.3,15.5,8.8,42.6,5,59.5C285.2,231.6,262.8,267.2,258,278.7L258,278.7z"/>
	<path class="st11" d="M219,306c4.9,4.4,9.9,7.7,14.8,10c4.7,2.2,9.5,3.4,14.1,3.8c4.8,0.4,9.5-0.1,13.9-1.5
		c5.3-1.6,10.3-4.4,14.6-8c1.7-1.5,3.4-3,4.8-4.8c9.9-11.4,13-24.1,6.5-38.5c-2.8-6-7.2-12.4-13.5-19.1c-0.1-0.1-0.1-0.1-0.2-0.2
		c-0.7-0.7-1.4-1.5-2.1-2.2c-4.1-4.1-9.9-5.4-16.5-4.6c-2.8,0.4-5.8,1.2-8.8,2.5c-2.8,1.1-5.7,2.7-8.4,4.5
		c-4.3,2.8-8.5,6.5-12.2,10.8c-0.8,0.9-1.5,1.7-2.2,2.7C211,277.6,208.9,297,219,306L219,306z"/>
	<path class="st9" d="M219,306c4.9,4.4,9.9,7.7,14.8,10c4.7,2.2,9.5,3.4,14.1,3.8c4.8,0.4,9.5-0.1,13.9-1.5c5.3-1.6,10.3-4.4,14.6-8
		c1.7-1.5,3.4-3,4.8-4.8c9.9-11.4,13-24.1,6.5-38.5c-2.8-6-7.2-12.4-13.5-19.1c-0.1-0.1-0.1-0.1-0.2-0.2c-0.7-0.7-1.4-1.5-2.1-2.2
		c-4.1-4.1-9.9-5.4-16.5-4.6c-2.8,0.4-5.8,1.2-8.8,2.5c-2.8,1.1-5.7,2.7-8.4,4.5c-4.3,2.8-8.5,6.5-12.2,10.8
		c-0.8,0.9-1.5,1.7-2.2,2.7C211,277.6,208.9,297,219,306L219,306z"/>
	<path class="st12" d="M219,306c4.9,4.4,9.9,7.7,14.8,10c12.2,0.3,25.3-5.3,34.8-16.3c0,0,0,0,0-0.1c5.8-6.6,9.5-14.3,11-22.1
		c2.2-10.6,0.3-21.4-5.7-29.7c-0.1-0.1-0.1-0.2-0.2-0.3c-0.7-0.7-1.4-1.5-2.1-2.2c-4.1-4.1-9.9-5.4-16.5-4.6
		c-2.8,0.4-5.8,1.2-8.8,2.5c-2.8,1.1-5.7,2.7-8.4,4.5c-4.3,2.8-8.5,6.5-12.2,10.8c-0.8,0.9-1.5,1.7-2.2,2.7
		C211,277.6,208.9,297,219,306L219,306z"/>
	<path class="st11" d="M260.6,289.1c11.3-12.9,13.7-29.4,5.3-36.7s-24.4-2.8-35.7,10.3c-11.3,12.9-13.7,29.4-5.3,36.7
		C233.3,306.6,249.2,302.1,260.6,289.1z"/>
	<path class="st11" d="M257.9,116.2c-2.7,22,6.7,41,20.9,42.9c6.6,0.9,12.5,0.8,17.8-0.1c19.8-3.4,31.1-17.9,33.3-35.3
		c2.6-21.4-7.7-37-38.5-43.7c-0.9-0.2-2-0.4-2.9-0.6C274.5,76.8,260.6,94.2,257.9,116.2L257.9,116.2z"/>
	<path class="st9" d="M257.9,116.2c-2.7,22,6.7,41,20.9,42.9c6.6,0.9,12.5,0.8,17.8-0.1c19.8-3.4,31.1-17.9,33.3-35.3
		c2.6-21.4-7.7-37-38.5-43.7c-0.9-0.2-2-0.4-2.9-0.6C274.5,76.8,260.6,94.2,257.9,116.2L257.9,116.2z"/>
	<path class="st12" d="M257.9,116.2c-2.7,22,6.7,41,20.9,42.9c6.6,0.9,12.5,0.8,17.8-0.1c10.3-6.7,17.9-18.7,19.7-33.1
		c2.5-20.9-8.3-40-24.9-45.9c-0.9-0.2-2-0.4-2.9-0.6C274.5,76.7,260.6,94.2,257.9,116.2z"/>
	<path class="st11" d="M303.7,121.8c2.1-17.1-5.2-32.1-16.3-33.4c-11-1.4-21.6,11.5-23.7,28.5c-2.1,17.1,5.2,32.1,16.3,33.4
		C291,151.6,301.6,138.9,303.7,121.8z"/>
	<path class="st13" d="M290.2,112.5c-0.4,2.1-1.9,3.4-3.2,3.2c-1.3-0.3-2.1-2.2-1.6-4.2c0.4-2.1,1.9-3.4,3.2-3.2
		C290,108.6,290.8,110.5,290.2,112.5z"/>
	<path class="st13" d="M282.4,112.3c-0.4,2.1-1.9,3.4-3.2,3.2c-1.3-0.3-2.1-2.2-1.6-4.2c0.4-2.1,1.9-3.4,3.2-3.2
		C282.1,108.4,282.8,110.2,282.4,112.3z"/>
	<path class="st13" d="M285.2,121.6c-0.4,2.1-1.9,3.4-3.2,3.2s-2.1-2.2-1.6-4.2c0.4-2.1,1.9-3.4,3.2-3.2S285.6,119.5,285.2,121.6z"
		/>
	<path class="st14" d="M252.9,278.2c-1.6,1.5-3.5,1.8-4.5,0.8c-0.9-1-0.4-2.9,1-4.4c1.6-1.5,3.5-1.8,4.5-0.8
		C255,274.8,254.5,276.8,252.9,278.2z"/>
	<path class="st14" d="M246.6,273.5c-1.6,1.5-3.5,1.8-4.5,0.8c-0.9-1-0.4-2.9,1-4.4c1.6-1.5,3.5-1.8,4.5-0.8
		C248.6,270.1,248.1,272.1,246.6,273.5z"/>
	<path class="st14" d="M243.6,282.7c1.6-1.5,2-3.4,1-4.4c-0.9-1-2.9-0.7-4.5,0.8c-1.6,1.5-2,3.4-1,4.4
		C240.1,284.5,242.1,284.1,243.6,282.7z"/>
	<path class="st11" d="M284.8,122.5c-0.6,1.3-1.3,1.8-1.7,2.1c-0.4,0.3,2.5,2.9,2.5,2.9s4-1.3,4.1-1.8c0.1-0.5-1-2.4-1-2.4
		L284.8,122.5L284.8,122.5z"/>
	<path class="st15" d="M583.8,181.7c-2.6-0.4-5.3-0.7-8.3-0.8c-45.3-1.2-53.4,37.8-52.9,72.6c0.3,23,17.8,59.5,32,81.5
		c4.7,7.2,8.9,12.9,12.1,16.1c1.8,1.8,3.3,2.8,4.2,2.8c7.8-0.3,49.3-62.8,52.4-94.8c2.2-21.8,0.2-42.8-9-57.6
		C607.9,191.2,598.1,184,583.8,181.7L583.8,181.7z M603.1,232.8c-0.4,16.1-13.9,28.9-30,28.4c-2.3-0.1-4.5-0.3-6.6-0.9
		c-12.8-3.4-22.2-15.2-21.8-29.1c0.4-16.1,13.9-28.9,30-28.4c1,0,2,0.1,3,0.3C592.3,204.8,603.4,217.6,603.1,232.8z"/>
	<path class="st16" d="M606.2,194.8c-5.5-6.3-12.9-10.9-22.5-13.1c-3.6-0.9-7.7-1.4-12-1.5c-45.3-1.2-54.2,35.9-52.9,72.6
		c0.9,28.1,19.7,63.7,34.1,83.5c5.7,7.8,10.7,13.3,13.6,14.8c0.6,0.3,1.1,0.4,1.6,0.4c7.8-0.3,48.4-61.3,51.5-93.3
		c1.8-18.4,0.7-36.4-5.3-50.4C612.2,203,609.5,198.6,606.2,194.8z M540.9,230.4c0.4-16.1,13.9-28.9,30-28.4c2.3,0.1,4.6,0.3,6.6,0.9
		c12.8,3.4,22.2,15.2,21.8,29.1c-0.4,16.1-13.9,28.9-30,28.4c-1,0-2-0.1-2.9-0.3C551.7,258.4,540.5,245.6,540.9,230.4L540.9,230.4z"
		/>
	<path class="st17" d="M614.3,201.5c9.1,14.7,11.1,35.8,9,57.6c-3.2,32-44.7,94.5-52.4,94.8c-0.9,0.1-2.4-0.9-4.3-2.8
		c-2.9-1.6-7.9-6.9-13.6-14.8c0.5-0.4,1-0.9,1.6-1.3c26.2-22.3,58.9-64.4,59.8-127.1C614.3,205.8,614.3,203.6,614.3,201.5
		L614.3,201.5z"/>
	<path class="st18" d="M332.9,202.8c-1.6,2.1-8.4,17.7-8.2,20.3c0.2,3.8,3.2,9.1,3.2,9.1s4.8-19,4.8-20.2
		C332.7,210.1,332.9,202.8,332.9,202.8L332.9,202.8z"/>
	<path class="st19" d="M402.6,169.5c1.6-1.1,1.2,3.6,2.8,1.5c2.2-3,1-4.3,3.1-5.1c1.2-0.4,10.3-3,5.9-5.5c-4.7-2.7-7.2,1.9-9.3,1.4
		c-0.9-0.2-0.9-2.4-3.1-1.6c-1,0.3,1,2,0.6,3.5c-0.7,2.5-2.2,3.4-2.6,4.3C399.5,169,402.6,169.5,402.6,169.5L402.6,169.5z"/>
	<path class="st19" d="M351.3,175.9c0.8,2.7,0.8,10,2.2,12.7l6.9-1.4c0,0,6.7-1.5,5-2.4c-2.3-1.2-1.4-0.5-2.4-1.6
		c-0.7-0.6-1.6-1.9-2.4-3.4c-1.1-2-2.2-4.2-2.8-5.3c-0.2-0.4-0.3-0.7-0.3-0.7l-0.1-0.5l-4.9-4.7
		C352.5,168.7,350.4,172.9,351.3,175.9L351.3,175.9z"/>
	<path class="st20" d="M360.7,179.8c-1.1-2-2.2-4.2-2.8-5.3h-1.7c0,0-2.1,0.6-2.3,1.6C353.4,177.6,357.8,182.6,360.7,179.8
		L360.7,179.8z"/>
	<path class="st4" d="M346.6,323.2c2.6-1.1,8.6-4.8,8.6-4.8l-3.6-6.9l-9,5.7l-0.3,6.1L346.6,323.2L346.6,323.2z"/>
	<path class="st21" d="M348.9,322.6c0.8,0.3,0,2.5-0.9,3.3c-2,1.9,2.1,9.7,2.7,11.1c0.3,0.8-2.5,3.9-4.5,0.3
		c-1.7-3-7.2-12.6-9.1-15.9c-0.3-0.7-0.3-1.6,0.3-2.1c1.9-1.9,7.2-5,7.8-4.1C345.6,316.7,346,321.4,348.9,322.6L348.9,322.6z"/>
	<path class="st4" d="M369.8,345.1c-0.2-2.8-1.4-9.7-1.4-9.7l-7.8,0.9l2,10.4l5.6,2.6L369.8,345.1L369.8,345.1z"/>
	<path class="st21" d="M370.2,341.8c0.9-0.1,0.8,0.7,1.3,1.8c1.1,2.6,11.1,2.8,12.7,2.8c0.8,0,2.7,3.7-1.3,4.3
		c-3.4,0.5-14.3,2.2-18,2.7c-0.8,0.1-1.6-0.3-1.8-0.9c-1-2.5-2.4-9.5-1.4-9.7C363.1,342.7,366.4,342.2,370.2,341.8z"/>
	<path class="st8" d="M344.4,255.7c0.3,1.2,0.6,2.6,1,4.1c1.6,5.4,5.9,24.1,7.4,36c1.6,11.9,7,39.6,7.7,43.8c3.9,1,6.1,0.2,11.1-1.7
		c0,0-2.7-23.1-4.8-43.3c-1.7-16.4-1.2-14.8-1.5-36c0.1,0.1,1.1,2,2.7,4.9c3.4,6.3,8.8,14.8,9.9,23.5c0.5,4.1-30.9,23.1-32,24
		s5.3,10.4,6.5,10.4c1.2,0,40.6-24.4,41.5-31.1c0.8-6.2-16.3-51.8-19.8-63.4c0,0-33.2-1.8-32.5,9.1c0.1,1.5,0.3,2.8,0.5,4.1
		c0.3,1.6,0.4,3.3,0.6,5C342.9,247.8,343.3,251,344.4,255.7z"/>
	<path class="st22" d="M361.6,252.9L361.6,252.9C361.7,252.9,361.7,252.8,361.6,252.9C361.7,252.9,361.6,252.9,361.6,252.9z"/>
	<path class="st23" d="M365.4,258.4c0.1,0.1,2.1,3.8,3.6,6.7l-3.3-12.3C365.8,252.8,365.9,253.5,365.4,258.4L365.4,258.4z"/>
	<path class="st24" d="M343.7,252.4c0.3-0.1,12.2-4.7,12.9-11c0,0-10.6,2.6-14,3.5C342.9,247.8,343.3,250.9,343.7,252.4z"/>
	<path class="st4" d="M352.1,180.7c2.7-1.2,3.6,3.3,6.5,3.1c1.5-0.1,1-0.7,1.6-1.5c0.3-0.5,0.7-1,1.5-0.4c16,11.8,7.2,49.5,9.4,51.6
		c1.7,1.8-9.2,8-16.9,7.4c-10.4-0.9-11.6-11.7-11.6-13.9c0-2.2,0.9-38.3,0.9-38.3S348.3,185.4,352.1,180.7L352.1,180.7z"/>
	<path class="st15" d="M368.1,237.2c0.5,2.7,1.1,4.7,2.3,5.4c2.1,1.4,4.7,1.3,7.2-2.3c0.2-0.2,0.3-0.4,0.4-0.7
		c3.3-6.2-2.2-21-3.2-24.7c-0.4-1.5-1.1-3.4-1.7-5.5c-0.8-2.6-1.5-9.9-0.7-11.4c2.8-5.5,12.6-0.5,22.4-2.2
		c5-0.9,12.7-25.2,12.7-27.1s-6.7-3-6.9-2.9c-2.1,1-7.3,18.8-9.7,19.7c-4.1,1.6-16.7-4.8-29.1-3.7c0,0,0,0.4,0.2,1.5
		c0.1,0.9,0.3,2,0.8,3.6c0.3,0.9,0.5,2.1,0.9,3.3c2.3,7.9-1.4,14.4,1.1,24.1c1,4.1,1.6,8.4,2.1,12.3
		C367.2,230.6,367.6,234.3,368.1,237.2L368.1,237.2z"/>
	<path class="st25" d="M351.1,248.1c0.3,0.4,1.2,0.3,0.8,0.7c-0.3,0.4-5.1,3.4-5.1,3.4s-0.4,0.6-1.1-0.2c-0.7-0.8-0.9-1.6-0.9-1.6
		L351.1,248.1z"/>
	<path class="st15" d="M338.5,204.4c0.2,1.7,0.3,3.1,0.5,4.3c0.3,2.4,0.6,3.9,0.9,5.5c0.2,0.6,0.3,1.3,0.4,2.1
		c0.2,0.7,0.3,1.6,0.5,2.5l0,0c0,0.2,0.1,0.3,0.1,0.5c0.3,1.6,0.2,4.3,0,7.3c0,0.5-0.1,0.9-0.1,1.5c-0.6,7.9-1.6,17.7,0.9,18.8
		c4.8,2.1,10.7,1.2,14-3.4c2.7-3.9-1.2-7.7-0.1-15.9c0.6-4.6,1.5-12.7,1-18.1c-0.9-11.6-3.8-25.6-4.6-28.8c0,0-7,1.3-11.8,8.1
		C338.3,191.6,337.9,199.1,338.5,204.4L338.5,204.4z"/>
	<path class="st18" d="M340.2,215.2c0.2,0.9,0.3,1.8,0.6,3c0,0.2,0.1,0.4,0.1,0.6l0,0c0,0.2,0.1,0.3,0.1,0.5c0.3,1.6,0.2,4.3,0,7.3
		c4.7-6.2,3.1-18.7,3.1-18.7L340.2,215.2L340.2,215.2z"/>
	<path class="st18" d="M340.6,232.2c0.7,1.7,10.2,14.9,10.2,14.9l-9.9-17.5L340.6,232.2z"/>
	<path class="st19" d="M360.7,164.7c0.9,2.3,4.7,6.2,3.1,6.6s1.8,4.9,0.1,5.4c-4.1,1.3-9.7,0-10.8-1.9c-1.1-1.9-2.3-7.5-2.3-7.5
		L360.7,164.7L360.7,164.7z"/>
	<path class="st26" d="M357,168.1c1.4-0.2,1.5,0.1,2.3-0.6c0.8-0.7-1.1-1.6,0.5-2.2c1.6-0.8,3.5-1.4,3.2-3.4c-0.5-2.9-2.9-1.8-4.4-1
		c-0.9,0.5-1.8-1.6-3.8-0.9c-1.6,0.5-1.1,1.4-2.5,1.9c-0.9,0.3-2.8-0.6-3.9,0.8c-1.9,2.6,0.8,4.3-0.7,6.9c-1.7,3,5.2,6.5,5.7,5.7
		c0.5-0.9-1.2-3-0.6-3.8c0.9-1.2,1.3-0.3,2.5,0.3c1.3,0.7,3.2,0.3,1.5-1.3C354.9,168.8,355.8,168.3,357,168.1L357,168.1z"/>
	<path class="st21" d="M368.9,313.5l-11.6,8.4l-0.6-3.3l12-7.6L368.9,313.5z"/>
	<path class="st21" d="M367.1,296.9l-12.8,8.5l-0.2-1.2l12.7-9.7L367.1,296.9z"/>
	<path class="st15" d="M349.8,195.1c-11.5,27.5-14,24.3-13.7,28.4s15.4,24.7,15.4,24.7s-6.6,5.1-7.6,4.1
		c-0.9-0.9-18.1-22.1-17.8-28.4c0.3-9,12.7-32.7,14.3-35.2c1.6-2.6,9.9-4.8,10.4-0.9C351.4,192,349.8,195.1,349.8,195.1L349.8,195.1
		z"/>
	<path class="st18" d="M358.4,184.6c-0.3-0.2-2.4,4.7-5.8,6.5c-0.9,0.5-1.9,0.9-2.9,0.9c-3.1,0.3-7.9,1.8-11.8,1.5
		c1.3-2.6,1.8-3.9,3.2-5.9c2.8,0.7,6.5,1.6,8.1,1.4c1.2-0.2,2.3-0.5,3.3-1c1.9-0.9,3.5-2.2,4.7-3.4c0.6-0.6,0.7-1.4,1.4-1.5
		C359.6,183.1,358.7,184.7,358.4,184.6L358.4,184.6z"/>
	<path class="st27" d="M359.9,183.5c-0.1-0.4-0.4-1.2-1.5-1.1c-0.8,0.1-0.8,0.3-1.5,0.9c-1.8,1.7-4.6,3.9-8,4.4
		c-3.4,0.5-11.6-3.4-16.6-2.2c-5,1.3-6.3,5.8-13.5,7.2s-15.4-1.1-17.5-0.7c-2.2,0.4-3.4,0.9-3.3,1.8c0.1,0.9,1.3,2.2,2.8,2.7
		s15.1,0.8,18.5,0.1c5.8-1,10.3-6.3,14.1-6.8c3.7-0.5,11.7,1.2,16,0.8c4.8-0.5,8.4-6.1,8.8-5.9c0.3,0.2,0.7,0.3,1.3,0.2
		C360,184.8,360,184,359.9,183.5L359.9,183.5z"/>
	<path class="st9" d="M481.5,316.3c-18.9,8.6-36.4-11.8-22.1-27.7c8.4-9.7,28.8-5.5,28.2,8.8c1.6,7.8-10.1,18.4-14.3,9.9
		c-8.6,9.7-16.6-5.9-9.1-12.8c3-4.4,9.1-4.9,12.1-1.4c0-2.5,1.9-1.6,3.6-1.8c-0.4,2.2-3.3,13.3-3.3,15.1c10,6,13.2-22-4.5-20.5
		c-13-0.9-20.3,17.7-11,26C468.3,319.2,480.3,311.9,481.5,316.3L481.5,316.3z M475.7,295.7c-4.5-6.1-11.7,1.1-11,7.2
		c-0.3,5,4.4,6.2,7.4,3.3C474.3,304.2,474.9,298.5,475.7,295.7z"/>
	<path class="st9" d="M472.6,318.9c-17.7,1.6-25.1-19.4-13.8-30.9c9.1-10.3,30.3-5.7,29.7,9.4c1,8.4-8.8,18.3-15.6,11.7
		c-10.1,8-16.8-8.1-9.5-15.3c3.2-4.3,8.4-5.2,12.2-2.6c-0.6-1.7,4.7-0.6,5.3-0.9c-0.4,2.2-3.6,14.4-3.4,16.4
		c17.7-7.3-2.8-29.8-15.6-15.7c-11.5,13.2,2.5,28.9,17.8,22.2l0.7-0.3l2.3,3.7C479.7,318.2,476.4,318.9,472.6,318.9L472.6,318.9z
		 M472.2,284.2c-27.5,2.1-19.1,41.7,7.9,31.6c-5.1,0.2-15.5,1.6-19.7-3.3c-9.8-8.9-2.2-28.5,11.6-27.7c11.1-0.9,17.6,12.3,11.4,20.5
		c-12.1,10.7-6.1-7.8-4.7-13.4c-1.9-0.6-1.6,1.8-2.1,2.9c-13.4-15.9-22.1,24.7-4.1,11.6c-11.6,8.4-11.4-14-1.8-14.2
		c8.4-0.1,5,7.6,3.2,12.3c-0.9,6.6,7.1,4.9,9.8,1.5C491,297.8,484.4,283.1,472.2,284.2L472.2,284.2z M470.8,294.3
		c-6.6,0.2-7.5,17.5,0.5,11.1C473.3,302.8,477.4,293.6,470.8,294.3z"/>
</g>
</svg>
