<?xml version="1.0" encoding="utf-8"?>
<!-- Generator: Adobe Illustrator 27.1.1, SVG Export Plug-In . SVG Version: 6.00 Build 0)  -->
<svg version="1.1" id="Layer_1" xmlns="http://www.w3.org/2000/svg" xmlns:xlink="http://www.w3.org/1999/xlink" x="0px" y="0px"
	 viewBox="0 0 817 400" style="enable-background:new 0 0 817 400;" xml:space="preserve">
<style type="text/css">
	.st0{fill:#E6E6E6;}
	.st1{fill:#E7F4FA;}
	.st2{fill:#AFB7BA;}
	.st3{fill:#939FA3;}
	.st4{fill:#FFFFFF;}
	.st5{fill:none;stroke:#00DDF7;stroke-width:5;stroke-linecap:round;stroke-linejoin:round;}
	.st6{opacity:0.12;fill:#1F1F3B;enable-background:new    ;}
	.st7{fill:none;stroke:#4E4E4E;stroke-width:18.31;stroke-miterlimit:10;}
	.st8{fill:#4E4E4E;}
	.st9{fill:#BD934A;}
	.st10{opacity:0.15;fill:#1F1F39;enable-background:new    ;}
	.st11{fill:#A68248;}
	.st12{opacity:0.18;fill:#FFFFFF;enable-background:new    ;}
	.st13{fill:#1F1F39;}
	.st14{opacity:0.85;fill:#1F1F39;enable-background:new    ;}
	.st15{fill:#004E7C;}
	.st16{fill:#0071ED;}
	.st17{opacity:9.000000e-02;enable-background:new    ;}
	.st18{opacity:0.24;fill:#1F1F3B;enable-background:new    ;}
	.st19{fill:#EFAEA6;}
	.st20{opacity:0.14;fill:#1F1F3B;enable-background:new    ;}
	.st21{fill:#1F1F3B;}
	.st22{opacity:0.46;fill:#1F1F3B;enable-background:new    ;}
	.st23{opacity:0.79;fill:#1F1F3B;enable-background:new    ;}
	.st24{opacity:0.35;fill:#1F1F3B;enable-background:new    ;}
	.st25{fill:#E79E9C;}
	.st26{fill:#191939;}
	.st27{fill:#F4AD00;}
	@keyframes dash {
		from {
		  stroke-dashoffset: 500;
		}
		to {
		  stroke-dashoffset: 0;
		}
	}
	.line {
		stroke-dasharray: 500;
		animation: dash 2s linear infinite;
	}
	@keyframes fly {
		0% {
			transform: translate(0, 0);
		}
		25% {
			transform: translate(20px, -20px);
		}
		50% {
			transform: translate(40px, -40px);
		}
		75% {
			transform: translate(50px, -50px);
			opacity: .3;
		}
		100% {
			transform: translate(55px, -55px);
			opacity: 0;
		}
	}
	.aeroplane {
		animation: fly 1.6s linear infinite;
	}
	@keyframes cloud-move {
		0% {
			transform: translateX(-90%);
			opacity: 0;
		}
		10% {
			opacity: .0015;
		}
		25% {
			opacity: 1;
		}
		50% {
			opacity: 1;
		}
		75% {
			opacity: .0015;
		}
		100% {
			transform: translateX(560px);
			opacity: 0;
		}
	}
	.cloud {
		animation: cloud-move 3s linear infinite;
	}
</style>
<path class="st0" d="M496.9,400c169.7,0,307.2-3.8,307.2-8.5S666.6,383,496.9,383s-307.2,3.8-307.2,8.5S327.2,400,496.9,400z"/>
<g class="cloud">
	<path class="st1" d="M666.3,130.9c-4.4,0-13.6,8.4-0.5,9.7s32.6,0.7,40.5,0.8c12.9,0,16.1-0.5,16-6.1c-0.1-3.3-1.7-5.4-8.5-6.2
		c-7.1-0.9-3.5-9.3-12.1-9c-7.4,0.2-8.1,11.2-14.8,8.5s-5.3,4.6-10.3,6C671.1,136,670.7,130.9,666.3,130.9L666.3,130.9z"/>
	<path class="st1" d="M453.3,79.2c-12.9,0.8-25.3-0.3-38-3.3c-1.9-0.4-4-1-5.3-2.7c-2-2.5-1.4-6.6,0.8-9c2.2-2.3,5.4-3,8.4-2.7
		c1.9,0.2,3.9,0.8,5.7,0.2c2.3-0.7,3.9-3,5.4-5.1c1.6-2,3.7-4,6.1-3.7c1.8,0.2,3.2,1.7,4.8,2.7c1.6,0.9,3.9,1,4.8-0.7
		c2-3.7-0.7-13.7,9.3-13.7c14.6,0,12.1,10.1,13.9,12.3c2.6,3.3,7.4,2.6,11.2,1.5c3.8-1.1,8.4-2.1,11.4,0.8c2.6,2.5,2.8,7.1,5.5,9.5
		c2.9,2.5,7,1.2,10.6,0.1c3.5-1.1,8.1-1.5,10.1,1.9c1.7,2.8,0.4,6.9-2,8.9s-5.7,2.5-8.7,2.7C487.3,80.3,469.3,78.2,453.3,79.2
		L453.3,79.2z"/>
</g>
<g class="aeroplane">
	<path class="st2" d="M764.1,55.7c-0.7,0.6-1.3,1.8-3.2-1.1c-2.2-3.4-12.1-12.7-11.6-13.1c1.2-0.9,67-41.5,67-41.5L764.1,55.7z"/>
	<path class="st3" d="M761,39.6c-1.9,1.6-2.1,1.5-1.3,4.1c1.9,5.8,2.3,13.3,3.6,12.6c1.3-0.8,53-56.3,53-56.3S761.8,38.9,761,39.6z"
		/>
	<path class="st4" d="M816.3,0c0,0.1-0.9,1.3-2.3,3.2c-6.9,9.7-27.5,38-31.3,39c-1.1,0.3-2.5,0.5-4.2,0.6c-0.8,0.1-1.6,0.1-2.5,0.1
		c-0.1,0-0.1,0-0.2,0c-7.1,0.3-15.9-0.5-16.7-1.5v-0.1c0-0.1,0.1-0.2,0.3-0.5l0,0c0.2-0.3,0.6-0.6,1.1-1.1l0,0
		c0.1-0.1,0.2-0.2,0.4-0.3l0,0C770.6,31.5,814.9,1,816.3,0L816.3,0L816.3,0L816.3,0z"/>
	<path class="st4" d="M816.3,0c-13.2,4.8-88.2,40.3-80.5,41.5s11.5,0.2,13.5,0C750,41.4,816.3,0,816.3,0z"/>
</g>
<g class="line">
	<path class="st5" d="M466.3,119c0,0,90.4,24.2,169.7-9.1c0,0,47.2-21,29.9-51.6c0,0-10.5-21.4-36.7-13.7
		c-26.2,7.7-30.1,29.1-19.4,44.8c11.4,16.9,37.3,13.2,42.5,12.4c0,0,46.1-7.1,92.1-45.4"/>
</g>
<path class="st0" d="M749.1,200.8v4.9l0,0l-0.7,164.8c0,5.2-2,10-5.2,13.6c-3.8,4.3-9.4,7-15.6,7L383.8,391c-5.1,0-9.8-1.9-13.4-5
	c-4.5-3.8-7.3-9.5-7.2-15.8l0.8-182.5c0-0.6,0-1.2,0.1-1.8l0,0c0-8,0.1-15.9,0.1-22c20.9,18,49.6,38.2,78.8,56.2
	c47.3,29.3,95.6,53,112.7,53.1c13,0.1,54-20.1,98.4-45.7c39.2-22.5,67.6-38.3,95.1-59c-0.1,9.4-0.1,22.8-0.1,30.6v0.1
	C749.1,199.7,749.1,200.2,749.1,200.8z"/>
<path class="st4" d="M743.2,384.2c-3.8,4.3-9.4,7-15.6,7L383.8,391c-5.1,0-9.8-1.9-13.4-5c45.2-31.6,157.1-125.4,183.6-125.9
	C578.2,259.8,704.5,356.6,743.2,384.2z"/>
<path class="st4" d="M743.7,172.5c-3.8-4.3-3.2-10.9-9.4-11L377,160c-5.1,0-10.6,0.6-12.8,4c44.9,32,155.4,127.6,181.9,128.3
	C570.3,293,704.8,199.7,743.7,172.5z"/>
<path class="st6" d="M749.1,169.4c-3.8-4.3-5.9-4.6-12.1-4.6l-357.2-1.5c-5.1,0-11.2-0.9-14.8,2.2
	c43.3,39.7,148.4,133.4,179.9,133.4C574.7,298.7,710.2,200.9,749.1,169.4L749.1,169.4z"/>
<path class="st4" d="M749.1,168.8c-3.8-4.3-8.1-7.2-14.3-7.2l-357.2-1.5c-5.1,0-9.4,2-13,5.1c44.9,32,155.6,126.6,182.1,127.3
	C570.9,293,710.3,196,749.1,168.8z"/>
<path class="st7" d="M294.6,358.2c-1.2,31.1-52.7,41.5-51.9,11.3c0.2-8.1,6.1-13.3,13.1-13.3c5.9,0,12.8,3.4,12.8,13.6
	c0,16.1-20.7,18.6-36.1,17.5c-22.1-1.6-30.2-11.1-29.8-20.4c0.4-11.1,9.6-14.1,16.3-13.9c8.9,0.3,11.5,8.3,11.2,15.7
	c-1.2,28.7-128.5,20.6-230,15.4"/>
<path class="st8" d="M304.6,348.7c-2.7,12-5.7,19.9-12.1,18.6c-7.7-1.5-6.3-12.5-3.1-17.2C292.5,345.4,304.6,348.7,304.6,348.7z"/>
<path class="st9" d="M368.2,282.8c-1.6,3.2-3.3,6.3-5,9.3c-14.3,25.1-32,44.5-42.5,50.3c-7,3.9-6.5-15.9-16-24.2
	c-4.4-3.8-6.9-8.3-5.2-12.5c5.6-13.4,31.4-54.7,37.1-80.3c4.4-19.7-3.1-51.1-5.8-69.1c-0.8-5.4-1.2-9.5-0.7-11.9
	c2.1-10,52.9-18.4,52.9-18.4c-1.6,27.2,10,69.2,0,116c-0.4,1.9-0.8,3.7-1.3,5.6c-0.8,3-1.6,5.9-2.6,8.9
	C376.2,265.6,372.4,274.4,368.2,282.8z"/>
<path class="st10" d="M299.5,305.7c-1.8,4.2,0.8,8.7,5.2,12.5c3.3-2.7,13.2-2.8,26.8-22.6c21.7-31.6,38.3-86.3,17.6-148.3l-18.3,9
	c2.7,18,10.2,49.4,5.8,69C331,251,305.1,292.4,299.5,305.7L299.5,305.7z"/>
<path class="st11" d="M254.2,337.4c5.7,5.1,11.5,8.9,17.2,11.6c5.5,2.5,11,4,16.3,4.4c5.6,0.5,11-0.1,16.1-1.7
	c6.2-1.9,11.9-5.1,16.9-9.3c2-1.7,3.9-3.5,5.6-5.6c11.5-13.2,15.1-27.9,7.5-44.7c-3.2-7-8.3-14.4-15.7-22.2
	c-0.1-0.1-0.1-0.1-0.2-0.2c-0.8-0.8-1.6-1.7-2.4-2.5c-4.7-4.7-11.5-6.3-19.1-5.3c-3.3,0.5-6.7,1.4-10.2,2.9
	c-3.3,1.3-6.6,3.1-9.8,5.2c-5,3.3-9.9,7.5-14.2,12.5c-0.9,1-1.7,2-2.6,3.1C245,304.4,242.5,326.9,254.2,337.4L254.2,337.4z"/>
<path class="st9" d="M254.2,337.4c5.7,5.1,11.5,8.9,17.2,11.6c5.5,2.5,11,4,16.3,4.4c5.6,0.5,11-0.1,16.1-1.7
	c6.2-1.9,11.9-5.1,16.9-9.3c2-1.7,3.9-3.5,5.6-5.6c11.5-13.2,15.1-27.9,7.5-44.7c-3.2-7-8.3-14.4-15.7-22.2
	c-0.1-0.1-0.1-0.1-0.2-0.2c-0.8-0.8-1.6-1.7-2.4-2.5c-4.7-4.7-11.5-6.3-19.1-5.3c-3.3,0.5-6.7,1.4-10.2,2.9
	c-3.3,1.3-6.6,3.1-9.8,5.2c-5,3.3-9.9,7.5-14.2,12.5c-0.9,1-1.7,2-2.6,3.1C245,304.4,242.5,326.9,254.2,337.4L254.2,337.4z"/>
<path class="st12" d="M254.2,337.4c5.7,5.1,11.5,8.9,17.2,11.6c14.2,0.3,29.4-6.2,40.4-18.9c0,0,0,0,0-0.1
	c6.7-7.7,11-16.6,12.8-25.6c2.5-12.3,0.3-24.8-6.6-34.4c-0.1-0.1-0.1-0.2-0.2-0.3c-0.8-0.8-1.6-1.7-2.4-2.5
	c-4.7-4.7-11.5-6.3-19.1-5.3c-3.3,0.5-6.7,1.4-10.2,2.9c-3.3,1.3-6.6,3.1-9.8,5.2c-5,3.3-9.9,7.5-14.2,12.5c-0.9,1-1.7,2-2.6,3.1
	C245,304.4,242.5,326.9,254.2,337.4L254.2,337.4z"/>
<path class="st11" d="M302.5,317.7c13.1-15,15.9-34.1,6.2-42.6c-9.7-8.5-28.3-3.2-41.4,11.9c-13.1,15-15.9,34.1-6.2,42.6
	S289.3,332.8,302.5,317.7z"/>
<path class="st11" d="M299.4,117.2c-3.1,25.5,7.8,47.6,24.3,49.8c7.6,1,14.5,0.9,20.7-0.1c23-3.9,36.1-20.8,38.6-40.9
	c3-24.8-8.9-42.9-44.7-50.7c-1.1-0.2-2.3-0.5-3.4-0.7C318.6,71.5,302.5,91.7,299.4,117.2L299.4,117.2z"/>
<path class="st9" d="M299.4,117.2c-3.1,25.5,7.8,47.6,24.3,49.8c7.6,1,14.5,0.9,20.7-0.1c23-3.9,36.1-20.8,38.6-40.9
	c3-24.8-8.9-42.9-44.7-50.7c-1.1-0.2-2.3-0.5-3.4-0.7C318.6,71.5,302.5,91.7,299.4,117.2L299.4,117.2z"/>
<path class="st12" d="M299.4,117.2c-3.1,25.5,7.8,47.6,24.3,49.8c7.6,1,14.5,0.9,20.7-0.1c11.9-7.8,20.8-21.7,22.8-38.4
	c2.9-24.3-9.6-46.4-28.9-53.3c-1.1-0.2-2.3-0.5-3.4-0.7C318.6,71.4,302.5,91.7,299.4,117.2z"/>
<path class="st11" d="M352.5,123.7c2.4-19.8-6-37.2-18.9-38.7c-12.8-1.6-25.1,13.3-27.5,33.1s6,37.2,18.9,38.7
	C337.8,158.3,350.1,143.5,352.5,123.7z"/>
<path class="st13" d="M336.9,112.9c-0.5,2.4-2.2,4-3.7,3.7s-2.4-2.5-1.9-4.9s2.2-4,3.7-3.7C336.6,108.4,337.5,110.6,336.9,112.9z"/>
<path class="st13" d="M327.8,112.6c-0.5,2.4-2.2,4-3.7,3.7s-2.4-2.5-1.9-4.9s2.2-4,3.7-3.7C327.4,108.1,328.3,110.2,327.8,112.6z"/>
<path class="st13" d="M331,123.4c-0.5,2.4-2.2,4-3.7,3.7s-2.4-2.5-1.9-4.9s2.2-4,3.7-3.7S331.5,121,331,123.4z"/>
<path class="st14" d="M293.6,305.1c-1.8,1.7-4.1,2.1-5.2,0.9s-0.5-3.4,1.2-5.1c1.8-1.7,4.1-2.1,5.2-0.9
	C296,301.2,295.4,303.5,293.6,305.1z"/>
<path class="st14" d="M286.3,299.6c-1.8,1.7-4.1,2.1-5.2,0.9s-0.5-3.4,1.2-5.1c1.8-1.7,4.1-2.1,5.2-0.9S288,298,286.3,299.6z"/>
<path class="st14" d="M282.8,310.3c1.8-1.7,2.3-3.9,1.2-5.1c-1.1-1.2-3.4-0.8-5.2,0.9c-1.8,1.7-2.3,3.9-1.2,5.1
	C278.7,312.4,281,312,282.8,310.3z"/>
<path class="st11" d="M330.6,124.5c-0.7,1.5-1.5,2.1-2,2.4s2.9,3.4,2.9,3.4s4.6-1.5,4.7-2.1c0.1-0.6-1.2-2.8-1.2-2.8L330.6,124.5
	L330.6,124.5z"/>
<path class="st15" d="M677.4,193.2c-3-0.5-6.2-0.8-9.6-0.9c-52.5-1.4-62,43.9-61.4,84.2c0.4,26.7,20.7,69,37.1,94.6
	c5.4,8.4,10.3,15,14,18.7c2.1,2.1,3.8,3.3,4.9,3.2c9-0.4,57.2-72.9,60.8-110c2.5-25.3,0.2-49.7-10.4-66.8
	C705.4,204.2,694,195.8,677.4,193.2L677.4,193.2z M699.8,252.4c-0.5,18.7-16.1,33.5-34.8,33c-2.7-0.1-5.2-0.4-7.7-1.1
	c-14.9-3.9-25.7-17.6-25.3-33.7c0.5-18.7,16.1-33.5,34.8-33c1.2,0,2.3,0.1,3.5,0.3C687.3,220,700.2,234.8,699.8,252.4z"/>
<path class="st16" d="M703.4,208.4c-6.4-7.3-15-12.7-26.1-15.2c-4.2-1-8.9-1.6-13.9-1.7c-52.5-1.4-62.9,41.7-61.4,84.2
	c1.1,32.6,22.9,73.9,39.6,96.9c6.6,9.1,12.4,15.4,15.8,17.2c0.7,0.4,1.3,0.5,1.8,0.5c9-0.4,56.1-71.1,59.8-108.2
	c2.1-21.4,0.8-42.2-6.2-58.5C710.4,217.9,707.3,212.8,703.4,208.4z M627.7,249.7c0.5-18.7,16.1-33.5,34.8-33
	c2.7,0.1,5.3,0.4,7.7,1.1c14.9,3.9,25.7,17.6,25.3,33.7c-0.5,18.7-16.1,33.5-34.8,33c-1.2,0-2.3-0.1-3.4-0.3
	C640.2,282.1,627.2,267.3,627.7,249.7L627.7,249.7z"/>
<path class="st17" d="M712.8,216.1c10.6,17.1,12.9,41.5,10.4,66.8c-3.7,37.1-51.8,109.6-60.8,110c-1.1,0.1-2.8-1.1-5-3.2
	c-3.4-1.8-9.2-8-15.8-17.2c0.6-0.5,1.2-1,1.8-1.5c30.4-25.9,68.3-74.7,69.4-147.5C712.8,221.1,712.8,218.6,712.8,216.1L712.8,216.1z
	"/>
<path class="st18" d="M386.4,217.6c-1.9,2.4-9.7,20.5-9.5,23.5c0.2,4.4,3.7,10.5,3.7,10.5s5.6-22,5.6-23.4
	C386.2,226.1,386.4,217.6,386.4,217.6L386.4,217.6z"/>
<path class="st19" d="M467.2,179c1.9-1.3,1.4,4.2,3.2,1.7c2.5-3.5,1.2-5,3.6-5.9c1.4-0.5,11.9-3.5,6.9-6.4
	c-5.4-3.1-8.3,2.2-10.8,1.6c-1-0.2-1-2.8-3.6-1.9c-1.2,0.4,1.2,2.3,0.7,4.1c-0.8,2.9-2.5,3.9-3,5C463.6,178.4,467.2,179,467.2,179
	L467.2,179z"/>
<path class="st19" d="M407.7,186.4c0.9,3.1,0.9,11.6,2.6,14.7l8-1.6c0,0,7.8-1.7,5.8-2.8c-2.7-1.4-1.6-0.6-2.8-1.8
	c-0.8-0.7-1.8-2.2-2.8-3.9c-1.3-2.3-2.6-4.9-3.2-6.2c-0.2-0.5-0.4-0.8-0.4-0.8l-0.1-0.6l-5.7-5.4C409.1,178.1,406.7,183,407.7,186.4
	L407.7,186.4z"/>
<path class="st20" d="M418.6,191c-1.3-2.3-2.6-4.9-3.2-6.2h-2c0,0-2.4,0.7-2.7,1.8C410.2,188.4,415.3,194.2,418.6,191L418.6,191z"/>
<path class="st4" d="M402.3,357.3c3-1.3,10-5.6,10-5.6l-4.2-8l-10.4,6.6l-0.4,7.1L402.3,357.3L402.3,357.3z"/>
<path class="st21" d="M405,356.6c0.9,0.4,0,2.9-1,3.8c-2.3,2.2,2.4,11.2,3.1,12.9c0.3,0.9-2.9,4.5-5.2,0.4
	c-2-3.5-8.4-14.6-10.5-18.4c-0.4-0.8-0.3-1.8,0.3-2.4c2.2-2.2,8.3-5.8,9-4.8C401.1,349.8,401.6,355.2,405,356.6L405,356.6z"/>
<path class="st4" d="M429.2,382.7c-0.2-3.3-1.6-11.3-1.6-11.3l-9,1.1l2.3,12.1l6.5,3L429.2,382.7L429.2,382.7z"/>
<path class="st21" d="M429.6,378.9c1-0.1,0.9,0.8,1.5,2.1c1.3,3,12.9,3.2,14.7,3.2c0.9,0,3.1,4.3-1.5,5c-4,0.6-16.6,2.5-20.9,3.1
	c-0.9,0.1-1.8-0.3-2.1-1.1c-1.2-2.9-2.8-11-1.6-11.3C421.4,379.9,425.2,379.3,429.6,378.9z"/>
<path class="st8" d="M399.7,279c0.3,1.4,0.7,3,1.2,4.7c1.8,6.3,6.9,27.9,8.6,41.8c1.8,13.8,8.1,45.9,8.9,50.8
	c4.5,1.2,7.1,0.2,12.9-2c0,0-3.1-26.8-5.6-50.2c-2-19-1.4-17.2-1.7-41.8c0.1,0.1,1.3,2.3,3.1,5.7c3.9,7.3,10.2,17.2,11.5,27.3
	c0.6,4.8-35.8,26.8-37.1,27.8c-1.3,1,6.1,12.1,7.5,12.1s47.1-28.3,48.1-36.1c0.9-7.2-18.9-60.1-23-73.5c0,0-38.5-2.1-37.7,10.6
	c0.1,1.7,0.3,3.3,0.6,4.7c0.3,1.9,0.5,3.8,0.7,5.8C398,269.8,398.4,273.5,399.7,279z"/>
<path class="st22" d="M419.7,275.7L419.7,275.7c0.1,0,0.1-0.1,0.1-0.1C419.8,275.7,419.7,275.7,419.7,275.7z"/>
<path class="st23" d="M424.1,282.1c0.1,0.1,2.4,4.4,4.2,7.8l-3.8-14.3C424.5,275.6,424.7,276.5,424.1,282.1L424.1,282.1z"/>
<path class="st24" d="M398.9,275.2c0.3-0.1,14.2-5.4,15-12.8c0,0-12.3,3-16.2,4.1C398,269.8,398.5,273.4,398.9,275.2z"/>
<path class="st4" d="M408.7,192c3.1-1.4,4.2,3.8,7.5,3.6c1.7-0.1,1.2-0.8,1.9-1.7c0.4-0.6,0.8-1.2,1.7-0.5
	c18.6,13.7,8.4,57.4,10.9,59.9c2,2.1-10.7,9.3-19.6,8.6c-12.1-1-13.4-13.6-13.5-16.1c0-2.5,1.1-44.4,1.1-44.4S404.2,197.4,408.7,192
	L408.7,192z"/>
<path class="st15" d="M427.2,257.5c0.6,3.1,1.3,5.4,2.7,6.3c2.4,1.6,5.5,1.5,8.4-2.7c0.2-0.2,0.3-0.5,0.5-0.8
	c3.8-7.2-2.5-24.4-3.7-28.6c-0.5-1.7-1.3-4-2-6.4c-0.9-3-1.7-11.5-0.8-13.2c3.2-6.4,14.6-0.6,26-2.5c5.8-1,14.7-29.2,14.7-31.4
	s-7.8-3.5-8-3.4c-2.4,1.2-8.5,21.8-11.3,22.9c-4.7,1.8-19.4-5.6-33.7-4.3c0,0,0,0.5,0.2,1.7c0.1,1,0.4,2.3,0.9,4.2
	c0.3,1.1,0.6,2.4,1,3.8c2.7,9.2-1.6,16.7,1.3,27.9c1.2,4.8,1.9,9.8,2.4,14.3C426.2,249.9,426.6,254.2,427.2,257.5L427.2,257.5z"/>
<path class="st25" d="M407.5,270.2c0.4,0.5,1.4,0.4,0.9,0.8c-0.4,0.5-5.9,3.9-5.9,3.9s-0.5,0.7-1.3-0.2c-0.8-0.9-1-1.9-1-1.9
	L407.5,270.2z"/>
<path class="st15" d="M392.9,219.5c0.2,2,0.4,3.6,0.6,5c0.4,2.8,0.7,4.5,1.1,6.4c0.2,0.7,0.3,1.5,0.5,2.4c0.2,0.8,0.4,1.8,0.6,2.9
	l0,0c0,0.2,0.1,0.4,0.1,0.6c0.3,1.9,0.2,5,0,8.5c0,0.6-0.1,1.1-0.1,1.7c-0.7,9.2-1.9,20.5,1.1,21.8c5.6,2.4,12.4,1.4,16.2-4
	c3.1-4.5-1.4-8.9-0.1-18.4c0.7-5.3,1.7-14.7,1.2-21c-1-13.5-4.4-29.7-5.3-33.4c0,0-8.1,1.5-13.7,9.4
	C392.6,204.7,392.2,213.3,392.9,219.5L392.9,219.5z"/>
<path class="st18" d="M394.9,232c0.2,1,0.4,2.1,0.7,3.5c0,0.2,0.1,0.5,0.1,0.7l0,0c0,0.2,0.1,0.4,0.1,0.6c0.3,1.9,0.2,5,0,8.5
	c5.4-7.2,3.6-21.7,3.6-21.7L394.9,232L394.9,232z"/>
<path class="st18" d="M395.3,251.7c0.8,2,11.8,17.3,11.8,17.3l-11.5-20.3L395.3,251.7z"/>
<path class="st19" d="M418.6,173.4c1,2.7,5.5,7.2,3.6,7.7s2.1,5.7,0.1,6.3c-4.8,1.5-11.2,0-12.5-2.2s-2.7-8.7-2.7-8.7L418.6,173.4
	L418.6,173.4z"/>
<path class="st26" d="M414.3,177.4c1.6-0.2,1.7,0.1,2.7-0.7c0.9-0.8-1.3-1.8,0.6-2.6c1.9-0.9,4.1-1.6,3.7-3.9
	c-0.6-3.4-3.4-2.1-5.1-1.2c-1.1,0.6-2.1-1.9-4.4-1.1c-1.8,0.6-1.3,1.6-2.9,2.2c-1,0.4-3.3-0.7-4.5,0.9c-2.2,3,0.9,5-0.8,8
	c-2,3.5,6,7.5,6.6,6.6c0.6-1.1-1.4-3.5-0.7-4.4c1-1.4,1.5-0.3,2.9,0.4c1.5,0.8,3.7,0.3,1.7-1.5C411.9,178.2,412.9,177.6,414.3,177.4
	L414.3,177.4z"/>
<path class="st21" d="M428.2,346.1l-13.4,9.8l-0.7-3.8l13.9-8.8L428.2,346.1z"/>
<path class="st21" d="M426.1,326.8l-14.9,9.9l-0.2-1.4l14.7-11.3L426.1,326.8z"/>
<path class="st15" d="M406,208.7c-13.3,31.9-16.2,28.2-15.9,33c0.3,4.8,17.9,28.6,17.9,28.6s-7.7,5.9-8.8,4.7
	c-1-1.1-21-25.6-20.7-32.9c0.4-10.4,14.7-37.9,16.6-40.8c1.9-3,11.5-5.6,12.1-1C407.8,205.1,406,208.7,406,208.7L406,208.7z"/>
<path class="st18" d="M416,196.5c-0.3-0.2-2.8,5.5-6.7,7.5c-1.1,0.6-2.2,1-3.4,1.1c-3.6,0.4-9.2,2.1-13.7,1.7c1.5-3,2.1-4.5,3.7-6.8
	c3.3,0.8,7.5,1.9,9.4,1.6c1.4-0.2,2.7-0.6,3.8-1.2c2.2-1.1,4.1-2.6,5.4-3.9c0.7-0.7,0.8-1.6,1.6-1.7
	C417.4,194.8,416.3,196.7,416,196.5L416,196.5z"/>
<path class="st27" d="M417.7,195.3c-0.1-0.5-0.5-1.4-1.7-1.3c-0.9,0.1-0.9,0.4-1.7,1.1c-2.1,2-5.3,4.5-9.3,5.1s-13.4-4-19.2-2.5
	c-5.8,1.5-7.3,6.7-15.7,8.4c-8.4,1.7-17.9-1.3-20.3-0.8c-2.5,0.5-4,1.1-3.8,2.1c0.1,1,1.5,2.5,3.3,3.1s17.5,0.9,21.5,0.1
	c6.7-1.2,12-7.3,16.3-7.9c4.3-0.6,13.6,1.4,18.6,0.9c5.6-0.6,9.8-7.1,10.2-6.9c0.4,0.2,0.8,0.4,1.5,0.2
	C417.8,196.8,417.8,195.8,417.7,195.3L417.7,195.3z"/>
<path class="st9" d="M558.8,349.3c-21.9,10-42.2-13.7-25.6-32.1c9.8-11.2,33.4-6.4,32.7,10.2c1.8,9.1-11.7,21.3-16.6,11.5
	c-10,11.3-19.2-6.9-10.6-14.9c3.5-5.1,10.6-5.7,14-1.6c0-2.9,2.2-1.9,4.2-2.1c-0.5,2.5-3.8,15.4-3.8,17.5c11.6,7,15.3-25.5-5.2-23.8
	c-15.1-1-23.5,20.5-12.8,30.2C543.4,352.7,557.4,344.2,558.8,349.3L558.8,349.3z M552,325.4c-5.2-7.1-13.6,1.3-12.8,8.3
	c-0.4,5.8,5.1,7.2,8.6,3.8C550.4,335.3,551.1,328.6,552,325.4z"/>
<path class="st9" d="M548.5,352.3c-20.5,1.9-29.1-22.5-16-35.9c10.5-11.9,35.2-6.6,34.5,10.9c1.2,9.8-10.2,21.2-18.1,13.6
	c-11.7,9.3-19.5-9.4-11-17.7c3.7-5,9.8-6,14.2-3c-0.7-2,5.4-0.7,6.1-1.1c-0.5,2.6-4.2,16.7-4,19c20.5-8.5-3.2-34.6-18.1-18.2
	c-13.3,15.3,2.9,33.5,20.7,25.7l0.8-0.4l2.7,4.3C556.7,351.5,552.9,352.3,548.5,352.3L548.5,352.3z M548,312.1
	c-31.9,2.4-22.1,48.4,9.2,36.6c-5.9,0.2-18,1.9-22.8-3.8c-11.4-10.3-2.5-33.1,13.5-32.1c12.9-1.1,20.4,14.3,13.2,23.8
	c-14,12.4-7.1-9-5.5-15.5c-2.2-0.7-1.9,2.1-2.4,3.4c-15.5-18.5-25.6,28.7-4.7,13.5c-13.5,9.7-13.2-16.2-2.1-16.5
	c9.8-0.1,5.8,8.8,3.7,14.3c-1.1,7.7,8.2,5.7,11.4,1.7C569.8,327.8,562.1,310.8,548,312.1L548,312.1z M546.4,323.8
	c-7.6,0.2-8.7,20.3,0.6,12.9C549.3,333.7,554,323,546.4,323.8z"/>
</svg>
