<svg width="554" height="350" viewBox="0 0 554 350" fill="none" xmlns="http://www.w3.org/2000/svg">
<g clip-path="url(#clip0_150_28640)">
<path d="M527.407 346.461C527.407 348.098 481.637 350 428.903 350C376.17 350 333.416 348.673 333.416 347.037C333.416 345.4 376.167 344.073 428.903 344.073C481.639 344.073 527.407 344.827 527.407 346.463V346.461Z" fill="#E6E6E6"/>
<path d="M201.663 346.461C201.663 348.098 162.22 350 116.772 350C71.3227 350 34.4824 348.673 34.4824 347.037C34.4824 345.4 71.3254 344.073 116.772 344.073C162.218 344.073 201.663 344.827 201.663 346.463V346.461Z" fill="#E6E6E6"/>
<path d="M481.525 183.853C481.525 183.853 484.21 187.007 489.877 190.117C491.956 191.26 494.437 192.395 497.334 193.364C499.488 194.085 501.87 194.719 504.489 195.192C505.372 195.353 506.282 195.497 507.216 195.619C507.659 195.677 508.107 195.717 508.555 195.735C520.456 196.277 533.925 183.766 542.997 166.923C545.141 162.943 547.04 158.72 548.614 154.372C557.273 130.464 552.033 106.525 547.322 98.5213C544.223 93.258 536.318 86.6921 523.544 82.3255C522.958 82.1266 522.361 81.9276 521.756 81.7393L519.138 88.382L518.159 90.8678L516.113 96.0674L488.553 166.023L484.709 175.775L483.359 179.203L481.525 183.856V183.853Z" fill="#0071ED"/>
<path d="M535.517 145.167C543.033 118.445 536.145 93.1319 520.133 88.628C504.121 84.1242 485.047 102.135 477.531 128.857C470.015 155.578 476.902 180.891 492.915 185.395C508.927 189.899 528.001 171.888 535.517 145.167Z" fill="#004E7C"/>
<path opacity="0.15" d="M535.517 145.167C543.033 118.445 536.145 93.1319 520.133 88.628C504.121 84.1242 485.047 102.135 477.531 128.857C470.015 155.578 476.902 180.891 492.915 185.395C508.927 189.899 528.001 171.888 535.517 145.167Z" fill="#0D0D1E"/>
<path opacity="0.72" d="M493.557 181.065C495.698 185.569 498.114 188.851 500.711 191.093C517.135 188.888 533.846 170.888 540.939 145.909C543.046 138.481 544.107 131.135 544.224 124.201C536.578 105.869 529.142 94.8546 529.142 94.8546C527.909 94.4885 526.659 94.2737 525.396 94.202C501.783 92.8385 474.602 141.176 493.559 181.065H493.557Z" fill="white"/>
<path opacity="0.48" d="M504.488 195.191C505.372 196.409 506.544 197.746 507.9 199.115C508.205 197.531 508.425 196.377 508.555 195.733C520.456 196.274 533.925 183.763 542.997 166.92C531.333 180.168 514.697 191.408 505.332 190.063C503.884 189.854 503.082 190.122 502.799 190.732C502.703 190.934 502.663 191.172 502.679 191.443C502.73 192.371 503.393 193.685 504.494 195.191H504.488Z" fill="#0D0D1E"/>
<path d="M471.719 126.257C480.24 96.2398 502.643 76.3089 521.757 81.734C522.365 81.9064 522.962 82.1027 523.545 82.3202C536.836 87.2811 544.55 103.991 544.219 124.196C544.105 131.133 543.044 138.479 540.937 145.907C534.509 168.544 520.184 185.45 505.331 190.061C504.484 190.326 503.641 190.549 502.794 190.729C502.099 190.878 501.404 191 500.709 191.093C497.401 191.536 494.104 191.34 490.899 190.43C490.557 190.332 490.215 190.225 489.878 190.114C471.48 183.967 463.346 155.728 471.719 126.254V126.257ZM477.682 127.952C476.998 130.366 476.444 132.77 476.022 135.144C473.016 152.037 476.51 167.581 484.71 175.767C487.23 178.285 490.196 180.11 493.557 181.062C509.379 185.554 527.92 169.056 534.974 144.214C541.006 122.957 536.677 102.482 525.394 94.1971C523.487 92.799 521.383 91.7459 519.099 91.0986C518.789 91.0084 518.473 90.9288 518.16 90.8598C506.219 88.1061 492.907 97.0171 484.214 112.26C481.54 116.943 479.306 122.227 477.682 127.949V127.952Z" fill="#0071ED"/>
<path opacity="0.24" d="M471.719 126.257C480.24 96.2398 502.643 76.3089 521.757 81.734C522.365 81.9064 522.962 82.1027 523.545 82.3202C536.836 87.2811 544.55 103.991 544.219 124.196C544.105 131.133 543.044 138.479 540.937 145.907C534.509 168.544 520.184 185.45 505.331 190.061C504.484 190.326 503.641 190.549 502.794 190.729C502.099 190.878 501.404 191 500.709 191.093C497.401 191.536 494.104 191.34 490.899 190.43C490.557 190.332 490.215 190.225 489.878 190.114C471.48 183.967 463.346 155.728 471.719 126.254V126.257ZM477.682 127.952C476.998 130.366 476.444 132.77 476.022 135.144C473.016 152.037 476.51 167.581 484.71 175.767C487.23 178.285 490.196 180.11 493.557 181.062C509.379 185.554 527.92 169.056 534.974 144.214C541.006 122.957 536.677 102.482 525.394 94.1971C523.487 92.799 521.383 91.7459 519.099 91.0986C518.789 91.0084 518.473 90.9288 518.16 90.8598C506.219 88.1061 492.907 97.0171 484.214 112.26C481.54 116.943 479.306 122.227 477.682 127.949V127.952Z" fill="white"/>
<path d="M474.215 346.704C476.562 348.407 479.788 348.383 482.805 343.33C488.11 334.445 504.107 218.958 507.901 199.115C508.206 197.531 508.426 196.377 508.556 195.732C508.609 195.47 508.649 195.292 508.667 195.202C508.869 194.35 508.155 193.523 507.004 192.857C505.847 192.183 504.242 191.668 502.675 191.44C500.162 191.077 497.74 191.453 497.387 193.117C497.374 193.175 497.358 193.255 497.334 193.361C495.83 200.173 471.57 334.806 470.8 339.992C470.519 341.884 471.968 345.081 474.215 346.702V346.704Z" fill="#0071ED"/>
<path opacity="0.48" d="M474.215 346.704C476.563 348.407 479.788 348.383 482.805 343.33C488.705 333.448 507.941 198.287 508.668 195.205C508.869 194.353 508.156 193.525 507.004 192.859C503.415 210.968 485.434 329.742 474.215 346.704Z" fill="#0D0D1E"/>
<path d="M493.151 200.622C498.425 200.051 501.2 195.602 503.052 196.324C504.903 197.046 501.701 199.035 502.614 199.083C503.527 199.131 505.965 198.16 508.188 197.773C509.708 197.507 509.32 205.049 503.978 205.75C502.237 205.978 495.21 206.079 493.244 206.034C491.278 205.991 493.151 200.622 493.151 200.622Z" fill="#EFAEA6"/>
<path d="M457.165 182.269C460.784 191.952 468.954 199.797 470.923 200.704C474.496 202.351 489.052 198.932 493.989 197.521C496.151 196.902 496.629 207.45 494.26 208.148C491.891 208.846 469.397 213.44 464.54 211.321C453.501 206.506 446.631 185.309 447.326 182.107C448.021 178.908 457.165 182.267 457.165 182.267V182.269Z" fill="#0069A8"/>
<path d="M457.165 182.269C460.784 191.952 468.954 199.797 470.923 200.704C474.496 202.351 489.052 198.932 493.989 197.521C496.151 196.902 496.629 207.45 494.26 208.148C491.891 208.846 469.397 213.44 464.54 211.321C453.501 206.506 446.631 185.309 447.326 182.107C448.021 178.908 457.165 182.267 457.165 182.267V182.269Z" fill="#004E7C"/>
<path d="M388.724 174.958C388.44 173.313 387.748 170.589 387.026 168.522C386.328 166.525 385.686 164.477 385.893 162.492C386.169 159.858 384.944 152.581 384.344 152.374C382.264 151.655 384.044 158.614 383.336 159.776C382.431 161.259 378.739 159.391 378.869 162.781C378.927 164.294 380.612 164.938 381.365 168.535C381.816 170.695 382.033 175.78 382.559 176.566C383.084 177.351 388.724 174.958 388.724 174.958Z" fill="#EFAEA6"/>
<path d="M401.544 338.571C401.409 335.382 402.128 327.357 402.128 327.357L411.028 327.527L409.832 339.571L403.733 343.094L401.544 338.571Z" fill="#EFAEA6"/>
<path d="M400.93 337.2C400.002 336.977 400.376 337.823 400.012 339.152C399.177 342.195 387.451 342.115 385.679 342.365C384.764 342.495 383.222 346.962 387.764 347.007C391.69 347.047 404.267 347.217 408.565 347.233C409.464 347.235 410.258 346.67 410.488 345.845C411.308 342.906 411.168 338.327 409.968 338.213C408.165 337.637 404.801 338.131 400.93 337.197V337.2Z" fill="#1F1F39"/>
<path d="M453.178 334.886C451.894 331.936 449.66 324.166 449.66 324.166L458.078 321.426L461.322 333.125L456.873 338.42L453.178 334.886Z" fill="#EFAEA6"/>
<path d="M452.101 333.801C451.146 333.894 451.806 334.568 451.947 335.934C452.265 339.064 441.227 342.807 439.653 343.619C438.842 344.038 439.014 348.737 443.296 347.301C446.997 346.06 458.871 342.12 462.911 340.738C463.757 340.449 464.296 339.659 464.214 338.81C463.916 335.783 462.123 331.527 460.959 331.811C459.056 331.859 456.077 333.416 452.103 333.801H452.101Z" fill="#1F1F39"/>
<path d="M423.033 223.909C417.862 237.255 409.325 275.91 408.243 282.89C407.16 289.869 400.369 331.798 400.369 333.063C400.369 334.329 412.206 337.279 413.697 335.225C415.188 333.172 417.817 298.539 422.194 288.681C426.571 278.82 439.305 248.541 439.305 248.541C437.61 263.749 433.801 288.002 436.09 292.979C440.353 304.089 449.657 331.257 449.657 331.257C453.219 333.13 462.847 328.774 461.844 328.474C459.003 320.606 452.071 298.011 451.15 290.429C450.23 282.847 460.701 221.786 460.701 221.786L430.378 219.908L423.03 223.914L423.033 223.909Z" fill="#4B4B5B"/>
<path opacity="0.62" d="M439.308 248.536C438.987 252.905 438.128 257.497 437.6 262.556L443.309 239.585C443.309 239.585 442.189 243.588 439.308 248.536Z" fill="#1F1F39"/>
<path d="M438.388 152.996C435.884 157.641 434.629 158.418 434.401 158.997C435.165 159.838 435.465 158.601 434.462 161.1C433.008 164.729 432.247 167.687 437.515 166.101C436.462 168.78 436.093 169.725 436.093 169.725L435.714 175.269L443.068 176.527C442.781 171.515 450.374 158.437 448.461 154.789C446.548 151.141 439.118 151.64 438.385 152.998L438.388 152.996Z" fill="#EFAEA6"/>
<path d="M441.315 162.387C443.57 161.689 443.137 158.256 440.728 159.5C439.084 158.8 439.243 158.667 439.874 157.219C440.506 155.768 439.097 155.887 438.251 154.409C437.407 152.932 436.181 151.791 437.916 150.526C437.916 150.526 437.585 149.258 438.341 148.581C439.097 147.905 441.36 146.958 442.386 148.446C443.413 149.934 442.766 150.953 445.164 149.889C447.565 148.823 449.682 149.584 449.565 152.324C449.43 155.489 451.252 153.444 451.406 156.55C451.685 162.121 448.533 160.837 447.838 163.713C447.143 166.591 445.124 169.12 443.05 168.252C440.975 167.385 440.747 163.827 441.315 162.387Z" fill="#6D3522"/>
<path opacity="0.16" d="M437.518 166.098C439.189 165.13 439.772 165.515 440.003 165.95C442.083 169.86 438.786 169.38 437.064 170.956C435.342 172.529 436.427 168.971 436.427 168.971L437.518 166.098Z" fill="#1F1F39"/>
<path d="M446.389 171.422C444.486 170.685 434.522 169.412 429.888 171.987C425.253 174.563 422.006 175.16 417.292 179.779C413.257 183.732 406.551 191.051 400.799 192.449C395.727 193.683 388.755 167.13 388.755 167.13C387.185 167.029 380.197 170.486 379.68 171.595C380.359 174.367 387.776 208.507 400.499 204.443C409.203 201.662 423.757 188.674 424.556 192.178C424.627 200.917 427.049 205.809 423.033 223.912C433.366 232.932 461.077 230.08 461.81 224.554C462.542 219.028 458.921 186.851 457.472 182.923C455.586 177.808 448.291 172.16 446.389 171.425V171.422Z" fill="#004E7C"/>
<path opacity="0.28" d="M424.558 192.176C424.619 199.832 426.9 206.345 423.783 220.307C424.181 220.302 424.98 218.185 425.534 217.296C427.818 213.648 430.506 196.492 429.763 195.049C429.039 193.638 428.163 192.964 424.163 191.457C424.385 191.571 424.51 191.972 424.558 192.176Z" fill="#1F1F39"/>
<path d="M142.039 169.17C149.621 165.894 151.969 161.938 155.086 161.702C160.827 161.267 161.715 168.621 158.229 168.366C154.744 168.111 150.613 171.696 149.926 171.969C145.591 173.685 142.039 169.173 142.039 169.173V169.17Z" fill="#EFAEA6"/>
<path d="M91.3483 259.425C92.7623 268.341 93.139 275.997 91.3059 282.858C89.4727 289.718 76.9698 333.498 77.3545 334.888C78.2379 338.064 82.4533 340.953 82.9998 342.298C83.5462 343.643 66.7749 339.305 66.9446 336.652C67.1118 333.999 68.027 334.145 69.7673 330.301C71.5102 326.455 75.3144 310.121 75.6885 307.171C76.0625 304.221 76.7921 274.782 77.9222 271.58C79.0523 268.378 91.3483 259.425 91.3483 259.425Z" fill="#F5B1B4"/>
<path d="M67.4056 333.345C67.6735 333.04 68.1139 332.952 68.48 333.127C70.2335 333.974 71.2416 335.236 71.5387 335.772C72.1064 336.796 72.6184 338.616 75.6905 339.924C78.7625 341.235 81.5241 340.447 82.6144 341.155C83.7048 341.863 89.4164 344.15 88.1987 346.166C86.8245 347.957 80.5266 347.795 78.1576 346.498C75.7913 345.201 69.7534 341.765 69.7109 342.094C69.3077 342.914 68.9044 342.741 68.9044 342.741C67.0501 341.707 64.4317 340.587 64.1213 340.006C63.8136 339.423 64.2938 337.237 65.0923 336.128C65.652 335.348 66.7795 334.051 67.4003 333.345H67.4056Z" fill="#1F1E39"/>
<path d="M99.5403 266.681C99.8189 267.959 101.957 274.523 104.599 282.402C105.393 284.771 106.231 287.262 107.08 289.758C110.979 301.253 115.054 312.971 115.709 314.4C116.983 317.181 122.445 330.822 123.002 335.162C123.559 339.502 122.129 338.695 123.424 341.099C124.716 343.502 142.469 337.645 141.257 336.785C140.047 335.928 132.815 335.862 131.523 335.149C130.645 334.663 123.978 306.827 119.126 286.819C118.476 284.134 117.858 281.587 117.288 279.271C115.861 273.427 114.757 269.021 114.269 267.408C112.157 260.394 109.414 262.871 103.546 263.919C103.546 263.919 98.7948 263.251 99.5403 266.681Z" fill="#F5B1B4"/>
<path d="M122.229 338.47C122.274 338.046 122.589 337.698 123.001 337.619C124.972 337.239 126.566 337.677 127.134 337.942C128.216 338.449 129.726 339.664 133.073 338.855C136.421 338.043 138.501 336.308 139.836 336.226C141.17 336.144 146.985 336.226 147.163 338.682C147.075 341.046 142.13 343.272 139.377 343.654C136.626 344.036 130.267 343.925 129.638 344.516C129.009 345.108 128.781 345.105 128.622 345.641C128.463 346.177 124.043 346.426 123.438 346.129C122.833 345.829 121.939 343.686 121.947 342.256C121.953 341.25 122.125 339.454 122.226 338.473L122.229 338.47Z" fill="#1F1E39"/>
<path d="M123.291 285.752C114.937 292.183 102.702 287.036 92.4379 292.628C88.9627 294.52 76.4491 292.212 71.154 290.315C69.6499 289.771 68.4508 289.249 67.7716 288.808C63.5403 286.065 51.4274 288.715 48.0078 283.733C70.3316 260.224 62.5694 239.712 75.6108 221.667C75.6135 221.664 75.6188 221.656 75.6214 221.651C75.648 221.606 75.6798 221.564 75.7116 221.524C77.5846 219.799 79.5371 218.568 81.5081 217.722C93.3028 212.658 105.769 221.436 105.769 221.436C106.002 221.911 106.238 222.503 106.466 223.195C110.825 236.162 126.917 282.964 123.288 285.755L123.291 285.752Z" fill="#E6E6E6"/>
<path opacity="0.12" d="M71.154 290.315C69.6499 289.771 68.4508 289.249 67.7716 288.808C63.5403 286.065 51.4274 288.716 48.0078 283.734C70.3316 260.224 62.5694 239.712 75.6108 221.667C75.6135 221.665 75.6188 221.657 75.6215 221.651C75.648 221.606 75.6798 221.564 75.7116 221.524C77.9056 218.868 79.2426 215.101 80.4231 210.936C80.4231 210.934 80.4258 210.928 80.4258 210.926C80.638 210.366 80.8025 209.78 80.9086 209.156C81.1341 211.653 81.3437 214.536 81.5055 217.722C81.609 219.757 81.6939 221.914 81.7522 224.169C82.2801 244.461 80.6327 272.584 71.1514 290.318L71.154 290.315Z" fill="#1F1F39"/>
<path d="M38.3627 201.328C35.3358 204.877 29.8417 203.957 26.9766 202.421C23.7507 200.691 22.2678 195.545 25.7032 196.725C31.07 198.569 28.3004 195.035 29.5021 194.794C31.505 194.388 31.3061 199.033 38.0099 197.444C38.75 197.269 38.3627 201.325 38.3627 201.325V201.328Z" fill="#EFAEA6"/>
<path d="M150.587 172.626C149.534 173.003 129.987 184.471 125.401 184.932C121.75 185.301 107.81 182.471 105.73 183.59C103.154 184.978 107.91 188.662 107.693 192.114C107.377 197.247 103.586 196.865 103.363 201.16C103.225 203.757 107.327 219.311 106.467 223.192C106.398 223.508 106.289 223.744 106.136 223.895C104.915 225.081 93.561 225.288 85.0294 224.526C83.8754 224.423 82.7718 224.304 81.7531 224.168C77.6889 223.614 74.9644 222.778 75.6091 221.667C75.6117 221.664 75.617 221.656 75.6197 221.651C75.6462 221.606 75.6781 221.563 75.7099 221.523C77.9038 218.868 79.2408 215.101 80.4214 210.936C80.4214 210.933 80.424 210.928 80.424 210.925C80.5885 210.342 80.7477 209.75 80.9068 209.156C83.2493 200.412 81.9812 193.127 77.6518 191.992C74.5718 191.183 62.7241 203.086 59.8829 204.152C57.3096 205.118 37.4211 205.37 36.4157 205.036C34.2987 204.33 33.2402 195.685 35.71 195.862C38.1799 196.037 51.7652 198.332 57.0576 196.746C61.2014 195.502 68.0086 183.59 73.7149 180.576C75.877 179.433 83.5597 173.194 86.9845 172.337C89.5525 171.695 95.7496 172.825 97.3042 172.652C98.8614 172.483 121.318 175.374 124.658 174.682C128.613 173.859 144.613 165.925 146.159 165.092C147.706 164.253 151.637 172.26 150.579 172.636L150.587 172.626Z" fill="white"/>
<path d="M95.7758 166.789C94.4759 171.217 94.5396 173.57 95.1736 174.891C95.8024 176.197 95.7971 180.303 94.3778 180.141C93.6748 180.062 90.2446 176.894 88.8121 175.677C87.3795 174.459 86.6367 172.244 86.6367 172.244C86.6367 172.244 90.3136 166.766 92.9028 162.15C95.4946 157.534 95.7758 166.787 95.7758 166.787V166.789Z" fill="#F5B1B4"/>
<path opacity="0.15" d="M94.8601 170.99C94.9343 170.398 95.0537 169.74 95.2182 169.008C95.2739 168.751 95.7063 167.066 95.7753 166.79C95.5472 166.533 95.1413 166.153 94.8919 166.087C94.5523 165.997 93.8334 166.026 93.5416 165.602C93.0535 164.896 91.8597 166.742 92.2364 167.907C92.3823 168.358 93.5124 170.13 94.8601 170.992V170.99Z" fill="#1F1F39"/>
<path d="M95.2899 154.683C97.8685 157.779 100.394 158.596 99.2586 159.468C98.399 160.129 103.58 166.583 99.5636 167.159C95.5737 167.732 91.7934 167.114 89.9284 163.302C88.0661 159.49 86.875 157.301 86.875 157.301L95.2899 154.683Z" fill="#F5B1B4"/>
<path d="M96.1712 155.149C95.6433 157.439 94.1179 158.916 93.6643 159.885C93.4069 160.431 92.2927 160.646 91.8497 160.237C91.3563 159.781 90.449 159.953 89.7619 160.723C88.9369 161.646 90.319 162.535 91.0751 163.198C91.6375 163.691 91.7993 164.699 91.5897 165.424C90.7859 168.183 95.6274 173.043 82.2198 180.253C78.8427 182.044 75.1208 183.227 71.6084 183.904C64.5252 185.264 58.2937 184.553 57.4554 182.572C56.8425 181.126 59.2858 177.882 61.3259 176.46C63.3659 175.038 64.6154 176.298 66.1647 175.138C67.9368 173.812 63.9363 169.833 69.6904 167.771C75.4444 165.71 76.2137 166.949 77.7975 165.49C79.3813 164.031 78.9701 152.849 86.0479 151.135C90.9504 149.95 93.7067 151.555 94.9376 152.653C95.4549 153.114 96.3304 154.47 96.1739 155.152L96.1712 155.149Z" fill="#1F1F39"/>
<path d="M46.762 342.972L44.5734 332.87L42.5254 323.405L46.9928 322.481L56.1929 320.582L58.2409 330.05L60.4296 340.152C61.1538 343.503 59.0182 346.784 55.6597 347.479L54.1555 347.79C53.609 347.901 53.0626 347.941 52.5293 347.907C49.7863 347.75 47.3669 345.782 46.7567 342.975L46.762 342.972Z" fill="#00DDF7"/>
<path d="M44.5734 332.873L42.5254 323.405L17.5275 207.923L15.4609 198.378L0 126.947L0.403235 122.376L1.38745 111.266L2.05331 103.732L2.07189 103.52L2.178 103.705L6.01934 110.536L13.6702 124.127L13.7233 124.368L36.0975 227.734L37.7423 235.332L56.1929 320.582L58.2436 330.05L49.0541 331.947L44.5734 332.873Z" fill="#775155"/>
<path d="M44.5734 332.873L42.5254 323.405L17.5275 207.923L15.4609 198.378L0 126.947L0.403235 122.376L1.38745 111.266L2.05331 103.732L2.07189 103.52L2.178 103.705L6.01934 110.536L13.6702 124.127L13.7233 124.368L36.0975 227.734L37.7423 235.332L56.1929 320.582L58.2436 330.05L49.0541 331.947L44.5734 332.873Z" fill="#F4AD00"/>
<path d="M0 126.947L0.252022 122.05L0.809123 111.239L1.13542 104.851C1.16726 104.246 1.57049 103.851 2.05331 103.729C2.09576 103.718 2.13821 103.708 2.178 103.705C2.66613 103.626 3.202 103.827 3.48055 104.368L6.42258 110.072L13.6728 124.127L13.7233 124.371C11.6222 125.533 11.9538 126.828 10.8237 126.95C9.38052 127.106 8.13898 124.119 6.59767 124.44C5.0537 124.758 6.11485 126.233 4.58149 126.552C3.08263 126.862 2.85448 125.957 1.95781 126.103C1.93924 126.103 1.92067 126.109 1.9021 126.114C0.960336 126.31 2.13821 126.533 0.00265286 126.952L0 126.947Z" fill="#F5B1B4"/>
<path d="M0.805657 111.239L1.2195 103.158C1.2593 102.365 2.3284 102.145 2.69449 102.853L6.41646 110.069C6.46156 110.157 6.43503 110.263 6.35544 110.321C4.94943 111.356 4.26234 110.043 3.2118 110.377C2.71041 110.539 1.89068 110.968 1.10278 111.422C0.964829 111.502 0.795045 111.396 0.803004 111.236L0.805657 111.239Z" fill="#3B3B4C"/>
<path opacity="0.24" d="M46.762 342.972L44.5734 332.87L42.5254 323.405L17.5275 207.923L15.4609 198.375L0 126.947L0.252022 122.05C0.302426 122.156 0.352831 122.265 0.405888 122.376C0.909932 123.458 1.42989 124.711 1.95781 126.098C7.62167 140.936 14.3573 171.255 15.2274 175.959C15.957 179.903 35.9144 271.613 46.9954 322.481C47.7223 325.827 48.4147 328.994 49.0567 331.944C50.4654 338.412 51.6539 343.858 52.5346 347.901C49.7916 347.745 47.3722 345.776 46.762 342.97V342.972Z" fill="#E8E8E8"/>
<path d="M316.331 281.806C312.403 295.322 298.265 303.092 284.749 299.163C281.194 298.131 278.037 296.391 275.384 294.141C273.392 292.452 271.686 290.475 270.312 288.292C266.558 282.342 265.274 274.871 267.391 267.581C271.32 254.065 285.46 246.294 298.974 250.221C307.739 252.767 314.087 259.612 316.395 267.791C316.711 268.902 316.949 270.04 317.109 271.192C317.589 274.64 317.366 278.243 316.331 281.8V281.806Z" fill="#00DDF7"/>
<path opacity="0.28" d="M316.332 281.806C312.403 295.322 298.266 303.092 284.749 299.163C281.195 298.131 278.038 296.391 275.385 294.142C309.575 296.946 314.302 279.055 315.57 265.541C315.878 266.276 316.154 267.027 316.395 267.796C316.711 268.907 316.95 270.046 317.109 271.197C317.589 274.646 317.366 278.248 316.332 281.806Z" fill="#1F1F39"/>
<path d="M284.783 256.948C285.927 256.582 287.163 256.322 288.497 256.192" stroke="white" stroke-width="6.7" stroke-linecap="round" stroke-linejoin="round"/>
<path d="M272.769 276.993C272.397 271.104 274.689 262.418 281.635 258.352" stroke="white" stroke-width="6.7" stroke-linecap="round" stroke-linejoin="round"/>
<path d="M313.343 226.724C312.12 243.413 277.442 238.465 278.103 225.851C278.763 213.237 275.508 168.263 300.27 147.472C321.472 127.43 356.078 114.224 356.882 80.3788C359.949 50.9267 340.461 38.4556 312.022 36.848C284.478 35.2908 264.058 48.7089 262.201 75.9008C260.652 98.6146 223.082 100.159 227.889 66.9898C242.151 -31.3995 400.524 -17.2465 394.826 82.2172C392.828 125.639 364.554 138.373 335.044 161.697C314.622 177.2 314.564 210.035 313.341 226.724H313.343Z" fill="#00DDF7"/>
<path d="M294.961 10.4462C296.6 10.242 298.285 10.0881 300.012 9.9873" stroke="white" stroke-width="7.12" stroke-linecap="round" stroke-linejoin="round"/>
<path d="M239.436 67.3748C239.881 50.3169 251.724 20.1485 287.619 11.7549" stroke="white" stroke-width="7.12" stroke-linecap="round" stroke-linejoin="round"/>
<path d="M182.385 16.211C163.576 7.55471 130.084 10.4384 135.013 38.4818C139.26 70.2498 157.878 204.347 167.03 235.616C178.575 241.012 203.194 238.927 202.838 222.171C203.112 188.268 186.255 50.3215 182.388 16.211H182.385ZM218.22 274.884C217.97 268.238 215.909 262.938 212.734 258.945C198.729 241.317 163.064 249.079 165.786 278.311C166.086 286.283 168.988 292.313 173.291 296.481C188.41 311.135 220.817 302.797 218.217 274.884H218.22Z" fill="#F4AD00"/>
<path d="M185.475 258.022C186.618 257.656 187.854 257.396 189.189 257.266" stroke="white" stroke-width="6.7" stroke-linecap="round" stroke-linejoin="round"/>
<path d="M173.461 278.066C172.349 270.225 175.381 263.492 182.326 259.425" stroke="white" stroke-width="6.7" stroke-linecap="round" stroke-linejoin="round"/>
<path opacity="0.18" d="M173.293 296.481C207.597 303.076 215.802 277.982 212.733 258.945C215.909 262.938 217.97 268.238 218.219 274.884C220.819 302.797 188.412 311.138 173.293 296.481Z" fill="#BD934A"/>
<path d="M147.367 24.2914C148.465 23.3841 149.773 22.6068 151.328 21.9834" stroke="white" stroke-width="7.12" stroke-linecap="round" stroke-linejoin="round"/>
<path d="M145.845 59.6407C144.25 50.8783 140.151 38.0677 143.627 29.4697" stroke="white" stroke-width="7.12" stroke-linecap="round" stroke-linejoin="round"/>
<path d="M106.136 62.8792C109.543 48.2487 93.3955 31.9844 70.0692 26.5519C46.7428 21.1194 25.0709 28.5759 21.6636 43.2064C18.2563 57.8369 34.4039 74.1012 57.7302 79.5337C81.0565 84.9662 102.728 77.5097 106.136 62.8792Z" fill="white"/>
<path d="M32.2826 62.9893C27.9585 68.876 18.8777 74.0384 19.4561 75.0757C20.0344 76.113 43.3398 70.4889 43.3398 70.4889L32.2826 62.9919V62.9893Z" fill="white"/>
<path d="M77.5876 57.6761C78.0508 55.803 76.909 53.9092 75.0372 53.4464C73.1655 52.9835 71.2726 54.1268 70.8094 55.9999C70.3462 57.8731 71.488 59.7668 73.3598 60.2297C75.2315 60.6925 77.1244 59.5493 77.5876 57.6761Z" fill="#3B3B4D"/>
<path d="M61.0914 53.6267C60.6324 55.5023 61.7785 57.3938 63.6514 57.8527C65.5243 58.3117 67.4158 57.1656 67.8748 55.29C68.3337 53.4145 67.1877 51.523 65.3147 51.064C63.4418 50.6051 61.5503 51.7511 61.0914 53.6267Z" fill="#3B3B4D"/>
<path d="M51.8961 51.3718C51.4371 53.2474 52.5832 55.1389 54.4561 55.5978C56.329 56.0568 58.2205 54.9107 58.6794 53.0352C59.1384 51.1596 57.9924 49.2681 56.1194 48.8092C54.2465 48.3502 52.355 49.4962 51.8961 51.3718Z" fill="#3B3B4D"/>
<path d="M465.673 27.3455C464.5 18.4292 460.744 11.4495 454.43 6.40112C448.119 1.36599 440.086 -0.509584 430.281 0.779707C420.476 2.069 413.202 5.96075 408.405 12.4576C403.612 18.9677 401.789 26.6823 402.962 35.5985C404.137 44.5281 407.893 51.5077 414.204 56.5429C420.516 61.578 428.549 63.4562 438.353 62.1643C445.633 61.2066 451.517 58.8164 456.03 54.9883C457.595 53.6619 469.819 56.3094 471.055 54.6355C472.066 53.2666 462.118 47.6956 462.863 46.2179C465.659 40.6841 466.601 34.3941 465.673 27.3455Z" fill="white"/>
<path opacity="0.06" d="M456.812 31.2772C456.138 45.5549 453.045 49.8313 445.601 53.7125C437.918 57.7183 434.875 52.0597 439.194 48.107C443.51 44.1542 451.225 43.353 451.185 29.9773C451.177 27.091 457.074 25.7089 456.812 31.2799V31.2772Z" fill="#1F1F39"/>
<path d="M437.436 32.1924C437.688 34.0069 439.362 35.275 441.177 35.023C442.991 34.771 444.259 33.097 444.007 31.2824C443.755 29.4679 442.081 28.1998 440.267 28.4518C438.452 28.7039 437.184 30.3778 437.436 32.1924Z" fill="#4D4D5B"/>
<path d="M433.653 35.3887C434.949 34.0927 434.949 31.9914 433.653 30.6953C432.357 29.3993 430.256 29.3993 428.96 30.6953C427.664 31.9914 427.664 34.0926 428.96 35.3887C430.256 36.6847 432.357 36.6848 433.653 35.3887Z" fill="#4D4D5B"/>
<path d="M419.112 34.7314C419.364 36.546 421.038 37.8141 422.853 37.562C424.667 37.31 425.935 35.6361 425.683 33.8215C425.431 32.0069 423.757 30.7389 421.943 30.9909C420.128 31.2429 418.86 32.9169 419.112 34.7314Z" fill="#4D4D5B"/>
<path d="M100.222 136.853C98.3416 129.667 99.0419 123.154 102.3 117.323C105.56 111.502 111.123 107.566 119.029 105.496C126.934 103.43 133.712 104.138 139.405 107.616C145.101 111.105 148.9 116.439 150.781 123.626C152.664 130.823 151.964 137.336 148.703 143.156C145.443 148.977 139.88 152.914 131.975 154.983C126.106 156.519 120.856 156.522 116.214 154.999C114.604 154.471 106.072 160.307 104.605 159.41C103.406 158.678 109.282 151.314 108.253 150.417C104.39 147.053 101.708 142.533 100.222 136.851V136.853Z" fill="#00DDF7"/>
<path d="M130.145 129.219C130.559 130.757 132.142 131.67 133.681 131.256C135.22 130.842 136.13 129.256 135.716 127.717C135.302 126.178 133.718 125.266 132.18 125.68C130.641 126.094 129.731 127.68 130.145 129.219Z" fill="#4D4D5B"/>
<path d="M122.162 131.37C122.576 132.909 124.16 133.821 125.699 133.407C127.237 132.994 128.147 131.407 127.733 129.869C127.32 128.33 125.736 127.417 124.197 127.831C122.658 128.245 121.749 129.831 122.162 131.37Z" fill="#4D4D5B"/>
<path d="M114.61 133.405C115.023 134.944 116.607 135.856 118.146 135.443C119.685 135.029 120.594 133.442 120.181 131.904C119.767 130.365 118.183 129.452 116.644 129.866C115.106 130.28 114.196 131.867 114.61 133.405Z" fill="#4D4D5B"/>
<path d="M104.414 133.115C103.271 127.704 105.518 119.596 109.943 117.461" stroke="white" stroke-width="5.88" stroke-linecap="round" stroke-linejoin="round"/>
<path d="M417.489 144.925L388.149 138.94C375.991 136.46 368.143 124.591 370.624 112.433C373.104 100.272 384.973 92.4277 397.131 94.9081L426.472 100.893C438.63 103.373 446.477 115.242 443.997 127.4C441.516 139.561 429.647 147.406 417.489 144.925Z" fill="#F4AD00"/>
<path d="M421.057 140.723C423.349 151.82 425.426 155.786 424.399 156.589C422.447 158.117 407.936 138.046 407.936 138.046L421.054 140.723H421.057Z" fill="#F4AD00"/>
<path d="M397.145 101.983C389.29 101.362 381.422 105.098 378.594 113.722" stroke="white" stroke-width="5.34" stroke-linecap="round" stroke-linejoin="round"/>
<path d="M403.376 103.418C402.434 103.05 401.468 102.747 400.492 102.514" stroke="white" stroke-width="5.34" stroke-linecap="round" stroke-linejoin="round"/>
<path d="M400.747 119.893C400.389 121.482 398.808 122.482 397.219 122.124C395.63 121.766 394.633 120.185 394.991 118.596C395.349 117.007 396.93 116.007 398.519 116.365C400.108 116.723 401.106 118.304 400.747 119.893Z" fill="#4D4D5B"/>
<path d="M408.992 121.752C408.633 123.341 407.052 124.342 405.463 123.983C403.874 123.625 402.877 122.044 403.235 120.455C403.593 118.866 405.174 117.866 406.763 118.224C408.352 118.582 409.35 120.163 408.992 121.752Z" fill="#4D4D5B"/>
<path d="M416.794 123.514C416.436 125.103 414.855 126.103 413.266 125.745C411.677 125.387 410.68 123.806 411.038 122.217C411.396 120.628 412.977 119.628 414.566 119.986C416.155 120.344 417.153 121.925 416.794 123.514Z" fill="#4D4D5B"/>
</g>
<defs>
<clipPath id="clip0_150_28640">
<rect width="553.257" height="350" fill="white"/>
</clipPath>
</defs>
</svg>
