<svg width="34" height="55" viewBox="0 0 34 55" fill="none" xmlns="http://www.w3.org/2000/svg">
<path d="M26.6963 27.4999V54.571H29.9663H33.2363V28.3576C33.2363 2.61587 33.2363 2.13342 33.0325 1.72601C32.7538 1.18995 32.1641 0.68605 31.6602 0.546673C31.4351 0.482346 30.2343 0.42874 28.9799 0.42874H26.6963V27.4999Z" fill="#A6A8A9"/>
<path d="M17.9689 24.8946C17.9368 30.1052 17.8832 38.9073 17.8617 44.4716L17.8188 54.571H21.1103H24.4124L24.4875 43.7211C24.5196 37.7494 24.5625 29.3118 24.5732 24.9697L24.5947 17.0896L24.2945 16.5857C24.1337 16.3069 23.8013 15.9424 23.5654 15.7816L23.1259 15.4921L20.5742 15.4599L18.0333 15.4278L17.9689 24.8946Z" fill="#A6A8A9"/>
<path d="M8.92037 40.0116L8.95253 54.5174L12.2547 54.5496L15.5461 54.571L15.5247 40.8157L15.4925 27.0603L15.1923 26.61C15.0315 26.3634 14.6991 26.0311 14.4525 25.8703L14.013 25.5701L11.4506 25.5379L8.89893 25.5057L8.92037 40.0116Z" fill="#A6A8A9"/>
<path d="M0.107422 44.3323V54.571L3.40957 54.5496L6.70099 54.5174V45.1363V35.7553L6.43296 35.2728C6.28286 35.0155 5.96122 34.651 5.70391 34.4687L5.23218 34.1471L2.6698 34.1149L0.107422 34.0827V44.3323Z" fill="#A6A8A9"/>
</svg>
