<svg width="307" height="319" viewBox="0 0 307 319" fill="none" xmlns="http://www.w3.org/2000/svg">
<path d="M152.374 17.592C173.901 -0.704762 206.181 -5.24428 231.922 6.40551C257.663 18.0543 275.551 45.2975 276.005 73.5406C276.211 86.4084 273.115 99.0783 271.785 111.879C270.455 124.679 271.11 138.38 278.028 149.234C287.014 163.331 306.005 172.238 306.965 188.926C307.705 201.785 296.713 212.305 285.386 218.444C274.06 224.582 261.16 228.621 252.252 237.927C239.826 250.91 238.086 271.062 227.094 285.277C215.104 300.779 193.338 306.594 174.087 302.91C154.836 299.225 137.982 287.343 124.533 273.089C111.084 258.834 100.547 242.149 89.3662 226.054C78.1854 209.96 66.0576 194.133 50.2957 182.486C33.0993 169.778 10.6954 160.889 2.69638 141.063C-5.15692 121.599 5.08293 98.5999 21.2902 85.2597C40.9073 69.1126 63.4298 65.2213 87.62 62.3903C117.733 58.8658 131.158 35.6235 152.374 17.593V17.592Z" fill="#E7F4FA"/>
<path d="M109.132 122.719C109.132 122.719 85.4276 105.363 89.0999 96.0162C92.7722 86.6708 109.8 92.0113 115.81 96.0162L109.133 122.719H109.132Z" fill="#FCC7AC"/>
<path d="M98.0037 90.8238C98.0037 90.8238 100.822 90.1344 105.973 91.868C105.973 91.868 111.025 92.9021 115.81 96.0165L109.133 122.719C109.133 122.719 101.452 117.127 97.2949 112.42C97.2949 112.42 101.788 102.319 98.0037 90.8238Z" fill="#F4BDA4"/>
<path d="M107.797 126.392C107.797 126.392 97.113 132.733 93.7745 135.403C90.4359 138.074 81.0868 143.08 80.0855 145.417C79.0842 147.754 79.7517 158.768 107.797 156.765L117.145 154.762L107.797 126.392Z" fill="#FCC7AC"/>
<path d="M93.7744 135.403C93.7744 135.403 99.6724 132.327 100.452 157.007C100.452 157.007 109.8 158.21 117.145 154.761L107.797 126.391C107.797 126.391 100.007 130.285 93.7744 135.402V135.403Z" fill="#F4BDA4"/>
<path d="M110.134 160.436C110.134 160.436 91.6663 162.105 88.7138 170.783C85.7613 179.461 86.7636 188.473 86.7636 194.48C86.7636 200.488 83.431 206.162 86.5997 208.165C89.7684 210.168 100.786 209.835 108.799 197.484C116.813 185.135 117.146 182.131 117.146 182.131L110.134 160.436Z" fill="#FCC7AC"/>
<path d="M117.145 207.163C117.145 207.163 110.468 213.505 110.468 219.513C110.468 225.52 106.409 228.858 102.262 224.519C98.1153 220.18 92.7732 213.505 93.4407 205.16C94.1082 196.816 112.648 191.308 112.648 191.308L117.146 207.163H117.145Z" fill="#FCC7AC"/>
<path d="M108.798 204.105C108.798 204.105 100.469 209.635 93.5342 208.901C93.5342 208.901 101.587 207.776 107.947 198.736L108.798 204.105Z" fill="#F4BDA4"/>
<path d="M110.589 161.843C110.589 161.843 94.2129 163.252 87.6503 174.638C87.6503 174.638 86.7697 168.568 95.3921 164.335C104.014 160.102 110.135 160.436 110.135 160.436L110.589 161.843Z" fill="#F4BDA4"/>
<path d="M102.194 53.0674H103.322V69.2457H102.194C101.506 69.2457 100.948 68.6879 100.948 68.0005V54.3116C100.948 53.6242 101.506 53.0664 102.194 53.0664V53.0674Z" fill="#1D266D"/>
<path d="M102.194 78.6787H103.322V94.857H102.194C101.506 94.857 100.948 94.2992 100.948 93.6118V79.9229C100.948 79.2355 101.506 78.6777 102.194 78.6777V78.6787Z" fill="#1D266D"/>
<path d="M191.299 11.3271H119.709C110.083 11.3271 102.279 19.1283 102.279 28.7516V203.647C102.279 213.271 110.083 221.072 119.709 221.072H191.299C200.926 221.072 208.729 213.271 208.729 203.647V28.7516C208.729 19.1283 200.926 11.3271 191.299 11.3271Z" fill="#004E7C"/>
<path d="M190.71 13.3574H120.299C111.488 13.3574 104.345 20.4981 104.345 29.3066V202.897C104.345 211.705 111.488 218.846 120.299 218.846H190.71C199.521 218.846 206.664 211.705 206.664 202.897V29.3066C206.664 20.4981 199.521 13.3574 190.71 13.3574Z" fill="white"/>
<path d="M190.709 219.495H120.299C111.144 219.495 103.696 212.049 103.696 202.897V29.3073C103.696 20.1549 111.144 12.709 120.299 12.709H190.709C199.864 12.709 207.312 20.1549 207.312 29.3073V202.897C207.312 212.049 199.864 219.495 190.709 219.495ZM120.299 14.0064C111.86 14.0064 104.993 20.8705 104.993 29.3073V202.897C104.993 211.333 111.86 218.197 120.299 218.197H190.709C199.149 218.197 206.015 211.333 206.015 202.897V29.3073C206.015 20.8705 199.149 14.0064 190.709 14.0064H120.299Z" fill="#004E7C"/>
<path d="M190.706 15.2871H120.304C112.632 15.2871 106.412 21.5049 106.412 29.175V202.701C106.412 210.371 112.632 216.589 120.304 216.589H190.706C198.379 216.589 204.598 210.371 204.598 202.701V29.175C204.598 21.5049 198.379 15.2871 190.706 15.2871Z" fill="#FFF7F5"/>
<path d="M198.933 25.9057H192.02C191.38 25.9057 190.858 25.3851 190.858 24.7439V23.1852C190.858 22.545 191.379 22.0234 192.02 22.0234H198.933C199.458 22.0234 199.911 22.3722 200.05 22.8686C200.372 22.8907 200.627 23.1601 200.627 23.4877V24.4424C200.627 24.7701 200.372 25.0394 200.05 25.0615C199.911 25.557 199.457 25.9067 198.933 25.9067V25.9057ZM192.02 22.2958C191.529 22.2958 191.13 22.6948 191.13 23.1852V24.7439C191.13 25.2344 191.529 25.6333 192.02 25.6333H198.933C199.364 25.6333 199.732 25.3258 199.808 24.9027C199.82 24.8374 199.876 24.7902 199.942 24.7902H200.007C200.199 24.7902 200.355 24.6344 200.355 24.4424V23.4877C200.355 23.2957 200.199 23.14 200.007 23.14H199.942C199.875 23.14 199.819 23.0927 199.808 23.0274C199.732 22.6043 199.365 22.2968 198.933 22.2968H192.02V22.2958Z" fill="#004E7C"/>
<path d="M192.022 22.5078H197.782V25.4203H192.022C191.665 25.4203 191.377 25.1308 191.377 24.7751V23.154C191.377 22.7973 191.666 22.5088 192.022 22.5088V22.5078Z" fill="#004E7C"/>
<path d="M189.132 23.2317C189.133 23.3574 189.084 23.479 188.994 23.5674C188.806 23.7533 188.505 23.7563 188.314 23.5744C187.849 23.1312 187.231 22.887 186.589 22.8911C185.948 22.887 185.33 23.1323 184.865 23.5744C184.674 23.7563 184.372 23.7533 184.185 23.5674C184.002 23.3855 184.002 23.09 184.183 22.9071C184.186 22.9041 184.189 22.9011 184.192 22.8981C184.837 22.282 185.697 21.9403 186.588 21.9464C187.48 21.9403 188.34 22.282 188.985 22.8981C189.077 22.9855 189.129 23.1051 189.13 23.2317H189.132Z" fill="#004E7C"/>
<path d="M187.909 23.9848C188.095 24.1617 188.103 24.4571 187.926 24.6441C187.923 24.6471 187.92 24.6511 187.916 24.6541C187.729 24.841 187.427 24.8441 187.236 24.6611C186.874 24.3205 186.309 24.3205 185.946 24.6611C185.755 24.8441 185.454 24.841 185.267 24.6541C185.084 24.4722 185.083 24.1767 185.264 23.9938C185.267 23.9908 185.27 23.9878 185.274 23.9848C186.014 23.2863 187.17 23.2863 187.909 23.9848Z" fill="#004E7C"/>
<path d="M187.159 25.4761C187.159 25.7906 186.904 26.0449 186.589 26.0439C186.275 26.0439 186.02 25.7886 186.021 25.4741C186.021 25.1605 186.277 24.9062 186.59 24.9062C186.905 24.9062 187.159 25.1615 187.159 25.4761Z" fill="#004E7C"/>
<path d="M113.803 23.9639H112.23V25.9095H113.803V23.9639Z" fill="#004E7C"/>
<path d="M115.782 22.9658H114.21V25.9084H115.782V22.9658Z" fill="#004E7C"/>
<path d="M117.762 22.0195H116.19V25.9098H117.762V22.0195Z" fill="#004E7C"/>
<path d="M150.246 116.123H119.94C116.149 116.123 113.048 119.223 113.048 123.013V130.593C113.048 132.098 113.543 133.491 114.371 134.628L113.048 143.662L119.94 137.483H150.246C154.037 137.483 157.139 134.383 157.139 130.593V123.013C157.139 119.223 154.037 116.123 150.246 116.123Z" fill="#0071ED"/>
<path d="M128.196 129.044C129.403 129.044 130.382 128.066 130.382 126.86C130.382 125.653 129.403 124.675 128.196 124.675C126.989 124.675 126.011 125.653 126.011 126.86C126.011 128.066 126.989 129.044 128.196 129.044Z" fill="white"/>
<path d="M135.093 129.044C136.3 129.044 137.278 128.066 137.278 126.86C137.278 125.653 136.3 124.675 135.093 124.675C133.886 124.675 132.907 125.653 132.907 126.86C132.907 128.066 133.886 129.044 135.093 129.044Z" fill="white"/>
<path d="M141.99 129.044C143.197 129.044 144.175 128.066 144.175 126.86C144.175 125.653 143.197 124.675 141.99 124.675C140.783 124.675 139.804 125.653 139.804 126.86C139.804 128.066 140.783 129.044 141.99 129.044Z" fill="white"/>
<path d="M160.393 147.432H190.699C194.49 147.432 197.592 150.532 197.592 154.322V161.901C197.592 163.407 197.096 164.8 196.269 165.936L197.592 174.97L190.699 168.792H160.393C156.602 168.792 153.501 165.691 153.501 161.901V154.322C153.501 150.532 156.602 147.432 160.393 147.432Z" fill="#BD934A"/>
<path d="M182.443 160.354C183.65 160.354 184.628 159.376 184.628 158.169C184.628 156.963 183.65 155.984 182.443 155.984C181.236 155.984 180.257 156.963 180.257 158.169C180.257 159.376 181.236 160.354 182.443 160.354Z" fill="white"/>
<path d="M175.547 160.354C176.754 160.354 177.732 159.376 177.732 158.169C177.732 156.963 176.754 155.984 175.547 155.984C174.34 155.984 173.361 156.963 173.361 158.169C173.361 159.376 174.34 160.354 175.547 160.354Z" fill="white"/>
<path d="M168.65 160.354C169.857 160.354 170.836 159.376 170.836 158.169C170.836 156.963 169.857 155.984 168.65 155.984C167.443 155.984 166.465 156.963 166.465 158.169C166.465 159.376 167.443 160.354 168.65 160.354Z" fill="white"/>
<path d="M150.246 50.3096H119.94C116.149 50.3096 113.048 53.41 113.048 57.1998V64.7794C113.048 66.2848 113.543 67.6777 114.371 68.8144L113.048 77.8482L119.94 71.6695H150.246C154.037 71.6695 157.139 68.5692 157.139 64.7794V57.1998C157.139 53.41 154.037 50.3096 150.246 50.3096Z" fill="#0071ED"/>
<path d="M128.196 63.232C129.403 63.232 130.382 62.2538 130.382 61.0471C130.382 59.8405 129.403 58.8623 128.196 58.8623C126.989 58.8623 126.011 59.8405 126.011 61.0471C126.011 62.2538 126.989 63.232 128.196 63.232Z" fill="white"/>
<path d="M135.093 63.232C136.3 63.232 137.278 62.2538 137.278 61.0471C137.278 59.8405 136.3 58.8623 135.093 58.8623C133.886 58.8623 132.907 59.8405 132.907 61.0471C132.907 62.2538 133.886 63.232 135.093 63.232Z" fill="white"/>
<path d="M141.99 63.232C143.197 63.232 144.175 62.2538 144.175 61.0471C144.175 59.8405 143.197 58.8623 141.99 58.8623C140.783 58.8623 139.804 59.8405 139.804 61.0471C139.804 62.2538 140.783 63.232 141.99 63.232Z" fill="white"/>
<path d="M160.393 81.7803H190.699C194.49 81.7803 197.592 84.8807 197.592 88.6705V96.2501C197.592 97.7555 197.096 99.1484 196.269 100.285L197.592 109.319L190.699 103.14H160.393C156.602 103.14 153.501 100.04 153.501 96.2501V88.6705C153.501 84.8807 156.602 81.7803 160.393 81.7803Z" fill="#BD934A"/>
<path d="M182.443 94.7017C183.65 94.7017 184.628 93.7235 184.628 92.5169C184.628 91.3102 183.65 90.332 182.443 90.332C181.236 90.332 180.257 91.3102 180.257 92.5169C180.257 93.7235 181.236 94.7017 182.443 94.7017Z" fill="white"/>
<path d="M175.547 94.7017C176.754 94.7017 177.732 93.7235 177.732 92.5169C177.732 91.3102 176.754 90.332 175.547 90.332C174.34 90.332 173.361 91.3102 173.361 92.5169C173.361 93.7235 174.34 94.7017 175.547 94.7017Z" fill="white"/>
<path d="M168.65 94.7017C169.857 94.7017 170.836 93.7235 170.836 92.5169C170.836 91.3102 169.857 90.332 168.65 90.332C167.443 90.332 166.465 91.3102 166.465 92.5169C166.465 93.7235 167.443 94.7017 168.65 94.7017Z" fill="white"/>
<path d="M195.841 38.9891H191.267C190.534 38.9891 189.937 38.3932 189.937 37.6595V35.5933C189.937 34.8606 190.533 34.2637 191.267 34.2637H195.841C196.574 34.2637 197.171 34.8596 197.171 35.5933V37.6595C197.171 38.3922 196.575 38.9891 195.841 38.9891ZM191.267 34.6767C190.762 34.6767 190.35 35.0878 190.35 35.5933V37.6595C190.35 38.165 190.762 38.5761 191.267 38.5761H195.841C196.347 38.5761 196.758 38.165 196.758 37.6595V35.5933C196.758 35.0878 196.347 34.6767 195.841 34.6767H191.267Z" fill="#1D266D"/>
<path d="M199.98 38.5893C199.916 38.5893 199.851 38.5792 199.787 38.5602L198.052 38.0275C197.778 37.9431 197.593 37.6939 197.593 37.4064V35.7894C197.593 35.502 197.778 35.2527 198.052 35.1683L199.787 34.6357C199.986 34.5744 200.197 34.6106 200.364 34.7342C200.531 34.8578 200.627 35.0487 200.627 35.2568V37.9391C200.627 38.1471 200.531 38.338 200.364 38.4617C200.251 38.5461 200.116 38.5893 199.979 38.5893H199.98ZM199.909 38.1652C199.982 38.1873 200.059 38.1742 200.12 38.129C200.181 38.0838 200.216 38.0144 200.216 37.9381V35.2558C200.216 35.1794 200.181 35.11 200.12 35.0648C200.059 35.0196 199.982 35.0065 199.909 35.0286L198.174 35.5613C198.073 35.5924 198.006 35.6829 198.006 35.7884V37.4054C198.006 37.5099 198.073 37.6014 198.174 37.6325L199.909 38.1652Z" fill="#1D266D"/>
<path d="M113.055 39.1371C112.954 39.1371 112.855 39.0989 112.778 39.0225L111.179 37.4236C111.106 37.3502 111.064 37.2507 111.064 37.1472C111.064 37.0437 111.106 36.9442 111.179 36.8708L112.885 35.1653C113.038 35.0126 113.285 35.0126 113.439 35.1653C113.593 35.3181 113.592 35.5653 113.439 35.7191L112.009 37.1482L113.332 38.4707C113.485 38.6235 113.485 38.8707 113.332 39.0245C113.256 39.1009 113.155 39.1391 113.056 39.1391L113.055 39.1371Z" fill="#1D266D"/>
<path d="M206.579 313.965C225.916 306.388 239.442 300.569 257.058 301.058C256.052 298.136 254.933 294.907 253.701 291.386C247.468 273.585 243.462 255.338 243.907 235.757C244.352 216.176 241.236 199.709 231.888 174.788C224.812 155.924 216.205 126.096 212.44 112.71C211.442 109.165 207.005 107.954 204.373 110.53C199.314 115.483 193.461 124.374 196.72 137.404C202.062 158.766 205.178 176.568 198.946 189.918C192.713 203.269 187.816 210.835 185.59 221.07H122.822C122.822 221.07 139.738 253.112 168.229 274.474C168.229 274.474 174.489 300.926 178.93 318.734C183.472 319.326 192.76 319.379 206.58 313.964L206.579 313.965Z" fill="#FFD0B4"/>
<path d="M127.749 229.365L122.822 221.07H185.59C185.59 221.07 183.921 226.411 183.587 231.64C183.587 231.64 169.23 226.238 154.651 226.491C140.071 226.744 127.748 229.365 127.748 229.365H127.749Z" fill="#F4BDA4"/>
<path d="M185.59 220.069C185.59 220.069 188.929 209.388 192.157 202.156C195.384 194.925 200.101 189.7 201.171 178.681C202.242 167.662 200.775 157.487 198.278 143.831C198.278 143.831 204.288 157.32 204.511 173.897C204.733 190.474 196.609 198.597 193.604 204.605C190.6 210.612 185.591 220.069 185.591 220.069H185.59Z" fill="#F4BDA4"/>
<path d="M204.373 110.531C204.373 110.531 194.751 118.154 195.791 130.839C195.791 130.839 194.999 125.268 204.373 110.531Z" fill="#F4BDA4"/>
<path d="M178.002 314.995C173.331 284.859 183.921 271.917 183.921 271.917C166.559 268.913 136.482 241.98 136.482 241.98C148.139 259.516 168.228 274.476 168.228 274.476L178.001 314.994L178.002 314.995Z" fill="#F4BDA4"/>
<path d="M256.873 301.053C253.211 290.244 249.096 277.582 247.975 272.087C245.833 261.601 243.524 239.12 243.605 222.475C243.605 222.475 238.009 254.226 242.015 269.914C244.405 279.27 248.415 290.777 253.08 301.052C254.325 301.019 255.59 301.021 256.873 301.053Z" fill="#F4BDA4"/>
</svg>
