<svg width="100" height="100" viewBox="0 0 100 100" fill="none" xmlns="http://www.w3.org/2000/svg">
<g clip-path="url(#clip0_56_13702)">
<path d="M69.4549 4.99023L38.9098 53.8346L69.4549 67.3475L80.0119 37.7877L69.4549 4.99023Z" fill="#004E7C"/>
<path d="M69.4549 4.99072V67.3476L100 53.8347L69.4549 4.99072Z" fill="#0071ED"/>
<path d="M31.3404 20.0649L0 34.1101L8.40059 51.6181L21.7457 56.7753L45.8203 44.4218L53.0861 34.1101L31.3404 20.0649Z" fill="white"/>
<path d="M21.7457 48.1557L0 34.1104V67.6562L21.7457 81.7014L31.1479 61.9686L21.7457 48.1557Z" fill="#A6A8A9"/>
<path d="M53.0862 67.6562V34.1104L21.7457 48.1557V81.7014L53.0862 67.6562Z" fill="#E6E6E6"/>
<path d="M60.5109 95.0097C74.6299 95.0097 86.0756 83.564 86.0756 69.445C86.0756 55.3261 74.6299 43.8804 60.5109 43.8804C46.392 43.8804 34.9463 55.3261 34.9463 69.445C34.9463 83.564 46.392 95.0097 60.5109 95.0097Z" fill="#FFBB44"/>
<path opacity="0.1" d="M39.5609 74.0599C39.5609 59.9403 51.007 48.4942 65.1266 48.4942C71.01 48.4942 76.4279 50.4827 80.7481 53.8226C76.0725 47.7743 68.7469 43.8784 60.5108 43.8784C46.3912 43.8784 34.9451 55.3245 34.9451 69.444C34.9451 77.6802 38.8408 85.0058 44.8893 89.6813C41.5494 85.361 39.5609 79.9431 39.5609 74.0599Z" fill="black"/>
</g>
<defs>
<clipPath id="clip0_56_13702">
<rect width="100" height="100" fill="white"/>
</clipPath>
</defs>
</svg>
