<svg width="100" height="100" viewBox="0 0 100 100" fill="none" xmlns="http://www.w3.org/2000/svg">
<g clip-path="url(#clip0_56_13604)">
<path d="M94.2159 16.8409C86.5036 9.12856 73.9993 9.12856 66.2868 16.8409L47.7864 35.3413L76.4407 62.5448L94.2157 44.77C101.928 37.0573 101.928 24.5532 94.2159 16.8409Z" fill="#FFBB44"/>
<path d="M66.287 16.8408L59.6887 23.4388L62.404 24.8433C65.1563 26.2669 68.5254 25.7111 70.6508 23.456C74.134 19.7603 79.7001 14.3525 84.7764 11.6017C78.3426 10.0925 71.3032 11.8244 66.287 16.8408Z" fill="#BD934A"/>
<path d="M52.9774 34.1574L50.6409 36.4939L72.4006 58.2535L74.7372 55.917C79.4965 51.1576 79.4965 43.441 74.7372 38.6816L70.2129 34.1574C65.4532 29.398 57.7368 29.398 52.9774 34.1574Z" fill="#BD934A"/>
<path d="M20.6309 58.5074L5.78423 43.661C-1.92808 35.9487 -1.92808 23.4446 5.78423 15.7324C13.4965 8.02014 26.0008 8.02014 33.7129 15.7326L39.5821 21.6018C44.4885 19.2576 50.9981 19.6471 55.9438 22.5979L52.5493 34.5686L79.4807 61.5C81.8135 63.8328 81.6766 67.7 79.07 69.853C76.7977 71.7295 73.4133 71.3922 71.3295 69.3084L69.8192 67.7981C72.152 70.1309 72.0151 73.9981 69.4084 76.151C67.1362 78.0276 63.7518 77.6903 61.668 75.6065L60.1452 74.0836C62.478 76.4164 62.3411 80.2836 59.7344 82.4366C57.4622 84.3131 54.0778 83.9758 51.994 81.892L50.554 80.452C52.8868 82.7848 52.7499 86.652 50.1432 88.8049C47.8709 90.6815 44.4866 90.3442 42.4028 88.2604L20.4096 66.2658L20.6309 58.5074Z" fill="#0071ED"/>
<path d="M25.778 64.2347L25.9135 59.4765C25.9682 57.5615 25.2313 55.7086 23.8766 54.3537L11.1524 41.6294C5.17601 35.6529 3.8391 26.8021 7.1266 19.5308C7.46312 18.7865 7.30531 17.9156 6.68031 17.39C5.89261 16.7277 4.71878 16.8793 4.09164 17.6953C-1.85993 25.4377 -1.3068 36.5697 5.7846 43.6609L20.6311 58.5074L20.41 66.2658L42.3762 88.232C44.1442 90 46.8737 90.6089 49.1055 89.4818C49.9145 89.0734 50.5381 88.5197 51.0242 87.8933C49.8276 87.6849 48.6758 87.1322 47.7717 86.2283L25.778 64.2347Z" fill="#004E7C"/>
<path d="M48.0442 71.1221C47.1028 70.1807 45.5762 70.1807 44.6346 71.1221C43.693 72.0635 43.6932 73.59 44.6346 74.5316L50.5547 80.4518L50.5545 80.4516L51.1856 81.0826L51.9946 81.8918C54.0131 83.91 57.2426 84.2703 59.5088 82.5869L48.0442 71.1221Z" fill="#004E7C"/>
<path d="M57.5559 64.6748C56.6145 63.7334 55.0879 63.7334 54.1463 64.6748C53.2047 65.6162 53.2049 67.1428 54.1463 68.0844L60.1481 74.0861C60.1473 74.0854 60.1465 74.0842 60.1457 74.083L61.6686 75.6059C63.6869 77.6242 66.9166 77.9848 69.1828 76.3016L57.5559 64.6748Z" fill="#004E7C"/>
<path d="M67.0677 58.2275C66.1262 57.2861 64.5995 57.2861 63.6581 58.2275C62.7167 59.1689 62.7167 60.6955 63.6581 61.6371L69.8241 67.8031C69.8223 67.8014 69.8214 67.7992 69.8196 67.7977L71.3298 69.3078C73.3481 71.3262 76.5774 71.6867 78.8436 70.0037L67.0677 58.2275Z" fill="#004E7C"/>
<path d="M16.6408 70.4764C14.4373 68.2729 14.4373 64.7002 16.6408 62.4967L18.6357 60.5018C20.8392 58.2982 24.4119 58.2982 26.6154 60.5018C28.8189 62.7053 28.8189 66.2779 26.6154 68.4814L24.6205 70.4764C22.4172 72.6801 18.8443 72.6801 16.6408 70.4764Z" fill="#FFBB44"/>
<path d="M24.6207 78.4561C22.4171 76.2525 22.4171 72.6799 24.6207 70.4764C26.8242 68.2729 30.3968 68.2729 32.6003 70.4764C34.8039 72.6799 34.8039 76.2525 32.6003 78.4561C30.3968 80.6596 26.8242 80.6596 24.6207 78.4561Z" fill="#FFBB44"/>
<path d="M33.5976 85.4385C31.3941 83.235 31.3941 79.6623 33.5976 77.4588C35.8011 75.2553 39.3738 75.2553 41.5773 77.4588C43.7808 79.6623 43.7808 83.235 41.5773 85.4385C39.374 87.642 35.8013 87.642 33.5976 85.4385Z" fill="#FFBB44"/>
<path d="M22.2993 64.8183L24.2942 62.8233C25.1299 61.9876 26.1629 61.4724 27.243 61.2706C27.0559 61.0026 26.8543 60.7411 26.6153 60.5022C24.4118 58.2987 20.8391 58.2987 18.6356 60.5022L16.6407 62.4972C14.4372 64.7007 14.4372 68.2735 16.6407 70.477C18.0084 71.8448 19.9034 72.3601 21.6711 72.0298C20.1334 69.8288 20.335 66.7827 22.2993 64.8183Z" fill="#BD934A"/>
<path d="M29.9527 71.9998C30.7186 71.234 31.6533 70.7521 32.635 70.5186C32.6219 70.5053 32.6137 70.4896 32.6006 70.4764C30.3971 68.2729 26.8244 68.2729 24.6209 70.4764C22.4174 72.6799 22.4174 76.2527 24.6209 78.4562C26.0588 79.8939 28.0756 80.376 29.9184 79.9375C27.7539 77.7309 27.7621 74.1902 29.9527 71.9998Z" fill="#BD934A"/>
<path d="M39.1475 86.0911C36.944 83.8876 36.944 80.3149 39.1475 78.1112C39.6719 77.5868 40.2772 77.1962 40.9201 76.9212C38.7121 75.2934 35.5971 75.4592 33.5981 77.4583C31.3946 79.6618 31.3946 83.2346 33.5981 85.4381C35.2772 87.1172 37.7477 87.5079 39.8051 86.6282C39.5789 86.4616 39.352 86.2958 39.1475 86.0911Z" fill="#BD934A"/>
<path d="M44.5699 26.5885L34.5953 36.5631C32.3917 38.7666 32.3917 42.3393 34.5953 44.5428C36.7988 46.7463 40.3714 46.7463 42.5751 44.5428L62.324 24.794C56.8466 21.1655 49.3955 21.7629 44.5699 26.5885Z" fill="#FFBB44"/>
</g>
<defs>
<clipPath id="clip0_56_13604">
<rect width="100" height="100" fill="white"/>
</clipPath>
</defs>
</svg>
