<svg width="271" height="280" viewBox="0 0 271 280" fill="none" xmlns="http://www.w3.org/2000/svg">
<g clip-path="url(#clip0_150_26966)">
<path d="M135.418 280.001C210.208 280.001 270.837 219.372 270.837 144.582C270.837 69.7929 210.208 9.16406 135.418 9.16406C60.6289 9.16406 0 69.7929 0 144.582C0 219.372 60.6289 280.001 135.418 280.001Z" fill="#E6E6E6"/>
<path d="M97.4722 94.7828C97.4722 94.7828 78.855 81.1473 81.7391 73.8054C84.6231 66.4635 97.9968 70.6586 102.717 73.8054L97.4722 94.7828Z" fill="#FEC5BF"/>
<path d="M88.7317 69.7254C88.7317 69.7254 90.9454 69.1839 94.9906 70.5458C94.9906 70.5458 98.9586 71.3577 102.717 73.8053L97.4729 94.7827C97.4729 94.7827 91.4404 90.3901 88.1758 86.6924C88.1758 86.6924 91.7048 78.7573 88.7326 69.7263L88.7317 69.7254Z" fill="#ECBEBB"/>
<path d="M96.4247 97.667C96.4247 97.667 88.0336 102.649 85.4114 104.747C82.7892 106.845 75.4473 110.778 74.6608 112.614C73.8743 114.449 74.3989 123.102 96.4247 121.529L103.767 119.956L96.4247 97.6678V97.667Z" fill="#FEC5BF"/>
<path d="M85.4121 104.747C85.4121 104.747 90.0446 102.33 90.6565 121.719C90.6565 121.719 97.9984 122.665 103.767 119.955L96.4254 97.667C96.4254 97.667 90.3073 100.726 85.4121 104.747Z" fill="#ECBEBB"/>
<path d="M98.2587 124.413C98.2587 124.413 83.7537 125.724 81.4357 132.541C79.117 139.359 79.9035 146.439 79.9035 151.158C79.9035 155.878 77.2864 160.336 79.7746 161.909C82.2629 163.482 90.9159 163.22 97.2095 153.518C103.503 143.816 103.765 141.456 103.765 141.456L98.2587 124.412V124.413Z" fill="#FEC5BF"/>
<path d="M103.766 161.124C103.766 161.124 98.5217 166.106 98.5217 170.826C98.5217 175.546 95.3334 178.168 92.0765 174.759C88.8195 171.351 84.6244 166.106 85.1481 159.551C85.6727 152.995 100.233 148.668 100.233 148.668L103.766 161.125V161.124Z" fill="#FEC5BF"/>
<path d="M97.2095 158.72C97.2095 158.72 90.6676 163.065 85.2207 162.487C85.2207 162.487 91.5448 161.604 96.54 154.502L97.2086 158.719L97.2095 158.72Z" fill="#ECBEBB"/>
<path d="M98.6154 125.519C98.6154 125.519 85.7536 126.626 80.6 135.571C80.6 135.571 79.9084 130.802 86.68 127.477C93.4515 124.151 98.2586 124.413 98.2586 124.413L98.6154 125.519Z" fill="#ECBEBB"/>
<path d="M161.419 0H105.363C97.9366 0 91.916 6.02058 91.916 13.4473V158.202C91.916 165.629 97.9366 171.649 105.363 171.649H161.419C168.846 171.649 174.866 165.629 174.866 158.202V13.4473C174.866 6.02058 168.846 0 161.419 0Z" fill="#004E7C"/>
<path d="M160.751 3.35547H106.034C100.283 3.35547 95.6211 8.01727 95.6211 13.7679V157.883C95.6211 163.633 100.283 168.295 106.034 168.295H160.751C166.502 168.295 171.163 163.633 171.163 157.883V13.7679C171.163 8.01727 166.502 3.35547 160.751 3.35547Z" fill="white"/>
<path d="M95.6211 23.842V13.7669C95.6211 8.01661 100.282 3.35449 106.034 3.35449H160.752C166.502 3.35449 171.164 8.01576 171.164 13.7669V23.842H95.6219H95.6211Z" fill="#D7E0F2"/>
<path d="M160.75 168.293H106.032C100.281 168.293 95.6191 163.632 95.6191 157.881V150.526H171.161V157.881C171.161 163.631 166.5 168.293 160.749 168.293H160.75Z" fill="#D7E0F2"/>
<path d="M153.435 155.98H108.075C106.279 155.98 104.822 157.437 104.822 159.233C104.822 161.03 106.279 162.486 108.075 162.486H153.435C155.232 162.486 156.688 161.03 156.688 159.233C156.688 157.437 155.232 155.98 153.435 155.98Z" fill="white"/>
<path d="M161.698 162.486C163.494 162.486 164.951 161.03 164.951 159.233C164.951 157.437 163.494 155.98 161.698 155.98C159.902 155.98 158.445 157.437 158.445 159.233C158.445 161.03 159.902 162.486 161.698 162.486Z" fill="white"/>
<path d="M161.698 161.369C161.498 161.369 161.336 161.207 161.336 161.007V157.262C161.336 157.062 161.498 156.9 161.698 156.9C161.898 156.9 162.06 157.062 162.06 157.262V161.007C162.06 161.207 161.898 161.369 161.698 161.369Z" fill="#D7EBF9"/>
<path d="M163.57 159.496H159.825C159.625 159.496 159.463 159.334 159.463 159.134C159.463 158.934 159.625 158.772 159.825 158.772H163.57C163.77 158.772 163.932 158.934 163.932 159.134C163.932 159.334 163.77 159.496 163.57 159.496Z" fill="#D7EBF9"/>
<path d="M105.745 86.202H129.921C132.944 86.202 135.419 88.6759 135.419 91.7006V97.7493C135.419 98.951 135.024 100.062 134.363 100.969L135.419 108.177L129.921 103.247H105.745C102.721 103.247 100.246 100.773 100.246 97.7484V91.6998C100.246 88.6759 102.72 86.2012 105.745 86.2012V86.202Z" fill="#0071ED"/>
<path d="M123.333 96.513C124.296 96.513 125.076 95.7325 125.076 94.7697C125.076 93.8069 124.296 93.0264 123.333 93.0264C122.37 93.0264 121.59 93.8069 121.59 94.7697C121.59 95.7325 122.37 96.513 123.333 96.513Z" fill="white"/>
<path d="M117.833 96.513C118.796 96.513 119.576 95.7325 119.576 94.7697C119.576 93.8069 118.796 93.0264 117.833 93.0264C116.87 93.0264 116.09 93.8069 116.09 94.7697C116.09 95.7325 116.87 96.513 117.833 96.513Z" fill="white"/>
<path d="M112.331 96.513C113.294 96.513 114.075 95.7325 114.075 94.7697C114.075 93.8069 113.294 93.0264 112.331 93.0264C111.368 93.0264 110.588 93.8069 110.588 94.7697C110.588 95.7325 111.368 96.513 112.331 96.513Z" fill="white"/>
<path d="M162.19 112.6H138.014C134.99 112.6 132.516 115.074 132.516 118.099V124.148C132.516 125.349 132.911 126.461 133.572 127.367L132.516 134.575L138.014 129.645H162.19C165.214 129.645 167.689 127.172 167.689 124.147V118.098C167.689 115.074 165.215 112.6 162.19 112.6V112.6Z" fill="#BD934A"/>
<path d="M146.344 121.169C146.344 122.132 145.563 122.912 144.601 122.912C143.638 122.912 142.857 122.132 142.857 121.169C142.857 120.206 143.638 119.426 144.601 119.426C145.563 119.426 146.344 120.206 146.344 121.169Z" fill="white"/>
<path d="M151.846 121.169C151.846 122.132 151.065 122.912 150.103 122.912C149.14 122.912 148.359 122.132 148.359 121.169C148.359 120.206 149.14 119.426 150.103 119.426C151.065 119.426 151.846 120.206 151.846 121.169Z" fill="white"/>
<path d="M155.603 122.912C156.566 122.912 157.346 122.132 157.346 121.169C157.346 120.206 156.566 119.426 155.603 119.426C154.64 119.426 153.859 120.206 153.859 121.169C153.859 122.132 154.64 122.912 155.603 122.912Z" fill="white"/>
<path d="M105.745 33.4051H129.921C132.944 33.4051 135.419 35.879 135.419 38.9037V44.9524C135.419 46.1541 135.024 47.2652 134.363 48.1721L135.419 55.3801L129.921 50.4501H105.745C102.721 50.4501 100.246 47.9763 100.246 44.9515V38.9029C100.246 35.879 102.72 33.4043 105.745 33.4043V33.4051Z" fill="#0071ED"/>
<path d="M123.333 43.7171C124.296 43.7171 125.076 42.9366 125.076 41.9738C125.076 41.011 124.296 40.2305 123.333 40.2305C122.37 40.2305 121.59 41.011 121.59 41.9738C121.59 42.9366 122.37 43.7171 123.333 43.7171Z" fill="white"/>
<path d="M117.833 43.7171C118.796 43.7171 119.576 42.9366 119.576 41.9738C119.576 41.011 118.796 40.2305 117.833 40.2305C116.87 40.2305 116.09 41.011 116.09 41.9738C116.09 42.9366 116.87 43.7171 117.833 43.7171Z" fill="white"/>
<path d="M112.331 43.7171C113.294 43.7171 114.075 42.9366 114.075 41.9738C114.075 41.011 113.294 40.2305 112.331 40.2305C111.368 40.2305 110.588 41.011 110.588 41.9738C110.588 42.9366 111.368 43.7171 112.331 43.7171Z" fill="white"/>
<path d="M162.19 59.8046H138.014C134.99 59.8046 132.516 62.2784 132.516 65.3032V71.3518C132.516 72.5536 132.911 73.6646 133.572 74.5715L132.516 81.7795L138.014 76.8496H162.19C165.214 76.8496 167.689 74.3757 167.689 71.351V65.3023C167.689 62.2784 165.215 59.8037 162.19 59.8037V59.8046Z" fill="#BD934A"/>
<path d="M144.601 70.1155C145.564 70.1155 146.344 69.335 146.344 68.3722C146.344 67.4094 145.564 66.6289 144.601 66.6289C143.638 66.6289 142.857 67.4094 142.857 68.3722C142.857 69.335 143.638 70.1155 144.601 70.1155Z" fill="white"/>
<path d="M150.103 70.1155C151.065 70.1155 151.846 69.335 151.846 68.3722C151.846 67.4094 151.065 66.6289 150.103 66.6289C149.14 66.6289 148.359 67.4094 148.359 68.3722C148.359 69.335 149.14 70.1155 150.103 70.1155Z" fill="white"/>
<path d="M155.603 70.1155C156.566 70.1155 157.346 69.335 157.346 68.3722C157.346 67.4094 156.566 66.6289 155.603 66.6289C154.64 66.6289 153.859 67.4094 153.859 68.3722C153.859 69.335 154.64 70.1155 155.603 70.1155Z" fill="white"/>
<path d="M161.835 17.0332H159.647C158.92 17.0332 158.33 17.6229 158.33 18.3502V18.7655C158.33 19.4929 158.92 20.0825 159.647 20.0825H161.835C162.562 20.0825 163.152 19.4929 163.152 18.7655V18.3502C163.152 17.6229 162.562 17.0332 161.835 17.0332Z" fill="white"/>
<path d="M164.971 19.7853L163.744 19.409C163.612 19.3683 163.521 19.2471 163.521 19.109V17.9657C163.521 17.8276 163.611 17.7064 163.744 17.6657L164.971 17.2894C165.172 17.2275 165.377 17.3784 165.377 17.5894V19.4861C165.377 19.6972 165.172 19.848 164.971 19.7861V19.7853Z" fill="white"/>
<path fill-rule="evenodd" clip-rule="evenodd" d="M149.821 15.8001C150.031 15.6476 150.165 15.5908 150.393 15.5527C150.775 15.4578 151.48 16.7909 151.175 17.1341C151.06 17.2672 150.908 17.2485 150.641 17.3629C150.584 18.2206 151.498 19.669 152.299 19.9927C152.489 19.8021 152.565 19.669 152.718 19.6114C153.176 19.497 154.052 20.7165 153.805 21.0216C153.652 21.1928 153.557 21.2886 153.328 21.4216C151.556 22.5463 148.03 16.9053 149.822 15.8001H149.821Z" fill="white"/>
<path d="M105.237 21.6752C105.101 21.6752 104.964 21.6235 104.86 21.5192L102.679 19.3386C102.579 19.2386 102.523 19.103 102.523 18.9615C102.523 18.8199 102.579 18.6843 102.679 18.5843L105.006 16.2579C105.214 16.0494 105.552 16.0494 105.76 16.2579C105.969 16.4664 105.969 16.8037 105.76 17.0122L103.811 18.9606L105.614 20.7641C105.823 20.9726 105.823 21.3099 105.614 21.5184C105.51 21.6226 105.374 21.6743 105.237 21.6743V21.6752Z" fill="white"/>
<path d="M163.449 10.7916H157.12C156.534 10.7916 156.057 10.3145 156.057 9.72799V8.29995C156.057 7.71347 156.534 7.23633 157.12 7.23633H163.449C163.928 7.23633 164.344 7.55584 164.472 8.0101C164.766 8.03044 165 8.27706 165 8.57708V9.45086C165 9.75087 164.766 9.9975 164.472 10.0178C164.344 10.4721 163.929 10.7916 163.449 10.7916ZM157.12 7.48634C156.671 7.48634 156.306 7.85162 156.306 8.30079V9.72884C156.306 10.178 156.671 10.5433 157.12 10.5433H163.449C163.843 10.5433 164.179 10.2619 164.249 9.87376C164.26 9.81443 164.311 9.77121 164.372 9.77121H164.432C164.607 9.77121 164.75 9.62798 164.75 9.45255V8.57877C164.75 8.40334 164.607 8.26011 164.432 8.26011H164.372C164.311 8.26011 164.26 8.21689 164.249 8.15756C164.179 7.76941 163.843 7.48804 163.449 7.48804H157.12V7.48634Z" fill="#004E7C"/>
<path d="M157.121 7.68151H162.393V10.3486H157.121C156.795 10.3486 156.529 10.0833 156.529 9.75705V8.27222C156.529 7.94593 156.795 7.68066 157.121 7.68066V7.68151Z" fill="#004E7C"/>
<path d="M103.73 9.01367H102.291V10.7951H103.73V9.01367Z" fill="#004E7C"/>
<path d="M105.543 8.10059H104.104V10.7956H105.543V8.10059Z" fill="#004E7C"/>
<path d="M107.355 7.2334H105.916V10.7955H107.355V7.2334Z" fill="#004E7C"/>
<path d="M154.475 8.34326C154.477 8.45852 154.431 8.56954 154.35 8.6509C154.178 8.82125 153.902 8.82379 153.727 8.65684C153.302 8.25173 152.736 8.02714 152.149 8.03053C151.562 8.02714 150.996 8.25088 150.571 8.65684C150.395 8.82379 150.119 8.8204 149.948 8.65006C149.781 8.48395 149.78 8.21274 149.946 8.04579C149.949 8.04324 149.951 8.0407 149.955 8.03731C150.546 7.47287 151.332 7.16099 152.149 7.16608C152.966 7.16099 153.752 7.47372 154.343 8.03731C154.427 8.11698 154.475 8.22715 154.476 8.34241L154.475 8.34326Z" fill="#004E7C"/>
<path d="M153.355 9.032C153.526 9.19472 153.533 9.46422 153.37 9.63542C153.368 9.63881 153.364 9.64135 153.362 9.64474C153.191 9.81594 152.914 9.81848 152.74 9.65068C152.408 9.33879 151.891 9.33879 151.559 9.65068C151.385 9.81763 151.108 9.81509 150.937 9.64474C150.769 9.47863 150.768 9.20828 150.935 9.04047C150.937 9.03793 150.94 9.03454 150.943 9.032C151.62 8.39298 152.678 8.39298 153.355 9.032Z" fill="#004E7C"/>
<path d="M152.669 10.3982C152.669 10.6855 152.435 10.9185 152.147 10.9185C151.86 10.9185 151.627 10.6846 151.627 10.3973C151.627 10.11 151.86 9.87695 152.148 9.87695C152.436 9.87695 152.669 10.1109 152.669 10.3982H152.669Z" fill="#004E7C"/>
<path d="M109.706 10.4946H110.992V10.7869H109.346V8.07324H109.705V10.4937L109.706 10.4946Z" fill="#004E7C"/>
<path d="M111.254 9.7596C111.254 9.56213 111.293 9.38415 111.37 9.22652C111.448 9.06888 111.556 8.94684 111.695 8.86124C111.833 8.77564 111.991 8.73242 112.169 8.73242C112.444 8.73242 112.666 8.82734 112.835 9.01718C113.005 9.20702 113.09 9.46043 113.09 9.7757V9.80028C113.09 9.9969 113.052 10.1732 112.977 10.3291C112.901 10.4851 112.795 10.6063 112.655 10.6935C112.515 10.7808 112.355 10.8241 112.173 10.8241C111.9 10.8241 111.679 10.7291 111.509 10.5393C111.34 10.3495 111.255 10.0978 111.255 9.78417V9.7596H111.254ZM111.601 9.80028C111.601 10.024 111.652 10.2037 111.756 10.3384C111.86 10.474 111.999 10.5418 112.173 10.5418C112.346 10.5418 112.487 10.4732 112.59 10.3359C112.694 10.1986 112.746 10.0062 112.746 9.75875C112.746 9.53755 112.693 9.35873 112.588 9.22143C112.483 9.08414 112.344 9.01549 112.169 9.01549C111.999 9.01549 111.862 9.08329 111.757 9.21889C111.653 9.35449 111.601 9.54772 111.601 9.80028Z" fill="#004E7C"/>
<path d="M114.498 9.08016C114.446 9.07168 114.39 9.06744 114.329 9.06744C114.102 9.06744 113.949 9.16406 113.868 9.35644V10.7879H113.523V8.77167H113.859L113.865 9.00473C113.978 8.82421 114.139 8.73438 114.346 8.73438C114.412 8.73438 114.463 8.74285 114.498 8.76065V9.081V9.08016Z" fill="#004E7C"/>
<path d="M115.615 10.8241C115.341 10.8241 115.119 10.7342 114.948 10.5546C114.777 10.3757 114.691 10.135 114.691 9.83418V9.77061C114.691 9.5706 114.73 9.39263 114.806 9.23414C114.882 9.07736 114.989 8.95447 115.126 8.86548C115.263 8.77734 115.413 8.73242 115.573 8.73242C115.835 8.73242 116.039 8.81887 116.184 8.99176C116.33 9.16465 116.402 9.41127 116.402 9.73332V9.87655H115.035C115.041 10.0757 115.098 10.2359 115.21 10.3588C115.321 10.4808 115.463 10.5418 115.634 10.5418C115.756 10.5418 115.858 10.5173 115.943 10.4673C116.028 10.4173 116.102 10.352 116.165 10.2698L116.375 10.4342C116.207 10.6935 115.953 10.8241 115.615 10.8241ZM115.572 9.01634C115.433 9.01634 115.316 9.06719 115.222 9.16804C115.128 9.26974 115.069 9.41127 115.047 9.59433H116.057V9.56806C116.047 9.39263 116 9.25787 115.915 9.16041C115.83 9.06464 115.716 9.01634 115.572 9.01634Z" fill="#004E7C"/>
<path d="M117.125 8.77069L117.134 8.99443C117.282 8.82069 117.482 8.7334 117.733 8.7334C118.015 8.7334 118.207 8.84188 118.308 9.05799C118.375 8.96138 118.462 8.88256 118.57 8.82323C118.678 8.76391 118.805 8.7334 118.951 8.7334C119.394 8.7334 119.618 8.96731 119.626 9.43598V10.7869H119.282V9.45632C119.282 9.31224 119.248 9.20461 119.183 9.13342C119.117 9.06223 119.007 9.02579 118.851 9.02579C118.724 9.02579 118.618 9.06392 118.533 9.14105C118.448 9.21648 118.399 9.31987 118.385 9.44954V10.7877H118.039V9.46649C118.039 9.17325 117.895 9.02663 117.608 9.02663C117.382 9.02663 117.228 9.12325 117.144 9.31563V10.7877H116.799V8.77154H117.125V8.77069Z" fill="#004E7C"/>
<path d="M112.094 178.565L108.225 172.049H157.521C157.521 172.049 156.21 176.244 155.948 180.353C155.948 180.353 144.673 176.108 133.223 176.308C121.774 176.507 112.095 178.565 112.095 178.565H112.094Z" fill="#ECBEBB"/>
<path d="M157.521 171.262C157.521 171.262 160.144 162.871 162.679 157.19C165.213 151.509 168.917 147.404 169.759 138.748C170.599 130.091 169.448 122.098 167.486 111.369C167.486 111.369 172.206 121.966 172.381 134.989C172.555 148.013 166.175 154.393 163.815 159.113C161.455 163.833 157.521 171.262 157.521 171.262Z" fill="#ECBEBB"/>
<path d="M172.273 85.207C172.273 85.207 164.715 91.1955 165.532 101.161C165.532 101.161 164.91 96.7848 172.273 85.207Z" fill="#ECBEBB"/>
<path d="M118.954 188.475C118.954 188.475 142.576 209.633 156.21 211.993C156.21 211.993 147.825 222.332 151.493 246.006L143.886 214.003C143.886 214.003 128.109 202.251 118.953 188.475H118.954Z" fill="#ECBEBB"/>
<path d="M203.085 173.151C203.085 173.151 198.689 198.096 201.836 210.42C204.983 222.744 211.704 239.818 218.439 249.111C218.439 249.111 208.198 220.365 206.517 212.127C204.835 203.889 203.022 186.228 203.085 173.151Z" fill="#ECBEBB"/>
<mask id="mask0_150_26966" style="mask-type:luminance" maskUnits="userSpaceOnUse" x="0" y="9" width="271" height="272">
<path d="M135.418 280.001C210.208 280.001 270.837 219.372 270.837 144.582C270.837 69.7929 210.208 9.16406 135.418 9.16406C60.6289 9.16406 0 69.7929 0 144.582C0 219.372 60.6289 280.001 135.418 280.001Z" fill="white"/>
</mask>
<g mask="url(#mask0_150_26966)">
<path d="M228.813 279.89C228.813 279.89 215.907 241.274 211.012 227.289C206.118 213.304 202.971 198.97 203.32 183.587C203.67 168.204 201.223 155.267 193.881 135.688C188.324 120.869 181.564 97.4363 178.607 86.9196C177.824 84.1347 174.339 83.1838 172.272 85.2077C168.298 89.0985 163.702 96.0828 166.262 106.32C170.457 123.101 172.904 137.087 168.01 147.575C163.116 158.064 159.27 164.008 157.521 172.049H108.225C108.225 172.049 121.51 197.221 143.886 214.004C143.886 214.004 156.442 265.906 159.938 279.89H228.813Z" fill="#FEC5BF"/>
</g>
<mask id="mask1_150_26966" style="mask-type:luminance" maskUnits="userSpaceOnUse" x="0" y="9" width="271" height="272">
<path d="M135.418 280.001C210.208 280.001 270.837 219.372 270.837 144.582C270.837 69.7929 210.208 9.16406 135.418 9.16406C60.6289 9.16406 0 69.7929 0 144.582C0 219.372 60.6289 280.001 135.418 280.001Z" fill="white"/>
</mask>
<g mask="url(#mask1_150_26966)">
<path d="M125.778 217.357C126.815 214.156 124.686 210.796 121.347 210.38C116.11 209.728 108.71 210.983 104.15 221.195C96.4961 238.334 96.4723 245.047 90.5652 250.749C90.5652 250.749 90.9212 237.358 97.6783 223.926C104.435 210.495 108.645 202.806 115.117 193.09C121.588 183.375 137.804 161.395 131.094 156.008C122.442 149.062 108.664 168.109 104.54 173.273C100.416 178.437 92.6407 188.954 89.1728 192.459C85.7463 195.922 83.1258 197.814 80.235 201.391C80.0367 201.637 79.1883 201.108 78.5993 201.046C78.5993 201.046 65.4206 199.452 56.2278 205.516C48.4689 210.635 46.7527 214.662 44.2941 217.643C44.0991 217.88 43.4449 217.91 42.9202 217.891C42.0727 217.861 41.2303 217.946 40.4015 218.124C35.6639 219.138 23.0564 223.595 20.4538 242.498C18.8681 254.016 17.3604 268.329 16.2383 279.891H103.845C110.309 264.686 121.546 230.437 125.779 217.358L125.778 217.357Z" fill="#FEC5BF"/>
</g>
<path d="M77.8893 200.979C77.8893 200.979 79.5275 201.039 80.2352 201.39C80.2352 201.39 72.8102 209.872 69.9753 214.173C67.1404 218.474 63.7402 224.14 63.7402 224.14C63.7402 224.14 64.7988 219.83 67.9108 214.039C71.4423 207.466 77.8902 200.979 77.8902 200.979" fill="#ECBEBB"/>
<path d="M90.5645 250.749C90.5645 250.749 94.5757 248.765 97.2538 243.268C99.9319 237.77 105.972 217.79 105.972 217.79C105.972 217.79 101.587 225.84 98.003 236.695C94.4181 247.551 90.5653 250.749 90.5653 250.749H90.5645Z" fill="#ECBEBB"/>
<path d="M44.2935 217.643C44.2935 217.643 40.7602 221.989 39.4085 225.791C39.4085 225.791 38.8203 223.895 41.9823 217.908L44.2935 217.643Z" fill="#ECBEBB"/>
<path d="M90.5642 250.749C90.5642 250.749 92.1634 235.316 96.1806 227.135C100.198 218.954 107.532 205.304 107.532 205.304C107.532 205.304 94.9415 220.416 92.6185 227.566C90.2955 234.716 90.5642 250.749 90.5642 250.749Z" fill="#ECBEBB"/>
</g>
<defs>
<clipPath id="clip0_150_26966">
<rect width="270.836" height="280" fill="white"/>
</clipPath>
</defs>
</svg>
