<?xml version="1.0" encoding="utf-8"?>
<!-- Generator: Adobe Illustrator 27.1.1, SVG Export Plug-In . SVG Version: 6.00 Build 0)  -->
<svg version="1.1" id="js-scene" xmlns="http://www.w3.org/2000/svg" xmlns:xlink="http://www.w3.org/1999/xlink" x="0px" y="0px"
	 viewBox="0 0 729 590" style="enable-background:new 0 0 729 590;" xml:space="preserve">
<style type="text/css">
	.st0{fill:#220C34;}
	.st1{fill:#FB8C00;}
	.st2{fill:#01579B;}
	.st3{fill:url(#SVGID_1_);}
	.st4{opacity:0.55;fill:url(#SVGID_00000026141360323823794210000017715926137226368142_);enable-background:new    ;}
	.st5{opacity:0.55;fill:url(#SVGID_00000183968359235702991030000013000592087590581937_);enable-background:new    ;}
	.st6{fill:#FFCC80;}
	.st7{fill:#40C4FF;}
	.st8{fill:#0091EA;}
	.st9{fill:#E1F5FE;}
	.st10{fill:#F57C00;}
	.st11{fill:#00DDF7;}
	.st12{fill:url(#SVGID_00000139269753888619971910000013595631037931684780_);fill-opacity:0.55;}
	.st13{fill:url(#SVGID_00000028310151276234786620000015839512554766106516_);fill-opacity:0.55;}
	.st14{fill:url(#SVGID_00000088823313514672228460000004840102469135893378_);fill-opacity:0.55;}
	.st15{fill:url(#SVGID_00000117672409660149300050000015407949002587231931_);fill-opacity:0.55;}
	.st16{fill:url(#SVGID_00000024720706394064719650000005089479008727634871_);fill-opacity:0.55;}
	.st17{fill:url(#SVGID_00000143601652662164000300000005499192429566980782_);fill-opacity:0.55;}
	.st18{fill:url(#SVGID_00000163776928995153478700000013069002288191667615_);fill-opacity:0.55;}
	.st19{fill:url(#SVGID_00000071521975740150644460000016351407624638388887_);fill-opacity:0.55;}
	.st20{fill:url(#SVGID_00000023273895825806037480000008323610772779104191_);fill-opacity:0.55;}
	.st21{fill:url(#SVGID_00000034048867702175529450000014730885692499015837_);fill-opacity:0.55;}
	.st22{fill:url(#SVGID_00000171693433605379116470000012350449536209825955_);fill-opacity:0.55;}
	.st23{fill:url(#SVGID_00000116223995975141940450000004291498850974693802_);fill-opacity:0.55;}
	.st24{fill:url(#SVGID_00000068665006714801792910000005483331855416489404_);fill-opacity:0.55;}
	.st25{fill:url(#SVGID_00000140014630297976219260000017136088240065610651_);fill-opacity:0.55;}
	.st26{fill:url(#SVGID_00000174592004960790061070000017958368990873392001_);fill-opacity:0.55;}
	.st27{fill:url(#SVGID_00000121281895961497644220000008325651878010239667_);fill-opacity:0.55;}
	.st28{fill:url(#SVGID_00000039116937722137065980000010253017190305349508_);fill-opacity:0.55;}
	.st29{fill:url(#SVGID_00000026153163348231462230000004303259690176975288_);fill-opacity:0.55;}
	.st30{fill:url(#SVGID_00000022554385905294742550000003694680472989564819_);fill-opacity:0.55;}
	.st31{fill:url(#SVGID_00000183949569109141534230000006183334260456952741_);fill-opacity:0.55;}
	@keyframes move {
		from {
			transform: translateY(20px);
		}
		50% {
			transform: translateY(0);
		}
		to {
			transform: translateY(20px);
		}
	}
	.circle {
		animation: move 6s;
		animation-iteration-count: infinite;
	}
	.circle.c2 {
		animation: move 7s;
		animation-iteration-count: infinite;
	}
	.circle.c3 {
		animation: move 8s;
		animation-iteration-count: infinite;
	}
	.circle.c4 {
		animation: move 9s;
		animation-iteration-count: infinite;
	}
	.circle.c5 {
		animation: move 10s;
		animation-iteration-count: infinite;
	}
	.circle.c6 {
		animation: move 7s;
		animation-iteration-count: infinite;
	}
	.circle.c7 {
		animation: move 8s;
		animation-iteration-count: infinite;
	}
	.circle.c8 {
		animation: move 9s;
		animation-iteration-count: infinite;
	}
	.circle.c9 {
		animation: move 3s;
		animation-iteration-count: infinite;
	}
	.circle.c10 {
		animation: move 4s;
		animation-iteration-count: infinite;
	}
	.circle.c11 {
		animation: move 12s;
		animation-iteration-count: infinite;
	}
	.circle.c12 {
		animation: move 13s;
		animation-iteration-count: infinite;
	}
	.circle.c13 {
		animation: move 14s;
		animation-iteration-count: infinite;
	}
	.circle.c14 {
		animation: move 15s;
		animation-iteration-count: infinite;
	}
	.circle.c15 {
		animation: move 16s;
		animation-iteration-count: infinite;
	}
	.circle.c16 {
		animation: move 17s;
		animation-iteration-count: infinite;
	}
	.circle.c17 {
		animation: move 18s;
		animation-iteration-count: infinite;
	}
	.circle.c18 {
		animation: move 6s;
		animation-iteration-count: infinite;
	}
	.circle.c19 {
		animation: move 20s;
		animation-iteration-count: infinite;
	}
	.circle.c20 {
		animation: move 21s;
		animation-iteration-count: infinite;
	}
</style>
<g>
	<path class="st0" d="M328.3,590L471,507.7v-9.8l-142.7,82.3V590z"/>
	<path class="st1" d="M396.9,550.4l5.3-3.1v-5.5l-5.3,3.1V550.4z"/>
	<path class="st1" d="M385.3,557.1l5.3-3.1v-5.5l-5.3,3.1V557.1z"/>
	<path class="st1" d="M373.8,563.8l5.3-3.1v-5.5l-5.3,3.1V563.8z"/>
	<path class="st1" d="M362.2,570.5l5.3-3.1v-5.5l-5.3,3.1V570.5z"/>
	<path class="st1" d="M350.6,577.1l5.3-3.1v-5.5l-5.3,3.1V577.1z"/>
	<path class="st1" d="M339,583.8l5.3-3.1v-5.5l-5.3,3.1V583.8z"/>
	<path class="st1" d="M413.8,540.7l-5.3,3.1v-5.5l5.3-3.1V540.7z"/>
	<path class="st1" d="M425.4,534l-5.3,3.1v-5.5l5.3-3.1V534z"/>
	<path class="st1" d="M437,527.3l-5.3,3.1v-5.5l5.3-3.1V527.3z"/>
	<path class="st1" d="M448.6,520.6l-5.3,3.1v-5.6l5.3-3.1V520.6z"/>
	<path class="st1" d="M460.2,513.9l-5.3,3.1v-5.5l5.3-3.1V513.9z"/>
	<path class="st2" d="M328.3,590l-142.7-82.3v-9.8l142.7,82.3V590z"/>
	
		<radialGradient id="SVGID_1_" cx="-437.2148" cy="802.2318" r="1.0003" gradientTransform="matrix(116.488 0 0 -116.338 51258.4688 93827.9375)" gradientUnits="userSpaceOnUse">
		<stop  offset="0" style="stop-color:#01579B"/>
		<stop  offset="1" style="stop-color:#220C34"/>
	</radialGradient>
	<path class="st3" d="M470.9,497.9l-142.7-82.3l-142.7,82.3l142.7,82.3L470.9,497.9z"/>
	
		<radialGradient id="SVGID_00000004515096536101139510000008478923186142342329_" cx="-441.7227" cy="809.0958" r="1" gradientTransform="matrix(-610.328 0 0 612.413 -269284.4688 -494926.8438)" gradientUnits="userSpaceOnUse">
		<stop  offset="0" style="stop-color:#FFFFFF"/>
		<stop  offset="0.71" style="stop-color:#FFFFFF;stop-opacity:0"/>
	</radialGradient>
	<path style="opacity:0.55;fill:url(#SVGID_00000004515096536101139510000008478923186142342329_);enable-background:new    ;" d="
		M471,497.8l-142.4,82.5V144H593L471,497.8z"/>
	
		<radialGradient id="SVGID_00000001664723023525313510000012543384779658542764_" cx="-441.7167" cy="809.0958" r="1" gradientTransform="matrix(-615.352 0 0 612.413 -271766.75 -494926.8438)" gradientUnits="userSpaceOnUse">
		<stop  offset="0" style="stop-color:#FFFFFF"/>
		<stop  offset="0.71" style="stop-color:#FFFFFF;stop-opacity:0"/>
	</radialGradient>
	<path style="opacity:0.55;fill:url(#SVGID_00000001664723023525313510000012543384779658542764_);enable-background:new    ;" d="
		M185,497.8l143.6,82.5V144H62L185,497.8z"/>
	<path class="st6" d="M259.6,550.4l-5.3-3.1v-5.5l5.3,3.1V550.4z"/>
	<path class="st6" d="M271.2,557.1l-5.3-3.1v-5.5l5.3,3.1V557.1z"/>
	<path class="st6" d="M282.8,563.8l-5.3-3.1v-5.5l5.3,3.1V563.8z"/>
	<path class="st6" d="M294.4,570.5l-5.3-3.1v-5.5l5.3,3.1V570.5z"/>
	<path class="st6" d="M306,577.2l-5.3-3.1v-5.5l5.3,3.1V577.2z"/>
	<path class="st6" d="M317.5,583.8l-5.3-3.1v-5.5l5.3,3.1V583.8z"/>
	<path class="st6" d="M242.7,540.7l5.3,3.1v-5.5l-5.3-3.1V540.7z"/>
	<path class="st6" d="M231.1,534l5.3,3.1v-5.5l-5.3-3.1V534z"/>
	<path class="st6" d="M219.5,527.3l5.3,3.1v-5.5l-5.3-3.1V527.3z"/>
	<path class="st6" d="M207.9,520.6l5.3,3.1v-5.6l-5.3-3.1V520.6z"/>
	<path class="st6" d="M196.3,513.9l5.3,3.1v-5.5l-5.3-3.1V513.9z"/>
	<path class="st2" d="M295,89.5c0,0,27,15.8,26.6,15.5s1.2-3.1,1.6-2.8c0.3,0.2-27.7-13.6-27.7-13.6L295,89.5z"/>
	<path class="st7" d="M295.5,89.2c-0.1,0.2-0.4,0.4-0.5,0.3s-0.1-0.4,0-0.6s0.4-0.4,0.5-0.3S295.6,89,295.5,89.2z"/>
	<path class="st2" d="M296.3,89.1c0,0.6-0.5,1.1-1.1,1.1s-1.1-0.5-1.1-1.1s0.5-1.1,1.1-1.1S296.3,88.5,296.3,89.1z"/>
	<path class="st8" d="M336.5,112.2c-5.7,9.9-15,15.2-20.7,11.9c-5.7-3.3-5.7-14,0-23.8c5.7-9.9,15-15.2,20.7-11.9
		C342.2,91.6,342.2,102.3,336.5,112.2z"/>
	<path class="st2" d="M319.7,124.4c-1.3,0-2.5-0.3-3.5-0.9c-2.6-1.5-4-4.6-4-8.9s1.5-9.4,4.2-14.1c4.4-7.5,10.9-12.6,16.3-12.6
		c1.3,0,2.5,0.3,3.5,0.9c2.6,1.5,4,4.6,4,8.9s-1.5,9.4-4.2,14.1C331.6,119.4,325.1,124.4,319.7,124.4z"/>
	<path class="st7" d="M364,43.7c0,0-27,15.8-26.6,15.5s-1.2-3.1-1.6-2.8c-0.3,0.2,27.7-13.6,27.7-13.6L364,43.7z"/>
	<path class="st7" d="M363.5,43.4c0.1,0.2,0.4,0.4,0.5,0.3s0.1-0.4,0-0.6c-0.1-0.2-0.4-0.4-0.5-0.3
		C363.4,42.9,363.4,43.2,363.5,43.4z"/>
	<path class="st7" d="M362.7,43.3c0,0.6,0.5,1.1,1.1,1.1s1.1-0.5,1.1-1.1s-0.5-1.1-1.1-1.1S362.7,42.7,362.7,43.3z"/>
	<path class="st8" d="M322.5,66.4c5.7,9.9,15,15.2,20.7,11.9s5.7-14,0-23.8c-5.7-9.9-15-15.2-20.7-11.9
		C316.8,45.9,316.8,56.5,322.5,66.4z"/>
	<path class="st2" d="M339.3,78.6c1.3,0,2.5-0.3,3.5-0.9c2.6-1.5,4-4.6,4-8.9s-1.5-9.4-4.2-14.1c-4.4-7.5-10.9-12.6-16.3-12.6
		c-1.3,0-2.5,0.3-3.5,0.9c-2.6,1.5-4,4.6-4,8.9s1.5,9.4,4.2,14.1C327.4,73.6,333.9,78.6,339.3,78.6z"/>
	<path class="st8" d="M325,68.1c-2-1.1-5.2,0.7-7.1,4.1c-2,3.4-2,7.1,0,8.2l0.8,0.4c1.8,1,4.5-0.4,6.5-3.1c0.2-0.3,0.5-0.7,0.7-1
		c2-3.4,2-7.1,0-8.2L325,68.1z"/>
	<path class="st2" d="M325.8,68.7c-1.9-1.1-5,0.7-7,4c-1.9,3.3-1.9,6.9,0,8l4.5,2.6c1.7,1,4.4-0.3,6.3-3c0.2-0.3,0.4-0.7,0.7-1
		c1.9-3.3,1.9-6.9,0-8L325.8,68.7z"/>
	<path class="st7" d="M330.1,79.3c-1.9,3.2-4.9,5-6.8,3.9c-1.9-1.1-1.9-4.6,0-7.8s4.9-5,6.8-3.9S332,76,330.1,79.3z"/>
	<path class="st7" d="M297.4,115.2c-3.4-2-9,1.2-12.4,7.2c-3.4,5.9-3.4,12.4,0,14.3l1.3,0.8c3.1,1.8,7.8-0.6,11.3-5.4
		c0.4-0.6,0.8-1.2,1.2-1.8c3.4-5.9,3.4-12.4,0-14.3L297.4,115.2L297.4,115.2z"/>
	<path class="st2" d="M298.7,116.3c-3.4-1.9-8.8,1.2-12.2,7c-3.4,5.8-3.4,12.1,0,14l7.8,4.5c3,1.7,7.7-0.6,11-5.2
		c0.4-0.6,0.8-1.1,1.1-1.8c3.4-5.8,3.4-12.1,0-14L298.7,116.3L298.7,116.3z"/>
	<path class="st7" d="M306.3,134.7c-3.2,5.6-8.5,8.7-11.8,6.8c-3.2-1.9-3.2-8,0-13.6c3.2-5.6,8.5-8.7,11.8-6.8
		C309.6,123,309.6,129,306.3,134.7z"/>
	<path class="st7" d="M360,159.9c3.4-2,9,1.2,12.4,7.2c3.4,5.9,3.4,12.4,0,14.3l-1.3,0.8c-3.1,1.8-7.8-0.6-11.3-5.4
		c-0.4-0.6-0.8-1.2-1.2-1.8c-3.4-5.9-3.4-12.4,0-14.3L360,159.9L360,159.9z"/>
	<path class="st8" d="M358.6,161.1c3.4-1.9,8.8,1.2,12.2,7c3.4,5.8,3.4,12.1,0,14l-7.8,4.5c-3,1.7-7.7-0.6-11-5.2
		c-0.4-0.6-0.8-1.1-1.1-1.8c-3.4-5.8-3.4-12.1,0-14L358.6,161.1L358.6,161.1z"/>
	<path class="st2" d="M351,179.4c3.2,5.6,8.5,8.7,11.8,6.8c3.2-1.9,3.2-8,0-13.6s-8.5-8.7-11.8-6.8
		C347.8,167.7,347.8,173.8,351,179.4z"/>
	<path class="st7" d="M331,132.4c3.4-2,9,1.2,12.4,7.2c3.4,5.9,3.4,12.4,0,14.3l-1.3,0.8c-3.1,1.8-7.8-0.6-11.3-5.4
		c-0.4-0.6-0.8-1.2-1.2-1.8c-3.4-5.9-3.4-12.4,0-14.3L331,132.4L331,132.4z"/>
	<path class="st8" d="M329.6,133.6c3.4-1.9,8.8,1.2,12.2,7c3.4,5.8,3.4,12.1,0,14l-7.8,4.5c-3,1.7-7.7-0.6-11-5.2
		c-0.4-0.6-0.8-1.1-1.1-1.8c-3.4-5.8-3.4-12.1,0-14L329.6,133.6L329.6,133.6z"/>
	<path class="st2" d="M322,151.9c3.2,5.6,8.5,8.7,11.8,6.8c3.2-1.9,3.2-8,0-13.6c-3.2-5.6-8.5-8.7-11.8-6.8
		C318.8,140.2,318.8,146.3,322,151.9z"/>
	<path class="st0" d="M328.3,85.8l24.6,13.3l1.9-1.1l-26.5-14.4V85.8z"/>
	<path class="st8" d="M328.3,85.8l-24,13.9l-1.9-1.1l25.9-15V85.8z"/>
	<path class="st0" d="M328.3,81.6L359,98.1l-2.1,1.2l-30.5-16.6L328.3,81.6z"/>
	<path class="st0" d="M326.4,82.7l-26.1,14.8l2,1.2l25.9-15L326.4,82.7z"/>
	<path class="st8" d="M328.3,113.5l2.1-1.2V84.7l-2.1,1.2V113.5z"/>
	<path class="st0" d="M328.3,113.5l-2.1-1.2V84.5l2.1,1.2V113.5z"/>
	<path class="st8" d="M300.5,495.3l2.1-1.2V101.2l-2.1,0.5V495.3z"/>
	<path class="st7" d="M300.5,495.3l-2.1-1.2V98.6l2.1,1.2V495.3z"/>
	<path class="st0" d="M329.8,479.1l0.2-2l-28-9.7l-0.9,1.7L329.8,479.1z"/>
	<path class="st7" d="M302.2,468.8l28.7-43l-1.3-1.1l-28.7,43L302.2,468.8z"/>
	<path class="st0" d="M329.6,426.6l1.3-2.6l-28.7-9.9l-1.3,2.6L329.6,426.6z"/>
	<path class="st7" d="M302.2,415.9l28.7-43l-1.3-1.1l-28.7,43L302.2,415.9z"/>
	<path class="st0" d="M329.6,373.7l1.3-2.6l-28.7-9.9l-1.3,2.6L329.6,373.7z"/>
	<path class="st7" d="M302.2,363l28.7-43l-1.3-1.1l-28.7,43L302.2,363z"/>
	<path class="st0" d="M329.6,320.7l1.3-2.6l-28.7-9.9l-1.3,2.6L329.6,320.7z"/>
	<path class="st7" d="M302.2,310.1l28.7-43l-1.3-1.1l-28.7,43L302.2,310.1z"/>
	<path class="st0" d="M329.6,267.8l1.3-2.6l-28.7-9.9l-1.3,2.6L329.6,267.8z"/>
	<path class="st7" d="M302.2,257.2l28.7-43l-1.3-1.1l-28.7,43L302.2,257.2z"/>
	<path class="st0" d="M329.6,214.9l1.3-2.6l-28.7-9.9l-1.3,2.6L329.6,214.9z"/>
	<path class="st7" d="M302.2,204.3l28.7-43l-1.3-1.1l-28.7,43L302.2,204.3z"/>
	<path class="st0" d="M329.6,162l1.3-2.6l-28.7-9.9l-1.3,2.6L329.6,162z"/>
	<path class="st7" d="M302.2,151.3l28.7-43l-1.3-1.1l-28.7,43L302.2,151.3z"/>
	<path class="st8" d="M302.6,144.6l24.3-36.4l1.7,0.6l-26,38.9V144.6z"/>
	<path class="st8" d="M302.6,197.5l24.3-36.4l1.7,0.6l-26,38.9V197.5z"/>
	<path class="st8" d="M302.6,250.4l24.3-36.4l1.7,0.6l-26,38.9V250.4z"/>
	<path class="st8" d="M302.6,303.3l24.3-36.4l1.7,0.6l-26,38.9V303.3z"/>
	<path class="st8" d="M302.6,356.3l24.3-36.4l1.7,0.6l-26,38.9V356.3z"/>
	<path class="st8" d="M302.6,409.2l24.3-36.4l1.7,0.6l-26,38.9V409.2z"/>
	<path class="st8" d="M302.6,462.1l24.3-36.4l1.7,0.6l-26,38.9V462.1z"/>
	<path class="st0" d="M329.6,109.1l1.3-2.6l-24-8.3l-6,1L329.6,109.1z"/>
	<path class="st2" d="M328.5,426.6l26.4,15v-2.1l-26.4-15V426.6z"/>
	<path class="st0" d="M330.3,423.4l24.5,13.9v2.1l-26.4-15L330.3,423.4z"/>
	<path class="st2" d="M328.5,373.6l26.4,15v-2.1l-26.4-15V373.6z"/>
	<path class="st0" d="M330.3,370.4l24.5,13.9v2.1l-26.4-15L330.3,370.4z"/>
	<path class="st2" d="M328.5,320.5l26.4,15v-2.1l-26.4-15V320.5z"/>
	<path class="st0" d="M330.3,317.3l24.5,13.9v2.1l-26.4-15L330.3,317.3z"/>
	<path class="st2" d="M328.5,267.5l26.4,15v-2.1l-26.4-15V267.5z"/>
	<path class="st0" d="M330.3,264.3l24.5,13.9v2.1l-26.4-15L330.3,264.3z"/>
	<path class="st2" d="M328.5,214.4l26.4,15v-2.1l-26.4-15V214.4z"/>
	<path class="st0" d="M330.3,211.2l24.5,13.9v2.1l-26.4-15L330.3,211.2z"/>
	<path class="st2" d="M328.5,108.3l26.4,15v-2.1l-26.4-15V108.3z"/>
	<path class="st0" d="M330.3,105.1l24.5,13.9v2.1l-26.4-15L330.3,105.1z"/>
	<path class="st2" d="M328.5,161.1l26.4,15V174l-26.4-15V161.1z"/>
	<path class="st8" d="M330.3,157.9l24.5,13.9v2.1l-26.4-15L330.3,157.9z"/>
	<path class="st9" d="M357,494.8l2.1-1.2L359,98.1l-2.1,1.2L357,494.8z"/>
	<path class="st8" d="M356.9,494.8l-2.1-1.2V98.1l2.1,1.2V494.8z"/>
	<path class="st9" d="M328.3,511.3l2.1-1.2V36.4l-2.1,1.1V511.3z"/>
	<path class="st9" d="M326.2,36.3l2.1-1.1l2,1.2l-2.1,1.1L326.2,36.3z"/>
	<path class="st7" d="M328.3,511.3l-2.1-1.2V36.3l2.1,1.2V511.3z"/>
	<path class="st9" d="M357,494.8v-2l-27.2-9.4l-0.9,1.7L357,494.8z"/>
	<path class="st9" d="M330,484.8l28.7-43l-1.3-1.1l-28.7,43L330,484.8z"/>
	<path class="st9" d="M357.3,442.6l1.3-2.6l-28.7-9.9l-1.3,2.6L357.3,442.6z"/>
	<path class="st9" d="M330,431.9l28.7-43l-1.3-1.1l-28.7,43L330,431.9z"/>
	<path class="st9" d="M357.3,389.7l1.3-2.6l-28.6-10l-1.3,2.6L357.3,389.7z"/>
	<path class="st9" d="M330,379l28.7-43l-1.3-1.1l-28.7,43L330,379z"/>
	<path class="st9" d="M357.3,336.7l1.3-2.6l-28.7-9.9l-1.3,2.6L357.3,336.7z"/>
	<path class="st9" d="M330,326.1l28.7-43l-1.3-1.1l-28.7,43L330,326.1z"/>
	<path class="st9" d="M357.3,283.8l1.3-2.6l-28.7-9.9l-1.3,2.6L357.3,283.8z"/>
	<path class="st9" d="M330,273.2l28.7-43l-1.3-1.1l-28.7,43L330,273.2z"/>
	<path class="st9" d="M357.3,230.9l1.3-2.6l-28.7-9.9l-1.3,2.6L357.3,230.9z"/>
	<path class="st9" d="M330,220.2l28.7-43l-1.3-1.1l-28.7,43L330,220.2z"/>
	<path class="st9" d="M357.3,178l1.3-2.6l-28.7-9.9l-1.3,2.6L357.3,178z"/>
	<path class="st9" d="M330,167.3l28.7-43l-1.3-1.1l-28.7,43L330,167.3z"/>
	<path class="st7" d="M330.3,160.6l24.3-36.4l1.7,0.6l-26,38.9V160.6z"/>
	<path class="st7" d="M330.3,213.5l24.3-36.4l1.7,0.6l-26,38.9V213.5z"/>
	<path class="st7" d="M330.3,266.4l24.3-36.4l1.7,0.6l-26,38.9V266.4z"/>
	<path class="st7" d="M330.3,319.3l24.3-36.4l1.7,0.6l-26,38.9V319.3z"/>
	<path class="st7" d="M330.3,372.2l24.3-36.4l1.7,0.6l-26,38.9V372.2z"/>
	<path class="st7" d="M330.3,425.2l24.3-36.4l1.7,0.6l-26,38.9V425.2z"/>
	<path class="st7" d="M330.3,478.1l24.3-36.4l1.7,0.6l-26,38.9V478.1z"/>
	<path class="st9" d="M357.3,125.1l1.3-2.6l-27.7-9.6l-2.3,2.3L357.3,125.1z"/>
	<path class="st9" d="M332.2,115.9l24.8-14.3v-2.4l-26.6,15.4v0.6L332.2,115.9z"/>
	<path class="st0" d="M328.3,113.3L354.9,98l2.1,1.2l-28.7,16.5V113.3z"/>
	<path class="st7" d="M300.5,470.2l25.7,14.8v-2.1l-25.7-14.8V470.2z"/>
	<path class="st0" d="M302.4,467l23.8,13.7v2.1l-25.7-14.7L302.4,467z"/>
	<path class="st7" d="M300.5,417.2l25.7,14.8v-2.1l-25.7-14.8V417.2z"/>
	<path class="st0" d="M302.4,414l23.8,13.7v2.1l-25.7-14.7L302.4,414z"/>
	<path class="st7" d="M300.5,364.2l25.7,14.8v-2.1l-25.7-14.8V364.2z"/>
	<path class="st0" d="M302.4,361l23.8,13.7v2.1l-25.7-14.7L302.4,361z"/>
	<path class="st7" d="M300.5,311.3l25.7,14.8V324l-25.7-14.9V311.3z"/>
	<path class="st0" d="M302.4,308.1l23.8,13.7v2.1l-25.7-14.8L302.4,308.1z"/>
	<path class="st8" d="M300.5,258.3l25.7,14.8V271l-25.7-14.9V258.3z"/>
	<path class="st7" d="M300.5,205.3l25.7,14.8V218l-25.7-14.8V205.3z"/>
	<path class="st0" d="M302.4,202.1l23.8,13.7v2.1l-25.7-14.8L302.4,202.1z"/>
	<path class="st7" d="M300.5,152.3l25.7,14.8V165l-25.7-14.8V152.3z"/>
	<path class="st0" d="M302.4,149.1l23.8,13.7v2.1l-25.7-14.8L302.4,149.1z"/>
	<path class="st7" d="M300.5,101.9l25.7,14.8v-2.1l-25.7-14.8V101.9z"/>
	<path class="st0" d="M300.3,97.5l27.9,15.8v2.4l-29.8-17.2L300.3,97.5z"/>
	<path class="st7" d="M296.5,228.2l30.8,17.7v1.5l-30.8-17.8V228.2z"/>
	<path class="st0" d="M327.3,245.9l1.1-0.7l-30.8-17.7l-1.2,0.7L327.3,245.9z"/>
	<path class="st2" d="M328.4,245.3v1.6l-1.1,0.6V246L328.4,245.3z"/>
	<path class="st7" d="M296.5,257.3l30.8,17.8v1.5l-30.8-17.7V257.3z"/>
	<path class="st0" d="M327.3,275l1.1-0.7l-30.8-17.7l-1.2,0.7L327.3,275z"/>
	<path class="st2" d="M328.4,274.4v1.6l-1.1,0.6v-1.5L328.4,274.4z"/>
	<path class="st9" d="M312.4,237.4l-15,8.6v1.5l15-8.6V237.4z"/>
	<path class="st10" d="M297.4,246l-1.2-0.7v1.5l1.2,0.7V246z"/>
	<path class="st0" d="M297.4,246l-1.2-0.7l15-8.6l1.2,0.7L297.4,246z"/>
	<path class="st9" d="M312.4,266.5l-15,8.6v1.5l15-8.6V266.5z"/>
	<path class="st10" d="M297.4,275.1l-1.2-0.7v1.5l1.2,0.7V275.1z"/>
	<path class="st0" d="M297.4,275.1l-1.2-0.7l15-8.6l1.2,0.7L297.4,275.1z"/>
	<path class="st7" d="M300.4,232.3l-4.1,2.4v50.1l4.1-2.4V232.3z"/>
	<path class="st9" d="M296.3,234.7l-4.8-2.8V282l4.8,2.8V234.7z"/>
	<path class="st0" d="M296.3,234.7l-4.8-2.8l4.1-2.4l4.8,2.8L296.3,234.7z"/>
	<path class="st8" d="M292.9,203.8c3.3-1.9,8.6,1.2,11.9,6.8c3.3,5.7,3.3,11.8,0,13.7l-7.6,4.4c-2.9,1.7-7.5-0.6-10.7-5.1
		c-0.4-0.5-0.8-1.1-1.1-1.7c-3.3-5.7-3.3-11.8,0-13.7L292.9,203.8L292.9,203.8z"/>
	<path class="st7" d="M286.4,207.3c3.3-1.9,8.8,1.2,12.1,7c3.3,5.8,3.3,12,0,14l-1.3,0.8c-3,1.7-7.6-0.6-11-5.2
		c-0.4-0.6-0.8-1.1-1.1-1.8c-3.3-5.8-3.3-12,0-14L286.4,207.3z"/>
	<path class="st7" d="M285.1,222c3.3,5.8,8.8,8.9,12.1,7c3.3-1.9,3.3-8.2,0-14s-8.8-8.9-12.1-7C281.7,209.9,281.7,216.2,285.1,222z"
		/>
	<path class="st9" d="M295,229.2c0.8,0,1.4-0.2,2-0.5c3.2-1.8,3.1-7.9-0.1-13.5c-2.5-4.4-6.4-7.4-9.6-7.4c-0.8,0-1.4,0.2-2,0.5
		c-1.5,0.9-2.3,2.7-2.3,5.2s0.9,5.5,2.5,8.2C288,226.2,291.8,229.2,295,229.2L295,229.2z"/>
	<path class="st2" d="M294.4,93c3.1-1.8,8.2,1.1,11.4,6.6c3.1,5.4,3.1,11.3,0,13.1l-7.3,4.2c-2.8,1.6-7.2-0.6-10.3-4.9
		c-0.4-0.5-0.7-1.1-1.1-1.6c-3.1-5.4-3.1-11.3,0-13.1L294.4,93L294.4,93z"/>
	<path class="st8" d="M288.1,96.4c3.2-1.9,8.4,1.2,11.6,6.7s3.2,11.5,0,13.4l-1.2,0.7c-2.9,1.6-7.3-0.6-10.5-5
		c-0.4-0.5-0.8-1.1-1.1-1.7c-3.2-5.5-3.2-11.5,0-13.4L288.1,96.4z"/>
	<path class="st7" d="M286.9,110.5c3.2,5.5,8.4,8.5,11.6,6.7c3.2-1.9,3.2-7.8,0-13.4c-3.2-5.5-8.4-8.5-11.6-6.7
		C283.7,98.9,283.7,104.9,286.9,110.5z"/>
	<path class="st7" d="M296.4,117.3c0.7,0,1.4-0.2,2-0.5c3-1.7,3-7.5-0.1-12.9c-2.4-4.2-6.1-7.1-9.2-7.1c-0.7,0-1.4,0.2-2,0.5
		c-1.4,0.8-2.2,2.6-2.2,5s0.8,5.3,2.4,7.9C289.7,114.5,293.3,117.3,296.4,117.3z"/>
	<path class="st8" d="M356.9,140.2l15,8.6v1.5l-15-8.6V140.2z"/>
	<path class="st10" d="M371.9,148.8l1.2-0.7v1.5l-1.2,0.7V148.8z"/>
	<path class="st0" d="M371.9,148.8l1.2-0.7l-15-8.6l-1.2,0.7L371.9,148.8z"/>
	<path class="st8" d="M356.9,174.1l15,8.6v1.5l-15-8.6V174.1z"/>
	<path class="st10" d="M371.9,182.7l1.2-0.7v1.5l-1.2,0.7V182.7z"/>
	<path class="st0" d="M371.9,182.7l1.2-0.7l-15-8.6l-1.2,0.7L371.9,182.7z"/>
	<path class="st7" d="M369,129.4l4.1,2.3v65.4l-4.1-2.4V129.4z"/>
	<path class="st9" d="M373,131.8l9.6-5.5v65.4l-9.6,5.5V131.8z"/>
	<path class="st0" d="M373,131.8l9.6-5.5l-4.1-2.3l-9.6,5.5L373,131.8z"/>
	<path class="st7" d="M328.6,156.5l15,8.6v1.5l-15-8.6V156.5z"/>
	<path class="st10" d="M343.6,165.2l1.2-0.7v1.5l-1.2,0.7V165.2z"/>
	<path class="st0" d="M343.6,165.2l1.2-0.7l-15-8.6l-1.2,0.7L343.6,165.2z"/>
	<path class="st7" d="M328.6,190.4l15,8.6v1.5l-15-8.6V190.4z"/>
	<path class="st10" d="M343.6,199.1l1.2-0.7v1.5l-1.2,0.7V199.1z"/>
	<path class="st0" d="M343.6,199.1l1.2-0.7l-15-8.6l-1.2,0.7L343.6,199.1z"/>
	<path class="st7" d="M340.6,145.8l4.1,2.3v65.4l-4.1-2.4V145.8z"/>
	<path class="st9" d="M344.7,148.1l9.6-5.5V208l-9.6,5.5V148.1z"/>
	<path class="st0" d="M344.7,148.1l9.6-5.5l-4.1-2.3l-9.6,5.5L344.7,148.1z"/>
	<path class="st7" d="M369,147.1l-14.7,8.5v1.5l14.7-8.4V147.1z"/>
	<path class="st0" d="M354.3,155.6v-1.3l13.5-7.8l1.2,0.7L354.3,155.6z"/>
	<path class="st7" d="M369,181l-14.7,8.5v1.5l14.7-8.5V181z"/>
	<path class="st0" d="M354.3,189.5v-1.3l13.5-7.8l1.2,0.7L354.3,189.5z"/>
	<path class="st9" d="M299.6,140.2l-15,8.6v1.5l15-8.6V140.2z"/>
	<path class="st10" d="M284.6,148.8l-1.2-0.7v1.5l1.2,0.7V148.8z"/>
	<path class="st0" d="M284.6,148.8l-1.2-0.7l15-8.6l1.2,0.7L284.6,148.8z"/>
	<path class="st9" d="M299.6,174.1l-15,8.6v1.5l15-8.6V174.1z"/>
	<path class="st10" d="M284.6,182.7l-1.2-0.7v1.5l1.2,0.7V182.7z"/>
	<path class="st0" d="M284.6,182.7l-1.2-0.7l15-8.6l1.2,0.7L284.6,182.7z"/>
	<path class="st9" d="M287.6,129.4l-4.1,2.3v65.4l4.1-2.4V129.4z"/>
	<path class="st7" d="M283.5,131.8l-9.6-5.5v65.4l9.6,5.5V131.8z"/>
	<path class="st0" d="M283.5,131.8l-9.6-5.5l4.1-2.3l9.6,5.5L283.5,131.8z"/>
	<path class="st9" d="M327.9,156.5l-15,8.6v1.5l15-8.6V156.5z"/>
	<path class="st10" d="M313,165.2l-1.2-0.7v1.5l1.2,0.7V165.2z"/>
	<path class="st0" d="M313,165.2l-1.2-0.7l15-8.6l1.2,0.7L313,165.2z"/>
	<path class="st9" d="M327.9,190.4l-15,8.6v1.5l15-8.6V190.4z"/>
	<path class="st10" d="M313,199.1l-1.2-0.7v1.5l1.2,0.7V199.1z"/>
	<path class="st0" d="M313,199.1l-1.2-0.7l15-8.6l1.2,0.7L313,199.1z"/>
	<path class="st9" d="M315.9,145.8l-4.1,2.3v65.4l4.1-2.4V145.8z"/>
	<path class="st7" d="M311.8,148.1l-9.6-5.5V208l9.6,5.5V148.1z"/>
	<path class="st0" d="M311.8,148.1l-9.6-5.5l4.1-2.3l9.6,5.5L311.8,148.1z"/>
	<path class="st2" d="M287.6,147.1l14.7,8.5v1.5l-14.7-8.4V147.1z"/>
	<path class="st0" d="M302.2,155.6v-1.3l-13.5-7.8l-1.2,0.7L302.2,155.6z"/>
	<path class="st2" d="M287.6,181l14.7,8.5v1.5l-14.7-8.5V181z"/>
	<path class="st0" d="M302.2,189.5v-1.3l-13.5-7.8l-1.2,0.7L302.2,189.5z"/>
	<path class="st7" d="M360.2,228.2l-30.8,17.7v1.5l30.8-17.8V228.2z"/>
	<path class="st0" d="M329.4,245.9l-1.1-0.7l30.8-17.7l1.2,0.7L329.4,245.9z"/>
	<path class="st2" d="M328.3,245.3v1.6l1.1,0.6V246L328.3,245.3z"/>
	<path class="st7" d="M360.2,257.3l-30.8,17.8v1.5l30.8-17.7L360.2,257.3L360.2,257.3z"/>
	<path class="st0" d="M329.4,275l-1.1-0.7l30.8-17.7l1.2,0.7L329.4,275z"/>
	<path class="st2" d="M328.3,274.4v1.6l1.1,0.6v-1.5L328.3,274.4z"/>
	<path class="st7" d="M344.3,237.4l15,8.6v1.5l-15-8.6V237.4z"/>
	<path class="st10" d="M359.3,246l1.2-0.7v1.5l-1.2,0.7V246z"/>
	<path class="st0" d="M359.3,246l1.2-0.7l-15-8.6l-1.2,0.7L359.3,246z"/>
	<path class="st7" d="M344.3,266.5l15,8.6v1.5l-15-8.6V266.5z"/>
	<path class="st10" d="M359.3,275.1l1.2-0.7v1.5l-1.2,0.7V275.1z"/>
	<path class="st0" d="M359.3,275.1l1.2-0.7l-15-8.6l-1.2,0.7L359.3,275.1z"/>
	<path class="st7" d="M356.3,232.3l4.1,2.3v50.1l-4.1-2.4V232.3z"/>
	<path class="st9" d="M360.4,234.7l4.8-2.8V282l-4.8,2.8V234.7z"/>
	<path class="st0" d="M360.4,234.7l4.8-2.8l-4.1-2.4l-4.8,2.8L360.4,234.7z"/>
	<path class="st8" d="M361.1,208.5c-1.7-1-4.4,0.6-6,3.5c-1.7,2.9-1.7,6,0,7l3.9,2.2c1.5,0.9,3.8-0.3,5.5-2.6
		c0.2-0.3,0.4-0.6,0.6-0.9c1.7-2.9,1.7-6,0-7L361.1,208.5z"/>
	<path class="st7" d="M364.4,210.3c-1.7-1-4.5,0.6-6.2,3.6c-1.7,2.9-1.7,6.1,0,7.1l0.7,0.4c1.5,0.9,3.9-0.3,5.6-2.7
		c0.2-0.3,0.4-0.6,0.6-0.9c1.7-3,1.7-6.1,0-7.1L364.4,210.3z"/>
	<path class="st7" d="M365,217.8c-1.7,2.9-4.5,4.5-6.2,3.6c-1.7-1-1.7-4.2,0-7.1c1.7-2.9,4.5-4.5,6.2-3.6
		C366.8,211.7,366.8,214.8,365,217.8z"/>
	<path class="st9" d="M360,221.4c-0.4,0-0.7-0.1-1-0.3c-1.6-0.9-1.6-4,0.1-6.9c1.3-2.2,3.2-3.8,4.9-3.8c0.4,0,0.7,0.1,1,0.3
		c0.8,0.4,1.2,1.4,1.2,2.7s-0.4,2.8-1.2,4.2C363.6,219.9,361.6,221.4,360,221.4z"/>
	<path class="st2" d="M361.5,112.1c-2.4-1.4-6.2,0.8-8.6,4.9s-2.4,8.5,0,9.9l5.5,3.2c2.1,1.2,5.4-0.4,7.8-3.7
		c0.3-0.4,0.5-0.8,0.8-1.2c2.4-4.1,2.4-8.5,0-9.9L361.5,112.1L361.5,112.1z"/>
	<path class="st7" d="M366.2,114.6c-2.4-1.4-6.4,0.9-8.8,5.1s-2.4,8.7,0,10.1l0.9,0.5c2.2,1.2,5.5-0.4,8-3.8
		c0.3-0.4,0.6-0.8,0.8-1.3c2.4-4.2,2.4-8.7,0-10.1L366.2,114.6z"/>
	<path class="st7" d="M367.1,125.2c-2.4,4.2-6.4,6.5-8.8,5.1s-2.4-5.9,0-10.1s6.4-6.5,8.8-5.1C369.6,116.5,369.6,121,367.1,125.2z"
		/>
	<path class="st9" d="M360,130.4c-0.5,0-1-0.1-1.5-0.4c-2.3-1.3-2.2-5.7,0.1-9.8c1.8-3.2,4.6-5.3,6.9-5.3c0.5,0,1,0.1,1.5,0.4
		c1.1,0.6,1.7,2,1.7,3.8s-0.6,4-1.8,6C365.1,128.3,362.3,130.4,360,130.4L360,130.4z"/>
	<path class="st8" d="M332.7,50.8c-1.5-0.8-3.8,0.5-5.3,3s-1.5,5.2,0,6.1l3.4,2c1.3,0.8,3.3-0.3,4.8-2.3c0.2-0.2,0.3-0.5,0.5-0.8
		c1.5-2.5,1.5-5.2,0-6.1L332.7,50.8L332.7,50.8z"/>
	<path class="st7" d="M335.6,52.3c-1.5-0.9-3.9,0.5-5.4,3.1c-1.5,2.6-1.5,5.4,0,6.2l0.6,0.3c1.3,0.8,3.4-0.3,4.9-2.3
		c0.2-0.2,0.4-0.5,0.5-0.8c1.5-2.6,1.5-5.4,0-6.2L335.6,52.3L335.6,52.3z"/>
	<path class="st7" d="M336.2,58.8c-1.5,2.6-3.9,4-5.4,3.1s-1.5-3.6,0-6.2s3.9-4,5.4-3.1S337.7,56.3,336.2,58.8z"/>
	<path class="st9" d="M331.8,62c-0.3,0-0.6-0.1-0.9-0.2c-1.4-0.8-1.4-3.5,0.1-6c1.1-2,2.9-3.3,4.3-3.3c0.3,0,0.6,0.1,0.9,0.2
		c0.7,0.4,1,1.2,1,2.3s-0.4,2.4-1.1,3.7C334.9,60.7,333.2,62,331.8,62L331.8,62z"/>
	<path class="st8" d="M335.8,234.4c-3.1-1.8-8.2,1.1-11.4,6.6c-3.1,5.4-3.1,11.3,0,13.1l7.3,4.2c2.8,1.6,7.2-0.6,10.3-4.9
		c0.4-0.5,0.7-1.1,1.1-1.6c3.1-5.4,3.1-11.3,0-13.1L335.8,234.4L335.8,234.4z"/>
	<path class="st7" d="M342,237.7c-3.2-1.9-8.4,1.2-11.6,6.7s-3.2,11.5,0,13.4l1.2,0.7c2.9,1.6,7.3-0.6,10.5-5
		c0.4-0.5,0.8-1.1,1.1-1.7c3.2-5.5,3.2-11.5,0-13.4L342,237.7L342,237.7z"/>
	<path class="st7" d="M343.3,251.8c-3.2,5.5-8.4,8.5-11.6,6.7c-3.2-1.9-3.2-7.8,0-13.4c3.2-5.5,8.4-8.5,11.6-6.7
		C346.5,240.3,346.5,246.3,343.3,251.8z"/>
	<path class="st9" d="M333.8,258.7c-0.7,0-1.4-0.2-2-0.5c-3-1.7-3-7.5,0.1-12.9c2.4-4.2,6.1-7.1,9.2-7.1c0.7,0,1.4,0.2,2,0.5
		c1.4,0.8,2.2,2.6,2.2,5s-0.8,5.3-2.4,7.9C340.5,255.8,336.8,258.7,333.8,258.7z"/>
	<path class="st8" d="M335.8,262.3c-3.1-1.8-8.2,1.1-11.4,6.6c-3.1,5.4-3.1,11.3,0,13.1l7.3,4.2c2.8,1.6,7.2-0.6,10.3-4.9
		c0.4-0.5,0.7-1.1,1.1-1.6c3.1-5.4,3.1-11.3,0-13.1L335.8,262.3L335.8,262.3z"/>
	<path class="st7" d="M342,265.6c-3.2-1.9-8.4,1.2-11.6,6.7s-3.2,11.5,0,13.4l1.2,0.7c2.9,1.6,7.3-0.6,10.5-5
		c0.4-0.5,0.8-1.1,1.1-1.7c3.2-5.5,3.2-11.5,0-13.4L342,265.6L342,265.6z"/>
	<path class="st7" d="M343.3,279.7c-3.2,5.5-8.4,8.5-11.6,6.7c-3.2-1.9-3.2-7.8,0-13.4c3.2-5.5,8.4-8.5,11.6-6.7
		C346.5,268.2,346.5,274.2,343.3,279.7z"/>
	<path class="st9" d="M333.8,286.6c-0.7,0-1.4-0.2-2-0.5c-3-1.7-3-7.5,0.1-12.9c2.4-4.2,6.1-7.1,9.2-7.1c0.7,0,1.4,0.2,2,0.5
		c1.4,0.8,2.2,2.6,2.2,5s-0.8,5.3-2.4,7.9C340.5,283.8,336.8,286.6,333.8,286.6z"/>
	<path class="st8" d="M343.8,61.9c-5.7-1.2-15,2-20.7,11.9s-3.8,18.5,0,23.8l2.2,1.3c5.1,2.9,13-1,18.7-8.9c0.7-0.9,1.3-2,1.9-3
		c5.7-9.9,5.7-20.5,0-23.8L343.8,61.9z"/>
	<path class="st8" d="M346,87.1c-5.7,9.9-15,15.2-20.7,11.9c-5.7-3.3-5.7-14,0-23.8c5.7-9.9,15-15.2,20.7-11.9
		C351.7,66.5,351.7,77.2,346,87.1z"/>
	<path class="st9" d="M329.1,99.3c-1.3,0-2.5-0.3-3.5-0.9c-2.6-1.5-4-4.6-4-8.9s1.5-9.4,4.2-14.1c4.4-7.5,10.9-12.6,16.3-12.6
		c1.3,0,2.5,0.3,3.5,0.9c2.6,1.5,4,4.6,4,8.9s-1.5,9.4-4.2,14.1C341.1,94.3,334.6,99.3,329.1,99.3L329.1,99.3z"/>
	<path class="st7" d="M357.3,93.8c0,0-25.9-13.6-26.3-13.9c-0.4-0.3-0.4-1.1,0-1.9s1.2-1.2,1.6-0.9c0.3,0.2,25.2,15.8,25.2,15.8
		L357.3,93.8L357.3,93.8z"/>
	<path class="st9" d="M357.8,93.5c-0.1,0.2-0.4,0.4-0.5,0.3s-0.1-0.4,0-0.6s0.4-0.4,0.5-0.3C358,93,358,93.3,357.8,93.5z"/>
	<path class="st7" d="M339.3,63.3l18.1,29.4h-0.6l-18.1-29.1L339.3,63.3z"/>
	<path class="st7" d="M356,92.3l-8.5-8.6l0.3-0.5l9.5,9.7L356,92.3z"/>
	<path class="st7" d="M357,93.6l-32.4,4.3l-0.5-0.6l32.9-4.2V93.6z"/>
	<path class="st8" d="M358.6,93.3c0,0.6-0.5,1.1-1.1,1.1s-1.1-0.5-1.1-1.1s0.5-1.1,1.1-1.1C358.2,92.3,358.6,92.8,358.6,93.3z"/>
	<path class="st8" d="M317.8,25.2c3.6-0.7,9.4,1.3,12.9,7.5c3.6,6.2,2.4,11.6,0,14.9l-1.4,0.8c-3.2,1.8-8.2-0.6-11.7-5.6
		c-0.4-0.6-0.8-1.2-1.2-1.9c-3.6-6.2-3.6-12.9,0-14.9L317.8,25.2L317.8,25.2z"/>
	<path class="st8" d="M316.4,41c3.6,6.2,9.4,9.5,12.9,7.5c3.6-2.1,3.6-8.7,0-14.9s-9.4-9.5-12.9-7.5C312.8,28.1,312.8,34.8,316.4,41
		z"/>
	<path class="st9" d="M327,48.6c0.8,0,1.5-0.2,2.2-0.6c1.6-0.9,2.5-2.9,2.5-5.6s-0.9-5.9-2.6-8.8c-2.7-4.7-6.8-7.9-10.2-7.9
		c-0.8,0-1.5,0.2-2.2,0.6c-1.6,0.9-2.5,2.9-2.5,5.6s0.9,5.9,2.6,8.8C319.5,45.5,323.6,48.6,327,48.6L327,48.6z"/>
	<path class="st8" d="M309.3,45.2c0,0,16.2-8.5,16.5-8.7c0.3-0.2,0.3-0.7,0-1.2s-0.7-0.8-1-0.6c-0.2,0.1-15.8,9.9-15.8,9.9
		L309.3,45.2z"/>
	<path class="st9" d="M309,45c0.1,0.2,0.2,0.2,0.3,0.2c0.1,0,0.1-0.2,0-0.4s-0.2-0.2-0.3-0.2C308.9,44.7,308.9,44.9,309,45z"/>
	<path class="st8" d="M320.6,26.1l-11.3,18.4h0.4L321,26.2L320.6,26.1z"/>
	<path class="st8" d="M310.1,44.3l5.3-5.4l-0.2-0.3l-5.9,6.1L310.1,44.3z"/>
	<path class="st8" d="M309.5,45.1l20.3,2.7l0.3-0.4l-20.6-2.6L309.5,45.1L309.5,45.1z"/>
	<path class="st8" d="M309.2,45.6c0.4,0,0.7-0.3,0.7-0.7s-0.3-0.7-0.7-0.7c-0.4,0-0.7,0.3-0.7,0.7S308.8,45.6,309.2,45.6z"/>

	<g class="circle">
		<circle class="st11" cx="539.4" cy="252" r="26.6"/>
		
			<radialGradient id="SVGID_00000152222432285578591030000005651921242694914953_" cx="-415.7896" cy="824.5668" r="0.9992" gradientTransform="matrix(1.630023e-15 26.6203 26.6203 -1.630023e-15 -21410.8145 11320.4424)" gradientUnits="userSpaceOnUse">
			<stop  offset="0" style="stop-color:#FFFFFF"/>
			<stop  offset="1" style="stop-color:#FFFFFF;stop-opacity:0"/>
		</radialGradient>
		
			<circle style="fill:url(#SVGID_00000152222432285578591030000005651921242694914953_);fill-opacity:0.55;" cx="539.4" cy="252" r="26.6"/>
	</g>

	<g class="circle c2">
		<circle class="st11" cx="597.3" cy="159.4" r="10.4"/>
		
			<radialGradient id="SVGID_00000018959448860906602180000004660764689492673669_" cx="-376.5743" cy="765.6642" r="1.0003" gradientTransform="matrix(-6.378389e-16 10.4167 -10.4167 -6.378389e-16 8572.9541 4082.0615)" gradientUnits="userSpaceOnUse">
			<stop  offset="0" style="stop-color:#FFFFFF"/>
			<stop  offset="1" style="stop-color:#FFFFFF;stop-opacity:0"/>
		</radialGradient>
		
			<circle style="fill:url(#SVGID_00000018959448860906602180000004660764689492673669_);fill-opacity:0.55;" cx="597.3" cy="159.4" r="10.4"/>
	</g>

	<g class="circle c3">
		<circle class="st11" cx="546.2" cy="51.3" r="6.9"/>
		
			<radialGradient id="SVGID_00000150078686970503553790000002368905367813944757_" cx="-343.6377" cy="744.0203" r="0.9998" gradientTransform="matrix(-4.220641e-16 6.8928 -6.8928 -4.220641e-16 5674.5581 2419.9688)" gradientUnits="userSpaceOnUse">
			<stop  offset="0" style="stop-color:#FFFFFF"/>
			<stop  offset="1" style="stop-color:#FFFFFF;stop-opacity:0"/>
		</radialGradient>
		
			<circle style="fill:url(#SVGID_00000150078686970503553790000002368905367813944757_);fill-opacity:0.55;" cx="546.2" cy="51.3" r="6.9"/>
	</g>

	<g class="circle c4">
		<circle class="st11" cx="562.5" cy="77.6" r="3.5"/>
		
			<radialGradient id="SVGID_00000108280055793506693450000008168540203300064408_" cx="-249.2572" cy="682" r="1" gradientTransform="matrix(-2.143132e-16 3.5 -3.5 -2.143132e-16 2949.5 950)" gradientUnits="userSpaceOnUse">
			<stop  offset="0" style="stop-color:#FFFFFF"/>
			<stop  offset="1" style="stop-color:#FFFFFF;stop-opacity:0"/>
		</radialGradient>
		
			<circle style="fill:url(#SVGID_00000108280055793506693450000008168540203300064408_);fill-opacity:0.55;" cx="562.5" cy="77.6" r="3.5"/>
	</g>

	<g class="circle c5">
		<circle class="st11" cx="725.5" cy="77.3" r="3.5"/>
		
			<radialGradient id="SVGID_00000046321339175133263500000007277528827897486982_" cx="-249.2571" cy="682" r="1.0005" gradientTransform="matrix(-2.143132e-16 3.5 -3.5 -2.143132e-16 3112.4561 949.6533)" gradientUnits="userSpaceOnUse">
			<stop  offset="0" style="stop-color:#FFFFFF"/>
			<stop  offset="1" style="stop-color:#FFFFFF;stop-opacity:0"/>
		</radialGradient>
		
			<circle style="fill:url(#SVGID_00000046321339175133263500000007277528827897486982_);fill-opacity:0.55;" cx="725.5" cy="77.3" r="3.5"/>
	</g>

	<g class="circle c6">
		<circle class="st11" cx="457" cy="49.1" r="2"/>
		
			<radialGradient id="SVGID_00000144330703442672511600000004497869707411993757_" cx="-105.45" cy="587.5" r="1" gradientTransform="matrix(-1.224647e-16 2 -2 -1.224647e-16 1632 260)" gradientUnits="userSpaceOnUse">
			<stop  offset="0" style="stop-color:#FFFFFF"/>
			<stop  offset="1" style="stop-color:#FFFFFF;stop-opacity:0"/>
		</radialGradient>
		
			<circle style="fill:url(#SVGID_00000144330703442672511600000004497869707411993757_);fill-opacity:0.55;" cx="457" cy="49.1" r="2"/>
	</g>
	
	<g class="circle c7">
		<circle class="st11" cx="507" cy="229.1" r="2"/>
		
			<radialGradient id="SVGID_00000162325764597905657450000018086786529773325999_" cx="-105.45" cy="587.5" r="1" gradientTransform="matrix(-1.224647e-16 2 -2 -1.224647e-16 1682 440)" gradientUnits="userSpaceOnUse">
			<stop  offset="0" style="stop-color:#FFFFFF"/>
			<stop  offset="1" style="stop-color:#FFFFFF;stop-opacity:0"/>
		</radialGradient>
		
			<circle style="fill:url(#SVGID_00000162325764597905657450000018086786529773325999_);fill-opacity:0.55;" cx="507" cy="229.1" r="2"/>
	</g>
	
	<g class="circle c8">
		<circle class="st11" cx="207" cy="145.1" r="2"/>
		
			<radialGradient id="SVGID_00000177486418739385234530000017068097807753197962_" cx="-105.45" cy="587.5" r="1" gradientTransform="matrix(-1.224647e-16 2 -2 -1.224647e-16 1382 356)" gradientUnits="userSpaceOnUse">
			<stop  offset="0" style="stop-color:#FFFFFF"/>
			<stop  offset="1" style="stop-color:#FFFFFF;stop-opacity:0"/>
		</radialGradient>
		
			<circle style="fill:url(#SVGID_00000177486418739385234530000017068097807753197962_);fill-opacity:0.55;" cx="207" cy="145.1" r="2"/>
	</g>
	
	<g class="circle c9">
		<circle class="st11" cx="182.9" cy="221.9" r="15"/>
		
			<radialGradient id="SVGID_00000000914700743045711270000015393096814517412529_" cx="-396.3976" cy="778.6909" r="1.0002" gradientTransform="matrix(-9.213202e-16 15.0463 -15.0463 -9.213202e-16 11899.3174 6186.2178)" gradientUnits="userSpaceOnUse">
			<stop  offset="0" style="stop-color:#FFFFFF"/>
			<stop  offset="1" style="stop-color:#FFFFFF;stop-opacity:0"/>
		</radialGradient>
		
			<circle style="fill:url(#SVGID_00000000914700743045711270000015393096814517412529_);fill-opacity:0.55;" cx="182.9" cy="221.9" r="15"/>
	</g>
	
	<g class="circle c10">
		<circle class="st11" cx="128" cy="83.9" r="11"/>
		
			<radialGradient id="SVGID_00000081629428990167790930000016822934907452850311_" cx="-380.1486" cy="768.0108" r="0.9994" gradientTransform="matrix(-6.753009e-16 11.0285 -11.0285 -6.753009e-16 8598.0068 4276.3242)" gradientUnits="userSpaceOnUse">
			<stop  offset="0" style="stop-color:#FFFFFF"/>
			<stop  offset="1" style="stop-color:#FFFFFF;stop-opacity:0"/>
		</radialGradient>
		
			<circle style="fill:url(#SVGID_00000081629428990167790930000016822934907452850311_);fill-opacity:0.55;" cx="128" cy="83.9" r="11"/>
	</g>
	
	<g class="circle c11">
		<circle class="st11" cx="150.5" cy="319.1" r="8.1"/>
		
			<radialGradient id="SVGID_00000074415694547205082540000010835745064125097898_" cx="-358.1667" cy="753.5678" r="1.0003" gradientTransform="matrix(-4.960947e-16 8.1018 -8.1018 -4.960947e-16 6255.7881 3220.9185)" gradientUnits="userSpaceOnUse">
			<stop  offset="0" style="stop-color:#FFFFFF"/>
			<stop  offset="1" style="stop-color:#FFFFFF;stop-opacity:0"/>
		</radialGradient>
		
			<circle style="fill:url(#SVGID_00000074415694547205082540000010835745064125097898_);fill-opacity:0.55;" cx="150.5" cy="319.1" r="8.1"/>
	</g>
	
	<g class="circle c12">
		<circle class="st11" cx="22.1" cy="130.5" r="6.9"/>
		
			<radialGradient id="SVGID_00000023265848824735002540000016354853416425272455_" cx="-344.3612" cy="744.4957" r="0.9991" gradientTransform="matrix(-4.252243e-16 6.9444 -6.9444 -4.252243e-16 5192.2178 2521.8477)" gradientUnits="userSpaceOnUse">
			<stop  offset="0" style="stop-color:#FFFFFF"/>
			<stop  offset="1" style="stop-color:#FFFFFF;stop-opacity:0"/>
		</radialGradient>
		
			<circle style="fill:url(#SVGID_00000023265848824735002540000016354853416425272455_);fill-opacity:0.55;" cx="22.1" cy="130.5" r="6.9"/>
	</g>
	
	<g class="circle c13">
		<circle class="st11" cx="262.8" cy="422.1" r="4.6"/>
		
			<radialGradient id="SVGID_00000051344975470027711800000006668549478287655356_" cx="-296.0417" cy="712.7435" r="1" gradientTransform="matrix(-2.834825e-16 4.6296 -4.6296 -2.834825e-16 3562.5015 1792.6852)" gradientUnits="userSpaceOnUse">
			<stop  offset="0" style="stop-color:#FFFFFF"/>
			<stop  offset="1" style="stop-color:#FFFFFF;stop-opacity:0"/>
		</radialGradient>
		
			<circle style="fill:url(#SVGID_00000051344975470027711800000006668549478287655356_);fill-opacity:0.55;" cx="262.8" cy="422.1" r="4.6"/>
	</g>
	
	<g class="circle c14">
		<circle class="st11" cx="193.8" cy="463.5" r="4.6"/>
		
			<radialGradient id="SVGID_00000044896708686312984100000007761884102736485297_" cx="-296.0417" cy="712.7435" r="1" gradientTransform="matrix(-2.834825e-16 4.6296 -4.6296 -2.834825e-16 3493.5735 1834.0421)" gradientUnits="userSpaceOnUse">
			<stop  offset="0" style="stop-color:#FFFFFF"/>
			<stop  offset="1" style="stop-color:#FFFFFF;stop-opacity:0"/>
		</radialGradient>
		
			<circle style="fill:url(#SVGID_00000044896708686312984100000007761884102736485297_);fill-opacity:0.55;" cx="193.8" cy="463.5" r="4.6"/>
	</g>
	
	<g class="circle c15">
		<circle class="st11" cx="201.7" cy="473.3" r="2.1"/>
		
			<radialGradient id="SVGID_00000140725824213566191230000012056140396740720514_" cx="-116.4647" cy="594.7385" r="0.9997" gradientTransform="matrix(-1.266193e-16 2.0679 -2.0679 -1.266193e-16 1431.5551 714.1374)" gradientUnits="userSpaceOnUse">
			<stop  offset="0" style="stop-color:#FFFFFF"/>
			<stop  offset="1" style="stop-color:#FFFFFF;stop-opacity:0"/>
		</radialGradient>
		
			<circle style="fill:url(#SVGID_00000140725824213566191230000012056140396740720514_);fill-opacity:0.55;" cx="201.7" cy="473.3" r="2.1"/>
	</g>
	
	<g class="circle c16">
		<circle class="st11" cx="475.5" cy="464" r="4.6"/>
		
			<radialGradient id="SVGID_00000003102577003593293580000004189408900878588060_" cx="-296.0424" cy="712.7435" r="1.0004" gradientTransform="matrix(-2.834825e-16 4.6296 -4.6296 -2.834825e-16 3775.2583 1834.558)" gradientUnits="userSpaceOnUse">
			<stop  offset="0" style="stop-color:#FFFFFF"/>
			<stop  offset="1" style="stop-color:#FFFFFF;stop-opacity:0"/>
		</radialGradient>
		
			<circle style="fill:url(#SVGID_00000003102577003593293580000004189408900878588060_);fill-opacity:0.55;" cx="475.5" cy="464" r="4.6"/>
	</g>
	
	<g class="circle c17">
		<circle class="st11" cx="482.5" cy="482.5" r="2.3"/>
		
			<radialGradient id="SVGID_00000168119179187276819010000006243721449736525448_" cx="-730.9167" cy="617.487" r="1" gradientTransform="matrix(-1.417412e-16 -2.3148 -2.3148 1.417412e-16 1911.8346 -1209.4073)" gradientUnits="userSpaceOnUse">
			<stop  offset="0" style="stop-color:#FFFFFF"/>
			<stop  offset="1" style="stop-color:#FFFFFF;stop-opacity:0"/>
		</radialGradient>
		
			<circle style="fill:url(#SVGID_00000168119179187276819010000006243721449736525448_);fill-opacity:0.55;" cx="482.5" cy="482.5" r="2.3"/>
	</g>
	
	<g class="circle c18">
		<circle class="st11" cx="73" cy="405.9" r="11.6"/>
		
			<radialGradient id="SVGID_00000070106640187654700020000008270822234005289387_" cx="-498.983" cy="769.8977" r="1" gradientTransform="matrix(-7.087092e-16 -11.5741 -11.5741 7.087092e-16 8983.8252 -5369.353)" gradientUnits="userSpaceOnUse">
			<stop  offset="0" style="stop-color:#FFFFFF"/>
			<stop  offset="1" style="stop-color:#FFFFFF;stop-opacity:0"/>
		</radialGradient>
		
			<circle style="fill:url(#SVGID_00000070106640187654700020000008270822234005289387_);fill-opacity:0.55;" cx="73" cy="405.9" r="11.6"/>
	</g>
	
	<g class="circle c19">
		<circle class="st11" cx="13.9" cy="172.1" r="2.8"/>
		
			<radialGradient id="SVGID_00000049904421399377934430000002325102740135954567_" cx="-684.407" cy="648.0499" r="1" gradientTransform="matrix(-1.688255e-16 -2.7571 -2.7571 1.688255e-16 1800.6514 -1714.9015)" gradientUnits="userSpaceOnUse">
			<stop  offset="0" style="stop-color:#FFFFFF"/>
			<stop  offset="1" style="stop-color:#FFFFFF;stop-opacity:0"/>
		</radialGradient>
		
			<circle style="fill:url(#SVGID_00000049904421399377934430000002325102740135954567_);fill-opacity:0.55;" cx="13.9" cy="172.1" r="2.8"/>
	</g>
	
	<g class="circle c20">
		<circle class="st11" cx="605.4" cy="324.9" r="3.5"/>
		
			<radialGradient id="SVGID_00000160879720093537720170000000273084117753488279_" cx="-634.2766" cy="680.9915" r="0.9995" gradientTransform="matrix(-2.126122e-16 -3.4722 -3.4722 2.126122e-16 2969.9158 -1877.4351)" gradientUnits="userSpaceOnUse">
			<stop  offset="0" style="stop-color:#FFFFFF"/>
			<stop  offset="1" style="stop-color:#FFFFFF;stop-opacity:0"/>
		</radialGradient>
		
			<circle style="fill:url(#SVGID_00000160879720093537720170000000273084117753488279_);fill-opacity:0.55;" cx="605.4" cy="324.9" r="3.5"/>
	</g>
</g>
</svg>
