<svg width="651" height="400" viewBox="0 0 651 400" fill="none" xmlns="http://www.w3.org/2000/svg">
<g clip-path="url(#clip0_150_11116)">
<path d="M206.296 308.921C222.958 308.921 236.466 307.863 236.466 306.558C236.466 305.253 222.958 304.194 206.296 304.194C189.633 304.194 176.126 305.253 176.126 306.558C176.126 307.863 189.633 308.921 206.296 308.921Z" fill="#CEEBF7"/>
<path d="M210.186 272.985L207.767 272.791C211.193 229.771 206.966 182.997 206.924 182.529L209.341 182.306C209.384 182.775 213.63 229.75 210.187 272.985H210.186Z" fill="#49B79A"/>
<path d="M210.724 188.177C208.277 189.183 204.812 190.379 198.086 175.784C191.36 161.189 190.749 157.126 188.165 153.941C185.581 150.757 169.137 127.053 160.023 122.437C160.023 122.437 169.48 120.5 176.912 126.076C176.912 126.076 175.753 127.164 176.267 127.328C176.582 127.427 177.317 126.661 177.317 126.661C177.317 126.661 190.735 140.913 195.23 147.083C195.23 147.083 193.423 150.7 194.169 152.466C194.914 154.232 197.107 149.249 197.107 149.249C197.107 149.249 208.606 164.329 211.367 171.296C214.128 178.263 216.434 185.83 210.722 188.18L210.724 188.177Z" fill="#49B79A"/>
<path d="M238.484 217.662C238.484 217.662 247.345 218.998 256.244 210.734C256.244 210.734 253.525 207.415 254.867 206.177C256.209 204.938 259.246 208.135 259.246 208.135C259.246 208.135 263.875 201.429 266.846 199.133C269.818 196.836 273.257 194.433 276.608 194.461C276.608 194.461 270.268 193.832 270.388 192.625C270.508 191.417 281.161 186.986 290.147 193.213C290.147 193.213 289.024 186.089 280.482 186.157C280.482 186.157 280.886 183.605 282.093 182.201C282.093 182.201 278.791 180.146 275.265 180.355C275.265 180.355 274.109 182.781 272.737 184.321C271.365 185.862 270.111 184.67 270.576 181.515C270.576 181.515 264.526 185.641 258.489 185.042C258.489 185.042 257.525 187.08 255.487 187.64C255.487 187.64 255.139 186.539 255.425 185.195C255.425 185.195 251.882 190.179 249.167 191.435C246.451 192.689 238.68 195.73 236.525 200.547C234.37 205.365 232.595 212.505 238.486 217.663L238.484 217.662Z" fill="#69CCB4"/>
<path d="M264.613 190.205C264.613 190.205 263.247 191.037 260.988 192.689C258.733 194.34 255.579 196.811 252.092 200.121C248.621 203.433 244.777 207.576 241.438 212.617C239.77 215.132 238.227 217.865 236.944 220.783C235.656 223.719 234.797 226.799 233.583 229.733C232.409 232.654 231.096 235.554 229.71 238.356C228.34 241.166 226.896 243.888 225.454 246.498C222.571 251.719 219.682 256.483 217.136 260.52C214.584 264.555 212.371 267.862 210.805 270.161C209.221 272.441 208.317 273.743 208.317 273.743L210.472 275.254C210.472 275.254 211.36 273.913 212.914 271.568C214.444 269.215 216.598 265.836 219.079 261.718C221.553 257.597 224.357 252.736 227.148 247.409C229.935 242.075 232.72 236.302 235.003 230.251C236.169 227.256 236.966 224.14 238.121 221.279C239.29 218.405 240.723 215.688 242.293 213.169C245.431 208.119 249.098 203.882 252.447 200.484C255.807 197.085 258.873 194.522 261.072 192.802C263.274 191.083 264.613 190.208 264.613 190.208V190.205Z" fill="#49B79A"/>
<path d="M225.121 192.328C225.121 192.328 241.505 182.62 251.01 164.214C251.01 164.214 244.942 160.977 245.55 159.561C246.157 158.146 250.607 159.764 252.023 159.561C253.438 159.359 258.899 155.516 263.551 144.999C263.551 144.999 257.686 144.19 258.091 142.572C258.496 140.954 260.417 140.549 264.614 141.359C264.614 141.359 268.609 132.256 270.632 129.83C270.632 129.83 267.8 129.021 268.003 128.009C268.205 126.998 275.284 125.38 275.284 125.38C275.284 125.38 264.16 122.144 248.181 129.222C248.181 129.222 248.789 132.864 246.766 133.065C244.743 133.267 244.743 130.638 244.743 130.638C244.743 130.638 236.57 134.886 234.488 138.728C232.404 142.571 233.416 152.482 232.203 153.493C230.989 154.504 228.561 153.696 227.146 151.875C227.146 151.875 222.089 154.302 221.078 168.664C220.067 183.024 225.123 192.328 225.123 192.328H225.121Z" fill="#69CCB4"/>
<path d="M262.316 129.83C262.316 129.83 260.284 131.293 257.026 134.222C255.38 135.669 253.464 137.517 251.339 139.709C250.279 140.807 249.188 142.013 248.028 143.274C246.926 144.585 245.694 145.908 244.548 147.401C243.389 148.884 242.156 150.411 241.001 152.082C240.414 152.911 239.795 153.739 239.208 154.608C238.637 155.489 238.058 156.382 237.47 157.289C236.245 159.072 235.234 161.056 234.085 163.015C233.535 164.008 233.058 165.055 232.532 166.088C232.035 167.136 231.45 168.155 231.026 169.26C230.127 171.445 229.116 173.631 228.4 175.962C228.015 177.118 227.602 178.27 227.232 179.448C226.889 180.617 226.545 181.792 226.198 182.97C224.831 187.7 223.479 192.529 222.281 197.393C221.078 202.256 219.983 207.16 219.138 212.03C218.269 216.898 217.657 221.719 216.936 226.318C216.207 230.903 215.35 235.37 214.585 239.583C213.79 243.796 213.038 247.78 212.344 251.457C210.93 258.805 209.649 264.903 208.672 269.141C207.697 273.384 207.007 275.742 207.007 275.742L209.251 276.383C209.251 276.383 209.964 273.945 210.947 269.666C211.934 265.388 213.22 259.264 214.64 251.898C215.354 248.215 216.094 244.221 216.846 239.991C217.587 235.752 218.411 231.321 219.122 226.652C219.82 221.996 220.397 217.208 221.227 212.389C222.037 207.566 223.04 202.695 224.184 197.85C225.317 193.001 226.603 188.191 227.91 183.459C228.242 182.275 228.573 181.097 228.902 179.923C229.25 178.773 229.641 177.637 230.004 176.502C230.675 174.211 231.643 172.057 232.499 169.902C232.902 168.812 233.466 167.805 233.942 166.769C234.446 165.746 234.903 164.712 235.434 163.728C235.976 162.749 236.511 161.782 237.039 160.826C237.546 159.856 238.097 158.928 238.669 158.028C239.229 157.12 239.781 156.225 240.324 155.343C240.883 154.471 241.478 153.641 242.039 152.808C243.142 151.129 244.329 149.591 245.443 148.098C246.554 146.601 247.708 145.235 248.754 143.893C249.855 142.598 250.892 141.359 251.903 140.227C253.939 137.977 255.757 136.051 257.305 134.514C258.84 132.961 260.113 131.811 260.971 131.015C261.836 130.227 262.315 129.825 262.315 129.825L262.316 129.83Z" fill="#49B79A"/>
<path d="M202.67 188.687C198.945 188.86 193.77 188.89 191.343 172.911C188.917 156.932 189.928 152.887 187.905 149.044C185.881 145.201 174.555 117.491 164.442 110.21C164.442 110.21 175.768 111.423 182.646 117.491C182.646 117.491 181.23 119.11 182.241 120.525C183.252 121.941 185.073 118.705 185.073 118.705C185.073 118.705 197.209 137.515 200.444 144.796C200.444 144.796 196.399 147.649 196.602 149.559C196.804 151.47 201.254 149.559 201.254 149.559C201.254 149.559 208.838 165.832 209.395 173.315C209.951 180.798 211.367 188.282 202.67 188.686V188.687Z" fill="#69CCB4"/>
<path d="M207.929 272.032L205.503 272.007C205.901 231.081 201.906 185.408 201.866 184.951L204.284 184.737C204.324 185.195 208.33 230.983 207.929 272.032Z" fill="#69CCB4"/>
<path d="M193.922 223.881C193.922 223.881 181.331 217.813 179.512 207.042C177.691 196.271 177.388 187.372 173.141 182.416C173.141 182.416 174.657 181.911 176.933 182.416C176.933 182.416 171.472 178.827 170.259 176.096C169.045 173.365 161.915 163.657 137.189 162.594C137.189 162.594 149.173 158.195 158.881 162.594C158.881 162.594 160.246 161.805 157.06 158.483C157.06 158.483 164.342 158.195 171.623 160.926C171.623 160.926 171.168 167.145 172.685 167.145C174.202 167.145 173.899 161.684 173.899 161.684C173.899 161.684 181.265 163.352 187.139 168.51C187.139 168.51 184.366 175.488 184.972 175.944C185.58 176.399 188.765 172.607 189.372 170.938C189.372 170.938 194.833 177.056 197.716 184.843L191.951 193.996L199.543 188.506C199.543 188.506 204.082 196.944 204.606 205.643C205.131 214.341 201.508 222.06 193.924 223.879L193.922 223.881Z" fill="#49B79A"/>
<path d="M186.186 191.178C186.186 191.178 187.436 196.09 189.198 203.476C190.116 207.158 191.082 211.48 192.16 216.098C193.199 220.724 194.269 225.668 195.237 230.631C196.212 235.591 197.129 240.563 197.874 245.242C198.264 247.578 198.622 249.838 198.918 251.988C199.221 254.136 199.538 256.163 199.766 258.042C200.008 259.919 200.23 261.639 200.426 263.165C200.589 264.693 200.73 266.024 200.847 267.122C201.077 269.316 201.209 270.57 201.209 270.57L203.624 270.332C203.624 270.332 203.476 269.07 203.215 266.86C203.084 265.755 202.924 264.414 202.741 262.876C202.523 261.343 202.278 259.613 202.01 257.726C201.765 255.835 201.401 253.803 201.04 251.651C200.692 249.497 200.277 247.234 199.829 244.896C198.968 240.215 197.929 235.247 196.831 230.296C195.74 225.342 194.548 220.412 193.395 215.8C192.797 213.5 192.251 211.268 191.655 209.172C191.069 207.074 190.513 205.091 190.001 203.26C187.884 195.956 186.186 191.176 186.186 191.176V191.178Z" fill="#69CCB4"/>
<path d="M196.046 274.498C196.046 274.498 191.343 241.782 190.433 237.231C189.523 232.68 175.87 217.965 165.1 216.297C154.329 214.628 146.29 214.637 141.738 217.742C141.738 217.742 146.137 210.684 158.424 211.897L155.845 210.381C155.845 210.381 162.064 211.443 165.403 211.443C168.74 211.443 169.31 213.567 170.921 213.567C172.533 213.567 175.415 214.63 177.084 216.601C177.084 216.601 194.68 222.517 193.164 236.929L197.714 274.499H196.046V274.498Z" fill="#49B79A"/>
<path d="M243.18 263.73C234.811 301.252 226.714 305.841 226.714 305.841H187.843C181.323 287.096 177.572 270.665 176.124 263.73H243.178H243.18Z" fill="#9ABCE6"/>
<path d="M176.126 263.73C177.574 270.665 181.323 287.096 187.844 305.841H184.065C174.617 289.105 170.838 263.73 170.838 263.73H176.126Z" fill="#C7D8F0"/>
<path d="M117.767 375.858C149.803 375.858 175.774 372.623 175.774 368.633C175.774 364.643 149.803 361.408 117.767 361.408C85.7314 361.408 59.7611 364.643 59.7611 368.633C59.7611 372.623 85.7314 375.858 117.767 375.858Z" fill="#E6E6E6"/>
<path d="M102.99 58.8477C102.99 58.8477 89.3999 67.2019 81.1901 89.2072C81.1901 89.2072 85.8643 100.723 95.8986 103.801C95.8986 103.801 127.414 70.3313 102.99 58.8477Z" fill="#9ABCE6"/>
<path d="M92.4146 71.5062C92.4146 71.5062 84.7258 88.0998 83.8889 101.365L92.4146 102.774V71.5049V71.5062Z" fill="#6D98C6"/>
<path d="M117.169 204.247C117.169 204.247 109.111 237.995 102.043 267.868C102.043 267.868 113.463 324.761 116.123 336.619H99.1918C99.1918 336.619 79.6957 289.303 79.6957 273.34C79.6957 257.378 80.0374 216.218 88.0189 189.311L120.969 190.337L117.169 204.247Z" fill="#4E4E4E"/>
<path d="M113.216 205.615C113.216 205.615 119.191 243.924 123.272 271.287L128.038 338.329H144.854C144.854 338.329 146.051 303.896 147.42 273.796C148.788 243.696 151.069 205.387 149.928 186.461L111.391 188.741L113.216 205.615Z" fill="#4E4E4E"/>
<path d="M143.468 340.609L144.228 354.139L131.611 351.784C131.611 351.784 132.295 346.083 132.37 340.078L143.467 340.611L143.468 340.609Z" fill="#FFC8BB"/>
<path d="M100.37 349.046C100.37 349.046 102.195 344.638 101.738 337.341H114.053C114.053 337.341 114.946 348.457 115.022 352.713L100.372 349.046H100.37Z" fill="#FFC8BB"/>
<path d="M115.04 349.199C115.04 349.199 109.568 351.252 100.979 347.526C100.979 347.526 94.2146 350.567 88.6649 353.912C86.108 355.452 83.2609 356.461 80.9348 357.1C78.1432 357.868 76.2 360.385 76.2 363.279V364.628C76.2 365.635 77.0162 366.453 78.0246 366.453H116.029C117.036 366.453 117.854 365.636 117.854 364.628V360.448C117.854 360.448 118.158 354.899 115.041 349.199H115.04Z" fill="#16168C"/>
<path d="M116.497 366.454H77.5539C76.8061 366.454 76.1988 365.847 76.1988 365.099V363.185H117.852V365.099C117.852 365.847 117.245 366.454 116.497 366.454Z" fill="#A6A8A9"/>
<path d="M99.4961 352.242C99.6412 352.467 99.9413 352.532 100.166 352.387C100.391 352.242 100.456 351.942 100.311 351.717L98.3646 348.699C98.2195 348.474 97.9194 348.409 97.6944 348.554C97.4694 348.699 97.4046 348.999 97.5497 349.224L99.4961 352.242Z" fill="#030D74"/>
<path d="M97.2738 353.382C97.4189 353.607 97.719 353.672 97.944 353.526C98.169 353.381 98.2338 353.081 98.0887 352.856L96.1423 349.838C95.9972 349.613 95.6971 349.549 95.4721 349.694C95.2471 349.839 95.1823 350.139 95.3274 350.364L97.2738 353.382Z" fill="#030D74"/>
<path d="M94.879 354.579C95.0242 354.804 95.3242 354.869 95.5493 354.724C95.7743 354.579 95.839 354.279 95.6939 354.054L93.7476 351.036C93.6024 350.811 93.3024 350.746 93.0773 350.891C92.8523 351.036 92.7876 351.336 92.9327 351.561L94.879 354.579Z" fill="#030D74"/>
<path d="M92.4283 355.891C92.5734 356.116 92.8735 356.18 93.0985 356.035C93.3235 355.89 93.3883 355.59 93.2431 355.365L91.2968 352.347C91.1517 352.122 90.8516 352.057 90.6266 352.203C90.4016 352.348 90.3368 352.648 90.4819 352.873L92.4283 355.891Z" fill="#030D74"/>
<path d="M89.8063 356.894C89.9514 357.12 90.2515 357.184 90.4765 357.039C90.7015 356.894 90.7663 356.594 90.6212 356.369L88.6748 353.351C88.5297 353.126 88.2296 353.061 88.0046 353.206C87.7796 353.352 87.7148 353.652 87.8599 353.877L89.8063 356.894Z" fill="#030D74"/>
<path d="M116.727 353.15C116.727 353.15 114.071 354.86 114.071 363.183H117.852C117.852 363.183 118.38 357.897 116.727 353.15Z" fill="#030D74"/>
<path d="M109.518 350.694C111.145 350.694 112.946 350.476 114.891 349.913C115.254 349.807 115.464 349.427 115.359 349.063C115.253 348.699 114.874 348.489 114.509 348.595C106.656 350.869 101.227 347.01 101.172 346.972C100.867 346.75 100.437 346.817 100.214 347.122C99.9913 347.429 100.06 347.857 100.365 348.08C100.552 348.216 104.039 350.694 109.518 350.694Z" fill="#030D74"/>
<path d="M143.999 350.49C143.999 350.49 138.755 352.922 131.685 350.49C131.685 350.49 123.173 358.244 123.477 364.818C123.781 371.393 127.353 372.002 131.458 372.305C135.563 372.609 142.481 369.493 145.065 364.818C147.649 360.144 144.001 350.49 144.001 350.49H143.999Z" fill="#16168C"/>
<path d="M138.74 352.345C142.362 352.345 144.272 351.303 144.391 351.236C144.722 351.05 144.838 350.632 144.652 350.302C144.466 349.972 144.051 349.856 143.721 350.04C143.658 350.075 139.577 352.229 131.89 349.837C131.531 349.724 131.144 349.927 131.032 350.288C130.92 350.649 131.122 351.034 131.483 351.147C134.382 352.049 136.804 352.346 138.74 352.346V352.345Z" fill="#030D74"/>
<path d="M131.327 353.47L137.178 354.744C137.387 354.789 137.594 354.656 137.639 354.447L137.64 354.446C137.685 354.236 137.553 354.029 137.343 353.984L131.492 352.71C131.283 352.665 131.076 352.798 131.03 353.007L131.03 353.008C130.984 353.218 131.117 353.424 131.327 353.47Z" fill="#030D74"/>
<path d="M129.883 355.256L135.734 356.53C135.943 356.575 136.15 356.443 136.196 356.233L136.196 356.232C136.241 356.022 136.109 355.816 135.899 355.77L130.048 354.496C129.839 354.451 129.632 354.584 129.586 354.793L129.586 354.794C129.54 355.004 129.673 355.211 129.883 355.256Z" fill="#030D74"/>
<path d="M128.623 357.422L134.474 358.696C134.683 358.741 134.89 358.609 134.936 358.399L134.936 358.398C134.982 358.188 134.849 357.982 134.639 357.936L128.788 356.662C128.579 356.617 128.372 356.75 128.326 356.959L128.326 356.96C128.281 357.17 128.413 357.377 128.623 357.422Z" fill="#030D74"/>
<path d="M126.723 359.589L132.574 360.863C132.784 360.908 132.99 360.776 133.036 360.566L133.036 360.565C133.082 360.355 132.949 360.149 132.739 360.103L126.888 358.829C126.679 358.784 126.472 358.917 126.427 359.126L126.426 359.127C126.381 359.337 126.514 359.544 126.723 359.589Z" fill="#030D74"/>
<path d="M145.869 362.222C145.869 362.222 139.212 369.341 130.319 367.973C121.425 366.604 123.478 364.819 123.478 364.819C123.478 364.819 122.338 372.118 130.319 372.326C138.3 372.533 145.155 367.796 145.869 362.222Z" fill="#A6A8A9"/>
<path d="M128.121 343.117H145.209C145.843 343.117 146.357 342.603 146.357 341.97V338.108C146.357 337.474 145.843 336.96 145.209 336.96H128.121C127.488 336.96 126.974 337.474 126.974 338.108V341.97C126.974 342.603 127.488 343.117 128.121 343.117Z" fill="black"/>
<path d="M99.0913 341.064H115.862C116.583 341.064 117.168 340.48 117.168 339.758V336.214C117.168 335.492 116.583 334.907 115.862 334.907H99.0913C98.3699 334.907 97.7851 335.492 97.7851 336.214V339.758C97.7851 340.48 98.3699 341.064 99.0913 341.064Z" fill="black"/>
<path d="M120.969 52.3799C130.017 51.1807 134.897 49.0068 141.281 50.3761C147.667 51.7442 159.095 52.3799 161.786 62.8694C165.235 76.3156 154.033 123.297 153.804 143.82C153.611 161.275 152.18 183.431 151.755 189.665C151.69 190.632 150.902 191.388 149.933 191.419L87.6063 192.136C86.3311 192.15 85.2944 191.117 85.3124 189.842C85.4143 182.448 85.7779 158.413 86.5361 132.647C87.4477 101.635 79.6957 57.8535 120.969 52.3799Z" fill="#9ABCE6"/>
<path d="M146.657 113.515C146.657 113.515 144.41 104.599 144.41 97.302C144.41 90.0052 145.027 75.6396 145.027 75.6396C145.027 75.6396 151.754 100.836 151.754 115.431L146.658 113.517L146.657 113.515Z" fill="#6D98C6"/>
<path d="M100.983 109.755C100.983 109.755 122.194 125.562 154.532 133.551L155.287 127.745L100.983 109.755Z" fill="#6D98C6"/>
<path d="M96.3615 127.491L96.9998 127.008C97.8418 126.373 98.159 125.255 97.7786 124.271L82.5105 84.8208C82.2281 84.0923 81.5125 83.6242 80.7324 83.659L78.6822 83.7493L96.3615 127.489V127.491Z" fill="#9D9D9C"/>
<path d="M80.0374 83.6671L47.1402 85.7005C46.0996 85.765 45.4781 86.8881 45.9758 87.8036L67.8923 128.12C68.1527 128.599 68.6633 128.887 69.2075 128.863L95.6936 127.689C96.662 127.647 97.3067 126.671 96.965 125.763L81.4583 84.5865C81.2378 84.0011 80.6615 83.6271 80.0361 83.6658L80.0374 83.6671Z" fill="#DADADA"/>
<path d="M150.233 111.287V113.719C150.233 113.719 119.525 103.686 99.4575 98.2139L97.9372 107.943C97.9372 107.943 122.261 122.841 139.895 128.161C157.529 133.481 178.052 134.546 172.427 108.702L150.233 111.286V111.287Z" fill="#FFC8BB"/>
<path d="M151.525 54.6606C144.431 56.3291 141.263 78.604 148.56 112.124C148.56 112.124 162.926 114.86 173.643 110.071C173.643 110.071 170.907 50.0999 151.525 54.6606Z" fill="#9ABCE6"/>
<path d="M101.631 98.813C101.631 98.813 91.3251 94.1852 88.0564 93.73C84.7877 93.2736 84.9321 95.1368 85.3125 96.0484C85.3125 96.0484 83.9276 98.3668 84.8392 99.5067C84.8392 99.5067 84.4344 102.053 85.0288 102.585C85.0288 102.585 84.5826 105.094 85.5226 105.573C93.3894 109.593 95.5557 106.579 99.3672 108.802C103.179 111.025 101.63 98.813 101.63 98.813H101.631Z" fill="#FFC8BB"/>
<path d="M85.3124 96.047C85.3124 96.047 78.962 94.461 78.5249 93.4076C77.884 91.8628 78.4823 91.3148 82.4873 92.2265C86.4923 93.1381 92.0845 94.902 92.0845 94.902C92.0845 94.902 92.3411 98.1553 85.3112 96.0458L85.3124 96.047Z" fill="#FFC8BB"/>
<path d="M131.911 47.2305L139.895 50.1007L119.627 67.784L116.664 62.7668L113.51 67.9735L109.552 55.1166L113.851 53.0754C113.851 53.0754 114.384 60.3349 118.488 60.3078C124.305 60.2705 131.912 47.2305 131.912 47.2305H131.911Z" fill="#C7D8F0"/>
<path d="M114.647 214.822L113.606 208.118L102.043 267.868L114.647 214.822Z" fill="black"/>
<path d="M59.5277 118.11C58.0462 115.602 56.3351 112.353 56.2784 110.985C56.2216 109.617 61.8655 105.866 63.0053 105.576C64.1452 105.284 64.6016 106.254 64.3167 106.824C64.0317 107.394 60.9538 110.13 60.9538 110.13C60.9538 110.13 65.1329 107.408 65.8743 107.238C66.6157 107.066 67.2063 108.12 67.0967 108.663C66.9858 109.206 61.1305 112.696 61.1305 112.696C61.1305 112.696 64.8441 110.643 65.8704 110.302C66.8968 109.96 67.3958 111.556 66.5396 112.069C65.6848 112.583 62.1504 115.262 62.1504 115.262C62.1504 115.262 65.7699 113.181 66.3411 113.011C66.911 112.839 67.6576 114.13 66.9278 114.639C66.198 115.149 63.133 117.941 61.7868 118.455C60.4407 118.968 59.529 118.113 59.529 118.113L59.5277 118.11Z" fill="#FFC8BB"/>
<path d="M83.8321 22.835C83.8321 22.835 82.8058 29.6367 87.9532 37.8168C87.9532 37.8168 86.8571 43.6863 88.1736 46.9563C88.6056 48.0278 92.4339 47.0685 92.4339 47.0685C92.4339 47.0685 95.4473 52.6517 96.7058 54.827C97.9643 57.0035 98.9752 58.7997 101.928 57.803C104.881 56.8063 108.918 54.689 111.315 56.5987C113.712 58.5083 115.794 63.8659 119.041 61.4418C125.473 56.6399 128.134 53.8354 131.395 48.073C131.395 48.073 121.46 38.2527 121.624 29.852C121.788 21.4501 118.234 11.1914 110.045 9.88912C101.856 8.58551 84.2048 12.8148 83.8296 22.8337L83.8321 22.835Z" fill="#FFC8BB"/>
<path d="M118.715 22.4541C118.715 22.4541 107.055 24.7802 106.676 25.0278C106.676 25.0278 112.776 37.2877 110.922 40.4971C110.343 41.5002 111.506 52.3224 103.709 56.9927C103.709 56.9927 114.947 48.7326 117.537 47.7875C120.126 46.8411 122.105 47.0461 122.622 47.9074C124.962 51.8118 123.998 57.4234 123.998 57.4234C123.998 57.4234 129.041 53.5087 131.395 48.075C131.395 48.075 123.193 38.0368 121.899 34.3426C120.604 30.6484 118.715 22.4541 118.715 22.4541Z" fill="#EAAFA2"/>
<path d="M92.9407 48.0051C92.9407 48.0051 105.754 39.0655 104.289 29.9918C103.745 29.2826 102.94 28.0937 102.148 26.4007C99.9552 21.7059 101.759 18.0388 100.503 17.9704C90.0291 17.4005 85.9275 24.3931 83.2571 25.4453C80.8871 26.3788 82.8638 16.8525 93.187 10.9173C98.462 7.88454 102.158 5.71185 109.421 5.1084C111.565 5.19092 113.653 5.78406 115.687 6.86589C115.687 6.86589 122.955 9.5724 122.106 23.3938C122.329 26.4471 122.097 28.6276 122.097 28.6276C122.231 30.7036 123.717 34.5357 122.774 34.9535C120.065 36.1527 115.391 35.2475 115.391 35.2475C115.391 35.2475 119.138 29.3806 117.444 26.0539C115.749 22.7271 112.938 24.2629 112.255 24.9269C111.57 25.591 109.868 27.1112 110.005 28.9602C110.1 30.2677 110.183 32.1722 110.183 32.1722C110.183 32.1722 111.191 37.0772 115.311 40.1473C115.311 40.1473 116.264 48.9283 115.096 52.3982C113.927 55.868 105.605 63.9012 103.64 64.5704C101.675 65.2396 99.3027 66.1964 98.4285 64.6516C95.5092 59.4926 92.942 48.0051 92.942 48.0051H92.9407Z" fill="#4E4E4E"/>
<path d="M110.086 6.35779C110.086 6.35779 109.135 5.35977 109.416 3.78151C109.697 2.20325 111.503 0.0266956 112.455 0.000907033C113.406 -0.026171 114.465 0.560519 114.558 0.757801L114.651 0.955084C114.651 0.955084 115.288 0.515389 116.358 0.743618C117.43 0.971847 121.073 5.73886 116.945 7.60467C112.817 9.47047 110.086 6.35908 110.086 6.35908V6.35779Z" fill="#4E4E4E"/>
<path d="M166.407 294.84C163.365 294.13 160.242 293.584 157.439 292.209C154.636 290.831 152.129 288.441 151.512 285.38C150.723 281.465 153.094 277.166 151.421 273.539C150.073 270.612 146.586 269.346 143.384 268.989C140.181 268.631 136.842 268.87 133.847 267.682C127.189 265.044 125.037 255.671 128.658 249.494C132.279 243.316 140.02 240.434 147.162 240.933C154.306 241.432 160.941 244.768 166.981 248.614C184.228 259.599 198.198 275.504 207.3 293.782C209.591 298.384 211.578 303.138 213.23 308.007C214.124 310.641 215.893 326.483 215.893 326.483C215.893 326.483 199.587 311.368 196.626 309.123C187.685 302.344 177.34 297.393 166.407 294.84Z" fill="#49B79A"/>
<path d="M216.103 327.054C215.813 327.161 215.483 327.032 215.345 326.747C215.126 326.288 192.829 280.686 148.79 256.346C148.496 256.183 148.389 255.813 148.551 255.519C148.714 255.225 149.082 255.117 149.378 255.281C193.768 279.815 216.222 325.759 216.442 326.22C216.588 326.523 216.46 326.886 216.157 327.032C216.139 327.04 216.121 327.048 216.102 327.055L216.103 327.054Z" fill="white"/>
<path d="M170.508 323.222C168.233 323.923 165.967 324.765 163.594 324.937C161.22 325.108 158.65 324.498 157.067 322.72C155.042 320.447 154.949 316.706 152.456 314.962C150.443 313.553 147.661 314.06 145.417 315.057C143.172 316.054 141.065 317.494 138.637 317.864C133.242 318.687 128.221 313.345 128.228 307.888C128.236 302.43 132.224 297.557 137.117 295.139C142.01 292.721 147.66 292.366 153.114 292.576C168.689 293.175 183.999 298.272 197.017 306.803C200.295 308.951 203.429 311.318 206.388 313.886C207.99 315.276 215.244 325.023 215.244 325.023C215.244 325.023 198.701 321.344 195.889 321.004C187.398 319.979 178.685 320.697 170.508 323.22V323.222Z" fill="#69CCB4"/>
<path d="M215.453 325.594C215.277 325.66 215.07 325.642 214.901 325.527C214.582 325.31 182.409 303.893 144.114 304.803C143.779 304.811 143.499 304.544 143.493 304.208C143.485 303.872 143.752 303.593 144.087 303.586C182.78 302.667 215.261 324.299 215.585 324.517C215.863 324.706 215.937 325.083 215.748 325.363C215.675 325.473 215.571 325.55 215.454 325.593L215.453 325.594Z" fill="white"/>
<path d="M280.692 399.999C356.663 399.999 418.249 396.007 418.249 391.082C418.249 386.157 356.663 382.164 280.692 382.164C204.721 382.164 143.134 386.157 143.134 391.082C143.134 396.007 204.721 399.999 280.692 399.999Z" fill="#E6E6E6"/>
<path d="M205.434 351.569H322.507V314.944H205.434V351.569Z" fill="white"/>
<path d="M321.884 352.448H394.196V314.944H321.884V352.448Z" fill="#C7D8F0"/>
<path d="M388.91 323.4C386.274 323.304 383.637 323.257 381.002 323.191L373.094 323.071C367.821 323.035 362.55 322.992 357.277 323.004C352.005 323.04 346.734 323.019 341.461 323.103C336.189 323.164 330.918 323.245 325.645 323.4C330.918 323.554 336.189 323.636 341.461 323.696C346.734 323.78 352.005 323.759 357.277 323.796C362.55 323.807 367.821 323.763 373.094 323.729L381.002 323.609C383.637 323.543 386.274 323.496 388.91 323.4Z" fill="white"/>
<path d="M390.127 336.692C387.68 336.609 385.232 336.569 382.785 336.512L375.443 336.407C370.548 336.376 365.654 336.339 360.759 336.348C355.864 336.38 350.969 336.361 346.075 336.434C341.18 336.487 336.285 336.557 331.391 336.692C336.285 336.826 341.18 336.897 346.075 336.95C350.969 337.022 355.864 337.004 360.759 337.037C365.654 337.047 370.548 337.01 375.443 336.977L382.785 336.873C385.232 336.816 387.68 336.775 390.127 336.692Z" fill="white"/>
<path d="M385.124 328.094C382.772 328.034 380.421 328.005 378.069 327.964L371.015 327.889C366.312 327.867 361.609 327.84 356.906 327.847C352.203 327.87 347.5 327.856 342.797 327.909C338.095 327.946 333.391 327.998 328.688 328.094C333.391 328.191 338.095 328.243 342.797 328.28C347.5 328.333 352.203 328.319 356.906 328.342C361.609 328.348 366.312 328.322 371.015 328.299L378.069 328.224C380.421 328.183 382.772 328.154 385.124 328.094Z" fill="white"/>
<path d="M385.124 341.355C382.772 341.294 380.421 341.266 378.069 341.225L371.015 341.15C366.312 341.128 361.609 341.101 356.906 341.107C352.203 341.131 347.5 341.116 342.797 341.169C338.095 341.207 333.391 341.258 328.688 341.355C333.391 341.452 338.095 341.503 342.797 341.541C347.5 341.594 352.203 341.579 356.906 341.603C361.609 341.609 366.312 341.583 371.015 341.56L378.069 341.485C380.421 341.444 382.772 341.414 385.124 341.355Z" fill="white"/>
<path d="M383.299 331.387C381.378 331.313 379.458 331.277 377.537 331.227L371.774 331.135C367.933 331.108 364.092 331.075 360.251 331.084C356.41 331.112 352.568 331.095 348.727 331.16C344.886 331.206 341.045 331.269 337.204 331.388C341.045 331.506 344.886 331.57 348.727 331.616C352.568 331.681 356.41 331.664 360.251 331.692C364.092 331.701 367.933 331.668 371.774 331.641L377.537 331.549C379.458 331.499 381.378 331.463 383.299 331.389V331.387Z" fill="white"/>
<path d="M311.913 323.4C307.641 323.304 303.369 323.257 299.097 323.191L286.281 323.071C277.738 323.035 269.194 322.992 260.65 323.004C252.106 323.04 243.563 323.019 235.019 323.103C226.475 323.164 217.931 323.245 209.388 323.4C217.931 323.554 226.475 323.636 235.019 323.696C243.563 323.78 252.106 323.759 260.65 323.796C269.194 323.807 277.738 323.763 286.281 323.729L299.097 323.609C303.369 323.543 307.641 323.496 311.913 323.4Z" fill="#C7D8F0"/>
<path d="M313.886 336.692C309.919 336.609 305.953 336.569 301.988 336.512L290.09 336.407C282.158 336.376 274.227 336.339 266.294 336.348C258.361 336.38 250.43 336.361 242.498 336.434C234.565 336.487 226.634 336.557 218.701 336.692C226.634 336.826 234.565 336.897 242.498 336.95C250.43 337.022 258.361 337.004 266.294 337.037C274.227 337.047 282.158 337.01 290.09 336.977L301.988 336.873C305.954 336.816 309.921 336.775 313.886 336.692Z" fill="#C7D8F0"/>
<path d="M305.779 328.094C301.969 328.034 298.157 328.005 294.347 327.964L282.915 327.889C275.293 327.867 267.671 327.84 260.049 327.847C252.428 327.87 244.806 327.856 237.184 327.909C229.562 327.946 221.94 327.998 214.318 328.094C221.94 328.191 229.562 328.243 237.184 328.28C244.806 328.333 252.428 328.319 260.049 328.342C267.671 328.348 275.293 328.322 282.915 328.299L294.347 328.224C298.157 328.183 301.969 328.154 305.779 328.094Z" fill="#C7D8F0"/>
<path d="M305.779 341.355C301.969 341.294 298.157 341.266 294.347 341.225L282.915 341.15C275.293 341.128 267.671 341.101 260.049 341.107C252.428 341.131 244.806 341.116 237.184 341.169C229.562 341.207 221.94 341.258 214.318 341.355C221.94 341.452 229.562 341.503 237.184 341.541C244.806 341.594 252.428 341.579 260.049 341.603C267.671 341.609 275.293 341.583 282.915 341.56L294.347 341.485C298.157 341.444 301.969 341.414 305.779 341.355Z" fill="#C7D8F0"/>
<path d="M302.822 331.387C299.71 331.313 296.597 331.277 293.484 331.227L284.146 331.135C277.921 331.108 271.695 331.075 265.471 331.084C259.246 331.112 253.021 331.095 246.797 331.16C240.571 331.206 234.346 331.269 228.122 331.388C234.347 331.506 240.573 331.57 246.797 331.616C253.022 331.681 259.247 331.664 265.471 331.692C271.697 331.701 277.922 331.668 284.146 331.641L293.484 331.549C296.597 331.499 299.71 331.463 302.822 331.389V331.387Z" fill="#C7D8F0"/>
<path d="M201.549 352.762H394.316C395.003 352.762 395.561 352.205 395.561 351.517V314.479C395.561 313.791 395.003 313.234 394.316 313.234H201.549C200.862 313.234 200.305 313.791 200.305 314.479C200.305 315.166 200.862 315.723 201.549 315.723H393.071V350.272H201.549C200.862 350.272 200.305 350.829 200.305 351.516C200.305 352.203 200.862 352.761 201.549 352.761V352.762Z" fill="#004E7C"/>
<path d="M364.19 354.157H247.118V391.08H364.19V354.157Z" fill="white"/>
<path d="M247.74 354.157H175.229V391.08H247.74V354.157Z" fill="#C7D8F0"/>
<path d="M180.715 362.614C183.35 362.518 185.987 362.471 188.623 362.405L196.531 362.285C201.803 362.249 207.074 362.206 212.347 362.218C217.619 362.254 222.891 362.233 228.163 362.317C233.436 362.378 238.707 362.459 243.979 362.614C238.707 362.768 233.436 362.85 228.163 362.91C222.891 362.994 217.619 362.973 212.347 363.009C207.074 363.021 201.803 362.977 196.531 362.942L188.623 362.823C185.987 362.757 183.35 362.71 180.715 362.614Z" fill="white"/>
<path d="M179.497 375.907C181.945 375.823 184.392 375.783 186.839 375.727L194.181 375.622C199.076 375.591 203.971 375.554 208.865 375.563C213.76 375.595 218.655 375.576 223.549 375.649C228.444 375.702 233.339 375.772 238.233 375.907C233.339 376.041 228.444 376.112 223.549 376.165C218.655 376.237 213.76 376.219 208.865 376.251C203.971 376.262 199.076 376.224 194.181 376.192L186.839 376.088C184.392 376.031 181.945 375.99 179.497 375.907Z" fill="white"/>
<path d="M184.5 367.31C186.852 367.249 189.203 367.221 191.555 367.18L198.609 367.105C203.312 367.083 208.016 367.056 212.718 367.062C217.421 367.086 222.125 367.072 226.827 367.124C231.53 367.162 236.234 367.213 240.936 367.31C236.234 367.407 231.53 367.458 226.827 367.496C222.125 367.549 217.421 367.534 212.718 367.558C208.016 367.564 203.312 367.538 198.609 367.515L191.555 367.44C189.203 367.399 186.852 367.369 184.5 367.31Z" fill="white"/>
<path d="M184.5 380.569C186.852 380.508 189.203 380.48 191.555 380.439L198.609 380.364C203.312 380.342 208.016 380.315 212.718 380.321C217.421 380.344 222.125 380.33 226.827 380.383C231.53 380.421 236.234 380.472 240.936 380.569C236.234 380.666 231.53 380.717 226.827 380.755C222.125 380.807 217.421 380.793 212.718 380.816C208.016 380.823 203.312 380.797 198.609 380.774L191.555 380.699C189.203 380.658 186.852 380.628 184.5 380.569Z" fill="white"/>
<path d="M186.325 370.601C188.246 370.528 190.166 370.492 192.087 370.441L197.85 370.35C201.691 370.323 205.532 370.289 209.373 370.298C213.215 370.327 217.056 370.31 220.897 370.374C224.738 370.421 228.58 370.484 232.421 370.603C228.58 370.721 224.738 370.784 220.897 370.831C217.056 370.895 213.215 370.879 209.373 370.907C205.532 370.916 201.691 370.882 197.85 370.855L192.087 370.764C190.166 370.714 188.246 370.677 186.325 370.604V370.601Z" fill="white"/>
<path d="M257.71 362.614C261.982 362.518 266.254 362.471 270.526 362.405L283.342 362.285C291.885 362.249 300.429 362.206 308.973 362.218C317.517 362.254 326.06 362.233 334.604 362.317C343.148 362.378 351.692 362.459 360.235 362.614C351.692 362.768 343.148 362.85 334.604 362.91C326.06 362.994 317.517 362.973 308.973 363.009C300.429 363.021 291.885 362.977 283.342 362.942L270.526 362.823C266.254 362.757 261.982 362.71 257.71 362.614Z" fill="#C7D8F0"/>
<path d="M255.739 375.907C259.705 375.823 263.671 375.783 267.636 375.727L279.534 375.622C287.466 375.591 295.398 375.554 303.33 375.563C311.263 375.595 319.194 375.576 327.127 375.649C335.059 375.702 342.991 375.772 350.923 375.907C342.991 376.041 335.059 376.112 327.127 376.165C319.194 376.237 311.263 376.219 303.33 376.251C295.398 376.262 287.466 376.224 279.534 376.192L267.636 376.088C263.67 376.031 259.704 375.99 255.739 375.907Z" fill="#C7D8F0"/>
<path d="M263.844 367.31C267.654 367.249 271.466 367.221 275.276 367.18L286.708 367.105C294.33 367.083 301.952 367.056 309.574 367.062C317.196 367.086 324.817 367.072 332.439 367.124C340.061 367.162 347.683 367.213 355.305 367.31C347.683 367.407 340.061 367.458 332.439 367.496C324.817 367.549 317.196 367.534 309.574 367.558C301.952 367.564 294.33 367.538 286.708 367.515L275.276 367.44C271.466 367.399 267.654 367.369 263.844 367.31Z" fill="#C7D8F0"/>
<path d="M263.844 380.569C267.654 380.508 271.466 380.48 275.276 380.439L286.708 380.364C294.33 380.342 301.952 380.315 309.574 380.321C317.196 380.344 324.817 380.33 332.439 380.383C340.061 380.421 347.683 380.472 355.305 380.569C347.683 380.666 340.061 380.717 332.439 380.755C324.817 380.807 317.196 380.793 309.574 380.816C301.952 380.823 294.33 380.797 286.708 380.774L275.276 380.699C271.466 380.658 267.654 380.628 263.844 380.569Z" fill="#C7D8F0"/>
<path d="M266.802 370.601C269.915 370.528 273.027 370.492 276.14 370.441L285.478 370.35C291.703 370.323 297.929 370.289 304.153 370.298C310.378 370.327 316.604 370.31 322.828 370.374C329.053 370.421 335.278 370.484 341.503 370.603C335.277 370.721 329.052 370.784 322.828 370.831C316.602 370.895 310.377 370.879 304.153 370.907C297.928 370.916 291.702 370.882 285.478 370.855L276.14 370.764C273.027 370.714 269.915 370.677 266.802 370.604V370.601Z" fill="#C7D8F0"/>
<path d="M368.074 391.977H175.307C174.62 391.977 174.063 391.42 174.063 390.732V353.694C174.063 353.006 174.62 352.449 175.307 352.449H368.074C368.761 352.449 369.318 353.006 369.318 353.694C369.318 354.381 368.761 354.938 368.074 354.938H176.552V389.487H368.074C368.761 389.487 369.318 390.044 369.318 390.731C369.318 391.418 368.761 391.975 368.074 391.975V391.977Z" fill="#004E7C"/>
<path d="M195.951 370.823C195.951 370.823 185.93 373.068 181.515 384.106L190.176 382.068L193.573 386.824C193.573 386.824 199.192 374.73 209.374 370.906L195.951 370.823Z" fill="#BD934A"/>
<path d="M184.627 312.338H301.699V275.415H184.627V312.338Z" fill="white"/>
<path d="M301.076 312.338H373.587V275.415H301.076V312.338Z" fill="#C7D8F0"/>
<path d="M368.102 283.87C365.467 283.775 362.83 283.727 360.194 283.662L352.286 283.542C347.014 283.506 341.742 283.463 336.47 283.475C331.197 283.511 325.926 283.49 320.654 283.574C315.381 283.634 310.11 283.716 304.838 283.87C310.11 284.025 315.381 284.106 320.654 284.167C325.926 284.251 331.197 284.23 336.47 284.266C341.742 284.278 347.014 284.234 352.286 284.199L360.194 284.079C362.83 284.014 365.467 283.967 368.102 283.87Z" fill="white"/>
<path d="M369.319 297.163C366.872 297.079 364.425 297.039 361.977 296.983L354.635 296.878C349.741 296.847 344.846 296.81 339.951 296.819C335.057 296.851 330.162 296.832 325.267 296.905C320.373 296.958 315.478 297.028 310.583 297.163C315.478 297.297 320.373 297.368 325.267 297.421C330.162 297.493 335.057 297.475 339.951 297.507C344.846 297.518 349.741 297.48 354.635 297.448L361.977 297.344C364.425 297.287 366.872 297.246 369.319 297.163Z" fill="white"/>
<path d="M364.316 288.567C361.964 288.506 359.614 288.478 357.262 288.437L350.207 288.362C345.505 288.34 340.801 288.313 336.099 288.319C331.396 288.343 326.692 288.328 321.99 288.381C317.287 288.419 312.583 288.47 307.881 288.567C312.583 288.664 317.287 288.715 321.99 288.753C326.692 288.805 331.396 288.791 336.099 288.814C340.801 288.821 345.505 288.795 350.207 288.772L357.262 288.697C359.614 288.656 361.964 288.626 364.316 288.567Z" fill="white"/>
<path d="M364.316 301.826C361.964 301.765 359.614 301.737 357.262 301.695L350.207 301.621C345.505 301.599 340.801 301.572 336.099 301.578C331.396 301.601 326.692 301.587 321.99 301.64C317.287 301.677 312.583 301.729 307.881 301.826C312.583 301.922 317.287 301.974 321.99 302.011C326.692 302.064 331.396 302.05 336.099 302.073C340.801 302.08 345.505 302.054 350.207 302.031L357.262 301.956C359.614 301.915 361.964 301.885 364.316 301.826Z" fill="white"/>
<path d="M362.492 291.858C360.571 291.785 358.651 291.749 356.729 291.698L350.967 291.607C347.126 291.58 343.285 291.546 339.443 291.555C335.602 291.584 331.761 291.567 327.92 291.631C324.078 291.678 320.237 291.741 316.396 291.86C320.237 291.978 324.078 292.041 327.92 292.088C331.761 292.152 335.602 292.135 339.443 292.164C343.285 292.173 347.126 292.139 350.967 292.112L356.729 292.021C358.651 291.97 360.571 291.934 362.492 291.861V291.858Z" fill="white"/>
<path d="M291.106 283.87C286.835 283.775 282.563 283.727 278.291 283.662L265.475 283.542C256.932 283.506 248.388 283.463 239.844 283.475C231.3 283.511 222.756 283.49 214.213 283.574C205.669 283.634 197.125 283.716 188.581 283.87C197.125 284.025 205.669 284.106 214.213 284.167C222.756 284.251 231.3 284.23 239.844 284.266C248.388 284.278 256.932 284.234 265.475 284.199L278.291 284.079C282.563 284.014 286.835 283.967 291.106 283.87Z" fill="#C7D8F0"/>
<path d="M293.078 297.163C289.112 297.079 285.145 297.039 281.18 296.983L269.283 296.878C261.35 296.847 253.419 296.81 245.487 296.819C237.554 296.851 229.623 296.832 221.69 296.905C213.758 296.958 205.826 297.028 197.894 297.163C205.826 297.297 213.758 297.368 221.69 297.421C229.623 297.493 237.554 297.475 245.487 297.507C253.419 297.518 261.35 297.48 269.283 297.448L281.18 297.344C285.147 297.287 289.113 297.246 293.078 297.163Z" fill="#C7D8F0"/>
<path d="M284.971 288.567C281.161 288.506 277.35 288.478 273.539 288.437L262.107 288.362C254.485 288.34 246.864 288.313 239.242 288.319C231.62 288.343 223.998 288.328 216.376 288.381C208.755 288.419 201.133 288.47 193.511 288.567C201.133 288.664 208.755 288.715 216.376 288.753C223.998 288.805 231.62 288.791 239.242 288.814C246.864 288.821 254.485 288.795 262.107 288.772L273.539 288.697C277.35 288.656 281.161 288.626 284.971 288.567Z" fill="#C7D8F0"/>
<path d="M284.971 301.826C281.161 301.765 277.35 301.737 273.539 301.695L262.107 301.621C254.485 301.599 246.864 301.572 239.242 301.578C231.62 301.601 223.998 301.587 216.376 301.64C208.755 301.677 201.133 301.729 193.511 301.826C201.133 301.922 208.755 301.974 216.376 302.011C223.998 302.064 231.62 302.05 239.242 302.073C246.864 302.08 254.485 302.054 262.107 302.031L273.539 301.956C277.35 301.915 281.161 301.885 284.971 301.826Z" fill="#C7D8F0"/>
<path d="M282.015 291.858C278.902 291.785 275.789 291.749 272.677 291.698L263.339 291.607C257.113 291.58 250.888 291.546 244.664 291.555C238.439 291.584 232.213 291.567 225.989 291.631C219.764 291.678 213.538 291.741 207.314 291.86C213.54 291.978 219.765 292.041 225.989 292.088C232.214 292.152 238.44 292.135 244.664 292.164C250.889 292.173 257.115 292.139 263.339 292.112L272.677 292.021C275.789 291.97 278.902 291.934 282.015 291.861V291.858Z" fill="#C7D8F0"/>
<path d="M180.743 313.233H373.51C374.197 313.233 374.754 312.675 374.754 311.988V274.949C374.754 274.262 374.197 273.705 373.51 273.705H180.743C180.056 273.705 179.499 274.262 179.499 274.949C179.499 275.637 180.056 276.194 180.743 276.194H372.264V310.743H180.743C180.056 310.743 179.499 311.3 179.499 311.987C179.499 312.674 180.056 313.231 180.743 313.231V313.233Z" fill="#BD934A"/>
<path d="M191.279 273.124H308.351V236.201H191.279V273.124Z" fill="white"/>
<path d="M307.729 273.124H380.24V236.201H307.729V273.124Z" fill="#C7D8F0"/>
<path d="M374.754 244.657C372.119 244.561 369.482 244.513 366.846 244.448L358.938 244.328C353.666 244.292 348.395 244.249 343.122 244.261C337.85 244.297 332.578 244.276 327.306 244.36C322.033 244.421 316.762 244.502 311.49 244.657C316.762 244.811 322.033 244.893 327.306 244.953C332.578 245.037 337.85 245.016 343.122 245.052C348.395 245.064 353.666 245.02 358.938 244.985L366.846 244.865C369.482 244.8 372.119 244.753 374.754 244.657Z" fill="white"/>
<path d="M375.972 257.949C373.524 257.865 371.077 257.825 368.63 257.769L361.287 257.664C356.393 257.633 351.498 257.596 346.603 257.605C341.709 257.637 336.814 257.618 331.919 257.691C327.025 257.744 322.13 257.814 317.235 257.949C322.13 258.083 327.025 258.154 331.919 258.207C336.814 258.279 341.709 258.261 346.603 258.293C351.498 258.304 356.393 258.266 361.287 258.234L368.63 258.13C371.077 258.073 373.524 258.032 375.972 257.949Z" fill="white"/>
<path d="M370.969 249.351C368.617 249.29 366.266 249.262 363.914 249.221L356.86 249.146C352.157 249.124 347.453 249.097 342.751 249.104C338.048 249.127 333.344 249.113 328.642 249.165C323.939 249.203 319.235 249.254 314.533 249.351C319.235 249.448 323.939 249.499 328.642 249.537C333.344 249.59 338.048 249.575 342.751 249.599C347.453 249.605 352.157 249.579 356.86 249.556L363.914 249.481C366.266 249.44 368.617 249.41 370.969 249.351Z" fill="white"/>
<path d="M370.969 262.612C368.617 262.551 366.266 262.523 363.914 262.482L356.86 262.407C352.157 262.385 347.453 262.358 342.751 262.364C338.048 262.387 333.344 262.373 328.642 262.426C323.939 262.464 319.235 262.515 314.533 262.612C319.235 262.709 323.939 262.76 328.642 262.797C333.344 262.85 338.048 262.836 342.751 262.859C347.453 262.866 352.157 262.84 356.86 262.817L363.914 262.742C366.266 262.701 368.617 262.671 370.969 262.612Z" fill="white"/>
<path d="M369.144 252.643C367.223 252.57 365.303 252.534 363.382 252.483L357.619 252.392C353.778 252.365 349.937 252.331 346.095 252.34C342.254 252.369 338.413 252.352 334.572 252.416C330.731 252.463 326.889 252.526 323.048 252.645C326.889 252.763 330.731 252.826 334.572 252.873C338.413 252.937 342.254 252.921 346.095 252.949C349.937 252.958 353.778 252.924 357.619 252.897L363.382 252.806C365.303 252.756 367.223 252.719 369.144 252.646V252.643Z" fill="white"/>
<path d="M297.757 244.657C293.485 244.561 289.214 244.513 284.942 244.448L272.126 244.328C263.582 244.292 255.039 244.249 246.495 244.261C237.951 244.297 229.407 244.276 220.864 244.36C212.32 244.421 203.776 244.502 195.232 244.657C203.776 244.811 212.32 244.893 220.864 244.953C229.407 245.037 237.951 245.016 246.495 245.052C255.039 245.064 263.582 245.02 272.126 244.985L284.942 244.865C289.214 244.8 293.485 244.753 297.757 244.657Z" fill="#C7D8F0"/>
<path d="M299.73 257.949C295.764 257.865 291.798 257.825 287.833 257.769L275.935 257.664C268.003 257.633 260.071 257.596 252.139 257.605C244.206 257.637 236.275 257.618 228.342 257.691C220.41 257.744 212.478 257.814 204.546 257.949C212.478 258.083 220.41 258.154 228.342 258.207C236.275 258.279 244.206 258.261 252.139 258.293C260.071 258.304 268.003 258.266 275.935 258.234L287.833 258.13C291.799 258.073 295.765 258.032 299.73 257.949Z" fill="#C7D8F0"/>
<path d="M291.624 249.351C287.813 249.29 284.002 249.262 280.191 249.221L268.759 249.146C261.138 249.124 253.516 249.097 245.894 249.104C238.272 249.127 230.65 249.113 223.029 249.165C215.407 249.203 207.785 249.254 200.163 249.351C207.785 249.448 215.407 249.499 223.029 249.537C230.65 249.59 238.272 249.575 245.894 249.599C253.516 249.605 261.138 249.579 268.759 249.556L280.191 249.481C284.002 249.44 287.813 249.41 291.624 249.351Z" fill="#C7D8F0"/>
<path d="M291.624 262.612C287.813 262.551 284.002 262.523 280.191 262.482L268.759 262.407C261.138 262.385 253.516 262.358 245.894 262.364C238.272 262.387 230.65 262.373 223.029 262.426C215.407 262.464 207.785 262.515 200.163 262.612C207.785 262.709 215.407 262.76 223.029 262.797C230.65 262.85 238.272 262.836 245.894 262.859C253.516 262.866 261.138 262.84 268.759 262.817L280.191 262.742C284.002 262.701 287.813 262.671 291.624 262.612Z" fill="#C7D8F0"/>
<path d="M288.666 252.643C285.553 252.57 282.44 252.534 279.328 252.483L269.99 252.392C263.764 252.365 257.539 252.331 251.315 252.34C245.089 252.369 238.864 252.352 232.64 252.416C226.415 252.463 220.189 252.526 213.965 252.645C220.191 252.763 226.416 252.826 232.64 252.873C238.865 252.937 245.091 252.921 251.315 252.949C257.54 252.958 263.765 252.924 269.99 252.897L279.328 252.806C282.44 252.756 285.553 252.719 288.666 252.646V252.643Z" fill="#C7D8F0"/>
<path d="M187.394 274.019H380.161C380.848 274.019 381.405 273.462 381.405 272.774V235.736C381.405 235.048 380.848 234.491 380.161 234.491H187.394C186.707 234.491 186.15 235.048 186.15 235.736C186.15 236.423 186.707 236.98 187.394 236.98H378.915V271.529H187.394C186.707 271.529 186.15 272.086 186.15 272.773C186.15 273.46 186.707 274.017 187.394 274.017V274.019Z" fill="#004E7C"/>
<path d="M361.896 268.866C361.896 268.866 357.12 255.822 346.095 252.948L359.518 252.865C359.518 252.865 369.144 254.254 373.478 268.864C373.478 268.864 367.212 266.768 361.896 268.864V268.866Z" fill="#004E7C"/>
<path d="M282.779 55.9747C282.779 55.9747 272.942 45.0261 262.872 48.612C252.801 52.1979 242.044 60.0531 241.426 79.0864C240.857 96.6252 229.492 108.458 220.527 117.945C211.562 127.43 207.806 160.894 256.444 162.115C305.081 163.336 297.086 135.767 292.79 122.095C288.495 108.423 288.271 88.9557 293.651 80.4222C299.03 71.8888 291.857 54.8541 282.779 55.9747Z" fill="#4E4E4E"/>
<path d="M329.635 217.761C323.098 223.787 313.058 228.659 305.925 231.64C300.829 233.77 295.365 234.865 289.843 234.853L276.108 234.825C276.108 234.825 337.463 210.542 329.633 217.761H329.635Z" fill="#4E4E4E"/>
<path d="M349.701 229.323L338.765 258.749L324.488 297.171C324.488 297.171 320.614 297.545 316.904 296.478C313.488 295.49 309.569 292.907 309.569 292.907C309.569 292.907 312.537 251.652 319.932 227.97C321.827 221.892 324.948 216.974 327.29 214.207C338.755 200.658 349.701 229.322 349.701 229.322V229.323Z" fill="#4E4E4E"/>
<path d="M336.293 187.851C329.129 185.54 310.63 187.337 290.458 187.264L286.16 180.175L241.825 176.713C241.825 176.713 230.088 193.624 233.9 219.877C235.248 229.163 242.761 234.215 250.232 234.215C255.424 234.215 272.844 234.866 281.414 234.866C303.463 234.866 322.393 223.594 325.425 222.43C328.251 221.344 338.461 236.615 345.71 246.332C357.85 262.604 390.2 290.232 390.2 290.232C390.2 290.232 396.388 287.936 399.168 286.893C402.157 285.773 403.251 284.316 403.251 284.316C403.251 284.316 352.451 193.062 336.295 187.85L336.293 187.851Z" fill="#A6A8A9"/>
<path d="M274.679 112.548C277.565 115.112 269.979 119.072 264.267 118.599C258.181 118.095 250.992 101.829 251.066 101.825C253.308 101.722 255.771 99.7604 257.666 86.8945L258.622 87.2375L274.679 93.0154C274.679 93.0154 272.763 98.11 272.763 103.073C272.763 105.991 273.893 111.848 274.679 112.548Z" fill="#FFC8BB"/>
<path d="M274.679 93.0149C274.679 93.0149 273.557 96.869 272.804 101.774C263.11 98.0231 259.92 93.7177 258.622 88.7314L274.679 93.0136V93.0149Z" fill="#EAAFA2"/>
<path d="M274.874 99.0666C274.874 99.0666 254.127 94.1319 257.397 80.7193C260.666 67.3067 261.281 57.8436 275.218 60.416C289.157 62.9871 290.58 68.7573 290.578 73.4998C290.575 78.2423 282.766 101.375 274.874 99.0679V99.0666Z" fill="#FFC8BB"/>
<path d="M284.193 64.4815C284.193 64.4815 271.845 78.4434 264.067 76.8703C254.643 74.9658 252.798 73.6132 252.798 73.6132C252.798 73.6132 258.835 69.4587 262.895 62.2405C264.092 60.1129 266.334 58.7809 268.775 58.7912C275.631 58.8196 282.288 58.2265 284.194 64.4815H284.193Z" fill="#4E4E4E"/>
<path d="M281.797 64.1016C281.797 64.1016 286.064 70.2754 287.118 73.8058C288.932 79.8777 288.101 83.7151 286.689 86.6937C286.689 86.6937 295.274 73.1585 291.764 65.8874C288.043 58.178 281.798 64.1016 281.798 64.1016H281.797Z" fill="black"/>
<path d="M291.166 144.082C286.049 171.141 289.71 181.824 286.119 183.481C284.711 184.13 281.651 185.101 277.315 185.389C263.679 186.294 239.707 184.048 238.796 181.527C235.651 172.807 237.871 170.099 235.247 156.748C234.974 155.328 234.635 153.791 234.238 152.118C232.049 142.949 229.921 139.83 237.683 125.099C244.722 111.756 252.036 100.926 252.693 101.317C259.657 105.451 267.102 117.99 270.006 117.305C273.087 116.576 272.764 103.076 272.764 103.076C272.764 103.076 295.198 122.767 291.167 144.082H291.166Z" fill="#EE7773"/>
<path d="M338.765 258.751L323.628 300.999C323.628 300.999 320.186 300.167 316.476 299.1C313.06 298.112 309.14 295.529 309.14 295.529C309.14 295.529 312.537 251.655 319.932 227.974L338.765 258.752V258.751Z" fill="#A6A8A9"/>
<path d="M272.763 103.073C272.763 103.073 292.379 108.166 294.623 116.394C296.866 124.622 309.567 171.139 309.567 171.139C309.567 171.139 301.071 178.895 296.583 174.408C292.095 169.919 279.747 126.757 279.747 126.757L272.762 103.071L272.763 103.073Z" fill="#EE7773"/>
<path d="M284.181 184.588C270.06 187.427 239.707 184.047 238.796 181.526C235.651 172.805 237.871 170.098 235.247 156.747L245.089 139.8C245.089 139.8 235.513 160.259 241.595 165.684C247.671 171.108 271.72 174.745 274.677 179.277C276.103 181.452 283.908 182.834 284.181 184.586V184.588Z" fill="#DB6363"/>
<path d="M261.319 176.258C261.319 176.258 269.332 175.305 274.432 174.522C279.531 173.738 285.583 177.267 287.152 178.612C288.721 179.956 286.311 181.526 284.799 180.069C284.799 180.069 287.944 181.291 287.264 182.197C286.584 183.104 283.846 182.869 282.613 181.805C282.613 181.805 284.63 182.589 283.902 183.375C283.174 184.159 281.269 184.607 279.756 183.375C278.243 182.142 275.272 180.573 273.311 181.693C271.35 182.814 262.497 184.139 262.497 184.139C262.497 184.139 263.215 181.475 261.319 176.257V176.258Z" fill="#FFC8BB"/>
<path d="M252.682 101.308C252.682 101.308 236.568 102.5 230.314 111.222C221.511 123.499 203.197 174.697 213.204 181.676C224.475 189.535 263.401 184.779 263.401 184.779C263.401 184.779 264.259 178.168 264.267 175.9C264.276 173.135 232.779 168.528 231.135 166.063C230.044 164.428 246.896 139.174 246.896 135.004C246.896 130.834 252.682 101.31 252.682 101.31V101.308Z" fill="#EE7773"/>
<path d="M404.951 289.436C404.951 289.436 403.087 289.212 400.168 283.263L390.475 288.794C390.475 288.794 393.214 295.52 395.067 298.906L404.953 289.436H404.951Z" fill="#FFC8BB"/>
<path d="M393.472 296.148C393.472 296.148 398.702 295.304 403.79 288.514C403.79 288.514 410.48 287.868 416.351 288.009C419.056 288.073 421.75 287.588 423.87 287.045C426.411 286.396 429.073 287.503 430.374 289.783L430.98 290.845C431.432 291.638 431.156 292.648 430.363 293.101L400.446 310.175C399.653 310.628 398.644 310.352 398.191 309.559L396.312 306.268C396.312 306.268 393.58 302.036 393.472 296.149V296.148Z" fill="#0071ED"/>
<path d="M397.535 308.461L430.326 289.749L431.186 291.256C431.522 291.845 431.317 292.596 430.728 292.932L400.071 310.426C399.482 310.762 398.73 310.556 398.394 309.967L397.535 308.461Z" fill="#A6A8A9"/>
<path d="M407.27 288.323C407.283 288.08 407.097 287.873 406.855 287.86C406.613 287.847 406.406 288.033 406.393 288.275L406.216 291.525C406.203 291.767 406.389 291.974 406.631 291.988C406.873 292.001 407.08 291.815 407.093 291.572L407.27 288.323Z" fill="#004E7C"/>
<path d="M409.536 288.219C409.549 287.977 409.364 287.769 409.122 287.756C408.879 287.743 408.672 287.929 408.659 288.171L408.483 291.421C408.47 291.664 408.655 291.871 408.897 291.884C409.139 291.897 409.346 291.711 409.36 291.469L409.536 288.219Z" fill="#004E7C"/>
<path d="M411.959 288.082C411.972 287.84 411.786 287.633 411.544 287.62C411.302 287.606 411.095 287.792 411.082 288.035L410.905 291.284C410.892 291.527 411.078 291.734 411.32 291.747C411.562 291.76 411.769 291.575 411.782 291.332L411.959 288.082Z" fill="#004E7C"/>
<path d="M414.477 288.015C414.49 287.773 414.305 287.565 414.062 287.552C413.82 287.539 413.613 287.725 413.6 287.967L413.424 291.217C413.41 291.46 413.596 291.667 413.838 291.68C414.08 291.693 414.287 291.507 414.3 291.265L414.477 288.015Z" fill="#004E7C"/>
<path d="M416.992 287.63C417.005 287.388 416.819 287.181 416.577 287.167C416.335 287.154 416.128 287.34 416.115 287.583L415.939 290.832C415.925 291.075 416.111 291.282 416.353 291.295C416.595 291.308 416.802 291.122 416.815 290.88L416.992 287.63Z" fill="#004E7C"/>
<path d="M393.919 300.017C393.919 300.017 396.778 300.17 400.517 306.722L397.54 308.421C397.54 308.421 394.749 304.497 393.918 300.017H393.919Z" fill="#004E7C"/>
<path d="M398.49 294.845C397.21 295.576 395.693 296.213 393.91 296.644C393.576 296.724 393.241 296.519 393.16 296.185C393.078 295.851 393.283 295.515 393.617 295.434C400.82 293.697 403.36 288.22 403.386 288.164C403.527 287.852 403.895 287.712 404.207 287.852C404.521 287.994 404.66 288.362 404.519 288.675C404.433 288.866 402.802 292.382 398.49 294.844V294.845Z" fill="#004E7C"/>
<path d="M401.069 280.15L387.866 287.684C387.298 288.008 387.1 288.731 387.424 289.299L389.017 292.089C389.341 292.657 390.064 292.855 390.632 292.531L403.835 284.997C404.402 284.673 404.6 283.95 404.276 283.382L402.683 280.591C402.359 280.024 401.637 279.826 401.069 280.15Z" fill="#E7F4FA"/>
<path d="M319.696 308.994C319.696 308.994 319.651 305.305 322.611 300.038L310.293 296.01C310.293 296.01 310.126 300.999 306.629 304.916L319.696 308.996V308.994Z" fill="#FFC8BB"/>
<path d="M308.274 302.187C308.274 302.187 311.539 306.358 319.943 307.531C319.943 307.531 323.742 313.077 326.456 318.285C327.707 320.685 329.433 322.808 330.932 324.402C332.729 326.313 333.045 329.179 331.678 331.419L331.041 332.462C330.566 333.242 329.548 333.489 328.768 333.013L299.363 315.07C298.583 314.595 298.336 313.577 298.812 312.797L300.786 309.563C300.786 309.563 303.17 305.126 308.273 302.188L308.274 302.187Z" fill="#0071ED"/>
<path d="M299.501 311.678L331.73 331.343L330.826 332.823C330.473 333.402 329.716 333.585 329.137 333.232L299.007 314.847C298.428 314.494 298.244 313.737 298.598 313.158L299.501 311.678Z" fill="#A6A8A9"/>
<path d="M321.832 310.499C322.051 310.393 322.142 310.13 322.037 309.912C321.931 309.694 321.669 309.602 321.45 309.708L318.52 311.124C318.301 311.23 318.209 311.492 318.315 311.71C318.42 311.929 318.683 312.02 318.902 311.914L321.832 310.499Z" fill="#004E7C"/>
<path d="M322.946 312.409C323.164 312.303 323.256 312.04 323.151 311.822C323.045 311.604 322.782 311.512 322.564 311.618L319.633 313.033C319.414 313.139 319.323 313.402 319.428 313.62C319.534 313.838 319.796 313.93 320.015 313.824L322.946 312.409Z" fill="#004E7C"/>
<path d="M324.235 314.465C324.453 314.36 324.545 314.097 324.44 313.879C324.334 313.66 324.072 313.569 323.853 313.675L320.922 315.09C320.704 315.196 320.612 315.458 320.717 315.677C320.823 315.895 321.086 315.986 321.304 315.881L324.235 314.465Z" fill="#004E7C"/>
<path d="M325.51 316.637C325.728 316.532 325.82 316.269 325.715 316.051C325.609 315.832 325.346 315.741 325.128 315.846L322.197 317.262C321.979 317.368 321.887 317.63 321.992 317.849C322.098 318.067 322.36 318.158 322.579 318.053L325.51 316.637Z" fill="#004E7C"/>
<path d="M327.065 318.653C327.283 318.547 327.375 318.285 327.27 318.066C327.164 317.848 326.902 317.757 326.683 317.862L323.752 319.278C323.534 319.383 323.442 319.646 323.547 319.864C323.653 320.083 323.916 320.174 324.134 320.068L327.065 318.653Z" fill="#004E7C"/>
<path d="M305.102 304.448C305.102 304.448 306.349 307.026 302.42 313.465L299.494 311.679C299.494 311.679 301.582 307.34 305.102 304.448Z" fill="#004E7C"/>
<path d="M311.84 305.951C310.582 305.182 309.29 304.164 308.052 302.81C307.821 302.556 307.838 302.162 308.091 301.932C308.344 301.7 308.737 301.718 308.969 301.97C313.971 307.437 319.994 307.015 320.054 307.009C320.396 306.982 320.696 307.236 320.725 307.578C320.752 307.921 320.498 308.22 320.156 308.249C319.947 308.265 316.08 308.536 311.842 305.95L311.84 305.951Z" fill="#004E7C"/>
<path d="M324.591 297.779L310.041 293.378C309.415 293.189 308.754 293.542 308.565 294.168L307.635 297.244C307.445 297.87 307.799 298.53 308.425 298.719L322.975 303.121C323.601 303.31 324.261 302.956 324.451 302.33L325.381 299.255C325.57 298.629 325.217 297.968 324.591 297.779Z" fill="#E7F4FA"/>
<path d="M281.709 186.901H346.538L365.65 139.375C365.837 138.911 365.495 138.405 364.995 138.405H302.492C301.779 138.405 301.137 138.839 300.87 139.5L281.71 186.901H281.709Z" fill="#004E7C"/>
<path d="M347.297 185.011H262.413C261.616 185.011 260.969 185.657 260.969 186.455C260.969 187.252 261.615 187.899 262.413 187.899H345.167C345.974 187.899 346.68 187.355 346.885 186.575L347.296 185.011H347.297Z" fill="#004E7C"/>
<path d="M329.993 161.756C330.394 160.357 329.586 159.223 328.187 159.223C326.788 159.223 325.328 160.357 324.927 161.756C324.526 163.155 325.334 164.29 326.735 164.29C328.135 164.29 329.593 163.155 329.994 161.756H329.993Z" fill="white"/>
<path d="M578.989 326.19C593.485 326.19 605.236 325.301 605.236 324.204C605.236 323.108 593.485 322.219 578.989 322.219C564.494 322.219 552.743 323.108 552.743 324.204C552.743 325.301 564.494 326.19 578.989 326.19Z" fill="#E7F4FA"/>
<path d="M582.164 295.426L580.085 295.259C583.029 258.295 579.398 218.104 579.361 217.703L581.438 217.511C581.475 217.914 585.123 258.276 582.165 295.424L582.164 295.426Z" fill="#49B79A"/>
<path d="M582.626 222.556C580.524 223.42 577.547 224.449 571.767 211.908C565.988 199.367 565.463 195.877 563.243 193.139C561.023 190.402 546.893 170.037 539.064 166.071C539.064 166.071 547.188 164.407 553.576 169.196C553.576 169.196 552.581 170.131 553.022 170.271C553.291 170.357 553.923 169.699 553.923 169.699C553.923 169.699 565.452 181.945 569.315 187.246C569.315 187.246 567.762 190.353 568.403 191.871C569.044 193.388 570.929 189.106 570.929 189.106C570.929 189.106 580.81 202.062 583.181 208.049C585.553 214.036 587.534 220.539 582.628 222.556H582.626Z" fill="#49B79A"/>
<path d="M606.479 247.891C606.479 247.891 614.093 249.039 621.739 241.939C621.739 241.939 619.403 239.088 620.555 238.023C621.709 236.958 624.318 239.706 624.318 239.706C624.318 239.706 628.295 233.945 630.849 231.971C633.402 229.997 636.357 227.932 639.237 227.957C639.237 227.957 633.789 227.416 633.892 226.378C633.995 225.34 643.149 221.533 650.87 226.884C650.87 226.884 649.905 220.763 642.565 220.821C642.565 220.821 642.913 218.629 643.949 217.422C643.949 217.422 641.111 215.657 638.081 215.836C638.081 215.836 637.088 217.921 635.91 219.244C634.731 220.568 633.653 219.544 634.053 216.833C634.053 216.833 628.855 220.377 623.667 219.863C623.667 219.863 622.838 221.614 621.088 222.096C621.088 222.096 620.789 221.15 621.034 219.996C621.034 219.996 617.989 224.278 615.656 225.357C613.322 226.435 606.645 229.047 604.793 233.187C602.942 237.326 601.416 243.461 606.479 247.892V247.891Z" fill="#69CCB4"/>
<path d="M628.929 224.299C628.929 224.299 627.756 225.015 625.815 226.433C623.877 227.853 621.167 229.975 618.173 232.818C615.19 235.664 611.887 239.224 609.018 243.555C607.585 245.718 606.26 248.065 605.156 250.573C604.048 253.096 603.312 255.742 602.267 258.263C601.259 260.773 600.131 263.264 598.941 265.672C597.762 268.087 596.522 270.425 595.284 272.667C592.807 277.153 590.325 281.247 588.137 284.715C585.943 288.183 584.043 291.024 582.696 293C581.336 294.959 580.559 296.078 580.559 296.078L582.41 297.376C582.41 297.376 583.174 296.225 584.509 294.208C585.823 292.186 587.675 289.284 589.806 285.744C591.933 282.204 594.341 278.027 596.74 273.45C599.134 268.866 601.527 263.907 603.489 258.706C604.49 256.133 605.175 253.456 606.168 250.997C607.172 248.527 608.404 246.192 609.753 244.027C612.449 239.688 615.6 236.048 618.478 233.128C621.365 230.207 624.001 228.005 625.888 226.527C627.78 225.051 628.93 224.298 628.93 224.298L628.929 224.299Z" fill="#49B79A"/>
<path d="M594.996 226.123C594.996 226.123 609.073 217.782 617.242 201.966C617.242 201.966 612.028 199.186 612.549 197.969C613.07 196.753 616.895 198.143 618.111 197.969C619.327 197.794 624.02 194.492 628.017 185.456C628.017 185.456 622.977 184.761 623.325 183.371C623.673 181.981 625.324 181.633 628.93 182.328C628.93 182.328 632.363 174.507 634.101 172.421C634.101 172.421 631.668 171.726 631.842 170.857C632.016 169.988 638.098 168.598 638.098 168.598C638.098 168.598 628.54 165.818 614.81 171.9C614.81 171.9 615.331 175.028 613.594 175.202C611.856 175.376 611.856 173.117 611.856 173.117C611.856 173.117 604.835 176.766 603.044 180.069C601.254 183.371 602.123 191.886 601.08 192.755C600.037 193.624 597.952 192.929 596.735 191.365C596.735 191.365 592.389 193.45 591.521 205.79C590.652 218.129 594.998 226.123 594.998 226.123H594.996Z" fill="#69CCB4"/>
<path d="M626.956 172.423C626.956 172.423 625.21 173.68 622.41 176.196C620.995 177.439 619.35 179.026 617.523 180.91C616.611 181.854 615.675 182.889 614.677 183.974C613.729 185.101 612.672 186.237 611.687 187.519C610.69 188.793 609.631 190.106 608.639 191.541C608.134 192.253 607.603 192.965 607.099 193.711C606.609 194.468 606.111 195.237 605.606 196.016C604.554 197.547 603.685 199.253 602.697 200.936C602.224 201.79 601.814 202.688 601.362 203.577C600.937 204.477 600.433 205.352 600.069 206.303C599.297 208.18 598.428 210.057 597.814 212.062C597.482 213.055 597.128 214.046 596.809 215.057C596.514 216.061 596.219 217.071 595.921 218.084C594.746 222.148 593.584 226.296 592.556 230.477C591.521 234.656 590.581 238.868 589.855 243.054C589.108 247.235 588.583 251.378 587.963 255.331C587.337 259.271 586.6 263.108 585.943 266.728C585.26 270.349 584.614 273.771 584.018 276.931C582.804 283.244 581.702 288.484 580.863 292.127C580.025 295.772 579.433 297.799 579.433 297.799L581.361 298.35C581.361 298.35 581.973 296.254 582.818 292.58C583.666 288.903 584.771 283.642 585.99 277.313C586.603 274.148 587.239 270.717 587.885 267.082C588.522 263.44 589.23 259.632 589.841 255.621C590.442 251.62 590.937 247.506 591.65 243.365C592.345 239.22 593.208 235.036 594.19 230.873C595.165 226.705 596.269 222.573 597.392 218.507C597.677 217.49 597.962 216.477 598.244 215.469C598.544 214.48 598.88 213.505 599.192 212.531C599.769 210.562 600.6 208.711 601.335 206.86C601.681 205.923 602.167 205.058 602.574 204.167C603.008 203.289 603.4 202.399 603.856 201.555C604.322 200.714 604.782 199.883 605.236 199.061C605.672 198.228 606.145 197.43 606.636 196.658C607.117 195.878 607.59 195.109 608.058 194.351C608.539 193.602 609.05 192.887 609.532 192.173C610.481 190.73 611.5 189.41 612.457 188.126C613.412 186.84 614.404 185.665 615.302 184.513C616.249 183.4 617.138 182.335 618.007 181.362C619.757 179.43 621.319 177.774 622.649 176.454C623.967 175.119 625.062 174.131 625.8 173.448C626.542 172.771 626.954 172.425 626.954 172.425L626.956 172.423Z" fill="#49B79A"/>
<path d="M575.705 222.995C572.504 223.143 568.059 223.169 565.973 209.439C563.888 195.71 564.757 192.235 563.019 188.932C561.28 185.63 551.548 161.821 542.858 155.564C542.858 155.564 552.591 156.608 558.499 161.821C558.499 161.821 557.283 163.211 558.151 164.428C559.02 165.644 560.584 162.864 560.584 162.864C560.584 162.864 571.012 179.027 573.792 185.283C573.792 185.283 570.315 187.733 570.489 189.376C570.664 191.019 574.487 189.376 574.487 189.376C574.487 189.376 581.003 203.357 581.482 209.787C581.96 216.218 583.176 222.648 575.704 222.995H575.705Z" fill="#69CCB4"/>
<path d="M580.225 294.607L578.14 294.587C578.483 259.421 575.05 220.178 575.015 219.786L577.093 219.603C577.127 219.996 580.569 259.339 580.225 294.609V294.607Z" fill="#69CCB4"/>
<path d="M568.189 253.235C568.189 253.235 557.371 248.022 555.807 238.766C554.243 229.512 553.982 221.865 550.332 217.606C550.332 217.606 551.635 217.172 553.59 217.606C553.59 217.606 548.898 214.522 547.855 212.175C546.812 209.829 540.686 201.487 519.44 200.574C519.44 200.574 529.737 196.795 538.078 200.574C538.078 200.574 539.252 199.896 536.514 197.043C536.514 197.043 542.771 196.795 549.027 199.141C549.027 199.141 548.636 204.485 549.94 204.485C551.244 204.485 550.983 199.793 550.983 199.793C550.983 199.793 557.313 201.227 562.36 205.659C562.36 205.659 559.977 211.654 560.499 212.045C561.02 212.436 563.757 209.177 564.278 207.744C564.278 207.744 568.971 213.001 571.448 219.691L566.495 227.556L573.018 222.839C573.018 222.839 576.917 230.089 577.369 237.563C577.819 245.036 574.706 251.668 568.189 253.232V253.235Z" fill="#49B79A"/>
<path d="M561.542 225.136C561.542 225.136 562.618 229.356 564.13 235.703C564.918 238.867 565.748 242.58 566.675 246.548C567.568 250.523 568.488 254.772 569.32 259.035C570.158 263.298 570.946 267.57 571.585 271.589C571.921 273.596 572.229 275.538 572.482 277.386C572.742 279.232 573.015 280.973 573.21 282.588C573.418 284.201 573.609 285.678 573.778 286.988C573.917 288.301 574.038 289.446 574.139 290.389C574.337 292.274 574.449 293.352 574.449 293.352L576.525 293.148C576.525 293.148 576.398 292.064 576.173 290.164C576.06 289.215 575.923 288.062 575.766 286.741C575.579 285.423 575.369 283.938 575.138 282.317C574.928 280.692 574.614 278.947 574.305 277.097C574.006 275.246 573.649 273.301 573.264 271.293C572.524 267.272 571.631 263.004 570.688 258.747C569.751 254.491 568.727 250.255 567.737 246.293C567.222 244.316 566.754 242.399 566.242 240.597C565.738 238.795 565.261 237.091 564.82 235.518C563.001 229.241 561.541 225.136 561.541 225.136H561.542Z" fill="#69CCB4"/>
<path d="M570.014 296.726C570.014 296.726 565.973 268.615 565.191 264.706C564.409 260.795 552.679 248.152 543.424 246.718C534.17 245.284 527.261 245.292 523.352 247.96C523.352 247.96 527.131 241.894 537.689 242.937L535.474 241.634C535.474 241.634 540.818 242.547 543.685 242.547C546.553 242.547 547.041 244.371 548.426 244.371C549.811 244.371 552.287 245.284 553.721 246.978C553.721 246.978 568.84 252.061 567.537 264.445L571.448 296.727H570.014V296.726Z" fill="#49B79A"/>
<path d="M610.513 287.476C603.323 319.715 596.366 323.658 596.366 323.658H562.967C557.366 307.552 554.143 293.434 552.899 287.476H610.515H610.513Z" fill="#00DDF7"/>
<path d="M552.898 287.476C554.142 293.434 557.364 307.552 562.966 323.658H559.719C551.601 309.279 548.354 287.476 548.354 287.476H552.898Z" fill="#00DDF7"/>
<path d="M610.703 286.708H547.87C546.843 286.708 546.01 287.541 546.01 288.569V288.57C546.01 289.598 546.843 290.431 547.87 290.431H610.703C611.731 290.431 612.564 289.598 612.564 288.57V288.569C612.564 287.541 611.731 286.708 610.703 286.708Z" fill="#0071ED"/>
<path d="M501.693 390.766C548.936 390.766 587.234 387.542 587.234 383.565C587.234 379.587 548.936 376.363 501.693 376.363C454.451 376.363 416.153 379.587 416.153 383.565C416.153 387.542 454.451 390.766 501.693 390.766Z" fill="#E6E6E6"/>
<path d="M501.506 355.648C501.506 355.648 500.521 367.593 501.506 372.551C501.506 372.551 498.273 375.035 489.284 368.77C489.284 368.77 487.987 363.26 489.364 355.948C489.364 355.948 494.881 345.008 501.506 355.649V355.648Z" fill="#FFC8BB"/>
<path d="M499.602 369.819C499.602 369.819 502.431 369.855 503.389 374.395C504.348 378.935 504.436 381.702 504.436 381.702C504.436 381.702 493.001 381.702 486.359 382.802C479.718 383.902 471.902 384.599 460.744 379.101C460.744 379.101 458.842 375.029 462.172 374.618C465.503 374.207 472.71 374.676 475.896 372.694C479.081 370.712 483.245 367.886 485.006 366.845C486.766 365.805 487.733 363.732 488.894 365.553C490.056 367.373 490.533 372.591 499.602 369.82V369.819Z" fill="#004E7C"/>
<path d="M485.372 372.897C485.122 373.08 484.782 373.008 484.615 372.736L482.659 369.568C482.491 369.296 482.557 368.927 482.807 368.744C483.057 368.561 483.396 368.633 483.564 368.905L485.52 372.073C485.688 372.345 485.622 372.714 485.372 372.897Z" fill="white"/>
<path d="M484.078 373.842C483.828 374.025 483.489 373.953 483.322 373.681L481.365 370.513C481.198 370.241 481.264 369.872 481.514 369.689C481.764 369.506 482.103 369.578 482.271 369.85L484.227 373.018C484.394 373.29 484.329 373.659 484.078 373.842Z" fill="white"/>
<path d="M482.784 374.789C482.534 374.972 482.195 374.9 482.027 374.627L480.071 371.459C479.903 371.187 479.969 370.818 480.219 370.635C480.469 370.452 480.808 370.524 480.976 370.797L482.932 373.965C483.1 374.237 483.034 374.606 482.784 374.789Z" fill="white"/>
<path d="M504.436 381.702L504.716 386.222C504.716 386.222 487.835 386.105 482.65 386.05C477.465 385.995 472.436 386.13 468.363 384.758C464.29 383.386 461 382.615 460.742 379.1C460.742 379.1 467.812 383.791 477.974 383.533C488.136 383.275 486.384 381.642 497.259 381.802C505.003 381.916 504.436 381.702 504.436 381.702Z" fill="#4E4E4E"/>
<path d="M549.375 349.972C549.375 349.972 551.276 361.786 553.411 366.294C553.411 366.294 550.881 369.607 540.705 366.1C540.705 366.1 538.136 361.146 537.72 353.696C537.72 353.696 540.436 341.571 549.374 349.972H549.375Z" fill="#FFC8BB"/>
<path d="M550.921 364.195C550.921 364.195 553.661 363.429 555.671 367.542C557.682 371.655 558.427 374.303 558.427 374.303C558.427 374.303 547.384 377.535 541.234 380.476C535.083 383.417 527.704 386.301 515.614 384.147C515.614 384.147 512.806 380.753 515.923 379.414C519.041 378.074 526.113 376.489 528.716 373.676C531.319 370.862 534.665 366.954 536.116 365.451C537.568 363.947 538.006 361.674 539.563 363.103C541.119 364.531 542.825 369.435 550.92 364.195H550.921Z" fill="#004E7C"/>
<path d="M537.915 371.192C537.717 371.439 537.372 371.465 537.145 371.25L534.499 368.744C534.272 368.529 534.248 368.154 534.446 367.906C534.643 367.659 534.989 367.633 535.216 367.848L537.862 370.353C538.089 370.569 538.113 370.944 537.915 371.192Z" fill="white"/>
<path d="M536.891 372.471C536.694 372.718 536.348 372.744 536.121 372.529L533.475 370.024C533.248 369.808 533.224 369.433 533.422 369.185C533.62 368.938 533.965 368.912 534.192 369.127L536.838 371.633C537.065 371.848 537.089 372.223 536.891 372.471Z" fill="white"/>
<path d="M535.868 373.751C535.671 373.999 535.326 374.025 535.099 373.809L532.453 371.304C532.226 371.089 532.201 370.713 532.4 370.466C532.597 370.218 532.943 370.192 533.17 370.408L535.816 372.913C536.042 373.128 536.067 373.504 535.868 373.751Z" fill="white"/>
<path d="M558.427 374.302L559.777 378.588C559.777 378.588 543.448 383.249 538.428 384.663C533.408 386.077 528.584 387.63 524.324 387.456C520.064 387.283 516.702 387.468 515.614 384.147C515.614 384.147 523.561 386.677 533.311 383.554C543.062 380.431 540.981 379.35 551.519 376.428C559.025 374.347 558.426 374.301 558.426 374.301L558.427 374.302Z" fill="#4E4E4E"/>
<path d="M487.565 172.181C487.565 172.181 479.818 263.803 480.413 277.69C481.008 291.576 486.995 362.038 486.995 362.038C486.995 362.038 494.137 360.733 502.827 363.272C502.827 363.272 505.675 296.376 505.56 277.69C505.56 277.69 513.657 229.045 513.657 172.114C513.657 172.114 500.421 172.114 487.564 172.181H487.565Z" fill="#16168C"/>
<path d="M541.724 169.73C541.724 169.73 546.968 189.136 543.992 206.112C539.079 234.13 537.695 267.006 537.695 267.006L551.888 357.023C551.888 357.023 545.718 357.163 536.748 360.782C536.748 360.782 512.786 285.776 512.786 272.074C512.786 258.37 505.625 228.928 503.294 212.902C500.962 196.876 495.467 172.422 495.467 172.422C495.467 172.422 531.495 172.144 541.724 169.732V169.73Z" fill="#16168C"/>
<path d="M509.552 246.8L504.209 218.555L508.285 257.969L509.552 246.8Z" fill="#030D74"/>
<path d="M477.9 112.769C477.9 112.769 471.777 105.891 460.53 104.432L454.415 129.221C454.415 129.221 425.518 135.65 400.073 146.437L403.875 157.065C403.875 157.065 435.159 149.051 450.155 147.907C458.746 147.252 467.258 142.564 469.926 136.101C472.594 129.637 477.9 112.77 477.9 112.77V112.769Z" fill="#FFC8BB"/>
<path d="M460.279 105.52C460.279 105.52 471.739 111.815 476.512 117.111L476.929 115.819C476.929 115.819 471.9 109.766 460.279 105.52Z" fill="#EAAFA2"/>
<path d="M484.161 69.9404C484.161 69.9404 495.789 78.8607 477.755 116.958C477.755 116.958 471.944 108.98 456.927 104.406C456.927 104.406 457.875 91.7705 461.317 80.2907C463.764 72.1312 484.161 69.9404 484.161 69.9404Z" fill="#FDB813"/>
<path d="M460.279 105.52C460.279 105.52 458.096 104.523 456.927 104.404C456.927 104.404 457.47 105.514 459.973 106.849L460.279 105.518V105.52Z" fill="#E09E48"/>
<path d="M477.754 116.957C477.754 116.957 477.277 117.204 476.512 117.111L476.929 115.819L477.754 116.958V116.957Z" fill="#E09E48"/>
<path d="M402.786 145.511C402.786 145.511 389.159 147.092 383.9 149.096C380.154 150.524 376.036 152.326 373.977 153.242C373.228 153.576 372.861 154.431 373.139 155.204C373.406 155.95 374.187 156.381 374.961 156.206C377.019 155.741 381.06 154.788 384.558 153.714C384.558 153.714 378.828 155.521 381.258 159.283C383.422 162.632 386.625 163.653 388.42 163.542C388.965 163.509 389.415 163.104 389.503 162.565C389.615 161.871 389.094 161.243 388.391 161.214C387.789 161.188 384.134 159.323 384.001 158.582C383.588 156.291 386.212 155.643 386.212 155.643C386.212 155.643 385.077 158.748 386.007 160.292C386.937 161.835 388.907 164.484 391.473 163.566C394.039 162.648 397.245 158.697 403.876 157.062C410.508 155.427 402.786 145.51 402.786 145.51V145.511Z" fill="#FFC8BB"/>
<path d="M543.333 173.366C543.333 173.366 541.725 116.359 533.391 91.6341C525.058 66.908 520.848 62.5175 516.943 60.8593C513.038 59.2011 490.091 62.7341 473.51 67.9215C456.93 73.1076 457.962 95.7577 457.962 95.7577C457.962 95.7577 462.732 94.5353 469.725 96.2631C469.725 96.2631 484.345 151.177 485.426 180.728C485.426 180.728 530.294 178.563 543.332 173.366H543.333Z" fill="#FDB813"/>
<path d="M504.362 61.1826C504.362 61.1826 502.341 74.3374 490.1 76.1245C477.86 77.9117 473.51 67.9212 473.51 67.9212C473.51 67.9212 481.302 63.2251 504.362 61.1839V61.1826Z" fill="#FFC8BB"/>
<path d="M453.782 29.086C453.782 29.086 452.194 36.5286 456.371 45.0607C456.371 45.0607 455.2 52.0223 455.51 53.1145C455.819 54.2066 459.663 53.6689 459.663 53.6689C459.663 53.6689 462.025 59.4404 463.03 61.6982C464.033 63.956 464.834 65.8179 467.823 65.1526C470.812 64.4859 476.217 62.4087 478.36 64.5259C478.637 64.7993 482.351 72.7125 487.769 69.9892C489.021 69.36 507.248 60.6783 503.125 61.2018C498.035 61.8491 488.954 48.0818 489.991 39.8875C491.027 31.6932 488.624 21.2952 480.756 19.1677C472.888 17.0401 455.194 19.3327 453.782 29.086Z" fill="#FFC8BB"/>
<path d="M489.791 44.3026C488.533 40.6665 483.992 45.311 483.992 45.311C483.992 45.311 484.736 49.6937 483.342 52.3061C482.806 53.3106 477.756 60.7919 469.648 64.5428C469.648 64.5428 476.074 63.0729 484.125 56.9867C487.926 54.1126 490.861 47.3986 489.791 44.3014V44.3026Z" fill="#EAAFA2"/>
<path d="M480.954 40.361C480.954 40.361 476.067 41.3836 475.598 36.5224C475.598 36.5224 472.748 38.9646 469.841 34.7946C466.933 30.6246 463.698 28.1824 457.73 29.8741C451.763 31.5659 451.899 29.1662 451.518 27.8214C451.136 26.4765 451.79 23.6578 454.972 23.0286C458.153 22.3993 456.312 19.1074 458.752 17.7793C461.19 16.4525 464.682 16.9154 466.614 16.3674C468.547 15.8194 469.896 13.5293 472.418 12.815C474.94 12.0994 478.417 13.4752 480.249 15.7704C482.08 18.0655 482.833 19.7598 485.93 19.1538C489.027 18.5478 491.246 19.0081 492.371 21.0506C493.495 23.093 492.293 23.9789 492.507 24.7345C492.722 25.4914 495.061 26.372 495.477 28.1605C495.894 29.9489 494.532 32.5149 493.018 33.5799C493.018 33.5799 494.311 34.939 494.151 36.6178C493.992 38.298 491.602 39.1567 491.78 40.1057C491.958 41.0548 492.66 44.4872 489.838 45.1061C487.017 45.7251 483.993 45.3099 483.993 45.3099C483.993 45.3099 488.336 39.8105 487.073 35.9912C485.808 32.1719 482.229 33.6418 481.484 34.2156C480.739 34.7907 479.092 36.3471 479.473 37.6919C479.854 39.0368 480.955 40.3585 480.955 40.3585L480.954 40.361Z" fill="#4E4E4E"/>
<path d="M434.388 149.934L527.573 118.12C529.332 117.52 531.247 118.46 531.847 120.218L435.476 153.12L434.388 149.934Z" fill="#030D74"/>
<path d="M499.107 131.405L472.042 88.9079C471.383 87.8738 470.101 87.4238 468.941 87.821L407.319 108.858C406.179 109.247 405.704 110.601 406.354 111.617L431.528 150.998C432.599 152.674 434.678 153.401 436.562 152.759L499.108 131.407L499.107 131.405Z" fill="#16168C"/>
<path d="M450.509 123.655C451.854 122.996 452.171 120.883 451.217 118.935C450.262 116.987 448.399 115.942 447.054 116.601C445.709 117.26 445.392 119.373 446.346 121.321C447.301 123.269 449.165 124.314 450.509 123.655Z" fill="#9ABCE6"/>
<path d="M546.984 83.2373C546.984 83.2373 538.647 85.9361 533.065 95.1761L547.432 105.893C547.432 105.893 525.597 122.476 508.238 126.78L510.331 136.439C510.331 136.439 552.496 123.087 562.927 117.702C573.36 112.319 568.863 103.925 564.255 99.1244C559.645 94.3238 546.983 83.2386 546.983 83.2386L546.984 83.2373Z" fill="#FFC8BB"/>
<path d="M509.614 126.415C509.614 126.415 507.135 127.34 505.32 126.172C503.506 125.004 502.391 123.461 498.708 124.481C495.026 125.503 497.451 126.914 497.451 126.914C497.451 126.914 494.317 127.887 492.948 129.299C491.582 130.711 491.704 134.363 493.453 136.773C495.201 139.182 497.565 143.368 511.692 136.006L509.613 126.415H509.614Z" fill="#FFC8BB"/>
<path d="M533.917 95.8121C533.917 95.8121 543.792 88.2405 550.236 86.1104L549.269 85.2529C549.269 85.2529 542.068 87.3147 533.917 95.8121Z" fill="#EAAFA2"/>
<path d="M512.069 61.3738C512.069 61.3738 524.297 54.661 550.578 84.9703C550.578 84.9703 541.4 86.9767 531.662 98.3069C531.662 98.3069 513.68 82.5746 510.03 75.3357C506.379 68.0969 512.069 61.3751 512.069 61.3751V61.3738Z" fill="#FDB813"/>
<path d="M533.029 96.7658L531.662 98.3054C531.662 98.3054 524.848 93.6106 520.656 87.9951C520.656 87.9951 529.689 94.9451 533.029 96.7658Z" fill="#BD934A"/>
<path d="M533.917 95.8115C533.917 95.8115 532.213 97.3305 531.661 98.3053C531.661 98.3053 532.837 98.2576 534.958 96.5878L533.916 95.8115H533.917Z" fill="#BD934A"/>
<path d="M550.578 84.9688C550.578 84.9688 550.612 85.4794 550.236 86.1099L549.269 85.2524L550.577 84.9688H550.578Z" fill="#BD934A"/>
<path d="M33.0313 314.43C51.274 314.43 66.0626 312.929 66.0626 311.076C66.0626 309.224 51.274 307.723 33.0313 307.723C14.7886 307.723 0 309.224 0 311.076C0 312.929 14.7886 314.43 33.0313 314.43Z" fill="#E7F4FA"/>
<path d="M47.1969 258.361C43.2668 256.885 39.9207 261.266 37.8499 265.087C36.6907 267.226 35.8113 269.182 35.1524 270.767C35.4374 265.111 35.8513 256.325 36.1143 248.292C38.4172 246.264 47.3762 238.316 49.3297 235.659C51.5758 232.606 53.7459 229.876 49.0499 228.098C44.3538 226.321 40.3772 231.555 37.9221 236.121C37.3354 237.212 36.8106 238.263 36.3374 239.261C36.3554 237.935 36.3632 236.7 36.3593 235.582C36.915 232.895 39.2515 221.361 39.0632 218.055C38.8492 214.305 38.8053 210.873 33.2286 211.599C27.6518 212.325 27.9019 218.816 29.0418 223.985C30.1804 229.154 31.7818 233.269 32.4975 235.167C32.5258 235.24 32.5735 235.301 32.6071 235.372C32.6174 237.233 32.5903 239.458 32.5374 241.912C30.8277 238.592 28.7813 234.783 27.742 233.474C25.7654 230.985 24.0324 228.628 21.5863 232.04C19.1403 235.452 22.5018 239.822 25.6532 242.813C28.3829 245.405 30.887 247.262 32.3582 248.327C32.1158 255.647 31.7483 263.628 31.4724 269.221C30.6291 264.478 29.2984 257.495 28.3971 255.242C26.989 251.723 25.8169 248.439 21.8287 251.488C17.8405 254.538 20.186 260.68 22.7674 265.174C25.3476 269.671 27.929 272.955 29.1024 274.48C29.6672 275.214 30.4872 275.5 31.1577 275.411C31.1229 276.069 31.1023 276.453 31.0997 276.489C31.043 277.523 31.836 278.409 32.8714 278.466C32.9062 278.467 32.941 278.468 32.9758 278.468C33.9648 278.468 34.7926 277.695 34.8481 276.694C34.8532 276.595 34.8674 276.338 34.8881 275.961C35.1885 276.02 35.5212 275.95 35.8461 275.664C35.8461 275.664 45.5246 267.235 47.4149 264.679C49.3052 262.124 51.131 259.838 47.2008 258.362L47.1969 258.361Z" fill="#69CCB4"/>
<path d="M4.35956 273.853C10.9344 307.021 17.2977 311.077 17.2977 311.077H47.8391C52.962 294.508 55.9083 279.982 57.0456 273.853H4.35956Z" fill="#FDB813"/>
<path d="M57.0456 273.853C55.9083 279.982 52.962 294.507 47.8391 311.077H50.8086C58.2319 296.282 61.2014 273.853 61.2014 273.853H57.0469H57.0456Z" fill="#BD934A"/>
</g>
<defs>
<clipPath id="clip0_150_11116">
<rect width="650.869" height="400" fill="white"/>
</clipPath>
</defs>
</svg>
