<svg width="21" height="21" viewBox="0 0 21 21" fill="none" xmlns="http://www.w3.org/2000/svg">
<rect x="0.833252" y="0.549805" width="20" height="20" rx="10" fill="#0071ED"/>
<g clip-path="url(#clip0_56_19010)">
<path d="M7.9557 9.02051H5.70044V15.9664H7.9557V9.02051Z" fill="white"/>
<path d="M6.82849 5.5498C6.10126 5.5498 5.62625 6.07106 5.64096 6.76536C5.62625 7.42884 6.10056 7.96551 6.81308 7.96551C7.5256 7.96551 8.03004 7.42884 8.03004 6.76536C8.01532 6.07106 7.55572 5.5498 6.82849 5.5498Z" fill="white"/>
<path d="M13.5643 8.85742C12.5821 8.85742 11.9074 9.32333 11.5311 9.74439V9.02066H9.27588V15.9665H11.5311V12.0921C11.5311 11.8841 11.5606 11.662 11.6201 11.5281C11.7686 11.1127 12.1393 10.6825 12.7628 10.6825C13.579 10.6825 13.9055 11.3208 13.9055 12.2554V15.9665H16.1608V11.9737C16.1608 9.83687 15.0482 8.85812 13.5643 8.85812V8.85742Z" fill="white"/>
</g>
<defs>
<clipPath id="clip0_56_19010">
<rect width="10.5197" height="10.4167" fill="white" transform="translate(5.64111 5.5498)"/>
</clipPath>
</defs>
</svg>
