<svg width="1670" height="368" viewBox="0 0 1670 368" fill="none" xmlns="http://www.w3.org/2000/svg">
<g opacity="0.04">
<path d="M1641.07 270.369C1634.64 270.369 1624.64 272.72 1619.18 283.858C1615.34 275.322 1607.54 270.369 1598.24 270.369C1589.61 270.369 1581.12 274.902 1578.25 282.067V272.02H1564.83V336.274H1578.25V301.74C1578.25 288.671 1586.74 283.298 1595.1 283.298C1603.45 283.298 1608.52 289.763 1608.52 300.229V336.274H1622.08V304.231C1622.08 290.742 1627.56 283.186 1638.09 283.326C1646.72 283.326 1652.18 289.791 1652.18 300.257V336.302H1665.74V299.585C1665.74 281.227 1657.08 270.369 1641.07 270.369ZM1515.27 325.248C1504.32 325.248 1495.13 316.573 1495.13 304.063C1495.13 291.554 1504.29 283.018 1515.27 283.018C1526.24 283.018 1535.51 291.694 1535.51 304.063C1535.54 316.573 1526.24 325.248 1515.27 325.248ZM1515.27 337.897C1533.48 337.897 1548.93 324.408 1548.93 304.063C1548.93 283.718 1533.48 270.369 1515.27 270.369C1497.06 270.369 1481.74 283.718 1481.74 304.063C1481.74 324.408 1497.08 337.897 1515.27 337.897ZM1447.94 337.897C1458.35 337.897 1467.23 333.644 1472.86 326.899L1463.95 318.504C1460.24 322.645 1454.65 325.248 1448.21 325.248C1436.3 325.248 1426.86 316.293 1426.86 304.063C1426.86 291.834 1436.3 283.018 1448.21 283.018C1454.65 283.018 1460.27 285.621 1463.95 289.763L1472.86 281.367C1467.23 274.623 1458.35 270.369 1447.94 270.369C1429.45 270.369 1413.44 283.718 1413.44 304.063C1413.44 324.408 1429.45 337.897 1447.94 337.897ZM1376.88 337.897C1390.02 337.897 1402.08 330.481 1402.08 318.224C1402.08 311.339 1399.07 302.804 1385.37 299.39L1375.65 297.039C1371.67 296.087 1367.99 293.876 1367.99 289.875C1367.99 285.481 1371.84 281.759 1377.43 281.759C1382.22 281.759 1387.01 284.921 1387.01 289.595H1399.88C1399.88 276.106 1388.1 270.341 1377.15 270.341C1363.87 270.341 1354.43 279.016 1354.43 289.455C1354.43 298.942 1359.92 305.127 1371.81 308.317L1380.44 310.388C1385.23 311.479 1388.65 313.69 1388.65 317.944C1388.65 322.757 1384.14 326.479 1376.74 326.479C1369.33 326.479 1364.96 322.086 1364.96 316.992H1352.51C1352.79 330.481 1364.99 337.897 1376.88 337.897ZM1312.42 270.369C1305.57 270.369 1295.32 273.951 1291.62 281.927V272.02H1278.19V336.274H1291.62V301.74C1291.62 288.391 1301.75 283.578 1310.1 283.578C1318.46 283.578 1324.61 289.903 1324.61 300.369V336.274H1338.03V299.557C1338.14 281.227 1328.57 270.369 1312.42 270.369ZM1224.26 325.248C1213.04 325.248 1204.4 315.621 1204.4 304.063C1204.4 292.505 1213.04 283.018 1223.98 283.018C1234.25 283.018 1244.5 291.694 1244.5 304.063C1244.53 316.181 1234.95 325.248 1224.26 325.248ZM1244.67 281.647C1240.58 274.371 1231.8 270.369 1222.5 270.369C1204.43 270.369 1190.87 284.949 1190.87 304.063C1190.87 323.177 1205.24 337.897 1221.95 337.897C1231.8 337.897 1240.58 332.804 1244.67 325.388V336.246H1258.09V271.992H1244.67V281.647ZM1174.72 270.369C1166.51 270.369 1160.08 275.182 1156.79 286.46V272.02H1143.23V336.274H1156.79V313.158C1156.79 295.807 1162.28 283.298 1173.91 283.298C1176.5 283.298 1179.79 283.858 1183.35 285.509L1185.69 272.72C1183.6 271.46 1179.09 270.369 1174.72 270.369ZM1072.87 241.46V254.389H1100.93V336.246H1115.02V254.389H1143.09V241.46H1072.87ZM1006.76 316.713L988.412 271.992H973.904L999.494 333.336L985.655 367.45H999.884L1039.59 271.964H1025.08L1006.76 316.713ZM934.337 325.248C923.672 325.248 913.926 316.852 913.926 303.923C913.926 290.994 924.48 283.018 934.337 283.018C945.419 283.018 954.19 291.834 954.19 303.923C954.19 316.013 945.447 325.248 934.337 325.248ZM935.98 270.369C926.958 270.369 918.048 274.231 913.815 281.507V237.066H900.394V336.246H913.815V326.619C918.048 333.924 927.376 337.897 935.98 337.897C953.216 337.897 967.723 324.408 967.723 304.063C967.751 283.578 953.383 270.369 935.98 270.369Z" fill="#2C2B2A"/>
<path d="M1603.73 91.5143L1662.59 3.75222H1633.02L1588.94 71.169L1545.14 3.75222H1515.57L1574.16 91.2624L1508.17 193.353H1537.74L1588.94 111.916L1640.15 193.353H1670L1603.73 91.5143ZM1437.27 196.627C1466.29 196.627 1491.49 184.258 1508.17 164.444L1490.09 149.024C1477.51 163.884 1458.32 173.511 1437.24 173.511C1397.54 173.511 1366.35 139.397 1366.35 98.9584C1366.35 58.5196 1397.57 23.5659 1437.24 23.5659C1458.32 23.5659 1477.48 33.1928 1490.09 48.053L1508.17 32.6331C1491.46 12.8195 1466.29 0.449951 1437.27 0.449951C1383.89 0.449951 1341.46 45.3105 1341.46 98.9584C1341.46 152.606 1383.89 196.627 1437.27 196.627ZM1177.76 111.888H1253.33V88.4919H1177.76V26.8401H1264.27V3.72425H1153.11V193.297H1267V170.181H1177.76V111.888ZM1099.18 3.75222H1076.74L1009.66 144.351L942.3 3.75222H919.857L896.857 193.325H921.222L938.458 48.8646L998.965 172.672H1020.6L1080.55 48.8646L1098.07 193.325H1122.43L1099.18 3.75222ZM782.972 173.511C743.265 173.511 712.608 139.397 712.608 98.9584C712.608 58.5196 743.265 23.5659 782.972 23.5659C822.679 23.5659 853.865 58.2397 853.865 98.9584C853.893 139.397 823.235 173.511 782.972 173.511ZM782.972 196.627C836.907 196.627 878.786 152.606 878.786 98.9584C878.786 45.3105 836.907 0.449951 782.972 0.449951C729.036 0.449951 687.686 45.0306 687.686 98.9584C687.686 152.606 729.315 196.627 782.972 196.627ZM610.25 196.627C649.4 196.627 673.207 169.398 673.207 139.957C673.207 113.007 654.05 96.4957 622 87.9602L597.357 81.3556C572.158 74.7511 569.986 61.542 569.986 54.9374C569.986 36.2152 587.5 23.5659 606.407 23.5659C626.678 23.5659 642.271 36.4951 642.271 55.4692H666.914C666.914 21.6349 640.35 0.449951 607.242 0.449951C574.135 0.449951 545.092 22.4465 545.092 55.1893C545.092 70.6093 551.385 94.2569 591.371 103.884L615.735 109.929C631.607 114.071 648.314 122.326 648.314 140.741C648.314 157.532 634.614 173.483 610.25 173.483C585.885 173.483 569.178 156.412 568.371 139.649H543.728C543.979 169.118 570.543 196.627 610.25 196.627ZM437.5 111.888H513.071V88.4919H437.5V26.8401H524.014V3.72425H412.857V193.297H526.743V170.181H437.5V111.888ZM318.685 153.138L283.378 29.5827H264.499L229.47 153.67L181.271 3.72425H154.706L218.499 193.297H240.135L273.799 73.6037L307.742 193.297H329.378L393.171 3.72425H366.606L318.685 153.138ZM84.8714 36.4951L117.171 122.606H52.5712L84.8714 36.4951ZM169.743 193.325L98.0142 3.75222H71.7286L0 193.325H26.0072L44.357 144.631H125.386L143.736 193.325H169.743Z" fill="#2C2B2A"/>
</g>
</svg>
