<svg width="169" height="55" viewBox="0 0 169 55" fill="none" xmlns="http://www.w3.org/2000/svg">
<g clip-path="url(#clip0_1_1347)">
<path d="M26.6963 27.4999V54.571H29.9663H33.2363V28.3576C33.2363 2.61587 33.2363 2.13342 33.0325 1.72601C32.7538 1.18995 32.1641 0.68605 31.6602 0.546673C31.4351 0.482346 30.2343 0.42874 28.9799 0.42874H26.6963V27.4999Z" fill="#A6A8A9"/>
<path d="M17.9689 24.8946C17.9368 30.1052 17.8832 38.9073 17.8617 44.4716L17.8188 54.571H21.1103H24.4124L24.4875 43.7211C24.5196 37.7494 24.5625 29.3118 24.5732 24.9697L24.5947 17.0896L24.2945 16.5857C24.1337 16.3069 23.8013 15.9424 23.5654 15.7816L23.1259 15.4921L20.5742 15.4599L18.0333 15.4278L17.9689 24.8946Z" fill="#A6A8A9"/>
<path d="M8.92037 40.0116L8.95253 54.5174L12.2547 54.5496L15.5461 54.571L15.5247 40.8157L15.4925 27.0603L15.1923 26.61C15.0315 26.3634 14.6991 26.0311 14.4525 25.8703L14.013 25.5701L11.4506 25.5379L8.89893 25.5057L8.92037 40.0116Z" fill="#A6A8A9"/>
<path d="M0.107422 44.3323V54.571L3.40957 54.5496L6.70099 54.5174V45.1363V35.7553L6.43296 35.2728C6.28286 35.0155 5.96122 34.651 5.70391 34.4687L5.23218 34.1471L2.6698 34.1149L0.107422 34.0827V44.3323Z" fill="#A6A8A9"/>
<path d="M42.4565 0.107126C40.0764 0.3966 38.2109 1.42584 37.4818 2.87321C36.9779 3.85956 36.8385 4.69582 36.8385 6.7543C36.8278 8.83422 36.9458 9.4775 37.5247 10.6783C38.1251 11.9005 38.8434 12.5331 42.1884 14.7524C44.3434 16.189 44.9438 16.7465 45.1797 17.5613C45.4155 18.3976 45.437 20.2952 45.2226 20.7991C45.0081 21.2923 44.7079 21.5496 44.2576 21.6139C43.7859 21.6997 43.2391 21.421 43.0783 21.035C43.014 20.8742 42.9389 19.7699 42.9068 18.5691L42.8532 16.4034H39.9048H36.9565L37.0101 18.4619C37.0958 21.6032 37.4604 22.7933 38.704 23.9405C40.6339 25.7202 44.4828 26.3099 47.5383 25.2913C48.7606 24.8839 49.5861 24.38 50.2723 23.6403C51.2479 22.5681 51.5266 21.2709 51.4302 18.2368C51.3444 15.3635 50.9691 14.1948 49.6933 12.919C48.9214 12.1471 47.2918 10.957 45.4263 9.79913C43.6251 8.69485 43.1962 8.27672 42.9604 7.44046C42.4886 5.75722 42.9818 4.1812 43.9896 4.1812C44.8151 4.1812 45.0189 4.69582 45.0296 6.72214V8.04085H47.9886H50.9584L50.8941 6.23968C50.7976 3.58081 50.5081 2.63734 49.4896 1.74748C48.053 0.48237 45.1153 -0.20379 42.4565 0.107126Z" fill="white"/>
<path d="M107.642 12.8656V25.1951H110.751H113.86V17.4222C113.86 9.38123 113.892 8.75939 114.299 8.35199C114.6 8.05179 115.157 8.08396 115.479 8.42704L115.736 8.70579L115.768 16.9504L115.8 25.1951H118.899H122.008V17.3364C122.008 13.0265 121.954 9.0167 121.901 8.44848C121.751 6.85101 121.333 6.07908 120.282 5.37148C118.684 4.29935 116.347 4.3744 114.61 5.54302C114.289 5.76817 113.989 5.96115 113.946 5.98259C113.892 6.00403 113.86 4.79253 113.86 3.28084V0.536197H110.751H107.642V12.8656Z" fill="white"/>
<path d="M76.121 4.78178C75.1454 5.04981 74.1912 5.71453 73.5801 6.59367L73.3549 6.90459L73.4193 5.91823L73.4729 4.93188L70.428 4.95332L67.3832 4.98548L67.351 15.0849L67.3296 25.195H70.3315H73.3228L73.3549 17.0683C73.3871 9.45624 73.3978 8.9309 73.5801 8.67359C73.9875 8.0732 74.7809 8.00887 75.1239 8.54494C75.3062 8.81297 75.3169 9.41336 75.3491 17.0683L75.3812 25.3022L78.351 25.2808L81.3208 25.2486L81.3744 17.1005C81.428 9.56345 81.4388 8.92018 81.6103 8.65215C81.7175 8.50205 81.8998 8.31979 82.0284 8.24474C82.3715 8.06248 82.9504 8.2233 83.1756 8.55566C83.3471 8.81297 83.3579 9.45624 83.39 17.0683L83.4222 25.3022H86.4134H89.4154V17.2828C89.4154 12.2116 89.3725 8.92018 89.2974 8.30907C89.0937 6.59367 88.4826 5.66092 87.1961 5.07125C85.4592 4.26716 83.4972 4.5888 82.1464 5.87535C81.8569 6.1541 81.5352 6.49718 81.4388 6.64728L81.2565 6.91531L81.0313 6.59367C79.8735 4.97476 77.9865 4.27788 76.121 4.78178Z" fill="white"/>
<path d="M100.833 4.68508C99.9007 4.87806 98.9787 5.42485 98.196 6.25038L97.6921 6.765L97.7457 5.84298L97.8101 4.93167H94.6795H91.5596V16.5642V28.1968H94.6151H97.6707V25.881V23.5652L98.2496 24.1441C99.6327 25.5272 101.53 25.9668 103.256 25.3128C103.996 25.034 104.779 24.3693 105.09 23.7582C105.637 22.6861 105.637 22.6968 105.69 15.6529C105.733 8.54473 105.679 7.54765 105.229 6.64707C104.95 6.11101 104.221 5.37124 103.664 5.08177C102.903 4.6958 101.627 4.51354 100.833 4.68508ZM99.3754 8.41608C99.5255 8.56617 99.5469 9.31666 99.5469 15.0418C99.5469 20.0379 99.5147 21.5496 99.4075 21.7319C99.2467 22.0213 98.6249 22.1607 98.2496 21.9892C97.7243 21.7533 97.7243 21.689 97.7243 15.1705C97.7243 8.66266 97.735 8.52329 98.2389 8.26598C98.5391 8.11588 99.1609 8.20165 99.3754 8.41608Z" fill="white"/>
<path d="M128.655 4.76022C127.047 5.1033 125.782 5.85378 124.956 6.97951C123.863 8.46977 123.734 9.31675 123.723 15.2349C123.702 20.9171 123.82 21.7963 124.699 23.1686C125.718 24.7661 127.369 25.4629 130.371 25.5916C133.469 25.7095 135.57 24.8304 136.825 22.9006C137.747 21.4639 137.918 20.0273 137.843 13.9912C137.811 10.3245 137.779 9.60622 137.618 9.05944C137.136 7.42981 136.106 6.18614 134.638 5.47854C134.144 5.24267 133.458 4.97464 133.105 4.87815C132.225 4.63156 129.599 4.56723 128.655 4.76022ZM131.228 8.25534C131.679 8.49121 131.7 8.80213 131.743 14.5273C131.786 21.5497 131.721 22.0858 130.81 22.0858C130.306 22.0858 130.081 21.8284 129.952 21.0887C129.813 20.306 129.802 10.0565 129.931 9.12376C130.049 8.29823 130.606 7.92298 131.228 8.25534Z" fill="white"/>
<path d="M148.618 4.72821C147.868 4.87831 146.913 5.45725 146.313 6.13269L145.756 6.75452L145.788 5.84322L145.82 4.93191H142.711H139.591V15.0635V25.1951H142.646H145.691L145.723 17.0684C145.756 8.2555 145.745 8.50209 146.356 8.2555C146.742 8.09468 147.278 8.21261 147.449 8.50209C147.546 8.68435 147.589 10.6571 147.61 16.9612L147.642 25.1951H150.752H153.861L153.818 16.7467C153.775 7.73016 153.764 7.49429 153.228 6.47577C152.521 5.09273 150.548 4.34224 148.618 4.72821Z" fill="white"/>
<path d="M52.0839 4.98537C52.0625 5.01754 52.8666 9.22026 53.8851 14.345C54.9143 19.4591 55.7506 23.8226 55.7506 24.037C55.7506 24.5838 55.4611 24.7554 54.3675 24.8411L53.4991 24.9055V26.5136V28.1218L56.5868 28.0575C60.0069 27.9824 60.7252 27.886 61.7652 27.3285C63.1911 26.5672 63.695 25.4522 64.1668 22.0214C64.5098 19.5663 66.2145 5.02826 66.1609 4.98537C66.1395 4.95321 64.8958 4.93177 63.4056 4.93177H60.7038L60.6395 5.22124C60.618 5.39278 60.3822 8.40545 60.1249 11.922C59.8783 15.4493 59.6424 18.3333 59.6102 18.3333C59.5781 18.3333 59.1278 15.4064 58.6024 11.8148C58.0771 8.23391 57.6268 5.22124 57.5946 5.11403C57.5518 4.94249 57.3266 4.93177 54.85 4.93177C53.3597 4.93177 52.1161 4.95321 52.0839 4.98537Z" fill="white"/>
<path d="M154.686 4.98537C154.665 5.01754 155.469 9.22026 156.498 14.345C157.517 19.4591 158.353 23.8226 158.353 24.037C158.353 24.5838 158.064 24.7554 156.97 24.8411L156.102 24.9055V26.5136V28.1218L159.189 28.0575C162.609 27.9824 163.328 27.886 164.368 27.3285C165.065 26.9532 165.461 26.5458 165.901 25.731C166.448 24.7232 166.544 24.1228 167.831 13.4016C168.335 9.24171 168.774 5.63937 168.806 5.38206L168.871 4.93177H166.083C164.539 4.93177 163.285 4.96393 163.285 5.00681C163.285 5.06042 163.07 8.00876 162.802 11.5789C162.534 15.1491 162.32 18.1618 162.309 18.2797C162.288 18.8158 162.116 17.7865 161.205 11.5789L160.229 4.98537L157.485 4.95321C155.984 4.94249 154.719 4.95321 154.686 4.98537Z" fill="white"/>
<path d="M36.935 30.2016C36.9886 30.4911 39.7761 54.3352 39.7761 54.496C39.7761 54.5389 41.5773 54.571 43.7751 54.571H47.7849L48.5997 48.7601C49.05 45.5545 49.4574 42.6812 49.4895 42.3703C49.5324 42.0593 49.5753 41.8235 49.5967 41.8342C49.6075 41.8556 49.779 43.0135 49.9613 44.418C50.4223 47.9882 51.3229 53.7133 51.5266 54.3781C51.5802 54.5603 51.8697 54.571 55.6006 54.571C59.0422 54.571 59.6104 54.5496 59.6104 54.4102C59.6104 54.3245 60.2429 48.8245 61.0042 42.1773C61.7761 35.5301 62.3979 30.0515 62.3979 29.9979C62.3979 29.9551 61.0042 29.9122 59.2995 29.9122H56.201L56.1367 30.2553C55.7079 32.5925 54.4856 44.4824 54.4535 46.6266C54.4535 46.9911 54.432 47.0662 54.357 46.9054C54.3141 46.7874 54.1426 44.879 53.9817 42.6705C53.6708 38.1568 53.1133 31.0593 53.0168 30.3625L52.9525 29.9122H49.6396H46.3375L46.2732 30.2016C46.0051 31.4882 44.9008 41.5554 44.6864 44.6861C44.6114 45.7689 44.5363 46.5944 44.5042 46.5194C44.4827 46.4443 44.1718 42.6919 43.8073 38.1783L43.1533 29.9658L40.0227 29.9336L36.8813 29.9122L36.935 30.2016Z" fill="white"/>
<path d="M63.5771 31.5205V33.1287H66.7399H69.9027V31.5205V29.9123H66.7399H63.5771V31.5205Z" fill="white"/>
<path d="M99.3862 42.2416V54.571H102.549H105.712V42.2416V29.9122H102.549H99.3862V42.2416Z" fill="white"/>
<path d="M81.3746 34.1041C80.2488 34.3293 79.1982 35.1441 78.4262 36.3985C78.051 37.0096 78.0403 37.0203 78.0939 36.6665C78.1153 36.4628 78.1796 35.8732 78.2225 35.3478L78.2869 34.4151H75.2206H72.1543V44.5466V54.6782H75.2099H78.2654V50.0359C78.2761 45.0184 78.3726 42.9813 78.6192 42.4989C79.0266 41.7055 79.82 41.3088 81.1387 41.2016L81.9106 41.1373V37.5671C81.9106 35.5944 81.8999 33.9862 81.8892 33.9969C81.8677 34.0077 81.6426 34.0505 81.3746 34.1041Z" fill="white"/>
<path d="M87.8073 34.2008C85.2342 34.8977 83.8941 36.2486 83.4009 38.6394C83.2294 39.4757 83.2079 40.194 83.1972 44.3753C83.1865 48.2456 83.2079 49.3285 83.3473 50.0575C83.9155 53.2096 86.4029 54.8928 90.4769 54.8928C92.7713 54.8928 94.2401 54.3675 95.4838 53.1345C96.8668 51.7408 97.2742 50.5293 97.2849 47.7096L97.2956 46.155L94.3795 46.1228L91.4526 46.1014V48.0527C91.4418 50.2184 91.3775 50.7115 91.013 51.0975C90.7986 51.3226 90.6806 51.3548 90.2196 51.3334C89.7264 51.3012 89.6728 51.269 89.5013 50.926C89.3298 50.5936 89.3083 50.1969 89.3083 47.6774V44.8148H93.2645H97.2206L97.2956 43.3889C97.3707 41.8343 97.2313 39.7008 96.974 38.6609C96.5023 36.7954 95.5052 35.5302 93.8756 34.7369C92.7927 34.2115 92.0958 34.0722 90.2732 34.0293C88.858 33.9971 88.4935 34.0186 87.8073 34.2008ZM90.6914 37.7067C90.9915 37.9533 91.1309 38.811 91.1309 40.387V41.5985H90.2196H89.3083V39.9045C89.3083 38.0819 89.3941 37.7495 89.8444 37.6209C90.2839 37.4922 90.4555 37.5137 90.6914 37.7067Z" fill="white"/>
<path d="M112.412 34.1364C110.322 34.6188 108.842 35.6909 108.199 37.2026C107.599 38.5964 107.588 38.7787 107.588 44.4395C107.588 49.1139 107.609 49.7787 107.781 50.4327C108.156 51.9229 109.1 53.1987 110.333 53.9063C110.654 54.0886 111.351 54.3674 111.876 54.5282C112.777 54.8069 112.981 54.8284 114.771 54.8284C116.594 54.8284 116.755 54.8176 117.58 54.5389C119.167 54.0028 120.303 53.0165 121.054 51.4941C121.472 50.6578 121.686 49.3069 121.686 47.4629V46.1013L118.77 46.1227L115.843 46.1549L115.79 48.3527C115.736 50.5935 115.682 50.8937 115.264 51.2153C115.039 51.3868 114.267 51.3868 114.031 51.2153C113.72 50.9902 113.645 50.3362 113.645 47.5165V44.8147H117.666H121.686V42.9063C121.686 39.0252 121.215 37.2562 119.821 35.8518C119.124 35.1549 118.041 34.5438 116.969 34.2436C116.133 34.0077 113.259 33.9434 112.412 34.1364ZM115.028 37.7065C115.361 37.9746 115.457 38.5535 115.468 40.1724V41.5983H114.557H113.645V40.0652C113.645 38.264 113.742 37.803 114.16 37.6529C114.589 37.4921 114.771 37.5028 115.028 37.7065Z" fill="white"/>
<path d="M127.744 34.2116C126.8 34.3617 125.46 34.8549 124.881 35.2623C124.174 35.7555 123.563 36.6239 123.348 37.4709C123.102 38.3715 123.016 40.5586 123.177 41.3949C123.605 43.5284 124.249 44.2146 127.851 46.2623C130.853 47.9777 130.885 48.0099 130.896 49.5323C130.907 50.9582 130.628 51.4621 129.824 51.4621C128.88 51.4621 128.73 51.1512 128.677 49.1356L128.634 47.6025H125.889H123.155L123.22 49.1249C123.316 51.3764 123.627 52.3413 124.57 53.2847C125.171 53.8744 126.104 54.3569 127.369 54.6999C128.151 54.9036 128.527 54.9465 130.049 54.9465C131.421 54.9358 131.979 54.8929 132.504 54.7428C135.335 53.9602 136.396 52.545 136.557 49.3715C136.632 47.774 136.482 46.7019 136.042 45.812C135.517 44.7185 134.541 43.9894 131.839 42.6278C129.116 41.2662 128.655 40.7623 128.655 39.2292C128.655 38.7682 128.709 38.2643 128.784 38.1142C128.966 37.7175 129.427 37.5031 129.899 37.5888C130.499 37.696 130.606 37.9855 130.671 39.5187L130.724 40.8481H133.458H136.192L136.139 39.2292C136.085 37.7068 136.064 37.5888 135.742 36.9456C134.852 35.1337 132.547 34.083 129.513 34.1044C128.837 34.1151 128.044 34.158 127.744 34.2116Z" fill="white"/>
<path d="M142.325 34.2437C140.095 34.7583 138.894 35.6696 138.39 37.2242C138.069 38.1891 137.994 40.8265 138.251 41.8022C138.519 42.8528 138.873 43.4318 139.623 44.1287C140.288 44.7291 140.931 45.1472 143.826 46.7983C145.563 47.7953 145.681 47.924 145.82 48.7817C145.97 49.6823 145.852 50.733 145.584 51.076C145.188 51.5799 144.158 51.537 143.847 50.9903C143.772 50.8616 143.697 50.1004 143.665 49.1569L143.612 47.5487L140.91 47.5166L138.197 47.4951V48.771C138.197 52.1374 139.087 53.5848 141.693 54.4532C144.18 55.2895 147.418 55.0858 149.283 53.9922C149.884 53.6384 150.709 52.7378 150.966 52.1589C151.47 51.0117 151.653 48.4386 151.331 46.9269C150.956 45.1257 150.066 44.3002 146.742 42.6277C143.998 41.2554 143.558 40.7729 143.558 39.2183C143.558 38.768 143.612 38.2641 143.687 38.114C143.869 37.7174 144.33 37.5029 144.802 37.5887C145.402 37.6959 145.509 37.9854 145.574 39.5185L145.627 40.848H148.329H151.041L151.106 40.0653C151.213 38.961 151.02 37.5029 150.688 36.8168C150.162 35.7554 148.983 34.8977 147.364 34.4045C146.388 34.1043 143.344 34.0185 142.325 34.2437Z" fill="white"/>
<path d="M64.467 34.3829L63.5771 34.4258V44.4931V54.571H66.7399H69.9027V44.4395V34.3079L67.6298 34.3293C66.3754 34.3401 64.9495 34.3722 64.467 34.3829Z" fill="white"/>
</g>
<defs>
<clipPath id="clip0_1_1347">
<rect width="168.967" height="55" fill="white"/>
</clipPath>
</defs>
</svg>
