<svg width="21" height="21" viewBox="0 0 21 21" fill="none" xmlns="http://www.w3.org/2000/svg">
<rect x="0.833252" y="0.549805" width="20" height="20" rx="10" fill="#0071ED"/>
<g clip-path="url(#clip0_56_19021)">
<path d="M15.4508 7.95425C15.4508 7.94283 15.4587 7.93171 15.4582 7.92041L12.4065 10.8608L15.4545 13.7073C15.4563 13.687 15.4508 13.6665 15.4508 13.6457V7.95425Z" fill="white"/>
<path d="M11.9407 11.3135L10.6949 12.5121C10.6318 12.5727 10.5504 12.6031 10.469 12.6031C10.3892 12.6031 10.3094 12.574 10.2468 12.5157L9.00443 11.358L5.93652 14.3151C6.01112 14.3419 6.09119 14.3627 6.17504 14.3627H14.7629C14.8874 14.3627 15.0042 14.3248 15.1057 14.2682L11.9407 11.3135Z" fill="white"/>
<path d="M10.4655 11.8283L15.1228 7.34205C15.0173 7.27936 14.8946 7.2373 14.763 7.2373H6.17515C6.00384 7.2373 5.84687 7.30382 5.72461 7.40527L10.4655 11.8283Z" fill="white"/>
<path d="M5.45825 8.06348V13.6456C5.45825 13.7097 5.47298 13.7715 5.48897 13.8305L8.51882 10.9128L5.45825 8.06348Z" fill="white"/>
</g>
<defs>
<clipPath id="clip0_56_19021">
<rect width="10" height="10" fill="white" transform="translate(5.45825 5.7998)"/>
</clipPath>
</defs>
</svg>
