<svg width="109" height="108" viewBox="0 0 109 108" fill="none" xmlns="http://www.w3.org/2000/svg">
<g clip-path="url(#clip0_1_83)">
<path d="M55.7404 61.8273H51.8174V86.5821H55.7404V61.8273Z" fill="#A4A9AD"/>
<path opacity="0.2" d="M53.7793 82.7141L51.8174 81.1764V86.5822H55.7406V81.1772L53.7793 82.7141Z" fill="#E7F4FA"/>
<path opacity="0.3" d="M51.8174 61.8273V68.9586C52.4515 69.0862 53.1074 69.1539 53.7793 69.1539C54.4507 69.1539 55.1064 69.0862 55.7404 68.9587V61.8273H51.8174Z" fill="#E7F4FA"/>
<path d="M45.4949 82.5815L63.6794 96.8339L66.0996 93.7459L47.9151 79.4935L45.4949 82.5815Z" fill="#A4A9AD"/>
<path opacity="0.1" d="M53.23 83.6595L50.05 86.1517L53.23 88.6438L56.4098 86.1517L53.23 83.6595Z" fill="#E7F4FA"/>
<path opacity="0.2" d="M46.0097 81.9267L45.7646 82.7917L49.1013 85.4068L50.2567 81.3279L47.9164 79.4937L46.0097 81.9267Z" fill="#E7F4FA"/>
<path opacity="0.1" d="M54.6683 84.786L51.4885 87.2782L54.6683 89.7704L57.8482 87.2782L54.6683 84.786Z" fill="#E7F4FA"/>
<path d="M41.458 93.7459L43.8782 96.8339L62.0628 82.5815L59.6426 79.4935L41.458 93.7459Z" fill="#A4A9AD"/>
<path opacity="0.2" d="M42.3423 94.8714L43.8791 96.8322L46.4308 94.8322L48.2455 88.4257L43.0046 92.5333L42.3423 94.8714Z" fill="#E7F4FA"/>
<path opacity="0.2" d="M59.6423 79.4937L57.302 81.3279L58.4573 85.4068L61.794 82.7917L61.549 81.9267L59.6423 79.4937Z" fill="#E7F4FA"/>
<path opacity="0.2" d="M64.5517 92.5333L59.3108 88.4257L61.1254 94.8322L63.6772 96.8322L65.214 94.8714L64.5517 92.5333Z" fill="#E7F4FA"/>
<path d="M65.0481 103.046L53.7795 63.2641L42.511 103.046L38.7363 101.977L51.8923 55.5321C52.1315 54.6878 52.9021 54.1051 53.7797 54.1051C54.657 54.1051 55.4278 54.6878 55.6669 55.5321L68.8229 101.977L65.0481 103.046Z" fill="#333E48"/>
<path opacity="0.2" d="M55.6674 55.5333C55.4282 54.689 54.6576 54.1063 53.7801 54.1063C52.9027 54.1063 52.132 54.689 51.8928 55.5333L48.2856 68.2679C49.3952 68.9462 50.6407 69.4229 51.9709 69.6529L53.7801 63.2653L55.5894 69.6529C56.9195 69.4229 58.1649 68.9462 59.2745 68.2679L55.6674 55.5333Z" fill="#E7F4FA"/>
<path d="M53.7798 66.3345C57.6861 66.3345 60.8528 63.1678 60.8528 59.2615C60.8528 55.3552 57.6861 52.1885 53.7798 52.1885C49.8735 52.1885 46.7068 55.3552 46.7068 59.2615C46.7068 63.1678 49.8735 66.3345 53.7798 66.3345Z" fill="#D1D3D3"/>
<path d="M44.5216 67.6806C44.254 67.6806 43.9887 67.5645 43.807 67.3405C41.9601 65.0635 40.9429 62.1939 40.9429 59.2606C40.9429 56.3271 41.9601 53.4577 43.807 51.181C44.1268 50.7865 44.7058 50.7259 45.1003 51.0462C45.4947 51.366 45.5551 51.9451 45.2352 52.3394C43.6532 54.2897 42.7819 56.7477 42.7819 59.2606C42.7819 61.7735 43.6532 64.2315 45.2352 66.1822C45.555 66.5765 45.4947 67.1556 45.1003 67.4755C44.9298 67.6134 44.7251 67.6806 44.5216 67.6806Z" fill="#FFB819"/>
<path d="M40.0039 71.3405C39.7362 71.3405 39.471 71.2244 39.2893 71.0004C36.6067 67.6934 35.1294 63.524 35.1294 59.2605C35.1294 54.9969 36.6067 50.8275 39.2893 47.5206C39.6092 47.1261 40.1882 47.0656 40.5825 47.3858C40.9769 47.7056 41.0374 48.2846 40.7173 48.679C38.2997 51.6595 36.9683 55.4173 36.9683 59.2605C36.9683 63.1036 38.2997 66.8615 40.7173 69.8419C41.0371 70.2363 40.9769 70.8152 40.5825 71.1352C40.4124 71.2734 40.2075 71.3405 40.0039 71.3405Z" fill="#FFB819"/>
<path d="M63.0352 67.6807C62.8316 67.6807 62.627 67.6135 62.4565 67.4754C62.0621 67.1556 62.0017 66.5764 62.3217 66.182C63.9037 64.2315 64.775 61.7735 64.775 59.2605C64.775 56.7475 63.9037 54.2896 62.3217 52.3393C62.0018 51.9449 62.0621 51.366 62.4565 51.0461C62.8507 50.7263 63.4298 50.7862 63.7498 51.1809C65.5968 53.4576 66.614 56.3272 66.614 59.2605C66.614 62.1938 65.5968 65.0634 63.7498 67.3403C63.5681 67.5645 63.3027 67.6807 63.0352 67.6807Z" fill="#FFB819"/>
<path d="M67.5533 71.3406C67.3497 71.3406 67.145 71.2734 66.9746 71.1351C66.5802 70.8153 66.5197 70.2363 66.8398 69.8419C69.2574 66.8614 70.5888 63.1036 70.5888 59.2604C70.5888 55.4173 69.2574 51.6593 66.8398 48.6789C66.5199 48.2846 66.5802 47.7056 66.9746 47.3857C67.3687 47.0657 67.9479 47.126 68.2678 47.5205C70.9502 50.8275 72.4276 54.9966 72.4276 59.2604C72.4276 63.5242 70.9502 67.6934 68.2678 71.0003C68.0862 71.2244 67.821 71.3406 67.5533 71.3406Z" fill="#FFB819"/>
<path d="M45.7914 100.936C45.7914 100.542 45.4692 100.22 45.0751 100.22H36.1722C35.778 100.22 35.4556 100.542 35.4556 100.936V104.089C35.4556 104.483 35.778 104.806 36.1722 104.806H45.0751C45.4692 104.806 45.7914 104.483 45.7914 104.089V100.936Z" fill="#A4A9AD"/>
<path d="M61.7681 100.936C61.7681 100.542 62.0903 100.22 62.4844 100.22H71.3873C71.7815 100.22 72.1039 100.542 72.1039 100.936V104.089C72.1039 104.483 71.7815 104.806 71.3873 104.806H62.4844C62.0903 104.806 61.7681 104.483 61.7681 104.089V100.936Z" fill="#A4A9AD"/>
<path d="M71.3873 99.3009H69.0204L59.3108 65.0225C60.8264 63.5671 61.7726 61.5231 61.7726 59.261C61.7726 54.8541 58.187 51.2686 53.7801 51.2686C49.373 51.2686 45.7876 54.8541 45.7876 59.261C45.7876 61.5231 46.7338 63.5671 48.2493 65.0225L38.5397 99.3009H36.1729C35.2708 99.3009 34.5369 100.035 34.5369 100.937V104.089C34.5369 104.991 35.2707 105.725 36.1729 105.725H45.0758C45.9778 105.725 46.7116 104.991 46.7116 104.089V100.937C46.7116 100.035 45.9778 99.3009 45.0758 99.3009H44.5285L45.1867 96.9772L53.7791 90.2431L62.3784 96.995L63.0316 99.3011H62.4844C61.5824 99.3011 60.8485 100.035 60.8485 100.937V104.089C60.8485 104.991 61.5824 105.726 62.4844 105.726H71.3873C72.2893 105.726 73.0233 104.992 73.0233 104.089V100.937C73.0233 100.035 72.2894 99.3009 71.3873 99.3009ZM47.6266 59.2609C47.6266 55.8678 50.3871 53.1074 53.7801 53.1074C57.1732 53.1074 59.9336 55.868 59.9336 59.2609C59.9336 62.654 57.173 65.4144 53.7801 65.4144C50.387 65.4145 47.6266 62.6541 47.6266 59.2609ZM54.8788 70.5184V82.0603L53.7801 82.9214L52.6813 82.0603V70.5184L53.6074 67.2489C53.6651 67.2503 53.7222 67.2534 53.7802 67.2534C53.8382 67.2534 53.8952 67.2503 53.953 67.2489L54.8788 70.5184ZM48.8508 84.0423L49.4645 81.8755L52.2895 84.0897L50.6004 85.4135L48.8508 84.0423ZM49.1097 86.5819L47.8521 87.5674L48.309 85.9544L49.1097 86.5819ZM50.006 79.9634L50.8423 77.0107V80.6189L50.006 79.9634ZM44.8727 101.14V103.886H36.3759V101.14H44.8727ZM42.6173 99.3009H40.4511L49.8264 66.2027C50.4292 66.5474 51.0801 66.8175 51.7676 66.9965L42.6173 99.3009ZM46.0374 93.974L47.0014 90.5708L58.0957 81.8756L58.7094 84.0424L46.0374 93.974ZM56.7178 80.6189V77.0107L57.5541 79.9634L56.7178 80.6189ZM59.2513 85.9545L59.7083 87.5679L58.4506 86.582L59.2513 85.9545ZM55.2695 89.0751L56.9599 87.7502L60.5589 90.5713L61.5267 93.9879L55.2695 89.0751ZM55.7927 66.9965C56.4802 66.8175 57.1311 66.5474 57.734 66.2027L67.1093 99.3009H64.9431L55.7927 66.9965ZM71.1844 103.886H62.6875V101.14H71.1844V103.886Z" fill="#A6A8A9"/>
</g>
<g clip-path="url(#clip1_1_83)">
<path d="M41.276 13.2561H39.6711V23.3831H41.276V13.2561Z" fill="#A4A9AD"/>
<path opacity="0.2" d="M40.4738 21.8009L39.6711 21.1719V23.3833H41.2761V21.1722L40.4738 21.8009Z" fill="#E7F4FA"/>
<path opacity="0.3" d="M39.6711 13.2561V16.1735C39.9306 16.2257 40.1989 16.2534 40.4738 16.2534C40.7484 16.2534 41.0166 16.2257 41.276 16.1735V13.2561H39.6711Z" fill="#E7F4FA"/>
<path d="M37.0853 21.7474L44.5244 27.5779L45.5145 26.3146L38.0753 20.4841L37.0853 21.7474Z" fill="#A4A9AD"/>
<path opacity="0.1" d="M40.2496 22.188L38.9487 23.2075L40.2496 24.227L41.5504 23.2075L40.2496 22.188Z" fill="#E7F4FA"/>
<path opacity="0.2" d="M37.296 21.4786L37.1958 21.8325L38.5608 22.9023L39.0335 21.2336L38.0761 20.4833L37.296 21.4786Z" fill="#E7F4FA"/>
<path opacity="0.1" d="M40.8382 22.6493L39.5374 23.6688L40.8382 24.6884L42.139 23.6688L40.8382 22.6493Z" fill="#E7F4FA"/>
<path d="M35.434 26.3146L36.4241 27.5779L43.8632 21.7474L42.8731 20.4841L35.434 26.3146Z" fill="#A4A9AD"/>
<path opacity="0.2" d="M35.7952 26.7753L36.4239 27.5775L37.4677 26.7593L38.2101 24.1384L36.0661 25.8188L35.7952 26.7753Z" fill="#E7F4FA"/>
<path opacity="0.2" d="M42.8727 20.4833L41.9153 21.2336L42.3879 22.9023L43.7529 21.8325L43.6527 21.4786L42.8727 20.4833Z" fill="#E7F4FA"/>
<path opacity="0.2" d="M44.8818 25.8188L42.7378 24.1384L43.4802 26.7593L44.524 27.5775L45.1527 26.7753L44.8818 25.8188Z" fill="#E7F4FA"/>
<path d="M45.0842 30.1187L40.4744 13.8442L35.8645 30.1187L34.3203 29.6813L39.7023 10.6811C39.8001 10.3357 40.1154 10.0973 40.4744 10.0973C40.8333 10.0973 41.1486 10.3357 41.2465 10.6811L46.6284 29.6814L45.0842 30.1187Z" fill="#333E48"/>
<path opacity="0.2" d="M41.2461 10.6811C41.1483 10.3357 40.833 10.0973 40.4741 10.0973C40.1151 10.0973 39.7998 10.3357 39.702 10.6811L38.2263 15.8907C38.6802 16.1682 39.1897 16.3632 39.7339 16.4572L40.4741 13.8442L41.2142 16.4572C41.7583 16.3632 42.2678 16.1682 42.7218 15.8907L41.2461 10.6811Z" fill="#E7F4FA"/>
<path d="M40.4741 15.1007C42.0721 15.1007 43.3676 13.8053 43.3676 12.2072C43.3676 10.6092 42.0721 9.31372 40.4741 9.31372C38.876 9.31372 37.5806 10.6092 37.5806 12.2072C37.5806 13.8053 38.876 15.1007 40.4741 15.1007Z" fill="#D1D3D3"/>
<path d="M36.686 15.6524C36.5765 15.6524 36.4679 15.6049 36.3936 15.5133C35.6381 14.5818 35.2219 13.4079 35.2219 12.2079C35.2219 11.0078 35.6381 9.83396 36.3936 8.90258C36.5244 8.74119 36.7613 8.7164 36.9227 8.84743C37.084 8.97826 37.1087 9.21514 36.9779 9.37648C36.3307 10.1743 35.9742 11.1798 35.9742 12.2079C35.9742 13.2359 36.3307 14.2414 36.9779 15.0394C37.1087 15.2007 37.084 15.4376 36.9227 15.5685C36.853 15.6249 36.7692 15.6524 36.686 15.6524Z" fill="#FFB819"/>
<path d="M34.8381 17.1489C34.7286 17.1489 34.6201 17.1014 34.5458 17.0098C33.4484 15.6569 32.844 13.9513 32.844 12.2071C32.844 10.4629 33.4484 8.75724 34.5458 7.40439C34.6766 7.24301 34.9135 7.21826 35.0748 7.34924C35.2361 7.48007 35.2609 7.71695 35.13 7.87829C34.1409 9.09759 33.5963 10.6349 33.5963 12.2071C33.5963 13.7793 34.1409 15.3166 35.13 16.5359C35.2608 16.6972 35.2361 16.934 35.0748 17.0649C35.0052 17.1215 34.9214 17.1489 34.8381 17.1489Z" fill="#FFB819"/>
<path d="M44.2607 15.6511C44.1774 15.6511 44.0937 15.6236 44.024 15.5671C43.8626 15.4363 43.8379 15.1993 43.9688 15.038C44.616 14.2401 44.9725 13.2345 44.9725 12.2065C44.9725 11.1785 44.616 10.1729 43.9688 9.37509C43.838 9.21375 43.8626 8.97692 44.024 8.84603C44.1853 8.7152 44.4221 8.73971 44.5531 8.90118C45.3087 9.83257 45.7248 11.0065 45.7248 12.2065C45.7248 13.4065 45.3087 14.5804 44.5531 15.5119C44.4787 15.6036 44.3702 15.6511 44.2607 15.6511Z" fill="#FFB819"/>
<path d="M46.1086 17.149C46.0254 17.149 45.9416 17.1214 45.8719 17.0649C45.7105 16.9341 45.6858 16.6972 45.8167 16.5358C46.8057 15.3165 47.3504 13.7792 47.3504 12.2071C47.3504 10.6349 46.8057 9.09752 45.8167 7.87827C45.6859 7.71693 45.7105 7.4801 45.8719 7.34922C46.0331 7.21829 46.2701 7.24299 46.4009 7.40437C47.4983 8.75722 48.1027 10.4628 48.1027 12.2071C48.1027 13.9513 47.4983 15.6569 46.4009 17.0097C46.3267 17.1014 46.2181 17.149 46.1086 17.149Z" fill="#FFB819"/>
<path d="M37.2061 29.2557C37.2061 29.0944 37.0743 28.9626 36.913 28.9626H33.2709C33.1097 28.9626 32.9778 29.0944 32.9778 29.2557V30.5454C32.9778 30.7066 33.1097 30.8386 33.2709 30.8386H36.913C37.0743 30.8386 37.2061 30.7066 37.2061 30.5454V29.2557Z" fill="#A4A9AD"/>
<path d="M43.7419 29.2557C43.7419 29.0944 43.8738 28.9626 44.035 28.9626H47.6771C47.8383 28.9626 47.9703 29.0944 47.9703 29.2557V30.5454C47.9703 30.7066 47.8383 30.8386 47.6771 30.8386H44.035C43.8738 30.8386 43.7419 30.7066 43.7419 30.5454V29.2557Z" fill="#A4A9AD"/>
<path d="M47.6777 28.5866H46.7095L42.7373 14.5636C43.3573 13.9683 43.7444 13.1321 43.7444 12.2067C43.7444 10.4038 42.2776 8.93701 40.4748 8.93701C38.6719 8.93701 37.2051 10.4038 37.2051 12.2067C37.2051 13.1321 37.5922 13.9683 38.2122 14.5636L34.2401 28.5866H33.2718C32.9028 28.5866 32.6025 28.8868 32.6025 29.2558V30.5455C32.6025 30.9145 32.9028 31.2148 33.2718 31.2148H36.9139C37.2829 31.2148 37.5831 30.9146 37.5831 30.5455V29.2558C37.5831 28.8868 37.2829 28.5866 36.9139 28.5866H36.69L36.9593 27.636L40.4743 24.8812L43.9922 27.6433L44.2595 28.5867H44.0356C43.6666 28.5867 43.3664 28.8868 43.3664 29.2558V30.5455C43.3664 30.9146 43.6666 31.2149 44.0356 31.2149H47.6777C48.0467 31.2149 48.347 30.9146 48.347 30.5455V29.2558C48.347 28.8868 48.0468 28.5866 47.6777 28.5866ZM37.9574 12.2066C37.9574 10.8185 39.0867 9.68929 40.4748 9.68929C41.8628 9.68929 42.9921 10.8186 42.9921 12.2066C42.9921 13.5947 41.8628 14.7239 40.4748 14.7239C39.0867 14.724 37.9574 13.5947 37.9574 12.2066ZM40.9242 16.8119V21.5336L40.4748 21.8859L40.0253 21.5336V16.8119L40.4041 15.4744C40.4277 15.475 40.4511 15.4763 40.4748 15.4763C40.4985 15.4763 40.5219 15.475 40.5455 15.4744L40.9242 16.8119ZM38.4582 22.3445L38.7093 21.458L39.865 22.3638L39.174 22.9054L38.4582 22.3445ZM38.5641 23.3834L38.0497 23.7866L38.2366 23.1267L38.5641 23.3834ZM38.9308 20.6758L39.273 19.4679V20.944L38.9308 20.6758ZM36.8308 29.3389V30.4624H33.3549V29.3389H36.8308ZM35.9082 28.5866H35.022L38.8573 15.0464C39.104 15.1875 39.3702 15.2979 39.6515 15.3712L35.9082 28.5866ZM37.3073 26.4074L37.7017 25.0152L42.2402 21.4581L42.4913 22.3445L37.3073 26.4074ZM41.6766 20.944V19.4679L42.0187 20.6758L41.6766 20.944ZM42.713 23.1267L42.8999 23.7867L42.3854 23.3834L42.713 23.1267ZM41.0841 24.4033L41.7756 23.8613L43.2479 25.0154L43.6438 26.4131L41.0841 24.4033ZM41.2981 15.3712C41.5794 15.2979 41.8456 15.1875 42.0923 15.0464L45.9276 28.5866H45.0415L41.2981 15.3712ZM47.5947 30.4624H44.1187V29.3389H47.5947V30.4624Z" fill="#A6A8A9"/>
</g>
<g clip-path="url(#clip2_1_83)">
<path d="M27.6448 57.9205L27.2944 57.6359L22.7673 42.2227C23.2945 41.7918 23.5939 41.1654 23.5939 40.4853C23.5939 39.2409 22.5809 38.2272 21.3358 38.2272C20.0914 38.2272 19.0785 39.2409 19.0785 40.4853C19.0785 41.286 19.5014 42.0166 20.1927 42.4231L17.7852 50.6244L17.4406 50.932L17.6447 51.0983L11.113 73.3322L11.0642 73.4994L12.0631 73.7915L12.8579 71.0898L26.574 58.8738L30.909 73.6258L30.9586 73.7921L31.9575 73.5L27.4341 58.1092L27.6448 57.9205ZM26.0389 57.953L13.4134 69.1982L18.5211 51.8131L26.0389 57.953ZM19.0436 50.8965L23.1532 47.2292L25.8683 56.4692L19.0436 50.8965ZM19.256 49.3104L21.1901 42.733C21.3868 42.756 21.593 42.7353 21.8186 42.6835L22.8292 46.1237L19.256 49.3104Z" fill="#A6A8A9"/>
<path d="M25.575 39.558C25.575 40.0431 25.4486 40.5222 25.2112 40.9443L25.1699 41.0833L25.6275 41.6215L25.7548 41.4131C26.1008 40.8534 26.2826 40.2109 26.2826 39.558C26.2826 38.9376 26.1155 38.3247 25.8012 37.785L25.7161 37.6385L25.5668 37.722C25.4693 37.7753 25.3678 37.8218 25.2643 37.8611L25.0676 37.9327L25.1757 38.1125C25.4368 38.5503 25.575 39.0502 25.575 39.558Z" fill="#00DDF7"/>
<path d="M26.7366 43.0427C26.7624 43.07 26.7899 43.0952 26.8149 43.1233L26.9494 43.2719L27.0773 43.1151C27.9047 42.1096 28.36 40.8452 28.36 39.5573C28.36 38.3875 27.9948 37.2607 27.3027 36.2951L27.163 36.1013L27.0217 36.2943C26.9486 36.3955 26.8732 36.497 26.7946 36.5945L26.7147 36.6951L26.7872 36.8009C27.3535 37.6237 27.6516 38.5753 27.6516 39.5581C27.6516 40.6857 27.2768 41.7474 26.567 42.631L26.4841 42.7353L26.6312 42.9343C26.6655 42.9711 26.7011 43.0072 26.7366 43.0427Z" fill="#00DDF7"/>
<path d="M29.9083 39.5577C29.9083 41.2545 29.2916 42.9085 28.1723 44.2135L28.0614 44.3429L28.1892 44.4561C28.2514 44.5115 28.3157 44.5656 28.3793 44.6181L28.5995 44.8059L28.7119 44.6743C29.9399 43.2421 30.6165 41.4247 30.6165 39.5571C30.6165 37.6281 29.9046 35.7677 28.6142 34.3201L28.4714 34.1575L28.3442 34.3341C28.2717 34.4347 28.2008 34.5388 28.1291 34.6455L28.0537 34.7549L28.1409 34.8556C29.2813 36.1633 29.9083 37.832 29.9083 39.5577Z" fill="#00DDF7"/>
<path d="M32.1652 39.5578C32.1652 41.7878 31.3673 43.9542 29.9174 45.6599L29.8021 45.7966L29.9418 45.9067C30.0232 45.9741 30.1052 46.0435 30.1843 46.1123L30.3448 46.2513L30.4581 46.1183C32.016 44.2854 32.8744 41.9564 32.8744 39.5578C32.8744 36.9981 31.9133 34.5516 30.1682 32.6683L30.0535 32.5449L29.9263 32.655C29.8664 32.7069 29.8058 32.7631 29.748 32.817L29.5247 33.0203L29.6445 33.1496C31.2706 34.9005 32.1652 37.1764 32.1652 39.5578Z" fill="#00DDF7"/>
<path d="M16.7366 41.6215L17.2151 41.0544L17.1537 40.9449C16.9157 40.5226 16.7893 40.0435 16.7893 39.5587C16.7893 39.05 16.9283 38.5501 17.1893 38.1125L17.2965 37.9327L17.1006 37.8611C16.9971 37.8212 16.8959 37.7753 16.7982 37.722L16.6496 37.6385L16.5645 37.785C16.248 38.3249 16.0825 38.9376 16.0825 39.558C16.0825 40.2103 16.2643 40.8528 16.6098 41.4131L16.7366 41.6215Z" fill="#00DDF7"/>
<path d="M15.2868 43.1153L15.4132 43.2721L15.5486 43.1235C15.5744 43.0954 15.6004 43.0702 15.6277 43.043C15.6632 43.0074 15.6987 42.9713 15.7409 42.9217L15.8799 42.7353L15.7965 42.631C15.0874 41.7474 14.711 40.6857 14.711 39.5581C14.711 38.5755 15.0104 37.6239 15.5754 36.8009L15.6485 36.6951L15.568 36.5945C15.4888 36.4976 15.4143 36.3955 15.3403 36.2943L15.1998 36.1013L15.0608 36.2957C14.3695 37.2605 14.0034 38.3881 14.0034 39.5579C14.0032 40.8454 14.4596 42.1089 15.2868 43.1153Z" fill="#00DDF7"/>
<path d="M13.6532 44.675L13.7656 44.8066L13.9859 44.6188C14.0495 44.5663 14.1131 44.5116 14.1751 44.4568L14.3038 44.3436L14.1914 44.2143C13.0721 42.9092 12.456 41.256 12.456 39.5584C12.456 37.8327 13.0837 36.1638 14.223 34.8575L14.3102 34.7569L14.2356 34.6468C14.1639 34.5396 14.0914 34.4361 14.0206 34.3355L13.8941 34.1588L13.7501 34.3214C12.4585 35.769 11.7478 37.6294 11.7478 39.5584C11.7486 41.4254 12.4244 43.2435 13.6532 44.675Z" fill="#00DDF7"/>
<path d="M12.0476 46.2267L12.18 46.1128C12.2606 46.044 12.342 45.9738 12.4248 45.9073L12.5638 45.7971L12.4486 45.6604C10.9978 43.9547 10.1993 41.7883 10.1993 39.5583C10.1993 37.1761 11.0956 34.901 12.7213 33.151L12.8403 33.0216L12.6192 32.8184C12.5593 32.7644 12.4994 32.7082 12.4395 32.6564L12.3116 32.5463L12.1984 32.6698C10.4526 34.5529 9.49072 36.9997 9.49072 39.5594C9.49072 41.958 10.3491 44.2869 11.9077 46.1198L12.0476 46.2267Z" fill="#00DDF7"/>
</g>
<g clip-path="url(#clip3_1_83)">
<path d="M94.1746 57.9218L93.8242 57.6371L89.2971 42.224C89.8243 41.793 90.1236 41.1666 90.1236 40.4865C90.1236 39.2422 89.1107 38.2284 87.8655 38.2284C86.6212 38.2284 85.6083 39.2422 85.6083 40.4865C85.6083 41.2873 86.0312 42.0178 86.7224 42.4244L84.315 50.6256L83.9704 50.9332L84.1745 51.0995L77.6428 73.3334L77.594 73.5006L78.5929 73.7927L79.3877 71.091L93.1038 58.875L97.4388 73.627L97.4884 73.7933L98.4873 73.5012L93.9639 58.1104L94.1746 57.9218ZM92.5687 57.9542L79.9432 69.1994L85.0509 51.8144L92.5687 57.9542ZM85.5734 50.8977L89.683 47.2304L92.3981 56.4704L85.5734 50.8977ZM85.7857 49.3117L87.7199 42.7343C87.9166 42.7572 88.1228 42.7365 88.3484 42.6847L89.359 46.1249L85.7857 49.3117Z" fill="#A6A8A9"/>
<path d="M92.1033 39.558C92.1033 40.0431 91.9769 40.5222 91.7395 40.9443L91.6982 41.0833L92.1558 41.6215L92.2831 41.4131C92.6291 40.8534 92.8109 40.2109 92.8109 39.558C92.8109 38.9376 92.6438 38.3247 92.3296 37.785L92.2445 37.6385L92.0951 37.722C91.9976 37.7753 91.8961 37.8218 91.7926 37.8611L91.5959 37.9327L91.704 38.1125C91.9651 38.5503 92.1033 39.0502 92.1033 39.558Z" fill="#00DDF7"/>
<path d="M93.2649 43.0427C93.2907 43.07 93.3182 43.0952 93.3432 43.1233L93.4777 43.2719L93.6056 43.1151C94.433 42.1096 94.8883 40.8452 94.8883 39.5573C94.8883 38.3875 94.5231 37.2607 93.831 36.2951L93.6913 36.1013L93.55 36.2943C93.4769 36.3955 93.4015 36.497 93.323 36.5945L93.243 36.6951L93.3155 36.8009C93.8818 37.6237 94.1799 38.5753 94.1799 39.5581C94.1799 40.6857 93.8052 41.7474 93.0953 42.631L93.0125 42.7353L93.1595 42.9343C93.1938 42.9711 93.2294 43.0072 93.2649 43.0427Z" fill="#00DDF7"/>
<path d="M96.4366 39.5577C96.4366 41.2545 95.82 42.9085 94.7006 44.2135L94.5897 44.3429L94.7176 44.4561C94.7797 44.5115 94.844 44.5656 94.9076 44.6181L95.1279 44.8059L95.2402 44.6743C96.4683 43.2421 97.1449 41.4247 97.1449 39.5571C97.1449 37.6281 96.4329 35.7677 95.1425 34.3201L94.9998 34.1575L94.8725 34.3341C94.8 34.4347 94.7291 34.5388 94.6574 34.6455L94.582 34.7549L94.6692 34.8556C95.8096 36.1633 96.4366 37.832 96.4366 39.5577Z" fill="#00DDF7"/>
<path d="M98.6935 39.5578C98.6935 41.7878 97.8956 43.9542 96.4457 45.6599L96.3304 45.7966L96.4701 45.9067C96.5515 45.9741 96.6335 46.0435 96.7126 46.1123L96.8732 46.2513L96.9864 46.1183C98.5443 44.2854 99.4027 41.9564 99.4027 39.5578C99.4027 36.9981 98.4416 34.5516 96.6965 32.6683L96.5819 32.5449L96.4546 32.655C96.3947 32.7069 96.3342 32.7631 96.2763 32.817L96.053 33.0203L96.1728 33.1496C97.7989 34.9005 98.6935 37.1764 98.6935 39.5578Z" fill="#00DDF7"/>
<path d="M83.2649 41.6215L83.7434 41.0544L83.682 40.9449C83.444 40.5226 83.3176 40.0435 83.3176 39.5587C83.3176 39.05 83.4566 38.5501 83.7176 38.1125L83.8248 37.9327L83.6289 37.8611C83.5254 37.8212 83.4242 37.7753 83.3265 37.722L83.1779 37.6385L83.0928 37.785C82.7763 38.3249 82.6108 38.9376 82.6108 39.558C82.6108 40.2103 82.7926 40.8528 83.1381 41.4131L83.2649 41.6215Z" fill="#00DDF7"/>
<path d="M81.8151 43.1153L81.9416 43.2721L82.0769 43.1235C82.1027 43.0954 82.1287 43.0702 82.156 43.043C82.1915 43.0074 82.2271 42.9713 82.2692 42.9217L82.4083 42.7353L82.3248 42.631C81.6157 41.7474 81.2393 40.6857 81.2393 39.5581C81.2393 38.5755 81.5387 37.6239 82.1037 36.8009L82.1769 36.6951L82.0963 36.5945C82.0172 36.4976 81.9426 36.3955 81.8686 36.2943L81.7281 36.1013L81.5891 36.2957C80.8978 37.2605 80.5317 38.3881 80.5317 39.5579C80.5315 40.8454 80.9879 42.1089 81.8151 43.1153Z" fill="#00DDF7"/>
<path d="M80.1816 44.675L80.2939 44.8066L80.5142 44.6188C80.5778 44.5663 80.6414 44.5116 80.7034 44.4568L80.8321 44.3436L80.7197 44.2143C79.6004 42.9092 78.9843 41.256 78.9843 39.5584C78.9843 37.8327 79.612 36.1638 80.7514 34.8575L80.8385 34.7569L80.764 34.6468C80.6923 34.5396 80.6197 34.4361 80.5489 34.3355L80.4225 34.1588L80.2785 34.3214C78.9868 35.769 78.2761 37.6294 78.2761 39.5584C78.2769 41.4254 78.9527 43.2435 80.1816 44.675Z" fill="#00DDF7"/>
<path d="M78.5759 46.2267L78.7083 46.1128C78.7889 46.044 78.8703 45.9738 78.9531 45.9073L79.0922 45.7971L78.9769 45.6604C77.5262 43.9547 76.7277 41.7883 76.7277 39.5583C76.7277 37.1761 77.6239 34.901 79.2496 33.151L79.3686 33.0216L79.1475 32.8184C79.0876 32.7644 79.0277 32.7082 78.9678 32.6564L78.8399 32.5463L78.7267 32.6698C76.981 34.5529 76.019 36.9997 76.019 39.5594C76.019 41.958 76.8775 44.2869 78.436 46.1198L78.5759 46.2267Z" fill="#00DDF7"/>
</g>
<g clip-path="url(#clip4_1_83)">
<path d="M68.1785 22.0009L67.975 21.8356L65.3463 12.886C65.6525 12.6358 65.8263 12.2721 65.8263 11.8772C65.8263 11.1547 65.2381 10.566 64.5152 10.566C63.7926 10.566 63.2045 11.1547 63.2045 11.8772C63.2045 12.3422 63.45 12.7663 63.8514 13.0024L62.4535 17.7644L62.2534 17.943L62.372 18.0396L58.5793 30.9496L58.551 31.0467L59.131 31.2163L59.5925 29.6476L67.5567 22.5544L70.0738 31.1201L70.1026 31.2166L70.6826 31.047L68.0561 22.1104L68.1785 22.0009ZM67.246 22.0197L59.9151 28.5492L62.8808 18.4547L67.246 22.0197ZM63.1842 17.9224L65.5704 15.793L67.1469 21.1582L63.1842 17.9224ZM63.3075 17.0015L64.4306 13.1823C64.5448 13.1957 64.6645 13.1837 64.7955 13.1536L65.3823 15.1511L63.3075 17.0015Z" fill="#A6A8A9"/>
<path d="M66.9758 11.3376C66.9758 11.6192 66.9024 11.8974 66.7645 12.1425L66.7405 12.2232L67.0062 12.5357L67.0801 12.4147C67.2811 12.0897 67.3866 11.7166 67.3866 11.3376C67.3866 10.9773 67.2896 10.6214 67.1071 10.3081L67.0577 10.223L66.971 10.2715C66.9144 10.3024 66.8555 10.3294 66.7954 10.3522L66.6812 10.3938L66.7439 10.4982C66.8955 10.7524 66.9758 11.0427 66.9758 11.3376Z" fill="#00DDF7"/>
<path d="M67.6503 13.3608C67.6652 13.3767 67.6812 13.3913 67.6957 13.4076L67.7738 13.4939L67.8481 13.4028C68.3285 12.819 68.5929 12.0848 68.5929 11.337C68.5929 10.6578 68.3808 10.0035 67.9789 9.44284L67.8978 9.33032L67.8158 9.44236C67.7733 9.50114 67.7295 9.56004 67.684 9.61666L67.6375 9.67508L67.6796 9.7365C68.0085 10.2143 68.1816 10.7668 68.1816 11.3375C68.1816 11.9922 67.9639 12.6087 67.5518 13.1218L67.5037 13.1823L67.5891 13.2978C67.609 13.3192 67.6296 13.3402 67.6503 13.3608Z" fill="#00DDF7"/>
<path d="M69.4914 11.3381C69.4914 12.3233 69.1333 13.2837 68.4834 14.0415L68.419 14.1166L68.4932 14.1824C68.5294 14.2145 68.5667 14.2459 68.6036 14.2764L68.7315 14.3854L68.7967 14.309C69.5098 13.4775 69.9026 12.4222 69.9026 11.3378C69.9026 10.2177 69.4893 9.13748 68.74 8.29692L68.6571 8.20251L68.5832 8.30508C68.5411 8.3635 68.5 8.42396 68.4583 8.48586L68.4146 8.54944L68.4652 8.60786C69.1273 9.3672 69.4914 10.3361 69.4914 11.3381Z" fill="#00DDF7"/>
<path d="M70.8015 11.3376C70.8015 12.6325 70.3382 13.8904 69.4964 14.8807L69.4294 14.9602L69.5105 15.0241C69.5578 15.0632 69.6054 15.1035 69.6513 15.1435L69.7445 15.2242L69.8103 15.1469C70.7149 14.0827 71.2133 12.7304 71.2133 11.3376C71.2133 9.85134 70.6553 8.43079 69.642 7.33724L69.5754 7.26562L69.5015 7.32956C69.4667 7.35967 69.4316 7.3923 69.398 7.42361L69.2683 7.54165L69.3379 7.61675C70.2821 8.6334 70.8015 9.95487 70.8015 11.3376Z" fill="#00DDF7"/>
<path d="M61.8439 12.5357L62.1217 12.2064L62.0861 12.1428C61.9479 11.8977 61.8745 11.6195 61.8745 11.3379C61.8745 11.0426 61.9552 10.7523 62.1067 10.4982L62.169 10.3938L62.0553 10.3522C61.9952 10.3291 61.9364 10.3024 61.8796 10.2715L61.7934 10.223L61.744 10.3081C61.5602 10.6215 61.4641 10.9773 61.4641 11.3376C61.4641 11.7163 61.5697 12.0893 61.7702 12.4147L61.8439 12.5357Z" fill="#00DDF7"/>
<path d="M61.0023 13.4029L61.0757 13.494L61.1543 13.4077C61.1692 13.3914 61.1844 13.3768 61.2002 13.3609C61.2208 13.3403 61.2415 13.3193 61.2659 13.2905L61.3467 13.1823L61.2982 13.1218C60.8865 12.6087 60.6679 11.9922 60.6679 11.3375C60.6679 10.767 60.8418 10.2144 61.1698 9.7365L61.2123 9.67508L61.1655 9.61666C61.1196 9.5604 61.0763 9.50114 61.0333 9.44236L60.9518 9.33032L60.871 9.4432C60.4696 10.0034 60.2571 10.6581 60.2571 11.3374C60.257 12.0849 60.5219 12.8186 61.0023 13.4029Z" fill="#00DDF7"/>
<path d="M60.0524 14.3087L60.1177 14.3851L60.2456 14.276C60.2825 14.2456 60.3195 14.2138 60.3554 14.182L60.4302 14.1163L60.3649 14.0412C59.715 13.2834 59.3573 12.3235 59.3573 11.3378C59.3573 10.3357 59.7217 9.36672 60.3833 8.60822L60.4339 8.5498L60.3906 8.48586C60.349 8.4236 60.3069 8.3635 60.2657 8.30508L60.1923 8.20251L60.1087 8.29692C59.3587 9.13748 58.946 10.2177 58.946 11.3378C58.9465 12.4218 59.3389 13.4775 60.0524 14.3087Z" fill="#00DDF7"/>
<path d="M59.1208 15.2091L59.1977 15.143C59.2445 15.103 59.2918 15.0622 59.3399 15.0236L59.4206 14.9597L59.3537 14.8803C58.5113 13.8899 58.0477 12.632 58.0477 11.3372C58.0477 9.95391 58.5681 8.63292 59.512 7.61675L59.5811 7.54165L59.4528 7.42361C59.418 7.3923 59.3832 7.35967 59.3484 7.32956L59.2742 7.26562L59.2084 7.33736C58.1948 8.43079 57.6362 9.85146 57.6362 11.3378C57.6362 12.7305 58.1347 14.0828 59.0396 15.1471L59.1208 15.2091Z" fill="#00DDF7"/>
</g>
<defs>
<clipPath id="clip0_1_83">
<rect width="58.5449" height="58.5449" fill="white" transform="translate(24.5071 47.1812)"/>
</clipPath>
<clipPath id="clip1_1_83">
<rect width="23.9502" height="23.9502" fill="white" transform="translate(28.4988 7.26416)"/>
</clipPath>
<clipPath id="clip2_1_83">
<rect width="41.2476" height="41.2476" fill="white" transform="translate(0.556885 32.5449)"/>
</clipPath>
<clipPath id="clip3_1_83">
<rect width="41.2476" height="41.2476" fill="white" transform="translate(67.0852 32.5449)"/>
</clipPath>
<clipPath id="clip4_1_83">
<rect width="23.9502" height="23.9502" fill="white" transform="translate(52.449 7.26416)"/>
</clipPath>
</defs>
</svg>
