<svg width="597" height="414" viewBox="0 0 597 414" fill="none" xmlns="http://www.w3.org/2000/svg">
<g clip-path="url(#clip0_150_8609)">
<path d="M543.796 389.945C527.654 392.257 73.6453 383.777 73.6453 383.777C8.23395 378.707 -15.2664 306.211 9.85248 258.138C64.5411 153.486 10.4521 146.965 30.9201 98.0211C65.5137 15.3016 157.567 94.0116 233.446 37.7734C234.872 36.7174 236.271 35.6711 237.66 34.6565C371.64 -62.8792 371.298 77.1125 479.162 70.5739C634.377 61.1647 548.269 207.841 581.007 260.355C586.54 269.23 590.465 278.513 592.978 287.895C606.894 339.853 583.308 384.28 543.796 389.943V389.945Z" fill="#E7F4FA"/>
<path d="M568.395 389.946C568.395 403.235 451.978 414 308.475 414C164.973 414 48.5557 403.206 48.5557 389.946C48.5557 376.686 164.612 365.889 308.475 365.889C452.339 365.889 568.395 376.603 568.395 389.946Z" fill="#E6E6E6"/>
<path d="M382.399 387.395C389.051 389.48 396.132 385.775 398.216 379.12L428.973 280.896C431.057 274.24 427.354 267.156 420.702 265.07C414.05 262.985 406.969 266.69 404.885 273.345L374.128 371.569C372.044 378.225 375.747 385.31 382.399 387.395Z" fill="#4E4E4E"/>
<path d="M291.203 99.124L467.973 256.598L477.419 280.813L455.115 298.902L215.9 295.217L291.203 99.124Z" fill="#0071ED"/>
<path d="M334.583 227.617C353.693 177.016 345.788 127.149 316.925 116.237C288.063 105.325 249.174 137.499 230.064 188.101C210.953 238.703 218.859 288.57 247.721 299.482C276.583 310.394 315.472 278.219 334.583 227.617Z" fill="#004E7C"/>
<path d="M467.973 256.598L493.333 274.155C493.333 274.155 507.869 279.165 502.04 296.634C496.212 314.104 489.212 304.083 455.118 298.9C455.118 298.9 479.532 282.552 467.976 256.598H467.973Z" fill="#100259"/>
<path d="M253.343 301.026L212.519 294.815L285.012 95.085L322.867 119.201L298.274 237.791L253.343 301.026Z" fill="#004E7C"/>
<path d="M297.027 213.42C317.82 158.363 311.278 104.885 282.416 93.9725C253.554 83.0604 213.301 118.847 192.508 173.904C171.715 228.961 178.256 282.44 207.118 293.352C235.981 304.264 276.234 268.477 297.027 213.42Z" fill="#0071ED"/>
<path d="M288.685 210.267C307.033 161.685 301.752 114.681 276.891 105.282C252.03 95.8825 217.002 127.646 198.655 176.228C180.307 224.81 185.588 271.813 210.449 281.213C235.31 290.612 270.338 258.848 288.685 210.267Z" fill="#100259"/>
<path d="M268.207 168.215L218.998 171.088L210.271 200.857L251.325 232.277C255.544 236.255 261.86 236.135 266.055 232.033C275.968 222.336 290.264 202.413 278.788 175.134C276.919 170.69 272.731 167.949 268.209 168.215H268.207Z" fill="#0071ED"/>
<path d="M208.346 184.828C206.174 193.44 207.381 201.266 211.04 202.31C214.698 203.354 219.425 197.22 221.594 188.608C223.766 179.997 222.56 172.17 218.901 171.126C215.242 170.083 210.516 176.216 208.346 184.828Z" fill="#E7F4FA"/>
<path d="M161.019 174.792C160.592 174.019 159.776 173.487 158.83 173.472L70.1911 171.975C68.7846 171.951 67.6268 173.072 67.6024 174.48C67.5781 175.887 68.6993 177.045 70.1058 177.07L158.745 178.567C160.151 178.592 161.309 177.47 161.333 176.063C161.34 175.602 161.226 175.167 161.019 174.792Z" fill="#00DDF7"/>
<path d="M152.639 203.437C152.305 202.071 150.927 201.232 149.56 201.567L102.369 213.107C101.004 213.441 100.166 214.819 100.5 216.188C100.834 217.553 102.211 218.392 103.578 218.058L150.769 206.517C152.134 206.183 152.973 204.805 152.639 203.437Z" fill="#00DDF7"/>
<path d="M67.393 110.501C67.2029 110.708 67.0445 110.952 66.9275 111.228C66.379 112.523 66.9835 114.018 68.2803 114.566L163.164 154.749C164.458 155.298 165.953 154.693 166.501 153.396C167.049 152.101 166.445 150.606 165.148 150.057L70.2644 109.874C69.2431 109.442 68.0999 109.725 67.393 110.501Z" fill="#00DDF7"/>
<path d="M141.967 84.4659C141.043 85.4756 141.082 87.0462 142.07 88.0096L181.212 126.163C182.218 127.146 183.832 127.124 184.812 126.117C185.797 125.112 185.772 123.495 184.766 122.515L145.624 84.361C144.617 83.3782 143.003 83.4001 142.023 84.4074C142.004 84.4269 141.984 84.4464 141.967 84.4659Z" fill="#00DDF7"/>
<path d="M361.494 373.539C361.494 373.539 369.565 384.936 369.277 387.031C369.114 388.231 356.743 399.523 355.052 397.996C353.36 396.472 361.799 386.536 360.136 382.663C358.474 378.79 355.815 375.937 355.815 375.937L361.494 373.539Z" fill="#FFA089"/>
<path d="M367.047 382.005C362.725 390.534 359.561 391.021 357.984 390.456C356.178 393.899 354.145 397.17 355.057 397.989C356.751 399.516 369.119 388.224 369.282 387.029C369.387 386.261 368.373 384.251 367.045 382.005H367.047Z" fill="#080435"/>
<path d="M322.114 375.803C322.114 375.803 321.431 383.871 321.251 385.358C321.07 386.846 322.011 391.49 320.807 392.094C319.6 392.704 306.543 398.96 305.441 396.862C304.339 394.767 315.349 386.751 315.52 384.734C315.691 382.717 316.103 374.391 316.103 374.391L322.116 375.803H322.114Z" fill="#FFA089"/>
<path d="M310.074 390.7C307.413 393.238 304.885 395.804 305.441 396.863C306.542 398.962 319.603 392.707 320.807 392.095C321.901 391.546 321.226 387.668 321.226 385.844C315.842 392.012 311.776 391.348 310.074 390.697V390.7Z" fill="#080435"/>
<path d="M341.048 284.006C341.048 284.006 347.091 295.925 348.222 306.558C349.353 317.197 350.433 339.598 351.137 342.993C351.841 346.388 364.734 377.161 364.734 377.161L357.043 382.924C357.043 382.924 337.879 355.892 334.908 343.671C331.939 331.452 328.546 307.821 328.546 307.821C328.546 307.821 325.411 338.064 324.158 346.185C322.905 354.309 324.158 380.559 324.158 380.559H311.239C311.239 380.559 307.739 364.286 308.417 339.498C309.094 314.709 318.425 281.138 318.425 281.138L341.048 284.008V284.006Z" fill="#004E7C"/>
<path d="M306.876 245.315C306.82 247.957 309.882 250.313 308.89 252.761C308.67 253.308 313.021 250.876 312.839 251.434C312.436 252.661 312.6 252.181 313.784 252.695C314.969 253.21 321.017 250.232 322.23 249.796C323.444 249.361 315.83 256.224 317.029 255.749C319.717 254.683 322.686 254.649 325.548 254.234C328.454 253.81 331.359 252.978 334.274 253.329C337.636 253.732 340.588 255.651 343.686 257.017C346.842 258.407 350.243 259.246 353.682 259.48C355.479 259.605 357.346 259.554 358.981 258.8C362.245 257.3 363.681 253.227 362.565 249.905C361.928 248.01 360.558 246.418 358.874 245.367C357.373 244.428 355.415 244.037 354.321 242.535C352.79 240.43 353.94 237.46 353.421 234.906C352.985 232.76 351.288 230.931 349.36 229.989C347.559 229.109 345.277 228.887 343.976 227.197C342.562 225.36 343.181 222.948 343.015 220.822C342.779 217.78 340.907 215.005 338.401 213.264C337.653 212.744 336.836 212.298 335.973 211.932C330.277 209.513 322.645 210.608 320.278 217.144C319.554 219.146 319.486 221.424 318.284 223.18C316.98 225.09 314.489 226.134 313.709 228.314C312.729 231.053 314.962 234.155 314.038 236.913C313.433 238.716 311.669 239.813 310.101 240.886C308.534 241.959 306.911 243.411 306.869 245.315H306.876Z" fill="#4E4E4E"/>
<path d="M336.553 241.508C342.208 242.001 350.898 244.959 355.517 253.61C360.137 262.261 362.06 270.143 362.06 270.143L349.667 273.948L348.648 269.055C348.648 269.055 344.739 284.23 341.528 285.333C338.318 286.432 336.334 284.018 334.455 283.716C332.575 283.413 326.396 285.001 321.431 283.277C316.468 281.557 316.446 277.767 316.034 273.326C315.625 268.885 314.984 264.853 314.984 264.853C314.984 264.853 313.794 244.84 320.185 243.264C326.576 241.689 336.553 241.506 336.553 241.506V241.508Z" fill="#FF6760"/>
<path d="M359.554 270.914C359.554 270.914 359.732 283.994 358.594 290.254C357.453 296.513 350.062 309.758 350.062 309.758L346.213 305.356C346.213 305.356 353.884 286.891 351.103 273.511L359.554 270.916V270.914Z" fill="#FFA089"/>
<path d="M321.053 226.588C321.053 226.588 320.163 225.5 319.6 226.036C318.167 227.405 320.014 228.839 321.085 229.08L321.05 226.588H321.053Z" fill="#EF7B67"/>
<path d="M329.416 211.432C334.211 211.259 338.447 214.768 339.181 219.512C339.422 221.07 339.274 222.592 338.813 223.982C337.838 227.426 337.024 230.206 335.873 232.284C334.706 234.392 334.323 236.845 334.903 239.182L335.488 241.542C330.238 244.871 327.537 242.352 327.537 242.352L326.976 236.818C320.921 236.711 320.6 225.582 320.271 222.319H320.28C320.263 222.197 320.246 222.078 320.234 221.951C319.681 216.485 323.842 211.632 329.416 211.432Z" fill="#FFA089"/>
<path d="M331.079 221.043C332.363 222.109 333.509 223.331 334.652 224.55C335.861 225.838 337.117 227.206 337.533 228.926C338.957 227.594 339.766 225.748 340.422 223.912C340.727 223.063 341.007 222.187 341.043 221.285C341.097 220.007 340.658 218.765 340.224 217.563C339.666 216.007 339.067 214.39 337.858 213.268C337.056 212.524 336.042 212.051 335.008 211.693C332.597 210.861 329.955 210.593 327.478 211.198C325.002 211.805 322.711 213.332 321.419 215.529C319.756 218.363 319.893 221.863 320.081 225.146C320.271 223.755 321.053 222.531 321.814 221.353C322.308 220.585 322.818 219.807 323.537 219.246C324.763 218.292 325.148 218.434 327.286 216.641C328.088 218.595 329.47 219.709 331.076 221.046L331.079 221.043Z" fill="#4E4E4E"/>
<path d="M336.185 226.943C336.307 226.618 336.551 226.355 336.858 226.196C337.487 225.865 338.616 225.458 339.493 226.172C340.78 227.223 338.745 230.56 336.266 229.255C336.266 229.255 335.534 228.66 336.185 226.943Z" fill="#FFA089"/>
<path d="M337.984 268.85C334.43 268.672 331.525 266.47 331.483 266.438C331.452 266.414 331.444 266.368 331.471 266.336C331.495 266.304 331.542 266.297 331.573 266.321C331.627 266.365 337.136 270.533 342.223 267.763C342.257 267.743 342.303 267.758 342.323 267.792C342.342 267.826 342.33 267.87 342.294 267.892C340.846 268.68 339.366 268.916 337.987 268.85H337.984Z" fill="#080435"/>
<path d="M347.322 304.59C347.322 304.59 343.386 306.946 342.152 308.114C340.919 309.282 338.857 309.494 339.254 310.397C339.651 311.297 342.718 310.175 342.718 310.175C342.718 310.175 341.562 313.431 341.058 314.38C340.551 315.326 340.076 317.25 340.739 317.672C341.402 318.099 343.52 313.382 343.52 313.382C343.52 313.382 342.128 317.531 342.657 318.052C343.186 318.574 345.731 313.558 345.731 313.558C345.731 313.558 344.029 317.911 344.195 318.37C344.358 318.826 344.951 318.635 345.928 317.24C346.903 315.845 347.542 314.17 347.542 314.17C347.542 314.17 346.576 317.316 346.591 317.738C346.606 318.155 346.935 318.718 348.161 316.501C349.389 314.282 351.259 309.055 351.135 306.06L347.325 304.597L347.322 304.59Z" fill="#FFA089"/>
<path d="M287.352 217.6C287.352 217.6 288.251 213.1 288.214 211.403C288.178 209.703 289.404 208.032 288.47 207.72C287.539 207.41 286.308 210.437 286.308 210.437C286.308 210.437 284.673 207.396 284.312 206.383C283.951 205.374 282.847 203.728 282.089 203.935C281.328 204.14 283.4 208.878 283.4 208.878C283.4 208.878 281.263 205.062 280.522 205.101C279.781 205.142 281.787 210.4 281.787 210.4C281.787 210.4 279.705 206.215 279.256 206.03C278.808 205.847 278.552 206.413 278.93 208.074C279.308 209.735 280.119 211.332 280.119 211.332C280.119 211.332 278.437 208.503 278.116 208.232C277.796 207.964 277.16 207.827 277.977 210.227C278.796 212.627 281.411 217.524 283.712 219.444L287.354 217.602L287.352 217.6Z" fill="#FFA089"/>
<path d="M320.185 243.267C320.185 243.267 291.315 234.423 287.298 215.225L283.059 217.585C283.059 217.585 288.49 253.766 321.085 256.622L320.185 243.267Z" fill="#FFA089"/>
<path d="M327.512 242.083C327.512 242.083 315.715 241.783 308.329 238.179C308.329 238.179 305.614 253.063 308.329 255.405C308.329 255.405 318.603 260.651 323.198 258.307C327.793 255.963 327.512 242.083 327.512 242.083Z" fill="#FF6760"/>
<path d="M190.881 244.957C190.881 244.957 192.631 241.267 193.56 240.074C194.489 238.881 194.504 237.035 195.335 237.311C196.166 237.584 195.432 240.401 195.432 240.401C195.432 240.401 198.218 239.101 199.013 238.569C199.808 238.04 201.472 237.455 201.904 238.006C202.335 238.557 198.338 240.837 198.338 240.837C198.338 240.837 201.894 239.25 202.401 239.674C202.908 240.098 198.681 242.784 198.681 242.784C198.681 242.784 202.391 240.906 202.811 241.011C203.23 241.118 203.11 241.659 201.958 242.642C200.805 243.628 199.376 244.335 199.376 244.335C199.376 244.335 202.082 243.211 202.452 243.189C202.823 243.167 203.352 243.408 201.492 244.686C199.632 245.964 195.159 248.069 192.497 248.213L190.879 244.959L190.881 244.957Z" fill="#FFA089"/>
<path d="M194.314 248.576L191.857 242.096C191.857 242.096 172.68 250.429 165.339 250.407C157.994 250.386 149.597 243.352 145.531 240.513C141.748 237.869 135.247 249.305 135.247 249.305C135.247 249.305 154.487 278.916 194.314 248.576Z" fill="#004E7C"/>
<path d="M149.326 384.234C149.326 384.234 149.194 393.399 149.265 393.531C149.336 393.663 148.597 394.809 148.597 394.809L145.709 395.326L143.071 394.114C143.071 394.114 143.303 385.592 143.027 384.249C142.752 382.905 149.326 384.234 149.326 384.234Z" fill="#FFA089"/>
<path d="M143.071 394.113C143.071 394.113 146.401 395.279 149.248 393.35C149.248 393.35 160.339 397.508 160 400.671C160 400.671 160.473 401.613 155.669 401.41C150.864 401.208 143.396 400.993 143.196 400.881C142.996 400.769 142.055 401.278 143.071 394.113Z" fill="#080435"/>
<path d="M115.444 384.234C115.444 384.234 115.313 393.399 115.383 393.531C115.454 393.663 114.715 394.809 114.715 394.809L111.827 395.326L109.19 394.114C109.19 394.114 109.421 385.592 109.146 384.249C108.87 382.905 115.444 384.234 115.444 384.234Z" fill="#FFA089"/>
<path d="M109.19 394.113C109.19 394.113 112.519 395.279 115.366 393.35C115.366 393.35 126.457 397.508 126.118 400.671C126.118 400.671 126.591 401.613 121.787 401.41C116.982 401.208 109.514 400.993 109.314 400.881C109.114 400.769 108.173 401.278 109.19 394.113Z" fill="#080435"/>
<path d="M111.205 296.712L107.729 392.114L116.222 392.331L131.215 318.34L141.836 392.579L150.469 392.609L148.122 291.451L125.75 292.493L111.205 296.712Z" fill="#4E4E4E"/>
<path d="M128.351 237.281L123.905 241.744L121.972 271.374V294.28L146.767 295.156V254.734L142.372 240.14L135.098 237.281H128.351Z" fill="white"/>
<path d="M142.411 222.926C142.411 222.926 143.172 221.853 143.732 222.316C145.158 223.502 143.649 224.919 142.665 225.211L142.411 222.924V222.926Z" fill="#EF7E6B"/>
<path d="M142.864 218.892H142.855C142.862 218.778 142.872 218.663 142.874 218.549C143.037 213.41 138.835 209.147 133.614 209.325C129.265 209.473 125.604 212.817 125.065 217.136C124.865 218.741 125.097 220.278 125.66 221.651C126.421 223.768 127.093 225.582 127.82 227.094C129.019 229.594 129.334 232.428 128.785 235.148L128.354 237.286C133.753 240.386 136.344 237.745 136.344 237.745L136.571 233.801C136.6 233.287 137.019 232.884 137.533 232.867C137.536 232.867 137.541 232.867 137.543 232.867C144.368 232.638 142.769 221.965 142.864 218.895V218.892Z" fill="#FFA089"/>
<path d="M123.905 217.819L126.413 224.699L128.049 224.426L129.378 215.437L123.905 217.819Z" fill="#060423"/>
<path d="M128.308 224.241C128.171 223.948 127.927 223.719 127.632 223.587C127.023 223.319 125.943 223.011 125.17 223.738C124.037 224.801 126.155 227.784 128.383 226.406C128.383 226.406 129.027 225.801 128.308 224.241Z" fill="#FFA089"/>
<path d="M141.539 215.373C141.539 215.373 142.794 216.317 142.938 221.753C142.938 221.753 143.567 215.717 142.913 215.029C142.263 214.342 141.539 215.373 141.539 215.373Z" fill="#060423"/>
<path d="M136.344 237.739C136.344 237.739 141.399 253.072 142.233 261.526C142.703 266.308 145.056 309.391 145.056 309.391H153.767C153.767 309.391 150.048 245.251 147.332 242.083C143.951 238.134 136.341 237.739 136.341 237.739H136.344Z" fill="#004E7C"/>
<path d="M128.351 237.281C128.351 237.281 129.635 256.922 129.375 263.05C129.116 269.179 126.749 308.436 126.749 308.436H109.465L110.096 263.636C110.096 263.636 108.843 245.139 114.094 241.015C117.426 238.398 128.351 237.281 128.351 237.281Z" fill="#004E7C"/>
<path d="M97.7452 293.051C97.7452 293.051 100.249 296.278 100.894 297.646C101.54 299.012 103.181 299.858 102.562 300.478C101.943 301.097 99.761 299.173 99.761 299.173C99.761 299.173 99.666 302.248 99.7805 303.197C99.8951 304.146 99.6684 305.894 98.9786 306.033C98.2912 306.172 98.062 301.573 98.062 301.573C98.062 301.573 97.8768 305.463 97.2674 305.726C96.6605 305.99 96.1705 301.002 96.1705 301.002C96.1705 301.002 96.1754 305.163 95.8902 305.49C95.605 305.816 95.176 305.465 94.8177 303.992C94.4594 302.519 94.4716 300.924 94.4716 300.924C94.4716 300.924 94.2546 303.848 94.1059 304.19C93.9572 304.531 93.5038 304.894 93.204 302.656C92.9042 300.419 93.0407 295.475 94.1132 293.034L97.7452 293.054V293.051Z" fill="#FFA089"/>
<path d="M128.351 237.281L123.976 239.92L127.147 249.005L125.506 249.771L129.058 260.826C129.058 260.826 129.772 252.044 128.351 237.281Z" fill="#0071ED"/>
<path d="M133.64 238.133C133.484 238.243 131.844 239.264 131.844 239.264L133.121 241.635L131.003 279.46L135.888 286.82L141.063 279.686L135.018 241.672L135.82 238.935L133.643 238.133H133.64Z" fill="#BD934A"/>
<path d="M93.0726 294.288L99.9928 294.612C99.9928 294.612 99.9879 273.694 102.93 266.963C105.875 260.231 120.497 251.978 120.497 251.978L120.995 238.472C120.995 238.472 81.114 245.654 93.0726 294.288Z" fill="#004E7C"/>
<path d="M136.344 237.739L140.858 240.868L141.399 249.004H142.962L142.394 263.44L136.344 237.739Z" fill="#0071ED"/>
<path d="M128.351 237.281L128.69 235.604C128.69 235.604 133.916 237.872 133.977 237.835C134.04 237.798 136.41 236.56 136.41 236.56L136.341 237.74L136.912 240.169L133.974 238.791L131.303 240.252L128.349 237.284L128.351 237.281Z" fill="white"/>
<path d="M136.568 217.47C137.019 217.468 137.543 217.397 137.782 217.014C137.975 216.702 137.897 216.282 137.692 215.98C137.485 215.678 137.173 215.468 136.868 215.265C139.135 216.473 141.814 217.026 144.315 216.446C145.365 216.202 146.521 215.57 146.628 214.497C146.674 214.034 146.506 213.573 146.282 213.163C145.48 211.707 143.832 210.717 142.175 210.834C143.059 210.68 144.125 210.363 144.307 209.483C144.478 208.668 143.681 207.92 142.862 207.776C142.043 207.632 141.214 207.898 140.4 208.063C139.203 208.307 137.963 208.339 136.754 208.154C136.047 208.046 135.349 207.863 134.638 207.793C132.293 207.556 129.958 208.541 128.083 209.971C128.042 209.476 128.003 208.98 127.964 208.483C127.615 208.22 127.076 208.517 126.938 208.932C126.799 209.346 126.933 209.797 127.067 210.212C126.555 209.915 125.972 209.739 125.382 209.705C125.092 209.688 124.758 209.729 124.593 209.968C124.434 210.197 124.505 210.524 124.68 210.739C124.856 210.953 125.114 211.08 125.365 211.202C124.01 212.436 123.642 214.412 123.576 216.241C123.559 216.726 123.559 217.231 123.759 217.675C123.942 218.087 124.278 218.407 124.605 218.716C125.1 219.185 125.677 219.685 126.355 219.638C126.677 219.616 126.977 219.47 127.247 219.294C128.042 218.78 128.619 218.016 129.097 217.212C129.612 216.346 129.67 215.57 130.738 216.012C132.676 216.812 134.431 217.485 136.576 217.468L136.568 217.47Z" fill="#060423"/>
<path d="M493.573 254.951C493.573 254.951 481.249 266.021 474.007 262.48C466.765 258.941 469.18 230.416 469.18 230.416L473.846 230.575C473.846 230.575 475.937 251.49 478.833 251.429C481.729 251.371 487.845 244.469 487.845 244.469L493.573 254.949V254.951Z" fill="#FFA089"/>
<path d="M495.518 384.994L497.18 374.975L502.502 374.629L501.436 385.553C501.436 385.553 496.922 386.399 495.521 384.997L495.518 384.994Z" fill="white"/>
<path d="M501.505 384.821C501.505 384.821 498.972 385.675 495.518 384.994C495.518 384.994 485.539 388.802 485.739 391.779C485.739 391.779 485.261 392.645 489.778 392.633C494.294 392.621 501.31 392.696 501.5 392.601C501.692 392.504 503.786 391.475 501.505 384.821Z" fill="black"/>
<path d="M501.724 392.635C501.529 392.733 494.416 392.64 489.836 392.643C485.256 392.645 485.739 391.779 485.739 391.779C485.724 391.582 485.758 391.382 485.829 391.179L502.538 390.765C502.426 392.216 501.829 392.582 501.722 392.635H501.724Z" fill="white"/>
<path d="M530.543 384.994L527.789 375.263L534.443 374.139L536.459 385.553C536.459 385.553 531.945 386.399 530.543 384.997V384.994Z" fill="white"/>
<path d="M536.532 384.821C536.532 384.821 533.999 385.675 530.545 384.994C530.545 384.994 520.566 388.802 520.766 391.779C520.766 391.779 520.288 392.645 524.805 392.633C529.322 392.621 536.337 392.696 536.527 392.601C536.72 392.504 538.814 391.475 536.532 384.821Z" fill="black"/>
<path d="M536.749 392.635C536.554 392.733 529.441 392.64 524.861 392.643C520.281 392.645 520.764 391.779 520.764 391.779C520.749 391.582 520.783 391.382 520.854 391.179L537.563 390.765C537.451 392.216 536.856 392.582 536.747 392.635H536.749Z" fill="white"/>
<path d="M531.16 291.968L536.954 380.519H527.942L512.361 313.864L503.484 380.519H494.794C494.794 380.519 495.437 304.526 494.794 291.968C494.15 279.41 531.16 291.968 531.16 291.968Z" fill="#BD934A"/>
<path d="M519.267 229.86C519.267 229.86 535.988 234.864 538.562 239.371C541.136 243.879 541.726 255.9 541.726 255.9L532.339 257.402L532.554 297.117C532.554 297.117 517.965 302.268 494.148 297.117V256.973L491.359 258.69L482.991 246.883C482.991 246.883 494.723 233.557 500.425 231.911C510.321 229.053 519.264 229.857 519.264 229.857L519.267 229.86Z" fill="#0071ED"/>
<path d="M540.734 255.902C540.734 255.902 540.6 273.613 535.452 274.257C530.304 274.901 522.443 261.675 518.421 249.758L523.142 248.878L530.358 257.351V254.775C530.358 254.775 538.323 254.507 540.737 255.902H540.734Z" fill="#FFA089"/>
<path d="M508.018 214.434C508.018 214.434 507.369 213.273 506.736 213.666C505.117 214.668 506.492 216.263 507.467 216.678L508.018 214.434Z" fill="#E56D5E"/>
<path d="M508.064 210.366H508.074C508.081 210.253 508.086 210.136 508.098 210.022C508.581 204.89 513.449 201.164 518.801 201.981C523.262 202.661 526.606 206.434 526.614 210.8C526.616 212.419 526.182 213.919 525.432 215.217C524.379 217.231 523.457 218.95 522.519 220.365C520.968 222.706 520.283 225.484 520.505 228.257L520.678 230.438C514.726 232.859 512.393 229.913 512.393 229.913L512.661 225.965C512.695 225.45 512.315 224.999 511.786 224.918C511.784 224.918 511.779 224.918 511.776 224.918C504.778 223.855 507.779 213.434 508.067 210.368L508.064 210.366Z" fill="#FFA089"/>
<path d="M527.343 212.337L524.267 218.156L522.619 217.685L522.346 209.803L527.343 212.337Z" fill="#FF6760"/>
<path d="M522.375 217.468C522.55 217.192 522.833 216.994 523.152 216.902C523.813 216.709 524.963 216.536 525.668 217.353C526.699 218.55 524.142 221.255 522.021 219.611C522.021 219.611 521.436 218.931 522.372 217.468H522.375Z" fill="#FFA089"/>
<path d="M509.875 207.026C509.875 207.026 508.464 207.812 507.625 213.202C507.625 213.202 507.744 207.122 508.5 206.517C509.258 205.912 509.872 207.026 509.872 207.026H509.875Z" fill="#FF6760"/>
<path d="M528.344 209.668C528.383 208.532 528.161 207.385 527.845 206.293C527.528 205.2 526.874 204.166 525.887 203.603C525.439 203.347 524.912 203.178 524.6 202.766C524.391 202.488 524.308 202.135 524.147 201.825C523.491 200.566 521.76 200.354 520.369 200.63C518.977 200.905 517.59 201.503 516.191 201.259C514.633 200.988 513.124 199.698 511.654 200.283C511.16 200.479 510.767 200.866 510.302 201.122C509.385 201.627 508.283 201.586 507.24 201.649C506.197 201.713 505.049 201.959 504.444 202.813C503.742 203.8 504.21 205.393 505.334 205.844C505.548 205.929 505.782 205.981 505.973 206.11C506.809 206.673 506.282 208.164 507.008 208.863C507.381 209.224 507.969 209.244 508.481 209.146C508.99 209.051 509.492 208.861 510.012 208.888C511.15 208.942 512.013 209.985 513.127 210.232C514.709 210.583 516.217 209.259 517.836 209.29C520.235 209.337 521.653 212.158 523.949 212.858C526.789 213.722 528.257 212.161 528.344 209.671V209.668Z" fill="#FF6760"/>
<path d="M522.955 249.807C522.955 249.807 523.874 245.469 523.825 243.937C523.776 242.405 524.866 240.884 524.02 240.613C523.174 240.34 522.097 243.086 522.097 243.086C522.097 243.086 520.591 240.354 520.254 239.445C519.918 238.535 518.906 237.062 518.221 237.254C517.536 237.447 519.455 241.705 519.455 241.705C519.455 241.705 517.488 238.281 516.82 238.325C516.149 238.369 518.012 243.096 518.012 243.096C518.012 243.096 516.093 239.34 515.686 239.176C515.279 239.013 515.055 239.528 515.411 241.023C515.767 242.518 516.517 243.952 516.517 243.952C516.517 243.952 514.972 241.413 514.68 241.174C514.387 240.935 513.812 240.818 514.575 242.976C515.338 245.135 517.746 249.532 519.84 251.239L522.957 249.81L522.955 249.807Z" fill="#FFA089"/>
<path d="M473.875 232.221C473.875 232.221 474.794 227.882 474.745 226.351C474.696 224.819 475.786 223.297 474.94 223.024C474.094 222.751 473.017 225.497 473.017 225.497C473.017 225.497 471.511 222.765 471.174 221.856C470.838 220.946 469.826 219.473 469.141 219.666C468.456 219.858 470.375 224.117 470.375 224.117C470.375 224.117 468.408 220.692 467.74 220.736C467.069 220.78 468.932 225.507 468.932 225.507C468.932 225.507 467.013 221.751 466.606 221.587C466.199 221.424 465.975 221.939 466.331 223.434C466.687 224.929 467.437 226.363 467.437 226.363C467.437 226.363 465.892 223.824 465.6 223.585C465.307 223.346 464.732 223.229 465.492 225.387C466.255 227.546 468.664 231.943 470.757 233.65L473.875 232.221Z" fill="#FFA089"/>
<g opacity="0.8">
<path d="M404.69 113.645H498.699C503.321 113.645 507.067 117.393 507.067 122.017V163.607C507.067 168.232 503.321 171.98 498.699 171.98H489.5V188.123L479.557 171.98H404.69C400.069 171.98 396.322 168.232 396.322 163.607V122.017C396.322 117.393 400.069 113.645 404.69 113.645Z" fill="white"/>
</g>
<path d="M488.924 146.401C494.222 146.401 498.516 142.104 498.516 136.804C498.516 131.504 494.222 127.207 488.924 127.207C483.627 127.207 479.333 131.504 479.333 136.804C479.333 142.104 483.627 146.401 488.924 146.401Z" fill="#00DDF7"/>
<path d="M439.367 129.722H469.029C469.094 129.722 469.146 129.669 469.146 129.605V127.324C469.146 127.26 469.094 127.207 469.029 127.207H439.367C439.302 127.207 439.25 127.26 439.25 127.324V129.605C439.25 129.669 439.302 129.722 439.367 129.722Z" fill="#00DDF7"/>
<path d="M469.031 138.636H404.797C404.732 138.636 404.68 138.582 404.68 138.519V136.238C404.68 136.172 404.734 136.121 404.797 136.121H469.031C469.097 136.121 469.148 136.175 469.148 136.238V138.519C469.148 138.585 469.095 138.636 469.031 138.636Z" fill="#00DDF7"/>
<path d="M469.031 145.34H419.615C419.549 145.34 419.498 145.286 419.498 145.223V142.942C419.498 142.877 419.552 142.825 419.615 142.825H469.031C469.097 142.825 469.148 142.879 469.148 142.942V145.223C469.148 145.289 469.095 145.34 469.031 145.34Z" fill="#00DDF7"/>
<path d="M477.266 161.688C477.266 160.022 478.616 158.671 480.281 158.671C481.946 158.671 483.296 160.022 483.296 161.688C483.296 163.354 481.946 164.705 480.281 164.705C478.616 164.705 477.266 163.354 477.266 161.688Z" fill="#00DDF7"/>
<path d="M461.563 164.705C459.898 164.705 458.548 163.354 458.548 161.688C458.548 160.022 459.898 158.671 461.563 158.671C463.228 158.671 464.578 160.022 464.578 161.688C464.578 163.354 463.228 164.705 461.563 164.705Z" fill="#00DDF7"/>
<path d="M444.322 164.705C442.658 164.705 441.307 163.354 441.307 161.688C441.307 160.022 442.658 158.671 444.322 158.671C445.987 158.671 447.338 160.022 447.338 161.688C447.338 163.354 445.987 164.705 444.322 164.705Z" fill="#00DDF7"/>
</g>
<defs>
<clipPath id="clip0_150_8609">
<rect width="597" height="414" fill="white"/>
</clipPath>
</defs>
</svg>
