<svg width="537" height="441" viewBox="0 0 537 441" fill="none" xmlns="http://www.w3.org/2000/svg">
<g clip-path="url(#clip0_56_9891)">
<path fill-rule="evenodd" clip-rule="evenodd" d="M0 282.573L268.5 124.148L537 282.573L268.5 441L0 282.573Z" fill="#E6E6E6"/>
<path fill-rule="evenodd" clip-rule="evenodd" d="M0 258.167V247.047L268.5 405.474L537 247.047V258.167L268.5 416.595L0 258.167Z" fill="#004E7C"/>
<path fill-rule="evenodd" clip-rule="evenodd" d="M0 247.047L268.5 88.6226L537 247.047L268.5 405.474L0 247.047Z" fill="#00DDF7"/>
<path fill-rule="evenodd" clip-rule="evenodd" d="M31.1874 248.178C30.5641 247.811 30.3542 247.004 30.7249 246.381C31.0923 245.758 31.8993 245.552 32.5225 245.919L34.7861 247.254C35.4094 247.621 35.616 248.428 35.2486 249.051C34.8812 249.674 34.0742 249.88 33.4476 249.513L31.1841 248.178H31.1874ZM35.1765 246.614L37.44 245.279C38.0633 244.912 38.2732 244.105 37.9025 243.482C37.5318 242.859 36.7281 242.653 36.1048 243.02L33.8413 244.355C33.218 244.722 33.0113 245.529 33.3788 246.155C33.7462 246.778 34.5532 246.988 35.1765 246.617V246.614ZM44.2306 241.272C43.6073 241.639 42.8003 241.433 42.4329 240.81C42.0654 240.187 42.2721 239.38 42.8954 239.013L45.1589 237.678C45.7822 237.311 46.5892 237.517 46.9566 238.14C47.324 238.763 47.1174 239.57 46.4941 239.941L44.2306 241.275V241.272ZM53.2846 235.93C52.6614 236.297 51.8544 236.091 51.487 235.468C51.1195 234.844 51.3262 234.038 51.9495 233.67L54.213 232.336C54.8363 231.968 55.6433 232.175 56.0107 232.798C56.3781 233.421 56.1715 234.228 55.5482 234.598L53.2846 235.933V235.93ZM62.3388 230.585C61.7155 230.952 60.9085 230.745 60.5378 230.122C60.1704 229.499 60.377 228.692 61.0003 228.325L63.2638 226.99C63.8871 226.623 64.6941 226.83 65.0648 227.453C65.4322 228.076 65.2256 228.883 64.6023 229.25L62.3388 230.585ZM71.3929 225.242C70.7696 225.61 69.9626 225.403 69.5919 224.78C69.2245 224.157 69.4311 223.35 70.0544 222.983L72.3179 221.648C72.9412 221.281 73.7482 221.487 74.1189 222.111C74.4863 222.734 74.2797 223.54 73.6564 223.908L71.3929 225.242ZM80.4469 219.9C79.8237 220.268 79.0167 220.061 78.6493 219.438C78.2818 218.815 78.4885 218.008 79.1118 217.637L81.3753 216.303C81.9986 215.935 82.8056 216.142 83.173 216.765C83.5404 217.388 83.3338 218.195 82.7105 218.562L80.4469 219.897V219.9ZM89.501 214.558C88.8778 214.925 88.0708 214.719 87.7034 214.096C87.3359 213.473 87.5426 212.666 88.1659 212.295L90.4294 210.961C91.0527 210.593 91.8597 210.8 92.2271 211.423C92.5945 212.046 92.3879 212.853 91.7646 213.22L89.501 214.555V214.558ZM98.5551 209.216C97.9319 209.583 97.1249 209.377 96.7575 208.754C96.39 208.13 96.5967 207.324 97.22 206.956L99.4835 205.622C100.107 205.254 100.914 205.461 101.281 206.084C101.649 206.707 101.442 207.514 100.819 207.885L98.5551 209.219V209.216ZM107.609 203.874C106.986 204.241 106.179 204.035 105.808 203.411C105.441 202.788 105.648 201.982 106.271 201.614L108.534 200.28C109.158 199.912 109.965 200.119 110.335 200.742C110.703 201.365 110.496 202.172 109.873 202.542L107.609 203.877V203.874ZM116.663 198.532C116.04 198.899 115.233 198.692 114.866 198.069C114.498 197.446 114.705 196.639 115.328 196.272L117.592 194.937C118.215 194.57 119.022 194.777 119.389 195.4C119.757 196.023 119.55 196.83 118.927 197.197L116.663 198.532ZM125.717 193.186C125.094 193.554 124.287 193.347 123.92 192.724C123.552 192.101 123.759 191.294 124.382 190.927L126.646 189.592C127.269 189.225 128.076 189.431 128.444 190.054C128.811 190.678 128.604 191.484 127.981 191.852L125.717 193.186ZM134.772 187.844C134.148 188.211 133.341 188.005 132.974 187.382C132.606 186.759 132.813 185.952 133.436 185.585L135.7 184.25C136.323 183.883 137.13 184.089 137.498 184.712C137.865 185.335 137.658 186.142 137.035 186.509L134.772 187.844ZM143.826 182.502C143.202 182.869 142.395 182.663 142.025 182.04C141.657 181.417 141.864 180.61 142.487 180.239L144.751 178.905C145.374 178.537 146.181 178.744 146.552 179.367C146.919 179.99 146.712 180.797 146.089 181.164L143.826 182.499V182.502ZM152.88 177.16C152.256 177.527 151.449 177.321 151.082 176.697C150.715 176.074 150.921 175.268 151.545 174.9L153.808 173.566C154.431 173.198 155.238 173.405 155.606 174.028C155.973 174.651 155.767 175.458 155.143 175.825L152.88 177.16ZM161.934 171.818C161.311 172.185 160.504 171.978 160.136 171.355C159.769 170.732 159.975 169.926 160.599 169.555L162.862 168.22C163.486 167.853 164.293 168.06 164.66 168.683C165.027 169.306 164.821 170.112 164.197 170.48L161.934 171.814V171.818ZM170.988 166.476C170.365 166.843 169.558 166.636 169.19 166.013C168.823 165.39 169.029 164.583 169.653 164.213L171.916 162.878C172.54 162.511 173.347 162.717 173.714 163.341C174.081 163.964 173.875 164.77 173.251 165.141L170.988 166.476ZM180.042 161.133C179.419 161.501 178.612 161.294 178.241 160.671C177.874 160.048 178.08 159.241 178.704 158.871L180.967 157.536C181.59 157.169 182.397 157.375 182.768 157.998C183.136 158.621 182.929 159.428 182.306 159.799L180.042 161.133ZM189.096 155.791C188.473 156.159 187.666 155.952 187.295 155.329C186.928 154.706 187.134 153.899 187.758 153.532L190.021 152.197C190.645 151.83 191.452 152.036 191.822 152.66C192.19 153.283 191.983 154.089 191.36 154.457L189.096 155.791ZM198.15 150.449C197.527 150.816 196.72 150.61 196.353 149.987C195.985 149.364 196.192 148.557 196.815 148.19L199.079 146.855C199.702 146.488 200.509 146.694 200.876 147.317C201.244 147.94 201.037 148.747 200.414 149.114L198.15 150.449ZM207.204 145.107C206.581 145.474 205.774 145.268 205.407 144.645C205.039 144.022 205.246 143.215 205.869 142.848L208.133 141.513C208.756 141.146 209.563 141.352 209.93 141.975C210.298 142.598 210.091 143.405 209.468 143.772L207.204 145.107ZM216.258 139.765C215.635 140.132 214.828 139.926 214.461 139.303C214.093 138.679 214.3 137.873 214.923 137.505L217.187 136.171C217.81 135.803 218.617 136.01 218.985 136.633C219.352 137.256 219.145 138.063 218.522 138.43L216.258 139.765ZM225.313 134.423C224.689 134.79 223.882 134.583 223.512 133.96C223.144 133.337 223.351 132.531 223.974 132.163L226.238 130.829C226.861 130.461 227.668 130.668 228.039 131.291C228.406 131.914 228.199 132.721 227.576 133.088L225.313 134.423ZM234.367 129.081C233.743 129.448 232.936 129.241 232.569 128.618C232.202 127.995 232.408 127.188 233.031 126.821L235.295 125.486C235.918 125.119 236.725 125.326 237.093 125.949C237.46 126.572 237.253 127.379 236.63 127.746L234.367 129.081ZM243.421 123.739C242.797 124.106 241.99 123.899 241.623 123.276C241.256 122.653 241.462 121.846 242.086 121.479L244.349 120.144C244.972 119.777 245.779 119.984 246.147 120.607C246.514 121.23 246.308 122.037 245.684 122.404L243.421 123.739ZM252.472 118.396C251.848 118.764 251.041 118.557 250.674 117.934C250.306 117.311 250.513 116.504 251.136 116.134L253.4 114.799C254.023 114.432 254.83 114.638 255.198 115.261C255.565 115.884 255.358 116.691 254.735 117.058L252.472 118.393V118.396ZM261.526 113.054C260.902 113.422 260.095 113.215 259.728 112.592C259.361 111.969 259.567 111.162 260.191 110.791L262.454 109.457C263.077 109.089 263.884 109.296 264.252 109.919C264.619 110.542 264.412 111.349 263.789 111.72L261.526 113.054ZM269.245 109.394C268.621 109.027 268.415 108.22 268.782 107.597C269.149 106.974 269.956 106.764 270.583 107.135L272.847 108.47C273.47 108.837 273.677 109.644 273.309 110.27C272.942 110.893 272.135 111.103 271.508 110.732L269.245 109.398V109.394ZM278.299 114.737C277.675 114.369 277.469 113.563 277.836 112.939C278.204 112.316 279.011 112.107 279.634 112.477L281.897 113.812C282.521 114.179 282.731 114.986 282.36 115.609C281.993 116.232 281.186 116.442 280.562 116.071L278.299 114.737ZM287.353 120.079C286.73 119.711 286.523 118.905 286.89 118.282C287.258 117.659 288.065 117.452 288.688 117.819L290.951 119.154C291.575 119.521 291.781 120.328 291.414 120.951C291.047 121.574 290.24 121.781 289.616 121.413L287.353 120.079ZM296.407 125.421C295.784 125.054 295.577 124.247 295.944 123.624C296.312 123.001 297.119 122.794 297.742 123.161L300.006 124.496C300.629 124.863 300.839 125.67 300.468 126.293C300.101 126.916 299.294 127.126 298.67 126.756L296.407 125.421ZM305.461 130.763C304.838 130.396 304.631 129.589 304.998 128.963C305.366 128.34 306.173 128.133 306.799 128.5L309.063 129.835C309.686 130.202 309.896 131.009 309.526 131.632C309.158 132.255 308.351 132.462 307.725 132.094L305.461 130.76V130.763ZM314.515 136.108C313.892 135.741 313.682 134.934 314.053 134.308C314.42 133.685 315.227 133.478 315.85 133.846L318.114 135.18C318.737 135.548 318.947 136.354 318.576 136.977C318.209 137.601 317.402 137.807 316.779 137.44L314.515 136.105V136.108ZM323.569 141.451C322.946 141.083 322.739 140.277 323.107 139.653C323.474 139.03 324.281 138.824 324.904 139.191L327.168 140.526C327.791 140.893 328.001 141.7 327.63 142.326C327.263 142.949 326.456 143.156 325.833 142.789L323.569 141.454V141.451ZM332.623 146.793C332 146.425 331.79 145.619 332.161 144.996C332.528 144.372 333.335 144.163 333.958 144.533L336.222 145.868C336.845 146.235 337.052 147.042 336.685 147.668C336.317 148.291 335.51 148.498 334.887 148.131L332.623 146.796V146.793ZM341.677 152.135C341.054 151.768 340.844 150.961 341.215 150.338C341.582 149.715 342.389 149.505 343.013 149.875L345.276 151.21C345.899 151.577 346.106 152.384 345.739 153.007C345.371 153.63 344.564 153.837 343.941 153.47L341.677 152.135ZM350.732 157.477C350.108 157.11 349.902 156.303 350.269 155.68C350.636 155.057 351.443 154.85 352.07 155.217L354.333 156.552C354.957 156.919 355.167 157.726 354.796 158.349C354.429 158.972 353.622 159.179 352.995 158.812L350.732 157.477ZM359.786 162.819C359.162 162.452 358.952 161.645 359.323 161.019C359.69 160.396 360.497 160.189 361.121 160.556L363.384 161.891C364.008 162.258 364.214 163.065 363.847 163.688C363.479 164.311 362.672 164.518 362.049 164.151L359.786 162.816V162.819ZM368.84 168.161C368.216 167.794 368.01 166.987 368.377 166.361C368.745 165.738 369.552 165.531 370.175 165.898L372.438 167.233C373.062 167.6 373.268 168.407 372.901 169.03C372.534 169.653 371.727 169.863 371.103 169.493L368.84 168.158V168.161ZM377.894 173.503C377.271 173.136 377.064 172.329 377.431 171.706C377.799 171.083 378.606 170.877 379.229 171.244L381.493 172.579C382.116 172.946 382.322 173.753 381.955 174.379C381.588 175.002 380.781 175.209 380.157 174.841L377.894 173.507V173.503ZM386.948 178.845C386.325 178.478 386.118 177.671 386.485 177.048C386.853 176.425 387.66 176.215 388.286 176.586L390.55 177.921C391.173 178.288 391.38 179.095 391.012 179.718C390.645 180.341 389.838 180.548 389.211 180.18L386.948 178.845ZM396.002 184.188C395.379 183.82 395.172 183.014 395.539 182.391C395.907 181.767 396.714 181.561 397.337 181.928L399.601 183.263C400.224 183.63 400.434 184.437 400.063 185.06C399.696 185.683 398.889 185.893 398.266 185.522L396.002 184.188ZM405.056 189.53C404.433 189.162 404.226 188.356 404.594 187.733C404.961 187.11 405.768 186.903 406.391 187.27L408.655 188.605C409.278 188.972 409.488 189.779 409.117 190.402C408.75 191.025 407.943 191.232 407.32 190.864L405.056 189.53ZM414.11 194.872C413.487 194.505 413.277 193.698 413.648 193.075C414.015 192.452 414.822 192.245 415.445 192.612L417.709 193.947C418.332 194.314 418.539 195.121 418.171 195.744C417.804 196.367 416.997 196.577 416.374 196.207L414.11 194.872ZM423.164 200.214C422.541 199.847 422.331 199.04 422.702 198.417C423.069 197.794 423.876 197.584 424.503 197.955L426.766 199.289C427.39 199.657 427.596 200.463 427.229 201.086C426.861 201.709 426.054 201.916 425.428 201.549L423.164 200.214ZM432.218 205.556C431.595 205.189 431.385 204.382 431.756 203.759C432.123 203.136 432.93 202.926 433.554 203.297L435.817 204.631C436.44 204.999 436.647 205.805 436.28 206.428C435.912 207.052 435.105 207.258 434.482 206.891L432.218 205.556ZM441.273 210.898C440.649 210.531 440.439 209.724 440.81 209.101C441.177 208.478 441.984 208.272 442.608 208.639L444.871 209.974C445.494 210.341 445.701 211.148 445.334 211.771C444.966 212.394 444.159 212.604 443.536 212.233L441.273 210.898ZM450.327 216.24C449.703 215.873 449.497 215.066 449.864 214.44C450.231 213.817 451.038 213.61 451.662 213.978L453.925 215.312C454.549 215.68 454.755 216.486 454.388 217.113C454.02 217.736 453.213 217.942 452.59 217.575L450.327 216.24ZM459.381 221.583C458.757 221.215 458.551 220.409 458.918 219.782C459.286 219.159 460.093 218.949 460.716 219.32L462.979 220.654C463.603 221.022 463.809 221.829 463.442 222.455C463.075 223.078 462.268 223.288 461.644 222.917L459.381 221.583ZM468.435 226.925C467.812 226.557 467.605 225.751 467.972 225.128C468.34 224.505 469.147 224.298 469.773 224.665L472.037 226C472.66 226.367 472.867 227.174 472.499 227.8C472.132 228.423 471.325 228.63 470.698 228.263L468.435 226.928V226.925ZM477.489 232.267C476.866 231.9 476.659 231.093 477.026 230.47C477.394 229.847 478.201 229.637 478.824 230.007L481.088 231.342C481.711 231.709 481.921 232.516 481.55 233.139C481.183 233.762 480.376 233.972 479.749 233.602L477.486 232.267H477.489ZM486.543 237.609C485.92 237.242 485.713 236.435 486.08 235.812C486.448 235.189 487.255 234.982 487.878 235.349L490.142 236.684C490.765 237.051 490.975 237.858 490.604 238.481C490.237 239.104 489.43 239.314 488.807 238.944L486.543 237.609ZM495.594 242.951C494.971 242.584 494.764 241.777 495.131 241.154C495.499 240.531 496.306 240.324 496.929 240.692L499.193 242.026C499.816 242.394 500.022 243.2 499.655 243.823C499.288 244.447 498.481 244.653 497.854 244.286L495.591 242.951H495.594ZM504.258 246.03C504.881 245.663 505.688 245.87 506.055 246.493C506.423 247.116 506.216 247.923 505.593 248.29L503.329 249.625C502.706 249.992 501.899 249.785 501.531 249.162C501.164 248.539 501.371 247.732 501.994 247.362L504.258 246.027V246.03ZM495.203 251.373C495.827 251.005 496.634 251.212 497.004 251.835C497.372 252.458 497.165 253.265 496.542 253.632L494.278 254.967C493.655 255.334 492.848 255.128 492.477 254.504C492.11 253.881 492.317 253.075 492.94 252.707L495.203 251.373ZM486.149 256.715C486.773 256.347 487.58 256.554 487.947 257.177C488.314 257.8 488.108 258.607 487.485 258.974L485.221 260.309C484.598 260.676 483.791 260.47 483.423 259.847C483.056 259.223 483.263 258.417 483.886 258.049L486.149 256.715ZM477.095 262.057C477.719 261.69 478.526 261.896 478.893 262.519C479.26 263.142 479.054 263.949 478.43 264.32L476.167 265.654C475.544 266.022 474.737 265.815 474.369 265.192C474.002 264.569 474.208 263.762 474.832 263.395L477.095 262.06V262.057ZM468.041 267.402C468.664 267.035 469.471 267.242 469.839 267.865C470.206 268.488 470 269.294 469.376 269.665L467.113 271C466.49 271.367 465.682 271.16 465.315 270.537C464.948 269.914 465.154 269.108 465.778 268.74L468.041 267.406V267.402ZM458.987 272.744C459.61 272.377 460.417 272.584 460.788 273.207C461.155 273.83 460.949 274.637 460.326 275.004L458.062 276.339C457.439 276.706 456.632 276.499 456.261 275.876C455.894 275.253 456.1 274.446 456.724 274.076L458.987 272.741V272.744ZM449.933 278.087C450.556 277.719 451.363 277.926 451.731 278.549C452.098 279.172 451.891 279.979 451.268 280.346L449.005 281.681C448.381 282.048 447.574 281.841 447.207 281.218C446.839 280.595 447.046 279.789 447.669 279.418L449.933 278.083V278.087ZM440.879 283.429C441.502 283.061 442.309 283.268 442.677 283.891C443.044 284.514 442.837 285.321 442.214 285.688L439.951 287.023C439.327 287.39 438.52 287.184 438.153 286.561C437.785 285.937 437.992 285.131 438.615 284.763L440.879 283.429ZM431.825 288.771C432.448 288.404 433.255 288.61 433.622 289.233C433.99 289.856 433.783 290.663 433.16 291.03L430.896 292.365C430.273 292.732 429.466 292.526 429.099 291.903C428.731 291.28 428.938 290.473 429.561 290.106L431.825 288.771ZM422.771 294.113C423.394 293.746 424.201 293.952 424.572 294.575C424.939 295.198 424.732 296.005 424.109 296.376L421.846 297.71C421.222 298.078 420.415 297.871 420.048 297.248C419.68 296.625 419.887 295.818 420.51 295.451L422.774 294.116L422.771 294.113ZM413.717 299.455C414.34 299.088 415.147 299.294 415.518 299.917C415.885 300.541 415.678 301.347 415.055 301.718L412.791 303.053C412.168 303.42 411.361 303.213 410.99 302.59C410.623 301.967 410.83 301.16 411.453 300.793L413.717 299.458V299.455ZM404.662 304.797C405.286 304.43 406.093 304.637 406.46 305.26C406.828 305.883 406.621 306.689 405.998 307.057L403.734 308.391C403.111 308.759 402.304 308.552 401.936 307.929C401.569 307.306 401.776 306.499 402.399 306.129L404.662 304.794V304.797ZM395.608 310.139C396.232 309.772 397.039 309.979 397.406 310.602C397.773 311.225 397.567 312.032 396.944 312.399L394.68 313.734C394.057 314.101 393.25 313.894 392.882 313.271C392.515 312.648 392.722 311.841 393.345 311.471L395.608 310.136V310.139ZM386.554 315.482C387.178 315.114 387.985 315.321 388.352 315.944C388.719 316.567 388.513 317.374 387.889 317.741L385.626 319.076C385.003 319.443 384.196 319.236 383.828 318.613C383.461 317.99 383.667 317.184 384.291 316.816L386.554 315.482ZM377.5 320.824C378.123 320.456 378.93 320.663 379.301 321.286C379.669 321.909 379.462 322.716 378.839 323.083L376.575 324.418C375.952 324.785 375.145 324.579 374.774 323.955C374.407 323.332 374.613 322.526 375.237 322.158L377.5 320.824ZM368.446 326.166C369.069 325.798 369.876 326.005 370.244 326.628C370.611 327.251 370.404 328.058 369.781 328.425L367.518 329.76C366.894 330.127 366.087 329.921 365.72 329.298C365.353 328.675 365.559 327.868 366.183 327.5L368.446 326.166ZM359.392 331.508C360.015 331.141 360.822 331.347 361.19 331.97C361.557 332.593 361.35 333.4 360.727 333.767L358.464 335.102C357.84 335.469 357.033 335.263 356.666 334.64C356.298 334.017 356.505 333.21 357.128 332.843L359.392 331.508ZM350.338 336.85C350.961 336.483 351.768 336.689 352.136 337.312C352.503 337.936 352.296 338.742 351.673 339.113L349.409 340.448C348.786 340.815 347.979 340.608 347.612 339.985C347.244 339.362 347.451 338.555 348.074 338.188L350.338 336.853V336.85ZM341.284 342.192C341.907 341.825 342.714 342.031 343.085 342.655C343.452 343.278 343.246 344.084 342.622 344.455L340.359 345.79C339.735 346.157 338.928 345.95 338.558 345.327C338.19 344.704 338.397 343.897 339.02 343.527L341.284 342.192ZM332.23 347.534C332.853 347.167 333.66 347.374 334.027 347.997C334.395 348.62 334.188 349.427 333.565 349.797L331.301 351.132C330.678 351.499 329.871 351.293 329.504 350.669C329.136 350.046 329.343 349.24 329.966 348.869L332.23 347.534ZM323.176 352.876C323.799 352.509 324.606 352.716 324.973 353.339C325.341 353.962 325.134 354.769 324.511 355.136L322.247 356.471C321.624 356.838 320.817 356.631 320.449 356.008C320.082 355.385 320.289 354.578 320.912 354.208L323.176 352.873V352.876ZM314.121 358.219C314.745 357.851 315.552 358.058 315.919 358.681C316.287 359.304 316.08 360.111 315.457 360.478L313.193 361.813C312.57 362.18 311.763 361.974 311.395 361.35C311.028 360.727 311.235 359.921 311.858 359.553L314.121 358.219ZM305.067 363.561C305.691 363.193 306.498 363.4 306.868 364.023C307.236 364.646 307.029 365.453 306.406 365.82L304.142 367.155C303.519 367.522 302.712 367.316 302.345 366.693C301.977 366.069 302.184 365.263 302.807 364.895L305.071 363.561H305.067ZM296.013 368.903C296.637 368.536 297.444 368.742 297.814 369.365C298.182 369.988 297.975 370.795 297.352 371.162L295.088 372.497C294.465 372.864 293.658 372.658 293.287 372.035C292.92 371.412 293.126 370.605 293.75 370.238L296.013 368.903ZM286.959 374.245C287.582 373.878 288.389 374.084 288.76 374.707C289.128 375.33 288.921 376.137 288.298 376.504L286.034 377.839C285.411 378.207 284.604 378 284.236 377.377C283.869 376.754 284.076 375.947 284.699 375.58L286.962 374.245H286.959ZM277.908 379.587C278.532 379.22 279.339 379.426 279.706 380.05C280.073 380.673 279.867 381.479 279.243 381.847L276.98 383.181C276.357 383.549 275.55 383.342 275.179 382.719C274.812 382.096 275.018 381.289 275.642 380.922L277.905 379.587H277.908ZM268.854 384.929C269.478 384.562 270.285 384.769 270.655 385.392C271.023 386.015 270.816 386.822 270.193 387.189L269.172 387.789C268.772 388.032 268.254 388.051 267.821 387.799L266.591 387.074C265.967 386.707 265.757 385.9 266.128 385.277C266.496 384.654 267.303 384.444 267.929 384.815L268.49 385.146L268.858 384.929H268.854ZM261.135 380.807C261.759 381.174 261.965 381.981 261.598 382.604C261.23 383.227 260.423 383.437 259.8 383.067L257.537 381.732C256.913 381.365 256.703 380.558 257.074 379.931C257.441 379.308 258.248 379.099 258.872 379.469L261.135 380.804V380.807ZM252.081 375.465C252.704 375.832 252.914 376.639 252.544 377.262C252.176 377.885 251.369 378.092 250.746 377.724L248.483 376.39C247.859 376.022 247.649 375.216 248.02 374.593C248.387 373.97 249.194 373.76 249.818 374.13L252.081 375.465ZM243.027 370.123C243.65 370.49 243.857 371.297 243.49 371.92C243.122 372.543 242.315 372.75 241.692 372.382L239.428 371.048C238.805 370.68 238.598 369.874 238.966 369.25C239.333 368.627 240.14 368.418 240.764 368.788L243.027 370.123ZM233.973 364.781C234.596 365.148 234.806 365.955 234.436 366.578C234.068 367.201 233.261 367.407 232.635 367.04L230.371 365.705C229.748 365.338 229.538 364.531 229.909 363.908C230.276 363.285 231.083 363.079 231.709 363.446L233.973 364.781ZM224.919 359.435C225.542 359.803 225.752 360.609 225.381 361.236C225.014 361.859 224.207 362.065 223.58 361.698L221.317 360.363C220.694 359.996 220.484 359.189 220.854 358.566C221.222 357.943 222.029 357.737 222.655 358.104L224.919 359.439V359.435ZM215.865 354.093C216.488 354.46 216.698 355.267 216.327 355.894C215.96 356.517 215.153 356.726 214.53 356.356L212.266 355.021C211.643 354.654 211.436 353.847 211.804 353.224C212.171 352.601 212.978 352.391 213.601 352.762L215.865 354.096V354.093ZM206.811 348.751C207.434 349.118 207.641 349.925 207.273 350.548C206.906 351.171 206.099 351.381 205.476 351.01L203.212 349.676C202.589 349.308 202.382 348.502 202.749 347.875C203.117 347.252 203.924 347.042 204.547 347.413L206.811 348.748V348.751ZM197.757 343.409C198.38 343.776 198.59 344.583 198.219 345.206C197.852 345.829 197.045 346.039 196.421 345.668L194.158 344.334C193.535 343.966 193.328 343.16 193.695 342.537C194.063 341.913 194.87 341.707 195.493 342.074L197.757 343.409ZM188.702 338.067C189.326 338.434 189.536 339.241 189.165 339.864C188.798 340.487 187.991 340.694 187.364 340.326L185.101 338.991C184.477 338.624 184.271 337.817 184.638 337.194C185.005 336.571 185.812 336.365 186.439 336.732L188.702 338.067ZM179.648 332.725C180.272 333.092 180.478 333.899 180.111 334.522C179.744 335.145 178.937 335.351 178.313 334.984L176.05 333.649C175.426 333.282 175.22 332.475 175.587 331.852C175.955 331.229 176.762 331.023 177.385 331.39L179.648 332.725ZM170.594 327.382C171.218 327.75 171.424 328.556 171.057 329.183C170.689 329.806 169.882 330.016 169.259 329.645L166.996 328.311C166.372 327.943 166.162 327.136 166.533 326.513C166.9 325.89 167.707 325.68 168.331 326.051L170.594 327.386V327.382ZM161.54 322.037C162.163 322.404 162.373 323.211 162.003 323.837C161.635 324.46 160.828 324.667 160.205 324.3L157.942 322.965C157.318 322.598 157.108 321.791 157.479 321.168C157.846 320.545 158.653 320.338 159.277 320.706L161.54 322.04V322.037ZM152.486 316.695C153.109 317.062 153.316 317.869 152.949 318.492C152.581 319.115 151.774 319.322 151.148 318.954L148.884 317.62C148.261 317.252 148.051 316.446 148.422 315.819C148.789 315.196 149.596 314.986 150.223 315.357L152.486 316.692V316.695ZM143.432 311.353C144.055 311.72 144.262 312.527 143.895 313.15C143.527 313.773 142.72 313.983 142.097 313.612L139.833 312.278C139.21 311.91 139 311.104 139.371 310.48C139.738 309.857 140.545 309.651 141.168 310.018L143.432 311.353ZM134.378 306.011C135.001 306.378 135.211 307.185 134.84 307.808C134.473 308.431 133.666 308.637 133.043 308.27L130.779 306.935C130.156 306.568 129.946 305.761 130.317 305.138C130.684 304.515 131.491 304.305 132.114 304.676L134.378 306.011ZM125.324 300.668C125.947 301.036 126.157 301.843 125.786 302.466C125.419 303.089 124.612 303.295 123.989 302.928L121.725 301.593C121.102 301.226 120.895 300.419 121.263 299.796C121.63 299.173 122.437 298.966 123.06 299.334L125.324 300.668ZM116.27 295.326C116.893 295.694 117.103 296.5 116.732 297.123C116.365 297.747 115.558 297.956 114.931 297.586L112.668 296.251C112.044 295.884 111.838 295.077 112.205 294.454C112.573 293.831 113.38 293.624 114.006 293.992L116.27 295.326ZM107.216 289.984C107.839 290.352 108.046 291.158 107.678 291.781C107.311 292.404 106.504 292.611 105.877 292.244L103.614 290.909C102.99 290.542 102.784 289.735 103.151 289.112C103.519 288.489 104.326 288.282 104.952 288.649L107.216 289.984ZM98.1615 284.642C98.7848 285.009 98.9915 285.816 98.624 286.439C98.2566 287.062 97.4496 287.269 96.8263 286.902L94.5628 285.567C93.9395 285.2 93.7296 284.393 94.1003 283.77C94.4677 283.147 95.2747 282.937 95.898 283.307L98.1615 284.642ZM89.1074 279.3C89.7307 279.667 89.9374 280.474 89.5699 281.097C89.2025 281.72 88.3955 281.927 87.7722 281.559L85.5087 280.225C84.8854 279.857 84.6788 279.051 85.0462 278.428C85.4136 277.805 86.2206 277.595 86.8439 277.965L89.1074 279.3ZM80.0533 273.958C80.6766 274.325 80.8833 275.132 80.5158 275.758C80.1484 276.381 79.3414 276.588 78.7181 276.221L76.4546 274.886C75.8313 274.519 75.6214 273.712 75.9921 273.089C76.3595 272.466 77.1665 272.259 77.7898 272.626L80.0533 273.961V273.958ZM70.9992 268.616C71.6225 268.983 71.8292 269.79 71.4617 270.416C71.0943 271.039 70.2873 271.249 69.6608 270.878L67.3972 269.544C66.7739 269.176 66.5673 268.37 66.9347 267.743C67.3021 267.12 68.1091 266.91 68.7357 267.281L70.9992 268.616ZM61.9451 263.274C62.5684 263.641 62.7783 264.448 62.4076 265.071C62.0402 265.694 61.2332 265.9 60.6099 265.533L58.3464 264.198C57.7231 263.831 57.5132 263.024 57.8839 262.398C58.2513 261.775 59.0583 261.568 59.6816 261.936L61.9451 263.27V263.274ZM52.891 257.931C53.5143 258.299 53.721 259.105 53.3535 259.729C52.9861 260.352 52.1791 260.561 51.5558 260.191L49.2923 258.856C48.669 258.489 48.4624 257.682 48.8298 257.059C49.1972 256.436 50.0042 256.229 50.6275 256.597L52.891 257.931ZM43.8369 252.589C44.4602 252.957 44.6669 253.763 44.2994 254.386C43.932 255.009 43.125 255.219 42.5017 254.849L40.2382 253.514C39.6149 253.147 39.405 252.34 39.7757 251.717C40.1431 251.094 40.9501 250.884 41.5734 251.255L43.8369 252.589Z" fill="white"/>
<path fill-rule="evenodd" clip-rule="evenodd" d="M268.5 405.474L0 247.047V258.167L268.5 416.595V405.474Z" fill="#0071ED"/>
<path fill-rule="evenodd" clip-rule="evenodd" d="M158.657 247.516V242.17L105.267 211.36H96.0127L42.623 242.17V247.516L96.0127 278.326H105.267L158.657 247.516Z" fill="#BDDEF5"/>
<path fill-rule="evenodd" clip-rule="evenodd" d="M103.975 269.792H97.3053L58.8188 247.581V243.731L97.3021 221.513H103.975L142.468 243.731V247.581L103.975 269.792Z" fill="#7BA8D9"/>
<path fill-rule="evenodd" clip-rule="evenodd" d="M65.0581 145.717L95.8486 201.827L94.4675 202.621L94.1427 203.411L67.2724 156.781L63.677 146.51L65.0581 145.717Z" fill="#004E7C"/>
<path fill-rule="evenodd" clip-rule="evenodd" d="M135.962 145.9L105.172 202.011L106.553 202.804L106.878 203.595L133.745 156.965L137.34 146.697L135.962 145.9Z" fill="#004E7C"/>
<path fill-rule="evenodd" clip-rule="evenodd" d="M137.34 146.697L106.553 202.804L106.563 210.009L140.466 148.501L137.34 146.697Z" fill="#E7F4FA"/>
<path fill-rule="evenodd" clip-rule="evenodd" d="M135.962 194.376L105.172 250.487L106.553 251.281L106.878 252.071L133.745 205.441L137.34 195.17L135.962 194.376Z" fill="#004E7C"/>
<path fill-rule="evenodd" clip-rule="evenodd" d="M137.34 195.17L106.553 251.28L106.563 258.485L140.466 196.977L137.34 195.17Z" fill="#E7F4FA"/>
<path fill-rule="evenodd" clip-rule="evenodd" d="M137.704 194.032L107.117 211.688L106.563 213.597L105.178 212.8V209.216L137.704 190.444L139.079 191.238L137.704 194.032Z" fill="#004E7C"/>
<path fill-rule="evenodd" clip-rule="evenodd" d="M139.079 194.825L106.563 213.597V210.009L139.079 191.238V194.825Z" fill="#E7F4FA"/>
<path fill-rule="evenodd" clip-rule="evenodd" d="M137.704 145.684L107.117 163.334L106.563 165.252L105.178 164.459V160.864L137.704 142.1L139.079 142.893L137.704 145.684Z" fill="#004E7C"/>
<path fill-rule="evenodd" clip-rule="evenodd" d="M139.079 146.481L106.563 165.252V161.664L139.079 142.893V146.481Z" fill="#E7F4FA"/>
<path fill-rule="evenodd" clip-rule="evenodd" d="M103.761 159.687L134.48 110.804L139.426 97.9229L138.045 97.126L102.374 158.89L103.761 159.687Z" fill="#004E7C"/>
<path fill-rule="evenodd" clip-rule="evenodd" d="M106.72 161.769L139.243 105.37L139.262 98.208L103.597 159.972L106.72 161.769Z" fill="#E7F4FA"/>
<path fill-rule="evenodd" clip-rule="evenodd" d="M63.6771 146.51L94.4676 202.621L94.4577 209.826L60.5508 148.317L63.6771 146.51Z" fill="#E7F4FA"/>
<path fill-rule="evenodd" clip-rule="evenodd" d="M65.0581 194.189L95.8486 250.3L94.4675 251.097L94.1427 251.884L67.2724 205.254L63.677 194.986L65.0581 194.189Z" fill="#004E7C"/>
<path fill-rule="evenodd" clip-rule="evenodd" d="M63.6771 194.986L94.4676 251.097L94.4577 258.302L60.5508 196.79L63.6771 194.986Z" fill="#E7F4FA"/>
<path fill-rule="evenodd" clip-rule="evenodd" d="M60.5542 95.4302L59.0681 96.2894L60.5542 100.126V246.705L61.9385 249.217L63.4279 248.358V97.0895L60.5542 95.4302Z" fill="#E7F4FA"/>
<path fill-rule="evenodd" clip-rule="evenodd" d="M59.0681 96.2896V247.558L61.9385 249.218V97.9457L59.0681 96.2896Z" fill="#E6E6E6"/>
<path fill-rule="evenodd" clip-rule="evenodd" d="M140.729 95.4302L142.218 96.2927L140.729 100.126V246.705L139.348 249.217L137.858 248.358V97.0895L140.729 95.4302Z" fill="#E7F4FA"/>
<path fill-rule="evenodd" clip-rule="evenodd" d="M142.218 96.293V247.565L139.348 249.218V97.9458L142.218 96.293Z" fill="#E6E6E6"/>
<path fill-rule="evenodd" clip-rule="evenodd" d="M63.313 193.845L93.9034 211.501L94.4578 213.413L95.8389 212.613V209.032L63.313 190.257L61.9385 191.051L63.313 193.845Z" fill="#004E7C"/>
<path fill-rule="evenodd" clip-rule="evenodd" d="M61.9385 194.642L94.4578 213.413V209.825L61.9385 191.051V194.642Z" fill="#E7F4FA"/>
<path fill-rule="evenodd" clip-rule="evenodd" d="M63.313 145.5L93.9034 163.15L94.4578 165.068L95.8389 164.275V160.681L63.313 141.913L61.9385 142.709L63.313 145.5Z" fill="#004E7C"/>
<path fill-rule="evenodd" clip-rule="evenodd" d="M61.9385 146.297L94.4578 165.068V161.481L61.9385 142.709V146.297Z" fill="#E7F4FA"/>
<path fill-rule="evenodd" clip-rule="evenodd" d="M97.5774 159.687L66.8591 110.804L61.9121 97.9229L63.2932 97.126L98.965 158.89L97.5774 159.687Z" fill="#004E7C"/>
<path fill-rule="evenodd" clip-rule="evenodd" d="M94.6184 161.769L62.0991 105.37L62.0762 98.208L97.7447 159.972L94.6184 161.769Z" fill="#E7F4FA"/>
<path fill-rule="evenodd" clip-rule="evenodd" d="M106.828 116.71V267.992L103.955 269.645L100.641 146.655L103.955 118.37L106.828 116.71Z" fill="#E7F4FA"/>
<path fill-rule="evenodd" clip-rule="evenodd" d="M94.4512 116.71V267.992L97.3249 269.645L101.055 158.493L97.3249 118.37L94.4512 116.71Z" fill="#E7F4FA"/>
<path d="M103.958 118.37H97.325V269.642H103.958V118.37Z" fill="#E6E6E6"/>
<path fill-rule="evenodd" clip-rule="evenodd" d="M142.218 90.895V87.068L103.955 64.9878H97.3217L59.0681 87.068V90.895L97.325 112.975H103.955L142.218 90.895Z" fill="#E7F4FA"/>
<path d="M103.958 112.975H97.325V118.373H103.958V112.975Z" fill="#00DDF7"/>
<path fill-rule="evenodd" clip-rule="evenodd" d="M142.218 96.2929L103.955 118.37V112.975L142.218 90.895V96.2929Z" fill="#004E7C"/>
<path fill-rule="evenodd" clip-rule="evenodd" d="M97.325 118.37L59.0681 96.2896V90.895L97.325 112.975V118.37Z" fill="#004E7C"/>
<path fill-rule="evenodd" clip-rule="evenodd" d="M110.234 53.6018L100.842 44.2129L86.1484 58.9013L86.1615 58.9144C86.1385 58.9275 86.1156 58.9374 86.0959 58.9571C85.5382 59.5145 87.1883 62.0659 89.7831 64.6599C92.378 67.2539 94.9302 68.9035 95.4879 68.346C95.5076 68.3296 95.5141 68.3033 95.5305 68.2804L95.5436 68.2935L110.237 53.6051L110.234 53.6018Z" fill="#004E7C"/>
<path fill-rule="evenodd" clip-rule="evenodd" d="M107.573 91.328H99.0144L100.881 58.0454H105.707L107.573 91.328Z" fill="#00DDF7"/>
<path fill-rule="evenodd" clip-rule="evenodd" d="M103.292 91.328H107.573L105.706 58.0454H103.292V91.328Z" fill="#004E7C"/>
<path fill-rule="evenodd" clip-rule="evenodd" d="M114.524 46.9935C115.889 52.2635 112.72 57.6384 107.448 59.0026C102.177 60.3669 96.8 57.199 95.4353 51.929C94.0707 46.659 97.2396 41.2841 102.511 39.9198C107.78 38.5556 113.16 41.7235 114.524 46.9935Z" fill="#00DDF7"/>
<path fill-rule="evenodd" clip-rule="evenodd" d="M145.407 62.0298L117.943 35.0404L91.9744 6.61133C91.9744 6.61133 73.4102 18.4499 103 49.4402C132.892 80.1419 145.407 62.0331 145.407 62.0331V62.0298Z" fill="#E7F4FA"/>
<path fill-rule="evenodd" clip-rule="evenodd" d="M105.874 46.7872C84.3146 24.2118 88.3135 11.8026 92.0762 6.72611L91.9713 6.61133C91.9713 6.61133 73.4071 18.4499 102.997 49.4402C132.085 79.3188 144.718 62.971 145.377 62.0725C140.145 65.6339 127.597 69.1035 105.874 46.7905V46.7872Z" fill="#71AFED"/>
<path fill-rule="evenodd" clip-rule="evenodd" d="M145.407 62.0297C143.543 63.8235 135.588 58.7897 125.704 50.0074C125.353 49.6926 124.999 49.3778 124.638 49.0531C121.262 46.0066 117.68 42.5468 114.059 38.7854C110.214 34.7943 106.7 30.8689 103.653 27.1992C103.354 26.8451 103.066 26.4909 102.777 26.14C94.6677 16.2231 90.1472 8.36895 91.9744 6.60792C94.1067 4.55174 104.243 11.4647 116.119 22.7098C116.473 23.0443 116.827 23.382 117.182 23.7231C119.196 25.6546 121.253 27.7076 123.323 29.8523C124.878 31.469 126.383 33.0726 127.82 34.6533C128.165 35.0337 128.509 35.4141 128.847 35.788C140.453 48.7186 147.628 59.8817 145.407 62.0231V62.0297Z" fill="#71AFED"/>
<path d="M135.242 19.8642C135.544 17.9977 134.275 16.2397 132.408 15.9377C130.541 15.6357 128.782 16.9041 128.48 18.7706C128.178 20.6372 129.447 22.3952 131.314 22.6972C133.181 22.9992 134.94 21.7308 135.242 19.8642Z" fill="#00DDF7"/>
<path fill-rule="evenodd" clip-rule="evenodd" d="M132.685 18.4565L128.85 35.7947L125.708 50.0076C125.357 49.6928 125.002 49.378 124.641 49.0533L127.823 34.66L131.029 20.1717L117.182 23.7298L103.653 27.2027C103.354 26.8485 103.066 26.4943 102.777 26.1434L116.119 22.7132L132.685 18.4598V18.4565Z" fill="#00DDF7"/>
<path fill-rule="evenodd" clip-rule="evenodd" d="M146.483 18.2662C146.309 15.0655 145.24 11.9731 143.206 9.36922C141.172 6.7621 138.433 4.9781 135.369 4.02708C134.982 3.90574 134.568 4.12546 134.447 4.51243C134.325 4.8994 134.542 5.3126 134.932 5.43394C137.737 6.30298 140.204 7.91972 142.044 10.2743C143.881 12.6289 144.849 15.4164 145.013 18.3482C145.036 18.7548 145.384 19.0664 145.787 19.0434C146.194 19.0205 146.506 18.6729 146.483 18.2695V18.2662Z" fill="#00DDF7"/>
<path fill-rule="evenodd" clip-rule="evenodd" d="M142.579 19.0207C142.438 16.4628 141.585 13.9868 139.958 11.9011C138.331 9.81544 136.136 8.38891 133.692 7.63137C133.305 7.51003 132.892 7.72647 132.77 8.11672C132.649 8.50368 132.865 8.91689 133.256 9.03823C135.444 9.71706 137.366 10.9763 138.8 12.8095C140.23 14.646 140.985 16.8137 141.113 19.1027C141.135 19.5093 141.483 19.8209 141.89 19.7979C142.297 19.775 142.608 19.4274 142.585 19.0207H142.579Z" fill="#00DDF7"/>
<path fill-rule="evenodd" clip-rule="evenodd" d="M138.741 19.2794C138.642 17.4888 138.045 15.7507 136.901 14.2848C135.759 12.819 134.217 11.8155 132.501 11.2842C132.114 11.1629 131.701 11.3793 131.58 11.7695C131.458 12.1565 131.675 12.5697 132.065 12.6911C133.518 13.1436 134.791 13.9766 135.739 15.19C136.684 16.4033 137.183 17.8397 137.268 19.3581C137.291 19.7647 137.639 20.0763 138.045 20.0533C138.452 20.0303 138.764 19.6827 138.741 19.2794Z" fill="#00DDF7"/>
<path fill-rule="evenodd" clip-rule="evenodd" d="M219.628 301.38L204.656 309.588L219.631 318.682L234.603 310.47L219.628 301.38Z" fill="#FBBFA8"/>
<path fill-rule="evenodd" clip-rule="evenodd" d="M204.642 341.966L219.624 351.056V318.675L204.642 309.585V341.966Z" fill="#FC9774"/>
<path fill-rule="evenodd" clip-rule="evenodd" d="M219.621 351.056L234.603 342.848V310.47L219.621 318.675V351.056Z" fill="#F57A44"/>
<path fill-rule="evenodd" clip-rule="evenodd" d="M219.628 317.865L204.656 309.588L219.631 318.682L234.603 310.47L219.628 317.865Z" fill="#FEFEFE"/>
<path fill-rule="evenodd" clip-rule="evenodd" d="M244.287 290.476L229.312 298.69L244.287 307.778L259.262 299.566L244.287 290.476Z" fill="#BDDEF5"/>
<path fill-rule="evenodd" clip-rule="evenodd" d="M229.298 355.827L244.284 364.918V307.771L229.298 298.681V355.827Z" fill="#97C3E8"/>
<path fill-rule="evenodd" clip-rule="evenodd" d="M244.28 364.918L259.262 356.713V299.566L244.28 307.771V364.918Z" fill="#87B4E0"/>
<path fill-rule="evenodd" clip-rule="evenodd" d="M268.907 282.195L253.931 290.41L268.907 299.497L283.882 291.286L268.907 282.195Z" fill="#87BEF5"/>
<path fill-rule="evenodd" clip-rule="evenodd" d="M244.287 306.962L229.312 298.691L244.287 307.778L259.262 299.567L244.287 306.962Z" fill="#FEFEFE"/>
<path fill-rule="evenodd" clip-rule="evenodd" d="M268.907 298.681L253.931 290.41L268.907 299.497L283.882 291.286L268.907 298.681Z" fill="#FEFEFE"/>
<path fill-rule="evenodd" clip-rule="evenodd" d="M253.918 370.073L268.903 379.161V299.491L253.918 290.404V370.073Z" fill="#71AFED"/>
<path fill-rule="evenodd" clip-rule="evenodd" d="M268.9 379.16L283.882 370.955V291.286L268.9 299.491V379.16Z" fill="#0071ED"/>
<path fill-rule="evenodd" clip-rule="evenodd" d="M406.431 44.6588L330.642 0.898519C328.661 -0.239432 326.925 -0.24927 325.688 0.593535V0.557462L318.681 4.65671L321.001 14.7638H326.325V158.897C326.325 163.183 329.323 168.397 333.04 170.525L404.561 211.806L404.315 220.146L411.184 216.132C412.401 215.44 413.162 213.928 413.156 211.79L413.162 56.2744C413.156 51.9915 410.147 46.7904 406.434 44.6588H406.431Z" fill="black"/>
<path fill-rule="evenodd" clip-rule="evenodd" d="M399.565 219.67L323.769 175.917C320.056 173.778 317.044 168.574 317.051 164.285V8.78213C317.058 4.49268 320.059 2.7546 323.769 4.90589L399.578 48.653C403.282 50.7945 406.28 56.0022 406.286 60.2883L406.28 215.791C406.286 220.08 403.278 221.812 399.565 219.674V219.67Z" fill="#4E4E4E"/>
<path fill-rule="evenodd" clip-rule="evenodd" d="M319.026 19.2368L319.846 19.7058L319.862 149.806L404.302 198.6L404.295 199.551L319.039 150.281L319.026 19.2368Z" fill="black"/>
<path fill-rule="evenodd" clip-rule="evenodd" d="M319.846 19.7061L404.295 68.4444L404.302 198.6L319.862 149.806L319.846 19.7061Z" fill="white"/>
<path fill-rule="evenodd" clip-rule="evenodd" d="M396.415 56.8251L343.698 26.3989L343.702 23.5098L396.415 53.9393V56.8251Z" fill="black"/>
<path fill-rule="evenodd" clip-rule="evenodd" d="M372.114 198.82L351.453 186.889C350.764 186.493 350.217 185.525 350.21 184.728V173.995C350.21 173.204 350.768 172.886 351.457 173.273L372.11 185.207C372.806 185.594 373.364 186.565 373.364 187.371V198.085C373.37 198.889 372.803 199.207 372.11 198.82H372.114Z" fill="black"/>
<path fill-rule="evenodd" clip-rule="evenodd" d="M369.03 195.003L354.537 186.634C354.042 186.355 353.654 185.676 353.658 185.119V177.586C353.658 177.022 354.045 176.809 354.53 177.077L369.033 185.453C369.516 185.735 369.903 186.411 369.909 186.968L369.903 194.501C369.903 195.065 369.519 195.281 369.023 195.006L369.03 195.003Z" fill="#ABD4F1"/>
<path fill-rule="evenodd" clip-rule="evenodd" d="M390.763 205.582L379.262 198.948C378.573 198.541 377.996 197.626 378.002 196.901L377.996 193.96C378.002 193.241 378.57 192.973 379.268 193.382L390.763 200.017C391.455 200.42 392.023 201.335 392.016 202.053L392.023 204.995C392.029 205.723 391.452 205.979 390.763 205.582Z" fill="black"/>
<path fill-rule="evenodd" clip-rule="evenodd" d="M343.196 178.029L331.698 171.394C331.006 170.998 330.439 170.079 330.432 169.358L330.439 166.423C330.439 165.692 331 165.433 331.698 165.839L343.196 172.483C343.889 172.867 344.463 173.792 344.463 174.503V177.455C344.456 178.173 343.892 178.435 343.196 178.035V178.029Z" fill="black"/>
<path fill-rule="evenodd" clip-rule="evenodd" d="M331.423 69.4971L327.414 71.4254L328.572 91.4297C330.124 92.0954 331.734 92.8595 333.844 94.0171C341.786 98.382 345.939 103.829 345.939 109.473C345.939 115.117 341.533 115.484 336.757 112.857C333.158 110.88 329.746 107.827 327.886 105.813L323.881 107.787L326.089 111.768C328.382 114.271 332.6 117.766 337.252 120.324C340.562 122.144 340.608 124.745 343.098 124.942C348.914 125.404 355.18 120.105 355.18 113.808C355.18 103.701 347.487 94.8861 339.302 90.3835C338.308 89.8359 337.564 89.4915 336.698 89.1374L337.938 80.6437L349.869 91.328L353.881 89.4096V81.844L331.426 69.5003L331.423 69.4971ZM398.105 126.493L382.473 117.901L378.461 119.836L382.473 125.158L389.359 128.943V140.601C388.552 140.529 386.879 139.919 384.645 138.692C376.769 134.36 370.874 125.542 370.874 114.503C370.874 103.465 377.326 101.307 385.823 105.98C388.181 107.279 388.9 112.923 390.927 114.608C391.669 113.933 394.211 112.992 394.939 112.729L395.129 112.083L396.862 106.223C394.565 103.845 390.747 100.333 385.698 98.1C370.296 91.2985 356.978 95.1452 361.259 109.407C363.433 116.655 363.614 124.778 367.711 131.061C371.743 137.246 377.264 142.142 384.52 146.13C389.133 148.665 391.055 152.708 394.089 153.168C394.372 153.21 397.701 151.17 398.105 151.239V126.5V126.493Z" fill="#0071ED"/>
<path fill-rule="evenodd" clip-rule="evenodd" d="M327.401 71.4252L324.547 93.3577C326.099 94.0235 327.709 94.7876 329.819 95.9452C337.757 100.31 341.914 105.757 341.914 111.401C341.914 117.045 337.511 117.412 332.735 114.789C329.136 112.811 325.725 109.758 323.865 107.741L322.067 113.697C324.363 116.199 328.579 119.695 333.23 122.253C344.272 128.323 351.158 124.728 351.158 115.736C351.158 105.629 343.465 96.811 335.277 92.3116C334.283 91.7672 333.539 91.4196 332.673 91.0655L333.913 82.5685L349.852 91.3311V83.7655L327.398 71.4219L327.401 71.4252ZM394.083 128.421L378.452 119.829V127.083L385.337 130.867V142.526C384.53 142.454 382.857 141.844 380.623 140.617C372.747 136.285 366.852 127.467 366.852 116.428C366.852 105.39 373.301 103.232 381.801 107.902C386.02 110.22 388.749 112.467 390.921 114.651L392.843 108.145C390.547 105.767 386.515 102.681 381.68 100.021C367.971 92.4854 357.24 95.2041 357.24 111.329C357.24 118.894 359.595 126.699 363.693 132.983C367.724 139.168 373.246 144.064 380.502 148.052C385.898 151.019 391.295 152.682 394.086 153.164V128.424L394.083 128.421Z" fill="#A4D0FC"/>
<path fill-rule="evenodd" clip-rule="evenodd" d="M460.719 238.317C467.825 238.317 474.077 240.452 477.696 243.689H481.038V250.595C481.045 250.825 480.822 251.694 480.776 251.871C479.355 257.597 470.918 262.001 460.719 262.001C450.52 262.001 441.807 257.456 440.597 251.592C440.564 251.438 440.406 250.851 440.4 250.599V243.692H443.743C447.361 240.459 453.614 238.321 460.719 238.321V238.317Z" fill="#97C3E8"/>
<path fill-rule="evenodd" clip-rule="evenodd" d="M460.719 255.528C471.882 255.528 480.989 250.208 480.989 243.686C480.989 237.163 471.882 231.844 460.719 231.844C449.556 231.844 440.449 237.163 440.449 243.686C440.449 250.208 449.556 255.528 460.719 255.528Z" fill="#BBDBFA"/>
<path d="M460.719 248.139C464.926 248.139 468.336 246.147 468.336 243.689C468.336 241.231 464.926 239.239 460.719 239.239C456.512 239.239 453.102 241.231 453.102 243.689C453.102 246.147 456.512 248.139 460.719 248.139Z" fill="#97C3E8"/>
<path fill-rule="evenodd" clip-rule="evenodd" d="M483.706 146.343L459.059 160.5L467.766 137.259L483.706 146.343Z" fill="#E7F4FA"/>
<path fill-rule="evenodd" clip-rule="evenodd" d="M459.059 160.5L467.165 157.319L486.72 146.963L480.077 148.429L459.059 160.5Z" fill="#0071ED"/>
<path fill-rule="evenodd" clip-rule="evenodd" d="M491.392 154.958L491.542 102.458L422.538 62.6333L422.39 115.133L440.115 125.362L491.395 154.958H491.392ZM475.681 115.399C477.548 116.478 479.057 119.091 479.05 121.239C479.044 123.384 477.525 124.253 475.658 123.174C473.792 122.095 472.28 119.478 472.286 117.334C472.293 115.189 473.815 114.323 475.681 115.399ZM456.976 104.603C458.843 105.682 460.352 108.296 460.345 110.44C460.339 112.585 458.82 113.454 456.953 112.375C455.083 111.296 453.574 108.679 453.581 106.535C453.587 104.39 455.106 103.521 456.976 104.6V104.603ZM438.248 101.579C436.381 100.5 434.872 97.8868 434.879 95.7421C434.885 93.5974 436.404 92.7283 438.271 93.8072C440.137 94.8862 441.65 97.5031 441.643 99.6478C441.637 101.793 440.115 102.658 438.248 101.583V101.579Z" fill="#E7F4FA"/>
<path fill-rule="evenodd" clip-rule="evenodd" d="M438.271 93.8069C436.404 92.7279 434.885 93.597 434.879 95.7417C434.872 97.8864 436.381 100.5 438.248 101.579C440.115 102.658 441.637 101.789 441.643 99.6442C441.65 97.4995 440.138 94.8825 438.271 93.8036V93.8069Z" fill="#00DDF7"/>
<path fill-rule="evenodd" clip-rule="evenodd" d="M456.98 104.603C455.11 103.524 453.591 104.393 453.584 106.538C453.578 108.682 455.087 111.299 456.957 112.378C458.823 113.457 460.342 112.588 460.349 110.443C460.355 108.299 458.846 105.682 456.98 104.606V104.603Z" fill="#00DDF7"/>
<path fill-rule="evenodd" clip-rule="evenodd" d="M475.681 115.399C473.815 114.32 472.293 115.186 472.286 117.334C472.28 119.478 473.792 122.095 475.658 123.174C477.525 124.253 479.044 123.384 479.051 121.239C479.057 119.095 477.548 116.478 475.681 115.402V115.399Z" fill="#00DDF7"/>
<path fill-rule="evenodd" clip-rule="evenodd" d="M422.538 62.6298L426.579 60.2817L495.584 100.11L491.542 102.458L422.538 62.6298Z" fill="#0071ED"/>
<path fill-rule="evenodd" clip-rule="evenodd" d="M491.542 102.458L495.584 100.11L495.433 152.61L491.392 154.958L491.542 102.458Z" fill="#0071ED"/>
<path fill-rule="evenodd" clip-rule="evenodd" d="M456.957 112.375C458.823 113.454 460.342 112.585 460.349 110.44C460.355 108.295 458.846 105.678 456.98 104.603C455.11 103.524 453.591 104.393 453.584 106.538C453.578 108.682 455.087 111.299 456.957 112.378V112.375Z" fill="#00DDF7"/>
<path fill-rule="evenodd" clip-rule="evenodd" d="M441.643 99.6445C441.65 97.4998 440.138 94.8829 438.271 93.8039C436.404 92.725 434.885 93.594 434.879 95.7388C434.872 97.8835 436.381 100.497 438.248 101.576C440.115 102.655 441.637 101.786 441.643 99.6413V99.6445Z" fill="#00DDF7"/>
<path fill-rule="evenodd" clip-rule="evenodd" d="M475.662 123.171C477.528 124.25 479.047 123.381 479.054 121.236C479.06 119.091 477.551 116.474 475.685 115.395C473.818 114.316 472.296 115.185 472.289 117.33C472.283 119.475 473.795 122.092 475.662 123.171Z" fill="#00DDF7"/>
<path fill-rule="evenodd" clip-rule="evenodd" d="M185.127 181.088C175.016 186.926 172.573 195.508 177.802 202.67C179.461 204.953 181.905 207.091 185.127 208.947C193.554 213.813 205.302 215.594 216.163 214.302L221.107 176.55C208.996 173.966 194.853 175.477 185.127 181.092V181.088Z" fill="#7BA8D9"/>
<path fill-rule="evenodd" clip-rule="evenodd" d="M233.393 181.088C229.794 179.013 225.588 177.501 221.11 176.546L216.167 214.299C217.597 214.128 219.011 213.912 220.399 213.636C225.145 212.692 229.604 211.128 233.393 208.944C246.724 201.253 246.724 188.779 233.393 181.088Z" fill="#87B4E0"/>
<path fill-rule="evenodd" clip-rule="evenodd" d="M209.432 173.913L232.11 159.152V181.114L209.432 195.875V173.913Z" fill="#97C3E8"/>
<path d="M209.432 173.913H175.131V195.875H209.432V173.913Z" fill="#7BA8D9"/>
<path fill-rule="evenodd" clip-rule="evenodd" d="M220.169 195.875L209.432 177.514V199.476L220.395 200.023L220.169 195.875Z" fill="#87B4E0"/>
<path fill-rule="evenodd" clip-rule="evenodd" d="M243.388 177.216L232.425 172.506V194.465L243.388 195.016V177.216Z" fill="#87B4E0"/>
<path fill-rule="evenodd" clip-rule="evenodd" d="M233.392 191.146C229.544 193.37 225.008 194.947 220.172 195.878L209.432 177.471L232.113 162.711L232.211 162.645C232.612 162.852 233.009 163.065 233.396 163.291C246.728 170.981 246.728 183.456 233.396 191.146H233.392Z" fill="#BDDEF5"/>
<path fill-rule="evenodd" clip-rule="evenodd" d="M232.11 159.152L209.429 173.913L178.074 181.79C172.494 174.559 174.849 165.787 185.127 159.854C198.032 152.403 218.716 152.171 232.11 159.149V159.152Z" fill="#ABD4F1"/>
<path fill-rule="evenodd" clip-rule="evenodd" d="M220.395 200.024V213.636C208.448 216.014 194.663 214.45 185.127 208.944C181.909 207.091 179.461 204.949 177.802 202.667V189.051L220.395 200.024Z" fill="#F57A44"/>
<path fill-rule="evenodd" clip-rule="evenodd" d="M220.395 200.024C208.448 202.398 194.663 200.834 185.127 195.324C181.909 193.471 179.461 191.33 177.802 189.047L209.429 181.226L220.169 199.633L220.395 200.02V200.024Z" fill="#FC9774"/>
<path d="M209.179 201.408C200.25 201.408 191.57 199.384 184.982 195.58C181.794 193.744 179.301 191.606 177.569 189.225L177.313 188.874L209.576 180.895L209.688 181.085L220.861 200.237L220.458 200.316C216.747 201.053 212.942 201.411 209.183 201.411L209.179 201.408ZM178.303 189.231C179.973 191.405 182.319 193.37 185.274 195.072C194.276 200.27 207.841 202.116 219.936 199.817L219.92 199.788L209.291 181.567L178.307 189.231H178.303Z" fill="#FC9774"/>
<path fill-rule="evenodd" clip-rule="evenodd" d="M278.41 241.114C284.328 241.114 290.243 239.809 294.76 237.205C303.785 231.998 303.785 223.55 294.76 218.333C290.246 215.725 284.328 214.427 278.41 214.427C272.492 214.427 266.578 215.725 262.067 218.333C253.046 223.547 253.036 231.998 262.067 237.205C266.578 239.809 272.496 241.114 278.41 241.114Z" fill="#0071ED"/>
<path fill-rule="evenodd" clip-rule="evenodd" d="M322.864 119.429L323.061 119.449L323.287 119.472L323.533 119.498L324.878 119.642L326.358 120.164C326.909 120.475 327.453 120.787 327.312 121.151C327.079 121.767 326.601 121.646 326.023 121.266C325.567 121.276 325.111 121.226 324.662 121.046C324.232 121.125 323.766 121.115 323.268 121.02C323.081 120.984 322.887 120.934 322.69 120.875L322.73 120.551L322.753 120.37L322.802 119.96L322.864 119.459V119.429Z" fill="#FFAE80"/>
<path fill-rule="evenodd" clip-rule="evenodd" d="M326.417 124.922C326.21 125.211 325.731 125.162 325.226 124.968C324.803 125.066 324.317 125.014 323.861 124.935C323.379 125.135 322.733 125.365 322.087 125.358L321.88 125.348V125.106L321.864 123.787L322.946 123.676L323.783 123.587L325.262 123.774C325.859 123.869 326.581 124.243 326.519 124.611C326.509 124.745 326.473 124.85 326.414 124.925L326.417 124.922Z" fill="#FFAE80"/>
<path fill-rule="evenodd" clip-rule="evenodd" d="M322.867 120.938L324.895 120.987L326.41 121.381C326.984 121.646 327.558 121.912 327.447 122.286C327.306 122.925 326.807 122.853 326.167 122.509C325.711 122.555 325.255 122.545 324.793 122.401C324.209 122.558 323.55 122.558 322.812 122.394L322.864 120.938H322.867Z" fill="#FFAE80"/>
<path fill-rule="evenodd" clip-rule="evenodd" d="M326.856 124.001C326.62 124.115 326.272 124.007 325.866 123.787L325.488 123.81C325.157 123.817 324.826 123.784 324.491 123.679C323.907 123.837 323.248 123.837 322.513 123.669L322.569 122.213L324.596 122.263L325.485 122.4L325.843 122.456L326.151 122.502C326.732 122.738 327.26 123.187 327.145 123.561C327.096 123.794 326.994 123.932 326.86 123.997L326.856 124.001Z" fill="#FFAE80"/>
<path fill-rule="evenodd" clip-rule="evenodd" d="M323.287 119.475L319.032 120.429C318.806 120.905 318.593 121.426 318.412 121.912C318.271 122.292 318.363 123.135 317.992 123.335C318.206 123.437 318.836 123.168 319.062 123.059C319.357 122.918 319.521 122.663 319.675 122.374C319.905 121.938 320.141 121.213 320.584 120.944C322.011 120.069 322.864 120.941 323.284 119.478L323.287 119.475Z" fill="#FFAE80"/>
<path fill-rule="evenodd" clip-rule="evenodd" d="M322.798 119.964C322.552 120.088 322.231 120.16 321.84 120.111L320.866 120.121L320.016 120.495C319.971 121.784 318.79 123.217 318.183 123.525C317.953 123.623 317.737 123.656 317.536 123.633C316.72 123.551 316.132 122.564 315.726 121.302L316.693 121.223L318.826 119.603L320.978 119.173C321.614 119.446 322.165 118.944 322.877 118.931C323.172 118.954 323.31 119.101 323.32 119.285L323.287 119.485C323.218 119.665 323.051 119.846 322.798 119.974V119.964Z" fill="#FFAE80"/>
<path fill-rule="evenodd" clip-rule="evenodd" d="M322.864 119.429L323.061 119.449L323.287 119.472L323.533 119.498L324.878 119.642L326.358 120.164C326.909 120.475 327.453 120.787 327.312 121.151C327.079 121.767 326.601 121.646 326.023 121.266C325.567 121.276 325.111 121.226 324.662 121.046C324.232 121.125 323.766 121.115 323.268 121.02C323.081 120.984 322.887 120.934 322.69 120.875L322.73 120.551L322.753 120.37L322.802 119.96L322.864 119.459V119.429Z" fill="#FFAE80"/>
<path fill-rule="evenodd" clip-rule="evenodd" d="M326.417 124.922C326.21 125.211 325.731 125.162 325.226 124.968C324.803 125.066 324.317 125.014 323.861 124.935C323.379 125.135 322.733 125.365 322.087 125.358L321.88 125.348V125.106L321.864 123.787L322.946 123.676L323.783 123.587L325.262 123.774C325.859 123.869 326.581 124.243 326.519 124.611C326.509 124.745 326.473 124.85 326.414 124.925L326.417 124.922Z" fill="#FFAE80"/>
<path fill-rule="evenodd" clip-rule="evenodd" d="M322.867 120.938L324.895 120.987L326.41 121.381C326.984 121.646 327.558 121.912 327.447 122.286C327.306 122.925 326.807 122.853 326.167 122.509C325.711 122.555 325.255 122.545 324.793 122.401C324.209 122.558 323.55 122.558 322.812 122.394L322.864 120.938H322.867Z" fill="#FFAE80"/>
<path fill-rule="evenodd" clip-rule="evenodd" d="M326.856 124.001C326.62 124.115 326.272 124.007 325.866 123.787L325.488 123.81C325.157 123.817 324.826 123.784 324.491 123.679C323.907 123.837 323.248 123.837 322.513 123.669L322.569 122.213L324.596 122.263L325.485 122.4L325.843 122.456L326.151 122.502C326.732 122.738 327.26 123.187 327.145 123.561C327.096 123.794 326.994 123.932 326.86 123.997L326.856 124.001Z" fill="#FFAE80"/>
<path fill-rule="evenodd" clip-rule="evenodd" d="M323.048 119.41C323.136 119.695 323.192 119.97 323.228 120.275C323.254 120.512 323.264 120.761 323.264 121.023C323.274 121.905 323.146 122.876 322.946 123.676C322.785 124.306 322.582 124.834 322.359 125.126L322.086 125.358C321.001 126.08 319.242 126.047 317.589 126.024C316.874 125.854 316.244 125.647 315.959 125.286L313.508 125.431C313.872 125.404 314.207 125.103 314.469 124.667C315.181 123.506 314.84 122.151 313.8 121.6L315.985 121.44L319.029 120.433L322.857 119.462L323.044 119.413L323.048 119.41Z" fill="#FFAE80"/>
<path fill-rule="evenodd" clip-rule="evenodd" d="M317.743 126.385H317.763H317.746C317.556 126.385 317.451 126.352 317.268 126.303C317.372 126.332 317.477 126.358 317.589 126.385C317.641 126.385 317.694 126.385 317.746 126.385H317.743Z" fill="#FF9861"/>
<path fill-rule="evenodd" clip-rule="evenodd" d="M316.444 126.011C316.398 125.988 316.356 125.965 316.313 125.942C316.356 125.965 316.398 125.992 316.444 126.011Z" fill="#FF9861"/>
<path fill-rule="evenodd" clip-rule="evenodd" d="M322.123 125.355C322.706 125.355 323.29 125.162 323.746 124.981C323.29 125.165 322.71 125.355 322.123 125.355ZM325.938 125.126C326.131 125.126 326.292 125.073 326.397 124.945C326.292 125.07 326.135 125.122 325.938 125.126ZM324.708 125.021C324.708 125.021 324.704 125.021 324.701 125.021C324.701 125.021 324.704 125.021 324.708 125.021ZM324.714 125.021C324.875 125.021 325.032 125.008 325.18 124.975C325.029 125.008 324.875 125.021 324.714 125.021ZM325.295 124.995C325.295 124.995 325.285 124.991 325.282 124.988C325.285 124.988 325.291 124.991 325.295 124.995ZM325.265 124.985C325.265 124.985 325.239 124.975 325.226 124.968C325.239 124.975 325.252 124.978 325.265 124.985ZM325.203 124.975C325.203 124.975 325.219 124.975 325.226 124.968C325.216 124.968 325.209 124.972 325.203 124.975ZM323.812 124.959C323.828 124.952 323.848 124.945 323.868 124.936C323.848 124.942 323.832 124.952 323.812 124.959ZM323.937 124.949C323.914 124.945 323.887 124.939 323.868 124.936C323.891 124.939 323.914 124.945 323.937 124.949Z" fill="#FF9861"/>
<path fill-rule="evenodd" clip-rule="evenodd" d="M322.116 125.355H322.123C322.706 125.355 323.29 125.162 323.746 124.981C323.746 124.981 323.753 124.981 323.756 124.981C323.773 124.975 323.792 124.968 323.809 124.962C323.825 124.955 323.845 124.945 323.864 124.939C323.887 124.942 323.91 124.948 323.933 124.952C323.963 124.955 323.989 124.962 324.019 124.965C324.245 125.001 324.478 125.024 324.701 125.027C324.701 125.027 324.704 125.027 324.708 125.027C324.708 125.027 324.708 125.027 324.714 125.027C324.875 125.027 325.032 125.014 325.18 124.981C325.18 124.981 325.193 124.981 325.2 124.978C325.2 124.978 325.216 124.978 325.223 124.971C325.223 124.971 325.249 124.981 325.262 124.988C325.262 124.988 325.272 124.991 325.278 124.994C325.278 124.994 325.288 124.998 325.291 125.001C325.515 125.08 325.728 125.129 325.915 125.135H325.938C326.131 125.135 326.292 125.083 326.397 124.955C326.397 124.955 326.41 124.939 326.417 124.929C326.289 124.988 326.151 125.011 326.013 125.011C325.728 125.011 325.452 124.906 325.311 124.758C325.124 124.811 324.944 124.847 324.767 124.847C324.517 124.847 324.281 124.778 324.048 124.594C323.576 124.912 322.975 125.109 322.359 125.132L322.086 125.365H322.1H322.113L322.116 125.355Z" fill="#FF9861"/>
<path fill-rule="evenodd" clip-rule="evenodd" d="M317.746 126.021H317.766C319.367 126.021 321.037 126.054 322.09 125.355L322.359 125.122C322.316 125.122 322.273 125.122 322.231 125.122C322.113 125.122 321.995 125.116 321.877 125.099L322.434 121.584C322.319 121.663 321.503 125.231 321.368 125.296C320.751 125.601 319.941 125.395 319.049 125.483C318.944 125.49 318.836 125.496 318.731 125.496C318.038 125.496 317.415 125.326 316.871 124.972C316.716 125.221 316.529 125.431 316.31 125.572C316.352 125.595 316.395 125.621 316.441 125.641C316.674 125.755 316.959 125.854 317.264 125.936C317.369 125.962 317.477 125.991 317.586 126.018H317.74L317.746 126.021Z" fill="#FF9861"/>
<path fill-rule="evenodd" clip-rule="evenodd" d="M323.156 119.829C323.205 119.731 323.248 119.613 323.287 119.475L323.081 119.521C323.11 119.623 323.133 119.728 323.156 119.829Z" fill="#FF9861"/>
<path fill-rule="evenodd" clip-rule="evenodd" d="M318.12 123.355C318.396 123.355 318.872 123.151 319.065 123.056C319.36 122.915 319.525 122.659 319.679 122.371C319.908 121.935 320.145 121.21 320.587 120.941C321.88 120.147 322.7 120.787 323.156 119.829C323.133 119.728 323.11 119.623 323.081 119.521L319.029 120.429C318.803 120.905 318.59 121.426 318.409 121.912C318.268 122.292 318.36 123.135 317.989 123.335C318.022 123.351 318.068 123.358 318.114 123.358L318.12 123.355Z" fill="#FF9861"/>
<path fill-rule="evenodd" clip-rule="evenodd" d="M322.798 119.964C322.552 120.089 322.231 120.161 321.84 120.112L320.866 120.121L320.017 120.495C319.971 121.784 318.786 123.217 318.179 123.525C317.95 123.624 317.733 123.657 317.533 123.634C316.716 123.552 316.129 123.043 315.722 121.781L316.648 121.227C319.452 119.813 319.748 118.98 322.877 118.928C323.172 118.954 323.31 119.098 323.32 119.282L323.287 119.482C323.218 119.662 323.051 119.843 322.798 119.971V119.964Z" fill="#FFAE80"/>
<path fill-rule="evenodd" clip-rule="evenodd" d="M315.404 121.131C318.088 121.377 317.671 125.641 315.946 126.106C314.955 126.349 303.562 131.137 295.485 127.946L284.932 122.443L280.762 123.122L282.226 110.293C286.769 112.536 291.273 115.822 300.347 122.138L315.404 121.131Z" fill="#F06A30"/>
<path fill-rule="evenodd" clip-rule="evenodd" d="M270.727 155.749V170.978C270.727 172.002 271.597 173.031 273.348 173.654C275.113 174.281 277.062 174.281 278.83 173.654C280.585 173.031 281.458 172.002 281.448 170.978V155.749C281.448 154.073 281.008 152.427 280.165 150.971L279.657 150.092C278.765 148.56 278.305 146.812 278.322 145.042L278.345 147.409V146.645L278.351 146.35L278.361 145.586V144.963H273.814V145.586L273.824 146.334V146.662L273.831 147.409L273.854 145.042C273.87 146.816 273.404 148.56 272.519 150.098L272.01 150.974C271.17 152.424 270.724 154.076 270.724 155.752L270.727 155.749Z" fill="white"/>
<path fill-rule="evenodd" clip-rule="evenodd" d="M270.728 157.08V167.177C270.741 167.961 271.262 168.745 272.299 169.342C274.392 170.552 277.784 170.552 279.877 169.342C280.395 169.043 280.789 168.696 281.048 168.328C281.31 167.958 281.442 167.568 281.448 167.177V157.08C281.435 157.864 280.913 158.644 279.88 159.244C277.787 160.455 274.395 160.455 272.302 159.244C271.262 158.644 270.741 157.864 270.734 157.08H270.731H270.728Z" fill="#FF4555"/>
<path fill-rule="evenodd" clip-rule="evenodd" d="M272.187 167.803C273.224 168.574 274.612 168.994 276.088 168.994C277.571 168.994 278.955 168.574 279.988 167.803C280.822 167.187 281.33 166.42 281.448 165.613V166.836C281.153 167.38 280.733 167.856 280.172 168.272C279.044 169.105 277.567 169.528 276.088 169.528C274.608 169.528 273.132 169.109 272.007 168.272C271.433 167.849 271.01 167.357 270.728 166.833V165.616C270.846 166.426 271.357 167.19 272.187 167.807V167.803Z" fill="white"/>
<path fill-rule="evenodd" clip-rule="evenodd" d="M274.477 144.031C275.369 143.516 276.813 143.516 277.702 144.031C278.591 144.546 278.594 145.379 277.702 145.894C276.813 146.409 275.366 146.409 274.477 145.894C273.585 145.379 273.585 144.546 274.477 144.031Z" fill="#86AD1C"/>
<path fill-rule="evenodd" clip-rule="evenodd" d="M275.199 144.448C275.691 144.166 276.488 144.166 276.977 144.448C277.465 144.73 277.465 145.189 276.977 145.474C276.485 145.756 275.691 145.756 275.199 145.474C274.707 145.189 274.707 144.73 275.199 144.448Z" fill="#5D7813"/>
<path fill-rule="evenodd" clip-rule="evenodd" d="M279.165 145.032V147.203C279.204 147.685 278.906 148.173 278.266 148.541C277.062 149.236 275.11 149.236 273.906 148.541C273.306 148.193 273.004 147.737 273.004 147.285V145.032H279.162H279.165Z" fill="#FF4555"/>
<path fill-rule="evenodd" clip-rule="evenodd" d="M273.91 143.772C272.709 144.468 272.709 145.592 273.91 146.288C275.113 146.98 277.065 146.98 278.269 146.288C279.473 145.592 279.473 144.468 278.269 143.772C277.065 143.077 275.113 143.077 273.91 143.772Z" fill="#FF4555"/>
<path fill-rule="evenodd" clip-rule="evenodd" d="M266.053 175.002V190.231C266.049 191.258 266.919 192.284 268.674 192.907C270.439 193.534 272.391 193.534 274.159 192.907C275.911 192.284 276.783 191.258 276.777 190.231V175.002C276.777 173.326 276.337 171.68 275.494 170.224L274.985 169.345C274.093 167.813 273.634 166.065 273.647 164.295L273.67 166.662V165.898L273.68 165.603L273.686 164.839V164.216H269.143V164.839L269.153 165.587V165.915L269.163 166.662L269.186 164.295C269.202 166.069 268.736 167.813 267.85 169.351L267.342 170.227C266.502 171.676 266.056 173.329 266.056 175.005L266.053 175.002Z" fill="white"/>
<path fill-rule="evenodd" clip-rule="evenodd" d="M266.053 176.336V186.434C266.066 187.217 266.587 188.001 267.624 188.598C269.717 189.808 273.112 189.808 275.205 188.598C275.724 188.3 276.114 187.955 276.376 187.585C276.636 187.214 276.767 186.824 276.773 186.434V176.336C276.763 177.117 276.239 177.901 275.205 178.501C273.112 179.708 269.717 179.711 267.624 178.501C266.587 177.904 266.066 177.12 266.059 176.336H266.056H266.053Z" fill="#FF4555"/>
<path fill-rule="evenodd" clip-rule="evenodd" d="M267.513 179.176C268.552 179.734 269.937 180.036 271.413 180.036C272.889 180.036 274.28 179.734 275.313 179.176C276.147 178.73 276.652 178.179 276.77 177.596V178.639C276.491 179.016 276.065 179.367 275.497 179.672C274.365 180.275 272.889 180.577 271.413 180.577C269.937 180.577 268.457 180.275 267.332 179.672C266.761 179.363 266.332 179.012 266.053 178.632V177.596C266.174 178.179 266.683 178.734 267.513 179.176Z" fill="white"/>
<path fill-rule="evenodd" clip-rule="evenodd" d="M267.513 187.06C268.552 187.831 269.937 188.251 271.413 188.251C272.889 188.251 274.28 187.831 275.313 187.06C276.147 186.444 276.652 185.68 276.77 184.87V186.093C276.475 186.634 276.058 187.113 275.497 187.526C274.365 188.362 272.889 188.779 271.413 188.779C269.937 188.779 268.457 188.359 267.332 187.526C266.761 187.1 266.332 186.611 266.053 186.086V184.87C266.174 185.676 266.683 186.444 267.513 187.06Z" fill="white"/>
<path fill-rule="evenodd" clip-rule="evenodd" d="M274.493 164.285V166.459C274.529 166.938 274.231 167.43 273.595 167.797C272.391 168.492 270.439 168.492 269.238 167.797C268.638 167.449 268.336 166.993 268.336 166.538V164.285H274.493Z" fill="#FF4555"/>
<path fill-rule="evenodd" clip-rule="evenodd" d="M267.67 235.845C271.997 235.576 271.042 228.23 269.871 224.232C269.448 222.789 267.713 222.084 266.282 222.556C264.852 223.025 263.973 225.744 264.019 227.246C264.058 228.653 262.556 236.166 267.67 235.848V235.845Z" fill="#333549"/>
<path fill-rule="evenodd" clip-rule="evenodd" d="M270.035 228.207C270.767 222.009 263.989 221.497 264.911 228.243C265.154 230.04 266.282 231.348 267.421 231.398C269.189 231.476 269.884 229.499 270.035 228.207Z" fill="#FFAE80"/>
<path fill-rule="evenodd" clip-rule="evenodd" d="M290.131 225.764C292.014 227.269 294.399 228.076 296.771 228.01C297.096 228 297.457 227.958 297.667 227.702C297.988 227.308 297.762 226.708 297.496 226.275C295.311 222.717 291.214 219.687 289.416 215.899C289.21 215.467 289.023 214.991 288.655 214.696C288.091 214.247 287.297 214.348 286.612 214.168C285.975 214.004 285.296 213.594 284.715 213.912C284.184 214.201 284.076 214.922 283.918 215.522C283.748 216.162 283.456 217.765 283.246 218.395C283.036 219.025 282.911 219.717 283.098 220.353C283.328 221.146 283.994 221.724 284.699 222.101C285.404 222.481 286.179 222.714 286.881 223.101C288.098 223.777 289.039 224.885 290.135 225.757L290.131 225.764Z" fill="#FFAE80"/>
<path fill-rule="evenodd" clip-rule="evenodd" d="M297.67 227.705C297.46 227.958 297.096 227.997 296.778 228.007C294.406 228.076 292.014 227.276 290.135 225.767C289.039 224.895 288.094 223.78 286.881 223.104C286.175 222.721 285.401 222.481 284.699 222.111C283.994 221.727 283.331 221.146 283.098 220.353C282.908 219.72 283.039 219.028 283.239 218.395C283.42 217.854 283.659 216.326 283.833 215.771L283.912 215.522C284.072 214.929 284.184 214.207 284.715 213.915C285.289 213.594 285.972 214.004 286.605 214.178C287.297 214.348 288.094 214.247 288.655 214.699C289.026 215.001 289.21 215.473 289.42 215.906C290.122 217.401 291.198 218.618 292.362 219.772C294.15 221.53 296.181 224.134 297.496 226.282C297.759 226.715 297.988 227.318 297.667 227.708L297.67 227.705Z" fill="#333549"/>
<path fill-rule="evenodd" clip-rule="evenodd" d="M293.642 221.838C293.671 222.081 293.592 222.34 293.389 222.481C293.218 222.583 293.008 222.583 292.805 222.57C290.696 222.409 288.836 221.143 287.199 219.798C286.356 219.103 285.532 218.372 284.86 217.506C284.446 216.975 284.085 216.391 283.836 215.768L283.915 215.519C284.076 214.925 284.099 213.666 284.63 213.374C285.201 213.053 285.975 213.394 286.608 213.564C287.3 213.735 288.337 213.345 288.901 213.797C289.275 214.096 289.111 215.102 289.321 215.535C290.026 217.034 291.201 218.615 292.369 219.772C292.73 220.264 293.074 220.736 293.353 221.189C293.484 221.389 293.605 221.602 293.645 221.841L293.642 221.838Z" fill="#FFAE80"/>
<path fill-rule="evenodd" clip-rule="evenodd" d="M291.66 178.911C291.601 179.878 291.522 180.996 291.447 182.229C291.372 183.394 291.29 184.656 291.204 185.994C291.135 187.073 291.066 188.195 290.991 189.352C290.25 200.952 289.328 215.506 289.328 215.528L289.282 215.61C288.229 217.572 284.273 218.008 283.909 215.528C283.485 207.861 282.124 201.178 281.163 195.045C280.838 192.95 280.559 190.923 280.385 188.942C280.228 187.25 280.149 185.591 280.182 183.958V183.715C280.205 182.292 280.32 180.895 280.536 179.511C280.605 179.094 280.687 178.688 280.769 178.278L289.702 172.477C289.702 172.726 291.654 178.642 291.654 178.904L291.66 178.911Z" fill="#FFAE80"/>
<path fill-rule="evenodd" clip-rule="evenodd" d="M281.169 166.115C279.686 173.706 278.84 179.711 277.941 184.305C277.872 184.653 277.807 184.994 277.738 185.325C277.374 187.086 276.98 188.628 276.527 189.953C276.429 190.254 276.331 190.543 276.219 190.808L275.478 194.363L275.153 195.914L269.419 223.393L269.212 224.37L269.025 225.268C269.025 227.433 265.712 226.698 265.515 224.875C265.498 224.74 265.482 224.596 265.469 224.458C265.423 224.048 265.38 223.648 265.341 223.248C263.563 206.651 264.055 199.968 265.174 193.691C265.311 192.891 265.462 192.087 265.623 191.277C265.849 190.113 266.092 188.926 266.335 187.657C266.273 187.247 266.237 186.84 266.191 186.43L266.161 186.112L266.138 185.939C265.164 177.304 265.413 170.68 265.633 166.111H281.176L281.169 166.115Z" fill="#FFAE80"/>
<path fill-rule="evenodd" clip-rule="evenodd" d="M281.169 166.115C279.686 173.706 278.84 179.711 277.941 184.305C277.872 184.653 277.807 184.994 277.738 185.325C277.374 187.086 276.98 188.628 276.527 189.953C276.429 190.254 276.331 190.543 276.219 190.808L275.478 194.363L275.153 195.914L269.419 223.393L269.212 224.37L269.025 225.268C269.025 227.433 265.712 226.698 265.515 224.875C265.498 224.74 265.482 224.596 265.469 224.458C265.423 224.048 265.38 223.648 265.341 223.248C263.563 206.651 264.055 199.968 265.174 193.691C265.311 192.891 265.462 192.087 265.623 191.277C265.849 190.113 266.092 188.926 266.335 187.657C266.273 187.247 266.237 186.84 266.191 186.43L266.161 186.112L266.138 185.939C265.164 177.304 265.413 170.68 265.633 166.111H281.176L281.169 166.115Z" fill="#FFAE80"/>
<path fill-rule="evenodd" clip-rule="evenodd" d="M274.825 195.918C274.933 195.918 275.038 195.918 275.149 195.918L275.474 194.367L275.874 192.445C274.68 192.625 273.506 192.73 272.387 192.73C271.01 192.73 269.717 192.576 268.575 192.228C268.575 192.238 268.575 192.245 268.579 192.255C268.352 192.176 268.139 192.091 267.936 192.005C267.093 191.674 266.348 191.218 265.744 190.622C265.702 190.845 265.659 191.064 265.616 191.284C265.456 192.094 265.305 192.894 265.167 193.698C268.3 195.255 271.61 195.921 274.821 195.921L274.825 195.918Z" fill="#EB9763"/>
<path fill-rule="evenodd" clip-rule="evenodd" d="M281.169 195.045C285.224 193.934 288.741 191.848 290.997 189.352C291.073 188.195 291.142 187.076 291.211 185.994C291.224 185.742 291.24 185.493 291.257 185.247C291.257 185.256 291.257 185.266 291.257 185.276C290.601 187.063 285.939 189.73 280.651 191.336C280.802 192.55 280.979 193.786 281.176 195.042L281.169 195.045Z" fill="#EB9763"/>
<path fill-rule="evenodd" clip-rule="evenodd" d="M291.25 185.28C289.895 188.966 271.554 196.357 265.748 190.618L264.045 165.279C262.47 156.962 263.848 152.673 268.169 148.652C268.69 148.167 269.251 147.691 269.855 147.209L282.737 146.688L287.783 146.484C292.162 160.441 292.28 175.645 291.253 185.283L291.25 185.28Z" fill="#125AA3"/>
<path fill-rule="evenodd" clip-rule="evenodd" d="M268.582 192.252C268.582 192.252 268.582 192.235 268.578 192.225C268.359 192.16 268.146 192.084 267.942 192.002C268.142 192.088 268.355 192.173 268.585 192.252H268.582Z" fill="#606F4F"/>
<path fill-rule="evenodd" clip-rule="evenodd" d="M288.284 148.157C288.284 148.157 288.294 148.13 288.301 148.121L287.786 146.478C287.786 146.478 287.783 146.484 287.783 146.487C287.956 147.042 288.124 147.599 288.284 148.157Z" fill="#5BB9C0"/>
<path fill-rule="evenodd" clip-rule="evenodd" d="M268.579 192.225C267.408 183.368 268.749 163.032 270.626 156.09C271.38 156.119 272.105 156.135 272.801 156.135C281.904 156.135 285.968 153.6 288.284 148.16C288.124 147.602 287.956 147.045 287.783 146.491C287.448 147.294 287.081 148.048 286.657 148.734C285.073 151.587 282.737 153.033 279.709 153.033C279.289 153.033 278.856 153.007 278.413 152.951C275.064 152.925 270.757 151.813 267.896 148.911C264.918 151.78 263.422 154.824 263.418 159.398C263.418 161.12 263.628 163.055 264.048 165.282L264.344 169.679L264.383 170.26L264.836 177.012L264.878 177.645L264.934 178.491L265.17 182.023L265.748 190.615C266.19 191.038 266.886 191.553 267.942 192.002C268.149 192.084 268.362 192.156 268.579 192.225Z" fill="#104F8F"/>
<path fill-rule="evenodd" clip-rule="evenodd" d="M289.715 136.659C288.396 137.479 287.727 137.63 287.638 138.817C287.56 140.411 287.277 142.316 287.304 144.031C287.304 144.218 287.304 144.395 287.317 144.553C287.343 145.009 287.396 145.451 287.491 145.881C287.53 146.081 287.586 146.281 287.651 146.484C286.392 149.475 284.728 151.794 281.412 152.636C280.582 152.853 279.549 152.958 278.407 152.945C274.976 152.918 270.534 151.751 267.677 148.682C268.306 144.028 266.725 138.076 265.088 133.075C263.829 129.212 262.513 125.926 262.162 124.266C265.193 120.459 268.844 117.294 272.732 114.582C276.626 111.874 278.407 108.43 282.845 110.093C287.284 111.756 287.773 116.553 289.397 120.039C289.738 123.407 295.226 133.222 289.712 136.653L289.715 136.659Z" fill="#F57A44"/>
<path fill-rule="evenodd" clip-rule="evenodd" d="M282.849 152.141C284.551 151.43 285.736 150.239 286.658 148.734C287.031 148.062 287.363 147.314 287.651 146.488C286.589 149.013 285.237 151.056 282.849 152.141Z" fill="#4D7281"/>
<path fill-rule="evenodd" clip-rule="evenodd" d="M279.706 153.03C282.737 153.03 285.073 151.584 286.657 148.73C285.736 150.236 284.551 151.426 282.849 152.138C282.406 152.338 281.93 152.505 281.415 152.636C280.628 152.84 279.663 152.944 278.597 152.944C278.535 152.944 278.473 152.944 278.41 152.944C275.061 152.918 270.754 151.807 267.893 148.904C270.754 151.81 275.064 152.918 278.41 152.944C278.856 153 279.289 153.026 279.706 153.026V153.03Z" fill="#1D566A"/>
<path fill-rule="evenodd" clip-rule="evenodd" d="M284.276 140.581C283.393 141.313 281.901 141.923 278.975 141.923C276.524 141.923 274.221 140.352 272.699 137.784L268.904 131.412L265.095 133.075L265.213 133.439L268.589 132.583L267.841 134.249L272.171 138.312C273.693 140.876 275.996 142.451 278.446 142.451C282.055 142.451 283.489 141.522 284.276 140.581Z" fill="#F06A30"/>
<path fill-rule="evenodd" clip-rule="evenodd" d="M262.139 124.309C258.485 130.687 256.431 137.879 255.781 145.786C254.765 151.58 255.86 162.13 258.485 167.699C259.137 166.892 260.309 166.535 262.139 166.748C262.569 158.998 263.09 151.482 262.139 147.462L267.985 134.678C272.007 125.909 265.429 120.131 262.139 124.306V124.309Z" fill="#F06A30"/>
<path fill-rule="evenodd" clip-rule="evenodd" d="M269.248 172.775C268.93 172.959 268.457 172.985 268.005 172.611C267.027 171.595 266.004 170.788 264.685 171.24C264.449 171.664 264.432 172.241 264.573 172.913L264.609 173.061C264.951 174.497 265.931 176.363 266.932 178.232C267.047 178.55 266.968 178.786 266.798 178.921C266.574 179.114 266.184 179.134 265.889 178.944C265.941 179.468 265.266 179.665 264.813 179.19L264.137 178.449C264.062 179.055 263.34 178.885 263.117 178.449L261.834 176.861C260.958 176.019 260.24 175.002 259.62 173.854C259.538 173.687 259.449 173.523 259.367 173.352C258.767 171.47 258.455 169.581 258.478 167.699C258.918 166.134 260.319 165.905 262.129 166.751L264.295 167.873C266.312 168.86 267.339 170.28 269.504 172.031C269.681 172.274 269.533 172.595 269.238 172.772L269.248 172.775Z" fill="#FFAE80"/>
<path fill-rule="evenodd" clip-rule="evenodd" d="M266.798 178.917C266.574 179.111 266.184 179.13 265.889 178.94C265.941 179.465 265.266 179.662 264.813 179.186L264.137 178.445C264.062 179.052 263.34 178.881 263.117 178.445L261.834 176.858C260.958 176.015 260.24 174.998 259.62 173.851C260.666 174.28 261.749 173.979 262.858 173.401C263.793 175.572 265.476 178.514 266.794 178.914L266.798 178.917Z" fill="#FFAE80"/>
<path fill-rule="evenodd" clip-rule="evenodd" d="M269.241 172.775C268.926 172.959 268.457 172.985 268.005 172.611C267.027 171.595 266.004 170.788 264.685 171.24C264.449 171.663 264.432 172.241 264.573 172.913L264.032 170.607C266.433 170.047 268.103 172.319 269.241 172.778V172.775Z" fill="#FFAE80"/>
<path fill-rule="evenodd" clip-rule="evenodd" d="M280.392 115.416L281.274 119.331L284.309 133.059L272.791 118.17L280.392 115.416Z" fill="#FFAE80"/>
<path fill-rule="evenodd" clip-rule="evenodd" d="M279.952 114.619L284.269 133.009L283.351 115.163L279.952 114.619Z" fill="#F06A30"/>
<path fill-rule="evenodd" clip-rule="evenodd" d="M275.812 109.499C275.812 112.487 273.388 114.91 270.399 114.91C267.408 114.91 264.987 112.487 264.987 109.499C264.987 106.512 267.411 104.088 270.399 104.088C273.388 104.088 275.812 106.512 275.812 109.499Z" fill="#333549"/>
<path fill-rule="evenodd" clip-rule="evenodd" d="M273.237 108.915C272.65 110.935 272.814 112.972 272.069 115.058C271.626 117.432 275.474 119.885 278.41 119.672C280.487 119.262 280.316 118.278 280.618 115.825L273.237 108.912V108.915Z" fill="#FFAE80"/>
<path fill-rule="evenodd" clip-rule="evenodd" d="M276.245 111.729C276.563 111.464 276.875 111.211 277.19 110.982L275.747 110.352C275.707 110.608 275.648 110.857 275.573 111.1L276.245 111.729Z" fill="#F2CEAF"/>
<path fill-rule="evenodd" clip-rule="evenodd" d="M280.129 115.366L279.952 114.615L281.697 114.897C281.707 114.274 281.71 113.625 281.71 112.949L277.19 110.981C276.875 111.211 276.56 111.464 276.245 111.729L280.129 115.366Z" fill="#FF3A40"/>
<path fill-rule="evenodd" clip-rule="evenodd" d="M279.559 121.853C279.818 121.853 280.08 121.807 280.346 121.708C280.776 121.551 281.071 121.033 281.271 120.226L280.5 116.93C280.313 118.59 280.146 119.334 278.414 119.675C278.292 119.685 278.174 119.688 278.05 119.688C277.58 119.688 277.092 119.626 276.609 119.511C277.429 120.967 278.443 121.853 279.562 121.853H279.559Z" fill="#EB9763"/>
<path fill-rule="evenodd" clip-rule="evenodd" d="M275.572 111.1C275.648 110.857 275.707 110.608 275.746 110.352L274.52 109.817C274.52 109.919 274.52 110.017 274.52 110.116L275.569 111.1H275.572Z" fill="#1D1814"/>
<path fill-rule="evenodd" clip-rule="evenodd" d="M278.046 119.688C278.171 119.688 278.292 119.685 278.41 119.675C280.142 119.334 280.31 118.593 280.497 116.934C280.533 116.602 280.569 116.235 280.621 115.828L280.129 115.366L276.245 111.729L275.573 111.1L274.523 110.116C274.582 113.838 275.376 117.321 276.606 119.508C277.092 119.623 277.577 119.685 278.046 119.685V119.688Z" fill="#EB9763"/>
<path fill-rule="evenodd" clip-rule="evenodd" d="M273.923 112.149C275.999 114.747 278.24 116.963 281.907 116.429C283.265 116.232 284.525 114.209 284.42 106.099C284.384 103.351 282.911 100.127 281.651 98.5988C279.857 96.4279 276.786 95.6146 273.86 96.2836C269.714 97.228 267.706 100.432 268.195 104.459C269.143 109.942 271.502 111.975 273.926 112.149H273.923Z" fill="#FFAE80"/>
<path fill-rule="evenodd" clip-rule="evenodd" d="M272.551 111.644C272.551 111.644 273.499 111.421 274.313 110.142C275.127 108.86 275.241 107.351 275.412 105.656C279.204 105.269 283.213 102.501 283.213 101.222C283.039 99.4643 281.963 97.8607 278.732 96.5817C275.136 95.2175 271.941 96.0669 269.373 98.8544C265.361 103.213 268.986 110.903 272.387 112.3L272.548 111.641L272.551 111.644Z" fill="#333549"/>
<path fill-rule="evenodd" clip-rule="evenodd" d="M284.755 104.902C284.699 104.718 284.607 104.734 284.538 104.757C284.295 104.833 284.118 105.105 283.738 105.525C283.502 105.784 283.259 106.053 283 106.299C282.859 106.43 282.724 106.722 282.731 106.964C282.747 107.689 283.039 108.509 283.662 108.309C283.997 108.201 284.355 107.833 284.624 107.325C285.037 106.544 284.948 105.751 284.755 104.902ZM281.733 107.797C281.684 107.574 281.632 107.391 281.202 107.62C280.785 107.84 280.362 108.076 279.942 108.269C278.975 108.715 278.387 109.024 278.384 109.565C278.384 109.998 278.528 110.345 278.801 110.572C279.155 110.87 279.703 110.942 280.257 110.762C280.785 110.591 281.225 110.227 281.501 109.735C281.796 109.201 281.878 108.529 281.737 107.797H281.733ZM284.712 107.564C284.004 108.774 282.8 109.129 282.547 107.246V107.161C282.327 107.197 282.098 107.368 281.927 107.715C282.609 111.293 278.197 112.185 278.187 109.598C278.194 108.499 279.837 108.207 281.127 107.423C281.281 107.332 281.701 107.207 281.792 107.371C282.029 107.043 282.311 106.827 282.58 106.774C282.636 106.531 282.701 106.315 282.891 106.128C283.862 105.174 284.597 103.888 284.935 104.78C285.221 105.856 285.152 106.813 284.712 107.564Z" fill="#333549"/>
<path fill-rule="evenodd" clip-rule="evenodd" d="M278.322 109.68L272.509 109.821L272.368 109.539L278.41 109.175L278.322 109.68Z" fill="#333549"/>
<path fill-rule="evenodd" clip-rule="evenodd" d="M273.411 110.614C273.152 110.208 272.87 109.811 272.499 109.506C272.128 109.201 271.656 108.994 271.174 109.034C271.046 109.043 270.918 109.07 270.803 109.132C270.544 109.27 270.409 109.575 270.399 109.867C270.39 110.158 270.488 110.444 270.603 110.709C270.823 111.221 271.124 111.703 271.534 112.074C271.948 112.444 272.482 112.697 273.037 112.707C273.253 112.707 273.486 112.67 273.647 112.523C273.772 112.411 273.841 112.247 273.87 112.083C273.959 111.565 273.69 111.06 273.408 110.614H273.411Z" fill="#FFAE80"/>
<path fill-rule="evenodd" clip-rule="evenodd" d="M272.148 114.619L285.385 134.164L271.708 122.925L272.407 120.053L270.071 118.813L270.052 116.567L272.148 114.619Z" fill="#F06A30"/>
<path fill-rule="evenodd" clip-rule="evenodd" d="M384.471 223.297C388.621 222.35 396.54 225.56 400.017 227.387C396.901 225.77 393.145 225.301 388.949 226.262C375.355 229.39 355.898 242.101 358.155 266.618C359.776 284.376 376.585 312.562 379.364 312.11C378.803 312.52 374.541 310.296 374.128 310.113C369.758 308.148 354.54 282.379 352.923 264.618C350.663 240.098 370.877 226.426 384.471 223.294V223.297Z" fill="#F06A30"/>
<path fill-rule="evenodd" clip-rule="evenodd" d="M373.058 277.597C374.075 277.646 375.158 277.548 376.309 277.286C385.206 275.226 393.725 264.185 395.353 252.589C396.337 245.502 394.509 239.868 390.908 237.018C397.793 237.494 401.976 244.6 400.588 254.586C398.958 266.182 390.438 277.227 381.545 279.286C378.084 280.08 375.227 279.398 373.055 277.597H373.058Z" fill="#F06A30"/>
<path fill-rule="evenodd" clip-rule="evenodd" d="M373.059 277.597C369.64 274.767 367.934 269.146 368.351 261.997C369.181 247.729 378.501 239.34 387.394 237.3C388.631 237.018 389.802 236.939 390.908 237.018C397.793 237.494 401.976 244.6 400.588 254.586C398.958 266.182 390.438 277.227 381.545 279.286C378.084 280.08 375.227 279.398 373.055 277.597H373.059ZM379.364 312.113C386.052 311.05 406.605 270.337 409.065 252.638C410.633 241.458 407.599 232.634 401.73 228.439L401.451 228.249C401.202 228.078 400.952 227.921 400.69 227.767C400.546 227.678 400.401 227.593 400.254 227.511L400.017 227.387C396.901 225.77 393.145 225.301 388.949 226.262C375.355 229.39 355.898 242.101 358.155 266.618C359.776 284.376 376.585 312.562 379.364 312.11V312.113Z" fill="#F57A44"/>
<path fill-rule="evenodd" clip-rule="evenodd" d="M395.356 252.586C396.34 245.499 394.513 239.865 390.911 237.015C389.805 236.936 388.634 237.015 387.397 237.297C378.501 239.337 369.184 247.726 368.354 261.994C367.938 269.14 369.64 274.761 373.062 277.594C374.079 277.644 375.161 277.545 376.313 277.283C385.209 275.223 393.729 264.182 395.356 252.586Z" fill="#EFF9FC"/>
<path fill-rule="evenodd" clip-rule="evenodd" d="M174.524 289.22V281.126L156.37 281.116L150.095 277.493C148.655 276.663 146.138 276.765 144.475 277.725L138.62 281.103L120.449 281.093V289.416C120.41 289.977 120.721 290.522 121.414 290.922L144.879 304.466C146.319 305.299 148.835 305.194 150.498 304.233L173.153 291.158C174.111 290.604 174.574 289.885 174.521 289.22H174.524Z" fill="#7BA8D9"/>
<path fill-rule="evenodd" clip-rule="evenodd" d="M122.513 281.097H120.456V289.42C120.416 289.981 120.728 290.525 121.42 290.925L122.513 291.555V281.097Z" fill="#97C3E8"/>
<path fill-rule="evenodd" clip-rule="evenodd" d="M144.885 296.175L121.42 282.632C119.98 281.802 120.16 280.349 121.824 279.388L144.478 266.313C146.142 265.352 148.658 265.251 150.098 266.08L173.563 279.621C175.003 280.451 174.823 281.903 173.16 282.864L150.505 295.939C148.842 296.9 146.325 297.005 144.885 296.172V296.175Z" fill="#BDDEF5"/>
<path fill-rule="evenodd" clip-rule="evenodd" d="M173.16 281.271L150.505 294.346C148.842 295.306 146.325 295.411 144.885 294.578L121.42 281.035C121.099 280.848 120.862 280.634 120.702 280.398C120.206 281.195 120.433 282.058 121.42 282.628L144.885 296.172C146.325 297.002 148.842 296.9 150.505 295.939L173.16 282.861C174.452 282.117 174.843 281.074 174.282 280.257C174.055 280.621 173.681 280.969 173.16 281.271Z" fill="#FEFEFE"/>
<path fill-rule="evenodd" clip-rule="evenodd" d="M171.995 287.836C171.995 288.439 171.569 289.174 171.047 289.475C170.522 289.777 170.099 289.531 170.099 288.931C170.099 288.331 170.522 287.59 171.047 287.288C171.569 286.986 171.995 287.232 171.995 287.836ZM165.897 291.355C165.897 291.958 165.474 292.693 164.949 292.994C164.424 293.296 164.001 293.053 164.001 292.447C164.001 291.84 164.427 291.109 164.949 290.807C165.47 290.505 165.897 290.751 165.897 291.355ZM168.944 289.594C168.944 290.197 168.521 290.935 167.996 291.237C167.471 291.538 167.048 291.292 167.048 290.689C167.048 290.085 167.471 289.351 167.996 289.049C168.521 288.747 168.944 288.99 168.944 289.597V289.594Z" fill="#FEFEFE"/>
<path fill-rule="evenodd" clip-rule="evenodd" d="M146.273 287.78L135.293 281.441C134.621 281.051 134.706 280.372 135.484 279.923L146.086 273.803C146.864 273.354 148.041 273.305 148.714 273.695L159.693 280.034C160.366 280.424 160.284 281.103 159.503 281.553L148.904 287.672C148.123 288.121 146.949 288.17 146.276 287.78H146.273Z" fill="#97C3E8"/>
<path fill-rule="evenodd" clip-rule="evenodd" d="M147.323 282.474L145.804 281.595L145.83 281.385L147.297 280.539L147.661 280.523L149.18 281.402L149.153 281.608L147.687 282.458L147.323 282.474Z" fill="#FEFEFE"/>
<path fill-rule="evenodd" clip-rule="evenodd" d="M135.29 281.441L135.319 281.457L135.48 281.349L146.083 275.23C146.86 274.781 148.038 274.731 148.71 275.122L159.661 281.441C160.284 280.998 160.313 280.392 159.69 280.034L148.71 273.695C148.038 273.305 146.86 273.354 146.083 273.803L135.48 279.923C134.703 280.372 134.617 281.051 135.29 281.441Z" fill="#7BA8D9"/>
<path fill-rule="evenodd" clip-rule="evenodd" d="M177.67 323.863L198.337 311.913C198.747 311.677 198.938 311.362 198.944 311.031L198.954 311.038V305.604C198.954 305.604 198.229 306.211 197.803 306.568L184.756 299.052C183.693 298.442 182.089 298.376 181.171 298.907L161.419 310.329L159.89 309.447V314.904L159.897 314.898C159.907 315.298 160.195 315.717 160.766 316.045L174.085 323.719C175.148 324.329 176.752 324.395 177.67 323.863Z" fill="#97C3E8"/>
<path fill-rule="evenodd" clip-rule="evenodd" d="M197.803 306.565L184.756 299.048C183.693 298.438 182.089 298.373 181.174 298.904L176.027 301.882V324.218C176.64 324.231 177.234 324.116 177.67 323.863L198.337 311.913C198.747 311.677 198.938 311.362 198.944 311.031L198.954 311.038V305.604C198.954 305.604 198.229 306.21 197.803 306.568V306.565Z" fill="#7BA8D9"/>
<path fill-rule="evenodd" clip-rule="evenodd" d="M160.504 308.499L181.171 296.549C182.089 296.018 183.693 296.084 184.753 296.694L198.075 304.367C199.138 304.977 199.253 305.905 198.334 306.437L177.667 318.387C176.749 318.918 175.144 318.853 174.081 318.239L160.763 310.566C159.7 309.956 159.585 309.027 160.504 308.496V308.499Z" fill="#BDDEF5"/>
<path fill-rule="evenodd" clip-rule="evenodd" d="M177.621 318.941L198.285 306.991C198.787 306.699 198.97 306.289 198.866 305.879C198.774 306.086 198.603 306.279 198.331 306.434L177.664 318.384C176.745 318.915 175.141 318.849 174.078 318.236L160.76 310.562C160.277 310.287 160.002 309.946 159.916 309.605C159.693 310.1 159.959 310.687 160.71 311.12L174.032 318.794C175.092 319.404 176.699 319.469 177.618 318.938L177.621 318.941Z" fill="#FEFEFE"/>
<path fill-rule="evenodd" clip-rule="evenodd" d="M182.289 305.214C181.518 304.771 181.518 304.05 182.289 303.604C183.06 303.158 184.31 303.158 185.081 303.604C185.852 304.05 185.852 304.768 185.081 305.214C184.31 305.66 183.06 305.66 182.289 305.214Z" fill="#FEFEFE"/>
<path fill-rule="evenodd" clip-rule="evenodd" d="M178.064 307.657C177.293 307.211 177.293 306.489 178.064 306.046C178.832 305.6 180.085 305.6 180.856 306.046C181.627 306.489 181.627 307.211 180.856 307.657C180.085 308.103 178.835 308.103 178.064 307.657Z" fill="#FEFEFE"/>
<path fill-rule="evenodd" clip-rule="evenodd" d="M173.842 310.1C173.071 309.657 173.071 308.936 173.842 308.49C174.613 308.044 175.86 308.044 176.63 308.49C177.401 308.932 177.401 309.654 176.63 310.1C175.86 310.546 174.613 310.546 173.842 310.1Z" fill="#FEFEFE"/>
<path fill-rule="evenodd" clip-rule="evenodd" d="M460.719 217.5C467.825 217.5 474.077 219.638 477.696 222.871H481.038V229.778C481.045 230.007 480.822 230.876 480.776 231.053C479.355 236.782 470.918 241.183 460.719 241.183C450.52 241.183 441.807 236.638 440.597 230.775C440.564 230.62 440.406 230.033 440.4 229.781V222.874H443.743C447.361 219.641 453.614 217.503 460.719 217.503V217.5Z" fill="#97C3E8"/>
<path fill-rule="evenodd" clip-rule="evenodd" d="M460.719 234.713C471.882 234.713 480.989 229.394 480.989 222.871C480.989 216.348 471.882 211.029 460.719 211.029C449.556 211.029 440.449 216.348 440.449 222.871C440.449 229.394 449.556 234.713 460.719 234.713Z" fill="#BBDBFA"/>
<path fill-rule="evenodd" clip-rule="evenodd" d="M460.719 227.321C464.915 227.321 468.336 225.321 468.336 222.871C468.336 220.421 464.915 218.421 460.719 218.421C456.523 218.421 453.102 220.421 453.102 222.871C453.102 225.321 456.523 227.321 460.719 227.321Z" fill="#97C3E8"/>
<path fill-rule="evenodd" clip-rule="evenodd" d="M460.719 196.685C467.825 196.685 474.077 198.82 477.696 202.057H481.038V208.963C481.045 209.193 480.822 210.062 480.776 210.239C479.355 215.965 470.918 220.369 460.719 220.369C450.52 220.369 441.807 215.824 440.597 209.96C440.564 209.806 440.406 209.219 440.4 208.966V202.06H443.743C447.361 198.827 453.614 196.688 460.719 196.688V196.685Z" fill="#97C3E8"/>
<path fill-rule="evenodd" clip-rule="evenodd" d="M460.719 213.895C471.882 213.895 480.989 208.576 480.989 202.053C480.989 195.531 471.882 190.211 460.719 190.211C449.556 190.211 440.449 195.531 440.449 202.053C440.449 208.576 449.556 213.895 460.719 213.895Z" fill="#BBDBFA"/>
<path d="M460.719 206.503C464.926 206.503 468.336 204.511 468.336 202.053C468.336 199.595 464.926 197.603 460.719 197.603C456.512 197.603 453.102 199.595 453.102 202.053C453.102 204.511 456.512 206.503 460.719 206.503Z" fill="#97C3E8"/>
<path fill-rule="evenodd" clip-rule="evenodd" d="M340.884 299.474L340.447 299.425L339.995 299.612L334.956 302.265L334.575 302.423L339.699 305.397L340.08 305.24L345.119 302.593L345.571 302.403L346.011 302.452L340.884 299.474Z" fill="#F57A44"/>
<path fill-rule="evenodd" clip-rule="evenodd" d="M321.453 342.565C321.414 342.267 321.279 342.074 321.096 341.965L315.972 338.994C316.155 339.102 316.283 339.296 316.326 339.588L317.861 344.084C317.887 344.317 317.989 344.497 318.14 344.586L323.264 347.557C323.11 347.468 323.015 347.301 322.982 347.055L321.453 342.565Z" fill="#F57A44"/>
<path fill-rule="evenodd" clip-rule="evenodd" d="M329.225 312.533L324.101 309.555C325.157 310.168 325.889 311.362 326.115 313.074C326.515 316.268 325.013 320.351 322.533 323.375C321.778 324.29 320.935 325.109 320.023 325.778C319.702 326.011 319.383 326.221 319.065 326.401C318.321 326.834 317.599 327.12 316.917 327.254C315.814 327.487 314.817 327.356 314.01 326.893L319.134 329.868C319.941 330.337 320.938 330.474 322.041 330.238C322.723 330.087 323.445 329.809 324.189 329.386C324.508 329.202 324.829 328.992 325.15 328.753C326.059 328.09 326.902 327.264 327.653 326.349C330.137 323.335 331.636 319.246 331.236 316.055C331.013 314.346 330.281 313.146 329.222 312.536L329.225 312.533Z" fill="#F57A44"/>
<path fill-rule="evenodd" clip-rule="evenodd" d="M308.666 336.997L303.542 334.023C303.962 335.059 304.507 335.955 305.146 336.712C305.258 337.076 305.195 337.594 304.963 338.08L302.735 344.409C302.423 345.055 302.466 345.704 302.83 345.914L307.954 348.892C307.59 348.679 307.551 348.036 307.856 347.387L310.087 341.061C310.32 340.565 310.379 340.05 310.27 339.69C309.631 338.932 309.093 338.043 308.666 337.001V336.997Z" fill="#F57A44"/>
<path fill-rule="evenodd" clip-rule="evenodd" d="M322.428 297.536L322.146 297.448L327.27 300.425L327.548 300.514C328.093 300.334 328.624 300.189 329.146 300.075C329.75 299.947 330.337 299.871 330.911 299.835L331.301 299.242L334.923 293.339L335.235 292.84L335.743 292.397L336.051 292.27H336.36L340.3 293.473L340.421 293.522L335.297 290.541L335.176 290.495L331.236 289.295L330.927 289.289L330.619 289.41L330.11 289.859L329.792 290.354L326.164 296.257L325.78 296.857C325.209 296.884 324.619 296.969 324.015 297.094C323.497 297.202 322.966 297.349 322.421 297.526L322.428 297.536Z" fill="#F57A44"/>
<path fill-rule="evenodd" clip-rule="evenodd" d="M314.682 310.706L315.04 310.441C315.352 310.031 315.676 309.618 316.004 309.218C316.7 308.365 317.438 307.545 318.189 306.768L318.219 306.187L318.435 300.416C318.376 299.953 318.599 299.353 318.96 298.907L319.311 298.566L324.216 294.995L324.36 294.896L324.678 294.775L325.091 294.824L319.967 291.853L319.554 291.797L319.242 291.919L319.091 292.017L314.19 295.592L313.836 295.939C313.475 296.375 313.252 296.982 313.311 297.438L313.095 303.206L313.065 303.797C312.311 304.567 311.579 305.387 310.88 306.24C310.549 306.64 310.228 307.053 309.916 307.463L309.558 307.729L309.188 307.876L308.81 307.866L304.441 307.827H304.119L303.808 307.945L303.303 308.391L302.988 308.883L299.999 315.127C299.674 315.806 299.727 316.439 300.081 316.645L300.35 316.806L303.512 318.964L303.837 319.197C303.365 320.702 302.997 322.214 302.748 323.693C302.646 324.001 302.476 324.296 302.263 324.555L301.843 324.968L297.178 329.389L296.82 329.73C296.456 330.166 296.236 330.773 296.295 331.229L296.958 336.489C296.991 336.722 297.086 336.889 297.237 336.981L302.361 339.959C302.21 339.867 302.115 339.703 302.082 339.467L301.42 334.207C301.357 333.744 301.584 333.144 301.948 332.701L302.299 332.363L306.967 327.94L307.387 327.53C307.6 327.274 307.774 326.972 307.875 326.667C308.122 325.188 308.486 323.68 308.965 322.178L308.637 321.942L305.317 319.672L305.176 319.594C304.857 319.361 304.815 318.754 305.126 318.111L308.118 311.864L308.433 311.366L308.932 310.929L309.247 310.801L309.568 310.811L313.941 310.854L314.315 310.86L314.682 310.71V310.706Z" fill="#F57A44"/>
<path fill-rule="evenodd" clip-rule="evenodd" d="M325.151 328.75C329.048 325.9 331.761 320.22 331.239 316.052C330.744 312.215 327.683 310.992 324.18 313.018C323.861 313.202 323.54 313.409 323.218 313.642C319.321 316.498 316.608 322.178 317.133 326.362C317.625 330.179 320.683 331.409 324.193 329.386C324.511 329.202 324.832 328.992 325.154 328.753L325.151 328.75ZM346.949 308.194C347.025 308.788 346.628 309.628 346.067 310.037L341.399 314.478C340.998 314.766 340.657 315.248 340.487 315.73C340.244 317.206 339.877 318.721 339.398 320.227L339.726 320.482L343.049 322.729C343.501 322.88 343.593 323.558 343.236 324.293L340.251 330.54C340.054 330.957 339.749 331.298 339.434 331.475L338.797 331.593L334.424 331.547C334.201 331.485 333.942 331.537 333.683 331.695L333.325 331.957C332.351 333.265 331.285 334.502 330.173 335.623L330.147 336.214L329.93 341.982C330.009 342.595 329.609 343.415 329.051 343.828L324.147 347.423C323.494 347.813 323.058 347.623 322.985 347.055L321.453 342.566C321.388 342.143 321.139 341.91 320.817 341.884C319.636 342.277 318.524 342.494 317.451 342.576L317.067 343.156L313.443 349.059C313.246 349.482 312.937 349.823 312.632 350.003L312.009 350.121L308.066 348.934C307.6 348.797 307.521 348.095 307.859 347.386L310.09 341.061C310.323 340.565 310.382 340.05 310.274 339.69C309.634 338.932 309.096 338.043 308.669 337.001L308.295 337.155L303.267 339.818C302.61 340.208 302.161 340.028 302.089 339.467L301.426 334.207C301.347 333.606 301.748 332.773 302.305 332.364L306.973 327.94C307.377 327.641 307.712 327.159 307.882 326.667C308.128 325.188 308.492 323.68 308.971 322.178L308.643 321.942L305.32 319.672C304.871 319.541 304.776 318.849 305.13 318.111L308.122 311.864C308.318 311.444 308.624 311.107 308.935 310.929L309.575 310.811L313.948 310.854C314.171 310.92 314.427 310.861 314.689 310.71L315.047 310.444C316.018 309.159 317.087 307.912 318.196 306.771L318.225 306.191L318.442 300.419C318.363 299.822 318.767 298.986 319.321 298.569L324.225 294.998L324.37 294.9C324.885 294.605 325.318 294.778 325.39 295.336L326.925 299.832C326.988 300.255 327.237 300.491 327.562 300.514C328.739 300.117 329.855 299.898 330.924 299.835L331.315 299.242L334.936 293.339C335.136 292.919 335.448 292.571 335.76 292.398L336.376 292.273L340.316 293.473C340.782 293.595 340.861 294.296 340.52 295.011L338.292 301.334C338.059 301.839 338 302.341 338.108 302.705C338.745 303.462 339.289 304.354 339.713 305.394L340.093 305.236L345.129 302.59C345.772 302.203 346.221 302.377 346.293 302.931L346.962 308.191L346.949 308.194Z" fill="#FC9774"/>
</g>
<defs>
<clipPath id="clip0_56_9891">
<rect width="537" height="441" fill="white"/>
</clipPath>
</defs>
</svg>
