<svg xmlns="http://www.w3.org/2000/svg" xmlns:xlink="http://www.w3.org/1999/xlink" viewBox="0 0 580 412">
<style type="text/css">
	.st0{fill:#B7EBFF;}
	.st1{fill:#EFF1F5;}
	.st2{fill:url(#SVGID_1_);}
	.st3{fill:url(#SVGID_00000013900503026996480110000004670872303645349526_);}
	.st4{fill:#FFFFFF;filter:url(#Adobe_OpacityMaskFilter);}
	.st5{mask:url(#mask0_56_11881_00000120527559861436484460000008489024126215981698_);}
	.st6{fill:#DEF2F9;}
	.st7{fill:#FFFFFF;}
	.st8{opacity:0.52;}
	.st9{opacity:0.33;fill:#FFFFFF;enable-background:new    ;}
	.st10{fill:#AEE2F4;}
	.st11{fill:#B9E1ED;}
	.st12{fill:#95CFE8;}
	.st13{fill:#A4E1F4;}
	.st14{fill:#8CC4E0;}
	.st15{fill:#7DB3DB;}
	.st16{fill:#61C7AA;}
	.st17{fill:#030D74;}
	.st18{fill:#3C549E;}
	.st19{fill:#E6E6E6;}
	.st20{fill:#01003B;}
	.st21{fill:#A6653A;}
	.st22{fill:#FDB813;}
	.st23{fill:#F4BEBC;}
	.st24{fill:#E09E48;}
	.st25{fill:#004E7C;}
	.st26{fill:#DE4A07;}
	.st27{fill:#F4F4F4;}
	.st28{fill:#FFC8BB;}
	.st29{fill:#EAAFA2;}
	.st30{fill:#61390D;}
	.st31{fill:#299EF3;}
	.st32{fill:#1883D0;}
	.st33{fill:#BD934A;}
	.st34{fill:#935533;}
	@keyframes move1 {
		0% {
			transform: translateX(-120px);
			opacity: 0;
		}
		10% {
			opacity: .0015;
		}
		25% {
			opacity: 1;
		}
		50% {
			opacity: 1;
		}
		75% {
			opacity: .0015;
		}
		100% {
			transform: translateX(320px);
			opacity: 0;
		}
	}
	@keyframes move2 {
		0% {
			transform: translateX(-280px);
			opacity: 0;
		}
		10% {
			opacity: .0015;
		}
		25% {
			opacity: 1;
		}
		50% {
			opacity: 1;
		}
		75% {
			opacity: .0015;
		}
		100% {
			transform: translateX(320px);
			opacity: 0;
		}
	}
	#cloud .st1 {
		animation: move1 7s;
		animation-iteration-count: infinite;
	}
	#cloud .st2 {
		animation: move2 6s;
		animation-iteration-count: infinite;
	}
	@keyframes leafmove {
		0% {
			transform: rotateZ(0deg);
			transform-box: fill-box;
    		transform-origin: bottom center;
		}
		50% {
			transform: rotateZ(-5deg);
			transform-box: fill-box;
    		transform-origin: bottom center;
		}
		100% {
			transform: rotateZ(0deg);
			transform-box: fill-box;
    		transform-origin: bottom center;
		}
	}
	@keyframes leafmove2 {
		0% {
			transform: rotateZ(0deg);
			transform-box: fill-box;
    		transform-origin: bottom center;
		}
		50% {
			transform: rotateZ(6deg);
			transform-box: fill-box;
    		transform-origin: bottom center;
		}
		100% {
			transform: rotateZ(0deg);
			transform-box: fill-box;
    		transform-origin: bottom center;
		}
	}
	#leaf3 {
		animation: leafmove 4s;
		animation-iteration-count: infinite;
	}
	#leaf2 {
		animation: leafmove 3s;
		animation-iteration-count: infinite;
	}
	#leaf1 {
		animation: leafmove2 3s;
		animation-iteration-count: infinite;
	}
</style>
<path class="st0" d="M517.1,365.8c33.6-23.2,51.7-67.1,44.1-107.2c-7.6-40.2-40.3-74.4-80.1-83.8c-37.5-8.8-77.7,3.1-115.1-6.4
	C325.6,158,295.8,125,268,94c-27.8-31-58.9-63.3-99.7-71.2c-47.3-9.2-96.8,19.4-121.2,61c-24.4,41.6-26.6,93.3-16,140.4
	c10.2,45.2,31.4,95.8,38.3,141.7L517.1,365.8L517.1,365.8z"/>
<path class="st1" d="M107.5,56.3c-0.1,0.2-1.7-4.8-4.9-6c0,0,2.9-0.9,5.1,3.3c0,0,3.7-2.3,7,0.1C114.8,53.7,109.3,53.3,107.5,56.3
	L107.5,56.3z"/>
<path class="st0" d="M72.6,157.4c0,0.2-2.9-3-5.8-2.8c0,0,1.8-1.7,5,0.6c0,0,2-3,5.3-2.4C77.1,152.9,72.9,154.5,72.6,157.4
	L72.6,157.4z"/>
<path class="st0" d="M161.5,62.2c0,0.2-3.4-2.1-6-1.2c0,0,1.3-2,4.7-0.6c0,0,1.1-3.2,4.3-3.4C164.5,56.9,161.1,59.5,161.5,62.2
	L161.5,62.2z"/>
<g id="cloud">
	
	<linearGradient id="SVGID_1_" gradientUnits="userSpaceOnUse" x1="288.638" y1="316.5149" x2="132.508" y2="316.5149" gradientTransform="matrix(1 0 0 -1 0 414)">
		<stop  offset="0" style="stop-color:#FFFFFF"/>
		<stop  offset="0.75" style="stop-color:#FFFFFF"/>
	</linearGradient>
	<path class="st2" d="M159.9,108.1c2.7-0.3,5.5-1.5,7.4-2.5c3.4-2.4,7.5-3.8,11.9-3.8c0.8,0,1.5,0,2.3,0.1c1.5-4.4,5.5-7.5,10.1-7.5
		c1.9,0,3.8,0.5,5.3,1.5c2-1.8,4.6-2.8,7.4-2.8c0.5,0,1,0,1.5,0.1c2.5-3.6,6.5-5.9,11-5.9c1.3,0,2.6,0.2,3.8,0.6
		c2.8-1.8,6.1-2.8,9.6-2.8c9.4,0,17.2,7.2,18.8,16.7c0.2,0,0.3,0,0.5,0c2.5,0,4.8,0.9,6.9,2.5v0c0,0,4.2,3.2,8.3,3.7
		c4.1,0.5,22.3,0.6,23.9,1.8H261h-5.2h-6.8H238h-26.4h-6.2h-3.6h-20.4h-11.2h-7.5h-30.2C134.3,108.7,155.2,108.6,159.9,108.1z"/>
	
	<linearGradient id="SVGID_00000000929207128337381640000003479674078927797430_" gradientUnits="userSpaceOnUse" x1="123.714" y1="334.7101" x2="9.094947e-13" y2="334.7101" gradientTransform="matrix(1 0 0 -1 0 414)">
		<stop  offset="0" style="stop-color:#FFFFFF"/>
		<stop  offset="0.75" style="stop-color:#FFFFFF"/>
	</linearGradient>
	<path class="st1" style="fill:url(#SVGID_00000000929207128337381640000003479674078927797430_);" d="M20.9,86.8c2.4-0.2,5-1.3,6.3-1.9
		c2.3-1.4,4.9-2.1,7.8-2.1c0.8,0,1.6,0.1,2.3,0.2c1.2-2.2,3.6-3.7,6.3-3.7c1,0,1.9,0.2,2.8,0.6c1.5-1.6,3.6-2.7,6-2.7
		c0.4,0,0.7,0,1.1,0.1c1.7-2.3,4.5-3.9,7.7-3.9c1,0,1.9,0.1,2.8,0.4c2.5-2,5.6-3.1,8.9-3.1c4.6,0,8.7,2.2,11.4,5.6
		c0.9-0.3,2-0.4,3-0.4c4.5,0,8.3,3,9.6,7c0.9,0.1,1.7,0.2,2.5,0.6c0.5,0.1,0.9,0.4,1.3,0.7c0.2,0.1,0.4,0.2,0.6,0.4v0
		c0,0,3,2.1,5.8,2.4c2.9,0.3,15.6,0.4,16.7,1.2h-19.3h-3.7H88.4h-1.5h-9.4h-0.2h-8.2h-9h-1.3h-0.3h-5.4h-2.5H47h-0.5h-1.7h-5.6h-2.7
		h-7.8h-5.2H0C1.4,87.2,17.3,87.2,20.9,86.8z"/>
</g>
<defs>
	<filter id="Adobe_OpacityMaskFilter" filterUnits="userSpaceOnUse" x="42.9" y="14.6" width="523" height="351.1">
		<feColorMatrix  type="matrix" values="1 0 0 0 0  0 1 0 0 0  0 0 1 0 0  0 0 0 1 0"/>
	</filter>
</defs>
<mask maskUnits="userSpaceOnUse" x="42.9" y="14.6" width="523" height="351.1" id="mask0_56_11881_00000120527559861436484460000008489024126215981698_">
	<path class="st4" d="M517.1,365.8c33.6-23.2,51.7-67.1,44.1-107.2c-7.6-40.2-40.3-74.4-80.1-83.8c-37.5-8.8-77.7,3.1-115.1-6.4
		C325.6,158,295.8,125,268,94c-27.8-31-58.9-63.3-99.7-71.2c-47.3-9.2-96.8,19.4-121.2,61c-24.4,41.6-26.6,93.3-16,140.4
		c10.2,45.2,31.4,95.8,38.3,141.7L517.1,365.8L517.1,365.8z"/>
</mask>
<g class="st5">
	<path class="st6" d="M82,227.4c0-0.4-0.3-0.8-0.6-0.8c-0.4,0-0.6,0.3-0.6,0.8s0.3,0.8,0.6,0.8C81.7,228.1,82,227.8,82,227.4z"/>
	<path class="st6" d="M557.2,318.8v-10.9H552v-5.9h-1.3v-2.7h-30.1v6.7h-4.9V269h2.9V268h-2.9v-1.7h-3.7v-2.8h-29.9v2.8h-3.7v1.7
		h-2.9v0.9h2.9v43.6h-10.6v-41.7h-6.8v-2.4h-8.3v2.4h-3.7v11.7h-19.5v1.7h2.8v19.3h-7.8v-51.1v-4.3v-2.7h1v-0.9h-12.5v0.9h0.9v2.7
		h-16.4v16.6h-5.7v-4.3h-7.1l-1.1-2.8H382v-5h-0.4h-0.4v5H378v2.8v3.2v1.1h-2.7v2.8H373v2.2h1.1V300h-6.9v-18h-12.2v-7.7h1.5v-0.8
		h-2.5v-12.5h-0.5v12.5h-1.9v-2.4h-0.6v2.4h-6v0.8h1.3v7.7H344v23.5h-18.5V278h-18v44.9h-4.9v-84.2h-3.5v1.2l-6.4-1.6v-2.2h-3.5v1.4
		l-6.4-1.6v-2.5h-3.5v1.6l-6.4-1.6v-2.3h-3.5v1.4l-6.4-1.6v-2.2h-3.5v85.7h-4.7v-27.5h-28.8v37.8h-7.1v-9.8h1.3v-1h-1.3v-12h1.3v-1
		h-1.3v-12h1.3v-1h-1.3v-12h1.3v-1h-1.3v-12h1.3v-1h-1.3v-12h1.3v-1h-1.3v-12.4h2.2v-1h1.1v-2.6h-5.2v-2.9h0.7v-0.8h-11.4v0.8h0.7
		v2.9h-20.9v2.6h1.1v1h2.2v12.4h-1.3v1h1.3v12h-1.3v1h1.3v12h-1.3v1h1.3v12h-1.3v1h1.3v12h-1.3v1h1.3v12h-1.3v0.4h-7.1v-42h1.1v-2.2
		h-7.3v-6h-3.5v6h-3.2v-6h-3.2v6h-6.2v-6h-19v6h-4.4v2.2h2.5v30.3l-15.6,6.9v-31.2h-14.1v-31.8h1v-2.4h-2.1v-3.1H90.7v-4.7h-6.4
		l-1-3h-1.6v-5.4h-0.4H81v5.4h-2.9v3v3.5v1.2h-2.4v3.1h-2.1v2.4h1v48.9H63.9v19.9h-8.2v31.8h8.2h5h5.6h4.7h26.1h3.4h5.3h8.7h15.6
		h0.2h22h20.9h8.4h5.4h11.5h12.6h7.1h1.6h3.4h23.8h4.7h1.7h1.7h0.9h5.5h3.5h6.4h0.6h2.9h6.4h3.5h6.4h1.7h1.7h17.5h5H344h4.2H360h7
		h6.9h23.5h7.6h6.4h0h13h7.8h2.2h14.6h3.7h8.3h6.8h10.6H490h10.3h2.9h1.5h3.9h6.9h4.9h1.9h2.6h11.7h0.8h2.2h7.7h3.4h1.3h5.2h8.7
		v-28.5H557.2z"/>
	<path class="st6" d="M382.3,252c0-0.4-0.3-0.7-0.7-0.7c-0.4,0-0.7,0.3-0.7,0.7c0,0.4,0.3,0.7,0.7,0.7
		C382,252.6,382.3,252.3,382.3,252z"/>
	<path class="st7" d="M395.1,274H394v4.3h1.1V274z"/>
	<path class="st7" d="M399.1,274H398v4.3h1.1V274z"/>
	<path class="st7" d="M403.7,274h-1.1v4.3h1.1V274z"/>
	<path class="st7" d="M407.7,274h-1.1v4.3h1.1V274z"/>
	<path class="st7" d="M386.4,274h-1.1v4.3h1.1V274z"/>
	<path class="st7" d="M390.3,274h-1.1v4.3h1.1V274z"/>
	<path class="st7" d="M395.1,281.5H394v4.3h1.1V281.5z"/>
	<path class="st7" d="M399.1,281.5H398v4.3h1.1V281.5z"/>
	<path class="st7" d="M403.7,281.5h-1.1v4.3h1.1V281.5z"/>
	<path class="st7" d="M407.7,281.5h-1.1v4.3h1.1V281.5z"/>
	<path class="st7" d="M386.4,281.5h-1.1v4.3h1.1V281.5z"/>
	<path class="st7" d="M390.3,281.5h-1.1v4.3h1.1V281.5z"/>
	<path class="st7" d="M395.1,288.9H394v4.3h1.1V288.9z"/>
	<path class="st7" d="M399.1,288.9H398v4.3h1.1V288.9z"/>
	<path class="st7" d="M403.7,288.9h-1.1v4.3h1.1V288.9z"/>
	<path class="st7" d="M407.7,288.9h-1.1v4.3h1.1V288.9z"/>
	<path class="st7" d="M386.4,288.9h-1.1v4.3h1.1V288.9z"/>
	<path class="st7" d="M390.3,288.9h-1.1v4.3h1.1V288.9z"/>
	<g class="st8">
		<path class="st7" d="M464.5,275.3h1.4v-1.4h-1.4V275.3z"/>
		<path class="st7" d="M461.6,275.3h1.4v-1.4h-1.4V275.3z"/>
		<path class="st7" d="M464.5,278.7h1.4v-1.4h-1.4V278.7z"/>
		<path class="st7" d="M461.6,278.7h1.4v-1.4h-1.4V278.7z"/>
		<path class="st7" d="M464.5,281.9h1.4v-1.4h-1.4V281.9z"/>
		<path class="st7" d="M458.4,275.3h1.4v-1.4h-1.4V275.3z"/>
	</g>
	<path class="st9" d="M294.9,250.3h2.3v-5.8h-2.3V250.3z"/>
	<path class="st9" d="M294.9,261.5h2.3v-5.8h-2.3V261.5z"/>
	<path class="st9" d="M294.9,272.6h2.3v-5.8h-2.3V272.6z"/>
	<path class="st9" d="M294.9,283.7h2.3v-5.8h-2.3V283.7z"/>
	<path class="st9" d="M294.9,294.2h2.3v-5.8h-2.3V294.2z"/>
	<path class="st9" d="M294.9,305.3h2.3v-5.8h-2.3V305.3z"/>
	<path class="st9" d="M285,250.3h2.3v-5.8H285V250.3z"/>
	<path class="st9" d="M285,261.5h2.3v-5.8H285V261.5z"/>
	<path class="st9" d="M285,272.6h2.3v-5.8H285V272.6z"/>
	<path class="st9" d="M285,283.7h2.3v-5.8H285V283.7z"/>
	<path class="st9" d="M285,294.2h2.3v-5.8H285V294.2z"/>
	<path class="st9" d="M285,305.3h2.3v-5.8H285V305.3z"/>
	<path class="st9" d="M275.2,250.3h2.3v-5.8h-2.3V250.3z"/>
	<path class="st9" d="M275.2,261.5h2.3v-5.8h-2.3V261.5z"/>
	<path class="st9" d="M275.2,272.6h2.3v-5.8h-2.3V272.6z"/>
	<path class="st9" d="M275.2,283.7h2.3v-5.8h-2.3V283.7z"/>
	<path class="st9" d="M275.2,294.2h2.3v-5.8h-2.3V294.2z"/>
	<path class="st9" d="M275.2,305.3h2.3v-5.8h-2.3V305.3z"/>
	<path class="st9" d="M265.4,250.3h2.3v-5.8h-2.3V250.3z"/>
	<path class="st9" d="M265.4,261.5h2.3v-5.8h-2.3V261.5z"/>
	<path class="st9" d="M265.4,272.6h2.3v-5.8h-2.3V272.6z"/>
	<path class="st9" d="M265.4,283.7h2.3v-5.8h-2.3V283.7z"/>
	<path class="st9" d="M265.4,294.2h2.3v-5.8h-2.3V294.2z"/>
	<path class="st9" d="M265.4,305.3h2.3v-5.8h-2.3V305.3z"/>
	<path class="st9" d="M103.9,256.3h1.4v-4.1h-1.4V256.3z"/>
	<path class="st9" d="M99.4,256.3h1.4v-4.1h-1.4V256.3z"/>
	<path class="st9" d="M103.9,256.3h1.4v-4.1h-1.4V256.3z"/>
	<path class="st9" d="M99.4,256.3h1.4v-4.1h-1.4V256.3z"/>
	<path class="st9" d="M95.2,256.3h1.4v-4.1h-1.4V256.3z"/>
	<path class="st9" d="M90.7,256.3h1.4v-4.1h-1.4V256.3z"/>
	<path class="st9" d="M103.9,263.6h1.4v-4.1h-1.4V263.6z"/>
	<path class="st9" d="M99.4,263.6h1.4v-4.1h-1.4V263.6z"/>
	<path class="st9" d="M103.9,263.6h1.4v-4.1h-1.4V263.6z"/>
	<path class="st9" d="M99.4,263.6h1.4v-4.1h-1.4V263.6z"/>
	<path class="st9" d="M95.2,263.6h1.4v-4.1h-1.4V263.6z"/>
	<path class="st9" d="M90.7,263.6h1.4v-4.1h-1.4V263.6z"/>
	<path class="st9" d="M103.9,271.4h1.4v-4.1h-1.4V271.4z"/>
	<path class="st9" d="M99.4,271.4h1.4v-4.1h-1.4V271.4z"/>
	<path class="st9" d="M103.9,271.4h1.4v-4.1h-1.4V271.4z"/>
	<path class="st9" d="M99.4,271.4h1.4v-4.1h-1.4V271.4z"/>
	<path class="st9" d="M95.2,271.4h1.4v-4.1h-1.4V271.4z"/>
	<path class="st9" d="M90.7,271.4h1.4v-4.1h-1.4V271.4z"/>
	<path class="st9" d="M85.8,256.3h1.4v-4.1h-1.4V256.3z"/>
	<path class="st9" d="M85.8,263.6h1.4v-4.1h-1.4V263.6z"/>
	<path class="st9" d="M81.3,256.3h1.4v-4.1h-1.4V256.3z"/>
	<path class="st9" d="M215.1,246.5h1.5v-6.3h-1.5V246.5z"/>
	<path class="st9" d="M207.5,246.5h1.5v-6.3h-1.5V246.5z"/>
	<path class="st9" d="M199.9,246.5h1.5v-6.3h-1.5V246.5z"/>
	<path class="st9" d="M192.3,246.5h1.5v-6.3h-1.5V246.5z"/>
	<path class="st9" d="M215.1,259.6h1.5v-6.3h-1.5V259.6z"/>
	<path class="st9" d="M207.5,259.6h1.5v-6.3h-1.5V259.6z"/>
	<path class="st9" d="M199.9,259.6h1.5v-6.3h-1.5V259.6z"/>
	<path class="st9" d="M192.3,259.6h1.5v-6.3h-1.5V259.6z"/>
	<path class="st9" d="M215.1,272.9h1.5v-6.3h-1.5V272.9z"/>
	<path class="st9" d="M207.5,272.9h1.5v-6.3h-1.5V272.9z"/>
	<path class="st9" d="M199.9,272.9h1.5v-6.3h-1.5V272.9z"/>
	<path class="st9" d="M192.3,272.9h1.5v-6.3h-1.5V272.9z"/>
	<path class="st9" d="M215.1,286.3h1.5V280h-1.5V286.3z"/>
	<path class="st9" d="M207.5,286.3h1.5V280h-1.5V286.3z"/>
	<path class="st9" d="M199.9,286.3h1.5V280h-1.5V286.3z"/>
	<path class="st9" d="M192.3,286.3h1.5V280h-1.5V286.3z"/>
	<path class="st9" d="M215.1,298.5h1.5v-6.3h-1.5V298.5z"/>
	<path class="st9" d="M207.5,298.5h1.5v-6.3h-1.5V298.5z"/>
	<path class="st9" d="M199.9,298.5h1.5v-6.3h-1.5V298.5z"/>
	<path class="st9" d="M215.1,312h1.5v-6.3h-1.5V312z"/>
	<path class="st9" d="M207.5,312h1.5v-6.3h-1.5V312z"/>
	<path class="st9" d="M199.9,312h1.5v-6.3h-1.5V312z"/>
	<path class="st9" d="M192.3,298.5h1.5v-6.3h-1.5V298.5z"/>
	<path class="st10" d="M524.9,300.1v0.6h1.4v23.7l-2.4-16.2h-6.8v-18.4h0.8v-1.7h-3.3v-7.2h-0.4v7.2H512v-5.9h-0.4v5.9h-13.7v1.7
		h0.9v37.3h-8.6v-8.6h-7.1v-8.1h-8.9v-41.1h0.8v-2h-1.8v-2.6h-2.1v-1v-3v-2.6h-2.5v-4.6h-0.3h-0.3v4.6h-1.3l-0.8,2.6h-5.4v3.9h-14.1
		v2.6h-1.8v2h0.8V296h-11.8v13.2h-13.1V291h2.1v-1.9h-3.7V284h-15.9v5.1h-5.2V284h-2.7v5.1h-0.9v-25.4h3.3v-1.1h-3.3v-1.9h-4.2v-3.2
		h-27.6v-1.8h0.6V255h-9.6v0.7h0.6v2.5h-4.4v2.2h0.9v0.8h0.9v1.5h-3.3v1.1h3.3v7.9h-0.1v0.8h0.1v10.1h-0.1v0.8h0.1v3.8H338v11.7
		h-12.4v-36.9h1.3v-2.6h-2.8v-3.4h-3.2v-1.3v-3.8v-3.3H317v-6h-0.5h-0.5v6H314l-1.3,3.3h-8.4v5.1h-21.9v3.4h-2.8v2.6h1.3v71.5h-2.5
		v-37.7h-15.1v23.2h-15.5v-19.8h-1.9v-6.5h1.1v-0.7h-5v-2h-0.5v2h-1.6v-10.5h-0.4v10.5h-2.1v0.7h1.2v6.5h-10.2v4.8h-25.6v-33.2H189
		v-2.2h0.8v-0.8h-10.5v0.8h0.8v2.2v3.6v43h-6.5v-16.2h2.3v-1.5h-16.4v-9.8h-3.1v-2h-7v2h-5.7v35h-8.9V288h2.4v-0.8h-2.4v-1.4h-3.1
		v-2.3h-25.1v2.3h-3.1v1.4h-2.4v0.8h2.4v31.2h-4.1v-5.6H95v-13.6H78.2v13.6h-4v2.3H73v4.9h-4.4v9.1h-7.3v23.9h7.3H73h1.1H77h6.5h1.8
		H86h9.8H98h1.6h4.1h5.8h3.3h1.3h2.5h8.7h9.8h8.9h5.7h7h3.1h12.2h1.8h6.5h10.9h5.4h1.2h5.2h25.6h5.9h10h3.5h15.8h4.2h14.7h1.5h1.5
		h5.4h2.9h5.4h2.4h0.5h1.8h3.6h2.9h1.1h3.5h0.8h1.5h1.5h3.9h4.1h15.8h1.5h1.4h0.8h0.6h5.1h0.9h10.6h0.9h8.8h4.6h7.1h10h7.5h18.5h0.2
		h13.1h7.3h4.5h2.8h21.9h3.9h4.7h4.2h15.6h11.6h2.4h4.3h5.5h3.7h13.1h3.8h11.7v-53.1h1.4v-0.6H524.9z"/>
	<path class="st11" d="M468.5,253.6c0.3,0,0.5-0.3,0.5-0.6c0-0.4-0.2-0.6-0.5-0.6c-0.3,0-0.5,0.3-0.5,0.6
		C468,253.4,468.2,253.6,468.5,253.6z"/>
	<path class="st11" d="M317.4,240.5c0-0.5-0.4-0.8-0.8-0.8c-0.5,0-0.8,0.4-0.8,0.8s0.4,0.8,0.8,0.8
		C317,241.3,317.4,240.9,317.4,240.5z"/>
	<g class="st8">
		<path class="st7" d="M146.6,292.1h-1.2v1.2h1.2V292.1z"/>
		<path class="st7" d="M149,292.1h-1.2v1.2h1.2V292.1z"/>
		<path class="st7" d="M146.6,294.9h-1.2v1.2h1.2V294.9z"/>
		<path class="st7" d="M149,294.9h-1.2v1.2h1.2V294.9z"/>
		<path class="st7" d="M146.6,297.6h-1.2v1.2h1.2V297.6z"/>
		<path class="st7" d="M151.6,292.1h-1.2v1.2h1.2V292.1z"/>
	</g>
	<path class="st9" d="M289.1,267.4h-1.9v4.9h1.9V267.4z"/>
	<path class="st9" d="M289.1,276.8h-1.9v4.9h1.9V276.8z"/>
	<path class="st9" d="M289.1,286.1h-1.9v4.9h1.9V286.1z"/>
	<path class="st9" d="M289.1,295.5h-1.9v4.9h1.9V295.5z"/>
	<path class="st9" d="M289.1,304.3h-1.9v4.9h1.9V304.3z"/>
	<path class="st9" d="M289.1,313.6h-1.9v4.9h1.9V313.6z"/>
	<path class="st9" d="M297.4,267.4h-1.9v4.9h1.9V267.4z"/>
	<path class="st9" d="M297.4,276.8h-1.9v4.9h1.9V276.8z"/>
	<path class="st9" d="M297.4,286.1h-1.9v4.9h1.9V286.1z"/>
	<path class="st9" d="M297.4,295.5h-1.9v4.9h1.9V295.5z"/>
	<path class="st9" d="M297.4,304.3h-1.9v4.9h1.9V304.3z"/>
	<path class="st9" d="M297.4,313.6h-1.9v4.9h1.9V313.6z"/>
	<path class="st9" d="M305.6,267.4h-1.9v4.9h1.9V267.4z"/>
	<path class="st9" d="M305.6,276.8h-1.9v4.9h1.9V276.8z"/>
	<path class="st9" d="M305.6,286.1h-1.9v4.9h1.9V286.1z"/>
	<path class="st9" d="M305.6,295.5h-1.9v4.9h1.9V295.5z"/>
	<path class="st9" d="M305.6,304.3h-1.9v4.9h1.9V304.3z"/>
	<path class="st9" d="M305.6,313.6h-1.9v4.9h1.9V313.6z"/>
	<path class="st9" d="M313.9,267.4h-1.9v4.9h1.9V267.4z"/>
	<path class="st9" d="M313.9,276.8h-1.9v4.9h1.9V276.8z"/>
	<path class="st9" d="M313.9,286.1h-1.9v4.9h1.9V286.1z"/>
	<path class="st9" d="M313.9,295.5h-1.9v4.9h1.9V295.5z"/>
	<path class="st9" d="M313.9,304.3h-1.9v4.9h1.9V304.3z"/>
	<path class="st9" d="M313.9,313.6h-1.9v4.9h1.9V313.6z"/>
	<path class="st9" d="M449.6,273.9h-1.2v3.4h1.2V273.9z"/>
	<path class="st9" d="M453.4,273.9h-1.2v3.4h1.2V273.9z"/>
	<path class="st9" d="M449.6,273.9h-1.2v3.4h1.2V273.9z"/>
	<path class="st9" d="M453.4,273.9h-1.2v3.4h1.2V273.9z"/>
	<path class="st9" d="M456.9,273.9h-1.2v3.4h1.2V273.9z"/>
	<path class="st9" d="M460.7,273.9h-1.2v3.4h1.2V273.9z"/>
	<path class="st9" d="M449.6,280h-1.2v3.4h1.2V280z"/>
	<path class="st9" d="M453.4,280h-1.2v3.4h1.2V280z"/>
	<path class="st9" d="M449.6,280h-1.2v3.4h1.2V280z"/>
	<path class="st9" d="M453.4,280h-1.2v3.4h1.2V280z"/>
	<path class="st9" d="M456.9,280h-1.2v3.4h1.2V280z"/>
	<path class="st9" d="M460.7,280h-1.2v3.4h1.2V280z"/>
	<path class="st9" d="M449.6,286.6h-1.2v3.4h1.2V286.6z"/>
	<path class="st9" d="M453.4,286.6h-1.2v3.4h1.2V286.6z"/>
	<path class="st9" d="M449.6,286.6h-1.2v3.4h1.2V286.6z"/>
	<path class="st9" d="M453.4,286.6h-1.2v3.4h1.2V286.6z"/>
	<path class="st9" d="M456.9,286.6h-1.2v3.4h1.2V286.6z"/>
	<path class="st9" d="M460.7,286.6h-1.2v3.4h1.2V286.6z"/>
	<path class="st9" d="M464.8,273.9h-1.2v3.4h1.2V273.9z"/>
	<path class="st9" d="M464.8,280h-1.2v3.4h1.2V280z"/>
	<path class="st9" d="M468.5,273.9h-1.2v3.4h1.2V273.9z"/>
	<path class="st9" d="M356.1,263.8h-1.3v5.3h1.3V263.8z"/>
	<path class="st9" d="M362.5,263.8h-1.3v5.3h1.3V263.8z"/>
	<path class="st9" d="M368.9,263.8h-1.3v5.3h1.3V263.8z"/>
	<path class="st9" d="M375.3,263.8H374v5.3h1.3V263.8z"/>
	<path class="st9" d="M356.1,274.7h-1.3v5.3h1.3V274.7z"/>
	<path class="st9" d="M362.5,274.7h-1.3v5.3h1.3V274.7z"/>
	<path class="st9" d="M368.9,274.7h-1.3v5.3h1.3V274.7z"/>
	<path class="st9" d="M375.3,274.7H374v5.3h1.3V274.7z"/>
	<path class="st9" d="M356.1,286h-1.3v5.3h1.3V286z"/>
	<path class="st9" d="M362.5,286h-1.3v5.3h1.3V286z"/>
	<path class="st9" d="M368.9,286h-1.3v5.3h1.3V286z"/>
	<path class="st9" d="M375.3,286H374v5.3h1.3V286z"/>
	<path class="st9" d="M356.1,297.2h-1.3v5.3h1.3V297.2z"/>
	<path class="st9" d="M362.5,297.2h-1.3v5.3h1.3V297.2z"/>
	<path class="st9" d="M368.9,297.2h-1.3v5.3h1.3V297.2z"/>
	<path class="st9" d="M375.3,297.2H374v5.3h1.3V297.2z"/>
	<path class="st9" d="M356.1,307.4h-1.3v5.3h1.3V307.4z"/>
	<path class="st9" d="M362.5,307.4h-1.3v5.3h1.3V307.4z"/>
	<path class="st9" d="M368.9,307.4h-1.3v5.3h1.3V307.4z"/>
	<path class="st9" d="M356.1,318.8h-1.3v5.3h1.3V318.8z"/>
	<path class="st9" d="M362.5,318.8h-1.3v5.3h1.3V318.8z"/>
	<path class="st9" d="M368.9,318.8h-1.3v5.3h1.3V318.8z"/>
	<path class="st9" d="M375.3,307.4H374v5.3h1.3V307.4z"/>
	<path class="st9" d="M501.8,291.9h-1.3v3.1h1.3V291.9z"/>
	<path class="st9" d="M501.8,296.9h-1.3v3.1h1.3V296.9z"/>
	<path class="st9" d="M505.1,291.9h-1.3v3.1h1.3V291.9z"/>
	<path class="st12" d="M98.5,312v0.6h-1.4v23.7l2.4-16.2h6.8v-18.4h-0.8V300h3.3v-7.2h0.4v7.2h2.3v-5.9h0.4v5.9h13.7v1.7h-0.9V339
		h8.6v-8.6h7.1v-8.1h8.9v-41.1h-0.8v-2h1.8v-2.6h2v-1v-2.9v-2.6h2.5v-4.6h0.3h0.3v4.6h1.3l0.8,2.6h5.4v3.9h14.1v2.6h1.8v2h-0.8v26.7
		h11.8v13.2h13.1v-18.2h-2.1V301h3.7v-5.1h15.9v5.1h5.2v-5.1h2.7v5.1h0.9v-25.4h-3.3v-1.1h3.3v-1.9h4.2v-3.2h27.6v-1.8h-0.6v-0.7
		h9.6v0.7h-0.6v2.5h4.4v2.2h-0.9v0.8h-0.9v1.5h3.3v1.1h-3.3v7.9h0.1v0.8h-0.1v10.1h0.1v0.8h-0.1v3.8h13.6v11.7h12.4v-36.9h-1.3V271
		h2.8v-3.4h3.2v-1.3v-3.8v-3.3h3.8v-6h0.5h0.5v6h2.1l1.3,3.3h8.4v5.1h21.9v3.4h2.8v2.6h-1.3v71.5h2.5v-37.7h15.1v23.2h15.5v-19.8
		h1.9v-6.5h-1.1v-0.7h5v-2h0.5v2h1.6v-10.5h0.4v10.5h2.1v0.7h-1.2v6.5H395v4.8h25.6v-33.2h13.8v-2.2h-0.8v-0.8h10.5v0.8h-0.8v2.2
		v3.6v43h6.5v-16.2h-2.3v-1.5h16.4v-9.8h3.1v-2h7v2h5.7v35h8.9v-36.6h-2.4v-0.8h2.4v-1.4h3.1v-2.3h25.1v2.3h3.1v1.4h2.4v0.8h-2.4
		V331h4.1v-5.6h4.5v-13.6h16.8v13.6h4v2.3h1.1v4.9h4.4v9.1h7.3v23.9h-7.3h-4.4h-1.1h-2.8h-6.5h-1.8h-0.7h-9.8h-2.2h-1.6h-4.1H514
		h-3.3h-1.3H507h-8.7h-9.8h-8.9H474h-7h-3.1h-12.2h-1.8h-6.5h-10.9H427h-1.2h-5.2H395h-5.9h-10h-3.5h-15.8h-4.2h-14.7h-1.5h-1.5
		h-5.4h-2.9h-5.4h-2.4h-0.5h-1.8h-3.6h-2.9h-1.1h-3.5h-0.8h-1.5h-1.5H301h-4.1H281h-1.5h-1.4h-0.8h-0.6h-5.1h-0.9h-10.6h-0.9h-8.8
		H246H239h-10h-7.5h-18.5h-0.2h-13.1h-7.3h-4.5H175h-21.9h-3.9h-4.7h-4.2h-15.6h-11.6h-2.4h-4.3h-5.6h-3.7H84h-3.7H68.5v-53.1h-1.4
		V312H98.5z"/>
	<path class="st13" d="M154.9,265.5c0.3,0,0.5-0.3,0.5-0.6c0-0.4-0.2-0.6-0.5-0.6c-0.3,0-0.5,0.3-0.5,0.6
		C154.4,265.3,154.6,265.5,154.9,265.5z"/>
	<path class="st13" d="M306,252.4c0-0.5,0.4-0.8,0.8-0.8c0.5,0,0.8,0.4,0.8,0.8s-0.4,0.8-0.8,0.8C306.4,253.2,306,252.9,306,252.4z"
		/>
	<g class="st8">
		<path class="st7" d="M476.8,305.2h1.2V304h-1.2V305.2z"/>
		<path class="st7" d="M474.4,305.2h1.2V304h-1.2V305.2z"/>
		<path class="st7" d="M476.8,308h1.2v-1.2h-1.2V308z"/>
		<path class="st7" d="M474.4,308h1.2v-1.2h-1.2V308z"/>
		<path class="st7" d="M476.8,310.8h1.2v-1.2h-1.2V310.8z"/>
		<path class="st7" d="M471.8,305.2h1.2V304h-1.2V305.2z"/>
	</g>
	<path class="st9" d="M334.3,284.2h1.9v-4.9h-1.9V284.2z"/>
	<path class="st9" d="M334.3,293.6h1.9v-4.9h-1.9V293.6z"/>
	<path class="st9" d="M334.3,302.9h1.9V298h-1.9V302.9z"/>
	<path class="st9" d="M334.3,312.2h1.9v-4.9h-1.9V312.2z"/>
	<path class="st9" d="M334.3,321.1h1.9v-4.9h-1.9V321.1z"/>
	<path class="st9" d="M334.3,330.4h1.9v-4.9h-1.9V330.4z"/>
	<path class="st9" d="M326,284.2h1.9v-4.9H326V284.2z"/>
	<path class="st9" d="M326,293.6h1.9v-4.9H326V293.6z"/>
	<path class="st9" d="M326,302.9h1.9V298H326V302.9z"/>
	<path class="st9" d="M326,312.2h1.9v-4.9H326V312.2z"/>
	<path class="st9" d="M326,321.1h1.9v-4.9H326V321.1z"/>
	<path class="st9" d="M326,330.4h1.9v-4.9H326V330.4z"/>
	<path class="st9" d="M317.8,284.2h1.9v-4.9h-1.9V284.2z"/>
	<path class="st9" d="M317.8,293.6h1.9v-4.9h-1.9V293.6z"/>
	<path class="st9" d="M317.8,302.9h1.9V298h-1.9V302.9z"/>
	<path class="st9" d="M317.8,312.2h1.9v-4.9h-1.9V312.2z"/>
	<path class="st9" d="M317.8,321.1h1.9v-4.9h-1.9V321.1z"/>
	<path class="st9" d="M317.8,330.4h1.9v-4.9h-1.9V330.4z"/>
	<path class="st9" d="M309.5,284.2h1.9v-4.9h-1.9V284.2z"/>
	<path class="st9" d="M309.5,293.6h1.9v-4.9h-1.9V293.6z"/>
	<path class="st9" d="M309.5,302.9h1.9V298h-1.9V302.9z"/>
	<path class="st9" d="M309.5,312.2h1.9v-4.9h-1.9V312.2z"/>
	<path class="st9" d="M309.5,321.1h1.9v-4.9h-1.9V321.1z"/>
	<path class="st9" d="M309.5,330.4h1.9v-4.9h-1.9V330.4z"/>
	<path class="st9" d="M173.8,289.2h1.2v-3.4h-1.2V289.2z"/>
	<path class="st9" d="M170,289.2h1.2v-3.4H170V289.2z"/>
	<path class="st9" d="M173.8,289.2h1.2v-3.4h-1.2V289.2z"/>
	<path class="st9" d="M170,289.2h1.2v-3.4H170V289.2z"/>
	<path class="st9" d="M166.5,289.2h1.2v-3.4h-1.2V289.2z"/>
	<path class="st9" d="M162.7,289.2h1.2v-3.4h-1.2V289.2z"/>
	<path class="st9" d="M173.8,295.4h1.2v-3.4h-1.2V295.4z"/>
	<path class="st9" d="M170,295.4h1.2v-3.4H170V295.4z"/>
	<path class="st9" d="M173.8,295.4h1.2v-3.4h-1.2V295.4z"/>
	<path class="st9" d="M170,295.4h1.2v-3.4H170V295.4z"/>
	<path class="st9" d="M166.5,295.4h1.2v-3.4h-1.2V295.4z"/>
	<path class="st9" d="M162.7,295.4h1.2v-3.4h-1.2V295.4z"/>
	<path class="st9" d="M173.8,301.9h1.2v-3.4h-1.2V301.9z"/>
	<path class="st9" d="M170,301.9h1.2v-3.4H170V301.9z"/>
	<path class="st9" d="M173.8,301.9h1.2v-3.4h-1.2V301.9z"/>
	<path class="st9" d="M170,301.9h1.2v-3.4H170V301.9z"/>
	<path class="st9" d="M166.5,301.9h1.2v-3.4h-1.2V301.9z"/>
	<path class="st9" d="M162.7,301.9h1.2v-3.4h-1.2V301.9z"/>
	<path class="st9" d="M158.6,289.2h1.2v-3.4h-1.2V289.2z"/>
	<path class="st9" d="M158.6,295.4h1.2v-3.4h-1.2V295.4z"/>
	<path class="st9" d="M154.9,289.2h1.2v-3.4h-1.2V289.2z"/>
	<path class="st9" d="M267.3,281h1.3v-5.3h-1.3V281z"/>
	<path class="st9" d="M260.9,281h1.3v-5.3h-1.3V281z"/>
	<path class="st9" d="M254.5,281h1.3v-5.3h-1.3V281z"/>
	<path class="st9" d="M248.1,281h1.3v-5.3h-1.3V281z"/>
	<path class="st9" d="M267.3,292h1.3v-5.3h-1.3V292z"/>
	<path class="st9" d="M260.9,292h1.3v-5.3h-1.3V292z"/>
	<path class="st9" d="M254.5,292h1.3v-5.3h-1.3V292z"/>
	<path class="st9" d="M248.1,292h1.3v-5.3h-1.3V292z"/>
	<path class="st9" d="M267.3,303.2h1.3v-5.3h-1.3V303.2z"/>
	<path class="st9" d="M260.9,303.2h1.3v-5.3h-1.3V303.2z"/>
	<path class="st9" d="M254.5,303.2h1.3v-5.3h-1.3V303.2z"/>
	<path class="st9" d="M248.1,303.2h1.3v-5.3h-1.3V303.2z"/>
	<path class="st9" d="M267.3,314.5h1.3v-5.3h-1.3V314.5z"/>
	<path class="st9" d="M260.9,314.5h1.3v-5.3h-1.3V314.5z"/>
	<path class="st9" d="M254.5,314.5h1.3v-5.3h-1.3V314.5z"/>
	<path class="st9" d="M248.1,314.5h1.3v-5.3h-1.3V314.5z"/>
	<path class="st9" d="M267.3,324.7h1.3v-5.3h-1.3V324.7z"/>
	<path class="st9" d="M260.9,324.7h1.3v-5.3h-1.3V324.7z"/>
	<path class="st9" d="M254.5,324.7h1.3v-5.3h-1.3V324.7z"/>
	<path class="st9" d="M267.3,336h1.3v-5.3h-1.3V336z"/>
	<path class="st9" d="M260.9,336h1.3v-5.3h-1.3V336z"/>
	<path class="st9" d="M254.5,336h1.3v-5.3h-1.3V336z"/>
	<path class="st9" d="M248.1,324.7h1.3v-5.3h-1.3V324.7z"/>
	<path class="st9" d="M121.6,306.9h1.3v-3.1h-1.3V306.9z"/>
	<path class="st9" d="M121.6,311.8h1.3v-3.1h-1.3V311.8z"/>
	<path class="st9" d="M118.3,306.9h1.3v-3.1h-1.3V306.9z"/>
	<path class="st14" d="M118.9,14.6h-12.4v351.1h12.4V14.6z"/>
	<path class="st14" d="M413.8,14.6h-12.4v351.1h12.4V14.6z"/>
	<path class="st12" d="M426.3,256.1c-0.3,0.5,9.1,4,16.2,18.3c6.9,13.5,11.6,37.8-4.7,59.3c-0.1,0.1-1-10.1-2.8-24.1
		C433.2,295.4,430.6,277.3,426.3,256.1z"/>
	<path class="st15" d="M438.7,281.7c-0.2,0-0.3-0.1-0.5-0.1c0.3-3.5,0.5-7.1,0.5-10.7c0.2,0,0.3,0.1,0.5,0.1
		C439.2,274.6,439,278.2,438.7,281.7L438.7,281.7z"/>
	<path class="st15" d="M440.5,291.7c-2.3-2.6-4.7-5-7.1-7.3c0.1-0.1,0.2-0.3,0.3-0.4c2.4,2.3,4.8,4.7,7.1,7.3
		C440.7,291.4,440.6,291.6,440.5,291.7L440.5,291.7z"/>
	<path class="st15" d="M442,303.9c-0.1-0.1-0.3-0.2-0.4-0.3c1.4-2.8,2.7-5.7,3.9-8.8c0.1,0.1,0.3,0.2,0.4,0.3
		C444.7,298.1,443.4,301,442,303.9z"/>
	<path class="st15" d="M441.2,315.1c-1.2-3.8-2.6-7.5-4-11.1c0.1-0.1,0.3-0.2,0.4-0.2c1.5,3.6,2.8,7.3,4,11.1
		C441.5,315,441.4,315.1,441.2,315.1L441.2,315.1z"/>
	<path class="st15" d="M437.8,332.7c0,0,0,0.1,0,0.1c0.1,0.1,0.3,0.1,0.4,0.2c5.8-19.2,4.2-37.1,0.8-50.2
		c-3.5-13.2-8.7-21.6-11.8-26.2c-0.6-0.4-0.9-0.6-0.9-0.6c0,0,0,0.1,0,0.1c2.9,4.2,8.2,12.2,11.9,25.5
		C441.8,294.8,443.7,313,437.8,332.7L437.8,332.7z"/>
	<path class="st15" d="M409.3,281.7c0.4,0.1-3.4,7.6-0.7,20c2.4,11.7,11.4,28.3,31.3,30.9c0.1,0-4.2-6.3-10-15.4
		C424.2,308.2,417,296.3,409.3,281.7L409.3,281.7z"/>
	<path class="st15" d="M414.4,303.6c0.1-0.1,0.1-0.2,0.2-0.4c-1.9-1.8-3.7-3.7-5.5-5.8c-0.1,0.1-0.2,0.2-0.2,0.3
		C410.7,299.9,412.5,301.8,414.4,303.6L414.4,303.6z"/>
	<path class="st15" d="M418.2,310.3c0.1-2.8,0.3-5.6,0.7-8.3c-0.1,0-0.3-0.1-0.4-0.1c-0.3,2.7-0.5,5.5-0.7,8.3
		C417.9,310.3,418,310.3,418.2,310.3L418.2,310.3z"/>
	<path class="st15" d="M423.1,318.1c0-0.1,0.1-0.3,0.1-0.4c-2.2-0.8-4.4-1.7-6.5-2.7c0,0.1-0.1,0.3-0.1,0.4
		C418.8,316.5,421,317.4,423.1,318.1z"/>
	<path class="st15" d="M429,324.1c-1.1-2.9-2.1-5.8-3-8.7c-0.1,0-0.2,0.1-0.4,0.1c0.9,2.9,1.9,5.8,3,8.7
		C428.8,324.2,428.9,324.2,429,324.1L429,324.1z"/>
	<path class="st12" d="M439.5,332.1C439.6,332.1,439.6,332.1,439.5,332.1c0,0.2,0,0.3-0.1,0.5c-12.7-7.5-20.4-18.7-24.7-28.1
		c-4.4-9.6-5.3-17.4-5.7-21.8c0.2-0.6,0.3-0.9,0.3-0.9c0,0,0,0,0,0.1c0.3,4.1,1.1,11.8,5.3,21.5
		C418.9,312.9,426.5,324.4,439.5,332.1L439.5,332.1z"/>
	<path class="st16" d="M476.2,295.1c-0.6-0.5-1.1-0.9-1.7-1.4c0.7-0.2,1.3-0.4,2-0.6c0.7-5.6,0.9-10.5-1-15.8
		c-0.1,0.1-10,5-15.4,15.6c-5.3,11-12.3,26.7-21.3,39.9c-0.2,0.3-0.4,0.6-0.6,0.9c-0.1-0.2,7.8-1.1,16.8-7.3
		C463.8,320.5,473.9,309.3,476.2,295.1L476.2,295.1z"/>
	<path class="st0" d="M466.1,304.5c0.2,0,0.3,0,0.5,0.1c0.7-3.4-0.1-9.4-0.2-9.6c-0.2,0-0.3,0.1-0.5,0.1
		C466,295.1,466.8,301.2,466.1,304.5z"/>
	<path class="st0" d="M456.8,318c0.2,0,0.3,0.1,0.5,0.1c0,0,2.1-6.7,2.5-16c-0.2,0-0.3,0-0.5,0C458.8,311.4,456.8,318,456.8,318
		L456.8,318z"/>
	<path class="st0" d="M463.5,308.9c0.1,0.1,0.2,0.3,0.3,0.4c2-1.4,7-4.2,7-4.3c-0.1-0.2-0.1-0.3-0.2-0.5
		C470.5,304.7,465.6,307.5,463.5,308.9z"/>
	<path class="st0" d="M475.5,278.7c-0.6,10.2-12.4,42.9-37.4,55c0.2-0.3,0.4-0.6,0.6-0.9c25.3-12.8,36.2-46.2,36.5-55.1
		C475.3,278,475.4,278.4,475.5,278.7L475.5,278.7z"/>
	<path class="st16" d="M415.1,286.1c0.7-0.3,1.3-0.5,2-0.8c-0.6-0.4-1.1-0.8-1.7-1.2c1.1-5.6,2.4-10.2,5.8-14.7
		c0.1,0.1,8,7.8,9.8,19.6c1.7,12.1,3.5,29.2,8.1,44.5c0.1,0.4,0.2,0.7,0.3,1.1c0.2-0.1-7.1-3.4-13.7-12.1
		C419.1,314.1,413,300.3,415.1,286.1L415.1,286.1z"/>
	<path class="st0" d="M421.8,298.2c-0.2,0-0.3-0.1-0.5-0.1c0.3-3.5,3-8.9,3.1-9.1c0.1,0.1,0.3,0.2,0.4,0.3
		C424.9,289.2,422.2,294.8,421.8,298.2z"/>
	<path class="st0" d="M426.6,313.9c-0.2,0-0.3,0-0.5-0.1c0,0,0.1-7,2.5-15.9c0.2,0.1,0.3,0.1,0.5,0.2
		C426.6,307,426.6,313.9,426.6,313.9L426.6,313.9z"/>
	<path class="st0" d="M422.9,303.1c-0.1,0.1-0.3,0.2-0.4,0.3c-1.4-1.9-5.4-6.2-5.4-6.3c0.1-0.1,0.2-0.3,0.3-0.4
		C417.6,297,421.5,301.2,422.9,303.1L422.9,303.1z"/>
	<path class="st0" d="M420.8,270.7c-2.6,9.9-1.3,44.6,18.8,63.8c-0.1-0.3-0.2-0.7-0.3-1.1c-20.1-19.9-20.3-55.1-17.8-63.6
		C421.2,270.2,421,270.4,420.8,270.7L420.8,270.7z"/>
	<path class="st10" d="M427.2,330h27c2.3,0,4,2.3,3.8,5l-2.5,26.5c-0.2,2.3-1.8,4-3.8,4h-22.4c-2,0-3.6-1.8-3.8-4.1l-2.2-26.5
		C423.2,332.3,425,330,427.2,330z"/>
	<path class="st15" d="M458.6,330h-35.7c-1.3,0-2.3,1-2.3,2.3c0,1.3,1,2.3,2.3,2.3h35.7c1.3,0,2.3-1,2.3-2.3
		C460.9,331,459.9,330,458.6,330z"/>
	<path class="st12" d="M61.5,256.1c-0.3,0.5,9.1,4,16.2,18.3c6.9,13.5,11.6,37.8-4.7,59.3c-0.1,0.1-1-10.1-2.8-24.1
		C68.5,295.4,65.8,277.3,61.5,256.1z"/>
	<path class="st15" d="M73.9,281.7c-0.2,0-0.3-0.1-0.5-0.1c0.3-3.5,0.5-7.1,0.5-10.7c0.2,0,0.3,0.1,0.5,0.1
		C74.4,274.6,74.3,278.2,73.9,281.7L73.9,281.7z"/>
	<path class="st15" d="M75.7,291.7c-2.3-2.6-4.7-5-7.1-7.3c0.1-0.1,0.2-0.3,0.3-0.4c2.4,2.3,4.8,4.7,7.1,7.3
		C75.9,291.4,75.8,291.6,75.7,291.7L75.7,291.7z"/>
	<path class="st15" d="M77.2,303.9c-0.1-0.1-0.3-0.2-0.4-0.3c1.4-2.8,2.7-5.7,3.9-8.8c0.1,0.1,0.3,0.2,0.4,0.3
		C79.9,298.1,78.6,301,77.2,303.9z"/>
	<path class="st15" d="M76.5,315.1c-1.2-3.8-2.6-7.5-4-11.1c0.1-0.1,0.3-0.2,0.4-0.2c1.5,3.6,2.8,7.3,4,11.1
		C76.8,315,76.6,315.1,76.5,315.1L76.5,315.1z"/>
	<path class="st15" d="M73,332.7c0,0,0,0.1,0,0.1c0.1,0.1,0.3,0.1,0.4,0.2c5.8-19.2,4.2-37.1,0.8-50.2c-3.5-13.2-8.7-21.6-11.8-26.2
		c-0.6-0.4-0.9-0.6-0.9-0.6c0,0,0,0.1,0,0.1c2.9,4.2,8.2,12.2,11.9,25.5C77,294.8,78.9,313,73,332.7L73,332.7z"/>
	<path class="st15" d="M44.6,281.7c0.4,0.1-3.4,7.6-0.7,20c2.4,11.7,11.4,28.3,31.3,30.9c0.1,0-4.2-6.3-10-15.4
		C59.4,308.2,52.2,296.3,44.6,281.7L44.6,281.7z"/>
	<path class="st15" d="M49.6,303.6c0.1-0.1,0.1-0.2,0.2-0.4c-1.9-1.8-3.7-3.7-5.5-5.8c-0.1,0.1-0.2,0.2-0.2,0.3
		C45.9,299.9,47.7,301.8,49.6,303.6L49.6,303.6z"/>
	<path class="st15" d="M53.4,310.3c0.1-2.8,0.3-5.6,0.7-8.3c-0.1,0-0.3-0.1-0.4-0.1c-0.3,2.7-0.5,5.5-0.7,8.3
		C53.1,310.3,53.3,310.3,53.4,310.3L53.4,310.3z"/>
	<path class="st15" d="M58.4,318.1c0-0.1,0.1-0.3,0.1-0.4c-2.2-0.8-4.4-1.7-6.5-2.7c0,0.1-0.1,0.3-0.1,0.4
		C54,316.5,56.2,317.4,58.4,318.1z"/>
	<path class="st15" d="M64.2,324.1c-1.1-2.9-2.1-5.8-3-8.7c-0.1,0-0.2,0.1-0.4,0.1c0.9,2.9,1.9,5.8,3,8.7
		C64,324.2,64.1,324.2,64.2,324.1L64.2,324.1z"/>
	<path class="st12" d="M74.8,332.1C74.8,332.1,74.8,332.1,74.8,332.1c0,0.2,0,0.3-0.1,0.5C62,325,54.3,313.9,50,304.4
		c-4.4-9.6-5.3-17.4-5.7-21.8c0.2-0.6,0.3-0.9,0.3-0.9c0,0,0,0,0,0.1c0.3,4.1,1.1,11.8,5.3,21.5C54.1,312.9,61.8,324.4,74.8,332.1
		L74.8,332.1z"/>
	<path class="st10" d="M111.4,295.1c-0.6-0.5-1.1-0.9-1.7-1.4c0.7-0.2,1.3-0.4,2-0.6c0.7-5.6,0.9-10.5-1-15.8
		c-0.1,0.1-10,5-15.4,15.6c-5.3,11-12.3,26.7-21.3,39.9c-0.2,0.3-0.4,0.6-0.6,0.9c-0.1-0.2,7.8-1.1,16.8-7.3
		C99,320.5,109.1,309.3,111.4,295.1L111.4,295.1z"/>
	<path class="st15" d="M101.3,304.5c0.2,0,0.3,0,0.5,0.1c0.7-3.4-0.1-9.4-0.2-9.6c-0.2,0-0.3,0.1-0.5,0.1
		C101.2,295.1,102,301.2,101.3,304.5z"/>
	<path class="st15" d="M92,318c0.2,0,0.3,0.1,0.5,0.1c0,0,2.1-6.7,2.5-16c-0.2,0-0.3,0-0.5,0C94.1,311.4,92,318,92,318L92,318z"/>
	<path class="st15" d="M98.8,308.9c0.1,0.1,0.2,0.3,0.3,0.4c2-1.4,7-4.2,7-4.3c-0.1-0.2-0.1-0.3-0.2-0.5
		C105.7,304.7,100.8,307.5,98.8,308.9z"/>
	<path class="st15" d="M110.7,278.7c-0.6,10.2-12.4,42.9-37.4,55c0.2-0.3,0.4-0.6,0.6-0.9c25.3-12.8,36.2-46.2,36.5-55.1
		C110.5,278,110.6,278.4,110.7,278.7L110.7,278.7z"/>
	<path class="st10" d="M50.4,286.1c0.7-0.3,1.3-0.5,2-0.8c-0.6-0.4-1.1-0.8-1.7-1.2c1.1-5.6,2.4-10.2,5.8-14.7
		c0.1,0.1,8,7.8,9.8,19.6c1.7,12.1,3.5,29.2,8.1,44.5c0.1,0.4,0.2,0.7,0.3,1.1c0.2-0.1-7.1-3.4-13.7-12.1
		C54.3,314.1,48.2,300.3,50.4,286.1L50.4,286.1z"/>
	<path class="st15" d="M57.1,298.2c-0.2,0-0.3-0.1-0.5-0.1c0.3-3.5,3-8.9,3.1-9.1c0.1,0.1,0.3,0.2,0.4,0.3
		C60.1,289.2,57.4,294.8,57.1,298.2z"/>
	<path class="st15" d="M61.8,313.9c-0.2,0-0.3,0-0.5-0.1c0,0,0.1-7,2.5-15.9c0.2,0.1,0.3,0.1,0.5,0.2
		C61.9,307,61.8,313.9,61.8,313.9L61.8,313.9z"/>
	<path class="st15" d="M58.1,303.1c-0.1,0.1-0.3,0.2-0.4,0.3c-1.5-1.9-5.4-6.2-5.4-6.3c0.1-0.1,0.2-0.3,0.3-0.4
		C52.9,297,56.7,301.2,58.1,303.1L58.1,303.1z"/>
	<path class="st15" d="M56,270.7c-2.6,9.9-1.3,44.6,18.8,63.8c-0.1-0.3-0.2-0.7-0.3-1.1c-20.1-19.9-20.3-55.1-17.8-63.6
		C56.4,270.2,56.2,270.4,56,270.7L56,270.7z"/>
	<path class="st10" d="M62.5,330h27c2.3,0,4,2.3,3.8,5l-2.5,26.5c-0.2,2.3-1.8,4-3.8,4H64.6c-2,0-3.6-1.8-3.8-4.1l-2.2-26.5
		C58.5,332.3,60.2,330,62.5,330z"/>
	<path class="st15" d="M93.9,330H58.1c-1.3,0-2.3,1-2.3,2.3c0,1.3,1,2.3,2.3,2.3h35.7c1.3,0,2.3-1,2.3-2.3
		C96.2,331,95.1,330,93.9,330z"/>
</g>
<path class="st17" d="M575.1,366H12.9c-1.1,0-1.9,0.7-1.9,1.5s0.9,1.5,1.9,1.5h562.1c1.1,0,1.9-0.7,1.9-1.5S576.1,366,575.1,366z"/>
<g id="leaf3">
	<path class="st16" d="M549.4,311.5c0,0,6.6-8.4,8-14.4c1.5-6-0.3-11.6-4.2-11.3C549.3,286.1,543.9,294.7,549.4,311.5z"/>
	<path class="st16" d="M539.5,325.4c0,0,5.3-11.4,4.6-18.2c-0.7-6.9-2.4-11.4-7.3-11.3C531.9,296.1,526.9,301.9,539.5,325.4z"/>
	<path class="st16" d="M528.3,340.6c0,0,3.2-12.1,1.4-18.8s-4.3-10.8-9.1-9.8C515.7,312.9,511.8,319.5,528.3,340.6L528.3,340.6z"/>
	<path class="st16" d="M524.8,355.8c0,0,10.6-10,21-13.3c10.4-3.3,12.7,1.8,12.6,5.9C558.3,352.4,548.1,356.9,524.8,355.8z"/>
	<path class="st16" d="M559.3,324.7c2.5-0.3,5.3-0.2,6.9,1.8c1.6,2,0.8,5.1-1,6.9c-1.8,1.8-4.4,2.5-6.9,3.1
		c-3.3,0.7-21.6,3.7-20.7-1.6c0.6-3.2,6.6-5.5,9.1-6.7C550.7,326.4,555,325.2,559.3,324.7L559.3,324.7z"/>
	<path class="st16" d="M565.8,283.3c1.2-2.3,2.7-4.6,4.9-6c2.2-1.4,5.3-1.7,7.3-0.1c2.3,1.8,2.5,5.5,1.1,8.1
		c-1.3,2.6-3.8,4.5-6.2,6.3c-3.6,2.7-8.7,8.2-12.9,9.2C559.2,295.8,563.4,287.5,565.8,283.3L565.8,283.3z"/>
	<path class="st16" d="M561.4,304.8c2.2-1.4,4.6-2.7,7.2-2.9c2.6-0.2,5.5,1,6.5,3.4c1.2,2.7-0.5,6-2.9,7.7c-2.4,1.7-5.5,2.1-8.4,2.6
		c-4.4,0.6-11.6,3-15.7,1.9C549.6,312.6,557.2,307.4,561.4,304.8L561.4,304.8z"/>
	<path class="st18" d="M517.3,367.1c-0.1-0.1-0.1-0.3,0-0.4c14.6-35.1,48.8-74.6,49.2-75c0.2-0.3,0.6-0.3,0.9-0.1
		c0.3,0.2,0.3,0.6,0.1,0.9c-0.3,0.4-34.5,39.7-49,74.7c-0.1,0.3-0.5,0.5-0.8,0.3C517.4,367.4,517.3,367.3,517.3,367.1L517.3,367.1z"
		/>
	<path class="st18" d="M547.1,316.8C547.1,316.8,547,316.7,547.1,316.8c-0.1-0.4,0.1-0.8,0.5-0.8c0.1,0,7.6-1.6,14.8-5.5
		c0.3-0.2,0.7-0.1,0.8,0.2c0.2,0.3,0.1,0.7-0.2,0.8c-7.3,4-15,5.6-15.1,5.6C547.5,317.3,547.2,317.1,547.1,316.8z"/>
	<path class="st18" d="M545,319.6c-0.1-0.2-0.1-0.4,0.1-0.5c0.1-0.1,7-11.1,6.3-23.4c0-0.3,0.2-0.6,0.6-0.6c0.3,0,0.6,0.2,0.6,0.6
		c0.7,12.6-6.2,23.6-6.5,24.1c-0.2,0.3-0.6,0.4-0.9,0.2C545.2,319.9,545.1,319.7,545,319.6L545,319.6z"/>
	<path class="st18" d="M533.4,336.8c-0.1-0.3,0-0.7,0.4-0.8c0.1,0,10.3-3.8,17.6-4.8c0.3,0,0.6,0.2,0.7,0.5c0,0.3-0.2,0.6-0.5,0.7
		c-7.2,1-17.3,4.7-17.4,4.7C533.9,337.3,533.6,337.1,533.4,336.8z"/>
	<path class="st18" d="M538.4,329.2c0-0.1-0.1-0.2,0-0.4c0-0.1,2.3-8.5-0.9-19.2c-0.1-0.3,0.1-0.7,0.4-0.8c0.3-0.1,0.7,0.1,0.8,0.4
		c3.3,11.1,1,19.5,0.9,19.9c-0.1,0.3-0.4,0.5-0.8,0.4C538.6,329.6,538.4,329.4,538.4,329.2L538.4,329.2z"/>
	<path class="st18" d="M521.8,357.2c-0.1-0.3,0-0.6,0.3-0.8c0.5-0.2,13.3-6.1,20.6-7.7c0.3-0.1,0.7,0.1,0.7,0.5
		c0.1,0.3-0.1,0.7-0.5,0.7c-7.2,1.6-20.3,7.6-20.4,7.6C522.4,357.7,522,357.6,521.8,357.2C521.8,357.2,521.8,357.2,521.8,357.2
		L521.8,357.2z"/>
	<path class="st18" d="M527,347.6c-0.1-0.1-0.1-0.3,0-0.5c0-0.1,2.8-6.8-1.6-18.7c-0.1-0.3,0-0.7,0.4-0.8c0.3-0.1,0.7,0,0.8,0.4
		c4.6,12.4,1.7,19.3,1.6,19.6c-0.1,0.3-0.5,0.5-0.8,0.3C527.1,347.9,527,347.8,527,347.6L527,347.6z"/>
</g>
<g id="leaf2">
	<path class="st16" d="M111.9,323.9c0,0,2.8-7.7,6.1-11.1c3.3-3.4,7.7-4.5,9-1.9C128.4,313.5,125,320.5,111.9,323.9z"/>
	<path class="st16" d="M106.9,335.9c0,0,5.2-8.1,10-10.5c4.7-2.4,8.4-3.1,10.3,0.1S127.4,334.5,106.9,335.9z"/>
	<path class="st16" d="M101.7,349.5c0,0,6.5-7.1,11.6-8.6c5.1-1.5,8.8-1.7,10.1,1.9C124.8,346.3,122.1,351.5,101.7,349.5z"/>
	<path class="st16" d="M93.2,358c0,0,2.2-11,0-19.1c-2.1-8.1-6.4-7.5-9-5.8C81.7,334.8,82.9,343.3,93.2,358z"/>
	<path class="st16" d="M99.2,322.8c-0.8-1.7-2.1-3.5-4-3.7c-1.9-0.2-3.7,1.6-4.1,3.5c-0.4,1.9,0.2,3.9,0.8,5.7
		c0.9,2.4,6.5,15.6,9.5,12.8c1.8-1.7,0.9-6.5,0.6-8.6C101.6,329.1,100.7,325.8,99.2,322.8L99.2,322.8z"/>
	<path class="st16" d="M123.5,301.5c1-1.7,1.9-3.6,1.9-5.6c0-2-1-4.1-2.9-4.8c-2.1-0.8-4.6,0.6-5.7,2.6c-1.2,2-1.4,4.3-1.6,6.6
		c-0.3,3.4-1.8,9.1-0.7,12.2C118.1,311,121.7,304.9,123.5,301.5L123.5,301.5z"/>
	<path class="st16" d="M111.3,313.3c0-2-0.1-4.1-1-5.8c-0.9-1.8-2.9-3.1-4.9-2.8c-2.2,0.4-3.7,2.8-3.8,5c-0.1,2.3,0.9,4.4,1.8,6.5
		c1.4,3.1,2.8,8.8,5.2,11C111.1,324.2,111.4,317.1,111.3,313.3z"/>
	<path class="st18" d="M88.9,367.5c0.1,0,0.2-0.1,0.3-0.2c16.8-23.9,28.4-62.4,28.5-62.7c0.1-0.2-0.1-0.5-0.3-0.6s-0.5,0.1-0.6,0.3
		c-0.1,0.4-11.6,38.7-28.4,62.5c-0.2,0.2-0.1,0.5,0.1,0.7C88.7,367.5,88.8,367.6,88.9,367.5L88.9,367.5z"/>
	<path class="st18" d="M109.4,327.5C109.4,327.5,109.5,327.5,109.4,327.5c0.3-0.1,0.4-0.4,0.3-0.6c0-0.1-2.1-5.6-2.5-11.9
		c0-0.3-0.2-0.5-0.5-0.4c-0.3,0-0.5,0.2-0.4,0.5c0.4,6.4,2.5,12.1,2.5,12.1C108.9,327.4,109.2,327.6,109.4,327.5L109.4,327.5z"/>
	<path class="st18" d="M108.4,330c0.1,0,0.3-0.1,0.3-0.3c0-0.1,4.4-9.1,12.6-13.7c0.2-0.1,0.3-0.4,0.2-0.6c-0.1-0.2-0.4-0.3-0.6-0.2
		c-8.5,4.7-12.8,13.7-13,14.1c-0.1,0.2,0,0.5,0.2,0.6C108.2,330,108.3,330,108.4,330L108.4,330z"/>
	<path class="st18" d="M102,344.6c0.3-0.1,0.4-0.3,0.4-0.6c0-0.1-1.8-8.3-4.1-13.4c-0.1-0.2-0.4-0.3-0.6-0.2
		c-0.2,0.1-0.3,0.4-0.2,0.6c2.3,5.1,4,13.2,4.1,13.2C101.5,344.5,101.7,344.6,102,344.6L102,344.6z"/>
	<path class="st18" d="M104.9,338.3c0.1,0,0.2-0.1,0.3-0.1c0,0,4.6-5,12.9-7.3c0.3-0.1,0.4-0.3,0.3-0.6c-0.1-0.3-0.3-0.4-0.6-0.3
		c-8.6,2.4-13.1,7.4-13.3,7.6c-0.2,0.2-0.2,0.5,0,0.7C104.6,338.3,104.8,338.3,104.9,338.3L104.9,338.3z"/>
	<path class="st18" d="M93.5,360.5c0.2,0,0.4-0.3,0.4-0.5c-0.1-0.5-1.5-11.1-3.5-16.6c-0.1-0.2-0.4-0.4-0.6-0.3
		c-0.2,0.1-0.4,0.4-0.3,0.6c1.9,5.4,3.4,16.3,3.4,16.4C93,360.3,93.2,360.5,93.5,360.5C93.5,360.5,93.5,360.5,93.5,360.5z"/>
	<path class="st18" d="M97.6,353.2c0.1,0,0.2-0.1,0.3-0.2c0,0,3.3-4.6,12.8-6.6c0.3-0.1,0.4-0.3,0.4-0.6c-0.1-0.3-0.3-0.4-0.6-0.4
		c-9.9,2.1-13.3,6.8-13.4,7c-0.1,0.2-0.1,0.5,0.1,0.7C97.4,353.2,97.5,353.2,97.6,353.2L97.6,353.2z"/>
</g>
<g id="leaf1">
	<path class="st16" d="M39,300.9c0,0-6.1-10.3-6.9-17.1c-0.8-6.8,2-12.8,6.3-11.9C42.6,272.8,47.4,283,39,300.9L39,300.9z"/>
	<path class="st16" d="M47.9,317.7c0,0-4.2-13.4-2.5-20.9c1.7-7.5,4.2-12.3,9.7-11.5C60.6,286.2,65.3,293.4,47.9,317.7L47.9,317.7z"
		/>
	<path class="st16" d="M58.3,336.1c0,0-1.9-13.9,1.1-21c3-7.1,6.2-11.4,11.5-9.6C76.1,307.2,79.5,315.1,58.3,336.1z"/>
	<path class="st16" d="M60,353.6c0,0-10.4-12.6-21.5-17.8c-11.1-5.1-14.4,0.2-14.8,4.7C23.3,345,34,351.5,60,353.6L60,353.6z"/>
	<path class="st16" d="M26.1,314.2c-2.7-0.7-5.9-0.9-7.9,1c-2,2-1.7,5.6,0.1,7.8c1.8,2.2,4.5,3.4,7.2,4.4c3.5,1.2,23.5,7.2,23.2,1.2
		c-0.2-3.6-6.5-7.1-9.1-8.7C35.4,317.3,30.8,315.4,26.1,314.2L26.1,314.2z"/>
	<path class="st16" d="M24.7,267.2c-1-2.7-2.3-5.5-4.6-7.3c-2.2-1.9-5.6-2.7-8.1-1.2c-2.8,1.7-3.5,5.7-2.4,8.9
		c1.1,3.1,3.6,5.5,6,7.8c3.6,3.5,8.5,10.4,13,12.1C30.2,282.1,26.8,272.3,24.7,267.2L24.7,267.2z"/>
	<path class="st16" d="M26.6,291.7c-2.2-1.9-4.7-3.7-7.5-4.2c-2.9-0.6-6.2,0.4-7.7,2.9c-1.7,2.9-0.3,6.7,2.2,8.9
		c2.5,2.2,5.8,3.1,9,4c4.8,1.3,12.5,5,17.2,4.3C38.6,302.1,30.9,295.2,26.6,291.7L26.6,291.7z"/>
	<path class="st18" d="M66.8,367.2c0.1-0.2,0.1-0.3,0.1-0.5c-11.2-41.1-43.7-89.7-44.1-90.2c-0.2-0.3-0.6-0.4-1-0.2
		c-0.3,0.2-0.4,0.6-0.2,1c0.3,0.5,32.7,48.9,43.9,89.8c0.1,0.4,0.5,0.6,0.8,0.5C66.5,367.5,66.7,367.3,66.8,367.2L66.8,367.2z"/>
	<path class="st18" d="M40.8,307.1c0,0,0-0.1,0-0.1c0.1-0.4-0.1-0.8-0.4-0.9c-0.1,0-8.2-2.8-15.6-8.2c-0.3-0.2-0.7-0.2-1,0.2
		c-0.2,0.3-0.2,0.7,0.2,1c7.6,5.5,15.9,8.4,16,8.4C40.3,307.5,40.6,307.4,40.8,307.1L40.8,307.1z"/>
	<path class="st18" d="M42.7,310.5c0.1-0.2,0.1-0.4,0-0.6c-0.1-0.1-6.2-13.3-3.7-26.8c0.1-0.4-0.2-0.7-0.6-0.8
		c-0.4-0.1-0.7,0.2-0.8,0.6c-2.6,13.9,3.6,27.1,3.8,27.7c0.2,0.3,0.6,0.5,0.9,0.3C42.5,310.8,42.6,310.6,42.7,310.5z"/>
	<path class="st18" d="M53.1,331.2c0.2-0.3,0-0.8-0.3-0.9c-0.1-0.1-10.9-5.7-18.9-7.8c-0.4-0.1-0.7,0.1-0.8,0.5
		c-0.1,0.4,0.1,0.7,0.5,0.8c7.8,2.1,18.5,7.7,18.6,7.7C52.5,331.7,52.9,331.6,53.1,331.2L53.1,331.2z"/>
	<path class="st18" d="M48.7,322.1c0.1-0.1,0.1-0.3,0.1-0.4c0-0.1-1.3-9.8,3.7-21.2c0.2-0.3,0-0.8-0.4-0.9c-0.3-0.2-0.8,0-0.9,0.4
		c-5.2,11.8-3.9,21.6-3.8,22c0.1,0.4,0.4,0.6,0.8,0.6C48.4,322.5,48.6,322.3,48.7,322.1L48.7,322.1z"/>
	<path class="st18" d="M63.1,355.5c0.2-0.3,0.1-0.7-0.2-0.9C62.3,354.2,49,346,41,343.1c-0.4-0.1-0.7,0.1-0.9,0.4
		c-0.1,0.4,0.1,0.8,0.4,0.9c7.8,2.8,21.4,11.2,21.6,11.3C62.5,356,62.9,355.9,63.1,355.5C63.1,355.5,63.1,355.5,63.1,355.5
		L63.1,355.5z"/>
	<path class="st18" d="M58.8,344.1c0.1-0.2,0.1-0.3,0.1-0.5c0-0.1-2.2-8,4.4-20.5c0.2-0.3,0-0.8-0.3-0.9c-0.3-0.2-0.8,0-0.9,0.3
		c-6.9,13.1-4.6,21.2-4.5,21.5c0.1,0.4,0.5,0.6,0.9,0.5C58.5,344.4,58.7,344.3,58.8,344.1L58.8,344.1z"/>
</g>
<path class="st19" d="M186.3,412c40.1,0,72.6-4.1,72.6-9.2c0-5.1-32.5-9.2-72.6-9.2c-40.1,0-72.6,4.1-72.6,9.2
	C113.7,407.9,146.2,412,186.3,412z"/>
<path class="st19" d="M401.7,405.3c40.1,0,72.6-4.1,72.6-9.2c0-5.1-32.5-9.2-72.6-9.2c-40.1,0-72.6,4.1-72.6,9.2
	C329.2,401.2,361.7,405.3,401.7,405.3z"/>
<path class="st20" d="M192.4,12.2c-6.1-3.2-11-0.9-11-0.9c-20.7-0.6-22.4,20-22,27.4c0.4,7.5-1.5,21-6.7,32.7
	C136.4,107.7,182,92.9,182,92.9c0.5-12.6,5.6-13.7,13.1-13.2c20.6,4.4,15.8-6.4,8.8-27.4C199,37.9,207.5,20,192.4,12.2L192.4,12.2z"
	/>
<path class="st21" d="M293.3,150.4c0.7-0.8,1.7-1.3,2.6-1.9c4.4-2.9,6.9-8.3,11.6-10.7c1.6-0.8,3.5-1.2,5.3-1.5
	c3.8-0.8,10.9-2.9,14.7-3.7l0,2.6c1.6,4,0.3,6.6,2.5,10.2c-2.6,2.1-5.5,4.1-8.4,5.7c-2.7,1.5-5.6,2.8-8.1,4.6
	c-0.9,0.7-1.8,1.4-2.7,2c-1,0.6-2.1,1-3.2,1c-1.1,0-2.3-0.6-2.8-1.5c-0.3,0.1-0.5,0.1-0.8,0.1c-1.1,0-2.3-0.6-2.8-1.7l0.1,0l0,0
	c-0.1,0-0.1,0.1-0.2,0.1c-0.9,0.4-2,0.6-2.9,0.2c-0.9-0.4-1.6-1.2-1.5-2.2c-0.2,0.1-0.4,0.2-0.6,0.3c-1.1,0.5-2.6,0.5-3.2-0.5
	C292.3,152.5,292.6,151.2,293.3,150.4L293.3,150.4z"/>
<path class="st22" d="M207.9,76.9c0,0,24.4,39.7,27.5,43.5c3.2,3.8,59.2,15.2,59.2,15.2l-2,14.5c0,0-47.5-6.6-60.5-10.7
	c-13.1-4.1-32-33.1-32-33.1s-15.1-11.1-7.6-25.1C200,67.3,207.9,76.9,207.9,76.9z"/>
<path class="st23" d="M309.5,137.1c1.8-0.6,3.7-0.9,5.4-0.9c1.3,0,2.5,0.4,3.8,0.4c1.3,0,2.6-0.3,3.5-1.3c0.5-0.5,0.8-1.5,0.3-2
	c-0.5-0.5-1.2-0.3-1.9-0.3c-1.6,0-3.1-1-4.6-1.4c-1.6-0.4-3.2-0.1-4.8,0.2c-2.5,0.4-4.9,0.9-7.3,1.8c-1.4,0.6-2.8,1.3-4.2,1.8
	c-1.9,0.6-5.6,0.2-7.5,0c-1.5,4.4-0.7,9.8-1.1,14.4c0.8-0.1,1.6,0.2,2.1,0.7c2.9-2.1,5.2-3.5,8-6.9c1.1-1.4,2.4-2.8,3.8-4
	C306.3,138.4,307.8,137.6,309.5,137.1L309.5,137.1z"/>
<path class="st24" d="M288.7,133.6l7,1.5l-3.5,16.4l-6-1.4L288.7,133.6z"/>
<path class="st20" d="M195.8,381.3l-0.3,10.2l12.8,0.3l1.4-11L195.8,381.3z"/>
<path class="st25" d="M195.5,389.3c0,0,1.7,2.5,12.9,0.9c0,0,17.9,3.9,20.9,4.3c3,0.4,4.4,1.3,4.8,3.3c0.4,2-0.1,4.9-0.1,4.9
	l-41.1,0.1C192.9,402.8,192.2,391.8,195.5,389.3L195.5,389.3z"/>
<path class="st20" d="M204.5,283.2c1.5-13.1,5.1-58.7,5.1-58.7l5-36.7l-23.9-4.4l-1.3,20.5c-3.1,19.4,1.3,86.7,1.3,86.7
	c-3.1,48.8,2.4,94,2.4,94l7.1-0.4c0-8.4,0.8-26.1,2.3-39.7C204.7,326.1,203,296.4,204.5,283.2L204.5,283.2z"/>
<path class="st25" d="M215.1,285.6c1.9-11.6,7.7-45.2,10.1-71c1.6-16.7,0.3-31.1,0.3-31.1h-11.8l-4.2,41.1c0,0-3.6,45.6-5.1,58.7
	c-1.5,13.1-3.6,40.2-5.7,58.5c-1.6,13.6,1.4,34.1,1.4,42.5l9.5-0.5C209.7,383.7,212,304.7,215.1,285.6L215.1,285.6z"/>
<path class="st20" d="M145.1,373.9l-3.8,9.4l11.8,4.8l5.2-9.8L145.1,373.9z"/>
<path class="st25" d="M142.1,381.3c0,0,0.7,2.9,11.8,5.4c0,0,3.1,2.1,8,4.2c3.9,1.7,10.8,4.7,12.2,7.3c0.9,1.8,0.1,4.5,0.1,4.5
	l-17.8-0.1c-2.1-0.2-4.5-1.7-6.4-2.6l-15.1-7.2C134.9,392.9,138.1,382.5,142.1,381.3L142.1,381.3z"/>
<path class="st25" d="M170.5,178.7c0,0-13.1-1.4-3.6,51.5c6.9,38.5,6.9,54.5,6.9,54.5l-30.2,91.9l13.8,4.4c0,0,37.2-69.9,42.4-94.2
	c2.7-12.9,6.8-39.8,9.9-62.4l5.6-41.1L170.5,178.7L170.5,178.7z"/>
<path class="st25" d="M211.3,220.3c2.6-18.2,4.6-33.3,4.6-33.3L211.3,220.3z"/>
<path class="st20" d="M215.1,186c0,0-23.8-1.2-37.3-2.8c0,0-0.7,0.9-0.1,2.7c0,0,28.8,2.6,48.9,2.9l-0.1-2.7L215.1,186L215.1,186z"
	/>
<path class="st26" d="M222.3,185.7l-6.7-0.2l-0.2,3.6l6.9,0.3V185.7z"/>
<path class="st27" d="M173.4,66c0,0-13.1,8.7-14.3,16.9c-1.1,8.1,10.3,70.7,16.1,98.6c0,0,41.9,7.2,51.4,2.3c0,0-5.4-50.8-8.2-67
	c-2.8-16.2-0.1-44.6-24.2-47.7C183.6,67.7,173.4,66,173.4,66L173.4,66z"/>
<path class="st22" d="M199.3,70.2l-0.8,8.2c0,0,12.8,9.9,16.3,18.7c5.2,13.1-2.4,11.2,0.6,34.6l9.3,33.8c0,0,2.7-31,0.5-47.6
	C222.3,96.7,213.5,73.6,199.3,70.2L199.3,70.2z"/>
<path class="st22" d="M169.6,67.5c0,0,21.7,8.9,23.4,12.4c1.8,3.5,8.5,27,6.6,44c-1.9,17-3,16.4-1.4,37.3
	c1.5,20.9-11.7,26.4-11.7,26.4l-27.7,4.2c0,0,9.1-32,7.7-51.1c-1.5-20.5-9.3-33.8-9.8-44.2C156.4,86.1,154.4,76.7,169.6,67.5
	L169.6,67.5z"/>
<path class="st20" d="M191.6,183.8c0,0-8.9,5.9-24.1,6.7l-0.3,4.3C167.2,194.8,187.1,191.3,191.6,183.8L191.6,183.8z"/>
<path class="st28" d="M196.3,77.4c-4.1,2.5-23.2-10.2-22.2-11.3c2.2-2.6,4.4-4.3,4.3-18.5c0,0,12.2,2.8,17.1,2.5
	c0,0-0.6,14.4,1.2,19.3C198.5,74.2,199.8,75.3,196.3,77.4L196.3,77.4z"/>
<path class="st29" d="M195.4,59.3c0,0-12.1-4.3-17.1-8.7c0,0,3.6,9.4,17.3,11.3L195.4,59.3z"/>
<path class="st20" d="M206.9,18.2c0,0-24.1-25-38.9-8.4c0,0-8.4,4.7-9.9,20c-1.5,15.7,10,26.2,14.9,22.7c3.2-2.2,5.3-1.1,5.3-1.1
	L206.9,18.2z"/>
<path class="st28" d="M203.7,59.1c0,0-25,3.2-26.7-12.4c-1.8-15.6-6.2-25.7,9.7-28.4c15.9-2.7,20,2.8,21.5,7.9
	c1.7,5.8,1.1,8.3,0.6,12.7c-0.2,2.1,0.6,4.1,0,7C207.4,52.7,206.7,58.5,203.7,59.1L203.7,59.1z"/>
<path class="st29" d="M198,17.8c0,0-4.4,20.2-15,22.9c-3.8,1-6.8,0.8-6.8,0.8s10.8-0.8,11.2-12.1C187.5,29.4,191.9,9.7,198,17.8z"/>
<path class="st20" d="M196.5,18.4c0,0,5,1.4,8.5,5.6c2.7,3.2,3.8,6.2,4.1,12.8c0,0,4-12.6-2.6-19C199.4,10.9,196.5,18.4,196.5,18.4
	L196.5,18.4z"/>
<path class="st20" d="M198,16.7c0,0-4.8,19.1-15,22.9c-10.2,3.9-15.1,1.6-15.1,1.6s7.3-7.3,7.8-18.7C175.7,22.5,191.8,8.6,198,16.7
	L198,16.7z"/>
<path class="st26" d="M169.6,67.5c0,0,15.6,7.4,24,13.7l2.7-3.8c0,0-4.5-3.8-21.8-11l-0.7-0.6L169.6,67.5L169.6,67.5z"/>
<path class="st26" d="M196.3,77.4l3.1,1.7l1.7-8.5c0,0-1.9-0.4-4.4-1.3L196.3,77.4z"/>
<path class="st24" d="M165.5,131.6l9.7-39.3l-10.1,37.1L165.5,131.6z"/>
<path class="st24" d="M162.5,177.1l10.5,12.6l-10.4-14.8L162.5,177.1z"/>
<path class="st24" d="M166.8,146l17.7,35.1l-17.6-33.2L166.8,146z"/>
<path class="st22" d="M146.7,141.2c0.4,5.2,3.1,13.5,3.1,13.5c9,16.1,30.7,45.3,30.7,45.3l10.3-7.6c0,0-28.5-49.2-27.9-54.1
	c0.6-4.9,13.4-49.9,13.4-49.9s3.3-16.6-13.9-12c-1.1,0.3-2.1,0.9-3.1,1.6c-0.1,0.3-4.1,9.3-6.8,19.8
	C149.8,108.5,146.3,135.9,146.7,141.2L146.7,141.2z"/>
<path class="st28" d="M192.6,195.6c1.5,1.1,2.6,1.4,2.6,1.4s4.8,1.9,6.7,2.9c1.9,1.1,2.7,2.9,1.5,3.7c-1.3,0.8-4.2-1.1-5.7-1.4
	c-1.5-0.4,1.2,4.9,3.7,5.1c4.3,0.2,2.5,3.2,2.5,3.2c-0.8,3.3-7.7,6-12.1,6.1c-2.8,0.1-6.3-2.3-7.7-10c-1-5.7-2.6-7.4-2.6-7.4
	l8.9-6.5C190.3,192.7,191.1,194.5,192.6,195.6L192.6,195.6z"/>
<path class="st24" d="M188,187.4l-11.7,8.3l4.6,5.5l11.2-8.6L188,187.4z"/>
<path class="st20" d="M400.7,375.8l0.2,10.1l-12.7,0.3l-1.4-10.9L400.7,375.8z"/>
<path class="st30" d="M400.9,383.8c0,0-1.7,2.5-12.8,0.9c0,0-17.8,3.8-20.8,4.1c-3,0.3-4.4,1.2-4.8,3.2c-0.4,2,0.1,4.8,0.1,4.8
	l40.8,0.3C403.5,397.1,404.2,386.3,400.9,383.8z"/>
<path class="st20" d="M436.9,370.6l2.7,9.7l-12.2,3.4l-4-10.3L436.9,370.6z"/>
<path class="st30" d="M439.1,378.3c0,0-1,2.8-12.2,4c0,0-5,3.2-10,4.8c-4,1.2-8.2,0.8-9.5,1.3c-2.8,1.1-3.9,2.3-3.8,4.3
	c0.1,2,2.4,4.3,2.4,4.3l20.2,0l18.7-6.4C444.8,390.6,442.9,379.9,439.1,378.3L439.1,378.3z"/>
<path class="st20" d="M383.3,277.3c-1.5-13-5.1-58.3-5.1-58.3l-5-36.4l23.8-4.4l1.3,20.3c3.1,19.3,1.6,86.1,1.6,86.1
	c8.5,48,3.3,95.2,3.3,95.2l-8.4-0.4c0-8.3,0.1-27.9-1.5-41.4C391.1,319.7,384.8,290.3,383.3,277.3L383.3,277.3z"/>
<path class="st25" d="M372.8,279.6c-3.1-18.9-10.4-101.4-10.4-101.4h11.7l4.1,40.8c0,0,3.6,45.2,5.1,58.3c1.5,13,7.8,42.4,9.9,60.7
	c1.6,13.5,1.5,33.1,1.5,41.4h-10.3C384.5,379.4,375.9,298.6,372.8,279.6z"/>
<path class="st25" d="M417.2,173.5c0,0,4,12.5,0.4,51.2c-3.6,38.7-2.2,54.2-2.2,54.2l25,93.9l-20.1,5.2c0,0-27.1-72.9-32.2-97
	c-2.7-12.8-6.7-39.5-9.9-61.9l-5.6-40.8L417.2,173.5L417.2,173.5z"/>
<path class="st17" d="M376.6,214.8c-2.6-18.1-4.5-33-4.5-33L376.6,214.8z"/>
<path class="st20" d="M374.1,181.1c0,0,24.8-1.2,39-3c0,0,0.7,1,0.1,2.8c0,0-29.8,3-50.8,3.3l0.1-2.7L374.1,181.1z"/>
<path class="st26" d="M366.6,180.8l7.4-0.6l0.5,4.1l-7.3,0.3L366.6,180.8z"/>
<path class="st20" d="M401.4,178.7c0,0,11,2.4,17,2.4l0.1,2.3C418.5,183.4,408.8,182.4,401.4,178.7L401.4,178.7z"/>
<path class="st31" d="M365.9,76.5c0,0,11.9,42.4,12.5,47c0.6,4.6-29,49.6-29,49.6l14.1,9.8c0,0,24.7-37.9,30.2-49.6
	c5.5-11.7-1-43.1-1-43.1s0.6-17.9-13.9-21.7C364.3,64.8,365.9,76.5,365.9,76.5L365.9,76.5z"/>
<path class="st21" d="M351,174.3c0,0-1.7,3.5-3.4,4.8c-1.7,1.3-4.8,2.2-8,4.8c-3.1,2.6-2.8,5.4-2.1,5.6c0.8,0.3,3.3-3.5,6-3.9
	c0,0-4.3,5-5.5,7.2c-1.2,2.2-3.5,4.9-2.4,6.3c1.1,1.3,6.3,6.5,9.4,5.8c3.1-0.7,12.1-8.6,13.4-15c1.4-6.4,2.8-8.4,2.8-8.4L351,174.3
	L351,174.3z"/>
<path class="st32" d="M350.9,169.5l-2.5,3.9c0,0,10,5.6,15,10.3l2.3-3.5C365.7,180.3,359.7,173.3,350.9,169.5L350.9,169.5z"/>
<path class="st27" d="M401.5,52.3c0,0,20.6,4.5,22.9,12.8c2.3,8.3-4.3,82.9-6.5,112.5c0,0-44.4,2.9-55.3,2.9c0,0-1.5-52.3-0.8-69.5
	c0.7-17.2-6-46.2,18.5-52.7C391.2,55.5,401.5,52.3,401.5,52.3L401.5,52.3z"/>
<path class="st31" d="M405.6,53.4c0,0-21.2,12.1-22.6,16c-1.3,3.9-5.1,29.1-0.9,46.5c4.2,17.4,5.3,16.6,6.6,38.4
	c1.3,21.9,15.7,25.7,15.7,25.7l21.4,1.6c0,0-4.2-24.7-3.8-46.2c0.4-21.4,5.8-52.1,4.8-62.9C425.9,61.8,422.2,56.1,405.6,53.4
	L405.6,53.4z"/>
<path class="st31" d="M373.6,61.1l2.3,8.4c0,0-5.3,9.2-8.4,18.6c-3.1,9.4-6.1,15.1-6,39.7v10.8c0,0-5.5-8-6.5-25.4
	C354,95.7,363,61.2,373.6,61.1z"/>
<path class="st32" d="M409.8,54.2l-20.5,26.1l-6.3,2.4l8.7-1.1L409.8,54.2z"/>
<path class="st32" d="M383.1,82.7l6.3,8.1l-1.6,50l3.4-49.1L383.1,82.7z"/>
<path class="st33" d="M378.5,70.4c-0.3-0.9-0.2-1.7-0.2-1.7l2.8-1.4l1.2,3.4c0,0-0.5,1.2-1.4,1.4c-1.5,3.3-2.6,22.6-3.1,54.4
	c-0.4,24.4-1.4,20.4,0.2,45.9l-5.1,7.2l-4.8-6.8c0,0,2.9-39.3,3.9-65C372.7,87.6,376.5,73,378.5,70.4L378.5,70.4z"/>
<path class="st21" d="M370.3,4.9c0,0-5.4,5.7-5.9,16.7c0,0-4.9,4.8-5.8,8.7c-0.3,1.3,3.9,2.9,3.9,2.9s-0.8,7.2-1.1,10.1
	c-0.2,2.9-0.5,5.2,2.9,6.2s10.1,1.9,11.1,5.3c1,3.4,5.5,12.6,5.5,12.6s1-3.9,4-6.1c3-2.1,5.8-10.5,12.1-12.1c0,0-1.6-5.3,4-13
	c5.6-7.8,9-19.7,2.2-26.3C396.5,3.4,377.2-4.2,370.3,4.9L370.3,4.9z"/>
<path class="st34" d="M401.7,21.5c0,0-15.1,5.4-15.6,5.4c0,0,0.4,14.4-0.6,15.3c-0.9,0.9-8.6,8.4-19,7.7c0,0,15.9-0.4,19,0.4
	c3,0.8,2.1,3.3,1.5,4.3c-1.6,2.9-5.8,11.9-5.8,11.9s7.9-5.2,18.4-12.4c0,0-2.5-9.3-1.3-13.6C399.6,36.3,401.7,21.5,401.7,21.5z"/>
<path d="M361.9,36c0,0,18.4-1.3,22.9-10.8c-0.1-1,0-2.7,0.3-4.8c1-5.8,5-8.1,3.9-9c-9.5-7.3-17.8-3.3-21-4.1
	c-2.8-0.6,5.2-8.3,18.7-7.3c6.9,0.5,11.8,0.9,19,5c2.2,1.5,3.8,3.4,4.8,5.7c0,0,5.1,7.2-4.6,19.7c-1.8,3-3.4,4.9-3.4,4.9
	c-1.2,2-2.3,6.6-3.4,6.4c-3.3-0.6-7.1-4.5-7.1-4.5s7.3-3.1,7.8-7.3c0.5-4.2-3.1-4.6-4.2-4.4c-1.1,0.2-3.6,0.5-4.7,2.3
	c-0.8,1.3-1.9,3.1-1.9,3.1s-2.2,5.3-0.3,10.8c0,0-4.7,8.9-8.1,11.4c-3.3,2.5-16.3,4.7-18.6,4.1c-2.3-0.6-5.1-1.3-5-3.3
	C357.6,47.3,361.9,36,361.9,36L361.9,36z"/>
<path class="st31" d="M389.2,126.8c-3.5,3.4-10.7,7.5-10.7,7.5c-16.4,5.6-49.7,14.4-49.7,14.4l-3.9-16.8c0,0,52.1-13.6,54.8-17.4
	c2.7-3.8,23.9-42.4,23.9-42.4s6.4-14.5,15.5-0.4c0.6,0.9,0.9,2,1.1,3.1c-0.1,0.3-3,9.1-7.8,18.1
	C407.6,102.1,392.7,123.4,389.2,126.8z"/>
<path class="st32" d="M384.5,132c-1.5,0.6-3.6,1.4-6,2.2c0,0,7.1-4.1,10.7-7.5c3.5-3.4,18.4-24.7,23.3-33.9c4.8-9,7.7-17.8,7.8-18.1
	C423,90.1,395.6,127.4,384.5,132L384.5,132z"/>
<path class="st32" d="M328.3,130.1l-4.6,1.6l4.1,17.4l4.9-1L328.3,130.1z"/>
</svg>
