<svg width="21" height="21" viewBox="0 0 21 21" fill="none" xmlns="http://www.w3.org/2000/svg">
<rect x="0.833252" y="0.549805" width="20" height="20" rx="10" fill="#0071ED"/>
<g clip-path="url(#clip0_56_19031)">
<path d="M15.2625 13.4104C15.1751 14.0751 14.8487 14.6852 14.3443 15.1268C13.8399 15.5683 13.192 15.8112 12.5216 15.81C8.62694 15.81 5.45826 12.6413 5.45826 8.74673C5.45705 8.07635 5.69992 7.42846 6.1415 6.92406C6.58308 6.41966 7.19317 6.09325 7.85782 6.00579C8.0259 5.98526 8.1961 6.01965 8.34303 6.10381C8.48995 6.18797 8.60572 6.31739 8.67305 6.47275L9.709 8.78548V8.79136C9.76055 8.91029 9.78184 9.04013 9.77097 9.16929C9.7601 9.29844 9.71741 9.4229 9.64671 9.53154C9.63788 9.54478 9.62856 9.55704 9.61875 9.5693L8.59751 10.7799C8.9649 11.5264 9.74579 12.3004 10.5022 12.6688L11.6961 11.653C11.7078 11.6431 11.7201 11.6339 11.7328 11.6255C11.8414 11.5531 11.9663 11.5089 12.0962 11.4969C12.2261 11.4849 12.357 11.5055 12.4769 11.5568L12.4833 11.5598L14.7941 12.5952C14.9497 12.6623 15.0795 12.778 15.1639 12.9249C15.2483 13.0719 15.283 13.2422 15.2625 13.4104Z" fill="white"/>
</g>
<defs>
<clipPath id="clip0_56_19031">
<rect width="10" height="10" fill="white" transform="translate(5.45825 6)"/>
</clipPath>
</defs>
</svg>
