<svg width="32" height="20" viewBox="0 0 32 20" fill="none" xmlns="http://www.w3.org/2000/svg">
<path d="M1.18769 20C0.833704 20 0.568217 19.9115 0.391226 19.7345C0.214234 19.4985 0.184736 19.174 0.30273 18.7611L6.67441 0.884955C6.8514 0.294985 7.23488 0 7.82485 0H15.2585C16.0844 0 16.4089 0.383481 16.2319 1.15044L12.1611 19.0266C11.9841 19.6755 11.6007 20 11.0107 20H1.18769ZM16.8514 20C16.4974 20 16.2319 19.9115 16.0549 19.7345C15.878 19.4985 15.8485 19.174 15.9664 18.7611L22.2496 0.884955C22.4266 0.294985 22.8101 0 23.4001 0H30.8337C31.6007 0 31.8956 0.383481 31.7187 1.15044L27.8249 19.0266C27.7069 19.6755 27.3234 20 26.6744 20H16.8514Z" fill="#0071ED"/>
</svg>
