<svg xmlns="http://www.w3.org/2000/svg" xmlns:xlink="http://www.w3.org/1999/xlink" viewBox="0 0 504 428">
<style type="text/css">
	.st0{fill:#00DDF7;}
	.st1{fill:#004E7C;}
	.st2{fill:#FF40FF;}
	.st3{fill:#FF99FF;}
	.st4{fill:#006AC2;}
	.st5{fill:#21CFFF;}
	.st6{fill:#0071ED;}
	.st7{fill:#E6E6E6;}
	.st8{fill:#A6A8A9;}
	.st9{fill:#DCB87A;}
	.st10{fill:#BD934A;}
	.st11{fill:#A47729;}
	.st12{fill:#E7F4FA;}
	.st13{fill:#4FE5FF;}
	.st14{opacity:0.15;enable-background:new    ;}
	.st15{fill:#FFCCAA;}
	.st16{fill:#219BFF;}
	.st17{fill:#CE13FF;}
	.st18{fill:#008CFF;}
	.st19{fill:#37444F;}
	.st20{fill:#B0ED2B;}
	.st21{fill:#92D600;}
	.st22{fill:#BFFF36;}
	.st23{fill:#007BE0;}
	.st24{fill:#AB4D00;}
	.st25{fill:#C95E00;}
	.st26{fill:#4E4E4E;}
	.st27{opacity:0.3;enable-background:new    ;}
	.st28{fill:#E4BB75;}
	.st29{fill:#005DAB;}
	.st30{fill:#0078DB;}
	.st31{fill:#841500;}
	.st32{fill:#9A3100;}
	.st33{fill:#00D9FF;}
	.st34{fill:#004B8A;}
	.st35{fill:#691E1D;}
	.st36{fill:#E83AE8;}
	.st37{fill:#E0EDFF;}
	.st38{fill:#4083FF;}
	.st39{fill:#3164C7;}
	.st40{fill:#6B5252;}
	.st41{fill:#008BFF;}
	.st42{fill:#265983;}
	.st43{fill:#2D6A9C;}
	.st44{fill:none;stroke:#FFFFFF;stroke-width:0.5;stroke-linecap:round;stroke-linejoin:round;stroke-dasharray:3;}	
	.st45{fill:none;stroke:#FFFFFF;stroke-width:0.5;stroke-linecap:round;stroke-linejoin:round;stroke-miterlimit:10;stroke-dasharray:3;}
	@keyframes dash {
		from {
		  stroke-dashoffset: 400;
		}
		to {
		  stroke-dashoffset: 0;
		}
	}
	.line path {
		animation: dash 50s linear infinite;
	}
</style>
<g>
	<g>
		<path class="st0" d="M116.3,338.3c-0.1,0-0.3-0.1-0.3-0.2c-0.1-0.2,0-0.4,0.1-0.5l85.9-49.7c0.2-0.1,0.4,0,0.5,0.1
			c0.1,0.2,0,0.4-0.1,0.5l-85.9,49.7C116.6,338.2,116.5,338.3,116.3,338.3z"/>
		<path class="st0" d="M212.5,396c0,0-0.1,0-0.2-0.1l-94.1-54.4c-0.2-0.1-0.2-0.3-0.1-0.5s0.3-0.2,0.5-0.1l94.1,54.4
			c0.2,0.1,0.2,0.3,0.1,0.5C212.8,396,212.6,396,212.5,396z"/>
		<path class="st0" d="M164.5,423.8c-0.1,0-0.3-0.1-0.3-0.2c-0.1-0.2,0-0.4,0.1-0.5l48-27.8c0.2-0.1,0.4,0,0.5,0.1s0,0.4-0.1,0.5
			l-48,27.8C164.7,423.7,164.6,423.8,164.5,423.8z"/>
		<path class="st0" d="M15.7,383.4c-0.1,0-0.3-0.1-0.3-0.2c-0.1-0.2,0-0.4,0.1-0.5l50.6-29.2c0.2-0.1,0.4,0,0.5,0.1
			c0.1,0.2,0,0.4-0.1,0.5l-50.6,29.2C15.9,383.4,15.7,383.4,15.7,383.4z"/>
		<path class="st0" d="M52.8,404.9c0,0-0.1,0-0.2-0.1l-37.2-21.5c-0.2-0.1-0.2-0.3-0.1-0.5c0.1-0.2,0.3-0.2,0.5-0.1l37.2,21.5
			c0.2,0.1,0.2,0.3,0.1,0.5C53.1,404.9,53,404.9,52.8,404.9z"/>
		<path class="st0" d="M52.8,404.9c-0.1,0-0.3-0.1-0.3-0.2c-0.1-0.2,0-0.4,0.1-0.5l32.8-19c0.2-0.1,0.4,0,0.5,0.1
			c0.1,0.2,0,0.4-0.1,0.5l-32.8,19C53.1,404.9,52.8,404.9,52.8,404.9z"/>
		<path class="st0" d="M125.2,408.8c0,0-0.1,0-0.2-0.1l-39.6-22.9c-0.2-0.1-0.2-0.3-0.1-0.5s0.3-0.2,0.5-0.1l39.6,22.9
			c0.2,0.1,0.2,0.3,0.1,0.5C125.5,408.8,125.3,408.8,125.2,408.8z"/>
		<path class="st0" d="M63.3,317.6c0,0-0.1,0-0.2-0.1l-51.9-30c-0.2-0.1-0.2-0.3-0.1-0.5c0.1-0.2,0.3-0.2,0.5-0.1l51.9,30
			c0.2,0.1,0.2,0.3,0.1,0.5C63.6,317.5,63.5,317.6,63.3,317.6z"/>
		<path class="st0" d="M188.9,325c-0.1,0-0.3-0.1-0.3-0.2c-0.1-0.2,0-0.4,0.1-0.5l44.7-25.8c0.2-0.1,0.4,0,0.5,0.1
			c0.1,0.2,0,0.4-0.1,0.5l-44.7,25.8C189.1,324.9,189,325,188.9,325z"/>
		<path class="st0" d="M311.1,395.6c0,0-0.1,0-0.2-0.1l-122.2-70.6c-0.2-0.1-0.2-0.3-0.1-0.5s0.3-0.2,0.5-0.1l122.2,70.6
			c0.2,0.1,0.2,0.3,0.1,0.5C311.4,395.6,311.1,395.6,311.1,395.6z"/>
		<path class="st0" d="M259.7,425.3c-0.1,0-0.3-0.1-0.3-0.2c-0.1-0.2,0-0.4,0.1-0.5l51.4-29.7c0.2-0.1,0.4,0,0.5,0.1
			c0.1,0.2,0,0.4-0.1,0.5l-51.4,29.7C259.9,425.3,259.8,425.3,259.7,425.3z"/>
		<path class="st0" d="M363.5,425.9c0,0-0.1,0-0.2-0.1L311,395.6c-0.2-0.1-0.2-0.3-0.1-0.5s0.3-0.2,0.5-0.1l52.3,30.3
			c0.2,0.1,0.2,0.3,0.1,0.5C363.6,425.8,363.6,425.9,363.5,425.9L363.5,425.9z"/>
		<path class="st0" d="M317,365.8c-0.1,0-0.3-0.1-0.3-0.2c-0.1-0.2,0-0.4,0.1-0.5l39.2-22.7c0.2-0.1,0.4,0,0.5,0.1
			c0.1,0.2,0,0.4-0.1,0.5l-39.2,22.7C317.1,365.8,317.1,365.8,317,365.8z"/>
		<path class="st0" d="M408.4,418.6c0,0-0.1,0-0.2-0.1l-91.4-52.8c-0.2-0.1-0.2-0.3-0.1-0.5s0.3-0.2,0.5-0.1l91.4,52.8
			c0.2,0.1,0.2,0.3,0.1,0.5S408.5,418.6,408.4,418.6z"/>
		<path class="st0" d="M349.4,324.8c0,0-0.1,0-0.2-0.1l-50.9-29.4c-0.2-0.1-0.2-0.3-0.1-0.5s0.3-0.2,0.5-0.1l50.9,29.4
			c0.2,0.1,0.2,0.3,0.1,0.5C349.6,324.7,349.6,324.8,349.4,324.8z"/>
		<path class="st0" d="M460.1,370c0,0-0.1,0-0.2-0.1l-46.9-27.1c-0.2-0.1-0.2-0.3-0.1-0.5s0.3-0.2,0.5-0.1l46.9,27.1
			c0.2,0.1,0.2,0.3,0.1,0.5C460.5,369.9,460.4,370,460.1,370z"/>
		<path class="st0" d="M420.4,318.9c-0.1,0-0.3-0.1-0.3-0.2c-0.1-0.2,0-0.4,0.1-0.5l78.8-45.6c0.2-0.1,0.4,0,0.5,0.1
			c0.1,0.2,0,0.4-0.1,0.5l-78.8,45.6C420.6,318.9,420.5,318.9,420.4,318.9z"/>
		<path class="st0" d="M319.9,204.9c-0.1,0-0.3-0.1-0.3-0.2c-0.1-0.2,0-0.4,0.1-0.5l32.6-18.8c0.2-0.1,0.4,0,0.5,0.1
			c0.1,0.2,0,0.4-0.1,0.5L320,204.8C320.1,204.8,320,204.9,319.9,204.9z"/>
		<path class="st0" d="M116.2,195.5c0,0-0.1,0-0.2-0.1l-34.4-19.9c-0.2-0.1-0.2-0.3-0.1-0.5c0.1-0.2,0.3-0.2,0.5-0.1l34.4,19.9
			c0.2,0.1,0.2,0.3,0.1,0.5C116.3,195.4,116.2,195.5,116.2,195.5z"/>
		<path class="st0" d="M32.5,204c-0.1,0-0.3-0.1-0.3-0.2c-0.1-0.2,0-0.4,0.1-0.5l49.3-28.5c0.2-0.1,0.4,0,0.5,0.1
			c0.1,0.2,0,0.4-0.1,0.5l-49.3,28.5C32.6,204,32.5,204,32.5,204z"/>
		<path class="st0" d="M32.5,204c0,0-0.1,0-0.2-0.1L3,187c-0.2-0.1-0.2-0.3-0.1-0.5c0.1-0.2,0.3-0.2,0.5-0.1l29.3,16.9
			c0.2,0.1,0.2,0.3,0.1,0.5C32.7,204,32.6,204,32.5,204z"/>
		<path class="st0" d="M425.4,256.4c-0.1,0-0.3-0.1-0.3-0.2c-0.1-0.2,0-0.4,0.1-0.5l29.6-17.1c0.2-0.1,0.4,0,0.5,0.1
			c0.1,0.2,0,0.4-0.1,0.5l-29.6,17.1C425.6,256.4,425.5,256.4,425.4,256.4z"/>
		<path class="st0" d="M474.9,250.8c0,0-0.1,0-0.2-0.1l-19.9-11.5c-0.2-0.1-0.2-0.3-0.1-0.5c0.1-0.2,0.3-0.2,0.5-0.1l19.9,11.5
			c0.2,0.1,0.2,0.3,0.1,0.5C475.1,250.8,475,250.8,474.9,250.8z"/>
		<path class="st0" d="M474.9,250.8c-0.1,0-0.3-0.1-0.3-0.2c-0.1-0.2,0-0.4,0.1-0.5l26-15c0.2-0.1,0.4,0,0.5,0.1
			c0.1,0.2,0,0.4-0.1,0.5l-26,15C475.1,250.8,475,250.8,474.9,250.8z"/>
		<path class="st0" d="M331.1,403.6c0,0-0.1,0-0.2-0.1l-52.5-30.3c-0.2-0.1-0.2-0.3-0.1-0.5s0.3-0.2,0.5-0.1l52.5,30.3
			c0.2,0.1,0.2,0.3,0.1,0.5C331.4,403.5,331.1,403.6,331.1,403.6z"/>
		<path class="st0" d="M185.2,407.2c-0.1,0-0.3-0.1-0.3-0.2c-0.1-0.2,0-0.4,0.1-0.5l20-11.6c0.2-0.1,0.4,0,0.5,0.1
			c0.1,0.2,0,0.4-0.1,0.5l-20,11.6C185.5,407.2,185.2,407.2,185.2,407.2z"/>
		<path class="st0" d="M205.2,395.7c0,0-0.1,0-0.2-0.1l-16.5-9.5c-0.2-0.1-0.2-0.3-0.1-0.5s0.3-0.2,0.5-0.1l16.5,9.5
			c0.2,0.1,0.2,0.3,0.1,0.5C205.5,395.6,205.4,395.7,205.2,395.7z"/>
		<path class="st0" d="M52.8,409c0,0-0.1,0-0.2-0.1l-15-8.7c-0.2-0.1-0.2-0.3-0.1-0.5s0.3-0.2,0.5-0.1l15,8.7
			c0.2,0.1,0.2,0.3,0.1,0.5C53.1,408.9,53,409,52.8,409z"/>
		<path class="st0" d="M52.8,409c-0.1,0-0.3-0.1-0.3-0.2c-0.1-0.2,0-0.4,0.1-0.5l16.4-9.5c0.2-0.1,0.4,0,0.5,0.1
			c0.1,0.2,0,0.4-0.1,0.5l-16.4,9.5C53,408.9,52.8,409,52.8,409z"/>
		<path class="st0" d="M118.3,400.7c0,0-0.1,0-0.2-0.1l-16.1-9.3c-0.2-0.1-0.2-0.3-0.1-0.5s0.3-0.2,0.5-0.1l16.1,9.3
			c0.2,0.1,0.2,0.3,0.1,0.5C118.7,400.6,118.6,400.7,118.3,400.7z"/>
		<path class="st0" d="M177.8,306.2c-0.1,0-0.3-0.1-0.3-0.2c-0.1-0.2,0-0.4,0.1-0.5l31.1-18c0.2-0.1,0.4,0,0.5,0.1
			c0.1,0.2,0,0.4-0.1,0.5l-31.1,18C178,306.1,177.9,306.2,177.8,306.2z"/>
		<path class="st0" d="M56,316.3c0,0-0.1,0-0.2-0.1l-36.2-20.9c-0.2-0.1-0.2-0.3-0.1-0.5c0.1-0.2,0.3-0.2,0.5-0.1l36.2,20.9
			c0.2,0.1,0.2,0.3,0.1,0.5C56.2,316.2,56.1,316.3,56,316.3z"/>
		<path class="st0" d="M318.5,310.4c0,0-0.1,0-0.2-0.1l-14.8-8.6c-0.2-0.1-0.2-0.3-0.1-0.5s0.3-0.2,0.5-0.1l14.8,8.6
			c0.2,0.1,0.2,0.3,0.1,0.5C318.8,310.3,318.6,310.4,318.5,310.4z"/>
		<path class="st0" d="M458.4,365.8c0,0-0.1,0-0.2-0.1l-13.7-7.9c-0.2-0.1-0.2-0.3-0.1-0.5c0.1-0.2,0.3-0.2,0.5-0.1l13.7,7.9
			c0.2,0.1,0.2,0.3,0.1,0.5C458.6,365.8,458.5,365.8,458.4,365.8z"/>
		<path class="st0" d="M399.1,409.9c0,0-0.1,0-0.2-0.1l-22.7-13.1c-0.2-0.1-0.2-0.3-0.1-0.5c0.1-0.2,0.3-0.2,0.5-0.1l22.7,13.1
			c0.2,0.1,0.2,0.3,0.1,0.5C399.4,409.9,399.2,409.9,399.1,409.9z"/>
		<path class="st0" d="M326.2,357.6c-0.1,0-0.3-0.1-0.3-0.2c-0.1-0.2,0-0.4,0.1-0.5l29.3-16.9c0.2-0.1,0.4,0,0.5,0.1
			c0.1,0.2,0,0.4-0.1,0.5l-29.3,16.9C326.5,357.5,326.4,357.6,326.2,357.6z"/>
		<path class="st0" d="M462.9,296.8c-0.1,0-0.3-0.1-0.3-0.2c-0.1-0.2,0-0.4,0.1-0.5l24.5-14.2c0.2-0.1,0.4,0,0.5,0.1
			c0.1,0.2,0,0.4-0.1,0.5l-24.5,14.2C463.1,296.7,463,296.8,462.9,296.8z"/>
		<path class="st0" d="M475.1,253.7c0,0-0.1,0-0.2-0.1l-8.7-5c-0.2-0.1-0.2-0.3-0.1-0.5c0.1-0.2,0.3-0.2,0.5-0.1l8.7,5
			c0.2,0.1,0.2,0.3,0.1,0.5C475.5,253.6,475.4,253.7,475.1,253.7z"/>
		<path class="st0" d="M475.1,253.7c-0.1,0-0.3-0.1-0.3-0.2c-0.1-0.2,0-0.4,0.1-0.5l14.4-8.3c0.2-0.1,0.4,0,0.5,0.1
			c0.1,0.2,0,0.4-0.1,0.5l-14.4,8.3C475.4,253.6,475.2,253.7,475.1,253.7z"/>
		<path class="st0" d="M316.6,210.5c-0.1,0-0.3-0.1-0.3-0.2c-0.1-0.2,0-0.4,0.1-0.5l27.1-15.6c0.2-0.1,0.4,0,0.5,0.1
			c0.1,0.2,0,0.4-0.1,0.5l-27.1,15.6C316.9,210.4,316.6,210.5,316.6,210.5z"/>
		<path class="st0" d="M93.8,185.6c0,0-0.1,0-0.2-0.1l-12-6.9c-0.2-0.1-0.2-0.3-0.1-0.5c0.1-0.2,0.3-0.2,0.5-0.1l12,6.9
			c0.2,0.1,0.2,0.3,0.1,0.5C94.1,185.5,94,185.6,93.8,185.6z"/>
		<path class="st0" d="M69.5,185.8c-0.1,0-0.3-0.1-0.3-0.2c-0.1-0.2,0-0.4,0.1-0.5l12.3-7.1c0.2-0.1,0.4,0,0.5,0.1
			c0.1,0.2,0,0.4-0.1,0.5l-12.3,7.1C69.7,185.8,69.6,185.8,69.5,185.8z"/>
		<path class="st0" d="M25.4,202.7c0,0-0.1,0-0.2-0.1l-14.6-8.4c-0.2-0.1-0.2-0.3-0.1-0.5c0.1-0.2,0.3-0.2,0.5-0.1l14.6,8.4
			c0.2,0.1,0.2,0.3,0.1,0.5C25.5,202.6,25.5,202.7,25.4,202.7z"/>
		<path class="st0" d="M407.2,419.4c1.7,0,3.1-0.8,3.1-1.8s-1.4-1.8-3.1-1.8c-1.7,0-3.1,0.8-3.1,1.8
			C404.1,418.6,405.5,419.4,407.2,419.4z"/>
		<path class="st0" d="M367.1,424.9c1.2,0.7,1.2,1.9,0,2.6c-1.2,0.7-3.2,0.7-4.4,0c-1.2-0.7-1.2-1.9,0-2.6
			C364,424.2,366,424.2,367.1,424.9z"/>
		<path class="st0" d="M260.5,423.7c1.2,0.7,1.2,1.9,0,2.6s-3.2,0.7-4.4,0c-1.2-0.7-1.2-1.9,0-2.6C257.2,423,259.2,423,260.5,423.7z
			"/>
		<path class="st0" d="M166.7,422.1c1.2,0.7,1.2,1.9,0,2.6s-3.2,0.7-4.4,0c-1.2-0.7-1.2-1.9,0-2.6
			C163.5,421.4,165.5,421.4,166.7,422.1z"/>
		<path class="st0" d="M126.2,406.4c1.2,0.7,1.2,1.9,0,2.6s-3.2,0.7-4.4,0c-1.2-0.7-1.2-1.9,0-2.6C123,405.7,125,405.7,126.2,406.4z
			"/>
		<path class="st0" d="M12,284.9c1.2,0.7,1.2,1.9,0,2.6s-3.2,0.7-4.4,0s-1.2-1.9,0-2.6C8.7,284.2,10.7,284.2,12,284.9z"/>
		<path class="st0" d="M5.4,185.4c1.2,0.7,1.2,1.9,0,2.6s-3.2,0.7-4.4,0c-1.2-0.7-1.2-1.9,0-2.6C2,184.7,4,184.7,5.4,185.4z"/>
		<path class="st0" d="M355.5,183.6c1.2,0.7,1.2,1.9,0,2.6c-1.2,0.7-3.2,0.7-4.4,0c-1.2-0.7-1.2-1.9,0-2.6
			C352.2,182.9,354.2,182.9,355.5,183.6z"/>
		<path class="st0" d="M503.1,233.6c1.2,0.7,1.2,1.9,0,2.6c-1.2,0.7-3.2,0.7-4.4,0c-1.2-0.7-1.2-1.9,0-2.6
			C499.9,232.9,501.8,232.9,503.1,233.6z"/>
		<path class="st0" d="M502.1,271c1.2,0.7,1.2,1.9,0,2.6c-1.2,0.7-3.2,0.7-4.4,0c-1.2-0.7-1.2-1.9,0-2.6
			C498.9,270.3,500.9,270.3,502.1,271z"/>
		<path class="st0" d="M464.2,369.3c1.2,0.7,1.2,1.9,0,2.6c-1.2,0.7-3.2,0.7-4.4,0c-1.2-0.7-1.2-1.9,0-2.6
			C461,368.6,463,368.6,464.2,369.3z"/>
		<path class="st1" d="M25.9,343.1c0,1.1,0.7,2.2,2.1,3.1l62.5,36.1c3.1,1.8,8.6,1.6,12.2-0.5l60.9-35.2c2-1.1,3-2.6,3-4
			c0-1.1-0.7-2.2-2.1-3.1L102,303.4c-3.1-1.8-8.6-1.6-12.2,0.5l-60.9,35.2C26.9,340.3,25.9,341.7,25.9,343.1L25.9,343.1z"/>
		<path class="st1" d="M72.6,242.9c0,1.1,0.7,2.2,2.1,3.1l62.5,36.1c3.1,1.8,8.6,1.6,12.2-0.5l60.9-35.2c2-1.1,3-2.6,3-4
			c0-1.1-0.7-2.2-2.1-3.1l-62.5-36.1c-3.1-1.8-8.6-1.6-12.2,0.5l-60.9,35.2C73.6,240.1,72.6,241.5,72.6,242.9L72.6,242.9z"/>
		<path class="st1" d="M321.4,334.8c0,1.1,0.7,2.2,2.1,3.1L386,374c3.1,1.8,8.6,1.6,12.2-0.5l51.9-30c2-1.1,3-2.6,3-4
			c0-1.1-0.7-2.2-2.1-3.1l-62.5-36.1c-3.1-1.8-8.6-1.6-12.2,0.5l-51.9,30C322.4,331.9,321.4,333.4,321.4,334.8z"/>
		<path class="st1" d="M169.9,287.3c0,1.4,0.8,2.7,2.6,3.7l76.7,44.3c3.8,2.2,10.5,1.9,14.9-0.6l74.7-43.2c2.4-1.4,3.7-3.2,3.7-4.9
			c0-1.4-0.8-2.8-2.6-3.8l-76.7-44.3c-3.8-2.2-10.5-1.9-14.9,0.6l-74.7,43.1C171.2,283.8,169.9,285.6,169.9,287.3L169.9,287.3z"/>
		<path class="st2" d="M92,158.4v85.9c0,0.9,0.5,1.8,1.7,2.4l49,28.3c2.4,1.4,6.7,1.2,9.6-0.4L200,247c1.5-0.9,2.3-2,2.3-3.1V158
			c0,1.1-0.8,2.2-2.3,3.1l-47.7,27.6c-2.8,1.6-7.1,1.8-9.6,0.4l-49-28.3C92.6,160.2,92,159.3,92,158.4L92,158.4z"/>
		<path class="st3" d="M92,158.4c0,0.9,0.5,1.8,1.7,2.4l49,28.3c2.4,1.4,6.7,1.2,9.6-0.4l47.7-27.6c1.5-0.9,2.3-2,2.3-3.1
			c0-0.9-0.5-1.8-1.7-2.4l-49-28.3c-2.5-1.4-6.7-1.2-9.6,0.4l-47.7,27.6C92.7,156.2,92,157.3,92,158.4z"/>
		<path class="st4" d="M192.8,158c0,0.6-0.3,1.3-0.9,1.8c-0.3,0.3-0.6,0.5-1,0.7l-39.6,22.9c-2.3,1.3-5.9,1.5-7.9,0.3l-40.5-23.4
			c-0.2-0.1-0.3-0.2-0.4-0.3c-0.6-0.5-0.9-1.1-0.9-1.7c0-0.9,0.7-1.8,1.9-2.6l39.6-22.9c2.3-1.3,5.9-1.5,7.9-0.3l40.5,23.4
			C192.4,156.6,192.8,157.3,192.8,158z"/>
		<path class="st2" d="M191.9,159.9c-0.3,0.3-0.6,0.5-1,0.7l-39.6,22.9c-2.3,1.3-5.9,1.5-7.9,0.3l-40.5-23.4
			c-0.2-0.1-0.3-0.2-0.4-0.3c0.3-0.3,0.6-0.5,1-0.7l39.6-22.9c2.3-1.3,5.9-1.5,7.9-0.3l40.5,23.4
			C191.6,159.7,191.8,159.7,191.9,159.9z"/>
		<path class="st5" d="M198.5,170.8l-13.3,7.7v6l13.3-7.7V170.8z"/>
		<path class="st5" d="M198.5,180.1l-13.3,7.7v6l13.3-7.7V180.1z"/>
		<path class="st5" d="M198.5,189.4l-13.3,7.7v6l13.3-7.7V189.4z"/>
		<path class="st5" d="M198.5,198.7l-13.3,7.7v6l13.3-7.7V198.7z"/>
		<path class="st5" d="M198.5,208l-13.3,7.7v6l13.3-7.7V208z"/>
		<path class="st5" d="M198.5,217.3l-13.3,7.7v6l13.3-7.7V217.3z"/>
		<path class="st5" d="M182.5,180.1l-13.3,7.7v6l13.3-7.7V180.1z"/>
		<path class="st5" d="M182.5,189.4l-13.3,7.7v6l13.3-7.7V189.4z"/>
		<path class="st5" d="M182.5,198.7l-13.3,7.7v6l13.3-7.7V198.7z"/>
		<path class="st5" d="M182.5,207.9l-13.3,7.7v6l13.3-7.7V207.9z"/>
		<path class="st5" d="M182.5,217.2l-13.3,7.7v6l13.3-7.7V217.2z"/>
		<path class="st5" d="M182.5,226.6l-13.3,7.7v6l13.3-7.7V226.6z"/>
		<path class="st5" d="M166.4,189.3l-13.3,7.7v6l13.3-7.7V189.3z"/>
		<path class="st5" d="M166.4,198.6l-13.3,7.7v6l13.3-7.7V198.6z"/>
		<path class="st5" d="M166.4,207.9l-13.3,7.7v6l13.3-7.7V207.9z"/>
		<path class="st5" d="M166.4,217.2l-13.3,7.7v6l13.3-7.7V217.2z"/>
		<path class="st5" d="M166.4,226.5l-13.3,7.7v6l13.3-7.7V226.5z"/>
		<path class="st5" d="M166.4,235.8l-13.3,7.7v6l13.3-7.7V235.8z"/>
		<path class="st4" d="M96,170.6l13.3,7.7v6L96,176.6V170.6z"/>
		<path class="st4" d="M96,179.9l13.3,7.7v6L96,185.9V179.9z"/>
		<path class="st4" d="M96,189.3l13.3,7.7v6L96,195.3V189.3z"/>
		<path class="st4" d="M96,198.5l13.3,7.7v6L96,204.5V198.5z"/>
		<path class="st4" d="M96,207.8l13.3,7.7v6L96,213.8V207.8z"/>
		<path class="st4" d="M96,217.1l13.3,7.7v6L96,223.1V217.1z"/>
		<path class="st4" d="M112.1,179.9l13.3,7.7v6l-13.3-7.7V179.9z"/>
		<path class="st4" d="M112.1,189.2l13.3,7.7v6l-13.3-7.7V189.2z"/>
		<path class="st4" d="M112.1,198.5l13.3,7.7v6l-13.3-7.7V198.5z"/>
		<path class="st4" d="M112.1,207.8l13.3,7.7v6l-13.3-7.7V207.8z"/>
		<path class="st4" d="M112.1,217.1l13.3,7.7v6l-13.3-7.7V217.1z"/>
		<path class="st4" d="M112.1,226.4l13.3,7.7v6l-13.3-7.7V226.4z"/>
		<path class="st4" d="M128.2,189.2l13.3,7.7v6l-13.3-7.7V189.2z"/>
		<path class="st4" d="M128.2,198.5l13.3,7.7v6l-13.3-7.7V198.5z"/>
		<path class="st4" d="M128.2,207.8l13.3,7.7v6l-13.3-7.7V207.8z"/>
		<path class="st4" d="M128.2,217.1l13.3,7.7v6l-13.3-7.7V217.1z"/>
		<path class="st4" d="M128.2,226.4l13.3,7.7v6l-13.3-7.7V226.4z"/>
		<path class="st4" d="M128.2,235.7l13.3,7.7v6l-13.3-7.7V235.7z"/>
		<path class="st5" d="M198.5,226.2l-13.3,7.7v6l13.3-7.7V226.2z"/>
		<path class="st5" d="M182.5,235.5l-13.3,7.7v6l13.3-7.7V235.5z"/>
		<path class="st5" d="M166.4,244.8l-13.3,7.7v6l13.3-7.7V244.8z"/>
		<path class="st4" d="M96,226.1l13.3,7.7v6L96,232.1V226.1z"/>
		<path class="st4" d="M112.1,235.4l13.3,7.7v6l-13.3-7.7V235.4z"/>
		<path class="st4" d="M128.2,244.7l13.3,7.7v6l-13.3-7.7V244.7z"/>
		<path class="st5" d="M198.5,235.2l-13.3,7.7v6l13.3-7.7V235.2z"/>
		<path class="st5" d="M182.5,244.5l-13.3,7.7v6l13.3-7.7V244.5z"/>
		<path class="st5" d="M166.4,253.8l-13.3,7.7v6l13.3-7.7V253.8z"/>
		<path class="st4" d="M96,235.1l13.3,7.7v6L96,241.1V235.1z"/>
		<path class="st4" d="M112.1,244.4l13.3,7.7v6l-13.3-7.7V244.4z"/>
		<path class="st4" d="M128.2,253.7l13.3,7.7v6l-13.3-7.7V253.7z"/>
		<path class="st1" d="M176.7,118.7V285c0,1.3,0.8,2.5,2.4,3.4l70.4,40.7c3.5,2,9.6,1.8,13.7-0.6l67.1-38.8c2.2-1.3,3.3-2.9,3.3-4.5
			V119c0,1.5-1.1,3.2-3.3,4.5l-67.1,38.8c-4.1,2.4-10.2,2.6-13.7,0.6l-70.4-40.7C177.4,121.2,176.7,120,176.7,118.7L176.7,118.7z"/>
		<path class="st6" d="M176.7,118.7c0,1.3,0.8,2.5,2.4,3.4l70.4,40.7c3.5,2,9.6,1.8,13.7-0.6l67.1-38.8c2.2-1.3,3.3-2.9,3.3-4.5
			c0-1.3-0.8-2.5-2.4-3.4l-70.4-40.7c-3.5-2-9.6-1.8-13.7,0.6L180,114.2C177.8,115.5,176.7,117.1,176.7,118.7L176.7,118.7z"/>
		<path class="st7" d="M319.9,119c0,0.9-0.5,1.8-1.3,2.6c-0.4,0.4-0.9,0.7-1.4,1.1l-55.5,32.1c-3.3,1.9-8.4,2.1-11.3,0.5l-58.2-33.6
			c-0.2-0.1-0.4-0.3-0.6-0.4c-0.9-0.7-1.3-1.5-1.3-2.4c0-1.3,0.9-2.6,2.8-3.7l55.4-32c3.3-1.9,8.4-2.1,11.3-0.5l58.2,33.6
			C319.2,116.9,319.9,117.9,319.9,119L319.9,119z"/>
		<path class="st1" d="M318.6,121.6c-0.4,0.4-0.9,0.7-1.4,1.1l-55.5,32.1c-3.3,1.9-8.4,2.1-11.3,0.5l-58.2-33.6
			c-0.2-0.1-0.4-0.3-0.6-0.4c0.4-0.4,0.9-0.7,1.4-1.1l55.4-32c3.3-1.9,8.4-2.1,11.3-0.5l58.2,33.6
			C318.1,121.3,318.4,121.5,318.6,121.6z"/>
		<path class="st8" d="M268.5,169.9l-7,4.1v149.5l7-4.1V169.9z"/>
		<path class="st8" d="M280.8,162.8l-7,4.1v149.5l7-4.1V162.8z"/>
		<path class="st8" d="M293,155.7l-7,4.1v149.5l7-4.1V155.7z"/>
		<path class="st8" d="M305.2,148.6l-7,4.1v149.5l7-4.1V148.6z"/>
		<path class="st8" d="M317.6,141.5l-7,4.1v149.5l7-4.1V141.5z"/>
		<path class="st8" d="M329.9,134.5l-7,4.1v149.5l7-4.1V134.5z"/>
		<path class="st7" d="M242.9,169.2l7,4.1v149.5l-7-4.1V169.2z"/>
		<path class="st7" d="M230.7,162.1l7,4.1v149.5l-7-4.1V162.1z"/>
		<path class="st7" d="M218.4,155l7,4.1v149.5l-7-4.1V155z"/>
		<path class="st7" d="M206.1,147.9l7,4.1v149.5l-7-4.1V147.9z"/>
		<path class="st7" d="M193.9,140.8l7,4.1v149.5l-7-4.1V140.8z"/>
		<path class="st7" d="M181.6,133.7l7,4.1v149.5l-7-4.1V133.7z"/>
		<path class="st9" d="M328.1,233v99.1c0,1,0.6,2,1.9,2.8l56.6,32.7c2.8,1.6,7.8,1.4,11-0.5l44.3-25.6c1.8-1,2.7-2.4,2.7-3.6v-99.1
			c0,1.3-0.9,2.6-2.7,3.6L397.6,268c-3.3,1.9-8.2,2.1-11,0.5L330,235.8C328.8,235.1,328.1,234.1,328.1,233L328.1,233z"/>
		<path class="st10" d="M328.1,233c0,1,0.6,2,1.9,2.8l56.6,32.7c2.8,1.6,7.8,1.4,11-0.5l44.3-25.6c1.8-1,2.7-2.4,2.7-3.6
			c0-1-0.6-2-1.9-2.8l-56.6-32.7c-2.8-1.6-7.8-1.4-11,0.5l-44.3,25.6C329.1,230.5,328.1,231.8,328.1,233z"/>
		<path class="st11" d="M433.8,238.9c0,0.7-0.4,1.5-1.1,2.1c-0.3,0.3-0.7,0.6-1.1,0.8L396.7,262c-2.7,1.5-6.8,1.7-9.1,0.4l-46.8-27
			c-0.2-0.1-0.4-0.2-0.5-0.3c-0.7-0.6-1.1-1.2-1.1-1.9c0-1,0.7-2.1,2.2-3l34.9-20.2c2.7-1.5,6.8-1.7,9.1-0.4l46.8,27
			C433.2,237.2,433.8,238,433.8,238.9L433.8,238.9z"/>
		<path class="st9" d="M432.6,241c-0.3,0.3-0.7,0.6-1.1,0.8L396.6,262c-2.7,1.5-6.8,1.7-9.1,0.4l-46.8-27c-0.2-0.1-0.4-0.2-0.5-0.3
			c0.3-0.3,0.7-0.6,1.2-0.9l34.9-20.2c2.7-1.5,6.8-1.7,9.1-0.4l46.8,27C432.4,240.8,432.6,240.9,432.6,241z"/>
		<path class="st7" d="M332.2,244.3l51.1,29.5v5.6l-51.1-29.5V244.3L332.2,244.3z"/>
		<path class="st7" d="M332.2,253.1l51.1,29.5v5.6l-51.1-29.5V253.1L332.2,253.1z"/>
		<path class="st7" d="M332.2,261.8l51.1,29.5v5.6l-51.1-29.5V261.8L332.2,261.8z"/>
		<path class="st7" d="M332.2,270.6l51.1,29.5v5.6l-51.1-29.5V270.6L332.2,270.6z"/>
		<path class="st7" d="M332.2,279.4l51.1,29.5v5.6L332.2,285V279.4L332.2,279.4z"/>
		<path class="st7" d="M332.2,288.2l51.1,29.5v5.7l-51.1-29.5V288.2L332.2,288.2z"/>
		<path class="st12" d="M440,251.1l-39.2,22.7v5.6l39.2-22.7V251.1z"/>
		<path class="st12" d="M440,259.9l-39.2,22.7v5.6l39.2-22.7V259.9z"/>
		<path class="st12" d="M440,268.7l-39.2,22.7v5.6l39.2-22.7V268.7z"/>
		<path class="st12" d="M440,277.5l-39.2,22.7v5.6l39.2-22.7V277.5z"/>
		<path class="st12" d="M440,286.2l-39.2,22.7v5.6l39.2-22.7V286.2z"/>
		<path class="st12" d="M440,295l-39.2,22.7v5.7l39.2-22.7V295z"/>
		<path class="st7" d="M332.2,297l51.1,29.5v5.6l-51.1-29.5V297L332.2,297z"/>
		<path class="st7" d="M332.2,305.8l51.1,29.5v5.7l-51.1-29.5V305.8L332.2,305.8z"/>
		<path class="st7" d="M332.2,314.6l51.1,29.5v5.7l-51.1-29.5V314.6L332.2,314.6z"/>
		<path class="st7" d="M332.2,323.4l51.1,29.5v5.7l-51.1-29.5V323.4L332.2,323.4z"/>
		<path class="st12" d="M440,303.9l-39.2,22.7v5.6l39.2-22.7V303.9z"/>
		<path class="st12" d="M440,312.7l-39.2,22.7v5.7l39.2-22.7V312.7z"/>
		<path class="st12" d="M440,321.4l-39.2,22.7v5.7l39.2-22.7V321.4z"/>
		<path class="st12" d="M440,330.2l-39.2,22.7v5.7l39.2-22.7V330.2z"/>
		<path class="st1" d="M488.2,181.3v1.3c0,0.3-0.2,0.7-0.6,0.9l-42.5,24.6c-0.9,0.5-2.5,0.5-3.6-0.1L386,175.9
			c-0.6-0.3-0.9-0.8-0.9-1.2v-1.3c0,0.4,0.3,0.8,0.9,1.2l55.6,32.1c1.1,0.6,2.7,0.7,3.6,0.1l42.5-24.6
			C488.1,182,488.2,181.7,488.2,181.3L488.2,181.3z"/>
		<path class="st13" d="M488.2,181.3c0,0.3-0.2,0.7-0.6,0.9l-42.5,24.6c-0.9,0.5-2.5,0.5-3.6-0.1L386,174.6
			c-0.6-0.3-0.9-0.8-0.9-1.2c0-0.3,0.2-0.7,0.6-0.9l42.5-24.6c0.9-0.5,2.5-0.5,3.6,0.1l55.6,32.1C488,180.5,488.2,180.9,488.2,181.3
			L488.2,181.3z"/>
		<path class="st1" d="M412.5,165.3l-1.7-1c-0.3-0.2-0.3-0.5,0.1-0.7l1.5-0.9c0.4-0.2,0.9-0.2,1.2-0.1l1.7,1
			c0.3,0.2,0.3,0.5-0.1,0.7l-1.5,0.9C413.2,165.5,412.8,165.5,412.5,165.3z"/>
		<path class="st1" d="M467.1,184l3.7,2.1c0.3,0.2,0.3,0.5-0.1,0.7l-1.5,0.9c-0.4,0.2-0.9,0.2-1.2,0.1l-3.7-2.1
			c-0.3-0.2-0.3-0.5,0.1-0.7l1.5-0.9C466.4,183.9,466.9,183.8,467.1,184L467.1,184z"/>
		<path class="st1" d="M425,158.1l-1.7-1c-0.3-0.2-0.3-0.5,0.1-0.7l1.5-0.9c0.4-0.2,0.9-0.2,1.2-0.1l1.7,1c0.3,0.2,0.3,0.5-0.1,0.7
			l-1.5,0.9C425.9,158.2,425.2,158.2,425,158.1z"/>
		<path class="st1" d="M429.1,155.6l-1.7-1c-0.3-0.2-0.3-0.5,0.1-0.7l1.5-0.9c0.4-0.2,0.9-0.2,1.2-0.1l1.7,1
			c0.3,0.2,0.3,0.5-0.1,0.7l-1.5,0.9C430,155.8,429.5,155.8,429.1,155.6z"/>
		<path class="st1" d="M432.8,157.7l-1.7-1c-0.3-0.2-0.3-0.5,0.1-0.7l1.5-0.9c0.4-0.2,0.9-0.2,1.2-0.1l1.7,1
			c0.3,0.2,0.3,0.5-0.1,0.7l-1.5,0.9C433.6,157.9,433.1,157.9,432.8,157.7z"/>
		<path class="st1" d="M436.5,159.8l-1.7-1c-0.3-0.2-0.3-0.5,0.1-0.7l1.5-0.9c0.4-0.2,0.9-0.2,1.2-0.1l1.7,1
			c0.3,0.2,0.3,0.5-0.1,0.7l-1.5,0.9C437.2,160,436.8,160,436.5,159.8z"/>
		<path class="st1" d="M440.1,161.9l-1.7-1c-0.3-0.2-0.3-0.5,0.1-0.7l1.5-0.9c0.4-0.2,0.9-0.2,1.2-0.1l1.7,1
			c0.3,0.2,0.3,0.5-0.1,0.7l-1.5,0.9C440.9,162.1,440.4,162.1,440.1,161.9z"/>
		<path class="st1" d="M416.1,167.4l-1.7-1c-0.3-0.2-0.3-0.5,0.1-0.7l1.5-0.9c0.4-0.2,0.9-0.2,1.2-0.1l1.7,1
			c0.3,0.2,0.3,0.5-0.1,0.7l-1.5,0.9C416.9,167.6,416.4,167.6,416.1,167.4L416.1,167.4z"/>
		<path class="st1" d="M419.6,169.5l-1.7-1c-0.3-0.2-0.3-0.5,0.1-0.7l1.5-0.9c0.4-0.2,0.9-0.2,1.2-0.1l1.7,1
			c0.3,0.2,0.3,0.5-0.1,0.7l-1.5,0.9C420.6,169.7,420,169.7,419.6,169.5z"/>
		<path class="st1" d="M423.4,171.6l-1.7-1c-0.3-0.2-0.3-0.5,0.1-0.7l1.5-0.9c0.4-0.2,0.9-0.2,1.2-0.1l1.7,1
			c0.3,0.2,0.3,0.5-0.1,0.7l-1.5,0.9C424.1,171.8,423.6,171.8,423.4,171.6z"/>
		<path class="st1" d="M443.6,164l-1.7-1c-0.3-0.2-0.3-0.5,0.1-0.7l1.5-0.9c0.4-0.2,0.9-0.2,1.2-0.1l1.7,1c0.3,0.2,0.3,0.5-0.1,0.7
			l-1.5,0.9C444.6,164.2,444,164.2,443.6,164z"/>
		<path class="st1" d="M441.5,182.1l-16.2-9.4c-0.3-0.2-0.3-0.5,0.1-0.7l1.5-0.9c0.4-0.2,0.9-0.2,1.2-0.1l16.2,9.4
			c0.3,0.2,0.3,0.5-0.1,0.7l-1.5,0.9C442.4,182.3,441.8,182.3,441.5,182.1z"/>
		<path class="st1" d="M447.4,166.1l-1.7-1c-0.3-0.2-0.3-0.5,0.1-0.7l1.5-0.9c0.4-0.2,0.9-0.2,1.2-0.1l1.7,1
			c0.3,0.2,0.3,0.5-0.1,0.7l-1.5,0.9C448.1,166.3,447.6,166.3,447.4,166.1z"/>
		<path class="st1" d="M451,168.2l-1.7-1c-0.3-0.2-0.3-0.5,0.1-0.7l1.5-0.9c0.4-0.2,0.9-0.2,1.2-0.1l1.7,1c0.3,0.2,0.3,0.5-0.1,0.7
			l-1.5,0.9C451.8,168.4,451.2,168.4,451,168.2z"/>
		<path class="st1" d="M454.6,170.3l-1.7-1c-0.3-0.2-0.3-0.5,0.1-0.7l1.5-0.9c0.4-0.2,0.9-0.2,1.2-0.1l1.7,1
			c0.3,0.2,0.3,0.5-0.1,0.7l-1.5,0.9C455.5,170.5,454.9,170.5,454.6,170.3z"/>
		<path class="st1" d="M458.2,172.4l-1.7-1c-0.3-0.2-0.3-0.5,0.1-0.7l1.5-0.9c0.4-0.2,0.9-0.2,1.2-0.1l1.7,1
			c0.3,0.2,0.3,0.5-0.1,0.7l-1.5,0.9C459.1,172.6,458.6,172.6,458.2,172.4z"/>
		<path class="st1" d="M461.9,174.5l-1.7-1c-0.3-0.2-0.3-0.5,0.1-0.7l1.5-0.9c0.4-0.2,0.9-0.2,1.2-0.1l1.7,1
			c0.3,0.2,0.3,0.5-0.1,0.7l-1.5,0.9C462.6,174.7,462.1,174.7,461.9,174.5z"/>
		<path class="st1" d="M465.5,176.6l-1.7-1c-0.3-0.2-0.3-0.5,0.1-0.7l1.5-0.9c0.4-0.2,0.9-0.2,1.2-0.1l1.7,1
			c0.3,0.2,0.3,0.5-0.1,0.7l-1.5,0.9C466.4,176.8,465.8,176.8,465.5,176.6z"/>
		<path class="st1" d="M469.1,178.7l-1.7-1c-0.3-0.2-0.3-0.5,0.1-0.7l1.5-0.9c0.4-0.2,0.9-0.2,1.2-0.1l1.7,1
			c0.3,0.2,0.3,0.5-0.1,0.7l-1.5,0.9C470,178.9,469.5,178.9,469.1,178.7z"/>
		<path class="st1" d="M428.6,160.2l-1.7-1c-0.3-0.2-0.3-0.5,0.1-0.7l1.5-0.9c0.4-0.2,0.9-0.2,1.2-0.1l1.7,1
			c0.3,0.2,0.3,0.5-0.1,0.7l-1.5,0.9C429.5,160.3,429,160.4,428.6,160.2z"/>
		<path class="st1" d="M432.2,162.3l-1.7-1c-0.3-0.2-0.3-0.5,0.1-0.7l1.5-0.9c0.4-0.2,0.9-0.2,1.2-0.1l1.7,1
			c0.3,0.2,0.3,0.5-0.1,0.7l-1.5,0.9C433.1,162.4,432.6,162.4,432.2,162.3z"/>
		<path class="st1" d="M435.9,164.4l-1.7-1c-0.3-0.2-0.3-0.5,0.1-0.7l1.5-0.9c0.4-0.2,0.9-0.2,1.2-0.1l1.7,1
			c0.3,0.2,0.3,0.5-0.1,0.7l-1.5,0.9C436.8,164.5,436.1,164.5,435.9,164.4z"/>
		<path class="st1" d="M439.6,166.5l-1.7-1c-0.3-0.2-0.3-0.5,0.1-0.7l1.5-0.9c0.4-0.2,0.9-0.2,1.2-0.1l1.7,1
			c0.3,0.2,0.3,0.5-0.1,0.7l-1.5,0.9C440.4,166.6,439.9,166.6,439.6,166.5L439.6,166.5z"/>
		<path class="st1" d="M443.1,168.6l-1.7-1c-0.3-0.2-0.3-0.5,0.1-0.7l1.5-0.9c0.4-0.2,0.9-0.2,1.2-0.1l1.7,1
			c0.3,0.2,0.3,0.5-0.1,0.7l-1.5,0.9C444,168.7,443.5,168.7,443.1,168.6L443.1,168.6z"/>
		<path class="st1" d="M446.8,170.7l-1.7-1c-0.3-0.2-0.3-0.5,0.1-0.7l1.5-0.9c0.4-0.2,0.9-0.2,1.2-0.1l1.7,1
			c0.3,0.2,0.3,0.5-0.1,0.7l-1.5,0.9C447.6,170.8,447.1,170.8,446.8,170.7z"/>
		<path class="st1" d="M450.5,172.8l-1.7-1c-0.3-0.2-0.3-0.5,0.1-0.7l1.5-0.9c0.4-0.2,0.9-0.2,1.2-0.1l1.7,1
			c0.3,0.2,0.3,0.5-0.1,0.7l-1.5,0.9C451.2,172.9,450.8,172.9,450.5,172.8z"/>
		<path class="st1" d="M454.1,174.9l-1.7-1c-0.3-0.2-0.3-0.5,0.1-0.7l1.5-0.9c0.4-0.2,0.9-0.2,1.2-0.1l1.7,1
			c0.3,0.2,0.3,0.5-0.1,0.7l-1.5,0.9C454.9,175,454.4,175,454.1,174.9z"/>
		<path class="st1" d="M457.6,177l-1.7-1c-0.3-0.2-0.3-0.5,0.1-0.7l1.5-0.9c0.4-0.2,0.9-0.2,1.2-0.1l1.7,1c0.3,0.2,0.3,0.5-0.1,0.7
			l-1.5,0.9C458.5,177.1,458,177.1,457.6,177L457.6,177z"/>
		<path class="st1" d="M461.2,179.1l-1.7-1c-0.3-0.2-0.3-0.5,0.1-0.7l1.5-0.9c0.4-0.2,0.9-0.2,1.2-0.1l1.7,1
			c0.3,0.2,0.3,0.5-0.1,0.7l-1.5,0.9C462.1,179.2,461.6,179.2,461.2,179.1L461.2,179.1z"/>
		<path class="st1" d="M465,181.2l-1.7-1c-0.3-0.2-0.3-0.5,0.1-0.7l1.5-0.9c0.4-0.2,0.9-0.2,1.2-0.1l1.7,1c0.3,0.2,0.3,0.5-0.1,0.7
			l-1.5,0.9C465.8,181.3,465.2,181.3,465,181.2z"/>
		<path class="st1" d="M472.8,180.8l-1.7-1c-0.3-0.2-0.3-0.5,0.1-0.7l1.5-0.9c0.4-0.2,0.9-0.2,1.2-0.1l1.7,1
			c0.3,0.2,0.3,0.5-0.1,0.7l-1.5,0.9C473.6,181,473.1,181,472.8,180.8z"/>
		<path class="st1" d="M476.4,182.9l-1.7-1c-0.3-0.2-0.3-0.5,0.1-0.7l1.5-0.9c0.4-0.2,0.9-0.2,1.2-0.1l1.7,1
			c0.3,0.2,0.3,0.5-0.1,0.7l-1.5,0.9C477.2,183.1,476.6,183.1,476.4,182.9z"/>
		<path class="st1" d="M445.1,184.2l-1.7-1c-0.3-0.2-0.3-0.5,0.1-0.7l1.5-0.9c0.4-0.2,0.9-0.2,1.2-0.1l1.7,1
			c0.3,0.2,0.3,0.5-0.1,0.7l-1.5,0.9C446,184.4,445.5,184.4,445.1,184.2z"/>
		<path class="st1" d="M448.8,186.3l-1.7-1c-0.3-0.2-0.3-0.5,0.1-0.7l1.5-0.9c0.4-0.2,0.9-0.2,1.2-0.1l1.7,1
			c0.3,0.2,0.3,0.5-0.1,0.7l-1.5,0.9C449.6,186.4,449.1,186.5,448.8,186.3z"/>
		<path class="st1" d="M452.4,188.4l-1.7-1c-0.3-0.2-0.3-0.5,0.1-0.7l1.5-0.9c0.4-0.2,0.9-0.2,1.2-0.1l1.7,1
			c0.3,0.2,0.3,0.5-0.1,0.7l-1.5,0.9C453.2,188.5,452.6,188.6,452.4,188.4z"/>
		<path class="st1" d="M456.1,190.5l-1.7-1c-0.3-0.2-0.3-0.5,0.1-0.7l1.5-0.9c0.4-0.2,0.9-0.2,1.2-0.1l1.7,1
			c0.3,0.2,0.3,0.5-0.1,0.7l-1.5,0.9C456.9,190.6,456.4,190.7,456.1,190.5z"/>
		<path class="st1" d="M459.6,192.6l-1.7-1c-0.3-0.2-0.3-0.5,0.1-0.7l1.5-0.9c0.4-0.2,0.9-0.2,1.2-0.1l1.7,1
			c0.3,0.2,0.3,0.5-0.1,0.7l-1.5,0.9C460.5,192.8,460,192.8,459.6,192.6z"/>
		<path class="st1" d="M472.1,185.4l-5.3-3.1c-0.3-0.2-0.3-0.5,0.1-0.7l1.5-0.9c0.4-0.2,0.9-0.2,1.2-0.1l5.3,3.1
			c0.3,0.2,0.3,0.5-0.1,0.7l-1.5,0.9C473.1,185.5,472.5,185.5,472.1,185.4L472.1,185.4z"/>
		<path class="st1" d="M463.9,190.2l-5.3-3.1c-0.3-0.2-0.3-0.5,0.1-0.7l1.5-0.9c0.4-0.2,0.9-0.2,1.2-0.1l5.3,3.1
			c0.3,0.2,0.3,0.5-0.1,0.7l-1.5,0.9C464.6,190.3,464.1,190.4,463.9,190.2z"/>
		<path class="st1" d="M463.6,181.9l1.7,1c0.3,0.2,0.3,0.5-0.1,0.7l-1.5,0.9c-0.4,0.2-0.9,0.2-1.2,0.1l-1.7-1
			c-0.3-0.2-0.3-0.5,0.1-0.7l1.5-0.9C462.6,181.8,463.2,181.7,463.6,181.9z"/>
		<path class="st1" d="M459.9,179.8l1.7,1c0.3,0.2,0.3,0.5-0.1,0.7l-1.5,0.9c-0.4,0.2-0.9,0.2-1.2,0.1l-1.7-1
			c-0.3-0.2-0.3-0.5,0.1-0.7l1.5-0.9C459.1,179.7,459.6,179.6,459.9,179.8z"/>
		<path class="st1" d="M456.2,177.7l1.7,1c0.3,0.2,0.3,0.5-0.1,0.7l-1.5,0.9c-0.4,0.2-0.9,0.2-1.2,0.1l-1.7-1
			c-0.3-0.2-0.3-0.5,0.1-0.7l1.5-0.9C455.5,177.6,456,177.5,456.2,177.7z"/>
		<path class="st1" d="M452.6,175.6l1.7,1c0.3,0.2,0.3,0.5-0.1,0.7l-1.5,0.9c-0.4,0.2-0.9,0.2-1.2,0.1l-1.7-1
			c-0.3-0.2-0.3-0.5,0.1-0.7l1.5-0.9C451.8,175.5,452.4,175.4,452.6,175.6z"/>
		<path class="st1" d="M449,173.5l1.7,1c0.3,0.2,0.3,0.5-0.1,0.7l-1.5,0.9c-0.4,0.2-0.9,0.2-1.2,0.1l-1.7-1
			c-0.3-0.2-0.3-0.5,0.1-0.7l1.5-0.9C448.1,173.4,448.6,173.3,449,173.5z"/>
		<path class="st1" d="M445.4,171.4l1.7,1c0.3,0.2,0.3,0.5-0.1,0.7l-1.5,0.9c-0.4,0.2-0.9,0.2-1.2,0.1l-1.7-1
			c-0.3-0.2-0.3-0.5,0.1-0.7l1.5-0.9C444.6,171.3,445.1,171.2,445.4,171.4z"/>
		<path class="st1" d="M441.8,169.3l1.7,1c0.3,0.2,0.3,0.5-0.1,0.7l-1.5,0.9c-0.4,0.2-0.9,0.2-1.2,0.1l-1.7-1
			c-0.3-0.2-0.3-0.5,0.1-0.7l1.5-0.9C440.9,169.2,441.5,169.1,441.8,169.3z"/>
		<path class="st1" d="M438.1,167.2l1.7,1c0.3,0.2,0.3,0.5-0.1,0.7l-1.5,0.9c-0.4,0.2-0.9,0.2-1.2,0.1l-1.7-1
			c-0.3-0.2-0.3-0.5,0.1-0.7l1.5-0.9C437.2,167.1,437.8,167,438.1,167.2z"/>
		<path class="st1" d="M434.5,165.1l1.7,1c0.3,0.2,0.3,0.5-0.1,0.7l-1.5,0.9c-0.4,0.2-0.9,0.2-1.2,0.1l-1.7-1
			c-0.3-0.2-0.3-0.5,0.1-0.7l1.5-0.9C433.6,165,434.1,164.9,434.5,165.1z"/>
		<path class="st1" d="M430.9,163l1.7,1c0.3,0.2,0.3,0.5-0.1,0.7l-1.5,0.9c-0.4,0.2-0.9,0.2-1.2,0.1l-1.7-1
			c-0.3-0.2-0.3-0.5,0.1-0.7l1.5-0.9C430,162.9,430.6,162.8,430.9,163z"/>
		<path class="st1" d="M427.2,160.9l1.7,1c0.3,0.2,0.3,0.5-0.1,0.7l-1.5,0.9c-0.4,0.2-0.9,0.2-1.2,0.1l-1.7-1
			c-0.3-0.2-0.3-0.5,0.1-0.7l1.5-0.9C426.4,160.8,426.9,160.7,427.2,160.9z"/>
		<path class="st1" d="M422,157.9l3.4,1.9c0.3,0.2,0.3,0.5-0.1,0.7l-1.5,0.9c-0.4,0.2-0.9,0.2-1.2,0.1l-3.4-1.9
			c-0.3-0.2-0.3-0.5,0.1-0.7l1.5-0.9C421.1,157.7,421.6,157.7,422,157.9L422,157.9z"/>
		<path class="st1" d="M457.6,183.4l1.7,1c0.3,0.2,0.3,0.5-0.1,0.7l-1.5,0.9c-0.4,0.2-0.9,0.2-1.2,0.1l-1.7-1
			c-0.3-0.2-0.3-0.5,0.1-0.7l1.5-0.9C456.9,183.2,457.4,183.2,457.6,183.4z"/>
		<path class="st1" d="M454.1,181.3l1.7,1c0.3,0.2,0.3,0.5-0.1,0.7l-1.5,0.9c-0.4,0.2-0.9,0.2-1.2,0.1l-1.7-1
			c-0.3-0.2-0.3-0.5,0.1-0.7l1.5-0.9C453.2,181.1,453.8,181.1,454.1,181.3L454.1,181.3z"/>
		<path class="st1" d="M450.5,179.2l1.7,1c0.3,0.2,0.3,0.5-0.1,0.7l-1.5,0.9c-0.4,0.2-0.9,0.2-1.2,0.1l-1.7-1
			c-0.3-0.2-0.3-0.5,0.1-0.7l1.5-0.9C449.6,179,450.1,179,450.5,179.2L450.5,179.2z"/>
		<path class="st1" d="M446.8,177.1l1.7,1c0.3,0.2,0.3,0.5-0.1,0.7l-1.5,0.9c-0.4,0.2-0.9,0.2-1.2,0.1l-1.7-1
			c-0.3-0.2-0.3-0.5,0.1-0.7l1.5-0.9C446,176.9,446.5,176.9,446.8,177.1L446.8,177.1z"/>
		<path class="st1" d="M443.1,175l1.7,1c0.3,0.2,0.3,0.5-0.1,0.7l-1.5,0.9c-0.4,0.2-0.9,0.2-1.2,0.1l-1.7-1
			c-0.3-0.2-0.3-0.5,0.1-0.7l1.5-0.9C442.4,174.8,442.9,174.8,443.1,175z"/>
		<path class="st1" d="M439.6,172.9l1.7,1c0.3,0.2,0.3,0.5-0.1,0.7l-1.5,0.9c-0.4,0.2-0.9,0.2-1.2,0.1l-1.7-1
			c-0.3-0.2-0.3-0.5,0.1-0.7l1.5-0.9C438.6,172.7,439.2,172.7,439.6,172.9z"/>
		<path class="st1" d="M435.9,170.8l1.7,1c0.3,0.2,0.3,0.5-0.1,0.7l-1.5,0.9c-0.4,0.2-0.9,0.2-1.2,0.1l-1.7-1
			c-0.3-0.2-0.3-0.5,0.1-0.7l1.5-0.9C435.1,170.6,435.6,170.6,435.9,170.8L435.9,170.8z"/>
		<path class="st1" d="M432.2,168.7l1.7,1c0.3,0.2,0.3,0.5-0.1,0.7l-1.5,0.9c-0.4,0.2-0.9,0.2-1.2,0.1l-1.7-1
			c-0.3-0.2-0.3-0.5,0.1-0.7l1.5-0.9C431.5,168.5,432,168.5,432.2,168.7L432.2,168.7z"/>
		<path class="st1" d="M428.6,166.6l1.7,1c0.3,0.2,0.3,0.5-0.1,0.7l-1.5,0.9c-0.4,0.2-0.9,0.2-1.2,0.1l-1.7-1
			c-0.3-0.2-0.3-0.5,0.1-0.7l1.5-0.9C427.9,166.4,428.4,166.4,428.6,166.6L428.6,166.6z"/>
		<path class="st1" d="M425,164.5l1.7,1c0.3,0.2,0.3,0.5-0.1,0.7l-1.5,0.9c-0.4,0.2-0.9,0.2-1.2,0.1l-1.7-1
			c-0.3-0.2-0.3-0.5,0.1-0.7l1.5-0.9C424.1,164.3,424.6,164.3,425,164.5z"/>
		<path class="st1" d="M417.8,160.3l5.3,3.1c0.3,0.2,0.3,0.5-0.1,0.7l-1.5,0.9c-0.4,0.2-0.9,0.2-1.2,0.1L415,162
			c-0.3-0.2-0.3-0.5,0.1-0.7l1.5-0.9C417,160.1,417.5,160.1,417.8,160.3L417.8,160.3z"/>
		<path class="st1" d="M442.5,185.3c0,0.1-0.1,0.2-0.2,0.3l-15.6,9c-0.3,0.2-0.9,0.2-1.3-0.1L405,182.7c-0.2-0.1-0.3-0.3-0.3-0.4
			c0-0.1,0.1-0.2,0.2-0.3l15.6-9c0.3-0.2,0.9-0.2,1.3,0.1l20.4,11.8C442.4,185,442.5,185.2,442.5,185.3z"/>
		<path class="st13" d="M488.6,180l1.5-0.9c0.4-0.2,0.6-0.6,0.6-1.3v-47.6c0-1.3-1.1-3.1-2.5-3.9l-53.6-31c-0.7-0.4-1.4-0.5-1.9-0.2
			l-1.5,0.9c0.5-0.3,1.1-0.2,1.9,0.2l53.6,31c1.4,0.8,2.5,2.5,2.5,3.9v47.6C489.2,179.4,489.1,179.8,488.6,180z"/>
		<path class="st1" d="M488.6,180c0.4-0.2,0.6-0.6,0.6-1.3v-47.6c0-1.3-1.1-3.1-2.5-3.9l-53.6-31c-0.7-0.4-1.4-0.5-1.9-0.2
			c-0.4,0.2-0.6,0.6-0.6,1.3v47.6c0,1.4,1.1,3.1,2.5,3.9l53.6,31C487.6,180.2,488.2,180.3,488.6,180z"/>
		<path class="st10" d="M432.8,99l54.1,31.3v47L432.8,146V99z"/>
		<path class="st12" d="M461.2,125.5c3.7,2.2,6.9,7,7.7,11.5c3,2.6,5.2,6.9,5.1,10.6c0,4.3-3.1,6.1-6.8,3.9L448,140.4
			c-3.2-1.9-5.8-6.4-5.8-10.1c0-3.5,2.3-5,5.3-3.6c0.7-2.8,3.3-3.7,6.3-1.9c0.4,0.2,0.8,0.5,1.2,0.8
			C456.5,124.1,458.8,124,461.2,125.5z"/>
		<path class="st14" d="M381.1,242.8c5.7,3.3,5.7,8.3,0,11.8c-2.3,1.5-4.7,4.2-6,7.2c-2.6-1.4-9.1-5.2-12.3-7.1
			c-5.7-3.3-1.9-6.6,3.8-9.8C372.4,241.7,375.6,239.5,381.1,242.8z"/>
		<path class="st14" d="M430.1,170.2c5.7,3.3,5.7,8.6,0,11.8c-5.7,3.3-14.8,3.3-20.5,0c-5.7-3.3-5.7-8.6,0-11.8
			C415.2,166.9,424.4,166.9,430.1,170.2z"/>
		<path class="st15" d="M374.6,220.6c0.8,1.7,1.2,4,0.6,8.2c-0.3,2.2,0,4.5-0.6,6c-0.4,0.9-3.1,1.2-3.5-1c-0.6-3.6-0.9-6.9-1.1-9.3
			C369.8,220.3,373.6,218.2,374.6,220.6L374.6,220.6z"/>
		<path class="st15" d="M374.4,235.5c-1,1.1-1,1.8-4.1,2.9c-2.4,0.8-4.4,1.8-5.2,2.2c-0.8,0.4-1.4-1.3-1.2-1.8
			c1.2-0.6,3.4-1.8,4.6-2.8c1.4-1.1,1.5-2.1,3.7-2.5C373.5,233.2,375.4,234.4,374.4,235.5z"/>
		<path class="st16" d="M371.9,219.4c-1.6,0.4-2.1,2.4-1.9,5.6c0.1,2.9,0.3,4.4,0.4,5c0.8,1.4,4.3,1.2,5.4,0c0.6-2.2,0.7-4.7,0.2-7
			C375.6,220.7,374.1,218.8,371.9,219.4z"/>
		<path class="st15" d="M365.1,240.6c-0.6,0.4-1.1,1-1.7,1.3c-0.5,0.3-1.2,0.4-1.8,0.6c-0.3,0.1-0.6,0.2-0.8,0.3
			c-0.4,0.2-0.7,1-1.2,0.7c-0.3-0.1-0.5-0.6-0.4-0.9c0.1-0.6,0.3-1.8,0.9-2.2c0.1,0,0.4-0.2,0.5-0.3c0.8-0.7,1.4-0.8,2.1-1.1
			c0.4-0.2,0.8-0.1,1.3-0.2C364.9,238.5,366.1,239.9,365.1,240.6L365.1,240.6z"/>
		<path class="st15" d="M373.9,219.7c0.5,0.1,1.1,0.2,1.7,0.4c1.8,0.5,4.7,2.1,5.3,2.7c0.4,0.4,1.9,1.7,2.9,3h-10L373.9,219.7
			L373.9,219.7z"/>
		<path class="st17" d="M353.6,278.5c1.3,0.2,3.8-1.2,4.8-2.3c1-1,3.3-1.3,3.3-2c0.1-0.6-0.2-1.7-0.5-2.7c-0.7,1-3.4,1.9-3.8,0.5
			c-0.5,0.7-1.4,1.5-2,2c-1.1,0.9-1.9,1.5-2.2,2.1C353,276.5,352.8,278.3,353.6,278.5z"/>
		<path class="st2" d="M353.6,278.3c1.3,0.2,3.8-1.2,4.8-2.3c1-1,3.3-1.3,3.3-2c0.1-0.6-0.2-1.7-0.5-2.7c-0.7,1-3.4,1.9-3.8,0.5
			c-0.5,0.7-1.4,1.5-2,2c-1.1,0.9-1.9,1.5-2.2,2.1C353,276.3,352.8,278.1,353.6,278.3z"/>
		<path class="st15" d="M357.4,271.8c0.4,1.4,3.1,0.5,3.8-0.5c-0.1-0.4-0.3-0.8-0.4-1.1c-0.4-0.8-2.7-0.1-3,0.8
			C357.8,271.3,357.6,271.6,357.4,271.8L357.4,271.8z"/>
		<path class="st17" d="M357.9,273.3c-0.5,0-0.9-0.4-1.1-0.8c0-0.1,0-0.2,0.1-0.2s0.2,0,0.2,0.1c0.1,0.3,0.5,0.6,0.9,0.5
			c0.1,0,0.2,0,0.2,0.1s0,0.2-0.1,0.2C358,273.3,358,273.3,357.9,273.3z"/>
		<path class="st17" d="M357.4,274L357.4,274c-0.7-0.2-1.1-0.4-1.2-0.9c0-0.1,0-0.2,0.1-0.2s0.2,0,0.2,0.1c0.1,0.3,0.5,0.5,1,0.6
			c0.1,0,0.1,0.1,0.1,0.2C357.6,273.9,357.5,274,357.4,274L357.4,274z"/>
		<path class="st17" d="M356.6,274.6L356.6,274.6c-0.7-0.2-1-0.5-1.2-0.8c0-0.1,0-0.2,0.1-0.2s0.2,0,0.3,0.1
			c0.1,0.2,0.4,0.4,0.9,0.6c0.1,0,0.1,0.1,0.1,0.2C356.8,274.6,356.6,274.6,356.6,274.6L356.6,274.6z"/>
		<path class="st17" d="M355.9,275.3L355.9,275.3c-0.5-0.1-1.1-0.5-1.2-1c0-0.1,0-0.2,0.1-0.2s0.2,0,0.2,0.1
			c0.1,0.3,0.5,0.6,0.9,0.7c0.1,0,0.1,0.1,0.1,0.2C356.1,275.3,356,275.3,355.9,275.3L355.9,275.3z"/>
		<path class="st17" d="M360.2,282.9c0.1,0.9,1.3,1.2,2.9,0.9c1.8-0.3,2.7-0.9,3.7-2c1-1,3.3-1.3,3.3-2c0.1-0.5-0.2-1.6-0.5-2.5
			c-0.5,1.1-3.2,1.2-3.7,0c-0.5,0.8-1.5,1.6-2.2,2.3C362.9,280.7,360.1,282.5,360.2,282.9L360.2,282.9z"/>
		<path class="st15" d="M366,277.1c0.5,1.2,3.2,1.1,3.7,0c-0.2-0.5-0.3-0.9-0.5-1.2c-0.4-0.8-2.7-0.1-3,0.8
			C366.1,276.9,366.1,277,366,277.1L366,277.1z"/>
		<path class="st2" d="M360.2,282.7c0.1,0.9,1.3,1.2,2.9,0.9c1.8-0.3,2.7-0.9,3.7-2c1-1,3.3-1.3,3.3-2c0.1-0.5-0.2-1.6-0.5-2.5
			c-0.5,1.1-3.2,1.2-3.7,0c-0.5,0.8-1.5,1.6-2.2,2.3C362.9,280.5,360.1,282.2,360.2,282.7L360.2,282.7z"/>
		<path class="st17" d="M366.6,278.7c-0.4,0-1-0.3-1.3-0.9c-0.1-0.1,0-0.2,0.1-0.3c0.1-0.1,0.2,0,0.3,0.1c0.2,0.5,0.7,0.7,1.1,0.7
			c0.1,0,0.2,0.1,0.2,0.2s-0.1,0.2-0.2,0.2C366.8,278.7,366.6,278.7,366.6,278.7L366.6,278.7z"/>
		<path class="st17" d="M366,279.5c-0.5,0-1.1-0.1-1.4-0.8c-0.1-0.1,0-0.2,0.1-0.3c0.1-0.1,0.2,0,0.3,0.1c0.2,0.4,0.5,0.6,1.1,0.6
			c0.1,0,0.2,0.1,0.2,0.2C366.1,279.4,366.1,279.5,366,279.5L366,279.5z"/>
		<path class="st17" d="M365.1,280.2L365.1,280.2c-0.5-0.1-1.1-0.2-1.4-0.7c-0.1-0.1,0-0.2,0.1-0.3c0.1-0.1,0.2,0,0.3,0.1
			c0.2,0.4,0.7,0.5,1,0.5h0.1c0.1,0,0.2,0.1,0.1,0.2C365.2,280.2,365.1,280.2,365.1,280.2L365.1,280.2z"/>
		<path class="st17" d="M364.5,281c-0.5-0.1-1.1-0.4-1.4-0.9c-0.1-0.1,0-0.2,0.1-0.3c0.1-0.1,0.2,0,0.3,0.1c0.3,0.5,0.8,0.7,1.1,0.7
			c0.1,0,0.2,0.1,0.2,0.2C364.6,281,364.6,281,364.5,281L364.5,281z"/>
		<path class="st18" d="M375.9,238.6c-3.1,0.6-8.7,3.9-11.6,6.2c-2.9,2.3-7,6.7-7.3,7.9c-0.1,0.6-0.3,1.3-0.2,1.7
			c0.1,1.3,2.4,2.2,3.6,1c1.8-1.8,3-3.1,8.7-5.2c3.1-1.1,6.6-2,9.4-5C381.1,242.4,379.1,238,375.9,238.6L375.9,238.6z"/>
		<path class="st18" d="M356.8,254c0.2,2.1,1.1,9.5,1,13.1c-0.1,3.5-0.4,4.1-0.4,4.4s4.3,1.1,4.5-0.5c0.3-2.2,1.3-7.6,1.2-10.4
			s-1.2-5.2-2.1-6.6C360,252.6,356.9,252.2,356.8,254z"/>
		<path class="st16" d="M377.6,240.8c-2.5,1.9-6.1,7.3-7.7,10.7s-3.4,8.7-2.8,9.9c0.6,1.2,3.2,3.7,4,1.4c0.8-2.4,1.3-4.1,5.5-8.5
			c2.3-2.4,4.3-4.2,5.5-8.1C383.2,242.4,380.1,238.8,377.6,240.8z"/>
		<path class="st16" d="M367.1,260.7c0.2,1.9,0.2,7.9-0.2,11.5c-0.5,3.5-0.6,4.2-0.7,4.5c0,0.3,4.1,1.6,4.5,0
			c0.5-2.2,1.9-7.7,2.1-10.5c0.2-2.8-0.6-5.3-1.4-6.8C370.6,257.9,366.9,258.8,367.1,260.7z"/>
		<path class="st2" d="M370.5,229c-0.8-1.8,0.9-7.8,1.5-8.8s1.8-0.8,3.5-0.3c-0.3,0.5-0.4,1.1-0.6,1.8c-0.1,0.7-0.2,1.5,0.2,2.2
			c0.5,0.8,1.6,1.6,2.5,1.3c0.1,0,0.3,0.1,0.5,0.1c0.5,0,1.1-0.1,1.6-0.4c0.8-0.4,1.6-0.8,2.3-1.3c1.1,1.1,2.6,2.8,3.1,3.7
			c0.4,0.9-2.4,6-2.9,9.4s-0.3,4.8,0.2,6.7c-0.1,3.2-4.1,3.4-7.5,1.2c-3.4-2.2-3.4-2.4-3.7-2.8c0.2-2.2,0.4-4,0.3-6.5
			C371.1,232.3,371.4,231,370.5,229L370.5,229z"/>
		<path class="st17" d="M375.4,221.2c-0.3,1.5-0.5,3.7,2.7,3.9c0.1,1.1-1.6,1.2-3-0.3c-0.9-0.9-0.6-3.2-0.3-4.1
			C375.4,220.5,375.8,219.7,375.4,221.2L375.4,221.2z"/>
		<path class="st18" d="M375,219.6c-1.2,0.9-2.8,5.9-2.9,9.2c-0.1,3.3,0.8,12.8-2.9,15.6c0.9-0.7-1.1-1.5-1.3-2.1
			c-0.4-1.1,2.5-4.6,2.2-6.8c-0.3-2.2-0.7-5.1-0.5-7.3c0.3-2.2,1.2-7.2,2.2-8.4C372.6,219,373.9,219.3,375,219.6L375,219.6z"/>
		<path class="st6" d="M372.8,220.9c-0.3,0.4-0.7,1.7-0.7,2.7c0.4-1,0.9-2,1.4-2.4C373.4,220.8,373.1,220.5,372.8,220.9L372.8,220.9
			z"/>
		<path class="st1" d="M373.1,223.3c0-1.1,0.1-2.6-0.4-2.4c0.2-0.7,0.7-2.2,1.1-2.3c0.4,0,1.1,1,1.1,1S373.6,221.4,373.1,223.3z"/>
		<path class="st15" d="M379.5,216.8c-0.3,1.2,0.3,4.8,1.5,5.8c-0.7,1.7-4.5,2.9-5.1,0.7c0-1.1,0.3-1.9-0.5-2.8
			C375.6,218.7,379.6,215.5,379.5,216.8z"/>
		<path class="st14" d="M375.8,223c0.6-0.6,2.8-2.3,2.9-4.3c-1.2,0.5-2.2,1.7-3,2.6C375.9,221.6,375.9,222.5,375.8,223L375.8,223z"
			/>
		<path class="st15" d="M371.5,215.8c0.1,2.1,2.1,6.1,3.7,6.7c0.6,0.2,3.2-2.2,3.8-4.5c0.5-2.1,0.8-4.7-1.3-5.9
			c-2.1-1.3-4.4-0.7-5.5,0.9C371.2,214.2,371.5,215.1,371.5,215.8z"/>
		<path class="st19" d="M378.6,212.9c-0.5,0.2-0.3,0.8-1.1,1.4c-0.8,0.6-1.8,1-1.4,1.3c0.5,0.4,0.6,0.6,0.9,1.1
			c0.1-0.8,0.8-1.4,1.4-0.5c0.6,0.9,0.4,2,0.9,2.2c0.3,0.1,0.4-1.6,0.5-2.8C380,214.8,379.5,212.5,378.6,212.9L378.6,212.9z"/>
		<path class="st18" d="M377.1,223.2c-1.1,0.2-1.1,5.1-1.2,8.7c-0.1,3.6,0.1,14,0.3,16.5c1.6,1.3,7,1.5,7.1-1.1
			c0.1-2.4-0.7-4.2-0.9-5.8c-0.1-1.5-0.5-4.8,0.4-7.9c0.9-3.1,2.8-5,1.8-6.7c-1.1-1.9-2.7-3.2-3.9-4.3
			C380.9,222.6,378.2,222.9,377.1,223.2z"/>
		<path class="st16" d="M380.2,220.9c-0.9,1-1.6,1.6-3,2.2c0.4,0.5,1,1.7,1,3c1.4-0.7,3.2-1.7,3.7-2.6
			C381.6,222.2,380.9,220.3,380.2,220.9z"/>
		<path class="st6" d="M368.2,244.7v0.4c0,0,0,0.1-0.1,0.2l-6.1,3.5c-0.2,0.1-0.5,0.1-0.7,0l-7.9-4.6c-0.1-0.1-0.2-0.1-0.2-0.2v-0.4
			c0,0.1,0.1,0.2,0.2,0.2l7.9,4.6c0.2,0.1,0.5,0.1,0.7,0l6.1-3.5C368.2,244.8,368.2,244.7,368.2,244.7z"/>
		<path class="st6" d="M368.2,244.7c0,0,0,0.1-0.1,0.2l-6.1,3.5c-0.2,0.1-0.5,0.1-0.7,0l-7.9-4.6c-0.1-0.1-0.2-0.1-0.2-0.2
			c0-0.1,0-0.1,0.1-0.2l6.1-3.5c0.2-0.1,0.5-0.1,0.7,0l7.9,4.6C368.1,244.5,368.2,244.6,368.2,244.7L368.2,244.7z"/>
		<path class="st12" d="M354.1,243.7l7.4,4.3l6-3.5l-7.4-4.3L354.1,243.7z"/>
		<path class="st6" d="M357.1,241.6c0,0,0.1,0.1,0,0.1s-0.2,0-0.2,0c-0.1,0-0.1-0.1,0-0.1C357,241.5,357.1,241.5,357.1,241.6z"/>
		<path class="st15" d="M363.2,240.6c-0.8,0.3-1-0.1-1.4-0.2c-0.7-0.2-2.5,1.1-2,0.2c0.1-0.1,0.5-0.4,0.6-0.5s1.2-0.9,2-1.1
			C363.4,239.4,363.2,240.6,363.2,240.6z"/>
		<path class="st15" d="M385.6,227.7c0.7,1.8,0.9,4.1,0,8.3c-0.5,2.1-0.9,4.4-1.6,5.8c-0.5,0.9-2.6,1.1-2.8-1.1
			c-0.4-3.6,0.4-7.1-0.4-9.4C379.6,227.5,384.8,225.2,385.6,227.7L385.6,227.7z"/>
		<path class="st15" d="M383.6,242.2c-1.2,0.8-2.8,1.7-6.1,1.9c-2.5,0.2-4.7,0.6-5.6,0.8c-0.9,0.2-1-1.6-0.7-2.1
			c1.3-0.3,3.7-0.9,5.2-1.5c1.6-0.7,3.4-1.8,5.5-1.6C383.4,239.7,384.9,241.4,383.6,242.2L383.6,242.2z"/>
		<path class="st15" d="M372,244.9c-0.7,0.2-1.5,0.5-2.2,0.7c-0.6,0.2-1.3,0.3-1.9-0.1c-0.3-0.2-0.6-0.6-0.8-0.9
			c-0.1-0.3-0.3-0.5-0.6-0.7c-0.2-0.1-0.4-0.1-0.5-0.1c-0.3,0-0.7,0-1-0.1c-0.3,0-1.1-0.1-0.4-0.5c0.5-0.3,1.1-0.3,1.7-0.4
			c0.6-0.1,1.2-0.1,1.9-0.2c0.6-0.1,1.1-0.1,1.7-0.1c0.5,0,1,0.2,1.5,0.3C372.2,242.8,373.1,244.5,372,244.9L372,244.9z"/>
		<path class="st16" d="M383,226.3c-1.7,0.3-2.9,2.4-2.3,5.5c0.5,2.8,0,4.4,0,5c0.7,1.4,4.2,1.5,5.4,0.4c0.7-2.2,1-4.6,0.7-6.9
			C386.6,228,385.2,225.9,383,226.3L383,226.3z"/>
		<path class="st20" d="M415.6,144.9c0.1,3.2,0.8,8.1,1.7,10.1c0,0.1,4.7,6.2,6.5,9.4c0.7,0.1,2.9-0.9,3.6-1.7
			c0.1-0.1,0.2-0.3,0.3-0.4c0-0.1,0-0.1,0.1-0.1c-0.4-1.5-1.6-4.8-2.7-6.5c-0.9-1.5-3.3-3.2-3.4-3.8c-0.2-0.9,0.1-0.2,0.1-1.3v-0.1
			c0-0.1,0-0.1,0-0.2l0,0c0.1-1.5,0.5-3.3,1.2-6c0.9-3.2,2.3-6.6,1.5-10.8c-0.7-3.9-5.7-4.8-7-1.9
			C416.1,134.5,415.4,141.1,415.6,144.9L415.6,144.9z"/>
		<path class="st15" d="M426.1,169c0.1,0.3,3.3-0.5,2.7-2c-0.2-0.5-0.4-1.2-0.7-2c-0.2-0.7-0.4-1.4-0.7-2.2
			c-0.8,0.8-2.9,1.8-3.6,1.7c0.1,0.1,0.1,0.3,0.2,0.4c0.3,0.7,0.6,1.2,0.9,1.7C425.8,168.3,426,168.8,426.1,169L426.1,169z"/>
		<path class="st21" d="M424.8,166.5c0.2,0,0.4,0,0.7-0.1c0.7-0.2,1.9-0.7,2.6-1.5c0.1-0.1,0.1-0.2,0.2-0.3c0.6-0.9-0.1-0.8,0-1.5
			c0.1-0.8-0.3-1.2-0.5-1l-0.1,0.1c0,0.1-0.1,0.3-0.3,0.4c-0.8,0.8-2.9,1.8-3.6,1.7c-1.2-0.2,0.3,1,0.2,1.4
			C424,166.2,424.2,166.4,424.8,166.5L424.8,166.5z"/>
		<path class="st17" d="M422.9,176c1.4,0,3.6-2,4.4-3.2c0.8-1.2,3-2,2.9-2.6c-0.1-0.6-0.6-1.7-1.1-2.6c-0.5,1.1-3.1,2.6-3.7,1.2
			c-0.4,0.8-1.1,1.7-1.6,2.4c-0.9,1.2-1.7,1.9-1.8,2.6C421.9,174.2,422,176,422.9,176z"/>
		<path class="st15" d="M425.4,168.4c0.7,1.3,3.3-0.1,3.7-1.2c-0.2-0.4-0.5-0.7-0.7-1c-0.6-0.7-2.8,0.4-2.9,1.4
			C425.6,167.9,425.5,168.1,425.4,168.4z"/>
		<path class="st2" d="M422.9,175.6c1.4,0,3.6-2,4.4-3.2c0.8-1.2,3-2,2.9-2.6c-0.1-0.6-0.6-1.7-1.1-2.6c-0.5,1.1-3.1,2.6-3.7,1.2
			c-0.4,0.8-1.1,1.7-1.6,2.4c-0.9,1.2-1.7,1.9-1.8,2.6C421.8,173.8,422,175.7,422.9,175.6z"/>
		<path class="st17" d="M425.9,169.8c-0.4,0-0.9-0.3-1.1-0.6c-0.1-0.1,0-0.2,0.1-0.3s0.2,0,0.3,0.1c0.2,0.3,0.7,0.5,1,0.4
			c0.1,0,0.2,0,0.2,0.1s0,0.2-0.1,0.2C426.1,169.8,426.1,169.8,425.9,169.8z"/>
		<path class="st17" d="M425.8,170.6c-0.7-0.1-1.1-0.3-1.4-0.6c-0.1-0.1,0-0.2,0.1-0.3s0.2,0,0.3,0.1c0.2,0.3,0.6,0.4,1.1,0.5
			c0.1,0,0.2,0.1,0.1,0.2C425.9,170.5,425.9,170.6,425.8,170.6L425.8,170.6z"/>
		<path class="st17" d="M425.1,171.4c-0.7-0.1-1.1-0.3-1.3-0.6c-0.1-0.1-0.1-0.2,0-0.3s0.2-0.1,0.3,0c0.2,0.2,0.5,0.4,1.1,0.5
			c0.1,0,0.2,0.1,0.1,0.2C425.1,171.3,425.1,171.4,425.1,171.4L425.1,171.4z"/>
		<path class="st17" d="M424.5,172.2c-0.5-0.1-1.2-0.3-1.4-0.8c0-0.1,0-0.2,0.1-0.2c0.1,0,0.2,0,0.2,0.1c0.1,0.3,0.6,0.5,1.1,0.6
			c0.1,0,0.2,0.1,0.2,0.2C424.6,172.1,424.6,172.2,424.5,172.2L424.5,172.2z"/>
		<path class="st17" d="M411.8,180.1c0.1,0.9,1.3,1.2,3,1c1.9-0.3,2.8-1,3.8-2s3.3-1.4,3.4-2s-0.2-1.7-0.5-2.6
			c-0.5,1.1-3.3,1.2-3.8,0c-0.5,0.8-1.6,1.7-2.2,2.4C414.5,177.8,411.8,179.7,411.8,180.1L411.8,180.1z"/>
		<path class="st2" d="M411.8,179.7c0.1,0.9,1.3,1.2,3,1c1.9-0.3,2.8-1,3.8-2s3.3-1.4,3.4-2s-0.2-1.7-0.5-2.6
			c-0.5,1.1-3.3,1.2-3.8,0c-0.5,0.8-1.6,1.7-2.2,2.4C414.5,177.5,411.8,179.3,411.8,179.7L411.8,179.7z"/>
		<path class="st15" d="M417.6,174c0.5,1.2,3.3,1.1,3.8,0c-0.2-0.5-0.3-0.9-0.5-1.3c-0.4-0.8-2.8-0.1-3.1,0.8
			C417.9,173.7,417.8,173.9,417.6,174L417.6,174z"/>
		<path class="st17" d="M418.4,175.6c-0.5,0-1-0.3-1.3-0.9c-0.1-0.1,0-0.2,0.1-0.3c0.1-0.1,0.2,0,0.3,0.1c0.3,0.5,0.7,0.7,1.1,0.7
			c0.1,0,0.2,0.1,0.2,0.2s-0.1,0.2-0.2,0.2C418.5,175.6,418.5,175.6,418.4,175.6L418.4,175.6z"/>
		<path class="st17" d="M417.6,176.4c-0.5,0-1.1-0.1-1.5-0.8c-0.1-0.1,0-0.2,0.1-0.3c0.1,0,0.2,0,0.3,0.1c0.2,0.4,0.5,0.6,1.1,0.6
			c0.1,0,0.2,0.1,0.2,0.2S417.8,176.4,417.6,176.4L417.6,176.4z"/>
		<path class="st17" d="M416.8,177.2L416.8,177.2c-0.5-0.1-1.1-0.2-1.4-0.7c-0.1-0.1,0-0.2,0.1-0.3s0.2,0,0.3,0.1
			c0.2,0.4,0.7,0.5,1.1,0.6h0.1c0.1,0,0.2,0.1,0.1,0.2C417,177.1,416.9,177.2,416.8,177.2L416.8,177.2z"/>
		<path class="st17" d="M416.1,178c-0.5-0.1-1.1-0.4-1.5-1c-0.1-0.1,0-0.2,0.1-0.3s0.2,0,0.3,0.1c0.3,0.5,0.8,0.7,1.2,0.8
			c0.1,0,0.2,0.1,0.2,0.2C416.4,178,416.2,178,416.1,178L416.1,178z"/>
		<path class="st22" d="M419,147.1c0.2,3.2,0.9,8.1,1.8,10.1c0,0.1,0,0.2,0,0.4c0.4,1.8-0.5,7.5-1.4,11.1c0.4,0.6,2.7,1.3,3.8,1.2
			c0.2,0,0.4-0.1,0.5-0.1c0.1,0,0.1,0,0.1,0c0.8-1.4,2-4.6,2.5-6.6c0.4-1.7,0.1-4.6,0.4-5.1c0.4-0.8-0.8-1.1-0.4-1.5
			c0.4-0.5-0.3-1.2-0.6-1.4c-0.3-0.3-0.5-1.2-0.5-2.3v-0.1c0-0.1,0-0.1,0-0.2l0,0c0.1-1.5,0.4-3.3,1.2-6c0.9-3.2,2.3-6.7,1.4-10.8
			c-0.8-3.9-5.7-4.8-7.1-1.8C419.4,136.6,418.8,143.2,419,147.1L419,147.1z"/>
		<path class="st15" d="M418,173.5c-0.1,0.3,2.8,1.9,3.3,0.4c0.2-0.5,0.5-1.2,0.9-2c0.3-0.6,0.7-1.4,1-2.1c-1.1,0.1-3.4-0.6-3.8-1.2
			c0,0.1-0.1,0.3-0.1,0.4c-0.2,0.7-0.4,1.3-0.5,1.8C418.1,172.7,418,173.3,418,173.5L418,173.5z"/>
		<path class="st21" d="M418.8,170.8c0.1,0.1,0.3,0.3,0.5,0.4c0.7,0.4,1.9,0.8,2.9,0.7c0.1,0,0.2,0,0.3-0.1c1-0.3,0.5-0.7,1-1.1
			c0.6-0.5,0.6-1.1,0.3-1.1h-0.1c-0.1,0.1-0.3,0.1-0.5,0.1c-1.1,0.1-3.4-0.6-3.8-1.2c-0.7-1-0.4,0.9-0.8,1.2
			C418.2,170,418.4,170.4,418.8,170.8L418.8,170.8z"/>
		<path class="st15" d="M402.1,96.2c-0.4-0.6-0.9-1.2-1.3-1.8c-0.3-0.5-0.4-1.3-0.5-1.9c-0.1-0.3-0.1-0.6-0.3-0.9
			c-0.2-0.4-0.9-0.8-0.6-1.4c0.2-0.3,0.8-0.3,1.1-0.3c0.6,0.1,1.6,0.3,2,1c0,0.1,0.2,0.4,0.2,0.5c0.6,0.8,0.8,1.5,1.1,2.2
			c0.2,0.4,0.1,0.9,0.2,1.3C404.2,96,402.8,97.2,402.1,96.2L402.1,96.2z"/>
		<path class="st23" d="M410.4,104.7c-0.1,0-0.1-0.1-0.2-0.1c-0.1-0.7-0.4-1.3-0.7-1.9c-0.8-0.1-3,1.1-3.3,2c0.7,1.1,1.4,1.7,2,2.3
			c0.7,1.5,1.9,2.6,3.3,4.2c2.9,3.3,5,4.8,6.9,5.3c2.6,0.8,3.1-4-0.2-6C416.1,109.3,413.6,106.6,410.4,104.7z"/>
		<path class="st15" d="M404,94.9c-0.6-0.2-2.3,0.4-1.9,1.3c0.4,0.9,1.5,2.9,2.4,5.3c0.1,0.1,0.1,0.3,0.2,0.4
			c0.5-0.9,1.9-1.7,2.7-1.9c-0.1-0.1-0.2-0.3-0.4-0.4C406,98.3,404.6,96.1,404,94.9L404,94.9z"/>
		<path class="st4" d="M407.4,100c-0.8,0.3-2.2,1-2.7,1.9s0.5,0.9,0.4,1.6c-0.1,0.9,0.9,1.7,1,1.3l0,0c0.3-0.9,2.5-2.1,3.3-2
			c1,0.1-0.5-1.3-0.5-1.8C408.8,100.4,408.1,99.7,407.4,100z"/>
		<path class="st15" d="M420.6,114.9c0.8,1,2.7,1.1,3.4,0.9c1.1-0.3,2.3-1.2,2.5-1.8c0.1,0,0.1,0.1,0.2,0.1
			c-0.2-0.2-0.4-0.3-0.5-0.4c-0.5-0.4-2.4-1.5-4-2.2C421.6,111.9,419.8,113.7,420.6,114.9L420.6,114.9z"/>
		<path class="st4" d="M416.5,126.6c0.2,2.5-0.2,6-0.4,8.3c0.3,0.5,0.4,0.5,3.9,2.9c3.5,2.3,8.4,2.6,8.6-0.6c-0.3-2.6-1.6-5.4-1-9
			c0.6-3.5,3.5-8.7,3-9.6c-0.5-1-2-2.7-3.2-3.8c-0.5,0.7-2.2,1.9-3.7,2.1c-1.3,0.2-2.5-0.1-3.4-1c-0.9-0.9-0.7-1.8-0.5-2.4
			c0.2-0.6,1.1-2.2,1.5-2.3c-0.2-0.1-0.3-0.1-0.5-0.2c-1.8-0.5-3-0.8-3.7,0.3c-0.6,1.1-2.3,7.2-1.5,9
			C416.6,122.3,416.2,123.6,416.5,126.6L416.5,126.6z"/>
		<path class="st23" d="M432.9,131.6c0.1,0.1,0.1,0.1,0.2,0.2c-0.1,0.7-0.1,1.4,0,2c0.7,0.4,3.2,0,3.8-0.8c-0.3-1.2-0.7-2.1-1.1-2.8
			c-0.2-1.7-0.9-3-1.7-5.1c-1.6-4.1-3-6-4.6-7.1c-2.2-1.6-5.4,3.2-2.2,5.8C429.2,125.2,430.6,128.7,432.9,131.6z"/>
		<path class="st15" d="M435.6,143c0.5,0.4,2.3,0.4,2.2-0.5s-0.4-3.2-0.4-5.8c0-0.2,0-0.3,0-0.5c-0.8,0.7-2.3,0.9-3.2,0.9
			c0.1,0.2,0.1,0.3,0.2,0.5C434.9,139.1,435.4,141.6,435.6,143L435.6,143z"/>
		<path class="st15" d="M437.8,142.4c0.3,1.3,0.8,3,0.7,3.8c-0.1,0.8-0.1,2.2-0.9,2.7c-0.8,0.5-1.9,0.7-2.4,0.7s0.1-1,0.4-1.4
			c0.4-0.5,0.2-1.4,0-2.1c-0.3-1-0.5,1.4-0.8,1.5c-0.3,0.1-0.4-1.5-0.2-2.1c0.2-0.6,0.9-1.4,1-2.5
			C435.6,141.9,437.5,141.2,437.8,142.4L437.8,142.4z"/>
		<path class="st4" d="M434.1,137c0.9,0,2.4-0.2,3.2-0.9c0.8-0.7-0.2-1,0.2-1.6c0.4-0.8-0.3-1.9-0.5-1.5l0,0
			c-0.6,0.7-3.1,1.1-3.8,0.8c-0.9-0.4,0,1.4-0.1,1.9C432.9,136.2,433.2,137,434.1,137z"/>
		<path class="st23" d="M421,116.3c0.8,0.5,1.7,0.6,2.7,0.4c1.5-0.2,3.2-1.4,3.7-2.1c-0.2-0.2-0.4-0.4-0.6-0.6
			c-0.1,0-0.1-0.1-0.2-0.1c-0.3,0.6-1.4,1.5-2.5,1.8c-0.6,0.2-1.9,0.2-2.7-0.3C421.1,115.6,421.1,115.9,421,116.3L421,116.3z"/>
		<path d="M422.2,111.5c-0.4-0.2-0.7-0.3-1-0.4l-0.1-0.1l0.1-0.1c0.3,0.1,0.7,0.2,1,0.4C422.4,111.4,422.4,111.4,422.2,111.5
			C422.4,111.5,422.2,111.5,422.2,111.5L422.2,111.5z"/>
		<path class="st23" d="M419.1,119.4c0.3,0.4,0.7,0.8,1,1c0-0.7,0.4-2.8,0.8-4c0.1-0.4,0.2-0.7,0.3-0.9c-0.3-0.1-0.5-0.3-0.6-0.5
			c-0.9-1.2,0.9-3,1.6-3.4c-0.3-0.1-0.6-0.3-0.9-0.4c-0.4,0.2-1.3,1.8-1.5,2.3c-0.2,0.5-0.3,1.2,0.2,1.9
			C419.8,115.8,419.1,119.1,419.1,119.4L419.1,119.4z"/>
		<path class="st4" d="M420.2,115.4c-0.2,0.1-0.2,0.3-0.1,0.5c0.1,0.2,0.4,0.3,0.5,0.2c0.2-0.1,0.2-0.3,0.1-0.5
			S420.4,115.3,420.2,115.4z"/>
		<path class="st4" d="M419.8,117.6c-0.2,0.1-0.2,0.3-0.1,0.5c0.1,0.2,0.4,0.3,0.5,0.2c0.2-0.1,0.2-0.3,0.1-0.5
			C420.1,117.5,419.9,117.5,419.8,117.6z"/>
		<path class="st15" d="M425.5,107.6c-0.4,1.2-0.3,4.9,0.8,6.1c-0.9,1.6-4.9,2.5-5.3,0.2c0.1-1.1,0.5-1.9-0.1-2.9
			C421.2,109.1,425.9,106.3,425.5,107.6L425.5,107.6z"/>
		<path class="st14" d="M421.1,112.9c0.3-0.6,3-1.4,3.3-3.5c-1.2,0.4-2.4,1.5-3.3,2.3C421.2,112.1,421.1,112.5,421.1,112.9z"/>
		<path class="st15" d="M418.1,104.7c-0.4,2.1,0.6,6.6,2,7.6c0.5,0.4,3.7-1.4,4.8-3.5c1-2,1.9-4.4,0.2-6.2c-1.7-1.8-4.2-1.8-5.7-0.5
			C418.2,103.1,418.1,104,418.1,104.7z"/>
		<path class="st24" d="M418.2,103.5c0.8-0.1,1.6,0.9,3.1,0.8c1.3-1.2,3.9-1.9,4.7-1.7c-0.7-1.6-2.2-2.6-4.4-2.5
			c-2.1,0.1-3.8,2.2-5,1.8C415.6,101.6,416.6,103.6,418.2,103.5L418.2,103.5z"/>
		<path class="st25" d="M421.4,104.3c0.2,0.9,1.5,1.7,1.9,2.9c0.3-0.7,1.2-1.3,1.5-0.3c0.4,1-0.1,2.1,0.4,2.4
			c0.2,0.2,0.8-1.5,1.1-2.6c0.3-0.9,0.5-3.3-0.3-4C425.2,102.4,422.6,103.2,421.4,104.3L421.4,104.3z"/>
		<path class="st14" d="M318.5,130.2l-36.8,21.3l-83.1-48l36.8-21.3L318.5,130.2z"/>
		<path class="st9" d="M32.6,241.6v99.1c0,1,0.6,2,1.9,2.8l56.6,32.7c2.8,1.6,7.8,1.4,11-0.5l55.1-31.9c1.8-1,2.7-2.4,2.7-3.6v-99.1
			c0,1.3-0.9,2.6-2.7,3.6l-55.1,31.9c-3.3,1.9-8.2,2.1-11,0.5l-56.6-32.7C33.2,243.6,32.6,242.6,32.6,241.6L32.6,241.6z"/>
		<path class="st10" d="M32.6,241.6c0,1,0.6,2,1.9,2.8l56.6,32.7c2.8,1.6,7.8,1.4,11-0.5l55.1-31.9c1.8-1,2.7-2.4,2.7-3.6
			c0-1-0.6-2-1.9-2.8l-56.6-32.7c-2.8-1.6-7.8-1.4-11,0.5l-55.1,31.8C33.5,239,32.6,240.3,32.6,241.6L32.6,241.6z"/>
		<path class="st11" d="M149,241.1c0,0.7-0.4,1.5-1.1,2.1c-0.3,0.3-0.7,0.6-1.1,0.8L101,270.5c-2.7,1.5-6.8,1.7-9.1,0.4l-46.8-27
			c-0.2-0.1-0.4-0.2-0.5-0.3c-0.7-0.6-1.1-1.2-1.1-1.9c0-1,0.7-2.1,2.2-3l45.8-26.4c2.7-1.5,6.8-1.7,9.1-0.4l46.8,27
			C148.4,239.4,148.9,240.2,149,241.1L149,241.1z"/>
		<path class="st9" d="M147.9,243.2c-0.3,0.3-0.7,0.6-1.1,0.8L101,270.5c-2.7,1.5-6.8,1.7-9.1,0.4l-46.8-27
			c-0.2-0.1-0.4-0.2-0.5-0.3c0.3-0.3,0.7-0.6,1.2-0.9l45.8-26.4c2.7-1.5,6.8-1.7,9.1-0.4l46.8,27C147.6,243,147.7,243.1,147.9,243.2
			z"/>
		<path class="st12" d="M155.5,255.8l-15.3,8.9v6.9l15.3-8.9V255.8z"/>
		<path class="st12" d="M155.5,266.6l-15.3,8.8v6.9l15.3-8.8V266.6z"/>
		<path class="st12" d="M155.5,277.3l-15.3,8.8v6.9l15.3-8.9V277.3z"/>
		<path class="st12" d="M155.5,288l-15.3,8.9v6.9l15.3-8.9V288z"/>
		<path class="st12" d="M155.5,298.8l-15.3,8.8v6.9l15.3-8.8V298.8z"/>
		<path class="st12" d="M155.5,309.5l-15.3,8.8v6.9l15.3-8.8V309.5z"/>
		<path class="st12" d="M137,266.6l-15.3,8.8v6.9l15.3-8.8V266.6z"/>
		<path class="st12" d="M137,277.3l-15.3,8.8v6.9l15.3-8.9V277.3z"/>
		<path class="st12" d="M137,288l-15.3,8.9v6.9l15.3-8.9V288z"/>
		<path class="st12" d="M137,298.8l-15.3,8.8v6.9l15.3-8.8V298.8z"/>
		<path class="st12" d="M137,309.5l-15.3,8.8v6.9l15.3-8.9V309.5z"/>
		<path class="st12" d="M137,320.2l-15.3,8.9v6.9l15.3-8.9V320.2z"/>
		<path class="st12" d="M118.3,277.3l-15.3,8.8v6.9l15.3-8.9V277.3z"/>
		<path class="st12" d="M118.3,288l-15.3,8.9v6.9l15.3-8.8V288z"/>
		<path class="st12" d="M118.3,298.8l-15.3,8.8v6.9l15.3-8.8V298.8z"/>
		<path class="st12" d="M118.3,309.5l-15.3,8.8v6.9l15.3-8.9V309.5z"/>
		<path class="st12" d="M118.3,320.2l-15.3,8.9v6.9l15.3-8.9V320.2z"/>
		<path class="st12" d="M118.3,331l-15.3,8.8v6.9l15.3-8.8V331z"/>
		<path class="st7" d="M37.2,255.7l15.3,8.8v6.9l-15.3-8.8V255.7z"/>
		<path class="st7" d="M37.2,266.4l15.3,8.9v6.9l-15.3-8.9V266.4z"/>
		<path class="st7" d="M37.2,277.2l15.3,8.9v6.9l-15.3-8.8V277.2z"/>
		<path class="st7" d="M37.2,287.9l15.3,8.8v6.9l-15.3-8.8V287.9z"/>
		<path class="st7" d="M37.2,298.6l15.3,8.9v6.9l-15.3-8.9V298.6z"/>
		<path class="st7" d="M37.2,309.4l15.3,8.9v6.9l-15.3-8.8V309.4z"/>
		<path class="st7" d="M55.7,266.4l15.3,8.9v6.9l-15.3-8.9V266.4z"/>
		<path class="st7" d="M55.7,277.2l15.3,8.9v6.9l-15.3-8.8V277.2z"/>
		<path class="st7" d="M55.7,287.9l15.3,8.8v6.9l-15.3-8.8V287.9z"/>
		<path class="st7" d="M55.7,298.6l15.3,8.9v6.9l-15.3-8.9V298.6z"/>
		<path class="st7" d="M55.7,309.4l15.3,8.9v6.9l-15.3-8.8V309.4z"/>
		<path class="st7" d="M55.7,320.1l15.3,8.8v6.9L55.7,327V320.1z"/>
		<path class="st7" d="M74.2,277.1l15.3,8.8v6.9L74.2,284V277.1z"/>
		<path class="st7" d="M74.2,287.9l15.3,8.8v6.9l-15.3-8.8V287.9z"/>
		<path class="st7" d="M74.2,298.6l15.3,8.9v6.9l-15.3-8.9V298.6z"/>
		<path class="st7" d="M74.2,309.3l15.3,8.9v6.9l-15.3-8.8V309.3z"/>
		<path class="st7" d="M74.2,320.1l15.3,8.8v6.9L74.2,327V320.1z"/>
		<path class="st7" d="M74.2,330.8l15.3,8.9v6.9l-15.3-8.9V330.8z"/>
		<path class="st12" d="M155.5,319.9l-15.3,8.8v6.9l15.3-8.8V319.9z"/>
		<path class="st12" d="M137,330.6l-15.3,8.9v6.9l15.3-8.9V330.6z"/>
		<path class="st12" d="M118.3,341.3l-15.3,8.8v6.9l15.3-8.8V341.3z"/>
		<path class="st7" d="M37.2,319.7l15.3,8.9v6.9l-15.3-8.9V319.7z"/>
		<path class="st7" d="M55.7,330.4l15.3,8.8v6.9l-15.3-8.8V330.4z"/>
		<path class="st7" d="M74.2,341.2l15.3,8.9v6.9l-15.3-8.9V341.2z"/>
		<path class="st12" d="M155.5,330.2l-15.3,8.8v6.9l15.3-8.8V330.2z"/>
		<path class="st12" d="M137,340.9l-15.3,8.9v6.9l15.3-8.9V340.9z"/>
		<path class="st12" d="M118.3,351.7l-15.3,8.8v6.9l15.3-8.8V351.7z"/>
		<path class="st7" d="M37.2,330.1l15.3,8.9v6.9L37.2,337V330.1z"/>
		<path class="st7" d="M55.7,340.8l15.3,8.8v6.9l-15.3-8.8V340.8z"/>
		<path class="st7" d="M74.2,351.5l15.3,8.8v6.9l-15.3-8.9V351.5z"/>
		<path class="st26" d="M1.4,153v3.7c0,0.6,0.3,1.1,1,1.5l30.5,17.6c1.5,0.9,4.2,0.8,5.9-0.2l64.7-37.4c1-0.6,1.5-1.3,1.5-1.9v-3.7
			c0,0.7-0.5,1.4-1.5,1.9l-64.7,37.4c-1.8,1-4.4,1.1-5.9,0.2L2.4,154.5C1.7,154.1,1.4,153.6,1.4,153L1.4,153z"/>
		<path class="st27" d="M19.5,167.2c0.1-0.1,0.1-0.1,0.1-0.3v-1c0-0.3-0.3-0.7-0.6-0.9l-3.7-2.2c-0.2-0.1-0.3-0.1-0.4-0.1
			c-0.1,0.1-0.1,0.1-0.1,0.3v1c0,0.3,0.3,0.7,0.6,0.9l3.7,2.2C19.2,167.2,19.4,167.2,19.5,167.2z"/>
		<path class="st8" d="M1.4,153c0,0.6,0.3,1.1,1,1.5l30.5,17.6c1.5,0.9,4.2,0.8,5.9-0.2l64.7-37.4c1-0.6,1.5-1.3,1.5-1.9
			s-0.3-1.1-1-1.5l-30.5-17.6c-1.5-0.9-4.2-0.8-5.9,0.2L2.9,151.1C1.9,151.6,1.4,152.3,1.4,153L1.4,153z"/>
		<path class="st12" d="M6.7,150.8c0,0.5,0.3,1,1,1.4L36.8,169c1.5,0.8,4,0.7,5.7-0.2l59.7-34.5c0.9-0.5,1.4-1.2,1.4-1.9
			c0-0.5-0.3-1-1-1.4l-29.1-16.8c-1.5-0.8-4-0.7-5.7,0.2L8.1,148.9C7.2,149.5,6.7,150.2,6.7,150.8z"/>
		<path class="st6" d="M72.2,131.2l3.7,2.1l-16.5,9.5L65,146l16.5-9.5l3.7,2.1L87,130L72.2,131.2z"/>
		<path class="st1" d="M64.2,135.9l-3.7-2.1l16.5-9.5l-5.5-3.2L55,130.6l-3.7-2.1l-1.8,8.6L64.2,135.9z"/>
		<path class="st14" d="M48.1,144.7c5.7,3.3,5.7,8.6,0,11.8c-5.7,3.3-14.8,3.3-20.5,0c-5.7-3.3-5.7-8.6,0-11.8
			C33.2,141.5,42.5,141.5,48.1,144.7z"/>
		<path class="st14" d="M107.3,245.6c5.7,3.3,5.7,8.6,0,11.8c-5.7,3.3-14.8,3.3-20.5,0s-5.7-8.6,0-11.8
			C92.6,242.4,101.7,242.4,107.3,245.6z"/>
		<path class="st15" d="M53.1,80c0.7-1.3,1.3-3.8,1.3-6.5c-0.1-2.6,0.1-4.9,0.2-5.8s-1.7-0.9-2.2-0.5c-0.1,1.3-0.4,5-0.9,6.5
			c-0.6,1.7-1.3,3.3-1,4.7C50.7,79.9,52.3,81.3,53.1,80L53.1,80z"/>
		<path class="st15" d="M54.5,67.8c0.1-0.7,0.3-1.4,0.4-2s-0.1-1.3-0.2-1.9c0-0.3-0.1-0.6,0-0.9c0.1-0.5,0.5-1.1,0.1-1.5
			c-0.2-0.2-0.6-0.1-0.9,0c-0.6,0.3-1.4,0.9-1.5,1.6c0,0.1-0.1,0.5-0.1,0.5C52,64.6,52,65.3,52,66c0,0.5,0.2,0.9,0.3,1.3
			C52.5,68.4,54.2,69,54.5,67.8L54.5,67.8z"/>
		<path class="st15" d="M43.2,92.2c1.7-0.9,4.4-3.2,6.4-6.2s3.1-5.9,3.6-6.9c0.5-0.9-1.9-2.1-3.3-0.3c-1.4,1.7-9,9.6-8.9,11.9
			C41.2,92,42.2,92.8,43.2,92.2L43.2,92.2z"/>
		<path class="st28" d="M43.6,92.6c2.2-0.7,6.6-5.3,7.6-8.5c-1.5,0.3-3.9-0.7-4.7-2.3c-1.2,1.7-3.1,4.2-4.1,5.2
			c-1.2,1.2-1.5,2.9-1.3,4.1C41.2,92.3,42.5,93,43.6,92.6L43.6,92.6z"/>
		<path class="st10" d="M33.8,150.4c-1.7-0.8-3.2-2.5-3.8-3.9c-0.6-1.3-2.7-2.4-2.5-3.1c0.1-0.4,0.4-1,0.9-1.6
			c-0.1,0.9,2.3,2.9,3.4,4.7c1.4,2.3,2.7,0.6,2.3-0.4c0.6,0.9,1,1.6,1,2.2C35.2,148.8,34.6,150.7,33.8,150.4z"/>
		<path class="st15" d="M31.8,146.6c-1.1-1.8-3.5-3.8-3.4-4.7c0.5-0.7,1-1.3,1.4-1.7c0.7-0.6,2.7,0.9,2.6,1.8
			c-0.1,1,0.7,2.5,1.3,3.5c0.1,0.2,0.3,0.5,0.4,0.7C34.6,147.1,33.2,148.8,31.8,146.6L31.8,146.6z"/>
		<path class="st15" d="M42.2,91.2c-2.3,1.4-5.1-0.5-6-1.7c0.3-0.3,0.6-0.5,0.8-0.7c0.6-0.5,2.9-1.8,4.7-2.5
			C42.3,87.2,44.1,90.1,42.2,91.2L42.2,91.2z"/>
		<path class="st15" d="M41.5,153.7c-1.6-1.3-4.5-2.5-4.8-3.4c0.2-0.7,0.5-1.5,0.7-1.9c0.4-0.8,2.8-0.1,3.1,0.8
			c0.3,0.9,1.7,2,2.4,2.8c0.3,0.3,0.7,0.7,1.2,1.1C44.6,153.9,43.1,155,41.5,153.7L41.5,153.7z"/>
		<path class="st10" d="M46.6,155.3c0,0.4-1.2,0.9-3,0.9c-1.9,0-2.7-0.9-3.7-2c-1-1-3.3-1.4-3.4-2c0-0.4,0.1-1.2,0.3-1.9
			c0.2,0.9,3.1,2,4.8,3.4c1.6,1.3,3.1,0.3,2.6-0.6C45.2,154,46.6,155,46.6,155.3L46.6,155.3z"/>
		<path d="M41.3,99.4c-0.5,0-1-0.1-1.6-0.4c0,0-0.1-0.1,0-0.1c0,0,0.1-0.1,0.1,0c1.9,0.8,2.8,0.1,3.9-0.8c0.6-0.5,1.3-1,2.2-1.3
			c0,0,0.1,0,0.1,0.1c0,0,0,0.1-0.1,0.1c-0.9,0.3-1.5,0.8-2.1,1.3C43.1,98.8,42.3,99.4,41.3,99.4L41.3,99.4z"/>
		<path class="st29" d="M47.2,105.3c0.8,3.2,0.3,9.3-0.6,13.1c-0.9,3.8-2.6,10.9-3.9,11.5c-1.2,0.6-4.5-0.7-3.6-3.1
			c0.8-2.4,1.1-4.6,0.5-10.8c-0.3-3.4-1.5-6.6,0.3-10.1C41.7,102.3,46.3,102.1,47.2,105.3z"/>
		<path class="st29" d="M32.1,135.2c0.7-1.8,1.5-3.5,2.3-4.4c1.8-2.2,4.2-3.4,5.8-4c1.6-0.6,4.1,1.7,2.6,3.1c-1.2,1.1-5.1,5-7.3,7.7
			C34,138.1,32.6,136.1,32.1,135.2L32.1,135.2z"/>
		<path class="st15" d="M31.6,143.1c-0.2,0.2-2.5-1.1-1.7-2.6c0.3-0.5,0.7-1.7,1.2-3c0.5,0.9,1.5,1.6,2,1.9c0.3,0.2,0.7,0.2,1,0.2
			C32.2,142.2,31.7,142.8,31.6,143.1L31.6,143.1z"/>
		<path class="st30" d="M34.1,139.5c-0.3,0-0.6,0-1-0.2c-0.5-0.3-1.5-1-2-1.9c-0.1-0.2-0.2-0.4-0.3-0.7c-0.2-0.5,0.3-0.8,0.4-1.2
			c0.1-0.6,0.6-0.8,0.8-0.5c0.6,1,2,3,3.4,2.5c0,0,0,0,0.1,0c0.3,0.5-0.5,0.7-0.5,1.3C35,139.2,34.6,139.5,34.1,139.5L34.1,139.5z"
			/>
		<path class="st1" d="M42.8,109.3c0.9,3.1,0.7,9.3,0,13.1c-0.7,3.8-2.5,10.2-3.6,10.8c-1.2,0.6-4.2,0.3-3.5-2.1
			c0.7-2.5,0.9-4.7,0.1-10.8c-0.5-3.3-1.8-6.5-0.2-10.1C37.2,106.6,42,106.2,42.8,109.3L42.8,109.3z"/>
		<path class="st1" d="M35.3,143.1c-0.7-1.8-1.2-3.6-1.3-4.9c-0.2-2.9,0.8-5.3,1.6-6.9c0.8-1.5,4.7-0.2,4.1,1.6
			c-0.5,1.5-0.5,6-0.2,9.6C38.8,143.9,36.5,143.4,35.3,143.1z"/>
		<path class="st15" d="M40.5,149.1c0,0.3-2.6,0.9-3.1-0.7c-0.2-0.6-0.6-1.7-1.1-3c1,0.3,2.1,0.2,2.7,0c0.4-0.1,0.7-0.3,0.9-0.5
			C40.2,148.1,40.5,148.8,40.5,149.1L40.5,149.1z"/>
		<path class="st30" d="M39.8,144.9c-0.2,0.2-0.5,0.4-0.9,0.5c-0.6,0.2-1.7,0.3-2.7,0c-0.2-0.1-0.5-0.2-0.7-0.3
			c-0.5-0.3-0.3-0.8-0.5-1.1c-0.4-0.5-0.1-1,0.3-0.9c1.1,0.3,3.5,0.8,4.2-0.5l0,0c0.6,0.2,0.1,0.9,0.5,1.3
			C40.3,144,40.2,144.5,39.8,144.9L39.8,144.9z"/>
		<path class="st10" d="M48.1,107.9c-0.6,1.8-6.8,5.5-8.8,5.9c-2.1,0.4-4.7-1.2-4.9-2.8c0.6-2.5,1.2-9.5,0.6-12.7s-2.1-4.8-0.3-6.8
			c0.3-0.4,0.7-0.9,1.1-1.3c2.7,3.2,6.2,2.5,7.2,1.7c1.4-1.1,1.1-2.9,0.6-3.9c-0.2-0.5-0.6-1.6-1-1.9c1.8-0.5,3-0.8,3.7,0.3
			c0.6,1.1,0.2,1.8,0.7,3.6c0.3,1.3,1.1,2.5,1.2,3.8c0,0.1,0,0.2,0,0.2c0.1,2.1-0.5,4.5-0.7,6.3C47.2,102.1,47,104.8,48.1,107.9
			L48.1,107.9z"/>
		<path class="st28" d="M42.8,91.9c-1,0.8-4.6,1.5-7.2-1.7c0.2-0.2,0.4-0.4,0.6-0.6c0.9,1.1,3.7,3.1,6,1.7c1.8-1.1,0.1-4.1-0.5-4.8
			c0.3-0.1,0.5-0.2,0.8-0.3c0.3,0.3,0.7,1.4,1,1.9C44,89,44.3,90.8,42.8,91.9L42.8,91.9z"/>
		<path d="M41.7,86.5C41.7,86.5,41.7,86.5,41.7,86.5C41.7,86.5,41.7,86.5,41.7,86.5c-0.1-0.1-0.1-0.1-0.1-0.2
			c0.2-0.1,0.5-0.2,0.8-0.3c0,0,0.1,0,0.1,0.1c0,0,0,0.1-0.1,0.1C42.2,86.3,42.1,86.4,41.7,86.5L41.7,86.5L41.7,86.5z"/>
		<path class="st2" d="M43.8,100.7c0.8-1.5,2.5-1.6,2.2,0c-0.4,1.6-1.5,3.5-2.2,4.7c-1.6-1.3-2.4-1.6-2.1-3.1
			C42.2,100.7,43.3,100.4,43.8,100.7L43.8,100.7z"/>
		<path class="st31" d="M38.2,76.8c-0.7-1.3-2.6-2.5-4.5-1.1s-1.6,4.9-0.6,7.1c1.1,2.2,0.4,3.8-0.1,4.8c1.9,0,3.1-1.2,3-3.2
			s0.3-3.4,1.5-4C38.8,79.8,38.6,77.2,38.2,76.8L38.2,76.8z"/>
		<path class="st15" d="M37.8,82.8c0.4,1.2,0.3,4.9-0.8,6.1c0.9,1.6,4.9,2.5,5.3,0.2c-0.1-1.1-0.5-1.9,0.1-2.9
			C42.1,84.3,37.5,81.5,37.8,82.8L37.8,82.8z"/>
		<path class="st14" d="M42.2,88c-0.3-0.6-3.1-2-3.3-3.5c1.2,0.4,2.4,1.5,3.3,2.3C42.2,87.2,42.1,87.6,42.2,88L42.2,88z"/>
		<path class="st15" d="M45.3,79.9c0.4,2.1-0.6,6.5-2,7.6c-0.5,0.4-3.7-1.4-4.8-3.5c-1-2-1.9-4.4-0.2-6.2c1.7-1.8,4.2-1.7,5.7-0.5
			C45.2,78.3,45.2,79.3,45.3,79.9z"/>
		<path d="M40.5,80.1C40.5,80.1,40.3,80,40.5,80.1c0.2-1.4,2.2-2.3,2.9-2.5c0,0,0.1,0,0.1,0.1c0,0,0,0.1-0.1,0.1
			C42.7,78,40.7,78.9,40.5,80.1C40.6,80.1,40.5,80.1,40.5,80.1L40.5,80.1z"/>
		<path class="st32" d="M44.8,78.4c-0.5,0.4-2,0.8-3.5,2.1c-0.8,0.7-1.4,1.5-1.5,2.6c-0.3,0.1-0.5-1.8-1.3-1.3
			c-1.4,0.8,0.2,2.9-0.4,3c-0.5,0.1-2.3-3.2-2-5.4c0.4-2.2,2.2-3.4,3.6-3.6s2.6-0.1,3.7,0.5C44.6,76.7,45.5,78,44.8,78.4L44.8,78.4z
			"/>
		<path class="st15" d="M34.2,92.1c-1.3,1.5-2.8,5.3-3.7,8.8c-0.9,3.5-1.1,5.2-1.3,6.3c-0.2,1,2.4,1.9,3.2-0.2
			c0.7-2.1,2.2-7.3,3.8-9.2C38.8,94.6,36.1,90.1,34.2,92.1L34.2,92.1z"/>
		<path class="st15" d="M29.2,107.6c0,1.5,0.6,4,1.8,6.3c1.2,2.3,2.1,4.4,2.5,5.3s1.9,0,2.2-0.6c-0.5-1.3-1.9-4.6-2.2-6.2
			c-0.3-1.8-0.4-3.5-1.3-4.6C31.2,106.6,29.2,106.1,29.2,107.6L29.2,107.6z"/>
		<path class="st15" d="M33.6,119.1c0.4,1.3,0.8,3,1.3,3.7c0.5,0.6,1.2,1.9,2.1,1.9s2-0.3,2.5-0.6c0.5-0.3-0.6-0.8-1-1
			c-0.5-0.2-0.9-1.1-1.1-1.8c-0.3-1,1.1,1,1.4,0.9s-0.4-1.5-0.8-2c-0.5-0.5-1.5-0.8-2.1-1.7C35.1,117.7,33.2,118,33.6,119.1
			L33.6,119.1z"/>
		<path class="st28" d="M34.5,91.8c-1.9,1.3-4.1,6.5-4.7,10.5c1,1.7,3.5,1.6,5,0.7c0.5-1.8,1.6-5.2,2.5-6.3c0.9-1.1,0.5-3-0.1-4.1
			C36.7,91.4,35.3,91.1,34.5,91.8L34.5,91.8z"/>
		<path class="st6" d="M237.1,77.5L219,88.1c-0.1,0.1-0.3,0.1-0.4,0.2c-2.4,1.1-5.8,0.4-10.2-2.2c-2.6-1.5-4.9-3-6.7-4.5
			c-1.8-1.5-3.5-3.1-5.1-4.8l18.1-10.6c1.5,1.7,3.3,3.3,5.1,4.8c1.9,1.5,4.1,3,6.7,4.5c4.4,2.6,7.9,3.3,10.2,2.2
			C236.9,77.7,237,77.6,237.1,77.5z"/>
		<path class="st1" d="M209.6,47l18.1-10.6l4.1,1.9l-18.1,10.6L209.6,47z"/>
		<path class="st1" d="M209.7,31.3l18.1-10.6l-0.1,15.7L209.6,47L209.7,31.3z"/>
		<path class="st1" d="M247.1,92.4L229,103c1.8-1,3.2-2.6,4.3-4.8c1.4-2.7,2-6.3,2.1-10.9c0-3.9-0.5-7.7-1.5-11.4
			c-1-3.7-2.4-7.2-4.3-10.5c-1.9-3.3-4.1-6.3-6.8-9.1c-2.7-2.8-5.6-5.2-8.9-7.3L232,38.4c3.3,2.1,6.3,4.5,8.9,7.3
			c2.7,2.8,4.9,5.8,6.8,9.1c1.9,3.3,3.3,6.8,4.3,10.5c1,3.7,1.5,7.5,1.5,11.4c0,4.6-0.7,8.2-2.1,10.9
			C250.2,89.8,248.9,91.4,247.1,92.4z"/>
		<path class="st1" d="M233.1,30.7l18.1-10.6v14.2l-18.1,10.6V30.7z"/>
		<path class="st6" d="M198.4,10.6L216.5,0l34.8,20.1l-18.1,10.6L198.4,10.6z"/>
		<path class="st0" d="M233.1,30.7v14.2l-23.5-13.6V47l4.1,1.9c3.3,2.1,6.3,4.5,8.9,7.3c2.7,2.8,4.9,5.8,6.8,9.1s3.3,6.8,4.3,10.5
			s1.5,7.5,1.5,11.4c0,4.6-0.7,8.2-2.1,10.9c-1.3,2.7-3.2,4.5-5.6,5.5c-2.4,0.9-5.2,1.1-8.5,0.4c-3.2-0.7-6.8-2.2-10.6-4.4
			c-3-1.7-5.9-3.7-8.6-5.9c-2.7-2.2-5-4.3-6.9-6.4l3.6-10.5c1.5,1.7,3.3,3.3,5.1,4.8c1.9,1.5,4.1,3,6.7,4.5
			c4.4,2.6,7.9,3.3,10.2,2.2c2.4-1.1,3.5-3.8,3.6-8.2c0-4.6-1.4-8.9-4.1-12.6c-2.7-3.8-6.7-7.1-11.8-10.1l-8-4.3l0.1-42.6
			L233.1,30.7L233.1,30.7z"/>
		<path class="st1" d="M268.2,69.3l18.1-10.6c-0.2,0.1-0.4,0.2-0.6,0.3c-1.8,1.3-3.2,3.4-4.2,6.4c-1,3-1.5,7.1-1.5,12.2
			c0,4.9,0.5,9.4,1.4,13.4c0.9,4.1,2.2,7.7,3.9,11s3.7,6.1,5.9,8.5c2.3,2.4,4.7,4.3,7.2,5.8c1.8,1,3.5,1.8,5.2,2.2
			c1.7,0.5,3.1,0.5,4.3,0.2l-18.1,10.6c-1.1,0.3-2.6,0.3-4.3-0.2c-1.7-0.5-3.4-1.2-5.2-2.2c-2.5-1.5-5-3.4-7.2-5.8s-4.2-5.2-5.9-8.5
			c-1.7-3.3-3-6.9-3.9-11s-1.4-8.5-1.4-13.4c0-5.1,0.5-9.2,1.5-12.2s2.4-5.1,4.2-6.4C267.8,69.5,268,69.4,268.2,69.3z"/>
		<path class="st6" d="M274.6,93.6L292.7,83l26.4,15.3L301,108.9L274.6,93.6z"/>
		<path class="st1" d="M301,108.9l18.1-10.6l-0.1,36.3l-18.1,10.6L301,108.9z"/>
		<path class="st6" d="M257.2,53.3l18.1-10.6c0.2-0.1,0.5-0.3,0.7-0.4c3.1-1.6,6.7-2,10.6-1.2c3.9,0.7,7.9,2.3,11.9,4.6l-18.1,10.6
			c-4-2.3-8-3.9-11.9-4.6c-3.9-0.7-7.4-0.3-10.6,1.2C257.7,53.1,257.4,53.2,257.2,53.3z"/>
		<path class="st1" d="M298.4,70l18.1-10.6l-2.9,11.7l-18.1,10.6L298.4,70z"/>
		<path class="st6" d="M280.5,56.4l18.1-10.6c4,2.3,7.6,4.7,10.7,7.2c3.1,2.5,5.5,4.6,7.3,6.5L298.4,70c-1.8-1.8-4.3-4-7.3-6.5
			C288.1,61.1,284.5,58.7,280.5,56.4z"/>
		<path class="st0" d="M280.5,56.4c4,2.3,7.6,4.7,10.7,7.2c3.1,2.5,5.5,4.6,7.3,6.5l-2.9,11.7c-1.7-1.7-3.6-3.4-5.7-5.1
			c-2.1-1.6-4.8-3.4-8-5.2c-2.9-1.7-5.6-2.7-8-3.1s-4.5,0-6.3,1.3s-3.2,3.4-4.2,6.4s-1.5,7.1-1.5,12.2c0,4.9,0.5,9.4,1.4,13.4
			c0.9,4.1,2.2,7.7,3.9,11c1.7,3.3,3.7,6.1,5.9,8.5c2.3,2.4,4.7,4.3,7.2,5.8c1.8,1,3.5,1.8,5.2,2.2c1.7,0.5,3.1,0.5,4.3,0.2v-15.3
			l-15.3-10.7v-9.7l26.4,15.3l-0.1,36.3c-2.8,1.1-6.2,1.1-10.2,0.1c-3.9-1-7.8-2.7-11.7-4.9c-4.5-2.6-8.7-5.9-12.6-9.7
			c-3.9-3.9-7.2-8.3-10-13.4s-5-10.8-6.6-17.1c-1.6-6.3-2.4-13.1-2.4-20.5c0-7.7,1-13.6,2.9-17.9s4.5-7.2,7.6-8.8s6.7-2,10.6-1.2
			C272.4,52.5,276.4,54.1,280.5,56.4L280.5,56.4z"/>
		<path class="st15" d="M113.5,206.5c0.6,0.4,1.2,1,1.8,1.4c0.2,0.2,0.5,0.3,0.8,0.3c0.2,0,0.2,0.1,0.3,0.2c0.1,0.1,0.2,0.2,0.3,0.3
			c0.1,0.1,0.2,0.2,0.3,0.3c0.3,0.2,0.8,0,1.1-0.2c0.3-0.1,0.6-0.3,0.7-0.5c0.2-0.2,0.2-0.5,0.2-0.7c0-0.3,0.1-0.7-0.1-1.1
			c-0.1-0.1-0.1-0.3-0.3-0.4c-0.1,0-0.4-0.2-0.5-0.3c-0.8-0.7-1.5-0.9-2.2-1.2c-0.4-0.2-0.9-0.1-1.3-0.3
			C113.7,204.3,112.3,205.8,113.5,206.5L113.5,206.5z"/>
		<path class="st33" d="M103.3,184.5c-0.9,1.8-1.5,4.1-1.1,8.5c0.2,2.3,0.1,3.9,0.7,5.4c0.4,1,3.3,2.1,3.9-0.1
			c1.2-4.4,0.5-7.8,0.5-10.3C107.3,184.5,104.7,182.1,103.3,184.5z"/>
		<path class="st33" d="M103.1,199.6c0.9,1.2,1.9,2.8,5,4.2c2.4,1.1,4.4,2.7,5.3,3.2c0.8,0.5,2-2.1,1.6-2.9
			c-1.1-0.7-3.2-1.8-4.4-2.9c-1.3-1.3-2.1-2.9-4.2-3.5C105,197.2,102.2,198.4,103.1,199.6L103.1,199.6z"/>
		<path class="st34" d="M111.3,253.8c-1.4,0.3-3.9-1.3-5-2.4c-1.1-1.1-3.4-1.4-3.5-2s0.2-1.8,0.6-2.8c0.8,1,3.6,1.9,4,0.5
			c0.5,0.7,1.4,1.5,2.1,2.1c1.2,1,2,1.5,2.3,2.2C112.1,251.8,112.2,253.7,111.3,253.8L111.3,253.8z"/>
		<path class="st4" d="M111.3,253.5c-1.4,0.3-3.9-1.3-5-2.4s-3.4-1.4-3.5-2s0.2-1.8,0.6-2.8c0.8,1,3.6,1.9,4,0.5
			c0.5,0.7,1.4,1.5,2.1,2.1c1.2,1,2,1.5,2.3,2.2C112.1,251.5,112.2,253.4,111.3,253.5L111.3,253.5z"/>
		<path class="st15" d="M107.5,246.9c-0.4,1.4-3.2,0.5-4-0.5c0.2-0.5,0.3-0.9,0.5-1.1c0.4-0.8,2.9-0.1,3.1,0.8
			C107.1,246.3,107.2,246.6,107.5,246.9z"/>
		<path class="st34" d="M107,248.3c-0.1,0-0.1,0-0.2,0s-0.2-0.1-0.1-0.2c0-0.1,0.1-0.2,0.2-0.1c0.4,0.1,0.8-0.3,0.9-0.6
			c0-0.1,0.1-0.1,0.2-0.1s0.1,0.1,0.1,0.2C108,247.9,107.5,248.3,107,248.3z"/>
		<path class="st34" d="M107.5,249.1c-0.1,0-0.1,0-0.2-0.1c0-0.1,0-0.2,0.1-0.2c0.5-0.2,0.9-0.4,1-0.7c0-0.1,0.1-0.1,0.2-0.1
			s0.1,0.1,0.1,0.2C108.6,248.6,108.2,248.8,107.5,249.1C107.5,249,107.5,249,107.5,249.1L107.5,249.1z"/>
		<path class="st34" d="M108.2,249.7c-0.1,0-0.1,0-0.2-0.1c0-0.1,0-0.2,0.1-0.2c0.5-0.2,0.9-0.4,1-0.7c0-0.1,0.2-0.1,0.2-0.1
			c0.1,0,0.1,0.2,0.1,0.2C109.3,249.2,109,249.5,108.2,249.7L108.2,249.7L108.2,249.7z"/>
		<path class="st34" d="M109,250.5c-0.1,0-0.1-0.1-0.2-0.1c0-0.1,0-0.2,0.1-0.2c0.4-0.1,0.9-0.4,0.9-0.8c0-0.1,0.1-0.2,0.2-0.1
			c0.1,0,0.2,0.1,0.1,0.2C110.2,249.9,109.6,250.3,109,250.5C109,250.4,109,250.4,109,250.5L109,250.5z"/>
		<path class="st34" d="M92.1,254.6c-0.4,0.8-1.7,0.7-3.2,0c-1.7-0.9-2.3-1.8-3-3.2c-0.7-1.3-2.8-2.4-2.6-3c0.1-0.6,0.7-1.5,1.3-2.3
			c0.1,1.3,2.8,2.2,3.6,1.2c0.2,0.9,1,2.1,1.4,3C90.2,251.6,92.2,254.2,92.1,254.6L92.1,254.6z"/>
		<path class="st15" d="M88.2,247c-0.8,1-3.5,0.1-3.6-1.2c0.3-0.4,0.6-0.8,0.9-1c0.7-0.6,2.8,0.8,2.7,1.8
			C88.2,246.6,88.2,246.8,88.2,247L88.2,247z"/>
		<path class="st4" d="M92.2,254.4c-0.4,0.8-1.7,0.7-3.2,0c-1.7-0.9-2.3-1.8-3-3.2c-0.7-1.3-2.8-2.4-2.6-3c0.1-0.6,0.7-1.5,1.3-2.3
			c0.1,1.3,2.8,2.2,3.6,1.2c0.2,0.9,1,2.1,1.4,3C90.2,251.3,92.2,254,92.2,254.4L92.2,254.4z"/>
		<path class="st35" d="M87.5,248.2c-0.2,0-0.3,0-0.5-0.1c0,0-0.1-0.1,0-0.1c0,0,0.1-0.1,0.1,0c0.3,0.2,0.9,0.1,1.4-0.3h0.1v0.1
			C88.2,248.1,87.8,248.2,87.5,248.2z"/>
		<path class="st34" d="M88.2,249.4c-0.2,0-0.4,0-0.6-0.1c-0.1,0-0.2-0.1-0.1-0.2c0-0.1,0.1-0.2,0.2-0.1c0.6,0.2,1,0.1,1.3-0.2
			c0.1-0.1,0.2-0.1,0.3,0c0.1,0.1,0.1,0.2,0,0.3C88.8,249.3,88.5,249.4,88.2,249.4L88.2,249.4z"/>
		<path class="st34" d="M88.8,251.3c-0.1,0-0.3,0-0.4,0s-0.2-0.1-0.1-0.2c0-0.1,0.1-0.2,0.2-0.1c0.4,0.1,1,0,1.4-0.4
			c0.1-0.1,0.2-0.1,0.3,0c0.1,0.1,0.1,0.2,0,0.3C89.7,251.2,89.2,251.3,88.8,251.3L88.8,251.3z"/>
		<path class="st34" d="M88.7,250.4c-0.2,0-0.4,0-0.6-0.1H88c-0.1,0-0.2-0.1-0.1-0.2c0-0.1,0.1-0.2,0.2-0.1h0.1
			c0.4,0.1,0.9,0.2,1.2-0.2c0.1-0.1,0.2-0.1,0.3,0c0.1,0.1,0.1,0.2,0,0.3C89.5,250.3,89.2,250.4,88.7,250.4L88.7,250.4z"/>
		<path class="st36" d="M105,204.7c1.7,2.9,3,9.5,3.2,13.4s-0.1,10.3-1.2,11.2c-1,0.9-5,1.8-4.9-0.8c0.2-2.6,0.8-4.5-1.5-10.4
			c-1.2-3.2-3-6.5-2.6-10.8C98.3,203.3,103.2,201.8,105,204.7L105,204.7z"/>
		<path class="st36" d="M107.2,229.1c-0.7,1.8-0.6,8.3-0.2,12c0.4,3.6,0.8,5.2,0.8,5.7c-0.4,1.7-4.2,0.7-4.7-0.5
			c-0.5-2.3-2-8.5-2.1-11.4s0.4-5.6,1.3-7.1C103,226.2,107.7,227.3,107.2,229.1L107.2,229.1z"/>
		<path class="st2" d="M102.1,207.6c0.9,3.2,0.4,9.9-0.4,13.7c-0.8,3.8-2.8,9.9-4,10.5s-5.3,0.4-4.5-2.1s1.9-4.2,1.2-10.4
			c-0.4-3.4-1.2-7.1,0.3-11.1C96.1,204.5,101.2,204.4,102.1,207.6L102.1,207.6z"/>
		<path class="st2" d="M97.7,232c-1.6,1.2-5.6,7.8-7.2,11.2c-1.7,3.3-1.9,4.8-2,5.1c-0.1,0.3-4-0.1-4.1-2.9
			c0.9-2.2,2.9-8.2,4.4-10.7s3.4-4.4,4.9-5.3C95.2,228.5,99.1,230.4,97.7,232z"/>
		<path class="st13" d="M106.8,207.7c-0.3,0.5-0.9,0.7-4.3,3.3c-3.6,2.7-8.6,2.6-8.8-0.7c0.6-2,0.9-4.2,0.4-7.9
			c-0.6-3.6-3-9.8-2.5-10.8c0.5-0.9,1.9-2.6,3.1-3.7c0.8,1.3,4.8,3.6,7.3,1.7c1.8-1.4,0.8-4.6-0.3-5.7c1.7-0.5,2.9-0.7,3.5,0.3
			c0.7,1.1,2.4,7.3,1.5,9.2c-0.9,2.1-0.7,3.5-0.9,6.5C105.8,202.5,106.7,205.4,106.8,207.7L106.8,207.7z"/>
		<path class="st33" d="M102.1,189.6c-2.5,1.9-6.5-0.4-7.3-1.7c0.2-0.2,0.4-0.4,0.5-0.5c0.8,1.3,4.9,3,6.4,1.7
			c1.5-1.3,0.4-3.7-0.7-4.9c0.2-0.1,0.4-0.1,0.5-0.2c0.1,0,0.1,0,0.2-0.1C102.8,185,103.7,188.2,102.1,189.6z"/>
		<path class="st15" d="M101.7,189.1c-1.5,1.3-5.6-0.4-6.4-1.7c0.3-0.3,0.6-0.5,0.7-0.7c0.6-0.5,3.2-1.9,5-2.6
			C102.2,185.4,103.2,187.8,101.7,189.1z"/>
		<path d="M101.1,184.2L101.1,184.2c-0.1,0-0.1-0.1-0.1-0.1c0.1-0.3,0.3-0.4,0.5-0.4c0.1,0,0.3,0,0.4,0.2v0.1h-0.1
			c-0.1-0.1-0.2-0.1-0.3-0.1C101.3,183.9,101.2,184,101.1,184.2L101.1,184.2L101.1,184.2z"/>
		<path class="st15" d="M97.7,180.7c0.3,1.3-0.4,5-1.6,6.1c0.7,1.8,4.6,3.1,5.3,0.9c0-1.2-0.3-1.9,0.5-2.9
			C101.7,182.7,97.5,179.4,97.7,180.7L97.7,180.7z"/>
		<path class="st14" d="M101.1,187.1c-0.3-0.7-2.9-2-2.9-4.1c1.2,0.5,2.2,2,3,2.9C101.1,186.2,101.1,186.6,101.1,187.1z"/>
		<path class="st15" d="M105.7,180c-0.2,2.2-2.4,6.3-4.1,6.9c-0.6,0.2-3.3-2.4-3.8-4.8c-0.5-2.2-0.7-4.9,1.6-6.1
			c2.2-1.3,4.6-0.5,5.7,1.1C106,178.3,105.7,179.3,105.7,180L105.7,180z"/>
		<path class="st25" d="M105.2,182.5c-1.3,1-3.3,1.4-4.2,0.2c-0.8-0.9-0.9-2.9-1.1-2.6c-0.6,0.7-0.8,3.4-1.1,4.8
			c-0.3,1.4,1.5,3.3,3,3.2C103.2,188.1,105.2,183.6,105.2,182.5L105.2,182.5z M103.7,184.2c-0.2,0.5-2.1,0.6-2,0
			C101.7,183.8,103.8,183.7,103.7,184.2z"/>
		<path class="st37" d="M108.7,209.9l-0.5,5.4c0,0.2-0.2,0.5-0.5,0.6c-0.6,0.3-1.5,0.3-2,0c-0.3-0.2-0.5-0.4-0.5-0.6l-0.5-5.4H108.7
			L108.7,209.9z"/>
		<path class="st38" d="M108.1,209.1c0.4,0.2,0.6,0.5,0.6,0.8c0,0.3-0.2,0.6-0.6,0.8c-0.8,0.5-2.1,0.5-2.9,0
			c-0.4-0.2-0.6-0.5-0.6-0.8c0-0.3,0.2-0.6,0.6-0.8C106.1,208.6,107.2,208.6,108.1,209.1z"/>
		<path class="st39" d="M107.8,209.2c0.3,0.2,0.5,0.5,0.5,0.7c0,0.3-0.2,0.5-0.5,0.7c-0.7,0.4-1.8,0.4-2.4,0
			c-0.3-0.2-0.5-0.5-0.5-0.7c0-0.3,0.2-0.5,0.5-0.7C106.2,208.8,107.2,208.8,107.8,209.2z"/>
		<path class="st40" d="M108.3,210.1c-0.1,0.2-0.2,0.3-0.5,0.5c-0.7,0.4-1.8,0.4-2.4,0c-0.2-0.1-0.4-0.3-0.5-0.5
			c0.1-0.2,0.2-0.3,0.5-0.5c0.7-0.4,1.8-0.4,2.4,0C108.1,209.8,108.2,210,108.3,210.1z"/>
		<path class="st4" d="M108.7,211.7l-0.2,2c0,0.3-0.2,0.5-0.5,0.7c-0.7,0.4-1.8,0.4-2.5,0c-0.4-0.2-0.5-0.5-0.5-0.7l-0.2-2H108.7
			L108.7,211.7z"/>
		<path class="st41" d="M108.1,210.9c0.4,0.2,0.6,0.5,0.6,0.8c0,0.3-0.2,0.6-0.6,0.8c-0.8,0.5-2.1,0.5-2.9,0
			c-0.4-0.2-0.6-0.5-0.6-0.8c0-0.3,0.2-0.6,0.6-0.8C106.1,210.5,107.2,210.5,108.1,210.9z"/>
		<path class="st37" d="M108.7,209.9l-0.2,1.7c0,0.3-0.1,0.5-0.5,0.7c-0.7,0.4-2,0.4-2.7,0c-0.4-0.2-0.5-0.5-0.5-0.7l-0.2-1.7H108.7
			L108.7,209.9z"/>
		<path class="st38" d="M108.1,209.1c0.4,0.2,0.6,0.5,0.6,0.8c0,0.3-0.2,0.6-0.6,0.8c-0.8,0.5-2.1,0.5-2.9,0
			c-0.4-0.2-0.6-0.5-0.6-0.8c0-0.3,0.2-0.6,0.6-0.8C106.1,208.6,107.2,208.6,108.1,209.1z"/>
		<path class="st39" d="M107.8,209.2c0.3,0.2,0.5,0.5,0.5,0.7c0,0.3-0.2,0.5-0.5,0.7c-0.7,0.4-1.8,0.4-2.4,0
			c-0.3-0.2-0.5-0.5-0.5-0.7c0-0.3,0.2-0.5,0.5-0.7C106.2,208.8,107.2,208.8,107.8,209.2z"/>
		<path class="st40" d="M108.3,210.1c-0.1,0.2-0.2,0.3-0.5,0.5c-0.7,0.4-1.8,0.4-2.4,0c-0.2-0.1-0.4-0.3-0.5-0.5
			c0.1-0.2,0.2-0.3,0.5-0.5c0.7-0.4,1.8-0.4,2.4,0C108.1,209.8,108.2,210,108.3,210.1z"/>
		<path class="st22" d="M108.8,209.5v0.4c0,0.3-0.2,0.6-0.6,0.9c-0.8,0.5-2.2,0.5-3.1,0c-0.4-0.2-0.6-0.6-0.6-0.9v-0.4H108.8
			L108.8,209.5z"/>
		<path class="st21" d="M108.2,208.6c0.4,0.2,0.6,0.6,0.6,0.9c0,0.3-0.2,0.6-0.6,0.9c-0.8,0.5-2.2,0.5-3.1,0
			c-0.4-0.2-0.6-0.6-0.6-0.9s0.2-0.6,0.6-0.9C106,208.1,107.3,208.1,108.2,208.6z"/>
		<path class="st22" d="M108,208.7c0.4,0.2,0.5,0.5,0.5,0.8c0,0.3-0.2,0.5-0.5,0.8c-0.7,0.4-1.9,0.4-2.6,0c-0.4-0.2-0.5-0.5-0.5-0.8
			c0-0.3,0.2-0.5,0.5-0.8C106.1,208.3,107.2,208.3,108,208.7z"/>
		<path class="st21" d="M107.7,209c0.3,0.1,0.4,0.3,0.4,0.6c0,0.2-0.1,0.4-0.4,0.5c-0.5,0.3-1.4,0.3-1.9,0c-0.3-0.1-0.4-0.3-0.4-0.5
			c0-0.2,0.1-0.4,0.4-0.6C106.2,208.6,107.1,208.6,107.7,209z"/>
		<path class="st15" d="M100.7,213c1.1,0.7,2.6,1.8,3.4,2c0.8,0.2,2.2,0.7,2.9,0.1c0.7-0.6,1.3-1.6,1.5-2.1s-1-0.2-1.5-0.1
			c-0.3,0.1-0.7,0-1.1-0.2c-0.5-0.2-0.8-0.4-1.1-0.9c-0.1-0.3-0.2-0.5-0.2-0.8c-0.4,0-0.9-0.1-1.3-0.1s-0.9-0.1-1.3-0.2
			C101.1,210.5,99.7,212.4,100.7,213L100.7,213z"/>
		<path class="st33" d="M91.7,191.6c-1.1,1.6-1.9,3.9-2.1,8.3c-0.1,2.3-0.6,5-0.2,6.6c0.2,1.1,3.3,1.4,4.1-0.8
			c1.3-3.6,0.8-7.2,2.1-9.3C98,193,93.2,189.4,91.7,191.6L91.7,191.6z"/>
		<path class="st33" d="M89.7,207c1,1.1,2.1,2.6,5.4,3.8c2.5,0.9,4.7,2.3,5.5,2.7c0.9,0.4,1.9-2.3,1.5-3c-1.2-0.6-3.6-1.9-4.9-2.9
			c-1.4-1.2-2.2-2.3-4.4-2.7C91.3,204.6,88.7,205.9,89.7,207L89.7,207z"/>
		<path class="st42" d="M120.3,204.9l0.2,0.2v0.1l-0.4,2.4c0,0.1-0.1,0.3-0.3,0.3l-4.7,1.8c-0.1,0-0.1,0-0.2,0l-0.2-0.2
			c0,0,0.1,0,0.2,0l4.7-1.8c0.1-0.1,0.2-0.2,0.3-0.3l0.4-2.4V204.9z"/>
		<path class="st43" d="M120.3,204.9v0.1l-0.4,2.4c0,0.1-0.1,0.3-0.3,0.3l-4.7,1.8c-0.1,0-0.1,0-0.2,0v-0.1l0.4-2.4
			c0-0.1,0.1-0.3,0.3-0.3l4.7-1.9C120.2,204.8,120.3,204.8,120.3,204.9L120.3,204.9z"/>
		<path class="st22" d="M120.2,205v0.1l-0.3,2.3c0,0.1-0.1,0.2-0.3,0.3l-4.5,1.8c-0.1,0-0.1,0-0.2,0v-0.1l0.3-2.3
			c0-0.1,0.1-0.2,0.3-0.3l4.5-1.8C120.1,204.9,120.2,204.9,120.2,205L120.2,205z"/>
		<path class="st15" d="M115.3,206.5c0.8,0.3,1-0.1,1.4-0.2c0.7-0.2,2.6,1.2,2.1,0.3c-0.1-0.2-0.5-0.5-0.6-0.6s-1.3-1-2.1-1.1
			C115.2,205.3,115.3,206.5,115.3,206.5L115.3,206.5z"/>
		<path class="st15" d="M118.5,208.7c0.2-0.1,0.4-0.2,0.5-0.5c-0.1,0-0.2,0-0.3-0.1c-0.1-0.1-0.2-0.3-0.4-0.3s-0.3-0.1-0.5-0.1
			c-0.1,0-0.3,0.1-0.4,0.1c-0.4,0.2-0.8,0.5-1,0.9c-0.1,0.1-0.1,0.1,0,0.2s0.2,0.1,0.3,0.1c0.3,0.1,0.7,0,1.1-0.1
			C118,209,118.2,208.9,118.5,208.7C118.5,208.8,118.5,208.7,118.5,208.7L118.5,208.7z"/>
	</g>
	<g class="line">
		<path class="st44" d="M301,109.2c0,0,59.9-80.5,116.1-15.2"/>
	</g>
	<g class="line">
		<path class="st45" d="M322.1,119.5c0,2.9,6.4-19.4,18.7-9.5c19.7,15.8,31.9,72.3,34.5,95.8"/>
	</g>
	<g class="line">
		<path class="st45" d="M242.9,121.7c0,0-9.9-26.1-57.8-18.7s-72.4,41-80.7,66.6"/>
	</g>
	<g class="line">
		<path class="st45" d="M235.7,121.7c0,0-6.4-27.6-45.6-53.4c0,0-82.1-63.3-143.9-2.1"/>
	</g>
</g>
</svg>
