<svg width="108" height="109" viewBox="0 0 108 109" fill="none" xmlns="http://www.w3.org/2000/svg">
<g clip-path="url(#clip0_1_59)">
<path d="M41.2373 108.168H66.7063V102.71H41.2373V108.168Z" fill="#A6A8A9"/>
<path d="M63.0956 24.5117C63.0956 19.4887 59.0224 15.4155 53.9994 15.4155C48.9765 15.4155 44.9033 19.4887 44.9033 24.5117C44.9033 29.5346 48.9765 33.6078 53.9994 33.6078C59.0224 33.6078 63.0956 29.5346 63.0956 24.5117Z" fill="#0071ED"/>
<path d="M32.1414 48.1889C31.6756 48.1889 31.21 48.0106 30.8553 47.6559C24.6645 41.4651 21.2554 33.2458 21.2554 24.5119C21.2554 15.778 24.6645 7.5587 30.8553 1.36791C31.5667 0.656498 32.7164 0.656498 33.4276 1.36791C34.139 2.0774 34.139 3.22905 33.4276 3.94025C27.9246 9.44329 24.8937 16.7512 24.8937 24.5119C24.8937 32.2745 27.9246 39.5805 33.4276 45.0836C34.139 45.795 34.139 46.9447 33.4276 47.6559C33.0729 48.0106 32.607 48.1889 32.1414 48.1889Z" fill="#00DDF7"/>
<path d="M75.8573 48.1889C75.3915 48.1889 74.9259 48.0106 74.5712 47.6559C73.8597 46.9445 73.8597 45.7948 74.5712 45.0836C80.0761 39.5786 83.1068 32.2726 83.1068 24.5119C83.1068 16.7512 80.0759 9.44521 74.5712 3.94025C73.8597 3.22883 73.8597 2.0774 74.5712 1.36791C75.2826 0.656498 76.4323 0.656498 77.1435 1.36791C83.3343 7.5587 86.7453 15.7797 86.7453 24.5119C86.7453 33.2441 83.3343 41.4651 77.1435 47.6559C76.7887 48.0106 76.3231 48.1889 75.8573 48.1889Z" fill="#00DDF7"/>
<path d="M70.7147 43.0455C70.2489 43.0455 69.7833 42.8673 69.4286 42.5125C68.7172 41.8011 68.7172 40.6514 69.4286 39.9402C73.5563 35.8124 75.8321 30.3348 75.8321 24.5115C75.8321 18.6919 73.5563 13.2123 69.4286 9.08282C68.7172 8.37141 68.7172 7.22169 69.4286 6.51049C70.14 5.79908 71.2897 5.79908 72.0009 6.51049C76.8164 11.326 79.4687 17.7204 79.4687 24.5115C79.4687 31.3063 76.8162 37.6989 72.0009 42.5125C71.6462 42.8673 71.1803 43.0455 70.7147 43.0455Z" fill="#00DDF7"/>
<path d="M37.2852 43.0455C36.8194 43.0455 36.3538 42.8673 35.999 42.5125C31.1835 37.6989 28.5312 31.3043 28.5312 24.5115C28.5312 17.7204 31.1837 11.3258 35.999 6.51049C36.7105 5.79908 37.8602 5.79908 38.5714 6.51049C39.2828 7.2219 39.2828 8.37163 38.5714 9.08282C34.4436 13.2125 32.1695 18.6919 32.1695 24.5115C32.1695 30.3331 34.4436 35.8107 38.5714 39.9402C39.2828 40.6516 39.2828 41.8013 38.5714 42.5125C38.2166 42.8673 37.751 43.0455 37.2852 43.0455Z" fill="#00DDF7"/>
<path d="M65.5707 37.9023C65.1049 37.9023 64.6393 37.724 64.2845 37.3693C63.5731 36.6579 63.5731 35.5065 64.2845 34.797C67.0387 32.0445 68.5543 28.3915 68.5543 24.5129C68.5543 20.6325 67.0389 16.9795 64.2845 14.2253C63.5731 13.5158 63.5731 12.3642 64.2845 11.653C64.9959 10.9435 66.1457 10.9435 66.8569 11.653C70.2988 15.0932 72.1926 19.6612 72.1926 24.5129C72.1926 29.3666 70.2969 33.931 66.8569 37.3693C66.5021 37.724 66.0365 37.9023 65.5707 37.9023Z" fill="#00DDF7"/>
<path d="M42.4283 37.9023C41.9624 37.9023 41.4968 37.724 41.1421 37.3693C37.7019 33.931 35.8081 29.3666 35.8081 24.5129C35.8081 19.6593 37.7019 15.093 41.1421 11.653C41.8535 10.9435 43.0032 10.9435 43.7144 11.653C44.4258 12.3644 44.4258 13.5158 43.7144 14.2253C40.9619 16.9778 39.4466 20.6308 39.4466 24.5129C39.4466 28.3934 40.9619 32.0464 43.7144 34.797C44.4258 35.5065 44.4258 36.6581 43.7144 37.3693C43.3597 37.724 42.8939 37.9023 42.4283 37.9023Z" fill="#00DDF7"/>
<path d="M54.0003 33.1553C52.7049 33.1553 51.4769 33.0406 50.3618 32.8387L50.3345 60.8675H57.6112L57.6385 32.839C56.5236 33.0408 55.2956 33.1553 54.0003 33.1553Z" fill="#A6A8A9"/>
<path d="M46.6943 102.71H61.2481V60.8684H46.6943V102.71Z" fill="#4E4E4E"/>
</g>
<defs>
<clipPath id="clip0_1_59">
<rect width="107.333" height="107.333" fill="white" transform="translate(0.333496 0.833374)"/>
</clipPath>
</defs>
</svg>
