<svg width="106" height="106" viewBox="0 0 106 106" fill="none" xmlns="http://www.w3.org/2000/svg">
<g clip-path="url(#clip0_1_39)">
<path d="M79.8542 28.1589C79.5738 28.1589 79.2897 28.0956 79.024 27.961C78.1107 27.5016 77.7416 26.3883 78.201 25.4742C83.5435 14.8607 91.0689 4.617 93.1054 2.58134C94.5106 1.17633 96.3754 0.397445 98.3593 0.389404C98.3684 0.389404 98.3793 0.389404 98.39 0.389404C100.367 0.389404 102.221 1.15633 103.613 2.5498C104.337 3.27323 104.337 4.44589 103.613 5.1687C102.89 5.89213 101.718 5.89213 100.994 5.1687C100.296 4.47042 99.325 4.08799 98.3737 4.09335C97.3753 4.09788 96.435 4.49124 95.7243 5.20107C94.2358 6.68875 86.8986 16.4333 81.5109 27.1398C81.1854 27.7863 80.5325 28.1589 79.8542 28.1589Z" fill="#4E4E4E"/>
<path d="M85.4117 11.5016H59.9882C57.0413 11.5016 54.215 12.6722 52.1311 14.7561L1.31204 65.5749C-0.134613 67.0214 -0.134613 69.3665 1.31204 70.8129L35.3598 104.861C36.8065 106.307 39.1514 106.307 40.5978 104.861L91.4167 54.0417C93.5006 51.958 94.6712 49.1317 94.6712 46.1846V20.7612C94.6716 15.6473 90.5256 11.5016 85.4117 11.5016ZM83.7845 30.2456C81.6146 32.4155 78.0968 32.4155 75.9273 30.2456C73.7575 28.0757 73.7575 24.5582 75.9273 22.3885C78.0972 20.2188 81.615 20.2186 83.7845 22.3885C85.9539 24.5584 85.9541 28.0761 83.7845 30.2456Z" fill="#00DDF7"/>
<path d="M6.87084 71.1337L57.6895 20.3147C59.7734 18.231 62.5997 17.0602 65.5466 17.0602H90.9701C92.0716 17.0602 93.113 17.2857 94.0929 17.6385C92.8076 14.0687 89.4241 11.5016 85.4115 11.5016H59.9882C57.0413 11.5016 54.215 12.6722 52.1311 14.7561L1.31204 65.5749C-0.134613 67.0214 -0.134613 69.3665 1.31204 70.8129L6.87064 76.3715C5.42419 74.9255 5.42419 72.5802 6.87084 71.1337Z" fill="#0071ED"/>
<path d="M79.8575 28.1589C79.1793 28.1589 78.5265 27.7863 78.201 27.139C77.7417 26.2257 78.1105 25.1124 79.024 24.6522C89.7289 19.2672 99.4734 11.9282 100.962 10.4395C101.673 9.72884 102.065 8.78832 102.07 7.79007C102.074 6.79719 101.692 5.86656 100.995 5.1687C100.297 4.47083 99.3252 4.08799 98.374 4.09335C97.3755 4.09788 96.4352 4.49124 95.7245 5.20107C95.0011 5.9245 93.8291 5.9245 93.1056 5.20107C92.3822 4.47867 92.3822 3.30559 93.1056 2.58216C94.5104 1.17613 96.375 0.397445 98.3591 0.389404C98.3682 0.389404 98.3791 0.389404 98.3898 0.389404C100.367 0.389404 102.22 1.15633 103.613 2.5498C105.015 3.95048 105.781 5.81688 105.774 7.80451C105.765 9.78739 104.987 11.6532 103.58 13.0584C101.546 15.0949 91.3003 22.6221 80.6876 27.9618C80.4218 28.0956 80.1361 28.1589 79.8575 28.1589Z" fill="#A6A8A9"/>
<path d="M50.2242 76.5961C48.9456 76.5961 47.9092 75.5597 47.9092 74.2811V37.6146C47.9092 36.3359 48.9456 35.2996 50.2242 35.2996C51.5028 35.2996 52.5392 36.3359 52.5392 37.6146V74.2813C52.5392 75.5599 51.5028 76.5961 50.2242 76.5961Z" fill="white"/>
<path d="M37.1287 63.8182C35.0273 63.8182 33.0504 62.9989 31.5638 61.5122C30.0771 60.0264 29.2578 58.0497 29.2578 55.9473C29.2578 53.8448 30.0771 51.8681 31.5638 50.3815C33.0504 48.8956 35.0271 48.0765 37.1287 48.0765C39.232 48.0765 41.2089 48.8958 42.6937 50.3833C44.1804 51.8691 44.9997 53.8458 44.9997 55.9473C44.9997 58.0497 44.1804 60.0264 42.6937 61.5131C41.2089 62.9989 39.2322 63.8182 37.1287 63.8182ZM37.1287 52.7064C36.2643 52.7064 35.4504 53.0436 34.8374 53.656C34.2245 54.2683 33.8878 55.082 33.8878 55.9473C33.8878 56.8125 34.2243 57.6265 34.8374 58.238C36.0637 59.465 38.1942 59.4595 39.4203 58.2398C40.0332 57.6269 40.3698 56.8129 40.3698 55.9475C40.3698 55.0822 40.0334 54.2683 39.4203 53.6568C39.4203 53.656 39.4203 53.656 39.4203 53.6549C38.8071 53.0436 37.995 52.7064 37.1287 52.7064Z" fill="white"/>
<path d="M63.3206 63.818C61.2173 63.818 59.2404 62.9987 57.7557 61.5112C56.269 60.0264 55.4497 58.0497 55.4497 55.9473C55.4497 53.8448 56.269 51.8681 57.7557 50.3815C59.2404 48.8956 61.2171 48.0765 63.3206 48.0765C65.4221 48.0765 67.399 48.8958 68.8856 50.3825C70.3723 51.8691 71.1916 53.845 71.1916 55.9475C71.1916 58.0499 70.3723 60.0266 68.8856 61.5133C67.3988 62.9987 65.4221 63.818 63.3206 63.818ZM63.3206 52.7062C62.4543 52.7062 61.6423 53.0434 61.0293 53.6549C60.4164 54.2679 60.0797 55.0818 60.0797 55.9473C60.0797 56.8125 60.4162 57.6265 61.0293 58.238C62.2556 59.4632 64.3861 59.4661 65.6122 58.2388C66.2251 57.6265 66.5617 56.8127 66.5617 55.9475C66.5617 55.0822 66.2253 54.2683 65.6122 53.6568C65.6122 53.656 65.6122 53.656 65.6122 53.656C64.999 53.0434 64.1853 52.7062 63.3206 52.7062Z" fill="white"/>
</g>
<defs>
<clipPath id="clip0_1_39">
<rect width="105.556" height="105.556" fill="white" transform="translate(0.222656 0.389038)"/>
</clipPath>
</defs>
</svg>
