<svg width="16" height="15" viewBox="0 0 16 15" fill="none" xmlns="http://www.w3.org/2000/svg">
<g clip-path="url(#clip0_150_9596)">
<path d="M13.6909 6.73366L6.50882 13.9154C6.38462 14.0399 6.16746 14.0399 6.04293 13.9154L1.64491 9.51735C1.45182 9.32426 1.13913 9.32426 0.946067 9.51735C0.753004 9.71028 0.753004 10.0233 0.946067 10.2162L5.34411 14.6142C5.59303 14.8633 5.924 15.0004 6.27608 15.0004C6.62815 15.0004 6.95912 14.8633 7.20788 14.6142L14.3898 7.43251C14.5829 7.23958 14.5829 6.92657 14.3898 6.73366C14.1967 6.5406 13.884 6.5406 13.6909 6.73366Z" fill="#4E4E4E"/>
<path d="M5.60679 13.0545C5.92836 13.3763 6.44994 13.3763 6.77168 13.0545L13.9535 5.87263C14.3067 5.51942 14.4654 4.8489 14.3082 4.37493L13.5082 1.96306C13.3511 1.4891 12.8364 0.98663 12.3586 0.840675L9.77646 0.0525384C9.29889 -0.0932552 8.62538 0.0747735 8.27217 0.428005L1.20847 7.49143C0.886892 7.81317 0.886892 8.33459 1.20847 8.65633L5.60679 13.0545ZM10.175 2.34034C10.6577 1.85762 11.4401 1.85762 11.9226 2.34034C12.4053 2.82305 12.4053 3.60542 11.9226 4.08811C11.4399 4.57082 10.6575 4.57082 10.175 4.08811C9.69245 3.60542 9.69245 2.82305 10.175 2.34034Z" fill="#4E4E4E"/>
</g>
<defs>
<clipPath id="clip0_150_9596">
<rect width="15" height="15" fill="white" transform="translate(0.166504)"/>
</clipPath>
</defs>
</svg>
