<svg width="100" height="100" viewBox="0 0 100 100" fill="none" xmlns="http://www.w3.org/2000/svg">
<path d="M19.8637 29.0664C18.4825 27.9107 18.2995 25.8542 19.4551 24.473C23.0667 20.1558 27.6456 16.5833 32.6971 14.1416C34.3184 13.358 36.268 14.0371 37.052 15.6583C37.8358 17.2798 37.1565 19.2294 35.5354 20.0132C31.3106 22.0552 27.4799 25.0445 24.4575 28.6576C23.3014 30.0386 21.245 30.2218 19.8637 29.0664Z" fill="#00DDF7"/>
<path d="M32.6969 85.859C27.6455 83.4174 23.0664 79.8447 19.4549 75.5275C18.2992 74.1463 18.4822 72.0898 19.8635 70.9342C21.2447 69.7787 23.301 69.9615 24.4569 71.3431C27.4793 74.9562 31.31 77.9455 35.5348 79.9875C37.1561 80.7711 37.8354 82.7209 37.0514 84.3424C36.2684 85.9629 34.3194 86.6427 32.6969 85.859Z" fill="#00DDF7"/>
<path d="M50 20.8323C45.0535 20.8323 41.0289 16.8079 41.0289 11.8612C41.0289 6.91455 45.0532 2.89014 50 2.89014C54.9469 2.89014 58.9711 6.91455 58.9711 11.8612C58.9711 16.8079 54.9467 20.8323 50 20.8323Z" fill="#FFBB44"/>
<path d="M61.4205 39.9083H38.5793C36.3568 39.9083 34.7824 37.7272 35.4859 35.6165L39.2928 24.196C39.7367 22.8646 40.9826 21.9663 42.3861 21.9663H57.6137C59.0174 21.9663 60.2631 22.8644 60.707 24.196L64.5139 35.6165C65.2166 37.7247 63.6455 39.9083 61.4205 39.9083Z" fill="#FFBB44"/>
<path d="M50 2.89062V20.8326C54.9465 20.8326 58.9711 16.8082 58.9711 11.8615C58.9711 6.91484 54.9467 2.89062 50 2.89062Z" fill="#BD934A"/>
<path d="M64.5141 35.6165L60.7072 24.196C60.2633 22.8646 59.0174 21.9663 57.6139 21.9663H50V39.9083H61.4205C63.6455 39.9085 65.2166 37.7249 64.5141 35.6165Z" fill="#BD934A"/>
<path d="M50 78.034C45.0535 78.034 41.0289 74.0096 41.0289 69.0629C41.0289 64.1162 45.0532 60.0918 50 60.0918C54.9469 60.0918 58.9711 64.1162 58.9711 69.0629C58.9711 74.0096 54.9467 78.034 50 78.034Z" fill="#FFBB44"/>
<path d="M61.4205 97.11H38.5793C36.3568 97.11 34.7824 94.9289 35.4859 92.8182L39.2928 81.3977C39.7367 80.0662 40.9826 79.168 42.3861 79.168H57.6137C59.0174 79.168 60.2631 80.066 60.707 81.3977L64.5139 92.8182C65.2166 94.9264 63.6455 97.11 61.4205 97.11Z" fill="#FFBB44"/>
<path d="M50 60.0918V78.0338C54.9465 78.0338 58.9711 74.0094 58.9711 69.0627C58.9711 64.116 54.9467 60.0918 50 60.0918Z" fill="#BD934A"/>
<path d="M64.5141 92.8177L60.7072 81.3972C60.2633 80.0657 59.0174 79.1675 57.6139 79.1675H50V97.1095H61.4205C63.6455 97.1095 65.2166 94.9259 64.5141 92.8177Z" fill="#BD934A"/>
<path d="M14.6834 49.4334C9.73689 49.4334 5.71228 45.409 5.71228 40.4623C5.71228 35.5156 9.73669 31.4912 14.6834 31.4912C19.6301 31.4912 23.6545 35.5156 23.6545 40.4623C23.6545 45.409 19.6302 49.4334 14.6834 49.4334Z" fill="#FFBB44"/>
<path d="M26.1041 68.5089H3.26288C1.04042 68.5089 -0.533998 66.3278 0.169517 64.2171L3.97635 52.7966C4.4203 51.4651 5.6662 50.5669 7.06971 50.5669H22.2971C23.7008 50.5669 24.9465 51.4649 25.3904 52.7964L29.1974 64.2169C29.9002 66.3255 28.3289 68.5089 26.1041 68.5089Z" fill="#FFBB44"/>
<path d="M14.6833 31.4912V49.4332C19.6298 49.4332 23.6544 45.4088 23.6544 40.4621C23.6544 35.5154 19.6302 31.4912 14.6833 31.4912Z" fill="#BD934A"/>
<path d="M29.1976 64.2166L25.3908 52.7961C24.9468 51.4646 23.7009 50.5664 22.2974 50.5664H14.6833V68.5084H26.1039C28.3291 68.5084 29.9001 66.325 29.1976 64.2166Z" fill="#BD934A"/>
<path d="M85.3164 49.4334C80.3699 49.4334 76.3453 45.409 76.3453 40.4623C76.3453 35.5156 80.3698 31.4912 85.3164 31.4912C90.2631 31.4912 94.2875 35.5156 94.2875 40.4623C94.2875 45.409 90.2629 49.4334 85.3164 49.4334Z" fill="#FFBB44"/>
<path d="M96.7371 68.5089H73.8959C71.6735 68.5089 70.0991 66.3276 70.8026 64.2169L74.6096 52.7964C75.0536 51.4649 76.2994 50.5669 77.703 50.5669H92.9303C94.334 50.5669 95.5797 51.4649 96.0237 52.7966L99.8305 64.2171C100.533 66.3255 98.962 68.5089 96.7371 68.5089Z" fill="#FFBB44"/>
<path d="M85.3164 31.4912V49.4332C90.2629 49.4332 94.2875 45.4088 94.2875 40.4621C94.2875 35.5154 90.2629 31.4912 85.3164 31.4912Z" fill="#BD934A"/>
<path d="M99.8307 64.2166L96.0239 52.7961C95.5799 51.4646 94.334 50.5664 92.9305 50.5664H85.3167V68.5084H96.7372C98.962 68.5084 100.533 66.325 99.8307 64.2166Z" fill="#BD934A"/>
<path d="M75.5429 28.6571C72.5205 25.044 68.6898 22.0547 64.465 20.0127C62.8437 19.2292 62.1644 17.2793 62.9484 15.6579C63.7318 14.0366 65.6818 13.3575 67.3033 14.1411C72.3547 16.5827 76.9338 20.1553 80.5453 24.4725C81.7009 25.8538 81.5179 27.9102 80.1367 29.0659C78.7547 30.2211 76.6988 30.0387 75.5429 28.6571Z" fill="#0071ED"/>
<path d="M62.9482 84.3417C62.1646 82.7202 62.8437 80.7706 64.4648 79.9868C68.6896 77.9446 72.5203 74.9555 75.5427 71.3424C76.6984 69.9612 78.755 69.7782 80.1361 70.9335C81.5173 72.0891 81.7003 74.1456 80.5447 75.5268C76.9332 79.844 72.3543 83.4165 67.3027 85.8583C65.682 86.6419 63.7322 85.9637 62.9482 84.3417Z" fill="#0071ED"/>
</svg>
