<svg width="459" height="410" viewBox="0 0 459 410" fill="none" xmlns="http://www.w3.org/2000/svg">
<g clip-path="url(#clip0_56_17649)">
<path d="M230.832 410C266.947 410 296.224 404.939 296.224 398.696C296.224 392.453 266.947 387.392 230.832 387.392C194.717 387.392 165.44 392.453 165.44 398.696C165.44 404.939 194.717 410 230.832 410Z" fill="#E6E6E6"/>
<path d="M314.812 404.016C345.675 404.016 370.694 399.69 370.694 394.354C370.694 389.018 345.675 384.693 314.812 384.693C283.949 384.693 258.93 389.018 258.93 394.354C258.93 399.69 283.949 404.016 314.812 404.016Z" fill="#E6E6E6"/>
<path d="M124.148 404.016C155.011 404.016 180.031 399.69 180.031 394.354C180.031 389.018 155.011 384.693 124.148 384.693C93.2853 384.693 68.2659 389.018 68.2659 394.354C68.2659 399.69 93.2853 404.016 124.148 404.016Z" fill="#E6E6E6"/>
<path d="M402.633 401.408C433.496 401.408 458.515 397.082 458.515 391.746C458.515 386.41 433.496 382.085 402.633 382.085C371.77 382.085 346.75 386.41 346.75 391.746C346.75 397.082 371.77 401.408 402.633 401.408Z" fill="#E6E6E6"/>
<path d="M108.421 390.951C108.421 395.293 85.4566 398.8 57.1235 398.8C28.7905 398.8 5.82617 395.28 5.82617 390.951C5.82617 386.622 28.7905 383.102 57.1235 383.102C85.4566 383.102 108.421 386.622 108.421 390.951Z" fill="#E6E6E6"/>
<path d="M75.999 66.9516C77.6449 68.9074 79.4868 71.4368 81.1588 74.5659C83.7191 79.3379 84.947 83.784 85.5871 87.0826C83.3011 89.599 80.0876 92.5717 75.7508 95.1794C66.3587 100.838 57.1364 101.555 52.3946 101.555C48.8677 101.555 44.7399 101.255 40.1026 98.8562C33.1532 95.2576 29.9398 89.1296 28.7903 86.5872C29.1299 84.5923 29.5349 82.5453 30.0182 80.4462C32.6699 69.116 37.0329 59.6111 41.5787 51.9707C53.0478 56.9643 64.5299 61.958 75.999 66.9386V66.9516Z" fill="#231F20"/>
<path d="M46.8039 379.073C46.6472 380.064 46.3859 381.172 45.981 382.346C44.9359 385.397 43.3162 387.613 42.0491 389.061H51.8069C54.2366 386.531 54.3411 382.828 52.4601 380.716C51.1407 379.23 48.9462 378.643 46.8039 379.086V379.073Z" fill="black"/>
<path d="M34.3552 107.292C30.5931 122.651 25.9167 139.157 20.0515 156.537C14.2255 173.799 7.9946 189.654 1.71143 204.074C2.11637 204.87 3.29202 206.943 5.81312 208.325C8.13829 209.602 10.3198 209.602 11.2211 209.55C17.4651 201.519 25.6032 189.224 31.6904 172.73C37.8429 156.067 39.6195 141.295 40.0636 131.086L34.3552 107.292Z" fill="#415066"/>
<path d="M50.2523 284.233C50.7879 289.201 51.2843 294.221 51.7415 299.28C54.2626 327.286 55.2292 354.223 55.0072 379.947C54.9418 380.064 53.5572 382.463 50.9316 382.411C48.6064 382.359 47.274 380.429 47.1434 380.221C45.3669 372.124 43.6165 363.962 41.9052 355.735C37.2941 333.648 33.0356 311.848 29.1299 290.374C36.1838 288.327 43.2246 286.28 50.2785 284.233H50.2523Z" fill="#F7A592"/>
<path d="M66.3849 289.814C66.5939 292.708 66.7637 295.668 66.8944 298.693C66.8944 298.693 67.1034 304.13 67.0903 309.567C67.0772 316.647 63.7462 345.67 55.6473 384.68C54.8636 386.388 53.0217 387.223 51.4673 386.766C50.2916 386.414 49.3903 385.358 49.129 384.067C48.7502 375.619 48.3975 367.118 48.071 358.578C47.2219 335.904 46.6471 313.531 46.3206 291.47C53.0087 290.922 59.6968 290.362 66.3849 289.814Z" fill="#FCC3AB"/>
<path d="M23.6436 187.216C22.69 191.232 21.449 197.164 20.5346 204.401C18.0266 224.062 19.6725 239.173 21.4751 254.793C22.7945 266.163 25.1196 281.17 29.5087 298.641C34.0937 300.362 44.3872 303.465 56.7184 300.61C62.6358 299.241 67.2731 296.907 70.5257 294.886C71.832 287.18 73.5301 276.28 75.1107 263.138C79.1994 229.173 77.7886 218.977 77.0832 214.701C75.8292 207.178 73.0599 196.252 66.215 183.657C52.0158 184.843 37.8297 186.03 23.6305 187.216H23.6436Z" fill="#A6A8A9"/>
<path d="M34.3551 107.292C38.4306 105.766 44.6093 104.019 52.2249 104.006C64.5169 103.98 73.7262 108.452 78.1152 110.981C76.2081 116.079 74.3532 121.412 72.5636 126.979C69.2848 137.227 66.6592 147.045 64.5561 156.302C64.4516 160.149 64.6737 164.999 65.784 170.449C67.2993 177.881 69.9249 183.774 72.1586 187.855C69.4938 190.228 65.7971 193.005 61.0161 195.378C52.9042 199.407 45.3931 200.385 40.6905 200.619C39.2667 198.768 37.8428 196.916 36.432 195.052C35.6222 196.851 34.8253 198.65 34.0154 200.45C32.1867 200.033 29.7701 199.276 27.1314 197.868C24.5972 196.512 22.69 194.987 21.3446 193.735C22.2459 189.25 23.0297 184.478 23.6698 179.458C24.9107 169.745 25.3418 160.722 25.3157 152.599C24.2314 151.713 22.9513 150.448 21.8279 148.701C18.928 144.203 19.0064 139.548 19.1631 137.632C20.9527 134.268 22.7292 130.852 24.5058 127.384C27.9805 120.591 31.2592 113.889 34.3681 107.292H34.3551Z" fill="#FFBB44"/>
<path d="M76.0122 109.821C76.9005 110.291 77.7888 110.76 78.677 111.229C82.217 125.975 85.3521 143.264 87.0372 162.678C88.5394 179.98 88.6178 195.743 87.9646 209.59C86.802 209.981 84.5944 210.567 81.8121 210.242C79.1865 209.929 77.2401 208.951 76.2082 208.325C75.3591 194.478 73.7524 179.315 70.97 163.069C68.9453 151.257 66.5417 140.213 63.9292 129.991C65.3792 127.149 66.9728 124.189 68.7494 121.164C71.1529 117.044 73.5956 113.263 75.9992 109.808L76.0122 109.821Z" fill="#61738F"/>
<path d="M43.6034 90.3809C44.0475 92.2975 44.4133 94.4879 44.6223 96.9C44.9619 100.877 44.7529 104.371 44.3741 107.213C45.5367 107.63 46.843 108.009 48.2537 108.295C53.5049 109.365 58.09 108.726 61.212 107.956C61.7867 99.9379 62.3615 91.9194 62.9362 83.9009C56.4833 86.0652 50.0433 88.2296 43.5903 90.3939L43.6034 90.3809Z" fill="#F7A592"/>
<path d="M2.58651 203.527C1.75049 205.131 1.24105 206.526 0.927541 207.53C0.313592 209.498 -0.156666 211.024 0.0523375 213.058C0.169902 214.218 0.470345 214.987 0.992854 216.383C1.61987 218.038 2.63876 220.789 3.72297 220.711C4.45448 220.659 4.91167 219.355 4.95086 219.238C5.1468 218.664 5.10762 218.208 4.95086 216.904C4.8333 215.926 4.70267 215.027 4.58511 214.205C5.18599 213.553 5.78688 212.888 6.3747 212.236C6.33551 212.641 6.28326 213.253 6.29632 213.997C6.29632 215.692 6.29632 217.856 7.28909 218.26C7.69404 218.43 8.22961 218.286 8.51699 218.012C8.94806 217.621 8.88275 216.969 8.88275 216.422C8.88275 216.044 9.17013 215.105 9.74489 213.227C10.0845 212.119 10.6723 210.372 11.6651 208.155C11.1426 207.412 10.3327 206.46 9.10481 205.6C6.49227 203.762 3.72297 203.553 2.58651 203.527Z" fill="#FCC3AB"/>
<path d="M37.7123 54.6957C37.1506 59.7154 36.602 64.7742 36.0664 69.8721C35.5962 74.4094 35.139 78.9207 34.6948 83.4058C35.5831 84.8139 36.6934 86.3655 38.1173 87.917C41.5005 91.6329 45.1581 93.8494 47.8359 95.1663C50.3701 94.5405 53.8317 93.3931 57.5677 91.2027C61.6694 88.7906 64.5301 86.0135 66.3328 83.9534C66.6332 82.1542 66.8683 80.2375 67.012 78.2166C67.4562 72.1669 66.9728 66.7951 66.1891 62.3621C64.6738 60.602 59.0438 54.5392 49.7562 53.3397C44.4266 52.6487 40.0897 53.8482 37.6993 54.7087L37.7123 54.6957Z" fill="#FCC3AB"/>
<path d="M44.7399 100.082L40.377 105.362C40.2856 105.766 39.5932 108.869 41.6049 111.19C42.3756 112.09 43.29 112.559 43.9039 112.794C45.3016 111.268 46.7124 109.743 48.1101 108.217C49.1552 110.147 50.2002 112.077 51.2452 114.006C52.9433 113.915 56.3397 113.511 59.9188 111.373C63.1453 109.443 65.0264 106.992 65.9408 105.61C64.5822 103.563 63.2368 101.516 61.8783 99.4688C60.4805 100.642 58.495 102.063 55.9086 103.263C52.9956 104.619 50.3439 105.232 48.4106 105.518C47.7966 105.14 46.6994 104.345 45.8372 102.963C45.1188 101.829 44.8444 100.746 44.7269 100.082H44.7399Z" fill="#BD934A"/>
<path d="M41.4089 55.3734C42.049 56.4687 42.8197 57.616 43.7341 58.7895C46.5948 62.4402 49.7952 64.8653 52.3686 66.4429C54.0406 67.4729 56.3266 68.6594 62.3615 70.5499C66.3718 71.8016 71.9888 73.3271 78.9382 74.5527C79.5782 72.0363 81.2241 64.083 76.9657 56.6382C71.5838 47.2246 58.9652 42.4265 45.9809 45.5948C44.5962 45.686 41.3828 46.1033 38.8486 48.5414C37.895 49.4541 36.6671 51.0187 35.6483 55.1648C34.9298 58.1115 34.1591 63.0269 35.1519 69.4026C35.8573 67.2122 36.7325 64.8131 37.8559 62.2837C39.0054 59.7021 40.2071 57.3944 41.3828 55.3734H41.4089Z" fill="#231F20"/>
<path d="M48.8416 382.098C48.9069 383.207 48.8938 384.471 48.7632 385.866C48.5281 388.305 47.9533 390.351 47.3655 391.916H55.5689C55.7648 390.951 55.9346 389.921 56.0522 388.813C56.3135 386.401 56.2873 384.21 56.1306 382.346C55.0072 382.046 53.8838 381.746 52.7735 381.446C52.3685 382.62 51.9505 383.793 51.5456 384.967C51.4411 383.767 51.3235 382.568 51.219 381.368C50.4222 381.616 49.6384 381.864 48.8416 382.098Z" fill="black"/>
<path d="M65.9146 105.492C61.8129 109.612 57.868 114.397 54.3541 119.978C33.6235 152.899 42.2188 191.049 45.7458 203.918C48.9592 205.404 53.1915 206.956 58.286 207.842C67.7434 209.498 75.6594 208.116 80.4143 206.864L69.5983 178.141C68.5402 174.803 67.6389 171.035 67.1425 166.85C65.1178 150.044 70.5388 136.262 74.2748 128.805C75.5941 122.872 76.9265 116.94 78.2458 111.007C76.9526 110.173 75.4896 109.325 73.8568 108.517C70.9699 107.083 68.2529 106.131 65.9016 105.492H65.9146Z" fill="#61738F"/>
<path d="M75.2544 207.842C75.2544 207.986 72.6811 208.572 67.469 208.664C58.0508 208.833 50.3307 207.243 45.0142 205.717C44.8966 203.931 44.766 202.145 44.6484 200.358C45.6281 201.193 47.0781 202.327 48.9461 203.422C60.9899 210.502 75.2414 207.49 75.2544 207.842Z" fill="#415066"/>
<path d="M40.7429 104.919C36.9939 111.203 33.1796 118.596 29.7571 127.097C27.9022 131.712 26.3608 136.159 25.0807 140.357C25.4725 145.416 25.7991 150.579 26.0604 155.82C26.818 170.958 26.9225 185.469 26.5567 199.264C25.8252 200.163 24.8586 201.193 23.6046 202.21C21.8019 203.67 20.0384 204.583 18.693 205.157C19.3592 201.219 20.1952 195.756 20.9006 189.198C21.5015 183.618 22.037 178.728 22.1285 172.509C22.2069 167.607 22.024 160.801 20.9006 152.626C20.4564 151.348 20.0384 149.953 19.6727 148.454C18.693 144.399 18.4187 140.722 18.4448 137.658C19.8948 134.568 21.3708 131.452 22.8731 128.336C26.3739 121.06 29.9008 113.954 33.4408 106.979C35.8705 106.301 38.3001 105.61 40.7298 104.932L40.7429 104.919Z" fill="#61738F"/>
<path d="M26.5696 197.451C26.9876 198.286 27.4448 199.485 27.6408 200.971C27.7322 201.702 27.7453 202.367 27.7192 202.94C26.9876 203.266 26.0994 203.592 25.0935 203.84C23.4084 204.257 21.9062 204.348 20.7437 204.335C22.4679 203.058 24.1922 201.767 25.9034 200.489C26.1255 199.485 26.3345 198.468 26.5566 197.464L26.5696 197.451Z" fill="#415066"/>
<path d="M65.9146 180.345C60.4282 180.918 54.9288 181.492 49.4424 182.066C49.3902 183.122 49.5339 184.269 50.174 185.26C52.9171 189.419 63.3934 188.872 65.6664 184.282C66.0321 183.539 66.3848 182.287 65.9146 180.358V180.345Z" fill="#415066"/>
<path d="M50.3961 112.416L48.6065 113.263L49.4948 119.482L46.0723 120.134V114.019L41.8922 119.143L40.1941 115.793L44.2697 112.416L48.1232 108.23L50.3961 112.416Z" fill="#004E7C"/>
<path d="M76.7566 207.464C76.5607 207.973 76.2211 208.768 75.6594 209.694C74.8234 211.05 74.2617 211.441 73.8045 212.549C73.3865 213.566 73.713 213.658 73.3865 215.105C72.7856 217.817 71.3487 218.951 71.9757 219.759C72.25 220.112 72.8117 220.242 73.2036 220.19C74.1049 220.059 74.2747 218.938 75.3328 217.608C75.9337 216.852 76.626 216.304 77.24 215.887C77.4359 216.448 77.671 217.373 77.5404 218.495C77.462 219.147 77.2922 219.681 77.1224 220.072C76.8742 220.098 76.3648 220.19 75.9076 220.555C74.9932 221.259 75.0846 222.393 75.0977 222.524C75.2414 222.758 75.4634 223.084 75.7508 223.462C76.1949 224.01 76.4039 224.284 76.6652 224.362C77.2269 224.531 78.0237 223.919 78.6769 222.967C79.2777 222.784 79.9048 222.576 80.571 222.302C81.7466 221.82 82.7524 221.285 83.5885 220.763C84.32 219.773 85.0907 218.534 85.7438 217.061C87.1938 213.775 87.4028 210.75 87.3505 208.755C86.3186 208.182 84.5159 207.347 82.1124 207.06C79.7741 206.786 77.88 207.152 76.7436 207.464H76.7566Z" fill="#FCC3AB"/>
<path d="M75.6987 207.308C75.2676 205.521 74.7843 203.67 74.2356 201.792C73.2951 198.533 72.2762 195.469 71.2051 192.627C72.0019 191.649 72.7987 190.684 73.6086 189.706C74.0919 190.501 74.5883 191.31 75.0717 192.105C75.2807 197.177 75.4897 202.249 75.6987 207.308Z" fill="#415066"/>
<path d="M368.056 387.287C368.017 388.356 368.108 389.882 368.761 391.538C369.31 392.907 369.78 393.18 369.702 393.898C369.532 395.697 366.279 397.444 363.314 397.196C361.315 397.04 358.69 395.905 358.115 393.898C357.997 393.493 357.906 392.868 358.82 390.129C359.5 388.109 360.205 386.492 360.714 385.41C363.157 386.036 365.6 386.674 368.043 387.3L368.056 387.287Z" fill="black"/>
<path d="M432.886 382.933C433.239 384.106 433.591 385.293 433.944 386.466C435.224 386.883 437.001 387.431 439.143 388.004C446.393 389.934 450.39 390.169 450.364 390.599C450.325 391.212 442.722 391.655 434.532 390.951C430.051 390.573 426.394 389.921 423.912 389.426C423.86 386.649 423.807 383.871 423.755 381.094C426.799 381.707 429.842 382.32 432.886 382.946V382.933Z" fill="black"/>
<path d="M419.105 107.513C422.188 123.98 425.989 141.386 430.678 159.562C434.937 176.068 439.522 191.649 444.264 206.278C443.402 207.373 441.207 209.863 437.406 211.232C433.16 212.758 429.503 211.949 428.183 211.584C422.958 196.056 417.733 180.527 412.495 164.986L419.079 107.513H419.105Z" fill="#BD934A"/>
<path d="M425.976 207.959C427.622 228.234 429.045 248.912 430.234 269.995C432.481 310.036 433.67 348.798 434.009 386.205C433.069 386.687 431.423 387.391 429.268 387.522C426.551 387.691 424.447 386.896 423.442 386.427C414.402 332.644 405.35 278.861 396.31 225.065C398.008 219.694 399.694 214.309 401.392 208.937C409.582 208.611 417.785 208.285 425.976 207.946V207.959Z" fill="#004E7C"/>
<path d="M372.549 206.981C371.034 220.619 369.61 234.414 368.291 248.339C363.797 295.915 360.806 342.162 359.069 386.974C359.813 387.6 361.511 388.865 364.032 389.334C366.972 389.869 369.297 389.008 370.172 388.63C382.307 328.732 394.442 268.848 406.578 208.95C395.239 208.298 383.888 207.633 372.536 206.981H372.549Z" fill="#004E7C"/>
<path d="M343.681 207.738C343.511 210.75 343.263 213.175 343.08 214.87C342.714 218.077 342.387 219.994 343.589 221.402C344.177 222.093 344.935 222.432 345.509 222.614C345.901 223.11 346.502 223.736 347.325 224.322C348.2 224.948 349.023 225.313 349.637 225.535C349.69 225.9 350.081 228.468 352.158 229.551C354.954 231.011 358.912 228.794 359.003 227.243C359.042 226.565 358.376 225.783 357.697 225.431C356.822 224.987 356.195 225.404 355.777 225.131C355.202 224.766 355.111 223.175 357.188 217.894C357.331 218.599 357.645 219.681 358.402 220.815C359.095 221.858 359.774 222.888 361.015 223.123C362.138 223.331 363.588 222.875 364.032 221.91C364.45 221.011 363.719 220.254 362.922 218.194C362.073 215.952 362.439 215.561 361.616 212.366C361.302 211.141 360.78 209.407 359.905 207.333L343.694 207.738H343.681Z" fill="#FCC3AB"/>
<path d="M358.481 101.463C360.349 116.197 362.151 131.086 363.889 146.106C366.423 168.076 368.722 189.784 370.825 211.219C378.637 211.975 387.284 212.445 396.65 212.353C407.544 212.249 417.485 211.428 426.289 210.267C426.433 198.52 426.25 186.238 425.662 173.46C424.565 149.744 422.201 127.683 419.131 107.5C413.697 105.062 406.97 102.65 399.054 101.033C382.111 97.578 367.651 99.4424 358.494 101.45L358.481 101.463Z" fill="#FFBB44"/>
<path d="M358.481 101.463C353.412 115.532 348.292 133.485 345.313 154.685C342.4 175.429 342.309 193.722 343.223 208.429C345.157 209.342 348.657 210.685 353.19 210.75C356.874 210.802 359.826 210.007 361.694 209.329C360.963 196.46 361.172 180.553 363.928 162.6C366.07 148.584 369.323 136.328 372.706 126.08C372.092 122.729 370.747 117.592 367.481 112.103C364.476 107.044 360.989 103.589 358.494 101.463H358.481Z" fill="#FFBB44"/>
<path d="M381.641 70.3802C381.288 68.9851 380.948 67.5509 380.635 66.0776C379.433 60.3668 378.767 54.956 378.467 49.9754C380.896 47.3025 383.339 44.6166 385.769 41.9438C387.049 40.8616 391.856 37.0154 398.609 37.3413C405.807 37.6803 412.338 42.5957 415.343 49.8971C415.735 53.4044 415.839 58.4241 414.389 64.1609C413.71 66.8338 412.822 69.1415 411.92 71.0842C401.823 70.8495 391.738 70.6149 381.641 70.3932V70.3802Z" fill="#231F20"/>
<path d="M384.815 79.8721C384.711 81.4758 384.541 83.1447 384.293 84.8787C383.483 90.6156 382.046 95.6483 380.465 99.8857C385.939 102.872 391.412 105.857 396.898 108.856C399.289 107.578 401.679 106.301 404.07 105.023C403.717 102.637 403.482 99.8206 403.547 96.6783C403.639 92.3627 404.279 88.6468 405.01 85.7262C398.283 83.7835 391.556 81.8278 384.828 79.8851L384.815 79.8721Z" fill="#F7A592"/>
<path d="M381.798 80.1849C383.091 82.2188 385.311 85.1394 388.812 87.7992C391.542 89.8723 394.168 91.1109 396.154 91.8541C398.466 91.2804 402.045 90.0939 405.715 87.4341C408.263 85.5827 410.065 83.6009 411.28 82.0232C411.868 71.6709 412.456 61.3055 413.057 50.9532C411.267 49.2712 408.615 47.2764 405.01 46.0247C394.024 42.2045 383.901 48.6584 382.346 49.6884C382.163 59.8583 381.98 70.015 381.798 80.1849Z" fill="#FCC3AB"/>
<path d="M382.908 70.6672C382.712 69.0504 381.745 67.6814 380.361 67.1077C378.401 66.2994 376.207 67.3294 375.319 68.7114C373.777 71.1496 375.841 75.4261 378.924 76.4952C380.609 77.082 382.216 76.5604 382.908 76.2866C382.908 74.4091 382.908 72.5447 382.908 70.6672Z" fill="#FCC3AB"/>
<path d="M409.295 71.8537C409.582 70.25 410.627 68.9331 412.038 68.4507C414.036 67.7597 416.179 68.9071 416.975 70.3413C418.373 72.8576 416.074 77.0168 412.926 77.9034C411.202 78.3858 409.634 77.7861 408.968 77.4601C409.073 75.5957 409.19 73.7182 409.295 71.8537Z" fill="#FCC3AB"/>
<path d="M413.932 57.0811C413.122 56.2727 412.273 55.347 411.424 54.317C409.935 52.4916 408.772 50.7184 407.884 49.1278C405.193 50.588 402.463 52.0483 399.667 53.4956C393.032 56.9376 386.513 60.1059 380.139 63.0265C380.308 58.411 380.491 53.7954 380.661 49.1929C382.66 47.5501 387.31 44.1993 394.09 43.3779C404.866 42.0741 412.665 48.176 414.167 49.4146C414.089 51.9701 414.01 54.5256 413.932 57.0811Z" fill="#231F20"/>
<path d="M399.367 109.534C400.517 108.439 401.653 107.344 402.802 106.249C402.215 105.153 401.627 104.045 401.026 102.95C399.524 103.263 398.035 103.576 396.532 103.889C394.482 103.537 392.431 103.185 390.393 102.833C389.687 103.784 388.995 104.749 388.29 105.701C390.001 106.822 391.725 107.944 393.437 109.078L395.344 163.877L406.996 175.794C409.033 171.44 411.071 167.085 413.096 162.73C408.511 144.998 403.926 127.266 399.354 109.547L399.367 109.534Z" fill="#4E4E4E"/>
<path d="M365.456 153.903C366.971 151.361 368.774 147.71 369.95 143.055C371.439 137.097 371.269 131.986 370.89 128.661C369.074 137.071 367.272 145.493 365.456 153.903Z" fill="#BD934A"/>
<path d="M443.65 206.108C444.42 208.651 444.773 210.802 444.956 212.328C445.309 215.326 445.57 217.673 444.721 220.542C444.603 220.959 444.002 222.915 442.461 225.092C441.194 226.878 439.652 229.069 437.837 228.86C436.7 228.73 435.616 227.7 435.459 226.644C435.289 225.535 436.243 224.909 437.118 223.319C437.654 222.354 438.216 220.907 438.307 218.886C437.471 218.482 436.648 218.077 435.812 217.66C435.721 218.234 435.59 219.12 435.459 220.216C435.133 222.967 435.224 223.619 434.623 224.101C433.761 224.792 431.985 224.688 431.07 223.879C430.234 223.136 430.639 222.263 430.365 219.329C430.143 217.06 429.842 216.943 429.529 214.231C429.346 212.575 429.307 211.219 429.294 210.346C430.247 209.42 431.684 208.26 433.683 207.347C437.954 205.404 442.004 205.848 443.65 206.121V206.108Z" fill="#FCC3AB"/>
<path d="M403.743 95.479C401.927 97.4999 400.125 99.5209 398.309 101.529L402.006 111.203C403.952 108.322 405.898 105.44 407.832 102.559C406.46 100.199 405.101 97.8389 403.73 95.479H403.743Z" fill="#BD934A"/>
<path d="M393.698 101.529C392.692 104.905 391.673 108.295 390.667 111.672C386.252 107.37 381.837 103.08 377.435 98.7774C379.12 96.8348 380.792 94.8921 382.477 92.9624C386.213 95.8178 389.962 98.6731 393.698 101.529Z" fill="#BD934A"/>
<path d="M136.702 387.965C136.44 388.943 136.035 390.169 135.33 391.46C134.259 393.454 132.953 394.836 131.973 395.723C133.135 396.479 136.871 398.67 141.718 398.005C144.004 397.692 145.767 396.857 146.904 396.179C146.342 393.494 145.78 390.808 145.205 388.122L136.689 387.965H136.702Z" fill="black"/>
<path d="M96.8604 385.358C96.4816 386.622 96.1027 387.887 95.7239 389.152C94.3523 389.595 92.4452 390.182 90.1461 390.795C82.3607 392.868 78.0631 393.129 78.0892 393.585C78.1284 394.237 86.2926 394.719 95.0969 393.963C99.904 393.546 103.836 392.868 106.501 392.32C106.553 389.334 106.618 386.349 106.67 383.376C103.405 384.041 100.139 384.693 96.8734 385.358H96.8604Z" fill="black"/>
<path d="M104.28 197.503C102.517 219.264 100.975 241.481 99.708 264.115C97.3045 307.102 96.0113 348.733 95.6455 388.891C96.6513 389.413 98.4148 390.156 100.727 390.312C103.653 390.495 105.9 389.634 106.984 389.126C115.749 330.454 124.527 271.795 133.292 213.123C132.417 208.273 131.542 203.409 130.654 198.559C121.862 198.207 113.058 197.855 104.267 197.503H104.28Z" fill="#4E4E4E"/>
<path d="M163.102 196.955C162.383 211.676 161.534 226.539 160.554 241.533C157.21 292.734 152.495 342.279 146.695 390.078C145.793 390.625 143.795 391.668 141.025 391.734C137.825 391.799 135.5 390.495 134.638 389.934C131.986 324.378 129.334 258.822 126.683 193.266L163.102 196.955Z" fill="#4E4E4E"/>
<path d="M120.582 147.254C117.917 148.884 114.586 150.566 110.576 151.843C100.008 155.22 90.6686 153.969 85.561 152.847C87.4159 144.555 89.4537 137.775 91.0604 132.873C98.8197 109.326 105.351 103.602 107.676 96.6134C107.911 95.9224 108.604 93.6668 110.681 92.2195C111.83 91.4242 113.019 91.1374 113.777 91.02C113.999 94.7359 114.26 98.504 114.573 102.311C115.893 118.153 117.983 133.16 120.582 147.254Z" fill="#00DDF7"/>
<path d="M169.424 84.4358C170.613 99.3254 171.174 115.701 170.678 133.355C169.933 159.536 166.994 183.031 163.232 203.266C154.049 204.153 143.716 204.661 132.443 204.44C121.941 204.218 112.301 203.397 103.679 202.262C103.522 189.641 103.718 176.46 104.358 162.743C105.534 137.28 108.081 113.589 111.373 91.9197C116.402 88.9079 123.731 85.3224 133.096 83.2362C149.085 79.6898 162.448 82.4409 169.424 84.4358Z" fill="#E7F4FA"/>
<path d="M151.593 52.0357C152.495 51.2404 153.396 50.432 154.297 49.6106C156.531 47.5766 158.647 45.5427 160.672 43.5348C158.608 39.7928 156.544 36.0508 154.493 32.2958C154.663 31.5657 154.82 30.8486 154.99 30.1184C152.377 27.25 149.765 24.3686 147.152 21.5002C142.828 20.1703 138.204 18.5405 133.358 16.5587C129.831 15.1114 126.539 13.612 123.482 12.0996C122.254 13.1557 120.922 14.4465 119.642 16.0502C116.285 20.2094 114.704 24.4729 113.933 27.4195C114.417 28.2931 114.913 29.1797 115.396 30.0532C115.253 31.8525 114.965 33.9386 114.391 36.2334C113.594 39.4147 112.497 42.0615 111.465 44.1085C111.883 45.2689 112.614 46.8856 113.907 48.5284C115.723 50.8492 117.8 52.127 119.08 52.7919C129.922 52.5442 140.751 52.2965 151.593 52.0487V52.0357Z" fill="#231F20"/>
<path d="M148.184 62.2188C148.301 63.9398 148.484 65.7391 148.746 67.5905C149.621 73.7576 151.162 79.1554 152.86 83.6927C146.982 86.9001 141.104 90.1075 135.226 93.3149C132.665 91.9459 130.092 90.5769 127.532 89.2079C127.911 86.6524 128.172 83.6275 128.093 80.2506C127.989 75.622 127.31 71.6323 126.526 68.4901C133.75 66.404 140.973 64.3049 148.184 62.2188Z" fill="#F7A592"/>
<path d="M151.436 62.5707C150.039 64.7611 147.661 67.8903 143.899 70.7457C140.973 72.9622 138.152 74.292 136.009 75.1004C133.527 74.4876 129.674 73.2099 125.742 70.3545C123.012 68.3727 121.079 66.2344 119.772 64.5395C119.145 53.4179 118.505 42.2962 117.865 31.1746C119.785 29.3754 122.633 27.2241 126.5 25.8811C138.295 21.7741 149.177 28.7104 150.836 29.8056C151.032 40.7186 151.227 51.6316 151.423 62.5446L151.436 62.5707Z" fill="#FCC3AB"/>
<path d="M150.248 52.3354C150.457 50.6014 151.489 49.128 152.991 48.5152C155.094 47.6547 157.458 48.7499 158.399 50.2363C160.058 52.8439 157.837 57.4464 154.519 58.5938C152.704 59.2196 150.992 58.659 150.248 58.3721C150.248 56.3642 150.248 54.3564 150.248 52.3354Z" fill="#FCC3AB"/>
<path d="M121.915 53.6135C121.614 51.8924 120.491 50.4843 118.962 49.9628C116.82 49.2196 114.521 50.4452 113.659 51.9967C112.157 54.6956 114.626 59.1677 118.009 60.1195C119.851 60.6411 121.536 59.9891 122.267 59.6502C122.15 57.6423 122.032 55.6344 121.915 53.6265V53.6135Z" fill="#FCC3AB"/>
<path d="M116.938 37.7457C117.813 36.8722 118.727 35.8943 119.629 34.7861C121.235 32.8303 122.476 30.9267 123.43 29.2187C126.173 29.5316 129.269 30.1184 132.574 31.1745C142.58 34.3688 149.386 40.1839 153.226 44.1345C153.043 39.1799 152.847 34.2254 152.664 29.2709C150.509 27.4977 145.519 23.9122 138.243 23.0256C126.67 21.6174 118.309 28.1757 116.677 29.5056L116.925 37.7327L116.938 37.7457Z" fill="#231F20"/>
<path d="M132.574 94.0708C131.346 92.8973 130.118 91.7239 128.89 90.5505C129.53 89.364 130.157 88.1905 130.797 87.0041C132.404 87.3431 134.011 87.6821 135.618 88.021C137.812 87.6429 140.02 87.2648 142.214 86.8867C142.972 87.9167 143.717 88.9337 144.474 89.9637C142.632 91.1763 140.79 92.3758 138.949 93.5884L136.898 152.43L124.384 165.22C122.202 160.54 120.008 155.872 117.826 151.191C122.751 132.155 127.662 113.12 132.587 94.0838L132.574 94.0708Z" fill="#FFBB44"/>
<path d="M127.871 78.9727C129.818 81.137 131.764 83.3013 133.71 85.4787C132.391 88.9469 131.059 92.402 129.739 95.8702L123.482 86.587C124.945 84.0576 126.408 81.5151 127.884 78.9857L127.871 78.9727Z" fill="#00DDF7"/>
<path d="M138.661 85.4789C139.745 89.1035 140.83 92.7412 141.914 96.3658C146.656 91.7503 151.384 87.1348 156.126 82.5192C154.323 80.4331 152.521 78.36 150.718 76.2739C146.695 79.3379 142.684 82.4149 138.661 85.4789Z" fill="#00DDF7"/>
<path d="M129.191 145.859C131.451 149.001 135.056 153.212 140.451 156.941C149.608 163.265 158.791 164.66 163.415 165.038C166.015 157.645 168.614 150.253 171.227 142.86C157.21 143.864 143.207 144.855 129.191 145.859Z" fill="#00DDF7"/>
<path d="M100.675 130.878C102.948 131.256 105.364 131.751 107.885 132.377C109.401 132.755 110.851 133.16 112.235 133.577C114.142 135.35 116.193 137.149 118.388 138.975C120.987 141.126 123.534 143.095 125.99 144.868C123.43 146.915 119.433 149.614 113.986 151.465C105.9 154.203 98.8459 153.643 95.123 153.069C94.5221 150.514 93.3726 144.047 96.4684 137.188C97.7094 134.437 99.3161 132.364 100.675 130.891V130.878Z" fill="#00DDF7"/>
<path d="M99.473 130.278C100.688 126.028 104.045 122.768 108.173 121.882C113.202 120.813 118.571 123.42 121.079 128.323C117.931 130.474 114.769 132.612 111.621 134.763C107.572 133.264 103.509 131.765 99.46 130.265L99.473 130.278Z" fill="#FCC3AB"/>
<path d="M167.164 83.888C165.126 92.5063 162.932 101.307 160.554 110.251C158.307 118.739 156.008 127.032 153.644 135.128C148.197 134.476 141.574 133.251 134.285 130.878C127.767 128.753 122.241 126.223 117.774 123.837C117.003 123.994 114.195 124.646 112.17 127.279C109.518 130.734 110.432 134.737 110.563 135.272C114.874 139.431 120.687 144.19 128.172 148.453C142.031 156.341 155.172 158.832 163.546 159.692C171.893 148.18 175.746 137.658 177.653 130.93C180.018 122.585 186.98 97.9824 175.25 87.7734C172.428 85.3222 169.254 84.3313 167.138 83.875L167.164 83.888Z" fill="#E7F4FA"/>
<path d="M138.805 132.677C138.439 129.796 144.487 126.771 146.917 125.78C151.228 124.033 155.133 124.307 157.119 124.58C159.157 128.922 159.366 133.616 157.119 136.263C152.521 141.687 139.314 136.693 138.805 132.664V132.677Z" fill="#FCC3AB"/>
<path d="M156.217 123.994C155.982 121.751 155.93 118.87 156.518 115.597C157.798 108.53 161.351 103.641 163.428 101.216C161.024 108.804 158.621 116.392 156.217 123.994Z" fill="#00DDF7"/>
<path d="M330.331 47.6941C331.624 48.7502 333.257 50.3278 334.72 52.5312C337.149 56.1819 337.92 59.7544 338.207 61.8405C337.306 64.8654 336.274 68.0207 335.059 71.2672C332.499 78.1383 329.638 84.2402 326.751 89.5598C327.914 91.2157 329.103 93.1714 330.187 95.414C332.878 101.02 333.845 106.249 334.171 110.069C335.294 110.264 339.919 111.19 342.401 115.206C344.582 118.713 343.851 122.547 343.642 123.577C341.578 134.359 325.315 141.348 312.278 142.873C308.829 143.277 304.257 143.369 299.111 142.156C285.264 138.923 277.453 128.727 275.049 125.285C274.357 123.003 273.743 120.213 273.469 116.992C272.959 110.76 274.017 105.584 275.049 102.129C274.461 99.169 273.887 96.1702 273.325 93.1192C272.228 87.0173 271.274 81.0589 270.464 75.2569C271.77 71.8278 273.56 67.8772 276.055 63.6789C278.106 60.2238 280.222 57.2772 282.207 54.8129C289.51 43.4827 301.697 37.1722 313.427 38.802C322.166 40.0145 327.979 45.2559 330.318 47.668L330.331 47.6941Z" fill="#231F20"/>
<path d="M319.397 156.015C322.088 157.775 325.51 159.536 329.664 160.722C344.412 164.946 357.397 158.688 361.446 156.524C359.043 147.814 356.077 141.165 353.791 136.667C345.34 120.017 334.707 110.342 332.63 104.084C332.421 103.458 331.702 101.072 329.547 99.5728C328.371 98.7514 327.156 98.4645 326.36 98.3472C326.137 102.154 325.863 106.014 325.537 109.925C324.178 126.171 322.049 141.556 319.384 156.015H319.397Z" fill="#00DDF7"/>
<path d="M315.962 383.506C316.131 384.536 316.393 385.697 316.824 386.922C317.921 390.104 319.619 392.437 320.939 393.937H310.737C308.202 391.29 308.098 387.431 310.057 385.214C311.442 383.663 313.728 383.05 315.975 383.506H315.962Z" fill="black"/>
<path d="M312.343 284.351C311.782 289.54 311.259 294.781 310.789 300.088C308.163 329.372 307.144 357.534 307.379 384.419C307.445 384.536 308.895 387.04 311.638 386.987C314.068 386.935 315.465 384.914 315.609 384.706C317.464 376.231 319.293 367.704 321.095 359.112C325.929 336.021 330.37 313.243 334.459 290.778C327.091 288.64 319.724 286.502 312.356 284.364L312.343 284.351Z" fill="#F7A592"/>
<path d="M295.479 290.192C295.257 293.217 295.074 296.32 294.957 299.475C294.957 299.475 294.735 305.16 294.748 310.844C294.761 318.25 298.248 348.59 306.713 389.361C307.536 391.147 309.456 392.02 311.089 391.538C312.317 391.173 313.258 390.078 313.532 388.722C313.937 379.882 314.303 371.003 314.629 362.072C315.504 338.368 316.118 314.978 316.458 291.926C309.469 291.352 302.481 290.766 295.492 290.192H295.479Z" fill="#FCC3AB"/>
<path d="M340.167 182.939C341.16 187.137 342.453 193.331 343.419 200.906C346.045 221.454 344.321 237.256 342.427 253.593C341.055 265.471 338.625 281.169 334.027 299.436C329.233 301.235 318.47 304.468 305.577 301.483C299.398 300.049 294.539 297.61 291.142 295.498C289.784 287.441 287.994 276.058 286.348 262.316C282.077 226.813 283.54 216.148 284.298 211.688C285.617 203.826 288.504 192.405 295.649 179.236C310.488 180.475 325.328 181.714 340.167 182.952V182.939Z" fill="#A6A8A9"/>
<path d="M328.972 99.3906C324.714 97.7869 318.261 95.9746 310.279 95.9615C297.426 95.9355 287.798 100.616 283.213 103.25C285.212 108.583 287.145 114.163 289.013 119.978C292.449 130.695 295.192 140.956 297.386 150.631C297.491 154.66 297.269 159.718 296.093 165.429C294.513 173.2 291.769 179.354 289.431 183.631C292.227 186.108 296.08 189.015 301.083 191.493C309.574 195.704 317.412 196.734 322.336 196.969C323.825 195.026 325.302 193.096 326.791 191.154C327.627 193.031 328.476 194.922 329.312 196.799C331.219 196.369 333.753 195.574 336.509 194.1C339.161 192.679 341.16 191.075 342.557 189.785C341.617 185.091 340.794 180.11 340.128 174.856C338.835 164.699 338.377 155.272 338.403 146.771C339.54 145.846 340.885 144.516 342.061 142.704C345.092 138.01 345.013 133.134 344.856 131.126C342.988 127.605 341.12 124.033 339.266 120.408C335.634 113.302 332.212 106.301 328.959 99.4036L328.972 99.3906Z" fill="#E7F4FA"/>
<path d="M335.882 140.422C333.466 141.36 330.5 142.234 327.078 142.716C317.921 143.994 310.397 141.752 306.23 140.109C303.421 133.029 300.613 125.936 297.817 118.856C299.986 127.957 302.154 137.058 304.323 146.158C307.262 147.006 311.507 147.814 316.562 147.488C326.059 146.889 332.852 142.625 335.882 140.422Z" fill="#00DDF7"/>
<path d="M319.306 81.6974C318.848 83.7052 318.456 85.9869 318.234 88.5163C317.882 92.6625 318.091 96.3263 318.496 99.299C317.281 99.7292 315.922 100.133 314.433 100.433C308.934 101.542 304.153 100.877 300.887 100.068C300.286 91.6846 299.685 83.3011 299.084 74.9175C305.825 77.1731 312.565 79.4417 319.306 81.6974Z" fill="#F7A592"/>
<path d="M325.458 44.3953C326.046 49.6497 326.621 54.9302 327.183 60.2629C327.679 65.0088 328.149 69.7156 328.619 74.4093C327.692 75.8827 326.529 77.4994 325.04 79.1292C321.5 83.0146 317.686 85.3354 314.877 86.7044C312.226 86.0525 308.607 84.853 304.715 82.5582C300.43 80.0288 297.439 77.1343 295.545 74.983C295.231 73.1055 294.983 71.0976 294.826 68.9854C294.369 62.6619 294.865 57.0424 295.688 52.4008C297.282 50.5624 303.16 44.2258 312.866 42.9742C318.444 42.244 322.976 43.4957 325.471 44.4084L325.458 44.3953Z" fill="#FCC3AB"/>
<path d="M318.104 91.8541C319.619 93.6924 321.148 95.5308 322.663 97.3692C322.767 97.7995 323.473 101.033 321.383 103.458C320.573 104.397 319.619 104.879 318.979 105.14L314.577 100.355C313.48 102.376 312.382 104.397 311.298 106.405C309.522 106.313 305.969 105.883 302.233 103.641C298.863 101.62 296.903 99.0642 295.937 97.617C297.347 95.4787 298.758 93.3404 300.182 91.2021C301.645 92.4277 303.709 93.9141 306.426 95.1788C309.47 96.6 312.252 97.2388 314.264 97.5387C314.904 97.1345 316.053 96.3131 316.954 94.8659C317.699 93.6794 317.986 92.5581 318.117 91.8541H318.104Z" fill="#00DDF7"/>
<path d="M321.592 45.1123C320.912 46.2596 320.116 47.4591 319.162 48.6847C316.171 52.5049 312.827 55.0474 310.136 56.6902C307.588 58.2026 304.088 59.9107 299.685 60.9798C290.816 63.1441 283.318 61.5274 279.491 60.4061C279.216 54.1478 280.94 49.8191 282.208 47.394C287.851 36.7026 301.854 30.8745 317.581 32.5304C324.139 32.4913 326.673 34.2645 327.744 35.9594C328.724 37.4849 328.437 38.8409 329.325 42.5307C330.056 45.5816 331.036 47.9807 331.755 49.5322C330.723 49.6105 329.26 49.5844 327.601 49.102C324.348 48.1632 322.375 46.0641 321.592 45.0992V45.1123Z" fill="#231F20"/>
<path d="M313.819 386.675C313.754 387.835 313.767 389.152 313.911 390.612C314.159 393.155 314.76 395.293 315.374 396.936H306.805C306.596 395.932 306.426 394.849 306.295 393.689C306.021 391.16 306.047 388.878 306.204 386.935C307.379 386.622 308.542 386.309 309.718 385.997C310.149 387.222 310.58 388.448 310.998 389.673C311.115 388.422 311.22 387.17 311.337 385.905C312.16 386.166 312.996 386.414 313.819 386.675Z" fill="black"/>
<path d="M311.377 105.623C311.886 105.818 312.409 106.027 312.918 106.222C309.652 106.535 308.111 107.265 307.824 108.269C307.092 110.838 314.172 115.949 316.301 114.554C317.777 113.589 316.811 109.599 317.281 109.547C317.686 109.495 317.895 112.572 320.285 115.101C321.03 115.897 321.696 116.575 322.428 116.47C323.747 116.275 324.661 113.667 324.479 111.685C324.126 107.878 319.684 105.883 319.253 105.701C319.332 105.153 319.384 104.28 319.084 103.302C318.457 101.307 316.393 99.1686 314.368 99.5337C312.422 99.8857 310.684 102.519 311.364 105.61L311.377 105.623Z" fill="#FFBB44"/>
<path d="M336.966 151.178C333.165 156.263 325.197 165.377 311.977 170.775C306.465 173.03 301.357 174.086 297.19 174.595L292.854 152.964C307.562 152.365 322.271 151.778 336.979 151.178H336.966Z" fill="#00DDF7"/>
<path d="M354.536 144.79C352.198 145.181 349.729 145.676 347.142 146.328C345.588 146.719 344.099 147.123 342.675 147.554C340.689 149.379 338.586 151.23 336.366 153.082C333.087 155.82 329.873 158.323 326.764 160.605C329.873 161.557 334.68 162.6 340.533 162.13C350.173 161.361 356.952 156.954 359.918 154.751C358.128 151.426 356.325 148.114 354.536 144.79Z" fill="#00DDF7"/>
<path d="M351.244 144.815C351.179 144.346 350.5 140.004 346.907 138.192C343.263 136.354 338.038 137.853 335.177 142.26C336.797 144.633 338.403 147.006 340.023 149.392C343.759 147.866 347.508 146.341 351.244 144.815Z" fill="#FCC3AB"/>
<path d="M293.859 99.2601C294.369 107.383 295.688 117.188 298.706 128.022C300.665 135.037 302.99 141.243 305.342 146.602C309.535 146.445 314.459 145.95 319.88 144.816C326.569 143.421 332.238 141.413 336.718 139.47C337.567 139.861 339.435 140.878 340.794 143.029C342.779 146.159 342.218 149.405 342.074 150.161C337.528 153.825 330.291 158.78 320.403 162.378C310.619 165.938 301.984 166.811 296.172 166.955C292.867 161.765 288.569 154.112 284.951 144.294C280.47 132.143 273.207 112.233 281.803 103.419C283.919 101.242 287.511 99.3123 293.873 99.2471L293.859 99.2601Z" fill="#E7F4FA"/>
<path d="M319.11 145.076C319.097 144.007 317.033 143.251 313.754 142.025C309.718 140.513 306.165 140.096 303.813 139.991C302.912 141.699 300.822 146.08 302.533 148.388C305.603 152.495 319.162 147.827 319.11 145.076Z" fill="#FCC3AB"/>
<path d="M242.653 140.761C245.593 142.56 249.329 144.437 253.809 145.885C264.507 149.327 273.952 148.466 279.425 147.501C279.203 142.117 278.393 134.059 275.572 124.711C273.325 117.292 270.595 112.024 265.461 101.685C262.535 95.8048 258.459 88.0992 253.091 79.2853C250.374 78.1771 247.656 77.0819 244.926 75.9736C245.841 80.4197 246.598 85.1786 247.095 90.2244C249.054 110.251 246.233 127.618 242.64 140.748L242.653 140.761Z" fill="#61738F"/>
<path d="M195.275 390.847C195.236 392.046 195.327 393.741 196.059 395.58C196.673 397.105 197.182 397.405 197.117 398.213C196.921 400.221 193.302 402.164 190.011 401.89C187.777 401.708 184.864 400.456 184.211 398.213C184.08 397.77 183.976 397.066 184.995 394.002C185.752 391.746 186.536 389.947 187.098 388.748C189.815 389.452 192.545 390.156 195.262 390.847H195.275Z" fill="black"/>
<path d="M267.512 385.983C267.904 387.3 268.296 388.617 268.701 389.921C270.124 390.377 272.11 390.99 274.5 391.629C282.573 393.78 287.041 394.041 287.014 394.523C286.975 395.201 278.498 395.697 269.367 394.915C264.377 394.484 260.301 393.767 257.532 393.207L257.362 383.923C260.758 384.614 264.142 385.292 267.538 385.983H267.512Z" fill="black"/>
<path d="M259.818 191.01C261.647 213.605 263.24 236.657 264.56 260.151C267.055 304.768 268.387 347.977 268.779 389.647C267.734 390.182 265.905 390.964 263.502 391.12C260.471 391.316 258.133 390.416 257.01 389.895C247.134 330.245 237.259 270.608 227.383 210.958C229.068 204.674 230.753 198.389 232.439 192.105C241.569 191.74 250.7 191.375 259.831 191.01H259.818Z" fill="#61738F"/>
<path d="M200.291 189.902C198.606 205.104 197.012 220.463 195.549 235.992C190.546 289.018 187.202 340.559 185.269 390.495C186.092 391.199 187.986 392.607 190.795 393.129C194.073 393.728 196.66 392.764 197.639 392.346C211.159 325.604 224.692 258.848 238.212 192.105C225.568 191.375 212.923 190.645 200.278 189.915L200.291 189.902Z" fill="#61738F"/>
<path d="M186.027 72.2837C187.45 88.7379 188.979 105.336 190.612 122.064C193.015 146.589 195.601 170.774 198.332 194.621C205.49 196.72 215.757 198.911 228.193 198.833C241.726 198.754 252.738 196.029 260.144 193.578C260.758 176.211 260.131 162.156 259.439 152.56C258.499 139.313 257.271 132.025 254.88 108.491C253.6 95.922 252.712 85.6609 252.15 79.0505C246.259 76.4689 238.735 73.757 229.787 71.8404C220.682 69.8846 212.57 69.2979 206.065 69.2588C199.377 70.2627 192.702 71.2797 186.013 72.2837H186.027Z" fill="#FFBB44"/>
<path d="M213.955 48.2416C213.837 50.0278 213.641 51.8923 213.367 53.8219C212.466 60.2237 210.859 65.8301 209.095 70.5369C215.196 73.8617 221.296 77.1994 227.396 80.5242C230.061 79.103 232.726 77.6819 235.378 76.2607C234.986 73.6009 234.725 70.4717 234.79 66.9514C234.894 62.1403 235.613 58.0072 236.423 54.7346C228.925 52.5702 221.427 50.3929 213.942 48.2285L213.955 48.2416Z" fill="#F7A592"/>
<path d="M210.584 48.6063C212.034 50.8749 214.503 54.1345 218.409 57.0941C221.453 59.4019 224.379 60.784 226.599 61.6184C229.186 60.9795 233.17 59.6496 237.245 56.69C240.08 54.6299 242.092 52.4134 243.437 50.6663C244.09 39.1275 244.757 27.5886 245.41 16.0368C243.424 14.1593 240.459 11.9428 236.449 10.5477C224.209 6.28418 212.923 13.4813 211.198 14.6286C210.989 25.9589 210.793 37.2891 210.584 48.6193V48.6063Z" fill="#FCC3AB"/>
<path d="M213.929 37.9935C213.72 36.1942 212.635 34.6687 211.094 34.0299C208.912 33.1302 206.457 34.2776 205.477 35.8161C203.753 38.5281 206.052 43.3 209.5 44.4865C211.381 45.1384 213.171 44.5648 213.942 44.2518C213.942 42.1657 213.942 40.0796 213.942 37.9935H213.929Z" fill="#FCC3AB"/>
<path d="M242.601 35.0728C243.908 34.5643 245.593 35.3075 246.468 36.2984C248.636 38.7626 247.004 44.1213 243.829 45.4121C242.719 45.8684 241.609 45.7381 240.851 45.5686C239.44 40.1055 240.459 35.9203 242.601 35.0728Z" fill="#FCC3AB"/>
<path d="M230.087 81.3715C231.393 80.1329 232.687 78.8812 233.993 77.6426L232.02 73.9658C230.348 74.3179 228.689 74.6699 227.017 75.0219C224.731 74.6308 222.445 74.2396 220.172 73.8354C219.389 74.9046 218.618 75.9607 217.834 77.0298C219.741 78.2815 221.662 79.5332 223.569 80.7848L225.698 141.856L238.682 155.129C240.407 150.396 242.118 145.663 243.842 140.93C239.257 121.073 234.685 101.229 230.1 81.3715H230.087Z" fill="#00DDF7"/>
<path d="M255.338 187.111C251.027 187.802 246.298 188.337 241.204 188.598C232.295 189.054 224.3 188.585 217.495 187.724C217.286 191.375 217.09 195.026 216.881 198.676C222.628 199.745 230.192 200.567 239.009 199.993C245.789 199.55 251.654 198.376 256.396 197.099C256.043 193.774 255.69 190.436 255.338 187.111Z" fill="#4E4E4E"/>
<path d="M225.398 199.302L225.568 205.091C224.523 206.539 223.255 207.973 221.701 209.303C212.753 216.956 200.722 215.626 197.117 215.092C205.281 209.511 213.445 203.931 221.61 198.351C222.864 198.677 224.131 198.989 225.385 199.315L225.398 199.302Z" fill="#415066"/>
<path d="M205.725 69.3242C212.322 89.9246 218.618 115.466 221.884 145.142C224.287 167.007 224.588 186.864 223.843 204.074C221.753 206.317 218.409 209.342 213.628 211.754C206.104 215.535 199.102 215.757 195.549 215.613C193.511 181.062 191.474 146.511 189.436 111.972C187.921 98.9601 186.392 85.961 184.877 72.9488C187.542 72.0492 190.625 71.1887 194.099 70.5368C198.436 69.7154 202.381 69.4025 205.725 69.3373V69.3242Z" fill="#61738F"/>
<path d="M249.629 195.612C249.799 197.125 249.982 198.65 250.152 200.176C253.666 203.161 257.179 206.134 260.693 209.12C257.01 204.622 253.313 200.124 249.629 195.625V195.612Z" fill="#415066"/>
<path d="M239.153 74.2134C242 100.916 244.73 127.84 247.343 154.959C248.793 169.979 250.191 184.947 251.549 199.85L263.515 211.754C263.044 193.983 262.13 175.507 260.693 156.367C258.629 129.143 255.69 103.341 252.163 79.0766C250.191 77.9423 247.735 76.7298 244.796 75.7258C242.758 75.0218 240.851 74.5524 239.14 74.2264L239.153 74.2134Z" fill="#61738F"/>
<path d="M247.957 134.268C248.584 131.96 249.316 129.691 250.008 127.396C250.726 125.115 251.497 122.859 252.242 120.591L252.202 120.982L249.877 109.665C249.067 105.91 248.257 102.141 247.356 98.3995L244.691 87.1475L243.294 81.528L241.909 75.8955C242.693 77.6687 243.372 79.481 244.064 81.2933C244.77 83.0926 245.371 84.944 245.985 86.7694C247.225 90.4462 248.323 94.1621 249.302 97.904C250.256 101.659 251.144 105.44 251.876 109.247C252.62 113.054 253.274 116.875 253.718 120.721L253.744 120.956L253.678 121.112C252.751 123.316 251.85 125.519 250.909 127.709C249.929 129.887 248.989 132.09 247.957 134.242V134.268Z" fill="#415066"/>
<path d="M219.781 136.38C217.991 135.389 216.267 134.254 214.595 133.055C212.923 131.855 211.316 130.551 209.801 129.143C209.043 128.439 208.299 127.722 207.567 126.992L206.496 125.871L205.947 125.271L205.464 124.671C204.158 123.094 202.904 121.49 201.637 119.886L201.454 119.652V119.352C201.31 115.349 201.271 111.346 201.192 107.343L201.153 101.333C201.101 99.3249 201.179 97.3301 201.271 95.3353C201.414 91.3325 201.78 87.3428 202.146 83.3531C202.512 79.3634 203.06 75.3998 203.727 71.4492L203.374 83.4183C203.23 87.408 203.243 91.3847 203.165 95.3744C203.087 99.3641 203.256 103.328 203.309 107.317C203.335 111.294 203.4 115.271 203.361 119.26L203.165 118.726C204.38 120.369 205.595 122.011 206.783 123.68L207.227 124.306L207.672 124.854L208.651 126.014C209.317 126.783 209.997 127.527 210.689 128.257C212.1 129.717 213.55 131.125 215.065 132.494C216.58 133.85 218.174 135.128 219.794 136.38H219.781Z" fill="#415066"/>
<path d="M244.365 34.8903C245.54 32.1131 246.821 28.3842 247.526 23.8469C248.349 18.5403 248.127 13.99 247.696 10.7044C246.925 9.4918 245.593 7.73164 243.477 6.14098C240.577 3.97663 237.677 3.25953 236.096 2.98573C234.711 2.17736 228.415 -1.32993 220.473 0.534539C214.32 1.98178 210.637 5.82806 209.383 7.28834C207.998 12.2429 206.666 20.0397 208.717 28.9318C209.239 31.1874 209.905 33.2344 210.65 35.0598C211.342 31.4482 212.048 27.8235 212.753 24.1989C213.341 21.2132 213.916 18.2274 214.503 15.2547C216.567 16.4281 218.984 17.5885 221.753 18.5794C229.473 21.3566 236.475 21.5391 241.243 21.2132C241.726 22.2301 242.183 23.3384 242.601 24.5379C243.947 28.4494 244.326 32.0479 244.352 34.8772L244.365 34.8903Z" fill="#231F20"/>
<path d="M235.038 65.6343C233.013 67.8899 231.002 70.1325 228.977 72.3881C230.348 75.9866 231.733 79.5721 233.105 83.1707C235.273 79.9633 237.441 76.7428 239.597 73.5354C238.082 70.9017 236.553 68.281 235.025 65.6473L235.038 65.6343Z" fill="#BD934A"/>
<path d="M223.856 72.3882C222.733 76.1563 221.596 79.9243 220.473 83.6924C215.561 78.9073 210.637 74.1093 205.725 69.3242C207.593 67.1599 209.474 64.9955 211.342 62.8442C215.509 66.0256 219.689 69.2069 223.856 72.4013V72.3882Z" fill="#BD934A"/>
<path d="M226.834 141.595C224.927 144.763 221.322 149.835 215.169 154.19C207.332 159.744 199.546 161.178 195.654 161.635C193.446 155.22 191.238 148.818 189.044 142.403C201.636 142.13 214.242 141.856 226.834 141.582V141.595Z" fill="#415066"/>
<path d="M264.86 122.494C262.326 122.924 259.635 123.459 256.827 124.163C255.142 124.58 253.522 125.037 251.967 125.506C249.838 127.475 247.552 129.496 245.096 131.517C242.196 133.916 239.349 136.106 236.619 138.088C239.688 140.448 244.143 143.316 250.008 145.441C259.544 148.897 267.969 148.61 272.724 148.075C273.103 144.359 273.286 137.123 269.537 129.509C268.1 126.588 266.402 124.267 264.847 122.494H264.86Z" fill="#61738F"/>
<path d="M266.206 121.829C264.847 117.083 261.111 113.458 256.5 112.467C250.896 111.268 244.913 114.175 242.105 119.652C245.619 122.051 249.133 124.437 252.647 126.836C257.166 125.167 261.686 123.498 266.206 121.816V121.829Z" fill="#FCC3AB"/>
<path d="M195.654 70.954C196.803 80.1459 198.24 89.7681 200.056 99.7815C201.793 109.391 203.727 118.544 205.777 127.227C211.852 126.51 219.232 125.128 227.37 122.494C234.646 120.134 240.812 117.305 245.789 114.645C246.638 114.815 249.786 115.545 252.046 118.491C254.998 122.351 253.979 126.81 253.835 127.41C249.028 132.038 242.549 137.358 234.189 142.117C218.723 150.917 204.066 153.695 194.739 154.659C185.426 141.817 181.128 130.082 178.999 122.572C176.634 114.228 168.327 84.7093 181.677 74.4482C186.34 70.8627 192.205 70.7323 195.667 70.9801L195.654 70.954Z" fill="#61738F"/>
<path d="M222.341 124.502C222.746 121.294 216.006 117.905 213.302 116.809C208.494 114.867 204.132 115.167 201.911 115.466C199.638 120.317 199.403 125.532 201.911 128.505C207.045 134.554 221.779 128.987 222.341 124.489V124.502Z" fill="#FCC3AB"/>
<path d="M246.729 144.072C247.787 145.207 249.08 146.445 250.687 147.632C254.214 150.265 257.715 151.621 260.249 152.338C260.079 150.774 259.909 149.196 259.739 147.632C255.403 146.445 251.066 145.259 246.729 144.072Z" fill="#415066"/>
<path d="M253.861 127.279C252.215 128.974 250.347 130.734 248.244 132.495C244.809 135.376 241.452 137.671 238.421 139.496C239.309 140.213 240.328 140.943 241.478 141.66C243.542 142.951 245.514 143.838 247.212 144.464C246.703 142.938 246.193 141.413 245.684 139.887C248.401 135.689 251.118 131.491 253.848 127.292L253.861 127.279Z" fill="#415066"/>
<path d="M202.734 103.341C201.767 100.616 200.448 97.4997 198.658 94.175C196.803 90.7459 194.844 87.8645 193.041 85.5176C196.32 94.7226 199.586 103.928 202.864 113.133C202.825 109.86 202.773 106.6 202.734 103.328V103.341Z" fill="#415066"/>
</g>
<defs>
<clipPath id="clip0_56_17649">
<rect width="458.515" height="410" fill="white"/>
</clipPath>
</defs>
</svg>
