
<svg xmlns="http://www.w3.org/2000/svg" xmlns:xlink="http://www.w3.org/1999/xlink" viewBox="0 0 799 400">
<style type="text/css">
	.st0{fill:#004E7C;}
	.st1{fill:#A6A8A9;}
	.st2{fill:#4E4E4E;}
	.st3{fill:#9BBBE0;}
	.st4{fill:#0071ED;}
	.st5{fill:#E6E6E6;}
	.st6{fill:#88A1E6;}
	.st7{fill:#223761;}
	.st8{fill:#D49B08;}
	.st9{fill:#21355E;}
	.st10{fill:#EBA263;}
	.st11{fill:#EB8A6E;}
	.st12{fill:#FCD553;}
	.st13{fill:#4C80BA;}
	.st14{fill:#31518F;}
	.st15{fill:#97AEF4;}
	.st16{fill:#708BDB;}
	.st17{fill:#A2CAF5;}
	.st18{fill:#BD934A;}
	.st19{fill:#21355D;}
	.st20{fill:#1A2A49;}
	.st21{fill:#8E572A;}
	.st22{fill:url(#SVGID_1_);}
	.st23{fill:#57312A;}
	.st24{fill:url(#SVGID_00000086650024583572497120000014562574924953321352_);}
	.st25{fill:#7A1618;}
	.st26{fill:#FBB040;}
	.st27{fill:#D4858E;}
	.st28{fill:#9C3537;}
	.st29{fill:#C46850;}
	.st30{fill:#FFFFFF;}
	.st31{fill:#B04547;}
	.st32{fill:#00DDF7;}
	.st33{fill:#536BB0;}
    @keyframes move {
        0% {
            transform: translate(0, 0);
        }
        25% {
            transform: translate(60px, 60px);
        }
        50% {
            transform: translate(30px, 60px);
        }
        75% {
            transform: translate(60px, -30px);
        }
        100% {
            transform: translate(0, 0);
        }
    }
    .drone {
        animation: move 12s;
        animation-iteration-count: infinite;
    }
    @keyframes wifi {
        0% {
            opacity: 0;
        }
        100% {
            opacity: 1;
        }
    }
    .wifi path:nth-child(3) {
        animation: wifi 2.03s;
        animation-iteration-count: infinite;
    }
    .wifi path:nth-child(2) {
        animation: wifi 2.02s;
        animation-iteration-count: infinite;
    }
    .wifi path:nth-child(1) {
        animation: wifi 2.01s;
        animation-iteration-count: infinite;
    }
</style>
<g>
    <path class="st0" d="M77,239.3H51.3v129.2H77V239.3z"/>
	<path class="st0" d="M103.7,269.7H86.9v97.7h16.8V269.7z"/>
	<path class="st1" d="M70.3,299.3H58v71.9h12.3V299.3z"/>
	<path class="st0" d="M140.3,255.6h-16.8v111.9h16.8V255.6z"/>
	<path class="st2" d="M13.5,273.9H0v98.2h13.5V273.9z"/>
	<path class="st1" d="M54.1,263.1H41.8v108.1h12.3V263.1z"/>
	<path class="st1" d="M24.3,281.7H12v90.5h12.3V281.7z"/>
	<path class="st1" d="M110.4,236.5H97v134.7h13.4V236.5z"/>
	<path class="st1" d="M192.2,283.3h-13.4v85.1h13.4V283.3z"/>
	<path class="st3" d="M198.4,252.4h-13.4v118.8h13.4V252.4z"/>
	<path class="st2" d="M164.4,219.5h-15.5v149h15.5V219.5z"/>
	<path class="st2" d="M127.2,204.9h-20.9v166.3h20.9V204.9z"/>
	<path class="st1" d="M153.6,234.2h-17.4v137h17.4V234.2z"/>
	<path class="st1" d="M179.7,263.1h-17.4v108.1h17.4V263.1z"/>
	<path class="st2" d="M44.1,230.6H23.2v141.6h20.9V230.6z"/>
	<path class="st2" d="M91.7,188H66v183.2h25.7V188z"/>
	<path class="st4" d="M305.7,248.7c0-151,156.6-130.7,172.9-155.4C547.2-11.3,643.7-5.8,718.1,59.4
		c60.4,52.9,100.9,152.1,69.7,235.8c-25.2,67.5-59.4,67.9-83.8,73.7c-12.8,3-54.8,5.6-92.6,5.6c-59.3,0-145.9,0.9-205.6,0.5
		C298.1,374.2,305.7,308.3,305.7,248.7z"/>
	<path class="st5" d="M219.3,385c24,0,43.5-2.1,43.5-4.7s-19.5-4.7-43.5-4.7c-24,0-43.5,2.1-43.5,4.7S195.3,385,219.3,385z"/>
	<path class="st5" d="M320.9,383.6c17,0,30.8-2,30.8-4.6s-13.8-4.6-30.8-4.6s-30.8,2-30.8,4.6S303.9,383.6,320.9,383.6z"/>
	<path class="st5" d="M792.1,395.6H385.7l18.6-21.1H769L792.1,395.6z"/>
	<path class="st0" d="M259.8,209.9H294l7.4,16.8h-34.2L259.8,209.9z"/>
	<path class="st6" d="M298.6,225.6v9h-34.8l-0.1-0.2l-2.9-8.8l0-0.1l-2.2-11.5l1.2-3.7l32,0.3l1.4,3.1L298.6,225.6L298.6,225.6
		L298.6,225.6z"/>
	<path class="st5" d="M298.6,225.6h-42.9v10.7h42.9V225.6z"/>
	<path class="st1" d="M298.6,225.6v10.7h-15.1v-22.6h9.7L298.6,225.6L298.6,225.6z"/>
	<path class="st4" d="M293.6,209.9l-1.3,3l-3.4,7.8l-2.6,6H252l6.1-13.8l1.1-2.5l0.2-0.4H293.6z"/>
	<path class="st1" d="M263.2,227.8h-2.6v4.8h2.6V227.8z"/>
	<path class="st1" d="M278.5,227.8h-2.6v4.8h2.6V227.8z"/>
	<path class="st0" d="M525.2,374.4c-46.6-66-142.8-139.7-253.9-139.7c-111.1,0-201.6,76.1-250,139.7H525.2z"/>
	<path class="st7" d="M325.9,374.1c0,0,0.2,0.7-1.3,1.2c-1.4,0.5-3.7,1.1-3.7,1.8s0.6,1.1,1.8,1.3c1.2,0.1,4.8,0,5.6,0
		c0.9,0,4.5,0.1,4.8-0.2c0.3-0.3,0.1-2.9,0-3.3c-0.1-0.5-0.2-2.7-0.2-2.7l-6.3,0.3L325.9,374.1L325.9,374.1z"/>
	<path class="st7" d="M311.1,374.1c0,0,0.2,0.7-1.3,1.2c-1.4,0.5-3.7,1.1-3.7,1.8s0.6,1.1,1.8,1.3c1.2,0.1,4.8,0,5.6,0
		c0.9,0,4.5,0.1,4.8-0.2c0.3-0.3,0.1-2.9,0-3.3c-0.1-0.5-0.2-2.7-0.2-2.7l-6.3,0.3L311.1,374.1L311.1,374.1z"/>
	<path class="st8" d="M341.2,269.6c-2.3-2.2-8.3-5.5-13.6-5.1c-5.4,0.4-9.5,0.7-11.2,2.2c-1.6,1.5-4.7,9.3-4.7,9.3l-4.9-3.5
		c0,0-0.2,2.4-2.3,2.6l-2.1,0.1c0,0,0.2,2.2,2.1,5c1.9,2.8,3.8,6.2,5.4,6.2c1.6,0,4.1-4.5,4.1-4.5v5.7l22.9,1.6l-0.6-4.9
		c0,0,0.3,2.2,1,3.9c0.6,1.4,1.7,6.2,2.1,10.6c2.2-0.2,4.4-0.3,6.7-0.2c0-1.6-0.1-3.1-0.2-4.2C345.1,288.8,343.5,271.9,341.2,269.6
		L341.2,269.6z"/>
	<path class="st7" d="M322.5,265c0,0-1.6,5.4-2,9.6c-0.3,3.6-0.5,10.1-0.5,10.1l-3.3,0.4c0,0,0-8.8,0.4-11.6
		c0.5-3.4,2.4-8.3,2.4-8.3L322.5,265L322.5,265z"/>
	<path class="st7" d="M335,265.9c0,0-1.7,4.8-2.1,9c-0.3,3.6-0.7,11.1-0.7,11.1l-3.6-0.8c0,0,0.3-8,0.7-10.7
		c0.5-3.4,2.8-9.5,2.8-9.5L335,265.9L335,265.9z"/>
	<path class="st9" d="M314,284.3h4.7c2.7,0,6,0,8.9,0.4c2.9,0.4,9,1.8,9,1.8s1.2,6.1,1.4,10.9c0.2,4.8,0.1,9.5-0.6,16.8
		c-0.8,7.3-2.9,25.3-2.4,31.4c0.5,6.1-0.6,16.5-0.8,19.6c-0.2,3.2-0.7,10.2-0.7,10.2s-3.5,0.4-5.8,0c-2.3-0.4-2.9-1-2.9-1
		s0.6-7,0.2-11.5c-0.5-4.4-1.4-10.9-1.6-14.6c-0.3-3.7-0.1-23-0.5-23.5c-0.5-0.5-2,11.5-2.3,14.9c-0.4,3.4-1.4,10.7-0.8,15.3
		c0.5,4.5-0.6,19.1-1,20.1c-1.9,0.3-2.8,0.1-4.7-0.2c-1.9-0.3-3.8-0.9-3.8-0.9s0-14.9-0.6-18.4c-0.6-3.5-0.8-7-0.5-12.3
		c0.4-5.3,1.4-27.4,1.8-30.7c0.4-3.3,2.2-13,2.4-16.2C313.5,293.2,314,284.3,314,284.3L314,284.3z"/>
	<path class="st1" d="M353,237.7l-6.5,5.5c-1.7,1.4-4.2,1.2-5.7-0.5c-1.4-1.7-1.2-4.2,0.5-5.7l6.5-5.5c-3.2-1.4-7-1-9.9,1.4
		c-3.9,3.3-4.4,9.2-1.1,13.2c3.3,3.9,9.2,4.4,13.2,1.1C352.9,244.8,353.9,241.1,353,237.7L353,237.7z"/>
	<path class="st1" d="M280.5,289.7l5.3-4.5c1.4-1.2,3.5-1,4.6,0.4c1.2,1.4,1,3.5-0.4,4.6l-5.3,4.5c2.6,1.2,5.8,0.8,8.1-1.1
		c3.2-2.7,3.6-7.5,0.9-10.8c-2.7-3.2-7.5-3.6-10.8-0.9C280.6,283.9,279.8,287,280.5,289.7L280.5,289.7z"/>
	<path class="st1" d="M336.1,241.1L289.2,281l5.7,6.7l46.9-39.8L336.1,241.1z"/>
	<path class="st10" d="M335.4,250.8c-1.5-10.4-18.7,0.1-14.2,6.4C324.9,262.2,336.3,257.2,335.4,250.8z"/>
	<path class="st10" d="M325,256.1c0,3.7-1,5.7-2.5,8.9c0.3,3.1,5.5,3.6,9.5,0c-0.8-3.2-0.7-6.6-0.1-9.6L325,256.1z"/>
	<path class="st7" d="M330.1,249.4l-2.2,3.4l0.3,0.6c0,0,1.3-0.3,1.5,0s0.2,0.7,0.2,0.7s-0.5,1.4-0.6,2c-0.1,0.4,0.1,2.1,0.1,2.1
		l2,0.5c0,0,0.3-1.7,1.7-2.5c1.4-0.8,2.4-2.4,2.3-4.2c0-1.8-2.7-4.4-2.7-4.4L330.1,249.4L330.1,249.4z"/>
	<path class="st11" d="M329,253.3c0.5,0,1.3-0.1,1.5,0.5c0.1,0.4-0.2,0.9-0.6,1c-0.5,0.3-2.3,0.5-2.4-0.4c0-0.5,0.7-0.7,1-0.9
		L329,253.3z"/>
	<path class="st12" d="M332.8,257.9l-7.3-11.3c0.2-0.1,0.3-0.3,0.5-0.4c1.5-1.2,3.6-1.7,5.6-1.3c3.7,0.8,6,4.4,5.2,8.1
		c-0.4,2-1.7,3.6-3.4,4.5C333.2,257.8,333,257.8,332.8,257.9z"/>
	<path class="st8" d="M333.2,258.5l-0.6-1l-7.1-10.9l-0.4-0.6c-0.1-0.2-0.1-0.4,0-0.5c0.1,0,0.1,0,0.2,0c0.1,0,0.2,0.1,0.2,0.2
		l0.3,0.5l7.2,11l0.6,0.9c0.1,0.2,0.1,0.4,0,0.5C333.5,258.7,333.3,258.7,333.2,258.5L333.2,258.5z"/>
	<path class="st10" d="M300.1,271.2c-0.5-3.7,4.4-7.8,6.1-3.8c0.1,0.4,0.5,1.3,0,1.7c-0.5,0.4-1,0.8-1.5,1.1
		c-1.1,0.8-3.5,0.9-4.2,1.4L300.1,271.2L300.1,271.2z"/>
	<path class="st13" d="M340.9,319.8c-2.9,0-5.2,1.8-5.2,4c0,2.2,2.3,4,5.2,4s5.2-1.8,5.2-4C346.1,321.6,343.7,319.8,340.9,319.8z
		 M340.9,326c-1.8,0-3.2-1-3.2-2.2c0-1.2,1.4-2.2,3.2-2.2c1.8,0,3.2,1,3.2,2.2C344.1,325,342.6,326,340.9,326z"/>
	<path class="st10" d="M340,315.8c0.1,1.3-0.6,1.9-1.5,2.6c-1,0.8-1,1.4-1.1,2.5c2-0.7,1.2,1.3,1.6,2.5c0.6,1.6,2.8,0.7,3.9,0.3
		c0.7-0.3,1.5-0.5,1.8-1.3c0.3-0.7,0.1-1.6,0.1-2.3c0-0.8-0.2-1.6-0.2-2.4c0-0.5,0.7-1.5,0.5-1.9c-0.3-0.6-2-0.4-2.5-0.5
		c-0.7-0.1-1.4-0.2-2.1-0.4L340,315.8L340,315.8z"/>
	<path class="st8" d="M339.5,299c0.1,1,0.2,2,0.2,2.9c0.1,5,0,14.2,0,14.2s0.1,1,2.4,1.2s2.9,0,2.9,0s1.1-11.3,1.1-18.6
		C343.9,298.8,341.7,298.8,339.5,299L339.5,299z"/>
	<path class="st13" d="M340.4,339.9l-10.8-1.3l0-14.4h10.9V339.9z"/>
	<path class="st14" d="M351.3,337.6l-10.9,2.4v-15.6h11.2L351.3,337.6z"/>
	<path class="st15" d="M193.4,198.9c-0.4,2.5,0.9,5.5,0.8,8.2c0,0.9,0.2,1.6,0.3,2.4c1.3,0.2,2.5-0.5,3.7-0.2
		c1.2,0.2,3.3,0.8,4.4-0.2c1.3-1.2-1.5-2-2.3-2.4c-1.6-0.9-1.9-1.7-1.8-3.6c0.1-1.8,0.1-3.5,0.2-5.3c-0.8,0.5-1.9,0.2-2.7,0.3
		c-0.9,0.1-1.8,0.1-2.7,0.4L193.4,198.9L193.4,198.9z"/>
	<path class="st16" d="M197,198.9c-0.4,2.5,0.9,5.5,0.8,8.2c0,0.9,0.2,1.6,0.3,2.4c1.3,0.2,2.5-0.5,3.7-0.2c1.2,0.2,3.3,0.8,4.4-0.2
		c1.3-1.2-1.5-2-2.3-2.4c-1.6-0.9-1.9-1.7-1.8-3.6c0.1-1.8,0.1-3.5,0.2-5.3c-0.8,0.5-1.9,0.2-2.7,0.3c-0.9,0.1-1.8,0.1-2.7,0.4
		L197,198.9L197,198.9z"/>
	<path class="st17" d="M212.1,133.9c0,3.2-2.5,5.8-5.5,5.8h-1.9c-3.1,0-5.5-2.6-5.5-5.8V94.2c0-3.2,2.5-5.8,5.5-5.8h1.9
		c3.1,0,5.5,2.6,5.5,5.8V133.9z"/>
	<path class="st18" d="M194.1,111.9c0.9,0.4,1.8,1.1,2.9,1.1c1,0,2.3-0.5,3.3-0.8c1.5-0.4,4.4-1.8,5.9-2.7c0.8-0.5,0.5,2.6,1,3.4
		c-1.4,1.7-2.9,3.3-4.8,4.4c-1.9,1.1-4.2,2.8-6.5,1.8c-1.2-0.5-2.2-1.3-3.2-2.1c0.5-1.3,0.6-3.4,0.7-4.7L194.1,111.9L194.1,111.9z"
		/>
	<path class="st10" d="M180.9,94.6c2.5,5,16,6.6,13-2.1c-2.3-6.6-8.6-8.6-14.6-1.6L180.9,94.6L180.9,94.6z"/>
	<path class="st10" d="M188.2,94.6c2,1.3,2.3,5.1,4.7,7.3c-2.2,0.8-4.4,2.2-6.7,3.2c-0.2-3.2-1.1-6.8-2.8-9.4
		c-0.1-0.2,0.4,1.1,0.3,0.5L188.2,94.6L188.2,94.6z"/>
	<path class="st18" d="M187.2,104.7c-4,2.6-5,7.7-4.3,12.2c0.7,4.3,1.5,8.6,3.1,12.7c0.9,2.4,1.7,4.3,1.8,6.9c0,0,0,0,0,0
		c0,0.1,0.1,0.2,0.1,0.3c3.4-1.1,6.9-2.1,10.1-3.7c2.8-1.4,5.3-3.3,5.3-6.7c0.1-3-1.1-6.2-1.8-9.1c-0.8-3.3-1.6-6.7-3.8-9.5
		c-2.1-2.7-4.9-3.9-8.2-4.1c-0.4,0-0.7-0.1-1.1-0.1L187.2,104.7L187.2,104.7z"/>
	<path class="st7" d="M187.6,134.5c0,0-0.5,5.7-0.8,8.5c-0.3,2.8-0.5,5.5,0.4,9.8c0.9,4.3,2.8,12.3,2.6,16.6
		c-0.2,4.2-0.4,18.9,1.4,23c1.7,4.2,2.3,6.7,2.3,6.7s3.3,0.6,3.6,0.6c0.4,0,0-0.6,0-0.6s1.3,0.2,2.5,0.2c1.3,0,3.5-0.8,3.8-1.4
		c0.4-0.6,3.4-19.4,3.9-25.7c0.5-6.2,1.8-23,0-33.1s-3.9-19.6-5.9-24.7c-2-5.2-5.1-9.3-5.1-9.3l-0.5,1.3c0,0,0.5,1.6,2,5.4
		c1.4,3.7,3.2,6.5,2.8,9.3c-0.4,2.8-3.4,7.7-5.4,9.2C193.2,131.9,189.2,134.4,187.6,134.5L187.6,134.5z"/>
	<path class="st7" d="M186.9,87.9c0,0,0.8,2.1,1.2,3.2c0.4,1.2,0.8,2,0.8,2l-0.6,0.4c0,0-0.8-0.3-1.4,0c-0.7,0.3-0.1,0.8,0.2,1.5
		c0.2,0.8-0.2,3.7-0.2,3.7l-1.7,1c0,0-0.7-0.8-1.6-1.8c-1-1-3.4-2.7-3.5-4.7c-0.1-1.9,1.3-3.5,2.3-4
		C183.4,88.8,186.9,87.9,186.9,87.9z"/>
	<path class="st11" d="M186.4,94.3c0.5,0.5,2.6,1.5,2.8,0.2C189.4,92.8,184.9,92.6,186.4,94.3z"/>
	<path class="st12" d="M191.2,87.3l-8.4,10.5c-0.2-0.1-0.4-0.2-0.5-0.3c-1.6-1.1-2.7-2.9-3-5c-0.4-3.7,2.3-7.1,6.1-7.5
		c2.1-0.2,4,0.5,5.4,1.8C190.9,87,191,87.1,191.2,87.3L191.2,87.3z"/>
	<path class="st8" d="M192,86.3l-0.8,1l-8.4,10.5l-0.4,0.6c-0.1,0.2-0.3,0.2-0.5,0.1c-0.1,0-0.1-0.1-0.1-0.2c0-0.1,0-0.2,0.1-0.3
		l0.4-0.5l8.5-10.6l0.7-0.9c0.1-0.2,0.3-0.2,0.5-0.1C192.1,86,192.1,86.2,192,86.3L192,86.3z"/>
	<path class="st19" d="M227,68.9h-13.4v4.4H227V68.9z"/>
	<path class="st19" d="M216.9,69.3c-0.1,0.7-0.8,1.2-1.4,1.1c-0.7-0.1-1.1-0.9-1-1.6l4.4-26.3c0.1-0.7,0.8-1.2,1.4-1.1
		c0.7,0.1,1.1,0.9,1,1.6L216.9,69.3z"/>
	<path class="st19" d="M221.7,42.4c-0.1-0.7-0.8-1.2-1.4-1.1c-0.7,0.1-1.1,0.9-1,1.6l4.4,26.3c0.1,0.7,0.8,1.2,1.4,1.1
		c0.7-0.1,1.1-0.9,1-1.6L221.7,42.4z"/>
	<path class="st20" d="M223.2,54.4c0,0.3-0.2,0.5-0.5,0.5H218c-0.2,0-0.5-0.2-0.5-0.5c0-0.3,0.2-0.5,0.5-0.5h4.7
		C223,53.9,223.2,54.1,223.2,54.4z"/>
	<path class="st20" d="M223.9,59.4c0,0.3-0.3,0.5-0.6,0.5h-6.2c-0.3,0-0.6-0.2-0.6-0.5s0.3-0.5,0.6-0.5h6.2
		C223.7,58.9,223.9,59.1,223.9,59.4z"/>
	<path class="st20" d="M224.4,64.4c0,0.3-0.3,0.5-0.7,0.5h-7.2c-0.4,0-0.7-0.2-0.7-0.5c0-0.3,0.3-0.5,0.7-0.5h7.2
		C224.1,63.9,224.4,64.1,224.4,64.4z"/>
	<path class="st20" d="M225.4,69.3c0,0.3-0.4,0.5-0.9,0.5h-9c-0.5,0-0.9-0.2-0.9-0.5c0-0.3,0.4-0.5,0.9-0.5h9
		C225,68.8,225.4,69.1,225.4,69.3z"/>
	<path class="st9" d="M222,378.8c0,1.5-0.8,2.7-1.7,2.7c-0.9,0-1.7-1.2-1.7-2.7V70.2c0-1.5,0.8-2.7,1.7-2.7c0.9,0,1.7,1.2,1.7,2.7
		V378.8L222,378.8z"/>
	<path class="st9" d="M250.2,378.8c0.1,1.5-0.6,2.7-1.5,2.7c-0.9,0-1.8-1.2-1.9-2.7L226.9,70.2c-0.1-1.5,0.6-2.7,1.5-2.7
		s1.8,1.2,1.9,2.7L250.2,378.8z"/>
	<path class="st9" d="M190.5,378.8c-0.1,1.5,0.6,2.7,1.5,2.7c0.9,0,1.8-1.2,1.9-2.7l19.8-308.6c0.1-1.5-0.6-2.7-1.5-2.7
		c-0.9,0-1.8,1.2-1.9,2.7L190.5,378.8z"/>
	<path class="st7" d="M194.1,344.8c-0.5-0.7-0.6-1.6-0.1-2.2c0.5-0.5,1.3-0.4,1.9,0.3l25.5,32.3c0.5,0.7,0.6,1.6,0.1,2.2
		c-0.5,0.5-1.3,0.4-1.9-0.3L194.1,344.8L194.1,344.8z"/>
	<path class="st9" d="M247.2,345.2c0.5-0.7,0.6-1.6,0.1-2.1c-0.5-0.5-1.4-0.4-1.9,0.3l-25.5,31.8c-0.5,0.7-0.6,1.6-0.1,2.1
		c0.5,0.5,1.4,0.4,1.9-0.3L247.2,345.2z"/>
	<path class="st7" d="M194.1,342.7c-0.5,0.7-0.6,1.6-0.1,2.2c0.5,0.5,1.3,0.4,1.9-0.3l25.5-32.3c0.5-0.7,0.6-1.6,0.1-2.2
		c-0.5-0.5-1.3-0.4-1.9,0.3L194.1,342.7z"/>
	<path class="st9" d="M247.2,342.3c0.5,0.7,0.6,1.6,0.1,2.1c-0.5,0.5-1.4,0.4-1.9-0.3l-25.5-31.8c-0.5-0.7-0.6-1.6-0.1-2.1
		c0.5-0.5,1.4-0.4,1.9,0.3L247.2,342.3z"/>
	<path class="st7" d="M198.4,284.9c-0.5-0.6-0.5-1.4-0.1-1.8c0.4-0.4,1.1-0.3,1.6,0.3l21.4,27.1c0.5,0.6,0.5,1.4,0.1,1.8
		c-0.4,0.4-1.1,0.3-1.6-0.3L198.4,284.9z"/>
	<path class="st9" d="M242.9,285.3c0.4-0.6,0.5-1.4,0-1.8c-0.4-0.4-1.1-0.3-1.6,0.3L220,310.4c-0.5,0.6-0.5,1.4,0,1.8
		c0.4,0.4,1.1,0.3,1.6-0.2L242.9,285.3z"/>
	<path class="st7" d="M198.4,283.2c-0.5,0.6-0.5,1.4-0.1,1.8c0.4,0.4,1.1,0.3,1.6-0.3l21.4-27.1c0.5-0.6,0.5-1.4,0.1-1.8
		c-0.4-0.4-1.1-0.3-1.6,0.3L198.4,283.2z"/>
	<path class="st9" d="M242.9,282.9c0.4,0.6,0.5,1.4,0,1.8c-0.4,0.4-1.1,0.3-1.6-0.2L220,257.7c-0.5-0.6-0.5-1.4,0-1.8
		c0.4-0.4,1.1-0.3,1.6,0.2L242.9,282.9L242.9,282.9z"/>
	<path class="st7" d="M201.1,233.5c-0.4-0.5-0.4-1.2,0-1.6c0.4-0.4,1-0.3,1.4,0.2l18.8,23.9c0.4,0.5,0.4,1.2,0,1.6
		c-0.4,0.4-1,0.3-1.4-0.2L201.1,233.5z"/>
	<path class="st9" d="M240.3,233.8c0.4-0.5,0.4-1.2,0-1.6c-0.4-0.4-1-0.3-1.4,0.2l-18.9,23.5c-0.4,0.5-0.4,1.2,0,1.6
		c0.4,0.4,1,0.3,1.4-0.2L240.3,233.8L240.3,233.8z"/>
	<path class="st7" d="M201.1,232c-0.4,0.5-0.4,1.2,0,1.6c0.4,0.4,1,0.3,1.4-0.2l18.8-23.9c0.4-0.5,0.4-1.2,0-1.6
		c-0.4-0.4-1-0.3-1.4,0.2L201.1,232L201.1,232z"/>
	<path class="st9" d="M240.3,231.7c0.4,0.5,0.4,1.2,0,1.6c-0.4,0.4-1,0.3-1.4-0.2l-18.9-23.5c-0.4-0.5-0.4-1.2,0-1.6
		c0.4-0.4,1-0.3,1.4,0.2L240.3,231.7L240.3,231.7z"/>
	<path class="st7" d="M204.2,189.5c-0.3-0.4-0.4-1,0-1.3c0.3-0.3,0.8-0.2,1.2,0.2l15.8,20.1c0.3,0.4,0.4,1,0,1.3
		c-0.3,0.3-0.8,0.2-1.2-0.2L204.2,189.5z"/>
	<path class="st9" d="M237.1,189.7c0.3-0.4,0.3-1,0-1.3c-0.3-0.3-0.8-0.2-1.2,0.2l-15.8,19.8c-0.3,0.4-0.4,1,0,1.3
		c0.3,0.3,0.8,0.2,1.2-0.2L237.1,189.7z"/>
	<path class="st7" d="M204.2,188.2c-0.3,0.4-0.4,1,0,1.3c0.3,0.3,0.8,0.2,1.2-0.2l15.8-20.1c0.3-0.4,0.4-1,0-1.3
		c-0.3-0.3-0.8-0.2-1.2,0.2L204.2,188.2L204.2,188.2z"/>
	<path class="st9" d="M237.1,188c0.3,0.4,0.3,1,0,1.3c-0.3,0.3-0.8,0.2-1.2-0.2l-15.8-19.8c-0.3-0.4-0.4-1,0-1.3
		c0.3-0.3,0.8-0.2,1.2,0.2L237.1,188L237.1,188z"/>
	<path class="st7" d="M206.2,151.7c-0.3-0.4-0.3-0.9,0-1.2c0.3-0.3,0.7-0.2,1,0.2l13.9,17.7c0.3,0.4,0.3,0.9,0,1.2
		c-0.3,0.3-0.7,0.2-1-0.2L206.2,151.7L206.2,151.7z"/>
	<path class="st9" d="M235.2,151.9c0.3-0.4,0.3-0.9,0-1.2c-0.3-0.3-0.7-0.2-1,0.2l-14,17.4c-0.3,0.4-0.3,0.9,0,1.2
		c0.3,0.3,0.7,0.2,1-0.2L235.2,151.9z"/>
	<path class="st7" d="M206.2,150.6c-0.3,0.4-0.3,0.9,0,1.2c0.3,0.3,0.7,0.2,1-0.2l13.9-17.7c0.3-0.4,0.3-0.9,0-1.2
		c-0.3-0.3-0.7-0.2-1,0.2L206.2,150.6z"/>
	<path class="st9" d="M235.2,150.4c0.3,0.4,0.3,0.9,0,1.2c-0.3,0.3-0.7,0.2-1-0.2l-14-17.4c-0.3-0.4-0.3-0.9,0-1.2
		c0.3-0.3,0.7-0.2,1,0.2L235.2,150.4z"/>
	<path class="st7" d="M208.4,119c-0.2-0.3-0.3-0.8,0-1c0.2-0.2,0.6-0.2,0.9,0.1l11.8,15c0.2,0.3,0.3,0.8,0,1s-0.6,0.2-0.9-0.1
		L208.4,119z"/>
	<path class="st9" d="M233,119.2c0.2-0.3,0.3-0.8,0-1c-0.2-0.2-0.6-0.2-0.9,0.1l-11.8,14.8c-0.2,0.3-0.3,0.8,0,1
		c0.2,0.2,0.6,0.2,0.9-0.1L233,119.2z"/>
	<path class="st7" d="M208.4,118.1c-0.2,0.3-0.3,0.8,0,1c0.2,0.2,0.6,0.2,0.9-0.1l11.8-15c0.2-0.3,0.3-0.8,0-1
		c-0.2-0.2-0.6-0.2-0.9,0.1L208.4,118.1z"/>
	<path class="st9" d="M233,117.9c0.2,0.3,0.3,0.8,0,1c-0.2,0.2-0.6,0.2-0.9-0.1L220.3,104c-0.2-0.3-0.3-0.8,0-1
		c0.2-0.2,0.6-0.2,0.9,0.1L233,117.9z"/>
	<path class="st7" d="M209.8,90.9c-0.2-0.3-0.2-0.7,0-0.9c0.2-0.2,0.5-0.2,0.8,0.1l10.4,13.2c0.2,0.3,0.2,0.7,0,0.9
		c-0.2,0.2-0.5,0.2-0.8-0.1L209.8,90.9L209.8,90.9z"/>
	<path class="st9" d="M231.5,91.1c0.2-0.3,0.2-0.7,0-0.9c-0.2-0.2-0.6-0.2-0.8,0.1l-10.4,13c-0.2,0.3-0.2,0.7,0,0.9
		c0.2,0.2,0.6,0.2,0.8-0.1L231.5,91.1z"/>
	<path class="st7" d="M209.8,90.1c-0.2,0.3-0.2,0.7,0,0.9c0.2,0.2,0.5,0.2,0.8-0.1L221,77.6c0.2-0.3,0.2-0.7,0-0.9
		c-0.2-0.2-0.5-0.2-0.8,0.1L209.8,90.1L209.8,90.1z"/>
	<path class="st9" d="M231.5,89.9c0.2,0.3,0.2,0.7,0,0.9c-0.2,0.2-0.6,0.2-0.8-0.1l-10.4-13c-0.2-0.3-0.2-0.7,0-0.9
		c0.2-0.2,0.6-0.2,0.8,0.1L231.5,89.9z"/>
	<path class="st6" d="M207.1,77l0.8,0.9c0.2,0.2,0.2,0.6-0.1,0.8c-0.2,0.2-0.6,0.2-0.8-0.1l-0.8-0.9c-0.2,0.5-0.1,1,0.2,1.4
		c0.5,0.6,1.3,0.6,1.9,0.2s0.6-1.3,0.2-1.9C208.1,77,207.6,76.9,207.1,77z"/>
	<path class="st16" d="M214.6,87.4l-0.6-0.8c-0.2-0.2-0.1-0.5,0.1-0.7c0.2-0.2,0.5-0.1,0.7,0.1l0.6,0.8c0.2-0.4,0.1-0.8-0.2-1.2
		c-0.4-0.5-1.1-0.5-1.5-0.1c-0.5,0.4-0.5,1.1-0.1,1.5C213.8,87.4,214.2,87.5,214.6,87.4L214.6,87.4z"/>
	<path class="st16" d="M208.6,78.6l-1,0.8l5.7,6.7l1-0.8L208.6,78.6z"/>
	<path class="st10" d="M208.8,82.7c0-1.2,0.6-3.1,1.3-3c2.5,0.5,5.2,4,1.7,7.2c-0.3,0.9-0.6,0.7-1.2,1.5c0,0-1.2-0.5-1.2-0.5
		C208.8,87.4,208.7,84.4,208.8,82.7z"/>
	<path class="st18" d="M184.3,107.8c0.5,2.5,1.7,3.7,4.6,4c2.7,0.3,5.8-0.9,8.3-1.7c2.5-0.8,4.7-1.9,6.8-3.4c2-1.4,4-3.1,5.3-5.2
		c1.5-2.5,2-5.5,2.1-8.4c0-0.7,0.6-3.7,0.3-5.4c-0.1-0.6-0.6-0.8-1.5-0.9c-0.5-0.1-1-0.1-1.4,0.4c-1,1.5-2.4,4.8-2.7,5.8
		c-0.9,2.5-2.5,4.8-4.8,6.3c-2.3,1.4-4.4,1.3-7,2.2c-2.5,0.8-4.1,1.3-6.4,2.4c-0.5,0.3-1.9,1.1-2.5,1.9
		C184.8,106.6,184.3,107.8,184.3,107.8L184.3,107.8z"/>
	<path class="st10" d="M205.7,109.3c0.2-0.5,0.3-1,0.6-1.5c0.3-0.5,0.8-0.6,1.1-1c0.3-0.2,0.7-1.1,1.1-1c0.6,0.1,0.3,1,0.1,1.4
		c-0.3,0.4-0.8,0.6-0.9,1.2c-0.1,0.5,0.2,1.1,0.2,1.6c0,0.5,0,3-0.9,2.8c-0.4-0.1-0.6-1-0.7-1.3c-0.2-0.5-0.4-1-0.6-1.5
		c-0.1-0.1-0.1-0.2-0.2-0.3L205.7,109.3L205.7,109.3z"/>
	<path class="st15" d="M210.6,71.4c0,7.4-3.9,13.3-8.8,13.3c-4.8,0-8.8-6-8.8-13.3S197,58,201.8,58C206.7,58,210.6,64,210.6,71.4z"
		/>
	<path class="st15" d="M229,71.4c0,7.4-3.9,13.3-8.8,13.3c-4.8,0-8.8-6-8.8-13.3s3.9-13.3,8.8-13.3C225.1,58,229,64,229,71.4z"/>
	<path class="st15" d="M242.7,71.4c0,7.4-2.9,13.3-6.4,13.3s-6.4-6-6.4-13.3s2.9-13.3,6.4-13.3S242.7,64,242.7,71.4z"/>
	<path class="st16" d="M196.9,200.1C196.9,200.1,196.9,200.1,196.9,200.1c-0.2,0-0.3-0.2-0.3-0.3c0.1-1.3-0.2-2.4-0.6-3.5
		c-0.3-0.8-0.5-1.7-0.6-2.7c-0.1-1.2-0.3-2.4-0.5-3.6c-0.1-0.5-0.2-1-0.2-1.4c-0.1-0.7-0.2-1.4-0.4-2.1c-0.5-2.6-0.9-5-0.7-8
		c0.2-3.5,0.1-7.6-0.3-12.1c-0.2-2.3-0.9-5.1-1.6-8c-0.9-3.6-1.8-7.4-1.8-10.5c0-0.2,0.1-0.3,0.3-0.3c0.2,0,0.3,0.1,0.3,0.3
		c0,3,0.9,6.7,1.8,10.3c0.7,2.9,1.4,5.7,1.6,8.1c0.4,4.6,0.5,8.6,0.3,12.2c-0.2,2.9,0.2,5.2,0.7,7.8c0.1,0.7,0.2,1.4,0.4,2.1
		c0.1,0.5,0.2,1,0.2,1.4c0.2,1.2,0.4,2.4,0.5,3.6c0.1,1,0.4,1.8,0.6,2.6c0.4,1.2,0.7,2.3,0.6,3.7C197.2,200,197.1,200.1,196.9,200.1
		z"/>
	<path class="st17" d="M241.4,133.9c0,3.2-2,5.8-4.4,5.8h-1.5c-2.4,0-4.4-2.6-4.4-5.8V94.2c0-3.2,2-5.8,4.4-5.8h1.5
		c2.4,0,4.4,2.6,4.4,5.8V133.9z"/>
	<path class="st17" d="M219.2,88.4h2c3.2,0,5.8,2.6,5.8,5.8v39.7c0,3.2-2.6,5.8-5.8,5.8h-2c-3.2,0-5.8-2.6-5.8-5.8V94.2
		C213.4,91,216,88.4,219.2,88.4z"/>
	<path class="st19" d="M595.5,31.4h-21.4v4.9h21.4V31.4z"/>
	<path class="st19" d="M579.3,31.7c-0.2,0.8-1.2,1.4-2.3,1.2s-1.7-1-1.5-1.8l7-29.8c0.2-0.8,1.2-1.4,2.3-1.2c1.1,0.2,1.7,1,1.5,1.8
		L579.3,31.7L579.3,31.7z"/>
	<path class="st19" d="M587.1,1.3c-0.2-0.8-1.2-1.4-2.3-1.2c-1.1,0.2-1.7,1-1.5,1.8l7,29.8c0.2,0.8,1.2,1.4,2.3,1.2
		c1.1-0.2,1.7-1,1.5-1.8L587.1,1.3L587.1,1.3z"/>
	<path class="st20" d="M589.5,14.9c0,0.3-0.3,0.6-0.7,0.6h-7.6c-0.4,0-0.7-0.3-0.7-0.6s0.3-0.6,0.7-0.6h7.6
		C589.1,14.3,589.5,14.6,589.5,14.9z"/>
	<path class="st20" d="M590.6,20.5c0,0.3-0.4,0.6-0.9,0.6h-9.9c-0.5,0-0.9-0.3-0.9-0.6s0.4-0.6,0.9-0.6h9.9
		C590.2,19.9,590.6,20.2,590.6,20.5z"/>
	<path class="st20" d="M591.4,26.2c0,0.3-0.5,0.6-1.1,0.6h-11.6c-0.6,0-1.1-0.3-1.1-0.6c0-0.3,0.5-0.6,1.1-0.6h11.6
		C590.9,25.6,591.4,25.8,591.4,26.2z"/>
	<path class="st20" d="M592.9,31.8c0,0.3-0.6,0.6-1.4,0.6h-14.4c-0.8,0-1.4-0.3-1.4-0.6c0-0.3,0.6-0.6,1.4-0.6h14.4
		C592.2,31.2,592.9,31.5,592.9,31.8z"/>
	<path class="st9" d="M587.4,382.2c0,1.7-1.2,3-2.7,3c-1.5,0-2.7-1.4-2.7-3V32.9c0-1.7,1.2-3,2.7-3c1.5,0,2.7,1.3,2.7,3V382.2
		L587.4,382.2z"/>
	<path class="st9" d="M632.5,380.2c0.2,1.7-1,3-2.5,3c-1.5,0-2.9-1.3-3-3L595.4,32.9c-0.2-1.7,1-3,2.5-3c1.5,0,2.9,1.3,3,3
		L632.5,380.2z"/>
	<path class="st9" d="M537.2,382.2c-0.2,1.7,1,3,2.5,3s2.9-1.3,3-3l31.7-349.4c0.2-1.7-1-3-2.5-3c-1.5,0-2.9,1.3-3,3L537.2,382.2z"
		/>
	<path class="st7" d="M543,343.7c-0.9-0.8-0.9-1.9-0.1-2.4c0.8-0.6,2.1-0.4,3,0.4l40.7,36.6c0.9,0.8,0.9,1.9,0.1,2.4
		c-0.8,0.6-2.1,0.4-3-0.4L543,343.7z"/>
	<path class="st9" d="M627.7,344.2c0.9-0.8,0.9-1.8,0.1-2.4c-0.8-0.6-2.2-0.4-3,0.3l-40.8,36c-0.9,0.8-0.9,1.8-0.1,2.4
		c0.8,0.6,2.2,0.4,3-0.3L627.7,344.2z"/>
	<path class="st7" d="M543,341.4c-0.9,0.8-0.9,1.9-0.1,2.4c0.8,0.6,2.1,0.4,3-0.3l40.7-36.6c0.9-0.8,0.9-1.9,0.1-2.4s-2.1-0.4-3,0.4
		L543,341.4L543,341.4z"/>
	<path class="st9" d="M627.7,341c0.9,0.8,0.9,1.8,0.1,2.4c-0.8,0.6-2.2,0.4-3-0.3l-40.8-36c-0.9-0.8-0.9-1.8-0.1-2.4
		c0.8-0.6,2.2-0.4,3,0.3L627.7,341L627.7,341z"/>
	<path class="st7" d="M549.8,276c-0.7-0.6-0.8-1.6-0.1-2c0.7-0.5,1.8-0.4,2.5,0.3l34.2,30.7c0.7,0.6,0.8,1.6,0.1,2
		c-0.7,0.5-1.8,0.4-2.5-0.3L549.8,276L549.8,276z"/>
	<path class="st9" d="M620.9,276.4c0.7-0.6,0.8-1.5,0.1-2c-0.7-0.5-1.8-0.4-2.5,0.3l-34.2,30.2c-0.7,0.6-0.8,1.5-0.1,2
		s1.8,0.4,2.5-0.3L620.9,276.4z"/>
	<path class="st7" d="M549.8,274.1c-0.7,0.6-0.8,1.6-0.1,2c0.7,0.5,1.8,0.4,2.5-0.3l34.2-30.7c0.7-0.6,0.8-1.6,0.1-2
		c-0.7-0.5-1.8-0.4-2.5,0.3L549.8,274.1L549.8,274.1z"/>
	<path class="st9" d="M620.9,273.7c0.7,0.6,0.8,1.5,0.1,2c-0.7,0.5-1.8,0.4-2.5-0.3l-34.2-30.2c-0.7-0.6-0.8-1.5-0.1-2
		c0.7-0.5,1.8-0.4,2.5,0.3L620.9,273.7L620.9,273.7z"/>
	<path class="st7" d="M554.1,217.8c-0.6-0.6-0.7-1.4-0.1-1.8c0.6-0.4,1.6-0.3,2.2,0.3l30.1,27c0.6,0.6,0.7,1.4,0.1,1.8
		c-0.6,0.4-1.6,0.3-2.2-0.3L554.1,217.8L554.1,217.8z"/>
	<path class="st9" d="M616.7,218.1c0.6-0.6,0.7-1.4,0.1-1.8c-0.6-0.4-1.6-0.3-2.2,0.2l-30.1,26.6c-0.6,0.6-0.7,1.4-0.1,1.8
		c0.6,0.4,1.6,0.3,2.2-0.2L616.7,218.1L616.7,218.1z"/>
	<path class="st7" d="M554.1,216.1c-0.6,0.6-0.7,1.4-0.1,1.8c0.6,0.4,1.6,0.3,2.2-0.3l30.1-27c0.6-0.6,0.7-1.4,0.1-1.8
		c-0.6-0.4-1.6-0.3-2.2,0.3L554.1,216.1L554.1,216.1z"/>
	<path class="st9" d="M616.7,215.7c0.6,0.6,0.7,1.4,0.1,1.8c-0.6,0.4-1.6,0.3-2.2-0.2l-30.1-26.6c-0.6-0.6-0.7-1.4-0.1-1.8
		c0.6-0.4,1.6-0.3,2.2,0.2L616.7,215.7L616.7,215.7z"/>
	<path class="st7" d="M559.1,167.9c-0.5-0.5-0.6-1.2-0.1-1.5c0.5-0.4,1.3-0.3,1.9,0.2l25.3,22.7c0.5,0.5,0.6,1.2,0.1,1.5
		c-0.5,0.4-1.3,0.3-1.9-0.2L559.1,167.9z"/>
	<path class="st9" d="M611.7,168.2c0.5-0.5,0.6-1.1,0.1-1.5c-0.5-0.4-1.3-0.3-1.9,0.2l-25.3,22.4c-0.5,0.5-0.6,1.1-0.1,1.5
		c0.5,0.4,1.3,0.3,1.9-0.2L611.7,168.2z"/>
	<path class="st7" d="M559.1,166.5c-0.5,0.5-0.6,1.2-0.1,1.5c0.5,0.4,1.3,0.3,1.9-0.2l25.3-22.7c0.5-0.5,0.6-1.2,0.1-1.5
		c-0.5-0.4-1.3-0.3-1.9,0.2L559.1,166.5L559.1,166.5z"/>
	<path class="st9" d="M611.7,166.2c0.5,0.5,0.6,1.1,0.1,1.5c-0.5,0.4-1.3,0.3-1.9-0.2l-25.3-22.4c-0.5-0.5-0.6-1.1-0.1-1.5
		c0.5-0.4,1.3-0.3,1.9,0.2L611.7,166.2L611.7,166.2z"/>
	<path class="st7" d="M562.2,125.2c-0.5-0.4-0.5-1-0.1-1.3c0.4-0.3,1.2-0.2,1.6,0.2l22.3,20c0.5,0.4,0.5,1,0.1,1.3
		c-0.4,0.3-1.2,0.2-1.6-0.2L562.2,125.2L562.2,125.2z"/>
	<path class="st9" d="M608.6,125.4c0.5-0.4,0.5-1,0.1-1.3c-0.4-0.3-1.2-0.2-1.6,0.2L584.7,144c-0.5,0.4-0.5,1-0.1,1.3
		c0.4,0.3,1.2,0.2,1.6-0.2L608.6,125.4L608.6,125.4z"/>
	<path class="st7" d="M562.2,123.9c-0.5,0.4-0.5,1-0.1,1.3c0.4,0.3,1.2,0.2,1.6-0.2l22.3-20c0.5-0.4,0.5-1,0.1-1.3
		c-0.4-0.3-1.2-0.2-1.6,0.2L562.2,123.9L562.2,123.9z"/>
	<path class="st9" d="M608.6,123.6c0.5,0.4,0.5,1,0.1,1.3c-0.4,0.3-1.2,0.2-1.6-0.2l-22.3-19.7c-0.5-0.4-0.5-1-0.1-1.3
		c0.4-0.3,1.2-0.2,1.6,0.2L608.6,123.6L608.6,123.6z"/>
	<path class="st7" d="M565.8,88.2c-0.4-0.4-0.4-0.9,0-1.1c0.4-0.3,1-0.2,1.4,0.2l18.9,17c0.4,0.4,0.4,0.9,0,1.1
		c-0.4,0.3-1,0.2-1.4-0.2L565.8,88.2z"/>
	<path class="st9" d="M605,88.4c0.4-0.4,0.4-0.9,0-1.1c-0.4-0.3-1-0.2-1.4,0.2l-18.9,16.7c-0.4,0.4-0.4,0.9,0,1.1
		c0.4,0.3,1,0.2,1.4-0.2L605,88.4z"/>
	<path class="st7" d="M565.8,87.1c-0.4,0.4-0.4,0.9,0,1.1c0.4,0.3,1,0.2,1.4-0.2l18.9-17c0.4-0.4,0.4-0.9,0-1.1
		c-0.4-0.3-1-0.2-1.4,0.2L565.8,87.1z"/>
	<path class="st9" d="M605,86.9c0.4,0.4,0.4,0.9,0,1.1c-0.4,0.3-1,0.2-1.4-0.2l-18.9-16.7c-0.4-0.4-0.4-0.9,0-1.1
		c0.4-0.3,1-0.2,1.4,0.2L605,86.9z"/>
	<path class="st7" d="M568.1,56.3c-0.4-0.3-0.4-0.8,0-1c0.3-0.2,0.9-0.2,1.2,0.1l16.6,14.9c0.3,0.3,0.4,0.8,0,1
		c-0.3,0.2-0.9,0.2-1.2-0.1L568.1,56.3z"/>
	<path class="st9" d="M602.7,56.5c0.4-0.3,0.4-0.8,0-1c-0.3-0.2-0.9-0.2-1.2,0.1l-16.6,14.7c-0.4,0.3-0.4,0.8,0,1
		c0.3,0.2,0.9,0.2,1.2-0.1L602.7,56.5z"/>
	<path class="st7" d="M568.1,55.4c-0.4,0.3-0.4,0.8,0,1c0.3,0.2,0.9,0.2,1.2-0.1l16.6-14.9c0.3-0.3,0.4-0.8,0-1
		c-0.3-0.2-0.9-0.2-1.2,0.1L568.1,55.4z"/>
	<path class="st9" d="M602.7,55.2c0.4,0.3,0.4,0.8,0,1c-0.3,0.2-0.9,0.2-1.2-0.1l-16.6-14.7c-0.4-0.3-0.4-0.8,0-1
		c0.3-0.2,0.9-0.2,1.2,0.1L602.7,55.2L602.7,55.2z"/>
	<path class="st17" d="M615.1,105c0,3.6-2.5,6.6-5.5,6.6h-1.9c-3,0-5.5-3-5.5-6.6V60.1c0-3.6,2.5-6.6,5.5-6.6h1.9c3,0,5.5,3,5.5,6.6
		V105z"/>
	<path class="st17" d="M592.9,105c0,3.6-3.1,6.6-6.9,6.6h-2.4c-3.8,0-6.9-3-6.9-6.6V60.1c0-3.6,3.1-6.6,6.9-6.6h2.4
		c3.8,0,6.9,3,6.9,6.6V105z"/>
	<path class="st17" d="M566.2,105c0,3.6-2.5,6.6-5.6,6.6h-2c-3.1,0-5.6-3-5.6-6.6V60.1c0-3.6,2.5-6.6,5.6-6.6h2c3.1,0,5.6,3,5.6,6.6
		V105z"/>
	<path class="st15" d="M593.5,34.2c0,8.3-3.9,15.1-8.8,15.1c-4.8,0-8.8-6.8-8.8-15.1s3.9-15.1,8.8-15.1
		C589.6,19.1,593.5,25.9,593.5,34.2z"/>
	<path class="st15" d="M607.2,34.2c0,8.3-2.9,15.1-6.4,15.1c-3.5,0-6.4-6.8-6.4-15.1s2.9-15.1,6.4-15.1
		C604.4,19.1,607.2,25.9,607.2,34.2z"/>
	<path class="st15" d="M575.1,34.2c0,8.3-3.9,15.1-8.8,15.1c-4.8,0-8.8-6.8-8.8-15.1s3.9-15.1,8.8-15.1
		C571.2,19.1,575.1,25.9,575.1,34.2z"/>
	<path class="st18" d="M550.3,230.1h-75.5l-4.2,30.1c4.2-0.6,7.8-0.6,12.6-0.6c18.6,0,37.5,4.2,51.2,14.1
		c14.7,9.9,23.7,26.2,23.7,49c0,36.4-31.2,68.5-83.6,68.5c-23.7,0-43.5-5.4-54.2-11.1l-10.7-36.3l18.8,2c8.7,4.2,26.4,9.6,44.1,9.6
		c18.9,0,39-9,39-29.8c0-20.7-15.9-32.5-54.8-32.5c-10.8,0-18.3,0.6-26.4,1.8l-18.8-4.2l31.7-98.3l88.5-8.7l18.8,8.7V230.1z"/>
	<path class="st18" d="M762.5,379.2c-14.1,4.6-40.8,10.9-67.4,10.9c-36.9,0-63.5-8.9-82.1-26.1c-18.6-16.7-28.8-41.9-28.5-70.4
		c0.3-64.3,49.1-101.1,115.4-101.1c14.8,0,27.4-2.1,37.2,1.2c7.5,2.5,14.5,6.3,18.8,8.2l-9.6,35c-11.1-4.6-24.9-8.3-47.1-8.3
		c-38.1,0-66.8,20.7-66.8,62.6c0,41.9,26.1,63.5,63.5,63.5c10.5,0,18.9-1.1,22.5-2.9v-40.5h-31.2l-18.8-3.5l18.8-30.7l56.4-5l18.8,5
		L762.5,379.2L762.5,379.2z"/>
	<path class="st12" d="M505.5,326.2c9.3,1.4,18.2,0.8,27.3,1.4c2,0.2,4,0.4,6,0.6c0.3-2.8,0.5-5.6,0.5-8.4c0-23.8-9-40.8-23.7-51.1
		c-13.8-10.4-32.7-14.7-51.2-14.7c-4.8,0-8.4,0-12.6,0.6l4.2-31.4h75.5v-39.2H424.2l-12.9,107c8.1-1.3,15.6-1.9,26.4-1.9
		c39,0,54.8,12.9,54.8,33.9c0,1.2-0.1,2.3-0.2,3.4C496.8,326.3,501.1,325.6,505.5,326.2z"/>
	<path class="st12" d="M457.6,353.8c-1.3,0.1-2.7,0.1-4,0.1c-17.7,0-35.4-5.6-44.1-10l-8.1,35.8c10.8,6,30.6,11.6,54.2,11.6
		c2.4,0,4.7-0.1,7-0.2c-2.3-8.9-3.2-18-4.9-27.3C457.2,360.3,457.6,357.1,457.6,353.8L457.6,353.8z"/>
	<path class="st12" d="M538.8,328.2c-2-0.2-4-0.4-6-0.6c-9.2-0.6-18,0-27.3-1.4c-4.4-0.6-8.7,0.1-13.1,0
		c-1.8,17.8-18.2,26.4-34.8,27.6c-0.1,3.3-0.4,6.5,0.2,10c1.7,9.3,2.6,18.4,4.9,27.3C507.1,388.4,534.7,360.9,538.8,328.2
		L538.8,328.2z"/>
	<path class="st12" d="M743.7,378.7c-14.1,4.8-40.8,11.4-67.4,11.4c-36.9,0-63.5-9.3-82.1-27.3c-18.6-17.4-28.8-43.8-28.5-73.4
		c0.3-67.1,49.1-105.5,115.4-105.5c26.1,0,46.2,5.1,56,9.9l-9.6,36.6c-11.1-4.8-24.9-8.7-47.1-8.7c-38.1,0-66.8,21.6-66.8,65.3
		c0,43.8,26.1,66.2,63.5,66.2c10.5,0,18.9-1.2,22.5-3V308h-31.2v-35.7h75.2L743.7,378.7L743.7,378.7z"/>
	<path class="st21" d="M465,136.1c-7.2-0.2-10.1-10.7-10.1-10.7s2.2,0.6,4-1.1c0.7-0.7,1-2.8,1.1-3.8c0.1-0.4,0.1-0.7,0.1-1.1
		c0-0.9-0.1-1.6-0.1-1.7h9.2c0,0-0.4,0.9-0.4,2.3c0,0.4,0,0.8,0.1,1.3c0.2,1.2,0.7,2.7,0.7,2.8c0.4,2.4,1.9,1,1.9,1
		S472.3,136.3,465,136.1L465,136.1z"/>
	
		<linearGradient id="SVGID_1_" gradientUnits="userSpaceOnUse" x1="456.234" y1="295.6017" x2="472.496" y2="295.6017" gradientTransform="matrix(1 0 0 -1 0 402)">
		<stop  offset="0" style="stop-color:#121D33"/>
		<stop  offset="0.75" style="stop-color:#2B477C"/>
		<stop  offset="0.78" style="stop-color:#2B487E"/>
		<stop  offset="1" style="stop-color:#31518F"/>
	</linearGradient>
	<path class="st22" d="M468.9,100c-1.2-0.5-2.8-0.7-4.4-0.8c-1.6,0-3.2,0.2-4.4,0.8c-2.9,1.3-3.4,3.9-3.4,5.3c0,3.1,1.9,8.2,1.9,8.2
		h11.7c0,0,2-5.1,1.9-8.2C472.3,103.9,471.8,101.3,468.9,100L468.9,100z"/>
	<path class="st23" d="M468.9,117.8c0,0-0.4,0.8-0.4,2.2c-1,1.7-2.4,2.8-3.9,2.8c-1.7,0-3.2-1.3-4.2-3.3c0-0.8-0.1-1.5-0.1-1.6
		L468.9,117.8L468.9,117.8z"/>
	<path class="st21" d="M464.5,102c-6.9,0-6.3,4.3-6.3,9.6s2.8,9.6,6.3,9.6c3.5,0,6.3-4.3,6.3-9.6C470.9,106.4,471.8,102.1,464.5,102
		z"/>
	
		<linearGradient id="SVGID_00000047751500163689083260000015457250089596896935_" gradientUnits="userSpaceOnUse" x1="456.234" y1="296.6647" x2="472.497" y2="296.6647" gradientTransform="matrix(1 0 0 -1 0 402)">
		<stop  offset="0" style="stop-color:#121D33"/>
		<stop  offset="0.75" style="stop-color:#2B477C"/>
		<stop  offset="0.78" style="stop-color:#2B487E"/>
		<stop  offset="1" style="stop-color:#31518F"/>
	</linearGradient>
	<path style="fill:url(#SVGID_00000047751500163689083260000015457250089596896935_);" d="M469.4,101.8c-1.4-1.1-3.1-1.4-4.8-1.2
		c-1.7-0.2-3.5,0.1-4.8,1.2c-2.3,1.8-1.9,2.4-2.1,4.6l0.4,3.7c0.2-1.5,0.3-3.9,1.2-5.1c0.7-1,1.7-1,3.3-0.3c0.8,0.4,1.4,0.5,2,0.5
		c0.7,0,1.2-0.1,2-0.5c1.6-0.7,2.6-0.7,3.3,0.3c0.9,1.2,1,3.6,1.2,5.1l0.4-3.7C471.3,104.2,471.7,103.5,469.4,101.8L469.4,101.8z"/>
	<path class="st21" d="M456.9,108.9c-0.5,0.2-0.5,1.3-0.1,2.5c0.4,1.2,1.1,2.1,1.6,1.9c0.5-0.2,0.5-1.3,0.1-2.5
		C458,109.6,457.3,108.8,456.9,108.9L456.9,108.9z"/>
	<path class="st21" d="M472.3,111.4c0.4-1.2,0.4-2.3-0.1-2.5c-0.5-0.2-1.2,0.7-1.6,1.9c-0.4,1.2-0.4,2.3,0.1,2.5L472.3,111.4z"/>
	<path class="st25" d="M451.1,228.8c-1,2.9-2.7,5.1-4.3,7.7c-1,1.6-1.6,4.2,0.8,4.8c2.2,0.5,4.7-0.8,5.8-2.6c0.6-0.9,0.8-2,1.4-2.9
		c0.5-0.9,1.1-1.5,1.7-2.3c1.3-1.9,0.6-4.3,0.2-6.4c-1.7-0.2-3.5,0.9-5.2,0.3L451.1,228.8L451.1,228.8z"/>
	<path class="st25" d="M474.9,228.8c1,2.9,2.7,5.1,4.3,7.7c1,1.6,1.6,4.2-0.8,4.8c-2.2,0.5-4.7-0.8-5.8-2.6c-0.5-0.9-0.8-2-1.4-2.9
		c-0.5-0.9-1.1-1.5-1.7-2.3c-1.3-1.9-0.6-4.3-0.2-6.4c1.7-0.2,3.5,0.9,5.2,0.3L474.9,228.8L474.9,228.8z"/>
	<path class="st2" d="M449.8,174.8c0,0-8.1,5.2-8.3,12.6c-0.3,7.4,6.4,27.4,7.5,31.2c1.1,3.9,2.1,10.5,2.1,10.5s1.6,1.2,3.2,0.8
		c1.6-0.4,2.7-1.3,2.7-1.3s2-23.3,1.3-27.6c-0.7-4.2-0.9-7.8-0.9-7.8s1.9-7.7,6.1-8.3c1.3-0.2,2.9,0.5,3.9,1.6
		c1.1,1.1,4.3,7.1,4.3,7.1s-1.6,3.1-2.4,8c-0.8,5-0.1,27.2-0.1,27.5c0,0.3,1.2,1.4,3.1,1.3c1.8-0.1,2.4-0.7,2.8-1.7
		c0.6-1.4,8.4-26.8,9.7-31.5c1.2-4.7,2-7.8,1.2-10.7c-1.3-4.6-4.3-10.7-6.2-11.8C477.6,173.8,449.8,174.8,449.8,174.8z"/>
	<path class="st26" d="M481.8,130.6c-4.2-4.2-9-5.9-12.4-6.5c-0.7,2.5-2.8,4.3-5.3,4.3c-2.5,0-4.5-1.7-5.3-4.2
		c-3.4,0.7-7.7,2.4-11.6,6.3c-7.7,7.8-11.6,27.2-11.3,29c0.4,1.8,12.9,10.3,12.9,10.3l0.3-10.5l-2.4-4.5l3.4-8.8
		c0,0,1.2,12,1.3,13.3c0.1,1.3,2,14.1,2,14.1l11,1.2l11.1-1.2c0,0,1.9-12.8,2-14.1c0.1-1.3,1.3-13.5,1.3-13.5l3.5,8.9l-2.4,4.5
		l0.3,11.6c0,0,11.6-9.2,11.9-11C492.6,158.1,489.6,138.4,481.8,130.6L481.8,130.6z"/>
	<path class="st7" d="M447.3,155.1h33.5c0.4,0,0.7,0.3,0.7,0.7v20.8c0,0.4-0.3,0.7-0.7,0.7h-33.5c-0.4,0-0.7-0.3-0.7-0.7v-20.8
		C446.6,155.4,446.9,155.1,447.3,155.1z"/>
	<path class="st4" d="M419,392.1c-1.6,1.7-3.7,3.1-5.6,4.4c-0.8,0.6-5.1,1.7-5,2.6c0.2,1.6,7,0.6,7.9,0.2c1.1-0.4,2.2-1,3.4-1.5
		c0.1,1.1,0.8,1.3,1.6,0.5c0.6-0.6,0.8-1.9,1-2.7c0.6-2-0.5-3.3-2.6-3.1L419,392.1L419,392.1z"/>
	<path class="st4" d="M431.4,392.1c-1.6,1.7-3.7,3.1-5.6,4.4c-0.8,0.6-5.1,1.7-5,2.6c0.2,1.6,7,0.6,7.9,0.2c1.1-0.4,2.2-1,3.4-1.5
		c0.1,1.1,0.8,1.3,1.6,0.5c0.6-0.6,0.8-1.9,1-2.7c0.6-2-0.5-3.3-2.6-3.1L431.4,392.1L431.4,392.1z"/>
	<path class="st2" d="M474.8,314.5c-3.3-1.6-6-3.1-4.5-7c1.2-3.2,1.1-3.8-0.2-7.1c-1.1-2.9-1-3.8,0.9-6.3c2-2.5,2.1-3.5,1-6.5
		c-2.1-5.4,0.5-9.2,0.6-14.7c0.1-6.7,3.7-10,9.7-10.2c2.4-0.1,4.8,1.6,5.7,4.4c1.1,3.4,0.7,5.7,1.6,7.9c1,2.6,2.9,2.3,4.6,4.1
		c1.7,1.7,0.8,3.7,1.1,5.8c0.2,2.1,4.8,2,5.8,6.4c0.6,2.5-1.2,5.9,0.2,8.9c1.2,2.5,2.7,4.3,2.8,7.1c0,3.4-2.2,4.1-2.9,6.2
		c-0.9,2.6,0.3,3.9-2.5,6.9c-2.2,2.3-8.7,0.7-11.7,1.1c-2.3,0.3-5.7,2.1-7.7,0.3c-1.5-1.4-0.7-5.5-2.4-6.4
		C476.5,315,474.8,314.5,474.8,314.5L474.8,314.5z"/>
	<path class="st10" d="M488.1,289.1c-2,2.4-3.7,3.7-7,3.4c-2.4-0.2-5.2-0.6-6.9-2.5c-1.2-1.3-1.2-3,0.5-3.6c1.2-0.4,2-1,2.5-1.7
		c1.1-1.5,1-3.5,0.7-5.8l0.9-1.6c0.6-0.2,1.4-0.1,2.1-0.1c1,0,3.1-1.1,3.1-0.1c0,1-0.1,2.7-0.1,3.7c0,0.1,0,0.2,0,0.4
		c0,1.1,0,2.3,0.3,3.4C484.7,286.9,485.9,288.3,488.1,289.1L488.1,289.1z"/>
	<path class="st27" d="M483.9,279.1c-1.4,5-3.3,5.9-5,6.1c-0.6,0.1-1.2-0.1-1.7-0.5c1.1-1.5,1-3.5,0.7-5.8l0.9-1.6
		c0.6-0.2,1.4-0.1,2.1-0.1c1,0,3.1-1.1,3.1-0.1C483.9,278.3,483.9,278.1,483.9,279.1z"/>
	<path class="st10" d="M474.5,268.6c-0.5,3-1.4,6.2-0.5,9.3c0.6,1.9,1.8,6.1,4.4,5.7c2.4-0.3,5.4-3.7,5.9-7c0.6-3.2,0.9-7.1-0.9-9.8
		c-2.1-3.1-7.4-3-8.9,0.6L474.5,268.6L474.5,268.6z"/>
	<path class="st10" d="M446.5,338.1c0,0-6.1,3.4-8.8,5.9c-2.6,2.5-8.5,12.3-10.1,17s-9,29.8-8.7,31.9c0.2,2.1,1.9,2.4,3.4,0.8
		c1.5-1.6,5.2-8.2,6.5-10.4s8.2-12.6,9.5-16.6s3.6-10.9,5.1-12.9c1.5-2,12.1-3.6,13.2-3.8c1.1-0.2-2.1-9-3.1-10.5
		C452.5,338.1,446.5,338.1,446.5,338.1L446.5,338.1z"/>
	<path class="st10" d="M473.1,287c-5.2,2.8-6.4,8.3-8.2,13.6c-1.4,4.1-3.1,8.1-3.7,12.3c2,0.7,4.1,1.3,6.1,2.2c0.2-1.5,0.6-3,1-4.5
		c1.1-4.1,2.3-8.3,3.5-12.4c0.8-2.9,1.8-5.8,2.2-8.8c0.1-0.5,0.1-1,0.1-1.5L473.1,287L473.1,287z"/>
	<path class="st10" d="M455.3,342.9c0,0-5.9,2.2-8.8,7.2c-2.9,4.9-14.5,38.6-15.9,42.9c-0.9,2.7,2.7,2.7,4.1,1.5
		c1.5-1.4,3.4-4.7,8.7-11.3c5.3-6.7,11.4-13.8,11.9-19.7c0.5-5.9,1.1-8.1,2-9c1-0.9,5.4-2.7,5.4-2.7L455.3,342.9z"/>
	<path class="st28" d="M493.6,295.7c-0.2-1.9-1.4-6.5-3.1-7.3c-1.1-0.5-3.3-1.5-5.5-2.2c-0.5,1.3-2.1,2.6-3.5,3.2
		c-3,1.4-6.3-0.8-5-3.8c-2.2,0.6-3.9,0.9-5,3.2c-1.1,2.2-4.3,11.7-4.7,13.3c-0.3,1.3-0.1,3.4,1.5,6.2c1.6,2.7,1,7,0.5,9.4
		c-0.4,2.4-1,5.5-2.1,7.3s-11.9,4.1-23.7,15.1c0,0,5.5,1.1,7.8,2.5c2.2,1.4,5.5,5.3,6.3,7.1c0.7,1.8,1.6,3.9,1.6,3.9
		s10.2-0.8,13.2-1c3-0.2,12.8-3.6,15.6-6.8c2.8-3.2,4.8-11.6,4.3-16.9c-0.5-5.3-0.4-19.2,0.1-22.8
		C492.5,302.4,493.8,297.6,493.6,295.7L493.6,295.7z"/>
	<path class="st0" d="M475.2,335.4c-0.2,0.2-0.7,0.3-1,0.3H452c-0.3,0-0.4-0.1-0.2-0.3l9.1-7c0.2-0.2,0.7-0.3,1-0.3h22.2
		c0.3,0,0.4,0.1,0.2,0.3L475.2,335.4L475.2,335.4z"/>
	<path class="st10" d="M487.7,293.2c-0.1,1.6,0.8,5.5,0.9,8c0.2,2.5,2,13.2,1.6,13.7c-0.4,0.5-3.1,2.5-4,3.2
		c-0.9,0.7-7.2,4.6-8.4,5.1c-1.2,0.5-2.8,1-3.8,1.8c-1,0.8-1.8,2-2.4,3.9c-0.5,2,1.9,1,3.2,0.5c1.3-0.4,3.7-2.2,4.5-2.9
		c0.8-0.7,4-1.2,5.6-1.9c1.6-0.7,10.9-4.1,12.2-5.3c1.3-1.2,0.2-9.9,0-12.9c-0.2-3.1-2.5-13.9-3.4-15.3c-0.9-1.4-2.3-3.6-4.2-3.2
		C487.6,288.6,487.9,291.5,487.7,293.2L487.7,293.2z"/>
	<path class="st10" d="M483.4,275.9c0.2-0.5,0.4-1.2,1.1-1.2c0.5,0,0.7,0.4,0.7,0.8c0.1,0.5,0,1.1-0.3,1.5c-0.2,0.3-0.6,0.8-1,0.7
		c-0.5,0-0.4-0.8-0.5-1.2L483.4,275.9L483.4,275.9z"/>
	<path class="st10" d="M461.3,320c0.7,3.3,0.6,4.9,2.7,7.7c1.2,1.6,3.7,3.4,4.2,0.3c0.4-3.1-0.8-4-1.4-6.9c-0.4-1.9,0.3-4.1,0.6-5.9
		c-2-0.9-4.1-1.6-6.1-2.2C460.8,315.2,460.8,317.5,461.3,320L461.3,320z"/>
	<path class="st2" d="M473.1,273.3c1-0.3,4.1-1.9,4.5-2.9c0.4,1.8,2.4,3,4,3.6c1.5,0.5,3,1.3,4.2,2.4c2.4-3.7,2.1-8.7-1.3-11.7
		c-2.8-2.4-8.1-1.8-9.8,1.6c-0.9,1.7-1.3,3.3-1.1,5.2L473.1,273.3z"/>
	<path class="st0" d="M474.8,335.1c0.1,0.3-0.1,0.5-0.4,0.5h-22.9c-0.3,0-0.7-0.2-0.8-0.5l-5.4-15.4c-0.1-0.3,0.1-0.5,0.4-0.5h22.9
		c0.3,0,0.7,0.2,0.8,0.5L474.8,335.1L474.8,335.1z"/>
	<path class="st7" d="M619,378.1c-0.2,1.9-1.5,4.5,0,6c1.1,1.1,2.5,1.8,3.6,2.9c0.9,1,1.5,2.3,2.5,3.2c1.2,1.1,3.1,1.3,4.7,1.2
		c1.1-0.1,2.8-0.5,2.1-1.9c-0.6-1.1-2-1.5-2.9-2.2c-1-0.7-1.5-1.7-2-2.7c-0.7-1.3-1.4-2.7-1.7-4.1c-0.2-1.2,0-2.4,0.1-3.6
		c-2-0.1-4,0.3-6,0.3L619,378.1L619,378.1z"/>
	<path class="st7" d="M612.3,384c0.1,0.4,0.3,1.4,0.3,2.4c0,1.1-1,5,0,5.5c1,0.4,4.2,1.3,6,1.7c1.7,0.4,4.5,1.3,5.7,1.3
		c1.3-0.1,1.5,0.3,2-0.4c0.5-0.7,0.1-2.6-1.6-3.7c-1.7-1.1-4.8-4-5.9-5c-1.1-1.1-1.8-2.8-1.8-2.8L612.3,384L612.3,384z"/>
	<path class="st0" d="M618.6,293c0,0,0.8,3.8,1.4,5.2c0.6,1.4,8.7,14.1,10.9,17.5c2.1,3.3,8.8,17.5,9.5,20.8
		c0.7,3.3,0.8,6.2-1.1,9.6c-1.8,3.3-9.6,16.7-10.9,21.6c-1.3,4.9-3.2,10.9-3.2,10.9l-6.6,0.2c0,0,2.2-17.1,4-24.4
		c1.8-7.3,4.5-9.5,3.7-12c-1.2-4.2-10.7-17.2-11.4-17.2c-0.7,0-1.8,12.2-1.8,16.2c0,4,2,31.2,3,34.6c1,3.3,1.4,8.6,1.4,8.6l-5.1,1.1
		c0,0-5.7-13.3-7.2-16.9c-1.4-3.6-4.6-14-5.7-18.6c-1.1-4.6-2-15.6-2.3-21c-0.3-5.5-4.6-14.7-4.8-17.8c-0.2-3.1,0-19.8,0-19.8
		L618.6,293L618.6,293z"/>
	<path class="st10" d="M613.2,226.1c2,1.3,4.4,2.5,5.4,4.8c0.6,1.3,0.8,3.2,0.6,4.7c-0.3,1.6,0.3,1.5,0.8,3.1c0.2,0.5,1,1.6,0.7,2
		c-0.4,0.8-2.4,0.7-3.1,0.9c-0.6-1.1-1.3-1.9-2.2-2.8c-0.8-0.8-1.7-1.3-2-2.5c-0.2-1-0.2-2.1-0.4-3.2c-0.3-1.4-1.3-2.5-1.6-3.9
		c-0.3-1.4-0.1-2.3,1-3L613.2,226.1L613.2,226.1z"/>
	<path class="st25" d="M594,296c0,0,2.3,1.8,4.9,2.8c2.7,1,8.9,0.9,11.1,0.8c2.2-0.2,9.7-1.6,9.9-2.3c0.3-0.8,0-4.9,0-4.9
		s-8.9,1.1-12.3,1.3C604.4,294,594,296,594,296z"/>
	<path class="st29" d="M611,235.2C611,235.2,611,235.2,611,235.2L611,235.2L611,235.2z"/>
	<path class="st7" d="M611.2,222.1l-4.7,2.2c-0.4,0.2-0.5,0.7-0.3,1.1l5.3,11.2c0.2,0.3,0.4,0.5,0.7,0.6c0.1,0,0.2,0,0.4-0.1
		l4.7-2.2c0.4-0.2,0.5-0.7,0.3-1.1l-5.3-11.2C612.1,222.2,611.6,221.9,611.2,222.1z"/>
	<path class="st30" d="M609.7,223.5l-1.3,0.6c0,0,0,0.1,0,0.1c0,0,0.1,0.1,0.1,0l1.3-0.6C609.8,223.6,609.9,223.5,609.7,223.5
		C609.8,223.5,609.8,223.4,609.7,223.5L609.7,223.5z"/>
	<path class="st30" d="M611.8,223.1l-4.9,2.3c-0.1,0.1-0.2,0.2-0.1,0.4l4.9,10.3c0.1,0.1,0.2,0.2,0.3,0.2l4.9-2.3
		c0.1-0.1,0.2-0.2,0.1-0.4l-4.9-10.3C612.1,223.2,611.9,223.1,611.8,223.1z"/>
	<path class="st10" d="M600.3,231.3c0.5,2.8,0.9,8,0.3,10.6c-0.3,1.1-2.1,3.5-2.8,4c-1.1,0.8,4.7,5.4,6.5,6.9
		c0.9,0.7,2.2,1.6,3.3,1.9c0.8-2.4,3.5-3.4,4.4-5.7c0.6-1.5,0.9-2.8,1.7-4.2c-2.6-0.6-2.4-2.1-3.1-4.2c-0.8-2.4-1.1-4.9-1.8-7.3
		L600.3,231.3L600.3,231.3z"/>
	<path class="st10" d="M594.8,310.8c0,0,1.4,2.2,1.8,3.5c0.4,1.4,1.6,3.4,1.6,3.4l3.7-5.4c0,0-2.2-1.9-2.6-2.6
		c-0.4-0.8-1.2-1.5-1.2-1.5L594.8,310.8z"/>
	<path class="st28" d="M628.9,255.7c-0.7-1.4-6.9-10.5-8.3-11c-0.9-0.3-5.9-1.1-9.2-1.7c-0.3,0.8-0.3,1.4-1,2.6
		c-1.1,1.8-2.7,3.8-5.1,2.6c-1.2-0.6-4-2.9-5.4-4.9c-3.2,0.7-9.8,2.6-11.2,4.1c-3.1,3.2-8.7,19.4-10.1,25.1
		c-1.3,5.7-2.8,8.1-1.2,12.6c1.6,4.5,11.9,22.8,18.2,27.9c2.6-1.5,4.7-2.8,4.7-2.8s-5.7-13.1-5.8-13.4c0,0,2.9,0.4,8.4,0
		c5.5-0.4,11.9-1,13.9-1.2c2-0.2,3.8-0.7,4.8-2.3c1-1.5,0-4.3-1.2-6.3c-1.2-2-1.6-11.4-1.8-13c-0.3-1.9,0-7.8,0-7.8s7.7,5.6,8.6,5.9
		c0.8,0.2,2.9,0.5,4.6,0.4C633.4,272.2,629.6,257.2,628.9,255.7L628.9,255.7z"/>
	<path class="st31" d="M616.7,240.1l4-1.5c0,0,6.6,7.9,8.7,10.9c2.1,3,7.7,13.7,8.2,16.4c0.5,2.7-0.9,5.4-2,6.6
		c-1.2,1.2-6,0.4-7.1-0.2c-1.1-0.6-6.3-15.9-7-18.1C620.8,252,616.7,240.1,616.7,240.1L616.7,240.1z"/>
	<path class="st10" d="M598.5,224c1.1,3.5,1.3,7.4,2.8,10.7c1.3,2.9,5.3,6.2,8.6,3.8c2.7-2,1.9-6.7,1.8-9.5
		c-0.1-3.3,0.1-7.1-3.1-9.2c-3.7-2.3-8.1-1-10,2.7L598.5,224L598.5,224z"/>
	<path class="st7" d="M600.3,232c0,0-1.9-1.2-2.7-3c-0.8-1.8-0.8-6.6,0.4-8.5c1.2-1.9,4.1-2.8,5.4-3.2s6.4-1.2,7.8,0
		s2.5,1.6,1.9,3.6c-0.6,2-1.6,2.6-4.1,2.5s-7.6-0.7-7.6-0.7s1.1,1.1,0.8,3.1c-0.3,2-1.1,4.6-0.9,5C601.5,231.4,600.3,232,600.3,232
		L600.3,232z"/>
	<path class="st10" d="M601.4,230.2c-0.4-0.5-0.5-1.2-0.9-1.8c-0.4-0.5-0.6-0.8-1.4-0.5c-0.8,0.3-0.3,2.3,0.1,3c0.5,0.8,2,2,2.2,0.4
		c0.1-0.5-0.1-0.9-0.1-1.4L601.4,230.2L601.4,230.2z"/>
	<path class="st7" d="M612.1,234.5c0-0.1,0-0.2,0-0.2c0-0.6-0.2-1.1-0.2-1.6c0-0.3,0-0.6,0-0.9c0-0.3,0-0.5-0.1-0.7
		c-0.2,0-0.3,0.7-0.3,0.8c-0.1,0.3-0.3,0.9-0.7,0.8c-0.2-0.1-0.5-0.3-0.7-0.4c-0.2-0.1-0.5-0.2-0.7-0.3c-0.5-0.2-1-0.2-1.5-0.2
		c-1,0-2,0.5-2.8,1.1c-1.9,1.5-3.1-1.1-3.6-2.9c-0.1,0-0.2,0-0.2,0c-0.2,0.8,0.2,2.8,0.5,3.6c0.3,1,0.3,2.4,0.8,3.6
		c0.4,1.2,2.7,3.3,4.4,3.5c4.4,0.6,5.8-0.9,5.6-3.4C612.4,236.4,612.4,235.4,612.1,234.5z"/>
	<path class="st10" d="M606.2,233.9c0.9-1,2.6-1.4,3.7-0.5c0.6,0.5,0.4,0.8-0.2,1.1c-0.7,0.3-1.4,0.3-2.2,0.3c-0.5,0-1.3,0-1.5-0.6
		L606.2,233.9L606.2,233.9z"/>
	<path class="st25" d="M594.5,297.2c-0.2,0-0.3-0.1-0.4-0.3c-0.2-0.6-5.3-13.5-5.1-16.1c0.2-2.5,4.4-17.4,4.6-18.1
		c0.1-0.2,0.3-0.4,0.6-0.3c0.2,0.1,0.4,0.3,0.3,0.6c0,0.2-4.4,15.5-4.5,17.9c-0.1,2,3.6,12,5,15.7c0.1,0.2,0,0.5-0.3,0.6
		C594.6,297.2,594.6,297.2,594.5,297.2z"/>
	<path class="st12" d="M538.8,328.2c-2-0.2-4-0.4-6-0.6c-9.2-0.6-18,0-27.3-1.4c-4.4-0.6-8.7,0.1-13.1,0
		c-1.8,17.8-18.2,26.4-34.8,27.6c-0.1,3.3-0.4,6.5,0.2,10c1.7,9.3,2.6,18.4,4.9,27.3C507.1,388.4,534.7,360.9,538.8,328.2
		L538.8,328.2z"/>
        <g class="wifi">
            <path class="st32" d="M175.6,79.3c-0.1,0.2-0.3,0.4-0.5,0.5c-0.9,0.7-2.1,0.5-2.8-0.4c-2.6-3.4-3.7-7.6-3.1-11.9
                c0.6-4.2,2.8-8,6.2-10.6c0.9-0.7,2.1-0.5,2.8,0.4c0.7,0.9,0.5,2.1-0.4,2.8c-2.6,1.9-4.2,4.8-4.6,8c-0.4,3.2,0.4,6.4,2.3,8.9
                C176,77.7,176,78.6,175.6,79.3L175.6,79.3z"/>
            <path class="st32" d="M169.4,83.9c-0.1,0.2-0.3,0.4-0.5,0.5c-0.9,0.7-2.1,0.5-2.8-0.4c-7.9-10.4-5.9-25.4,4.6-33.3
                c0.9-0.7,2.1-0.5,2.8,0.4c0.7,0.9,0.5,2.1-0.4,2.8c-8.7,6.6-10.4,19-3.8,27.7C169.8,82.4,169.9,83.3,169.4,83.9z"/>
            <path class="st32" d="M163.4,88.5c-0.1,0.2-0.3,0.4-0.5,0.5c-0.9,0.7-2.1,0.5-2.8-0.4c-10.4-13.7-7.7-33.4,6-43.8
                c0.9-0.7,2.1-0.5,2.8,0.4c0.7,0.9,0.5,2.1-0.4,2.8c-12,9.1-14.3,26.2-5.2,38.2C163.9,86.9,163.9,87.8,163.4,88.5z"/>
        </g>
        <g class="wifi">
            <path class="st32" d="M259.4,79.3c0.1,0.2,0.3,0.4,0.5,0.5c0.9,0.7,2.1,0.5,2.8-0.4c2.6-3.4,3.7-7.6,3.1-11.9
                c-0.6-4.2-2.8-8-6.2-10.6c-0.9-0.7-2.1-0.5-2.8,0.4c-0.7,0.9-0.5,2.1,0.4,2.8c2.6,1.9,4.2,4.8,4.6,8c0.4,3.2-0.4,6.4-2.3,8.9
                C259,77.7,259,78.6,259.4,79.3L259.4,79.3z"/>
            <path class="st32" d="M265.5,83.9c0.1,0.2,0.3,0.4,0.5,0.5c0.9,0.7,2.1,0.5,2.8-0.4c7.9-10.4,5.9-25.4-4.6-33.3
                c-0.9-0.7-2.1-0.5-2.8,0.4c-0.7,0.9-0.5,2.1,0.4,2.8c8.7,6.6,10.4,19,3.8,27.7C265.1,82.4,265.1,83.3,265.5,83.9z"/>
            <path class="st32" d="M271.5,88.5c0.1,0.2,0.3,0.4,0.5,0.5c0.9,0.7,2.1,0.5,2.8-0.4c10.4-13.7,7.7-33.4-6-43.8
                c-0.9-0.7-2.1-0.5-2.8,0.4c-0.7,0.9-0.5,2.1,0.4,2.8c12,9.1,14.3,26.2,5.2,38.2C271.1,86.9,271.1,87.8,271.5,88.5z"/>
        </g>
        <g class="wifi">
            <path class="st32" d="M540.1,59.7c-0.1,0.2-0.3,0.4-0.5,0.5c-0.9,0.7-2.1,0.5-2.8-0.4c-2.6-3.4-3.7-7.6-3.1-11.9
                c0.6-4.2,2.8-8,6.2-10.6c0.9-0.7,2.1-0.5,2.8,0.4c0.7,0.9,0.5,2.1-0.4,2.8c-2.6,1.9-4.2,4.8-4.6,8c-0.4,3.2,0.4,6.4,2.3,8.9
                C540.5,58.1,540.5,59,540.1,59.7L540.1,59.7z"/>
            <path class="st32" d="M533.9,64.3c-0.1,0.2-0.3,0.4-0.5,0.5c-0.9,0.7-2.1,0.5-2.8-0.4c-7.9-10.4-5.9-25.4,4.6-33.3
                c0.9-0.7,2.1-0.5,2.8,0.4c0.7,0.9,0.5,2.1-0.4,2.8c-8.7,6.6-10.4,19-3.8,27.7C534.4,62.7,534.4,63.6,533.9,64.3z"/>
            <path class="st32" d="M528,68.9c-0.1,0.2-0.3,0.4-0.5,0.5c-0.9,0.7-2.1,0.5-2.8-0.4c-10.4-13.7-7.7-33.4,6-43.8
                c0.9-0.7,2.1-0.5,2.8,0.4c0.7,0.9,0.5,2.1-0.4,2.8c-12,9.1-14.3,26.2-5.2,38.2C528.4,67.3,528.4,68.2,528,68.9z"/>
        </g>
        <g class="wifi">
            <path class="st32" d="M623.9,59.7c0.1,0.2,0.3,0.4,0.5,0.5c0.9,0.7,2.1,0.5,2.8-0.4c2.6-3.4,3.7-7.6,3.1-11.9
                c-0.6-4.2-2.8-8-6.2-10.6c-0.9-0.7-2.1-0.5-2.8,0.4c-0.7,0.9-0.5,2.1,0.4,2.8c2.6,1.9,4.2,4.8,4.6,8c0.4,3.2-0.4,6.4-2.3,8.9
                C623.5,58.1,623.5,59,623.9,59.7L623.9,59.7z"/>
            <path class="st32" d="M630,64.3c0.1,0.2,0.3,0.4,0.5,0.5c0.9,0.7,2.1,0.5,2.8-0.4c7.9-10.4,5.9-25.4-4.6-33.3
                c-0.9-0.7-2.1-0.5-2.8,0.4c-0.7,0.9-0.5,2.1,0.4,2.8c8.7,6.6,10.4,19,3.8,27.7C629.6,62.7,629.6,63.6,630,64.3z"/>
            <path class="st32" d="M636,68.9c0.1,0.2,0.3,0.4,0.5,0.5c0.9,0.7,2.1,0.5,2.8-0.4c10.4-13.7,7.7-33.4-6-43.8
                c-0.9-0.7-2.1-0.5-2.8,0.4c-0.7,0.9-0.5,2.1,0.4,2.8c12,9.1,14.3,26.2,5.2,38.2C635.6,67.3,635.6,68.2,636,68.9z"/>
        </g>
        <g class="drone">
            <path class="st16" d="M351.6,53.7c0,0.3-0.3,0.5-0.6,0.5h-3.9c-0.3,0-0.6-0.2-0.6-0.5v-1.9c0-0.3,0.3-0.5,0.6-0.5h3.9
                c0.3,0,0.6,0.2,0.6,0.5V53.7z"/>
            <path class="st15" d="M353.1,57.4c0,0.5-0.4,0.9-0.9,0.9H346c-0.5,0-0.9-0.4-0.9-0.9V54c0-0.5,0.4-0.9,0.9-0.9h6.2
                c0.5,0,0.9,0.4,0.9,0.9V57.4z"/>
            <path class="st16" d="M346.9,55.7c0-1.2,0.9-2.1,2.1-2.1c1.2,0,2.1,0.9,2.1,2.1c0,1.2-0.9,2.1-2.1,2.1
                C347.8,57.8,346.9,56.9,346.9,55.7z"/>
            <path class="st33" d="M350.7,55.7c0-0.9-0.7-1.7-1.6-1.7c-0.9,0-1.7,0.7-1.7,1.6c0,0.9,0.7,1.7,1.6,1.7
                C349.9,57.4,350.6,56.7,350.7,55.7z"/>
            <path class="st6" d="M356.7,51c0,0.6-0.7,1.1-1.7,1.1h-11.4c-0.9,0-1.7-0.5-1.7-1.1v-4.1c0-0.6,0.7-1.1,1.7-1.1H355
                c0.9,0,1.7,0.5,1.7,1.1V51z"/>
            <path class="st15" d="M356.9,47.2C356.9,47.3,356.9,47.3,356.9,47.2c0,4.3-4,2.4-8.3,2.4s-7.2,1.9-7.3-2.4v-0.1c0-0.3,0-0.5,0-0.8
                c0.4-3.9,3.7-7,7.7-7c4,0,7.3,3.1,7.7,7C356.8,46.7,356.9,47,356.9,47.2L356.9,47.2z"/>
            <path class="st15" d="M331,73c-0.7-0.1-1.4-0.3-2-0.4c1.9-9.5,7.3-18,15-23.9c0.4,0.6,0.8,1.1,1.3,1.7C337.9,55.9,332.8,64,331,73
                z"/>
            <path class="st15" d="M367.2,73c0.7-0.1,1.4-0.3,2-0.4c-1.9-9.5-7.3-18-15-23.9c-0.4,0.6-0.8,1.1-1.3,1.7
                C360.3,55.9,365.3,64,367.2,73z"/>
            <path class="st15" d="M363.3,47.2h-28.5v4.6h28.5V47.2z"/>
            <path class="st16" d="M356.9,47.2C356.9,47.3,356.9,47.3,356.9,47.2l-15.6,0.1v-0.1c0-0.3,0-0.5,0-0.8h15.5
                C356.8,46.7,356.9,47,356.9,47.2L356.9,47.2z"/>
            <path class="st14" d="M306.1,35.2h9.7l-2.6,1.1h-2L306.1,35.2z"/>
            <path class="st14" d="M316.7,35.2h-6.6v0.5h6.6V35.2z"/>
            <path class="st14" d="M331.9,35.2h-9.7l2.6,1.1h2L331.9,35.2z"/>
            <path class="st14" d="M328,35.2h-6.6v0.5h6.6V35.2z"/>
            <path class="st14" d="M320,34.9c0,0.2-0.1,0.3-0.3,0.3h-1.5c-0.2,0-0.3-0.1-0.3-0.3c0-0.2,0.1-0.3,0.3-0.3h1.5
                C319.9,34.6,320,34.8,320,34.9z"/>
            <path class="st15" d="M338,48.3l-2.6,3.5h-0.6l0,0l-13.3-10v-2.4l14.5,7.8L338,48.3z"/>
            <path class="st14" d="M321.5,44.1c0,0.9-0.6,1.7-1.4,1.7h-2.2c-0.8,0-1.4-0.7-1.4-1.7V40c0-0.9,0.6-1.7,1.4-1.7h2.2
                c0.8,0,1.4,0.7,1.4,1.7V44.1z"/>
            <path class="st14" d="M321.5,42.1c0,0.9-0.6,1.7-1.4,1.7h-2.2c-0.8,0-1.4-0.7-1.4-1.7V38c0-0.9,0.6-1.7,1.4-1.7h2.2
                c0.8,0,1.4,0.7,1.4,1.7V42.1z"/>
            <path class="st15" d="M322,36.9h-6v7.8h6V36.9z"/>
            <path class="st15" d="M321.8,36c0,0.3-0.3,0.5-0.6,0.5h-4.5c-0.3,0-0.6-0.2-0.6-0.5v-0.6c0-0.3,0.3-0.5,0.6-0.5h4.5
                c0.3,0,0.6,0.2,0.6,0.5V36z"/>
            <path class="st14" d="M392,35.2h-9.7l2.6,1.1h2L392,35.2z"/>
            <path class="st14" d="M388.1,35.2h-6.6v0.5h6.6V35.2z"/>
            <path class="st14" d="M366.2,35.2h9.7l-2.6,1.1h-2L366.2,35.2z"/>
            <path class="st14" d="M376.7,35.2h-6.6v0.5h6.6V35.2z"/>
            <path class="st14" d="M378.1,34.9c0,0.2,0.1,0.3,0.3,0.3h1.5c0.2,0,0.3-0.1,0.3-0.3c0-0.2-0.1-0.3-0.3-0.3h-1.5
                C378.3,34.6,378.1,34.8,378.1,34.9z"/>
            <path class="st15" d="M360.1,48.3l2.6,3.5h0.6l0,0l13.3-10v-2.4l-14.5,7.8L360.1,48.3z"/>
            <path class="st14" d="M376.6,44.1c0,0.9,0.6,1.7,1.4,1.7h2.2c0.8,0,1.4-0.7,1.4-1.7V40c0-0.9-0.6-1.7-1.4-1.7H378
                c-0.8,0-1.4,0.7-1.4,1.7V44.1z"/>
            <path class="st14" d="M376.6,42.1c0,0.9,0.6,1.7,1.4,1.7h2.2c0.8,0,1.4-0.7,1.4-1.7V38c0-0.9-0.6-1.7-1.4-1.7H378
                c-0.8,0-1.4,0.7-1.4,1.7V42.1z"/>
            <path class="st15" d="M382.1,36.9h-6v7.8h6V36.9z"/>
            <path class="st15" d="M376.4,36c0,0.3,0.3,0.5,0.6,0.5h4.5c0.3,0,0.6-0.2,0.6-0.5v-0.6c0-0.3-0.3-0.5-0.6-0.5H377
                c-0.3,0-0.6,0.2-0.6,0.5V36z"/>
        </g>
</g>
</svg>
