<svg width="774" height="328" viewBox="0 0 774 328" fill="none" xmlns="http://www.w3.org/2000/svg">
<g clip-path="url(#clip0_56_16332)">
<path d="M756.105 111.469C756.807 110.959 757.162 110.096 757.014 109.238L752.138 80.8561L772.802 60.7549C773.426 60.1478 773.649 59.2433 773.379 58.4171C773.109 57.5909 772.394 56.99 771.535 56.8649L742.977 52.7244L730.206 26.9024C729.821 26.1232 729.027 25.6318 728.155 25.6318C727.283 25.6318 726.49 26.1263 726.104 26.9024L713.334 52.7244L684.776 56.8649C683.913 56.99 683.198 57.5909 682.932 58.4171C682.662 59.2433 682.888 60.1509 683.509 60.7549L704.173 80.8561L699.296 109.238C699.149 110.092 699.503 110.959 700.206 111.469C700.908 111.98 701.843 112.048 702.614 111.642L728.158 98.2408L753.703 111.642C754.038 111.817 754.402 111.904 754.766 111.904C755.239 111.904 755.713 111.757 756.111 111.469H756.105Z" fill="#FFC306"/>
<path d="M701.545 112.415C701.99 112.415 702.435 112.308 702.846 112.092L728.152 98.8168L753.458 112.092C754.383 112.577 755.553 112.493 756.4 111.88C757.265 111.251 757.692 110.205 757.51 109.154L752.677 81.0346L773.153 61.1181C773.922 60.3733 774.191 59.2779 773.859 58.2608C773.526 57.2437 772.664 56.5176 771.604 56.3643L743.309 52.2614L730.655 26.6773C730.181 25.7196 729.222 25.125 728.149 25.125C727.076 25.125 726.117 25.7196 725.643 26.6773L712.989 52.2614L684.694 56.3643C683.634 56.5176 682.772 57.2437 682.439 58.2608C682.107 59.2779 682.38 60.3733 683.145 61.1181L703.618 81.0346L698.785 109.154C698.603 110.208 699.03 111.251 699.895 111.88C700.384 112.233 700.958 112.415 701.535 112.415H701.545ZM728.155 97.6714L702.376 111.197C701.774 111.513 701.056 111.463 700.504 111.063C699.952 110.662 699.682 109.999 699.795 109.326L704.719 80.681L683.863 60.3952C683.374 59.9195 683.201 59.2216 683.411 58.5769C683.622 57.9291 684.174 57.4659 684.848 57.3689L713.669 53.1909L726.559 27.1279C726.86 26.5177 727.472 26.139 728.155 26.139C728.839 26.139 729.447 26.5177 729.752 27.1279L742.641 53.1909L771.463 57.3689C772.137 57.4659 772.689 57.9291 772.899 58.5769C773.109 59.2247 772.937 59.9226 772.451 60.3952L751.595 80.681L756.519 109.326C756.635 109.996 756.362 110.662 755.81 111.063C755.271 111.454 754.524 111.507 753.938 111.197L728.158 97.6714H728.155Z" fill="#FFC306"/>
<path d="M752.649 58.7365L741.13 57.0653C740.386 56.9589 739.74 56.4894 739.408 55.8166L728.155 33.0615L716.903 55.8166C716.57 56.4894 715.927 56.9557 715.181 57.0653L690.016 60.7143L707.312 77.5389C726.154 76.431 742.569 69.2393 752.649 58.7365Z" fill="#FFDB00"/>
<path d="M649.264 91.4695C649.966 90.9593 650.321 90.0956 650.173 89.2381L645.297 60.8561L665.961 40.7549C666.585 40.1478 666.808 39.2433 666.538 38.4171C666.268 37.5909 665.553 36.99 664.694 36.8649L636.136 32.7244L623.365 6.90244C622.98 6.12318 622.186 5.63184 621.314 5.63184C620.442 5.63184 619.649 6.12631 619.263 6.90244L606.493 32.7244L577.935 36.8649C577.072 36.99 576.357 37.5909 576.091 38.4171C575.821 39.2433 576.047 40.1509 576.668 40.7549L597.332 60.8561L592.455 89.2381C592.308 90.0924 592.659 90.9593 593.365 91.4695C594.067 91.9796 595.002 92.0484 595.773 91.6416L621.317 78.2408L646.862 91.6416C647.197 91.8168 647.561 91.9045 647.925 91.9045C648.398 91.9045 648.872 91.7574 649.27 91.4695H649.264Z" fill="#FFC306"/>
<path d="M594.704 92.4147C595.149 92.4147 595.595 92.3083 596.005 92.0924L621.311 78.8168L646.617 92.0924C647.542 92.5775 648.712 92.493 649.559 91.8796C650.424 91.2506 650.851 90.2053 650.669 89.1537L645.836 61.0346L666.309 41.1181C667.077 40.3733 667.347 39.2779 667.015 38.2608C666.682 37.2437 665.82 36.5176 664.76 36.3643L636.465 32.2614L623.811 6.67727C623.337 5.71962 622.377 5.125 621.305 5.125C620.232 5.125 619.276 5.71962 618.799 6.67727L606.145 32.2614L577.85 36.3643C576.79 36.5176 575.928 37.2437 575.595 38.2608C575.263 39.2779 575.535 40.3733 576.301 41.1181L596.774 61.0346L591.941 89.1537C591.759 90.2084 592.185 91.2506 593.051 91.8796C593.54 92.2332 594.114 92.4147 594.691 92.4147H594.704ZM621.314 77.6714L595.535 91.1974C594.933 91.5134 594.215 91.4634 593.663 91.0628C593.111 90.6622 592.841 89.9987 592.954 89.3259L597.878 60.681L577.022 40.3952C576.533 39.9195 576.36 39.2216 576.57 38.5769C576.781 37.9291 577.333 37.4659 578.007 37.3689L606.828 33.1909L619.718 7.12793C620.019 6.51766 620.631 6.13898 621.314 6.13898C621.998 6.13898 622.606 6.51766 622.911 7.12793L635.8 33.1909L664.622 37.3689C665.296 37.4659 665.848 37.9291 666.058 38.5769C666.268 39.2247 666.096 39.9226 665.61 40.3952L644.754 60.681L649.678 89.3259C649.794 89.9956 649.521 90.6622 648.969 91.0628C648.43 91.454 647.683 91.5072 647.097 91.1974L621.317 77.6714H621.314Z" fill="#FFC306"/>
<path d="M645.808 38.7365L634.289 37.0653C633.545 36.9589 632.899 36.4894 632.567 35.8166L621.314 13.0615L610.062 35.8166C609.729 36.4894 609.086 36.9557 608.34 37.0653L583.175 40.7143L600.471 57.5389C619.313 56.431 635.728 49.2393 645.808 38.7365Z" fill="#FFDB00"/>
<path d="M542.424 111.469C543.127 110.959 543.481 110.096 543.334 109.238L538.457 80.8561L559.121 60.7549C559.746 60.1478 559.968 59.2433 559.699 58.4171C559.429 57.5909 558.714 56.99 557.854 56.8649L529.296 52.7244L516.526 26.9024C516.14 26.1232 515.347 25.6318 514.475 25.6318C513.603 25.6318 512.809 26.1263 512.424 26.9024L499.653 52.7244L471.095 56.8649C470.233 56.99 469.518 57.5909 469.251 58.4171C468.981 59.2433 469.207 60.1509 469.828 60.7549L490.492 80.8561L485.616 109.238C485.468 110.092 485.823 110.959 486.525 111.469C487.228 111.98 488.162 112.048 488.934 111.642L514.478 98.2408L540.022 111.642C540.358 111.817 540.722 111.904 541.085 111.904C541.559 111.904 542.032 111.757 542.431 111.469H542.424Z" fill="#FFC306"/>
<path d="M487.864 112.415C488.31 112.415 488.755 112.308 489.166 112.092L514.472 98.8168L539.778 112.092C540.703 112.577 541.873 112.493 542.719 111.88C543.585 111.251 544.011 110.205 543.83 109.154L538.997 81.0346L559.47 61.1181C560.238 60.3733 560.508 59.2779 560.175 58.2608C559.846 57.2437 558.98 56.5176 557.92 56.3643L529.626 52.2614L516.971 26.6773C516.498 25.7196 515.538 25.125 514.465 25.125C513.393 25.125 512.433 25.7196 511.96 26.6773L499.305 52.2614L471.011 56.3643C469.951 56.5176 469.088 57.2437 468.756 58.2608C468.423 59.2779 468.696 60.3733 469.461 61.1181L489.934 81.0346L485.101 109.154C484.919 110.205 485.346 111.251 486.212 111.88C486.701 112.233 487.275 112.415 487.852 112.415H487.864ZM514.475 97.6714L488.695 111.197C488.09 111.513 487.375 111.463 486.823 111.063C486.271 110.662 486.001 109.996 486.114 109.326L491.038 80.681L470.183 60.3952C469.693 59.9195 469.521 59.2216 469.731 58.5769C469.941 57.9291 470.493 57.4659 471.167 57.3689L499.989 53.1909L512.879 27.1279C513.18 26.5177 513.791 26.139 514.475 26.139C515.159 26.139 515.767 26.5177 516.071 27.1279L528.961 53.1909L557.782 57.3689C558.457 57.4659 559.009 57.9291 559.219 58.5769C559.429 59.2247 559.256 59.9226 558.77 60.3952L537.915 80.681L542.838 109.326C542.955 109.996 542.682 110.662 542.13 111.063C541.59 111.454 540.844 111.507 540.257 111.197L514.478 97.6714H514.475Z" fill="#FFC306"/>
<path d="M538.968 58.7365L527.449 57.0653C526.706 56.9589 526.06 56.4894 525.727 55.8166L514.475 33.0615L503.222 55.8166C502.89 56.4894 502.247 56.9557 501.5 57.0653L476.336 60.7143L493.632 77.5389C512.474 76.431 528.889 69.2393 538.968 58.7365Z" fill="#FFDB00"/>
<path d="M313.035 159.097C313.737 158.587 314.092 157.724 313.944 156.866L309.068 128.484L329.732 108.383C330.356 107.776 330.579 106.871 330.309 106.045C330.039 105.219 329.324 104.618 328.465 104.493L299.907 100.352L287.136 74.5304C286.75 73.7511 285.957 73.2598 285.085 73.2598C284.213 73.2598 283.42 73.7542 283.034 74.5304L270.264 100.352L241.705 104.493C240.843 104.618 240.128 105.219 239.861 106.045C239.592 106.871 239.818 107.779 240.438 108.383L261.103 128.484L256.226 156.866C256.079 157.72 256.433 158.587 257.136 159.097C257.838 159.608 258.773 159.676 259.544 159.27L285.088 145.869L310.632 159.27C310.968 159.445 311.332 159.532 311.696 159.532C312.169 159.532 312.643 159.385 313.041 159.097H313.035Z" fill="#FFC306"/>
<path d="M258.478 160.043C258.923 160.043 259.369 159.936 259.779 159.72L285.085 146.445L310.391 159.72C311.316 160.205 312.486 160.121 313.333 159.508C314.198 158.878 314.625 157.833 314.443 156.782L309.61 128.663L330.083 108.746C330.852 108.001 331.121 106.906 330.789 105.889C330.456 104.872 329.594 104.146 328.534 103.992L300.239 99.8894L287.585 74.3052C287.111 73.3475 286.152 72.7529 285.079 72.7529C284.006 72.7529 283.047 73.3475 282.573 74.3052L269.919 99.8894L241.624 103.992C240.564 104.146 239.702 104.872 239.369 105.889C239.037 106.906 239.31 108.001 240.075 108.746L260.548 128.663L255.715 156.782C255.533 157.833 255.96 158.878 256.825 159.508C257.314 159.861 257.888 160.043 258.465 160.043H258.478ZM285.088 145.299L259.309 158.825C258.704 159.141 257.989 159.091 257.437 158.691C256.885 158.29 256.615 157.624 256.728 156.954L261.652 128.309L240.796 108.023C240.307 107.547 240.134 106.85 240.344 106.205C240.555 105.557 241.107 105.094 241.781 104.997L270.602 100.819L283.492 74.7558C283.793 74.1456 284.405 73.7669 285.088 73.7669C285.772 73.7669 286.38 74.1456 286.685 74.7558L299.574 100.819L328.396 104.997C329.07 105.094 329.622 105.557 329.832 106.205C330.042 106.853 329.87 107.551 329.384 108.023L308.528 128.309L313.452 156.954C313.568 157.624 313.295 158.29 312.743 158.691C312.204 159.082 311.457 159.135 310.871 158.825L285.091 145.299H285.088Z" fill="#FFC306"/>
<path d="M309.579 106.364L298.06 104.693C297.316 104.587 296.67 104.117 296.338 103.445L285.085 80.6895L273.833 103.445C273.5 104.117 272.857 104.584 272.111 104.693L246.946 108.342L264.242 125.167C283.084 124.059 299.499 116.867 309.579 106.364Z" fill="#FFDB00"/>
<path d="M235.286 53.5184C235.286 53.5184 252.833 45.0874 254.46 45.0874C256.088 45.0874 279.484 42.8185 287.284 38.9253C295.083 35.0321 297.034 26.2787 296.059 22.0632C295.083 17.8477 290.859 16.2266 290.859 16.2266L269.282 20.1416C269.282 20.1416 266.312 18.9242 260.962 19.4688C255.43 20.0321 214.816 27.8998 210.915 27.8998C207.013 27.8998 196.617 28.5476 186.866 37.952C177.116 47.3563 154.369 67.7861 145.271 72.6494C136.173 77.5128 122.847 84.9737 116.672 95.0258C110.497 105.078 79.3016 147.884 76.3756 151.126C73.4495 154.369 64.6776 167.015 64.6776 167.015L75.4002 181.934L168.667 88.2159L232.037 58.0563L235.286 53.5153V53.5184Z" fill="#F49F7D"/>
<path d="M261.934 24.983C261.934 24.983 267.134 19.7941 266.808 15.5786C266.481 11.3631 265.509 5.84882 260.309 5.201C255.11 4.55318 243.735 9.74199 243.735 9.74199C239.836 11.3631 222.936 16.5519 222.936 16.5519C209.936 21.4153 192.389 26.6041 181.663 31.1451C170.941 35.6861 161.517 43.4693 157.941 48.0071C154.366 52.5481 140.394 71.0313 136.167 76.5456C131.942 82.0599 127.718 90.491 127.718 90.491L156.317 78.8177L261.934 24.9861V24.983Z" fill="#F49F7D"/>
<path d="M192.794 33.8085C192.794 33.8085 203.115 18.8179 201.49 10.7124C199.866 2.6068 196.617 0.334739 191.74 0.0123938C186.866 -0.313081 185.891 5.84903 183.94 9.41673C181.99 12.9844 171.59 22.7111 165.418 31.1453C159.243 39.5763 142.345 56.1161 134.872 69.0881C127.398 82.0601 117.974 95.0322 118.949 97.9489C119.925 100.869 192.797 33.8117 192.797 33.8117L192.794 33.8085Z" fill="#F49F7D"/>
<path d="M49.5706 257.97C49.5706 257.97 103.024 241.28 116.349 241.28C129.675 241.28 159.895 231.876 169.969 226.361C180.042 220.847 197.915 215.01 210.265 212.094C222.616 209.174 243.089 203.337 251.86 199.769C260.636 196.202 270.709 189.069 278.182 188.419C285.656 187.771 292.157 185.176 293.133 178.366C294.108 171.556 285.333 162.8 277.533 160.206C269.734 157.611 244.061 160.853 234.963 165.394C225.865 169.935 204.739 174.799 196.617 172.852C188.491 170.905 186.543 163.448 183.943 158.259C181.343 153.07 178.744 147.061 176.47 143.168C174.196 139.278 175.171 136.358 175.171 136.358C175.171 136.358 179.722 122.588 180.697 120.316C181.673 118.047 188.171 113.181 190.122 107.992C192.072 102.803 193.866 100.465 196.466 99.8144C199.066 99.1665 207.998 91.1267 212.545 86.5888C217.096 82.0478 219.043 79.7789 219.043 79.7789C219.043 79.7789 250.565 74.9156 253.165 73.2944C253.165 73.2944 269.31 73.1755 277.458 73.3915C287.679 73.6637 290.536 71.3479 290.536 71.3479C290.536 71.3479 294.434 69.4013 296.062 63.8901C297.686 58.3758 296.388 55.7814 291.511 55.4591C286.638 55.1336 275.263 54.4858 274.287 53.5125C273.312 52.5392 246.664 47.028 237.24 46.7025C227.815 46.3771 214.816 44.756 208.641 47.9982C202.466 51.2404 174.519 72.3212 163.144 78.1578C151.769 83.9944 137.471 90.1565 130.973 97.2919C124.475 104.427 102.051 133.288 96.5255 141.394C90.9995 149.499 23.6343 188.084 23.6343 188.084C23.6343 188.084 33.6482 243.371 49.5706 257.964V257.97Z" fill="#F49F7D"/>
<path d="M181.503 15.7416C181.503 15.7416 183.128 17.6882 186.377 16.3895C189.626 15.0938 194.826 8.60624 194.826 7.95842C194.826 7.3106 192.875 2.12179 190.602 1.14849C188.328 0.1752 187.051 3.03249 186.39 4.52216C185.728 6.01183 184 9.65151 183.401 10.9127C182.802 12.1739 179.879 13.7951 181.503 15.7416Z" fill="#FFB69E"/>
<path d="M239.347 14.7681C239.347 14.7681 242.596 18.6581 248.445 18.0103C254.294 17.3625 258.845 15.4159 259.494 14.7681C260.143 14.1203 260.469 7.63269 260.469 6.98487C260.469 6.33705 259.82 5.03829 259.171 4.71594C258.522 4.39047 254.46 5.5265 249.261 7.47308C245.585 8.85009 239.858 10.7059 239.115 11.7668C238.372 12.8246 238.698 13.7979 239.347 14.7712V14.7681Z" fill="#FFB69E"/>
<path d="M269.787 21.1806C269.787 21.1806 272.823 23.847 278.995 24.4948C285.17 25.1426 289.068 24.8203 289.068 24.8203C289.068 24.8203 291.342 22.2259 291.994 20.6048C292.643 18.9836 291.627 16.2359 291.627 16.2359C291.019 16.3892 291.662 15.7602 289.065 16.2359C286.468 16.7116 271.989 19.0932 271.135 19.3248C270.493 19.4969 268.162 19.885 269.787 21.1806Z" fill="#FFB69E"/>
<path d="M267.62 190.531C267.62 190.531 265.02 190.856 264.694 187.289C264.368 183.721 263.395 177.559 265.669 175.29C267.943 173.021 276.718 169.128 278.669 168.806C280.619 168.483 284.518 170.427 287.117 175.615C289.717 180.804 289.391 182.425 288.416 184.372C287.441 186.319 286.857 187.217 285.524 187.414C284.191 187.614 269.567 191.182 267.617 190.531H267.62Z" fill="#FFB69E"/>
<path d="M260.89 18.89C258.597 19.1591 250.528 20.6081 241.188 22.2855C228.7 24.5263 213.154 27.3179 210.911 27.3179C201.973 27.3179 193.286 30.945 186.455 37.5359C176.373 47.2626 153.855 67.4013 144.989 72.1395C137.936 75.9106 130.914 79.9916 125.196 84.7328C132.366 79.6285 140.742 75.7353 145.544 73.1691C154.51 68.3746 177.144 48.142 187.271 38.3746C196.19 29.7715 205.912 28.4852 210.911 28.4852C213.257 28.4852 228.204 25.8032 241.395 23.4341C250.33 21.8286 258.769 20.3139 261.028 20.051C264.396 19.6536 267.545 19.9196 269.351 20.1606C267.021 19.3281 263.869 18.5426 260.893 18.89H260.89Z" fill="#DA6856"/>
<path d="M157.483 47.6445C155.16 50.5957 148.351 59.5588 142.878 66.763C139.824 70.7845 137.186 74.2552 135.706 76.1893C135.508 76.4459 135.558 76.812 135.816 77.0061C135.922 77.0874 136.048 77.125 136.17 77.125C136.346 77.125 136.521 77.0468 136.634 76.8966C138.118 74.9625 140.755 71.4887 143.81 67.4672C149.279 60.2692 156.085 51.3093 158.402 48.3675C162.263 43.4666 171.806 35.9525 181.867 31.69L198.307 24.999L181.434 30.6041C171.167 34.951 161.429 42.6278 157.48 47.6445H157.483Z" fill="#DA6856"/>
<path d="M231.384 45.8325C222.989 45.3536 213.471 44.8091 208.365 47.4911C205.762 48.8587 199.405 53.309 192.044 58.4602C181.99 65.4986 169.479 74.2583 162.871 77.6476C160.729 78.7461 158.534 79.832 156.207 80.9837C146.215 85.9253 135.885 91.0358 130.534 96.9069C130.318 97.1447 130.334 97.514 130.575 97.7331C130.688 97.8333 130.829 97.8833 130.967 97.8833C131.127 97.8833 131.284 97.8176 131.4 97.6924C136.6 91.9841 146.83 86.9236 156.725 82.029C159.055 80.8773 161.256 79.7882 163.405 78.6835C170.082 75.2566 182.629 66.4719 192.712 59.4148C200.041 54.2854 206.367 49.8539 208.904 48.5239C213.725 45.9921 223.067 46.5272 231.312 46.9998C233.392 47.1187 235.355 47.2314 237.211 47.294C239.241 47.3628 243.195 47.4974 247.689 47.8854C243.597 46.9747 239.332 46.1986 237.252 46.1266C235.408 46.064 233.451 45.9514 231.381 45.8325H231.384Z" fill="#DA6856"/>
<path d="M275.096 54.9798C275.096 54.9798 279.647 57.8997 283.872 59.1953C288.096 60.4909 288.422 61.1419 290.047 60.4909C291.671 59.84 295.262 59.0576 295.579 57.6681C295.896 56.2754 295.764 56.2066 293.23 55.4304C290.696 54.6543 281.921 54.0065 279.321 54.0065C276.721 54.0065 273.795 53.681 275.096 54.9798Z" fill="#FFB69E"/>
<path d="M8.47724 182.285C20.3038 175.202 63.1942 161.842 63.1942 161.842L98.9561 269.509L58.9415 285.36L8.47724 182.285Z" fill="white"/>
<path d="M245.033 75.341C249.198 74.5211 252.403 73.7731 253.159 73.3005C253.159 73.3005 269.304 73.1816 277.452 73.3976C287.673 73.6698 290.53 71.354 290.53 71.354C290.53 71.354 294.428 69.4074 296.056 63.8962C296.413 62.6851 296.629 61.6148 296.695 60.6759C292.414 60.6039 288.065 60.0875 283.74 59.4022C269.135 57.2146 252.334 62.2688 245.033 75.3379V75.341Z" fill="#F49F7D"/>
<path d="M435.716 91.4695C436.418 90.9593 436.772 90.0956 436.625 89.2381L431.748 60.8561L452.413 40.7549C453.037 40.1478 453.259 39.2433 452.99 38.4171C452.72 37.5909 452.005 36.99 451.146 36.8649L422.588 32.7244L409.817 6.90244C409.431 6.12318 408.638 5.63184 407.766 5.63184C406.894 5.63184 406.101 6.12631 405.715 6.90244L392.944 32.7244L364.386 36.8649C363.524 36.99 362.809 37.5909 362.542 38.4171C362.273 39.2433 362.498 40.1509 363.119 40.7549L383.784 60.8561L378.907 89.2381C378.759 90.0924 379.114 90.9593 379.816 91.4695C380.519 91.9796 381.453 92.0484 382.225 91.6416L407.769 78.2408L433.313 91.6416C433.649 91.8168 434.013 91.9045 434.376 91.9045C434.85 91.9045 435.324 91.7574 435.722 91.4695H435.716Z" fill="#FFC306"/>
<path d="M381.155 92.4147C381.601 92.4147 382.046 92.3083 382.457 92.0924L407.763 78.8168L433.069 92.0924C433.994 92.5775 435.164 92.493 436.01 91.8796C436.876 91.2506 437.303 90.2053 437.121 89.1537L432.288 61.0346L452.761 41.1181C453.529 40.3733 453.799 39.2779 453.466 38.2608C453.137 37.2437 452.272 36.5176 451.212 36.3643L422.917 32.2614L410.262 6.67727C409.789 5.71962 408.829 5.125 407.757 5.125C406.684 5.125 405.724 5.71962 405.251 6.67727L392.596 32.2614L364.302 36.3643C363.242 36.5176 362.379 37.2437 362.047 38.2608C361.714 39.2779 361.987 40.3733 362.752 41.1181L383.225 61.0346L378.393 89.1537C378.211 90.2053 378.637 91.2506 379.503 91.8796C379.992 92.2332 380.566 92.4147 381.143 92.4147H381.155ZM407.766 77.6714L381.987 91.1974C381.381 91.5134 380.666 91.4634 380.114 91.0628C379.562 90.6622 379.293 89.9956 379.406 89.3259L384.329 60.681L363.474 40.3952C362.984 39.9195 362.812 39.2216 363.022 38.5769C363.232 37.9291 363.784 37.4659 364.458 37.3689L393.28 33.1909L406.17 7.12793C406.471 6.51766 407.082 6.13898 407.766 6.13898C408.45 6.13898 409.058 6.51766 409.362 7.12793L422.252 33.1909L451.073 37.3689C451.748 37.4659 452.3 37.9291 452.51 38.5769C452.72 39.2247 452.548 39.9226 452.061 40.3952L431.206 60.681L436.13 89.3259C436.246 89.9956 435.973 90.6622 435.421 91.0628C434.881 91.454 434.135 91.5072 433.549 91.1974L407.769 77.6714H407.766Z" fill="#FFC306"/>
<path d="M432.26 38.7365L420.74 37.0653C419.997 36.9589 419.351 36.4894 419.019 35.8166L407.766 13.0615L396.513 35.8166C396.181 36.4894 395.538 36.9557 394.792 37.0653L369.627 40.7143L386.923 57.5389C405.765 56.431 422.18 49.2393 432.26 38.7365Z" fill="#FFDB00"/>
<path d="M48.5481 162.424L85.5237 296.1L4.57764e-05 328V172.846C23.0949 167.704 48.5513 162.424 48.5513 162.424H48.5481Z" fill="#004E7C"/>
</g>
<defs>
<clipPath id="clip0_56_16332">
<rect width="774" height="328" fill="white" transform="matrix(-1 0 0 1 774 0)"/>
</clipPath>
</defs>
</svg>
