<svg width="529" height="455" viewBox="0 0 529 455" fill="none" xmlns="http://www.w3.org/2000/svg">
<g clip-path="url(#clip0_120_11526)">
<g style="mix-blend-mode:multiply">
<path d="M135.402 248.256C146.667 248.256 155.8 243.356 155.8 237.311C155.8 231.267 146.667 226.367 135.402 226.367C124.136 226.367 115.003 231.267 115.003 237.311C115.003 243.356 124.136 248.256 135.402 248.256Z" fill="#E8EEFA"/>
</g>
<path d="M135.402 238.577C134.31 238.577 133.418 237.686 133.418 236.594V208.581C133.418 207.489 134.31 206.598 135.402 206.598C136.495 206.598 137.387 207.489 137.387 208.581V236.594C137.387 237.686 136.495 238.577 135.402 238.577Z" fill="#004E7C"/>
<path d="M153.408 181.405C153.55 180.34 153.626 179.254 153.626 178.14C153.626 173.075 152.093 168.424 149.537 164.777C149.891 163.315 150.081 161.772 150.081 160.18C150.081 150.763 143.508 143.128 135.407 143.128C127.307 143.128 120.734 150.763 120.734 160.18C120.734 161.772 120.924 163.315 121.277 164.777C118.722 168.424 117.189 173.07 117.189 178.14C117.189 179.248 117.265 180.34 117.406 181.405C112.926 185.226 110.159 190.464 110.159 196.246C110.159 207.94 121.468 217.417 135.413 217.417C149.358 217.417 160.666 207.94 160.666 196.246C160.666 190.464 157.899 185.226 153.419 181.405H153.408Z" fill="#42A5F5"/>
<path d="M153.408 181.406C153.55 180.341 153.626 179.254 153.626 178.14C153.626 173.075 152.093 168.424 149.537 164.777C149.891 163.316 150.081 161.772 150.081 160.18C150.081 153.078 146.34 146.992 141.029 144.427C135.402 179.482 151.696 195.409 127.203 216.26C129.775 216.999 132.531 217.406 135.407 217.406C149.352 217.406 160.661 207.929 160.661 196.235C160.661 190.453 157.894 185.215 153.414 181.395L153.408 181.406Z" fill="#2D94E8"/>
<path d="M528.456 82.8532L487.887 62.2744" stroke="#E7F4FA" stroke-width="2" stroke-linecap="round" stroke-linejoin="round"/>
<path d="M406.374 67.6814L365.805 47.1026L366.18 0.543457L406.749 21.1223L406.374 67.6814Z" stroke="#E7F4FA" stroke-width="2" stroke-linecap="round" stroke-linejoin="round"/>
<path d="M446.943 88.26L406.374 67.6812L406.749 21.1221L447.318 41.7009L446.943 88.26Z" stroke="#E7F4FA" stroke-width="2" stroke-linecap="round" stroke-linejoin="round"/>
<path d="M528.081 129.412L487.512 108.839L487.887 62.2744L528.456 82.8532L528.081 129.412Z" stroke="#E7F4FA" stroke-width="2" stroke-linecap="round" stroke-linejoin="round"/>
<path d="M365.805 47.1025L365.43 93.6616" stroke="#E7F4FA" stroke-width="2" stroke-linecap="round" stroke-linejoin="round"/>
<path d="M446.568 134.819L405.999 114.24L406.374 67.6812L446.943 88.26L446.568 134.819Z" stroke="#E7F4FA" stroke-width="2" stroke-linecap="round" stroke-linejoin="round"/>
<path d="M487.136 155.398L446.567 134.819L446.943 88.2603L487.511 108.839L487.136 155.398Z" stroke="#E7F4FA" stroke-width="2" stroke-linecap="round" stroke-linejoin="round"/>
<path d="M527.7 175.977L487.137 155.398L487.512 108.839L528.081 129.412L527.7 175.977Z" stroke="#E7F4FA" stroke-width="2" stroke-linecap="round" stroke-linejoin="round"/>
<path d="M365.43 93.6616L365.055 140.226" stroke="#E7F4FA" stroke-width="2" stroke-linecap="round" stroke-linejoin="round"/>
<path d="M405.624 160.8L365.055 140.226L365.43 93.6616L405.999 114.24L405.624 160.8Z" stroke="#E7F4FA" stroke-width="2" stroke-linecap="round" stroke-linejoin="round"/>
<path d="M446.193 181.378L405.624 160.799L405.999 114.24L446.568 134.819L446.193 181.378Z" stroke="#E7F4FA" stroke-width="2" stroke-linecap="round" stroke-linejoin="round"/>
<path d="M486.756 201.957L446.192 181.378L446.568 134.819L487.136 155.398L486.756 201.957Z" stroke="#E7F4FA" stroke-width="2" stroke-linecap="round" stroke-linejoin="round"/>
<path d="M527.325 222.536L486.756 201.957L487.136 155.398L527.7 175.977L527.325 222.536Z" stroke="#E7F4FA" stroke-width="2" stroke-linecap="round" stroke-linejoin="round"/>
<path d="M203.643 452.799L14.7821 354.35C7.99161 350.812 8.93216 344.264 16.8752 339.732L277.137 191.094C285.08 186.557 297.019 185.747 303.81 189.285L492.671 287.734C499.462 291.271 498.521 297.819 490.578 302.351L230.316 450.989C222.373 455.527 210.434 456.337 203.643 452.794V452.799Z" fill="#E6E6E6"/>
<path d="M500.153 263.248C499.457 262.574 498.609 261.949 497.554 261.401L302.772 159.865C295.769 156.213 283.455 157.05 275.262 161.729L6.83398 315.029C5.91517 315.557 5.09966 316.111 4.36026 316.681L0 318.676L0.0869878 324.697C0.429502 326.767 1.93004 328.68 4.67559 330.109L199.458 431.645C206.46 435.296 218.774 434.459 226.967 429.781L495.39 276.486C499.642 274.057 501.93 271.068 502.186 268.248L502.23 263.444L500.153 263.254V263.248Z" fill="#004E7C"/>
<path d="M199.463 426.824L4.68133 325.289C-2.32119 321.637 -1.35345 314.888 6.83972 310.209L275.262 156.914C283.455 152.235 295.77 151.404 302.772 155.05L497.554 256.586C504.557 260.237 503.589 266.987 495.396 271.665L226.973 424.96C218.78 429.639 206.466 430.471 199.463 426.824Z" fill="#BBDEFB"/>
<path d="M211.494 410.566L24.2314 312.948L293.334 163.098L480.602 260.71L211.494 410.566Z" fill="white"/>
<path d="M211.494 410.566L24.2314 312.948L293.334 163.098L480.602 260.71L211.494 410.566Z" stroke="#004E7C" stroke-linecap="round" stroke-linejoin="round"/>
<path d="M434.297 223.775L427.893 220.438C435.439 216.232 435.439 209.635 427.893 205.701L393.212 187.622C385.66 183.688 373.422 183.905 365.876 188.106L361.576 185.861C353.719 181.764 340.981 181.992 333.12 186.367C325.264 190.741 325.264 197.61 333.12 201.707L405.841 239.615C413.697 243.712 426.436 243.484 434.297 239.11C442.153 234.735 442.153 227.867 434.297 223.769V223.775Z" fill="#4E4E4E"/>
<path d="M434.297 217.988L427.893 214.651C435.439 210.445 435.439 203.848 427.893 199.914L393.212 181.835C385.66 177.901 373.422 178.118 365.876 182.318L361.576 180.074C353.719 175.977 340.981 176.205 333.12 180.58C325.264 184.954 325.264 191.823 333.12 195.92L405.841 233.828C413.697 237.925 426.436 237.697 434.297 233.323C442.153 228.948 442.153 222.08 434.297 217.982V217.988Z" fill="#A6A8A9"/>
<path d="M414.426 216.983L361.331 188.481C359.45 187.47 359.401 184.943 361.238 183.808C362.179 183.226 363.375 183.188 364.337 183.699L417.433 212.201C419.314 213.211 419.363 215.738 417.525 216.874C416.584 217.455 415.388 217.499 414.426 216.983Z" fill="white"/>
<path d="M372.753 266.481C372.34 266.481 371.916 266.383 371.525 266.177L320.349 239.126C319.06 238.447 318.571 236.855 319.25 235.567C319.93 234.279 321.523 233.79 322.812 234.469L373.988 261.52C375.276 262.199 375.765 263.791 375.086 265.079C374.613 265.97 373.699 266.481 372.753 266.481Z" fill="#E7F4FA"/>
<path d="M389.309 294.554C388.901 294.554 388.482 294.456 388.091 294.255L301.571 249.163C300.282 248.489 299.782 246.897 300.451 245.609C301.125 244.321 302.718 243.821 304.006 244.49L390.527 289.582C391.815 290.255 392.315 291.848 391.647 293.136C391.174 294.038 390.26 294.554 389.309 294.554Z" fill="#E7F4FA"/>
<path d="M274.006 233.643L240.581 216.113L273.892 197.518L307.317 215.048L274.006 233.643Z" fill="#0984F0"/>
<path d="M266.65 209.223L264.247 218.787L287.897 216.325" stroke="white" stroke-width="5.42" stroke-linecap="round" stroke-linejoin="round"/>
<path d="M298.39 307.253C297.977 307.253 297.553 307.155 297.161 306.949L245.985 279.898C244.697 279.219 244.208 277.627 244.887 276.339C245.567 275.051 247.16 274.562 248.448 275.241L299.624 302.292C300.913 302.971 301.402 304.563 300.722 305.851C300.249 306.742 299.336 307.253 298.39 307.253Z" fill="#E7F4FA"/>
<path d="M314.945 335.325C314.537 335.325 314.118 335.227 313.727 335.026L227.207 289.935C225.918 289.261 225.418 287.669 226.087 286.381C226.761 285.093 228.354 284.593 229.642 285.261L316.162 330.353C317.451 331.027 317.951 332.619 317.282 333.907C316.809 334.809 315.896 335.325 314.945 335.325Z" fill="#E7F4FA"/>
<path d="M192.281 249.994L189.884 259.558L213.534 257.096" stroke="white" stroke-width="5.42" stroke-linecap="round" stroke-linejoin="round"/>
<path d="M224.026 348.025C223.613 348.025 223.189 347.927 222.798 347.72L171.627 320.669C170.338 319.99 169.849 318.398 170.529 317.11C171.208 315.822 172.801 315.333 174.09 316.012L225.26 343.063C226.549 343.743 227.038 345.335 226.359 346.623C225.886 347.514 224.972 348.025 224.026 348.025Z" fill="#E7F4FA"/>
<path d="M240.576 376.097C240.169 376.097 239.75 375.999 239.359 375.798L152.838 330.707C151.55 330.033 151.05 328.44 151.718 327.153C152.393 325.865 153.986 325.365 155.274 326.033L241.794 371.125C243.083 371.799 243.583 373.391 242.914 374.679C242.441 375.581 241.528 376.097 240.576 376.097Z" fill="#E7F4FA"/>
<path d="M125.274 315.187L91.8486 297.656L125.165 279.061L158.59 296.591L125.274 315.187Z" fill="#E7F4FA"/>
<path d="M117.918 290.761L115.521 300.33L139.17 297.869" stroke="white" stroke-width="5.42" stroke-linecap="round" stroke-linejoin="round"/>
<g style="mix-blend-mode:multiply">
<path d="M401.786 288.283C399.883 283.561 390.82 280.539 385.829 282.093C385.77 282.11 385.71 282.131 385.655 282.153C385.655 282.153 271.397 317.562 271.13 317.67L252.923 334.989L276.866 335.614C277.274 335.326 390.733 299.787 390.733 299.787C390.733 299.787 404.668 295.429 401.792 288.288L401.786 288.283Z" fill="#A8C4E5"/>
</g>
<path d="M428.448 377.478C445.389 377.478 459.123 369.712 459.123 360.132C459.123 350.552 445.389 342.787 428.448 342.787C411.508 342.787 397.774 350.552 397.774 360.132C397.774 369.712 411.508 377.478 428.448 377.478Z" fill="#E6E6E6"/>
<path d="M448.847 353.921C449.097 355.051 448.618 363.539 448.107 364.757C447.134 368.642 443.752 372.326 438.038 375.043C425.496 381.004 406.522 380.037 395.654 372.891C390.587 369.56 387.836 366.175 387.776 361.947C387.613 359.659 387.542 353.274 387.542 353.274C387.939 351.878 389.559 353.334 390.581 352.03C392.272 349.465 395.115 347.101 399.09 345.216C411.632 339.255 430.606 340.222 441.474 347.368C446.052 350.378 448.531 350.286 448.847 353.921Z" fill="#E3971B"/>
<path d="M418.216 371.266C435.157 371.266 448.89 363.5 448.89 353.921C448.89 344.341 435.157 336.575 418.216 336.575C401.275 336.575 387.542 344.341 387.542 353.921C387.542 363.5 401.275 371.266 418.216 371.266Z" fill="white"/>
<path d="M418.216 370.321C435.157 370.321 448.89 362.555 448.89 352.975C448.89 343.396 435.157 335.63 418.216 335.63C401.275 335.63 387.542 343.396 387.542 352.975C387.542 362.555 401.275 370.321 418.216 370.321Z" fill="#FBC02D"/>
<path d="M418.194 364.648C430.037 364.648 439.637 359.22 439.637 352.524C439.637 345.829 430.037 340.401 418.194 340.401C406.352 340.401 396.752 345.829 396.752 352.524C396.752 359.22 406.352 364.648 418.194 364.648Z" fill="white" stroke="#35519C" stroke-width="1.04" stroke-miterlimit="10"/>
<g style="mix-blend-mode:multiply" opacity="0.43">
<path d="M404.521 344.672C413.644 340.401 427.165 341.118 434.717 346.275C437.729 348.329 439.332 350.78 439.599 353.258C439.919 350.297 438.327 347.259 434.717 344.792C427.165 339.635 413.649 338.918 404.521 343.189C399.035 345.759 396.388 349.547 396.79 353.28C397.138 350.047 399.758 346.9 404.521 344.672Z" fill="#78B5EB"/>
</g>
<g style="mix-blend-mode:multiply" opacity="0.43">
<path d="M408.713 356.502C407.435 355.437 406.397 353.937 406.381 352.59L410.61 352.34C410.86 353.682 411.415 354.676 412.606 355.47C413.997 356.394 415.226 356.502 416.455 355.894C419.206 354.535 412.606 350.199 417.412 347.824C420.027 346.531 423.283 346.591 426.121 347.889L428.872 346.531L431.275 348.134L428.579 349.471C429.927 350.644 430.21 351.829 430.085 353.014L426.007 352.899C425.996 351.867 425.681 351.133 424.637 350.438C423.446 349.644 422.294 349.465 421.092 350.063C418.553 351.318 425.317 355.573 420.217 358.094C417.651 359.361 414.362 359.464 411.219 358.056L408.441 359.431L406.038 357.828L408.708 356.508L408.713 356.502Z" fill="#88BDEB"/>
</g>
<path d="M418.662 371.582L418.738 378.956" stroke="#BD934A" stroke-linecap="round" stroke-linejoin="round"/>
<path d="M426.556 371.033L426.583 378.206" stroke="#BD934A" stroke-linecap="round" stroke-linejoin="round"/>
<path d="M434.054 369.218L434.081 376.391" stroke="#BD934A" stroke-linecap="round" stroke-linejoin="round"/>
<path d="M440.778 366.159L440.805 372.772" stroke="#BD934A" stroke-linecap="round" stroke-linejoin="round"/>
<path d="M446.286 361.512L446.134 368.234" stroke="#BD934A" stroke-linecap="round" stroke-linejoin="round"/>
<path d="M410.403 371.033L410.376 378.206" stroke="#BD934A" stroke-linecap="round" stroke-linejoin="round"/>
<path d="M402.901 369.218L402.874 376.391" stroke="#BD934A" stroke-linecap="round" stroke-linejoin="round"/>
<path d="M396.176 366.159L396.148 372.772" stroke="#BD934A" stroke-linecap="round" stroke-linejoin="round"/>
<path d="M390.668 361.512L390.826 368.234" stroke="#BD934A" stroke-linecap="round" stroke-linejoin="round"/>
<path d="M448.847 341.178C449.097 342.308 448.618 350.796 448.107 352.013C447.134 355.899 443.752 359.583 438.038 362.3C425.496 368.261 406.522 367.294 395.654 360.148C390.587 356.817 387.836 353.432 387.776 349.204C387.613 346.916 387.542 340.531 387.542 340.531C387.939 339.135 389.559 340.591 390.581 339.287C392.272 336.722 395.115 334.358 399.09 332.473C411.632 326.511 430.606 327.479 441.474 334.624C446.052 337.635 448.531 337.543 448.847 341.178Z" fill="#E3971B"/>
<path d="M418.216 358.523C435.157 358.523 448.89 350.757 448.89 341.178C448.89 331.598 435.157 323.832 418.216 323.832C401.275 323.832 387.542 331.598 387.542 341.178C387.542 350.757 401.275 358.523 418.216 358.523Z" fill="white"/>
<path d="M418.216 357.578C435.157 357.578 448.89 349.812 448.89 340.232C448.89 330.653 435.157 322.887 418.216 322.887C401.275 322.887 387.542 330.653 387.542 340.232C387.542 349.812 401.275 357.578 418.216 357.578Z" fill="#FBC02D"/>
<path d="M418.194 351.905C430.037 351.905 439.637 346.477 439.637 339.781C439.637 333.086 430.037 327.658 418.194 327.658C406.352 327.658 396.752 333.086 396.752 339.781C396.752 346.477 406.352 351.905 418.194 351.905Z" fill="white" stroke="#35519C" stroke-width="1.04" stroke-miterlimit="10"/>
<g style="mix-blend-mode:multiply" opacity="0.43">
<path d="M404.521 331.929C413.644 327.658 427.165 328.375 434.717 333.532C437.729 335.586 439.332 338.037 439.599 340.515C439.919 337.553 438.327 334.516 434.717 332.049C427.165 326.892 413.649 326.174 404.521 330.446C399.035 333.016 396.388 336.803 396.79 340.537C397.138 337.303 399.758 334.157 404.521 331.929Z" fill="#78B5EB"/>
</g>
<g style="mix-blend-mode:multiply" opacity="0.43">
<path d="M408.713 343.759C407.435 342.694 406.397 341.194 406.381 339.847L410.61 339.597C410.86 340.939 411.415 341.933 412.606 342.727C413.997 343.65 415.226 343.759 416.455 343.15C419.206 341.792 412.606 337.456 417.412 335.081C420.027 333.788 423.283 333.847 426.121 335.146L428.872 333.788L431.275 335.391L428.579 336.727C429.927 337.901 430.21 339.086 430.085 340.27L426.007 340.156C425.996 339.124 425.681 338.39 424.637 337.695C423.446 336.901 422.294 336.722 421.092 337.32C418.553 338.575 425.317 342.83 420.217 345.351C417.651 346.617 414.362 346.721 411.219 345.313L408.441 346.688L406.038 345.085L408.708 343.765L408.713 343.759Z" fill="#88BDEB"/>
</g>
<path d="M418.662 358.838L418.738 366.212" stroke="#BD934A" stroke-linecap="round" stroke-linejoin="round"/>
<path d="M426.556 358.29L426.583 365.462" stroke="#BD934A" stroke-linecap="round" stroke-linejoin="round"/>
<path d="M434.054 356.475L434.081 363.648" stroke="#BD934A" stroke-linecap="round" stroke-linejoin="round"/>
<path d="M440.778 353.416L440.805 360.029" stroke="#BD934A" stroke-linecap="round" stroke-linejoin="round"/>
<path d="M446.286 348.769L446.134 355.491" stroke="#BD934A" stroke-linecap="round" stroke-linejoin="round"/>
<path d="M410.403 358.29L410.376 365.462" stroke="#BD934A" stroke-linecap="round" stroke-linejoin="round"/>
<path d="M402.901 356.475L402.874 363.648" stroke="#BD934A" stroke-linecap="round" stroke-linejoin="round"/>
<path d="M396.176 353.416L396.148 360.029" stroke="#BD934A" stroke-linecap="round" stroke-linejoin="round"/>
<path d="M390.668 348.769L390.826 355.491" stroke="#BD934A" stroke-linecap="round" stroke-linejoin="round"/>
<path d="M448.847 328.435C449.097 329.566 448.618 338.054 448.107 339.271C447.134 343.156 443.752 346.84 438.038 349.557C425.496 355.519 406.522 354.551 395.654 347.406C390.587 344.075 387.836 340.689 387.776 336.461C387.613 334.174 387.542 327.789 387.542 327.789C387.939 326.392 389.559 327.848 390.581 326.544C392.272 323.979 395.115 321.616 399.09 319.73C411.632 313.769 430.606 314.736 441.474 321.882C446.052 324.892 448.531 324.8 448.847 328.435Z" fill="#E3971B"/>
<path d="M418.216 345.78C435.157 345.78 448.89 338.015 448.89 328.435C448.89 318.855 435.157 311.089 418.216 311.089C401.275 311.089 387.542 318.855 387.542 328.435C387.542 338.015 401.275 345.78 418.216 345.78Z" fill="white"/>
<path d="M418.216 344.835C435.157 344.835 448.89 337.069 448.89 327.49C448.89 317.91 435.157 310.144 418.216 310.144C401.275 310.144 387.542 317.91 387.542 327.49C387.542 337.069 401.275 344.835 418.216 344.835Z" fill="#FBC02D"/>
<path d="M418.194 339.156C430.037 339.156 439.637 333.729 439.637 327.033C439.637 320.338 430.037 314.91 418.194 314.91C406.352 314.91 396.752 320.338 396.752 327.033C396.752 333.729 406.352 339.156 418.194 339.156Z" fill="white"/>
<path d="M404.521 319.186C413.644 314.915 427.165 315.633 434.717 320.79C437.729 322.844 439.332 325.294 439.599 327.772C439.919 324.811 438.327 321.773 434.717 319.306C427.165 314.149 413.649 313.432 404.521 317.703C399.035 320.273 396.388 324.061 396.79 327.794C397.138 324.561 399.758 321.414 404.521 319.186Z" fill="#F2E9D3"/>
<path d="M408.713 331.016C407.435 329.951 406.397 328.452 406.381 327.104L410.61 326.854C410.86 328.196 411.415 329.191 412.606 329.984C413.997 330.908 415.226 331.016 416.455 330.408C419.206 329.049 412.606 324.713 417.412 322.338C420.027 321.045 423.283 321.105 426.121 322.403L428.872 321.045L431.275 322.648L428.579 323.985C429.927 325.159 430.21 326.343 430.085 327.528L426.007 327.414C425.996 326.381 425.681 325.648 424.637 324.952C423.446 324.159 422.294 323.979 421.092 324.577C418.553 325.832 425.317 330.087 420.217 332.609C417.651 333.875 414.362 333.978 411.219 332.571L408.441 333.945L406.038 332.342L408.708 331.022L408.713 331.016Z" fill="#F9A825"/>
<path d="M418.194 339.156C430.037 339.156 439.637 333.729 439.637 327.033C439.637 320.338 430.037 314.91 418.194 314.91C406.352 314.91 396.752 320.338 396.752 327.033C396.752 333.729 406.352 339.156 418.194 339.156Z" stroke="#BD934A" stroke-linecap="round" stroke-linejoin="round"/>
<path d="M418.662 346.096L418.738 353.47" stroke="#BD934A" stroke-linecap="round" stroke-linejoin="round"/>
<path d="M426.556 345.547L426.583 352.72" stroke="#BD934A" stroke-linecap="round" stroke-linejoin="round"/>
<path d="M434.054 343.732L434.081 350.905" stroke="#BD934A" stroke-linecap="round" stroke-linejoin="round"/>
<path d="M440.778 340.673L440.805 347.286" stroke="#BD934A" stroke-linecap="round" stroke-linejoin="round"/>
<path d="M446.286 336.026L446.134 342.748" stroke="#BD934A" stroke-linecap="round" stroke-linejoin="round"/>
<path d="M410.403 345.547L410.376 352.72" stroke="#BD934A" stroke-linecap="round" stroke-linejoin="round"/>
<path d="M402.901 343.732L402.874 350.905" stroke="#BD934A" stroke-linecap="round" stroke-linejoin="round"/>
<path d="M396.176 340.673L396.148 347.286" stroke="#BD934A" stroke-linecap="round" stroke-linejoin="round"/>
<path d="M390.668 336.026L390.826 342.748" stroke="#BD934A" stroke-linecap="round" stroke-linejoin="round"/>
<path d="M375.206 407.658C392.147 407.658 405.88 399.893 405.88 390.313C405.88 380.733 392.147 372.967 375.206 372.967C358.265 372.967 344.532 380.733 344.532 390.313C344.532 399.893 358.265 407.658 375.206 407.658Z" fill="#E6E6E6"/>
<path d="M395.604 384.107C395.855 385.237 395.376 393.725 394.865 394.943C393.892 398.828 390.51 402.512 384.796 405.229C372.254 411.191 353.279 410.223 342.411 403.077C337.344 399.746 334.593 396.361 334.534 392.133C334.37 389.846 334.3 383.46 334.3 383.46C334.697 382.064 336.317 383.52 337.339 382.216C339.03 379.651 341.873 377.287 345.847 375.402C358.39 369.441 377.364 370.408 388.232 377.554C392.81 380.564 395.289 380.472 395.604 384.107Z" fill="#F9A825"/>
<path d="M364.974 401.452C381.915 401.452 395.648 393.686 395.648 384.107C395.648 374.527 381.915 366.761 364.974 366.761C348.033 366.761 334.3 374.527 334.3 384.107C334.3 393.686 348.033 401.452 364.974 401.452Z" fill="white"/>
<path d="M364.974 400.507C381.915 400.507 395.648 392.741 395.648 383.161C395.648 373.582 381.915 365.816 364.974 365.816C348.033 365.816 334.3 373.582 334.3 383.161C334.3 392.741 348.033 400.507 364.974 400.507Z" fill="#FBC02D"/>
<path d="M364.952 394.828C376.795 394.828 386.395 389.401 386.395 382.705C386.395 376.009 376.795 370.582 364.952 370.582C353.11 370.582 343.51 376.009 343.51 382.705C343.51 389.401 353.11 394.828 364.952 394.828Z" fill="white"/>
<path d="M351.279 374.853C360.402 370.582 373.923 371.299 381.474 376.456C384.486 378.51 386.09 380.961 386.357 383.439C386.677 380.477 385.084 377.44 381.474 374.972C373.923 369.816 360.402 369.098 351.279 373.369C345.793 375.94 343.145 379.727 343.548 383.461C343.896 380.227 346.516 377.081 351.279 374.853Z" fill="#F2E9D3"/>
<path d="M355.471 386.683C354.193 385.618 353.155 384.118 353.138 382.77L357.368 382.52C357.618 383.863 358.173 384.857 359.363 385.65C360.755 386.574 361.984 386.683 363.213 386.074C365.964 384.716 359.364 380.379 364.17 378.005C366.785 376.711 370.041 376.771 372.879 378.07L375.63 376.711L378.033 378.314L375.337 379.651C376.685 380.825 376.968 382.01 376.843 383.194L372.765 383.08C372.754 382.048 372.439 381.314 371.395 380.619C370.204 379.825 369.052 379.646 367.85 380.244C365.311 381.499 372.075 385.754 366.975 388.275C364.409 389.541 361.12 389.645 357.977 388.237L355.199 389.612L352.796 388.009L355.465 386.688L355.471 386.683Z" fill="#F9A825"/>
<path d="M364.952 394.828C376.795 394.828 386.395 389.401 386.395 382.705C386.395 376.009 376.795 370.582 364.952 370.582C353.11 370.582 343.51 376.009 343.51 382.705C343.51 389.401 353.11 394.828 364.952 394.828Z" stroke="#BD934A" stroke-linecap="round" stroke-linejoin="round"/>
<path d="M365.42 401.763L365.496 409.137" stroke="#BD934A" stroke-linecap="round" stroke-linejoin="round"/>
<path d="M373.313 401.214L373.341 408.387" stroke="#BD934A" stroke-linecap="round" stroke-linejoin="round"/>
<path d="M380.811 399.404L380.838 406.572" stroke="#BD934A" stroke-linecap="round" stroke-linejoin="round"/>
<path d="M387.542 396.339L387.564 402.953" stroke="#BD934A" stroke-linecap="round" stroke-linejoin="round"/>
<path d="M393.044 391.693L392.892 398.415" stroke="#BD934A" stroke-linecap="round" stroke-linejoin="round"/>
<path d="M357.161 401.214L357.134 408.387" stroke="#BD934A" stroke-linecap="round" stroke-linejoin="round"/>
<path d="M349.663 399.404L349.631 406.572" stroke="#BD934A" stroke-linecap="round" stroke-linejoin="round"/>
<path d="M342.933 396.339L342.906 402.953" stroke="#BD934A" stroke-linecap="round" stroke-linejoin="round"/>
<path d="M337.426 391.693L337.583 398.415" stroke="#BD934A" stroke-linecap="round" stroke-linejoin="round"/>
<path d="M487.92 62.4919L447.356 41.9131" stroke="#E7F4FA" stroke-width="2" stroke-linecap="round" stroke-linejoin="round"/>
<path d="M341.558 123.869C341.558 123.869 351.246 109.29 369.035 117.995C382.632 124.652 375.477 124.788 391.799 128.852C401.422 131.249 416.421 111.099 440.153 120.832C483.119 138.454 498.223 93.4169 516.86 115.664L516.599 227.649L341.52 140.704L341.558 123.869Z" fill="#E7F4FA"/>
<path d="M341.519 141.992C341.193 142.02 340.927 141.748 340.927 141.378L341.188 29.5018C341.188 29.1377 341.454 28.8225 341.78 28.7953C342.107 28.7682 342.373 29.0399 342.373 29.4094L342.112 141.286C342.112 141.65 341.846 141.965 341.519 141.992Z" fill="#95BCDB"/>
<path d="M385.128 162.359C384.802 162.386 384.535 162.115 384.535 161.745L384.796 49.8685C384.796 49.5044 385.063 49.1892 385.389 49.162C385.715 49.1349 385.981 49.4066 385.981 49.7761L385.72 161.653C385.72 162.017 385.454 162.332 385.128 162.359Z" fill="#95BCDB"/>
<path d="M428.735 184.134C428.409 184.161 428.143 183.889 428.143 183.519L428.404 71.6429C428.404 71.2788 428.67 70.9636 428.996 70.9364C429.322 70.9093 429.589 71.181 429.589 71.5505L429.328 183.427C429.328 183.791 429.061 184.106 428.735 184.134Z" fill="#95BCDB"/>
<path d="M472.344 205.881C472.017 205.908 471.751 205.636 471.751 205.267L472.012 93.3899C472.012 93.0259 472.278 92.7107 472.605 92.6835C472.931 92.6563 473.197 92.928 473.197 93.2976L472.936 205.174C472.936 205.538 472.67 205.853 472.344 205.881Z" fill="#95BCDB"/>
<path d="M516.729 227.698C516.403 227.726 516.137 227.454 516.137 227.084L516.398 115.208C516.398 114.844 516.664 114.529 516.99 114.501C517.316 114.474 517.583 114.746 517.583 115.115L517.322 226.992C517.322 227.356 517.056 227.671 516.729 227.698Z" fill="#95BCDB"/>
<path d="M515.729 105.85L509.977 102.612C509.341 102.253 508.824 101.182 508.824 100.237C508.824 99.2913 509.346 98.8077 509.982 99.1664L515.734 102.405C516.37 102.764 516.887 103.834 516.887 104.78C516.887 105.725 516.365 106.209 515.729 105.85Z" fill="#95BCDB"/>
<path d="M471.463 85.8527L465.711 82.614C465.075 82.2553 464.559 81.1848 464.559 80.2393C464.559 79.2938 465.081 78.8101 465.717 79.1688L471.469 82.4075C472.105 82.7661 472.621 83.8367 472.621 84.7822C472.621 85.7277 472.099 86.2113 471.463 85.8527Z" fill="#95BCDB"/>
<path d="M428.181 66.0348L422.429 62.7961C421.793 62.4375 421.276 61.367 421.276 60.4214C421.276 59.4759 421.798 58.9923 422.434 59.3509L428.186 62.5896C428.823 62.9483 429.339 64.0188 429.339 64.9643C429.339 65.9098 428.817 66.3935 428.181 66.0348Z" fill="#95BCDB"/>
<path d="M384.269 45.6735L378.517 42.4348C377.881 42.0761 377.364 41.0056 377.364 40.0601C377.364 39.1146 377.886 38.6309 378.522 38.9896L384.274 42.2283C384.91 42.5869 385.427 43.6575 385.427 44.603C385.427 45.5485 384.905 46.0321 384.269 45.6735Z" fill="#95BCDB"/>
<path d="M341.008 24.9318L335.256 21.6931C334.62 21.3344 334.104 20.2639 334.104 19.3184C334.104 18.3729 334.625 17.8892 335.262 18.2479L341.014 21.4866C341.65 21.8452 342.166 22.9158 342.166 23.8613C342.166 24.8068 341.644 25.2904 341.008 24.9318Z" fill="#95BCDB"/>
<path d="M409.06 170.711L360.825 146.03C358.721 144.954 356.998 141.943 356.998 139.341V109.431C356.998 106.829 358.721 105.584 360.825 106.66L409.06 131.342C411.164 132.418 412.888 135.428 412.888 138.031V167.94C412.888 170.543 411.164 171.787 409.06 170.711Z" stroke="#004E7C" stroke-width="2" stroke-linecap="round" stroke-linejoin="round"/>
<path d="M366.762 144.476L359.781 140.906V130.793L366.762 134.363V144.476Z" fill="#00DDF7"/>
<path d="M376.831 149.627L369.851 146.057V129.929L376.831 133.499V149.627Z" fill="#00DDF7"/>
<path d="M386.9 154.779L379.919 151.208V130.108L386.9 133.684V154.779Z" fill="#00DDF7"/>
<path d="M396.974 159.93L389.988 156.36V133.211L396.974 136.781V159.93Z" fill="#00DDF7"/>
<path d="M407.043 165.087L400.057 161.512V132.907L407.043 136.482V165.087Z" fill="#00DDF7"/>
<path d="M387.156 111.051L363.93 98.6446C359.668 96.3677 356.183 90.7543 356.183 86.168V61.1658C356.183 56.5795 359.668 54.6884 363.93 56.9653L387.156 69.3713C391.418 71.6481 394.903 77.2615 394.903 81.8479V106.85C394.903 111.436 391.418 113.327 387.156 111.051Z" fill="#E3971B"/>
<path d="M367.447 79.7068L372.215 93.0039L383.176 76.8213" stroke="white" stroke-width="2.17" stroke-linecap="round" stroke-linejoin="round"/>
<path d="M503.817 106.617C506.525 108.258 509.423 110.573 509.102 110.361L504.562 112.241" stroke="#004E7C" stroke-width="4" stroke-linecap="round" stroke-linejoin="round"/>
<path d="M412.339 121.158C419.515 117.632 428.742 116.148 440.153 120.827C476.732 135.83 489.171 104.872 507.596 109.671" stroke="#004E7C" stroke-width="4" stroke-linecap="round" stroke-linejoin="round"/>
<path d="M159.786 249.353L159.139 171.081L190.465 151.833L203.85 153.045L254.999 200.012L255.82 299.553L237.422 289.929V289.968L159.786 249.353Z" fill="#64B5F6"/>
<path d="M254.999 200.104L267.868 192.339V192.078L268.961 191.681L321.518 175.276L324.187 172.619L354.04 176.173L353.382 240.778L278.486 285.973V285.881L255.82 299.553L254.999 200.104Z" fill="#42A5F5"/>
<path d="M255.842 302.129L255.755 291.511L159.721 241.333L159.753 251.902L255.842 302.129Z" fill="#004E7C"/>
<path d="M255.842 302.129L255.755 291.511L353.469 232.611L353.382 243.311L255.842 302.129Z" fill="#082B61"/>
<g style="mix-blend-mode:multiply" opacity="0.16">
<path d="M211.669 301.178L255.842 302.129L231.85 289L211.669 301.178Z" fill="#005CB2"/>
</g>
<path d="M211.668 301.178L211.587 291.174L231.768 278.996L231.85 289L211.668 301.178Z" fill="#004E7C"/>
<path d="M269.325 110.964L270.086 161.463" stroke="#004E7C" stroke-linecap="round" stroke-linejoin="round"/>
<path d="M389.178 296.858L276.382 332.348L273.626 322.023L382.236 288.071C398.562 283.055 398.763 292.799 389.178 296.863V296.858Z" fill="#0053A1"/>
<path d="M273.625 322.023C273.386 317.399 269.765 320.088 271.326 314.285L373.183 282.615C380.359 282.381 382.578 284.577 382.659 287.93L273.62 322.023H273.625Z" fill="#005CB2"/>
<path d="M270.647 314.404L253.728 331.397L276.382 332.348C282.075 328.386 275.833 312.383 270.647 314.404Z" fill="#E1EAF4"/>
<path d="M270.647 314.405L253.728 331.397L277.665 321.349C276.192 317.007 273.283 313.378 270.647 314.405Z" fill="white"/>
<path d="M385.351 278.828C385.291 278.844 385.231 278.866 385.177 278.887L367.6 284.349C372.514 283.767 377.908 297.287 373.199 301.825L391.086 296.26C391.146 296.238 391.206 296.222 391.266 296.206C396.257 294.657 398.975 289.506 397.344 284.707C395.713 279.909 390.341 277.273 385.356 278.828H385.351Z" fill="white"/>
<path d="M391.087 296.26C391.146 296.238 391.206 296.222 391.266 296.206C396.121 294.695 398.383 288.826 397.018 284.137L373.83 290.712C373.83 290.712 376.869 298.613 373.205 301.819L391.092 296.255L391.087 296.26Z" fill="#EBF6FF"/>
<path d="M385.465 278.833C385.405 278.849 385.345 278.871 385.291 278.893L374.559 282.148C379.843 282.05 384.856 294.125 380.506 299.624L391.206 296.26C391.266 296.238 391.325 296.222 391.385 296.206C396.376 294.657 399.095 289.506 397.464 284.707C395.833 279.909 390.461 277.273 385.476 278.828L385.465 278.833Z" fill="#FBC02D"/>
<path d="M391.201 296.266C391.261 296.244 391.321 296.228 391.38 296.211C396.371 294.663 399.09 289.511 397.459 284.713C397.366 284.441 397.257 284.18 397.143 283.925L381.127 288.642C383.095 296.103 381.562 298.032 380.507 299.629L391.206 296.266H391.201Z" fill="#EDA22D"/>
<path d="M261.181 323.914L270.646 314.404" stroke="#E1EAF4" stroke-linecap="round" stroke-linejoin="round"/>
<path d="M252.438 331.723L261.181 323.914C264.894 325.256 266.492 327.919 265.949 331.913L252.438 331.728V331.723Z" fill="#004E7C"/>
<path d="M255.386 242.555L353.91 184.965" stroke="#2E87CF" stroke-linecap="round" stroke-linejoin="round"/>
<path d="M255.386 253.288L353.91 195.692" stroke="#2E87CF" stroke-linecap="round" stroke-linejoin="round"/>
<path d="M255.386 264.014L353.91 206.424" stroke="#2E87CF" stroke-linecap="round" stroke-linejoin="round"/>
<path d="M255.386 274.747L353.91 217.151" stroke="#2E87CF" stroke-linecap="round" stroke-linejoin="round"/>
<path d="M255.386 285.474L353.91 227.883" stroke="#2E87CF" stroke-linecap="round" stroke-linejoin="round"/>
<path d="M255.386 242.555L159.721 189.916" stroke="#2E87CF" stroke-linecap="round" stroke-linejoin="round"/>
<path d="M255.386 231.361L159.356 178.52" stroke="#2E87CF" stroke-linecap="round" stroke-linejoin="round"/>
<path d="M238.939 211.113L165.255 170.57" stroke="#2E87CF" stroke-linecap="round" stroke-linejoin="round"/>
<path d="M225.788 192.681L175.563 165.049" stroke="#2E87CF" stroke-linecap="round" stroke-linejoin="round"/>
<path d="M211.669 173.722L186.453 159.843" stroke="#2E87CF" stroke-linecap="round" stroke-linejoin="round"/>
<path d="M255.386 253.287L159.721 200.647" stroke="#2E87CF" stroke-linecap="round" stroke-linejoin="round"/>
<path d="M255.386 264.014L159.721 211.375" stroke="#2E87CF" stroke-linecap="round" stroke-linejoin="round"/>
<path d="M255.386 274.747L159.721 222.107" stroke="#2E87CF" stroke-linecap="round" stroke-linejoin="round"/>
<path d="M255.386 285.473L159.721 232.833" stroke="#2E87CF" stroke-linecap="round" stroke-linejoin="round"/>
<path d="M280.563 257.472L297.444 247.288L297.226 220.574L280.34 230.758L280.563 257.472Z" fill="#004E7C"/>
<path d="M280.563 257.471L280.34 230.758L294.274 222.351L294.497 249.065L280.563 257.471Z" fill="white"/>
<path d="M280.53 253.7L280.367 233.535L290.887 227.188L291.05 247.353L280.53 253.7Z" fill="#004E7C"/>
<path d="M317.706 235.763L334.587 225.579L334.37 198.86L317.483 209.049L317.706 235.763Z" fill="#004E7C"/>
<path d="M317.706 235.762L317.483 209.049L331.423 200.642L331.641 227.356L317.706 235.762Z" fill="white"/>
<path d="M317.674 231.991L317.511 211.826L328.031 205.479L328.194 225.644L317.674 231.991Z" fill="#004E7C"/>
<path d="M182.517 231.899L165.478 222.987L165.255 196.273L182.299 205.185L182.517 231.899Z" fill="#004E7C"/>
<path d="M182.517 231.899L182.299 205.185L168.234 197.827L168.452 224.541L182.517 231.899Z" fill="white"/>
<path d="M182.484 228.128L182.321 207.962L171.703 202.408L171.866 222.574L182.484 228.128Z" fill="#004E7C"/>
<path d="M241.43 259.83L224.391 250.918L224.168 224.204L241.212 233.116L241.43 259.83Z" fill="#004E7C"/>
<path d="M241.43 259.83L241.212 233.116L227.147 225.758L227.365 252.472L241.43 259.83Z" fill="white"/>
<path d="M241.397 256.059L241.234 235.893L230.616 230.339L230.779 250.505L241.397 256.059Z" fill="#004E7C"/>
<path d="M191.487 207.582L191.922 260.259L211.728 270.622V270.579L216.447 273.051L216.012 220.368L191.487 207.582Z" fill="#004E7C"/>
<path d="M198.697 263.808L211.729 270.622V270.579L216.448 273.051L216.013 220.368L198.262 211.114L198.697 263.808Z" fill="white"/>
<path d="M214.381 236.79L202.643 230.649L202.54 218.031L214.278 224.172L214.381 236.79Z" fill="#004E7C"/>
<path d="M200.491 242.224C200.024 241.99 199.643 241.43 199.638 240.979L199.61 237.355C199.61 236.904 199.985 236.724 200.453 236.953C200.921 237.186 201.301 237.746 201.307 238.197L201.334 241.822C201.334 242.273 200.959 242.452 200.491 242.224Z" fill="#004E7C"/>
<path d="M163.314 265.922L163.396 275.926L211.669 301.178L231.85 289L231.768 278.996L163.314 265.922Z" fill="#004E7C"/>
<path d="M231.768 278.996L183.496 253.744L163.314 265.922L211.587 291.174L231.768 278.996Z" fill="#0071ED"/>
<path d="M296.215 98.1123L354.013 174.059L256.298 231.839L199.484 153.176L296.215 98.1123Z" fill="#00DDF7"/>
<path d="M199.485 153.176L144.291 177.928L168.887 161.24L259.827 111.806L296.215 98.1123L199.485 153.176Z" fill="#0071ED"/>
<path d="M354.014 174.059L256.294 231.834L199.485 153.176L198.615 156.773L255.021 233.551C255.717 234.497 257.017 234.768 258.028 234.171L352.089 178.95C353.29 178.243 354.024 176.95 354.014 175.559L354.003 174.059H354.014Z" fill="#004E7C"/>
<path d="M199.512 156.36L146.629 179.444C145.531 179.922 144.302 179.123 144.291 177.928L199.485 153.176L199.512 156.36Z" fill="#004E7C"/>
<path d="M279.993 164.077C282.115 159.499 279.28 153.679 273.662 151.079C268.043 148.478 261.769 150.081 259.648 154.659C257.527 159.237 260.362 165.056 265.98 167.657C271.598 170.257 277.872 168.654 279.993 164.077Z" fill="#004280"/>
<path d="M263.111 72.1317C253.151 77.8701 245.077 91.8357 245.066 103.323C245.061 114.811 253.124 119.473 263.084 113.735C273.044 107.997 281.117 94.031 281.128 82.5434C281.134 71.0558 273.071 66.3934 263.111 72.1317ZM265.808 87.3526C265.291 85.6354 265.726 83.114 267.107 80.7284C268.526 78.2777 270.565 76.6203 272.343 76.2671C273.343 80.0274 268.515 87.0374 265.808 87.3526Z" fill="#FBC02D"/>
<path d="M269.325 162.066L269.825 89.0591L256.374 96.8081L256.342 148.47L261.615 157.132L269.325 162.066Z" fill="#FBC02D"/>
<path d="M276.045 158.925L276.089 91.624L262.638 99.373L262.605 151.035L269.325 162.066L276.045 158.925Z" fill="#BD934A"/>
<path d="M269.38 74.6967C259.419 80.4351 251.346 94.4006 251.335 105.888C251.324 117.376 259.392 122.038 269.352 116.3C279.312 110.562 287.386 96.596 287.397 85.1084C287.402 73.6207 279.34 68.9583 269.38 74.6967ZM274.36 84.9182C272.353 88.3905 269.102 90.2653 267.096 89.1078C265.095 87.9504 265.101 84.2009 267.107 80.7285C269.113 77.2561 272.364 75.3814 274.37 76.5388C276.371 77.6963 276.366 81.4458 274.36 84.9182Z" fill="#BD934A"/>
<path d="M275.768 78.7343C276.094 80.4243 275.627 82.7229 274.36 84.9128C272.354 88.3852 269.102 90.2599 267.096 89.1025C265.786 88.3471 265.34 86.4778 265.748 84.3096C261.056 89.2057 257.745 96.4167 257.745 102.612C257.745 110.774 263.47 114.083 270.543 110.007C277.616 105.932 283.358 96.0092 283.363 87.8472C283.363 81.8208 280.242 78.4463 275.762 78.7288L275.768 78.7343Z" fill="#E6E6E6"/>
<path d="M262.078 89.0591C259.425 93.2922 257.751 98.2155 257.745 102.623C257.745 110.785 263.47 114.094 270.543 110.018C277.616 105.943 283.358 96.0201 283.363 87.8582C283.363 85.3639 282.83 83.3262 281.884 81.8101" stroke="#004E7C" stroke-linecap="round" stroke-linejoin="round"/>
<path d="M256.342 76.7182C252.716 71.8601 250.378 65.7468 250.378 60.0682C250.378 50.3684 257.19 45.6081 265.601 49.4283C274.006 53.2484 280.818 64.209 280.818 73.9088C280.818 83.6086 274.441 88.0537 266.416 84.891" stroke="#004E7C" stroke-width="3" stroke-linecap="round" stroke-linejoin="round"/>
<path d="M272.468 109.344L273.229 159.843" stroke="#004E7C" stroke-linecap="round" stroke-linejoin="round"/>
<path d="M199.484 153.175L254.999 121.571" stroke="#004E7C" stroke-linecap="round" stroke-linejoin="round"/>
<path d="M124.36 264.993C124.36 264.993 131.254 276.415 131.983 283.631C131.983 283.631 130.324 287.658 128.884 284.186C125.366 275.714 122.881 268.449 120.207 265.618C117.532 262.786 124.355 264.998 124.355 264.998L124.36 264.993Z" fill="#E3971B"/>
<g style="mix-blend-mode:multiply" opacity="0.16">
<path d="M125.986 335.902C121.522 338.727 113.612 339.407 108.322 337.412C103.032 335.418 102.363 331.511 106.827 328.685C111.291 325.859 119.201 325.18 124.491 327.174C129.781 329.169 130.45 333.076 125.986 335.902Z" fill="#005CB2"/>
</g>
<path d="M112.752 335.195L110.067 329.631C109.632 329.158 108.452 328.799 107.582 328.799C107.191 328.799 106.805 329.136 106.647 329.593L106.31 330.576C105.788 331.984 105.831 332.206 106.408 332.826L109.833 336.527C110.409 337.151 111.491 337.38 112.236 337.043L112.448 336.945C113.193 336.608 113.329 335.82 112.752 335.195Z" fill="#082B61"/>
<path d="M106.561 329.641C106.615 330.984 109.986 331.223 109.931 329.881L109.758 325.512L106.387 325.272L106.561 329.641Z" fill="white"/>
<path d="M125.334 329.663L119.652 325.935C118.929 325.685 118.054 325.62 117.048 325.892C116.597 326.011 116.521 325.674 116.548 326.098L116.194 327.479C115.76 328.663 116.885 329.728 118.244 330.168L122.566 331.668C123.523 332 124.882 331.853 125.589 331.342L125.79 331.195C126.497 330.685 126.291 329.995 125.339 329.663H125.334Z" fill="#082B61"/>
<path d="M116.569 326.425C116.618 327.81 119.994 327.691 119.946 326.305L119.782 321.8L116.406 321.92L116.569 326.425Z" fill="white"/>
<path d="M115.928 325.082C117.298 325.995 119.484 325.892 120.158 324.751C121.947 310.851 122.344 296.76 121.463 282.485L110.823 279.719C113.547 296.793 116.537 311.883 115.928 325.082Z" fill="#005CB2"/>
<path d="M105.772 327.104C106.784 328.712 109.638 328.571 110.383 327.511L115.901 281.822L104.642 281.376L105.778 327.104H105.772Z" fill="#005CB2"/>
<path d="M113.59 297.645L114.515 301.857L116.624 289.065C116.113 289.244 116.08 288.603 115.499 288.728L113.585 297.645H113.59Z" fill="#003466"/>
<path d="M106.681 270.301C104.278 273.361 103.092 274.844 101.266 278.985C100.075 281.691 100.722 283.973 101.885 285.381C103.478 287.305 105.305 289.473 105.305 289.473L103.419 291.315C103.419 291.315 96.1061 285.5 97.0358 279.887L100.744 266.541L106.675 270.301H106.681Z" fill="#E3971B"/>
<path d="M103.641 290.038L103.946 289.729C104.506 289.163 105.479 289.207 106.104 289.821L107.393 291.092C108.023 291.712 108.078 292.685 107.518 293.25L107.213 293.56C106.653 294.125 105.68 294.081 105.055 293.467L103.766 292.196C103.136 291.576 103.081 290.603 103.641 290.038Z" fill="#E3971B"/>
<path d="M120.963 257.531C124.502 262.77 127.905 268.046 128.4 271.692C127.634 274.79 126.726 273.116 124.605 273.953L117.782 262.933L119.43 259.928L120.957 257.531H120.963Z" fill="#64B5F6"/>
<path d="M122.24 283.164C122.213 277.855 122.18 272.932 122.941 266.318C122.898 257.162 119.418 253.793 113.661 255.923L111.279 256.57C104.331 260.352 100.792 260.183 102.075 267.541L103.374 283.686C103.412 292 122.735 292.94 122.245 283.164H122.24Z" fill="#64B5F6"/>
<path d="M106.658 269.736L103.717 282.213L103.364 283.43L102.891 277.426L106.658 269.736Z" fill="#4C9AD9"/>
<path d="M107.213 268.269L101.119 280.909C100.629 281.675 96.7803 280.642 96.7803 279.317C96.7803 276.545 100.597 262.031 104.658 260.091C107.958 258.515 109.018 263.77 107.213 268.269Z" fill="#64B5F6"/>
<path d="M130.4 288.43C131.216 288.163 131.662 287.277 131.395 286.462L130.248 282.957C129.982 282.142 129.096 281.691 128.28 281.963C127.465 282.229 127.019 283.115 127.285 283.93L128.432 287.435C128.699 288.25 129.585 288.701 130.4 288.43Z" fill="#E3971B"/>
<path d="M131.846 285.892C132.64 285.566 133.026 284.653 132.7 283.86L131.303 280.447C130.977 279.654 130.063 279.268 129.269 279.594C128.476 279.92 128.09 280.833 128.416 281.626L129.813 285.039C130.139 285.832 131.053 286.218 131.846 285.892Z" fill="#E3971B"/>
<path d="M131.14 285.669L128.312 287.076L129.052 288.636L132.064 286.908L131.14 285.669Z" fill="#DEE5FF"/>
<path d="M148.684 286.506C148.684 286.506 145.036 299.939 137.822 297.168C131.939 294.902 128.617 288.62 128.617 288.62L132.461 286.756C132.461 286.756 138.05 291.924 139.811 291.56C143.802 290.739 143.416 281.947 146.172 281.191C147.744 280.762 148.684 286.5 148.684 286.5V286.506Z" fill="#00796B"/>
<path d="M100.836 279.469C100.836 279.469 101.836 280.148 101.379 281.181C100.923 282.213 95.861 281.751 96.1709 280.11C96.4808 278.474 96.7526 277.763 100.836 279.469Z" fill="#4C9AD9"/>
<path d="M125.622 274.72C124.85 274.915 124.04 274.448 123.871 273.671C123.871 273.66 123.871 273.649 123.866 273.638C123.638 272.535 128.025 269.97 128.726 271.481C129.384 272.899 129.227 273.801 125.628 274.72H125.622Z" fill="#4C9AD9"/>
<path d="M114.95 256.254C114.95 256.254 114.194 257.238 113.753 257.412C113.319 257.586 107.762 254.477 108.768 249.755C109.404 246.766 115.075 248.049 115.075 248.049L114.95 256.254Z" fill="#4E4E4E"/>
<path d="M111.992 260.395L110.752 258.983C111.677 259.205 114.167 259.607 114.39 258.684L115.607 253.989C115.83 253.065 115.26 252.13 114.335 251.907L114.063 251.842C113.139 251.619 112.204 252.19 111.981 253.114L110.035 257.928C109.812 258.852 111.068 260.167 111.992 260.39V260.395Z" fill="#E3971B"/>
<path d="M114.928 256.798C114.928 256.798 112.666 256.689 111.34 254.423C111.34 254.423 112.53 257.825 114.575 258.254L114.928 256.803V256.798Z" fill="#D18100"/>
<path d="M105.185 295.173C105.185 295.173 107.789 290.196 107.811 289.696C107.811 289.696 108.958 292.206 107.952 293.657C106.946 295.108 105.185 295.173 105.185 295.173Z" fill="#003466"/>
<path d="M163.805 279.621C166.724 284.409 167.752 287.74 168.774 293.179C168.997 294.353 169.073 295.049 168.72 296.179C167.551 299.934 166.365 300.075 165.778 304.015C165.485 305.998 163.016 304.939 163.315 302.933C163.859 299.276 163.897 300.015 165.191 296.548C165.436 295.896 165.702 295.25 165.974 294.608C165.724 295.195 166.017 295.646 165.914 295.108C165.849 294.771 165.795 294.435 165.729 294.103C164.751 288.859 163.701 283.039 160.891 278.431C159.83 276.692 162.62 275.209 163.674 276.937L163.799 279.627L163.805 279.621Z" fill="#0A8645"/>
<path d="M164.527 278.203C166.484 281.914 167.778 288.115 168.969 293.141C169.442 294.532 169.067 295.766 168.202 295.679L165.283 295.978C164.565 295.907 163.26 294.309 162.967 293.146L159.737 280.36C159.21 278.279 159.715 276.524 160.906 276.301L158.166 274.149C158.4 273.399 163.407 274.404 164.527 278.208V278.203Z" fill="#00796B"/>
<path d="M153.937 300.901L168.214 309.835C168.915 310.275 169.823 309.791 169.855 308.965L170.22 298.82C170.236 298.439 170.04 298.075 169.72 297.874L155.443 288.941C154.741 288.5 153.833 288.984 153.801 289.81L153.436 299.955C153.42 300.336 153.616 300.7 153.937 300.901Z" fill="black"/>
<path d="M161.591 307.721L162.635 308.237C163.434 308.633 164.418 308.302 164.815 307.503C165.212 306.704 164.88 305.721 164.081 305.324L163.037 304.808C162.238 304.411 161.254 304.743 160.857 305.542C160.46 306.34 160.792 307.324 161.591 307.721Z" fill="#E3971B"/>
<g style="mix-blend-mode:multiply" opacity="0.16">
<path d="M152.401 353.567C159.155 353.443 164.581 350.623 164.52 347.269C164.458 343.914 158.933 341.295 152.178 341.419C145.423 341.542 139.997 344.362 140.059 347.717C140.12 351.072 145.646 353.691 152.401 353.567Z" fill="#005CB2"/>
</g>
<path d="M160.292 342.167L157.421 341.7C155.524 340.754 154.648 340.064 153.773 340.531L153.523 340.662C152.648 341.129 152.724 342.004 153.692 342.613L157.807 346.134C158.78 346.742 160.123 346.612 160.939 345.944C160.939 345.944 161.428 345.531 161.156 343.721C160.999 342.689 161.069 342.651 160.292 342.167Z" fill="#082B61"/>
<path d="M147.493 347.471L144.634 348.362C142.448 348.395 141.317 348.188 140.725 348.992L140.556 349.221C139.964 350.025 140.447 350.758 141.622 350.851L147.727 352.095C148.907 352.188 149.407 351.438 149.848 350.487C149.848 350.487 150.119 349.308 149.516 348.03C149.07 347.085 148.429 347.547 147.488 347.476L147.493 347.471Z" fill="#082B61"/>
<path d="M146.221 348.416C146.172 349.764 149.456 349.883 149.5 348.536L149.657 344.156L146.379 344.036L146.221 348.416Z" fill="white"/>
<path d="M145.906 345.634C146.26 347.357 149.674 347.357 150.381 346.275C150.696 331.527 153.039 316.285 157.318 300.83L145.477 300.406C144.873 315.524 144.911 330.603 145.906 345.634Z" fill="#244E8F"/>
<path d="M157.622 342.341C157.655 343.564 160.933 343.683 160.901 342.461L160.803 338.483L157.524 338.363L157.622 342.341Z" fill="white"/>
<path d="M157.041 340.553C158.302 341.95 160.901 341.466 161.433 340.509L161.118 300.928L152.827 301.851L157.041 340.553Z" fill="#244E8F"/>
<path d="M150.31 270.073C151.223 272.877 153.36 273.6 155.078 271.682C156.796 269.769 157.448 265.943 156.535 263.145C155.622 260.341 152.495 262.259 150.772 264.172C149.054 266.085 149.391 267.269 150.304 270.073H150.31Z" fill="#E3971B"/>
<path d="M147.901 270.166C148.613 273.03 151.614 274.16 153.463 272.377C155.317 270.595 156.241 266.824 155.529 263.965C154.817 261.107 152.74 260.232 150.886 262.015C149.032 263.797 147.183 267.307 147.896 270.166H147.901Z" fill="#E3971B"/>
<path d="M154.48 278.583L154.785 278.529C155.818 278.339 156.508 277.333 156.318 276.301L155.236 270.476C155.046 269.443 154.04 268.753 153.007 268.943L152.702 268.997C151.669 269.188 150.979 270.193 151.169 271.225L151.387 276.98C151.577 278.013 153.447 278.779 154.48 278.583Z" fill="#E3971B"/>
<path d="M158.204 270.959C158.204 270.959 157.802 273.617 154.029 272.948C151.321 272.47 152.273 268.074 149.571 267.53C146.597 266.933 146.189 263.221 147.418 261.846C148.646 260.471 151.968 259.847 154.317 260.988C156.666 262.123 160.346 262.194 158.204 270.965V270.959Z" fill="#4E4E4E"/>
<path d="M149.505 269.068C149.679 269.764 150.38 270.187 151.076 270.013C151.772 269.84 152.196 269.139 152.022 268.443C151.848 267.747 151.147 267.324 150.451 267.498C149.755 267.671 149.331 268.372 149.505 269.068Z" fill="#E3971B"/>
<path d="M161.483 300.422C160.705 295.081 162.831 291.532 162.951 285.886C163.75 276.485 160.803 273.806 157.536 274.029C157.536 274.029 154.562 274.79 153.882 275.111C146.679 278.501 144.748 279.556 144.912 283.789C144.629 290.744 145.374 298.586 145.401 302.02C146.684 306.884 159.748 303.808 161.488 300.422H161.483Z" fill="#00796B"/>
<path d="M151.245 273.23L151.576 272.529C151.576 272.529 151.011 273.056 149.973 272.888C149.973 272.888 150.576 273.263 151.245 273.23Z" fill="#D18100"/>
<path d="M154.208 315.084L157.861 310.215L154.328 311.622L154.208 315.084Z" fill="#004E7C"/>
<path d="M114.711 263.33C114.026 263.498 113.346 263.123 113.194 262.504L112.77 260.787C112.617 260.167 113.052 259.526 113.732 259.357C114.417 259.194 115.097 259.564 115.249 260.183L115.673 261.9C115.825 262.52 115.39 263.161 114.711 263.33Z" fill="#082B61"/>
<path d="M113.769 262.976C114.367 266.231 113.97 270.41 113.753 274.54L116.466 276.306L117.858 273.698C117.559 269.709 116.732 265.851 115.563 262.406L113.769 262.976Z" fill="#082B61"/>
<path d="M110.747 256.167L108.447 257.982C108.447 257.982 110.203 261.074 112.237 261.547L113.775 259.124C113.775 259.124 111.394 258.135 110.752 256.173L110.747 256.167Z" fill="white"/>
<path d="M115.194 255.01L117.119 255.939C117.119 255.939 117.956 260.178 115.923 261.015L113.487 259.129C113.487 259.129 115.309 258.222 115.194 255.01Z" fill="white"/>
<path d="M113.884 254.619C114.83 257.01 116.722 257.526 118.119 255.771C119.516 254.015 119.886 250.652 118.94 248.261C117.994 245.87 116.102 245.354 114.705 247.109C113.307 248.864 112.938 252.228 113.884 254.619Z" fill="#E3971B"/>
<path d="M111.215 254.086C112.161 256.477 116.336 257.95 117.733 256.195C119.13 254.44 118.049 250.245 117.103 247.848C116.157 245.457 114.265 244.941 112.867 246.696C111.47 248.451 110.274 251.695 111.22 254.086H111.215Z" fill="#E3971B"/>
<path d="M113.976 248.261C113.976 248.261 114.525 252.999 110.774 254.07C110.774 254.07 106.528 251.635 109.632 247.065C112.367 243.039 116.771 246.087 116.771 246.087L113.982 248.261H113.976Z" fill="#4E4E4E"/>
<path d="M119.462 251.44C119.462 251.44 118.956 249.408 116.482 248.555L118.429 247.386C118.429 247.386 120.424 247.837 119.462 251.435V251.44Z" fill="#4E4E4E"/>
<path d="M112.014 251.049C112.835 249.94 114.596 249.945 117.103 250.842C117.483 250.978 117.896 251.043 118.293 250.962C120.153 250.576 120.43 248.266 120.43 248.266C120.827 246.723 119.805 246.028 118.261 245.631L114.237 244.593C111.959 243.995 109.763 245.87 109.361 247.413L109.257 247.669C108.86 249.212 110.47 250.657 112.014 251.054V251.049Z" fill="#4E4E4E"/>
<path d="M110.35 253.923C110.578 254.504 111.236 254.792 111.818 254.559C112.4 254.331 112.688 253.673 112.454 253.092C112.22 252.51 111.568 252.222 110.986 252.456C110.404 252.689 110.116 253.342 110.35 253.923Z" fill="#E3971B"/>
<g style="mix-blend-mode:multiply" opacity="0.16">
<path d="M400.492 245.066L373.895 231.437L255.842 302.129L302.32 303.08L354.301 272.361C356.345 272.73 358.531 272.932 360.809 272.932C372.074 272.932 381.208 268.03 381.208 261.987C381.208 260.395 380.566 258.879 379.424 257.515L400.492 245.066Z" fill="#005CB2"/>
</g>
<path d="M360.81 263.259C359.717 263.259 358.825 262.368 358.825 261.275V233.263C358.825 232.17 359.717 231.279 360.81 231.279C361.902 231.279 362.794 232.17 362.794 233.263V261.275C362.794 262.368 361.902 263.259 360.81 263.259Z" fill="#004E7C"/>
<path d="M378.816 206.087C378.957 205.022 379.033 203.935 379.033 202.821C379.033 197.757 377.5 193.105 374.945 189.459C375.298 187.997 375.488 186.454 375.488 184.862C375.488 175.444 368.915 167.81 360.815 167.81C352.714 167.81 346.141 175.444 346.141 184.862C346.141 186.454 346.331 187.997 346.685 189.459C344.129 193.105 342.596 197.751 342.596 202.821C342.596 203.93 342.672 205.022 342.814 206.087C338.334 209.907 335.566 215.146 335.566 220.928C335.566 232.622 346.875 242.099 360.82 242.099C374.765 242.099 386.074 232.622 386.074 220.928C386.074 215.146 383.306 209.907 378.827 206.087H378.816Z" fill="#BBDEFB"/>
<path d="M378.815 206.087C378.957 205.022 379.033 203.935 379.033 202.821C379.033 197.757 377.5 193.105 374.944 189.459C375.298 187.997 375.488 186.454 375.488 184.862C375.488 177.759 371.748 171.673 366.436 169.108C360.809 204.164 377.103 220.091 352.61 240.941C355.182 241.68 357.938 242.088 360.814 242.088C374.76 242.088 386.068 232.611 386.068 220.917C386.068 215.135 383.301 209.897 378.821 206.076L378.815 206.087Z" fill="#A3CDF0"/>
</g>
<defs>
<clipPath id="clip0_120_11526">
<rect width="529" height="455" fill="white"/>
</clipPath>
</defs>
</svg>
