<svg xmlns="http://www.w3.org/2000/svg" xmlns:xlink="http://www.w3.org/1999/xlink" viewBox="0 0 779 406">
<style type="text/css">
	.st0{fill:url(#SVGID_1_);}
	.st1{fill:url(#SVGID_00000095299109412413066480000010669649179961262494_);}
	.st2{fill:url(#SVGID_00000116924632907961430280000008928355678321419918_);}
	.st3{fill:url(#SVGID_00000137098072427125501950000018420734537405606846_);}
	.st4{fill:url(#SVGID_00000148655793674725885040000004444802452285203093_);}
	.st5{fill:url(#SVGID_00000154424877649986222550000000460915216219719561_);}
	.st6{fill:url(#SVGID_00000031168727994168625130000015659136387842779564_);}
	.st7{fill:url(#SVGID_00000168097760576184576170000011703553377267890060_);}
	.st8{fill:url(#SVGID_00000182519099772227042960000018037276689790088374_);}
	.st9{fill:url(#SVGID_00000179637675540414843170000006695635826262415247_);}
	.st10{fill:url(#SVGID_00000072982406235199430290000000434296753235702451_);}
	.st11{fill:url(#SVGID_00000024724269304890392780000008935266198060105869_);}
	.st12{fill:#00DDF7;}
	.st13{fill:url(#SVGID_00000048481704854984747320000006995025837165845179_);}
	.st14{fill:url(#SVGID_00000109025884210219647800000006130047969033999494_);}
	.st15{fill:url(#SVGID_00000095319306572866843550000009293962211869406111_);}
	.st16{fill:url(#SVGID_00000150786704013794395900000012434318913470192060_);}
	.st17{fill:url(#SVGID_00000126323532114905002710000014522898004731136933_);}
	.st18{fill:url(#SVGID_00000168800101922849278370000003795812300386209428_);}
	.st19{fill:url(#SVGID_00000045577708687224203490000014169971864722043807_);}
	.st20{fill:url(#SVGID_00000005247665431621404080000009257563670368835770_);}
	.st21{fill:url(#SVGID_00000000200210532561715610000006650979520231018942_);}
	.st22{fill:url(#SVGID_00000003068134084385944130000015074325558762746766_);}
	.st23{fill:url(#SVGID_00000154412179583025547480000010390099980010107560_);}
	.st24{fill:url(#SVGID_00000071541053132503184590000003533573459513308322_);}
	.st25{fill:url(#SVGID_00000121989141667636544140000001017225247973473981_);}
	.st26{fill:url(#SVGID_00000096753194286256455540000009371176956484295824_);}
	.st27{fill:url(#SVGID_00000049216496542057332690000006902286603161969295_);}
	.st28{fill:url(#SVGID_00000147213138616700067230000015179822880791367093_);}
	.st29{fill:url(#SVGID_00000072985326238167894580000016953933000826266262_);}
	.st30{fill:url(#SVGID_00000072265830238973116140000012176122046683773068_);}
	.st31{fill:url(#SVGID_00000170981310521434876810000007267371890911203726_);}
	.st32{fill:url(#SVGID_00000078744162105124244160000005960535464800027567_);}
	.st33{fill:url(#SVGID_00000005254323561775993480000012612142317226562994_);}
	.st34{fill:url(#SVGID_00000174592488002164136400000005577144639180683436_);}
	.st35{fill:url(#SVGID_00000116952489770876428950000015036699977351051909_);}
	.st36{fill:url(#SVGID_00000022545111314068550050000013560724331898379408_);}

	@keyframes show {
		0% {
			opacity: 0;
		}
		25% {
			opacity: 0.25;
		}
		50% {
			opacity: 0.50;
		}
		75% {
			opacity: 0.75;
		}
		100% {
			opacity: 1;
		}
	}
	#line3 {
		animation: show 0.86s;
		animation-iteration-count: infinite;
	}
	#line2 {
		animation: show 0.83s;
		animation-iteration-count: infinite;
	}
	#line1 {
		animation: show 0.8s;
		animation-iteration-count: infinite;
	}
	#line6 {
		animation: show 0.86s;
		animation-iteration-count: infinite;
	}
	#line5 {
		animation: show 0.83s;
		animation-iteration-count: infinite;
	}
	#line4 {
		animation: show 0.8s;
		animation-iteration-count: infinite;
		/* animation-direction: alternate; */
	}
</style>
<g>
	<g>
		
		<linearGradient id="SVGID_1_" gradientUnits="userSpaceOnUse" x1="653.6777" y1="302.7566" x2="655.0587" y2="290.2876" gradientTransform="matrix(1 0 0 -1 0 408)">
			<stop  offset="0" style="stop-color:#BEDBD6"/>
			<stop  offset="0.1" style="stop-color:#CEEDE8"/>
			<stop  offset="0.45" style="stop-color:#C3E0DB"/>
			<stop  offset="1" style="stop-color:#A5C9C2"/>
		</linearGradient>
		<path class="st0" d="M669.3,107.8c0,0-20.2-4-27.1,0c-6.9,4,0,9,0,9s11.7-5.2,25.8,0L669.3,107.8z"/>		
		<linearGradient id="SVGID_00000028300061210022526380000007523996529649872291_" gradientUnits="userSpaceOnUse" x1="683.8157" y1="343.6135" x2="682.9938" y2="229.541" gradientTransform="matrix(1 0 0 -1 0 408)">
			<stop  offset="0" style="stop-color:#FFF3DD"/>
			<stop  offset="0.45" style="stop-color:#FFE9C4"/>
			<stop  offset="1" style="stop-color:#E3D4AD"/>
		</linearGradient>
		<path style="fill:url(#SVGID_00000028300061210022526380000007523996529649872291_);" d="M694,135.2c1.4-5.2,3.5-15.9,4-21.2
			c1.3-12.4,1-47.5-8.6-49.3L668,178C677.5,179.8,690.7,147.2,694,135.2L694,135.2z"/>
		
		<linearGradient id="SVGID_00000037682758376256053410000014373266186834542012_" gradientUnits="userSpaceOnUse" x1="644.3439" y1="343.0366" x2="694.0619" y2="261.6299" gradientTransform="matrix(1 0 0 -1 0 408)">
			<stop  offset="0" style="stop-color:#EBD5BC"/>
			<stop  offset="0.45" style="stop-color:#E4C4A0"/>
			<stop  offset="1" style="stop-color:#DBC7B0"/>
		</linearGradient>
		<path style="fill:url(#SVGID_00000037682758376256053410000014373266186834542012_);" d="M663.2,180.4l8.5,1.6
			c1.8,0.3,3.5-0.8,3.8-2.6L697,66c0.3-1.8-0.8-3.5-2.6-3.8l-8.5-1.6c-1.8-0.3-3.5,0.8-3.8,2.6l-21.5,113.4
			C660.2,178.4,661.4,180.1,663.2,180.4z"/>
		
		<linearGradient id="SVGID_00000085951813116530957320000016435689147899463828_" gradientUnits="userSpaceOnUse" x1="673.8974" y1="324.3747" x2="669.7554" y2="290.0776" gradientTransform="matrix(1 0 0 -1 0 408)">
			<stop  offset="0" style="stop-color:#BEDBD6"/>
			<stop  offset="0.1" style="stop-color:#CEEDE8"/>
			<stop  offset="0.45" style="stop-color:#C3E0DB"/>
			<stop  offset="1" style="stop-color:#A5C9C2"/>
		</linearGradient>
		<path style="fill:url(#SVGID_00000085951813116530957320000016435689147899463828_);" d="M676.9,89.9c-5.2,0-11.3,23.4-11.3,32.1
			s2.7,13.3,2.7,13.3L676.9,89.9z"/>
		
		<linearGradient id="SVGID_00000149353841001612525560000011050380628386519187_" gradientUnits="userSpaceOnUse" x1="572.3715" y1="303.4924" x2="573.0615" y2="294.8274" gradientTransform="matrix(1 0 0 -1 0 408)">
			<stop  offset="0" style="stop-color:#BEDBD6"/>
			<stop  offset="0.1" style="stop-color:#CEEDE8"/>
			<stop  offset="0.45" style="stop-color:#C3E0DB"/>
			<stop  offset="1" style="stop-color:#A5C9C2"/>
		</linearGradient>
		<path style="fill:url(#SVGID_00000149353841001612525560000011050380628386519187_);" d="M557.7,107.8c0,0,20.2-4,27.1,0
			c6.9,4,0,9,0,9s-11.7-5.2-25.8,0L557.7,107.8z"/>
		
		<linearGradient id="SVGID_00000041293685439397289540000006720811519735143852_" gradientUnits="userSpaceOnUse" x1="544.2758" y1="344.614" x2="543.4538" y2="230.552" gradientTransform="matrix(1 0 0 -1 0 408)">
			<stop  offset="0" style="stop-color:#FFF3DD"/>
			<stop  offset="0.45" style="stop-color:#FFE9C4"/>
			<stop  offset="1" style="stop-color:#E3D4AD"/>
		</linearGradient>
		<path style="fill:url(#SVGID_00000041293685439397289540000006720811519735143852_);" d="M533,135.2c-1.4-5.2-3.5-15.9-4-21.2
			c-1.3-12.4-1-47.5,8.6-49.3L559,178C549.5,179.8,536.3,147.2,533,135.2L533,135.2z"/>
		
			<linearGradient id="SVGID_00000021083676710510707770000003924901430258493839_" gradientUnits="userSpaceOnUse" x1="526.5721" y1="317.9346" x2="575.4401" y2="247.4405" gradientTransform="matrix(1 0 0 -1 0 408)">
			<stop  offset="0" style="stop-color:#EBD5BC"/>
			<stop  offset="0.45" style="stop-color:#E4C4A0"/>
			<stop  offset="1" style="stop-color:#DBC7B0"/>
		</linearGradient>
		<path style="fill:url(#SVGID_00000021083676710510707770000003924901430258493839_);" d="M563.8,180.4l-8.5,1.6
			c-1.8,0.3-3.5-0.8-3.8-2.6L530,66c-0.3-1.8,0.8-3.5,2.6-3.8l8.5-1.6c1.8-0.3,3.5,0.8,3.8,2.6l21.5,113.4
			C566.8,178.4,565.6,180.1,563.8,180.4z"/>
		
			<linearGradient id="SVGID_00000150084684047551974350000009462051199840702639_" gradientUnits="userSpaceOnUse" x1="548.9827" y1="312.6973" x2="563.4918" y2="275.6097" gradientTransform="matrix(1 0 0 -1 0 408)">
			<stop  offset="0" style="stop-color:#BEDBD6"/>
			<stop  offset="0.1" style="stop-color:#CEEDE8"/>
			<stop  offset="0.45" style="stop-color:#C3E0DB"/>
			<stop  offset="1" style="stop-color:#A5C9C2"/>
		</linearGradient>
		<path style="fill:url(#SVGID_00000150084684047551974350000009462051199840702639_);" d="M550.1,89.9c5.2,0,11.3,23.4,11.3,32.1
			s-2.7,13.3-2.7,13.3L550.1,89.9z"/>
		
			<linearGradient id="SVGID_00000078015508535234320470000009201796777413903279_" gradientUnits="userSpaceOnUse" x1="556.027" y1="185.3025" x2="671.193" y2="185.3025" gradientTransform="matrix(1 0 0 -1 0 408)">
			<stop  offset="0" style="stop-color:#95BDB6"/>
			<stop  offset="0.1" style="stop-color:#A3CFC8"/>
			<stop  offset="0.45" style="stop-color:#99C2BB"/>
			<stop  offset="1" style="stop-color:#7EABA2"/>
		</linearGradient>
		<path style="fill:url(#SVGID_00000078015508535234320470000009201796777413903279_);" d="M660.5,341.4l2.8,21h7.9L633.2,83h-6.5
			l2.8,21.1l-15.8,13.5l-15.8-13.5l2.8-21.1h-6.5l-38,279.4h7.9l2.8-21l46.9-40.7L660.5,341.4L660.5,341.4z M619.9,295.2l31.1-27
			l7.9,60.3L619.9,295.2L619.9,295.2z M613.6,161.2l-21-17.9l0.4-2.9l20.6-17.9l20.6,17.9l0.4,2.9L613.6,161.2L613.6,161.2z
			 M635.3,148.8l4.6,34.8l-22.5-19.2L635.3,148.8L635.3,148.8z M609.9,164.4l-22.5,19.2l4.6-34.8L609.9,164.4L609.9,164.4z
			 M613.6,167.6l27.3,23.7l0.4,3.2l-27.7,23.6l-27.7-23.6l0.4-3.2L613.6,167.6L613.6,167.6z M648.3,247.7l-30-25.6l23.9-20.8
			L648.3,247.7z M585,201.3l23.9,20.8l-30,25.6L585,201.3z M613.6,226.1l35.9,31.2l0.2,1.7l-36.1,30.9L577.5,259l0.2-1.7
			L613.6,226.1L613.6,226.1z M630,108.3l3.4,26.2l-17-14.5L630,108.3z M597.2,108.3l13.5,11.7l-17,14.5L597.2,108.3z M568.3,328.6
			l7.9-60.3l31.1,27L568.3,328.6L568.3,328.6z"/>
		
			<linearGradient id="SVGID_00000117668226056693382910000011232385196812082859_" gradientUnits="userSpaceOnUse" x1="545.8743" y1="191.1876" x2="705.6602" y2="84.8266" gradientTransform="matrix(1 0 0 -1 0 408)">
			<stop  offset="0" style="stop-color:#BEDBD6"/>
			<stop  offset="0.1" style="stop-color:#CEEDE8"/>
			<stop  offset="0.45" style="stop-color:#C3E0DB"/>
			<stop  offset="1" style="stop-color:#A5C9C2"/>
		</linearGradient>
		<path style="fill:url(#SVGID_00000117668226056693382910000011232385196812082859_);" d="M681.3,381.6l4,24.4h11.4L641.8,81.3
			h-9.4l4,24.5l-22.8,15.7l-22.8-15.7l4-24.5h-9.4L530.5,406h11.4l4-24.4l67.7-47.3L681.3,381.6z M622.6,327.9l44.9-31.4l11.4,70.1
			L622.6,327.9z M613.6,172.2l-30.3-20.8l0.6-3.4l29.7-20.8l29.7,20.8l0.6,3.4L613.6,172.2z M644.9,157.8l6.6,40.5L619,175.9
			L644.9,157.8L644.9,157.8z M608.2,175.9l-32.5,22.3l6.6-40.5L608.2,175.9L608.2,175.9z M613.6,179.6l39.3,27.5l0.6,3.7l-40,27.5
			l-40-27.5l0.6-3.7L613.6,179.6z M663.6,272.7l-43.3-29.8l34.6-24.1L663.6,272.7L663.6,272.7z M572.4,218.8l34.6,24.1l-43.3,29.8
			L572.4,218.8L572.4,218.8z M613.6,247.6l51.8,36.2l0.3,2l-52.2,35.9l-52.2-35.9l0.3-2L613.6,247.6L613.6,247.6z M637.3,110.7
			l5,30.5l-24.5-16.8L637.3,110.7L637.3,110.7z M590,110.7l19.5,13.6L585,141.2L590,110.7L590,110.7z M548.3,366.6l11.4-70.1
			l44.9,31.4L548.3,366.6z"/>
		
			<linearGradient id="SVGID_00000085237604697212801670000007428557073784682667_" gradientUnits="userSpaceOnUse" x1="589.6127" y1="348.3197" x2="659.7667" y2="165.9913" gradientTransform="matrix(1 0 0 -1 0 408)">
			<stop  offset="0" style="stop-color:#EBD5BC"/>
			<stop  offset="0.45" style="stop-color:#E4C4A0"/>
			<stop  offset="1" style="stop-color:#DBC7B0"/>
		</linearGradient>
		<path style="fill:url(#SVGID_00000085237604697212801670000007428557073784682667_);" d="M626.2,60.3h-25.8
			c-2.7,0-4.9,2.2-4.9,4.9v112.2c0,2.7,2.2,4.9,4.9,4.9h25.8c2.7,0,4.9-2.2,4.9-4.9V65.2C631.1,62.5,628.9,60.3,626.2,60.3z"/>
		
			<linearGradient id="SVGID_00000007388191799381176560000005672556974537450164_" gradientUnits="userSpaceOnUse" x1="613.7539" y1="344.1195" x2="612.9319" y2="230.047" gradientTransform="matrix(1 0 0 -1 0 408)">
			<stop  offset="0" style="stop-color:#FFF3DD"/>
			<stop  offset="0.45" style="stop-color:#FFE9C4"/>
			<stop  offset="1" style="stop-color:#E3D4AD"/>
		</linearGradient>
		<path style="fill:url(#SVGID_00000007388191799381176560000005672556974537450164_);" d="M627.8,65.2v112.2c0,0.8-0.7,1.5-1.5,1.5
			h-25.8c-0.8,0-1.5-0.7-1.5-1.5V65.2c0-0.8,0.7-1.5,1.5-1.5h25.8C627.1,63.7,627.8,64.4,627.8,65.2z"/>
		<g>
			<path id="line1" class="st12" d="M503.9,114.6c0-31,13.1-59.1,34.1-79l-5.2-4.3c-21.9,21-35.6,50.6-35.6,83.3
				c0,39.4,19.8,74.2,50.1,95.1c0.5-2.5,1-4.9,1.5-7.1C521.6,182.8,503.9,150.7,503.9,114.6z"/>
			<path id="line2" class="st12" d="M479.3,114.6c0-37,15.1-70.5,39.6-94.7l-5.2-4.3c-25.4,25.4-41.1,60.4-41.1,99
				c0,51.2,27.7,96.2,69,120.6c0.5-2.3,1-4.6,1.5-6.9C504.9,204.9,479.3,162.7,479.3,114.6L479.3,114.6z"/>
			<path id="line3" class="st12" d="M454.7,114.6c0-42.9,17.2-81.8,45.2-110.3L494.7,0C465.8,29.7,448,70.1,448,114.6
				c0,63,35.7,117.9,88.1,145.6c0.5-2.2,1-4.4,1.5-6.8C488.3,226.6,454.7,174.5,454.7,114.6z"/>
		</g>
		<g>
			<path id="line4" class="st12" d="M678.2,202.6c0.5,2.2,1,4.6,1.5,7.1c30.2-20.9,50.1-55.8,50.1-95.1c0-32.7-13.6-62.2-35.6-83.3
				l-5.2,4.3c21,19.9,34.1,47.9,34.1,79C723.1,150.7,705.4,182.8,678.2,202.6z"/>
			<path id="line5" class="st12" d="M683.8,228.4c0.5,2.3,1,4.6,1.5,6.9c41.3-24.5,69-69.4,69-120.6c0-38.6-15.7-73.6-41.1-99
				l-5.2,4.3c24.4,24.2,39.6,57.7,39.6,94.7C747.7,162.7,722.1,204.9,683.8,228.4L683.8,228.4z"/>
			<path id="line6" class="st12" d="M689.4,253.5c0.5,2.3,1,4.5,1.5,6.8c52.3-27.7,88.1-82.6,88.1-145.6c0-44.5-17.8-85-46.7-114.6
				l-5.2,4.3c28,28.5,45.2,67.5,45.2,110.3C772.3,174.5,738.7,226.6,689.4,253.5z"/>
		</g>
	</g>
</g>
<g>
	<g>
		
			<linearGradient id="SVGID_00000072992796052813616500000011250715001196795012_" gradientUnits="userSpaceOnUse" x1="336.101" y1="227.9382" x2="337.141" y2="218.5712" gradientTransform="matrix(1 0 0 -1 0 408)">
			<stop  offset="0" style="stop-color:#BEDBD6"/>
			<stop  offset="0.1" style="stop-color:#CEEDE8"/>
			<stop  offset="0.45" style="stop-color:#C3E0DB"/>
			<stop  offset="1" style="stop-color:#A5C9C2"/>
		</linearGradient>
		<path style="fill:url(#SVGID_00000072992796052813616500000011250715001196795012_);" d="M347.8,182c0,0-15.1-3-20.3,0
			c-5.2,3,0,6.8,0,6.8s8.8-3.9,19.3,0L347.8,182z"/>
		
			<linearGradient id="SVGID_00000059289864530270278000000016499971458317736837_" gradientUnits="userSpaceOnUse" x1="358.6855" y1="258.631" x2="358.0664" y2="172.936" gradientTransform="matrix(1 0 0 -1 0 408)">
			<stop  offset="0" style="stop-color:#FFF3DD"/>
			<stop  offset="0.45" style="stop-color:#FFE9C4"/>
			<stop  offset="1" style="stop-color:#E3D4AD"/>
		</linearGradient>
		<path style="fill:url(#SVGID_00000059289864530270278000000016499971458317736837_);" d="M366.3,202.5c1.1-3.9,2.6-11.9,3-15.9
			c1-9.3,0.7-35.7-6.4-37l-16.1,85.1C354,236,363.8,211.6,366.3,202.5L366.3,202.5z"/>
		
			<linearGradient id="SVGID_00000081641208483508229020000012068043073658811052_" gradientUnits="userSpaceOnUse" x1="329.0103" y1="258.137" x2="366.4053" y2="197.0689" gradientTransform="matrix(1 0 0 -1 0 408)">
			<stop  offset="0" style="stop-color:#EBD5BC"/>
			<stop  offset="0.45" style="stop-color:#E4C4A0"/>
			<stop  offset="1" style="stop-color:#DBC7B0"/>
		</linearGradient>
		<path style="fill:url(#SVGID_00000081641208483508229020000012068043073658811052_);" d="M343.2,236.6l6.4,1.2
			c1.3,0.3,2.6-0.6,2.9-2l16.1-85.2c0.3-1.3-0.6-2.6-2-2.9l-6.4-1.2c-1.3-0.2-2.6,0.6-2.9,2l-16.1,85.2
			C341,235,341.9,236.3,343.2,236.6z"/>
		
			<linearGradient id="SVGID_00000072242915863942203690000010425856707423438982_" gradientUnits="userSpaceOnUse" x1="351.2615" y1="244.1768" x2="348.1425" y2="218.4148" gradientTransform="matrix(1 0 0 -1 0 408)">
			<stop  offset="0" style="stop-color:#BEDBD6"/>
			<stop  offset="0.1" style="stop-color:#CEEDE8"/>
			<stop  offset="0.45" style="stop-color:#C3E0DB"/>
			<stop  offset="1" style="stop-color:#A5C9C2"/>
		</linearGradient>
		<path style="fill:url(#SVGID_00000072242915863942203690000010425856707423438982_);" d="M353.5,168.5c-3.9,0-8.5,17.6-8.5,24.2
			s2,10,2,10L353.5,168.5z"/>
		
			<linearGradient id="SVGID_00000098915297818215510710000008886080118773185435_" gradientUnits="userSpaceOnUse" x1="275.1828" y1="228.4904" x2="275.7028" y2="221.9814" gradientTransform="matrix(1 0 0 -1 0 408)">
			<stop  offset="0" style="stop-color:#BEDBD6"/>
			<stop  offset="0.1" style="stop-color:#CEEDE8"/>
			<stop  offset="0.45" style="stop-color:#C3E0DB"/>
			<stop  offset="1" style="stop-color:#A5C9C2"/>
		</linearGradient>
		<path style="fill:url(#SVGID_00000098915297818215510710000008886080118773185435_);" d="M264.2,182c0,0,15.1-3,20.3,0
			c5.2,3,0,6.8,0,6.8s-8.8-3.9-19.3,0L264.2,182z"/>
		
			<linearGradient id="SVGID_00000014603937064566539740000010615410148519261619_" gradientUnits="userSpaceOnUse" x1="254.1362" y1="259.382" x2="253.5172" y2="173.696" gradientTransform="matrix(1 0 0 -1 0 408)">
			<stop  offset="0" style="stop-color:#FFF3DD"/>
			<stop  offset="0.45" style="stop-color:#FFE9C4"/>
			<stop  offset="1" style="stop-color:#E3D4AD"/>
		</linearGradient>
		<path style="fill:url(#SVGID_00000014603937064566539740000010615410148519261619_);" d="M245.7,202.5c-1.1-3.9-2.6-11.9-3-15.9
			c-1-9.3-0.7-35.7,6.4-37l16.1,85.1C258,236,248.2,211.6,245.7,202.5L245.7,202.5z"/>
		
			<linearGradient id="SVGID_00000005226032374787696880000002189523007631077293_" gradientUnits="userSpaceOnUse" x1="240.811" y1="239.3002" x2="277.5569" y2="186.4332" gradientTransform="matrix(1 0 0 -1 0 408)">
			<stop  offset="0" style="stop-color:#EBD5BC"/>
			<stop  offset="0.45" style="stop-color:#E4C4A0"/>
			<stop  offset="1" style="stop-color:#DBC7B0"/>
		</linearGradient>
		<path style="fill:url(#SVGID_00000005226032374787696880000002189523007631077293_);" d="M268.8,236.6l-6.4,1.2
			c-1.3,0.3-2.6-0.6-2.9-2l-16.1-85.2c-0.3-1.3,0.6-2.6,2-2.9l6.4-1.2c1.3-0.2,2.6,0.6,2.9,2l16.1,85.2
			C271,235,270.1,236.3,268.8,236.6z"/>
		
			<linearGradient id="SVGID_00000137817055759141676550000007440466273497528220_" gradientUnits="userSpaceOnUse" x1="257.6321" y1="235.3947" x2="268.5531" y2="207.5527" gradientTransform="matrix(1 0 0 -1 0 408)">
			<stop  offset="0" style="stop-color:#BEDBD6"/>
			<stop  offset="0.1" style="stop-color:#CEEDE8"/>
			<stop  offset="0.45" style="stop-color:#C3E0DB"/>
			<stop  offset="1" style="stop-color:#A5C9C2"/>
		</linearGradient>
		<path style="fill:url(#SVGID_00000137817055759141676550000007440466273497528220_);" d="M258.5,168.5c3.9,0,8.5,17.6,8.5,24.2
			s-2,10-2,10L258.5,168.5z"/>
		
			<linearGradient id="SVGID_00000057838841060254575350000006541437704096777122_" gradientUnits="userSpaceOnUse" x1="262.939" y1="139.703" x2="349.226" y2="139.703" gradientTransform="matrix(1 0 0 -1 0 408)">
			<stop  offset="0" style="stop-color:#95BDB6"/>
			<stop  offset="0.1" style="stop-color:#A3CFC8"/>
			<stop  offset="0.45" style="stop-color:#99C2BB"/>
			<stop  offset="1" style="stop-color:#7EABA2"/>
		</linearGradient>
		<path style="fill:url(#SVGID_00000057838841060254575350000006541437704096777122_);" d="M341.2,357.5l2.1,15.8h5.9l-28.5-209.9
			h-4.9l2.1,15.9l-11.9,10.2l-11.9-10.2l2.1-15.9h-4.9l-28.5,209.9h5.9l2.1-15.8l35.2-30.6L341.2,357.5L341.2,357.5z M310.8,322.8
			l23.3-20.3l5.9,45.3L310.8,322.8L310.8,322.8z M306.1,222.1l-15.7-13.4l0.3-2.2l15.4-13.4l15.4,13.4l0.3,2.2L306.1,222.1
			L306.1,222.1z M322.3,212.8l3.4,26.2l-16.9-14.4L322.3,212.8L322.3,212.8z M303.3,224.5l-16.9,14.4l3.4-26.2L303.3,224.5
			L303.3,224.5z M306.1,226.9l20.4,17.8l0.3,2.4l-20.7,17.8l-20.7-17.8l0.3-2.4L306.1,226.9L306.1,226.9z M332,287.1l-22.5-19.3
			l17.9-15.6L332,287.1z M284.7,252.2l17.9,15.6l-22.5,19.3L284.7,252.2z M306.1,270.9l26.9,23.4l0.2,1.3l-27.1,23.2L279,295.6
			l0.2-1.3L306.1,270.9L306.1,270.9z M318.4,182.4l2.6,19.7l-12.7-10.9L318.4,182.4z M293.8,182.4l10.1,8.8l-12.7,10.9L293.8,182.4z
			 M272.2,347.8l5.9-45.3l23.3,20.3L272.2,347.8L272.2,347.8z"/>
		
			<linearGradient id="SVGID_00000181771687948754753160000016518515119202976419_" gradientUnits="userSpaceOnUse" x1="255.2831" y1="144.0497" x2="375.196" y2="64.4407" gradientTransform="matrix(1 0 0 -1 0 408)">
			<stop  offset="0" style="stop-color:#BEDBD6"/>
			<stop  offset="0.1" style="stop-color:#CEEDE8"/>
			<stop  offset="0.45" style="stop-color:#C3E0DB"/>
			<stop  offset="1" style="stop-color:#A5C9C2"/>
		</linearGradient>
		<path style="fill:url(#SVGID_00000181771687948754753160000016518515119202976419_);" d="M356.8,387.7l3,18.3h8.5l-41.1-244h-7
			l3,18.4l-17.1,11.8L289,180.5l3-18.4h-7l-41.1,244h8.5l3-18.3l50.8-35.6L356.8,387.7z M312.8,347.4l33.6-23.6l8.5,52.6
			L312.8,347.4z M306.1,230.3l-22.7-15.6l0.4-2.5l22.3-15.6l22.3,15.6l0.4,2.5L306.1,230.3z M329.5,219.5l4.9,30.4l-24.4-16.8
			L329.5,219.5L329.5,219.5z M302,233.1l-24.4,16.8l4.9-30.4L302,233.1L302,233.1z M306.1,235.9l29.5,20.7l0.5,2.8L306.1,280
			l-29.9-20.6l0.5-2.8L306.1,235.9z M343.6,305.9l-32.5-22.4l25.9-18.1L343.6,305.9L343.6,305.9z M275.2,265.4l25.9,18.1l-32.5,22.4
			L275.2,265.4L275.2,265.4z M306.1,287l38.8,27.2l0.2,1.5l-39.1,26.9L267,315.8l0.2-1.5L306.1,287L306.1,287z M323.8,184.2
			l3.7,22.9l-18.3-12.6L323.8,184.2L323.8,184.2z M288.4,184.2l14.6,10.2L284.7,207L288.4,184.2L288.4,184.2z M257.2,376.4l8.5-52.6
			l33.6,23.6L257.2,376.4z"/>
		
			<linearGradient id="SVGID_00000109752058264780197530000008514337503459304096_" gradientUnits="userSpaceOnUse" x1="288.0207" y1="262.1349" x2="340.8257" y2="125.2569" gradientTransform="matrix(1 0 0 -1 0 408)">
			<stop  offset="0" style="stop-color:#EBD5BC"/>
			<stop  offset="0.45" style="stop-color:#E4C4A0"/>
			<stop  offset="1" style="stop-color:#DBC7B0"/>
		</linearGradient>
		<path style="fill:url(#SVGID_00000109752058264780197530000008514337503459304096_);" d="M315.5,146.3h-19.4c-2,0-3.7,1.6-3.7,3.6
			v84.3c0,2,1.6,3.7,3.7,3.7h19.4c2,0,3.7-1.6,3.7-3.7V150C319.2,148,317.6,146.3,315.5,146.3z"/>
		
			<linearGradient id="SVGID_00000032607924822023956800000007815736666093550501_" gradientUnits="userSpaceOnUse" x1="306.1917" y1="259.011" x2="305.5727" y2="173.316" gradientTransform="matrix(1 0 0 -1 0 408)">
			<stop  offset="0" style="stop-color:#FFF3DD"/>
			<stop  offset="0.45" style="stop-color:#FFE9C4"/>
			<stop  offset="1" style="stop-color:#E3D4AD"/>
		</linearGradient>
		<path style="fill:url(#SVGID_00000032607924822023956800000007815736666093550501_);" d="M316.7,150v84.3c0,0.6-0.5,1.1-1.1,1.1
			h-19.4c-0.6,0-1.1-0.5-1.1-1.1V150c0-0.6,0.5-1.1,1.1-1.1h19.4C316.2,148.8,316.7,149.4,316.7,150z"/>
		<g>
			<path id="line1" class="st12" d="M223.9,187.1c0-23.3,9.8-44.4,25.5-59.3
				l-3.9-3.2c-16.4,15.8-26.7,38-26.7,62.5c0,29.6,14.8,55.7,37.5,71.5c0.4-1.9,0.8-3.7,1.2-5.3
				C237.2,238.3,223.9,214.2,223.9,187.1z"/>
			<path id="line2" class="st12" d="M205.5,187.1c0-27.8,11.4-52.9,29.7-71.1
				l-3.9-3.2c-19,19.1-30.8,45.4-30.8,74.3c0,38.5,20.8,72.3,51.7,90.6c0.4-1.7,0.8-3.5,1.2-5.2
				C224.6,254.9,205.5,223.2,205.5,187.1L205.5,187.1z"/>
			<path id="line3" class="st12" d="M187,187.1c0-32.2,12.9-61.5,33.9-82.9
				L217,101c-21.7,22.3-35,52.7-35,86.1c0,47.4,26.8,88.6,66,109.4c0.4-1.7,0.8-3.3,1.1-5.1C212.2,271.3,187,232.1,187,187.1z"/>
		</g>
		<g>
			<path id="line4" class="st12" d="M354.5,253.2c0.4,1.7,0.8,3.4,1.2,5.3
				c22.7-15.7,37.5-41.9,37.5-71.5c0-24.5-10.2-46.7-26.7-62.5l-3.9,3.2c15.7,14.9,25.5,36,25.5,59.3
				C388.1,214.2,374.8,238.3,354.5,253.2z"/>
			<path id="line5" class="st12" d="M358.7,272.6c0.4,1.7,0.8,3.4,1.2,5.2
				c30.9-18.4,51.7-52.1,51.7-90.6c0-29-11.8-55.3-30.8-74.3l-3.9,3.2c18.3,18.2,29.7,43.4,29.7,71.1
				C406.5,223.2,387.4,254.9,358.7,272.6L358.7,272.6z"/>
			<path id="line6" class="st12" d="M362.9,291.4c0.4,1.7,0.8,3.4,1.1,5.1
				c39.2-20.8,66-62,66-109.4c0-33.5-13.3-63.8-35-86.1l-3.9,3.2c20.9,21.4,33.9,50.7,33.9,82.9C425,232.1,399.8,271.3,362.9,291.4z
				"/>
		</g>
	</g>
</g>
<g>
	<g>
		
		<linearGradient id="SVGID_00000072259043887566738610000016349296240986337694_" gradientUnits="userSpaceOnUse" x1="103.1518" y1="152.3785" x2="103.8398" y2="146.1435" gradientTransform="matrix(1 0 0 -1 0 408)">
			<stop  offset="0" style="stop-color:#BEDBD6"/>
			<stop  offset="0.1" style="stop-color:#CEEDE8"/>
			<stop  offset="0.45" style="stop-color:#C3E0DB"/>
			<stop  offset="1" style="stop-color:#A5C9C2"/>
		</linearGradient>
		<path style="fill:url(#SVGID_00000072259043887566738610000016349296240986337694_);" d="M111,256.9c0,0-10.1-2-13.6,0
			c-3.5,2,0,4.5,0,4.5s5.9-2.6,12.9,0L111,256.9z"/>
		
			<linearGradient id="SVGID_00000127744803460951489190000006705552064715469974_" gradientUnits="userSpaceOnUse" x1="118.2625" y1="172.807" x2="117.8525" y2="115.77" gradientTransform="matrix(1 0 0 -1 0 408)">
			<stop  offset="0" style="stop-color:#FFF3DD"/>
			<stop  offset="0.45" style="stop-color:#FFE9C4"/>
			<stop  offset="1" style="stop-color:#E3D4AD"/>
		</linearGradient>
		<path style="fill:url(#SVGID_00000127744803460951489190000006705552064715469974_);" d="M123.4,270.6c0.7-2.6,1.7-7.9,2-10.6
			c0.6-6.2,0.5-23.7-4.3-24.6L110.3,292C115.1,292.9,121.7,276.6,123.4,270.6L123.4,270.6z"/>
		
			<linearGradient id="SVGID_00000173856822506438181990000005188027288061516694_" gradientUnits="userSpaceOnUse" x1="98.545" y1="172.5647" x2="123.3691" y2="131.7947" gradientTransform="matrix(1 0 0 -1 0 408)">
			<stop  offset="0" style="stop-color:#EBD5BC"/>
			<stop  offset="0.45" style="stop-color:#E4C4A0"/>
			<stop  offset="1" style="stop-color:#DBC7B0"/>
		</linearGradient>
		<path style="fill:url(#SVGID_00000173856822506438181990000005188027288061516694_);" d="M107.9,293.2l4.3,0.8
			c0.9,0.2,1.8-0.4,1.9-1.3l10.8-56.7c0.2-0.9-0.4-1.7-1.3-1.9l-4.3-0.8c-0.9-0.2-1.8,0.4-1.9,1.3l-10.8,56.7
			C106.4,292.2,107,293.1,107.9,293.2z"/>
		
			<linearGradient id="SVGID_00000104695849336223771000000010516107516280753053_" gradientUnits="userSpaceOnUse" x1="113.2826" y1="163.1882" x2="111.2176" y2="146.0382" gradientTransform="matrix(1 0 0 -1 0 408)">
			<stop  offset="0" style="stop-color:#BEDBD6"/>
			<stop  offset="0.1" style="stop-color:#CEEDE8"/>
			<stop  offset="0.45" style="stop-color:#C3E0DB"/>
			<stop  offset="1" style="stop-color:#A5C9C2"/>
		</linearGradient>
		<path style="fill:url(#SVGID_00000104695849336223771000000010516107516280753053_);" d="M114.8,247.9c-2.6,0-5.7,11.7-5.7,16.1
			c0,4.4,1.3,6.7,1.3,6.7L114.8,247.9z"/>
		
			<linearGradient id="SVGID_00000165941718567320666810000003493718445757213083_" gradientUnits="userSpaceOnUse" x1="62.3748" y1="152.7468" x2="62.7189" y2="148.4138" gradientTransform="matrix(1 0 0 -1 0 408)">
			<stop  offset="0" style="stop-color:#BEDBD6"/>
			<stop  offset="0.1" style="stop-color:#CEEDE8"/>
			<stop  offset="0.45" style="stop-color:#C3E0DB"/>
			<stop  offset="1" style="stop-color:#A5C9C2"/>
		</linearGradient>
		<path style="fill:url(#SVGID_00000165941718567320666810000003493718445757213083_);" d="M55,256.9c0,0,10.1-2,13.6,0
			c3.5,2,0,4.5,0,4.5s-5.9-2.6-12.9,0L55,256.9z"/>
		
			<linearGradient id="SVGID_00000063602791737371463450000016590930296761797015_" gradientUnits="userSpaceOnUse" x1="48.2816" y1="173.307" x2="47.8719" y2="116.276" gradientTransform="matrix(1 0 0 -1 0 408)">
			<stop  offset="0" style="stop-color:#FFF3DD"/>
			<stop  offset="0.45" style="stop-color:#FFE9C4"/>
			<stop  offset="1" style="stop-color:#E3D4AD"/>
		</linearGradient>
		<path style="fill:url(#SVGID_00000063602791737371463450000016590930296761797015_);" d="M42.6,270.6c-0.7-2.6-1.7-7.9-2-10.6
			c-0.6-6.2-0.5-23.7,4.3-24.6L55.7,292C50.9,292.9,44.3,276.6,42.6,270.6L42.6,270.6z"/>
		
			<linearGradient id="SVGID_00000095313077826606569990000011330976774585845686_" gradientUnits="userSpaceOnUse" x1="39.4489" y1="159.9982" x2="63.857" y2="124.6822" gradientTransform="matrix(1 0 0 -1 0 408)">
			<stop  offset="0" style="stop-color:#EBD5BC"/>
			<stop  offset="0.45" style="stop-color:#E4C4A0"/>
			<stop  offset="1" style="stop-color:#DBC7B0"/>
		</linearGradient>
		<path style="fill:url(#SVGID_00000095313077826606569990000011330976774585845686_);" d="M58.1,293.2l-4.3,0.8
			c-0.9,0.2-1.8-0.4-1.9-1.3L41.1,236c-0.2-0.9,0.4-1.7,1.3-1.9l4.3-0.8c0.9-0.2,1.8,0.4,1.9,1.3l10.8,56.7
			C59.6,292.2,59,293.1,58.1,293.2z"/>
		
			<linearGradient id="SVGID_00000089573654951416626330000008445970611208548506_" gradientUnits="userSpaceOnUse" x1="50.6659" y1="157.3576" x2="57.9044" y2="138.7986" gradientTransform="matrix(1 0 0 -1 0 408)">
			<stop  offset="0" style="stop-color:#BEDBD6"/>
			<stop  offset="0.1" style="stop-color:#CEEDE8"/>
			<stop  offset="0.45" style="stop-color:#C3E0DB"/>
			<stop  offset="1" style="stop-color:#A5C9C2"/>
		</linearGradient>
		<path style="fill:url(#SVGID_00000089573654951416626330000008445970611208548506_);" d="M51.2,247.9c2.6,0,5.7,11.7,5.7,16.1
			c0,4.4-1.3,6.7-1.3,6.7L51.2,247.9z"/>
		
			<linearGradient id="SVGID_00000127017078940205279990000001006795513207266727_" gradientUnits="userSpaceOnUse" x1="54.1768" y1="93.6515" x2="111.934" y2="93.6515" gradientTransform="matrix(1 0 0 -1 0 408)">
			<stop  offset="0" style="stop-color:#95BDB6"/>
			<stop  offset="0.1" style="stop-color:#A3CFC8"/>
			<stop  offset="0.45" style="stop-color:#99C2BB"/>
			<stop  offset="1" style="stop-color:#7EABA2"/>
		</linearGradient>
		<path style="fill:url(#SVGID_00000127017078940205279990000001006795513207266727_);" d="M106.6,373.7l1.4,10.5h4L92.9,244.5h-3.3
			L91,255l-7.9,6.8l-7.9-6.8l1.4-10.6h-3.3L54.2,384.2h4l1.4-10.5l23.5-20.4L106.6,373.7L106.6,373.7z M86.2,350.6l15.6-13.5l4,30.1
			L86.2,350.6L86.2,350.6z M83,283.6l-10.5-8.9l0.2-1.5l10.3-8.9l10.3,8.9l0.2,1.5L83,283.6L83,283.6z M93.9,277.4l2.3,17.4
			l-11.3-9.6L93.9,277.4L93.9,277.4z M81.2,285.2l-11.3,9.6l2.3-17.4L81.2,285.2L81.2,285.2z M83,286.8l13.7,11.8l0.2,1.6L83,312.1
			l-13.9-11.8l0.2-1.6L83,286.8L83,286.8z M100.4,326.9L85.4,314l12-10.4L100.4,326.9z M68.7,303.7l12,10.4l-15.1,12.8L68.7,303.7z
			 M83,316.1l18,15.6l0.1,0.9L83.1,348l-18.1-15.4l0.1-0.9L83,316.1L83,316.1z M91.3,257.1l1.7,13.1l-8.5-7.2L91.3,257.1z
			 M74.8,257.1l6.8,5.9l-8.5,7.2L74.8,257.1z M60.4,367.3l4-30.1l15.6,13.5L60.4,367.3L60.4,367.3z"/>
		
			<linearGradient id="SVGID_00000168102287953538279300000015634910500800353424_" gradientUnits="userSpaceOnUse" x1="49.1227" y1="96.6497" x2="129.1086" y2="43.2467" gradientTransform="matrix(1 0 0 -1 0 408)">
			<stop  offset="0" style="stop-color:#BEDBD6"/>
			<stop  offset="0.1" style="stop-color:#CEEDE8"/>
			<stop  offset="0.45" style="stop-color:#C3E0DB"/>
			<stop  offset="1" style="stop-color:#A5C9C2"/>
		</linearGradient>
		<path style="fill:url(#SVGID_00000168102287953538279300000015634910500800353424_);" d="M117,393.8l2,12.2h5.7L97.2,243.6h-4.7
			l2,12.3l-11.5,7.9l-11.5-7.9l2-12.3h-4.7L41.4,406h5.7l2-12.2l34-23.7L117,393.8z M87.6,367l22.5-15.7l5.7,35L87.6,367z
			 M83.1,289.1l-15.2-10.4l0.3-1.7l14.9-10.4L98,277l0.3,1.7L83.1,289.1z M98.7,281.9l3.3,20.2l-16.3-11.2L98.7,281.9L98.7,281.9z
			 M80.3,290.9L64,302.1l3.3-20.2L80.3,290.9L80.3,290.9z M83.1,292.8l19.7,13.7l0.3,1.9l-20,13.7l-20-13.7l0.3-1.9L83.1,292.8z
			 M108.1,339.4l-21.7-14.9l17.3-12.1L108.1,339.4L108.1,339.4z M62.4,312.4l17.3,12.1L58,339.4L62.4,312.4L62.4,312.4z M83.1,326.8
			l26,18.1l0.2,1l-26.2,17.9l-26.2-17.9l0.2-1L83.1,326.8L83.1,326.8z M94.9,258.3l2.5,15.2l-12.3-8.4L94.9,258.3L94.9,258.3z
			 M71.2,258.3l9.8,6.8l-12.3,8.4L71.2,258.3L71.2,258.3z M50.3,386.3l5.7-35L78.5,367L50.3,386.3z"/>
		
			<linearGradient id="SVGID_00000083769024610282295180000008794004144954820285_" gradientUnits="userSpaceOnUse" x1="71.0826" y1="175.1835" x2="106.0812" y2="83.9485" gradientTransform="matrix(1 0 0 -1 0 408)">
			<stop  offset="0" style="stop-color:#EBD5BC"/>
			<stop  offset="0.45" style="stop-color:#E4C4A0"/>
			<stop  offset="1" style="stop-color:#DBC7B0"/>
		</linearGradient>
		<path style="fill:url(#SVGID_00000083769024610282295180000008794004144954820285_);" d="M89.4,233.2h-13c-1.4,0-2.4,1.1-2.4,2.4
			v56.1c0,1.3,1.1,2.4,2.4,2.4h13c1.4,0,2.4-1.1,2.4-2.4v-56.1C91.8,234.3,90.7,233.2,89.4,233.2z"/>
		
			<linearGradient id="SVGID_00000013915827140876948590000009717733854708807813_" gradientUnits="userSpaceOnUse" x1="83.126" y1="173.06" x2="82.7164" y2="116.023" gradientTransform="matrix(1 0 0 -1 0 408)">
			<stop  offset="0" style="stop-color:#FFF3DD"/>
			<stop  offset="0.45" style="stop-color:#FFE9C4"/>
			<stop  offset="1" style="stop-color:#E3D4AD"/>
		</linearGradient>
		<path style="fill:url(#SVGID_00000013915827140876948590000009717733854708807813_);" d="M90.2,235.6v56.1c0,0.4-0.3,0.8-0.8,0.8
			h-13c-0.4,0-0.8-0.3-0.8-0.8v-56.1c0-0.4,0.3-0.8,0.8-0.8h13C89.8,234.8,90.2,235.2,90.2,235.6z"/>
		<g>
			<path id="line1" class="st12" d="M28,260.3c0-15.5,6.6-29.5,17.1-39.5
				l-2.6-2.1c-11,10.5-17.8,25.3-17.8,41.6c0,19.7,9.9,37.1,25.1,47.6c0.3-1.3,0.5-2.5,0.8-3.6C36.9,294.4,28,278.4,28,260.3z"/>
			<path id="line2" class="st12" d="M15.7,260.3c0-18.5,7.6-35.2,19.9-47.3
				l-2.6-2.1c-12.7,12.7-20.6,30.2-20.6,49.5c0,25.6,13.9,48.1,34.6,60.3c0.3-1.2,0.5-2.3,0.8-3.4C28.5,305.4,15.7,284.3,15.7,260.3
				L15.7,260.3z"/>
			<path id="line3" class="st12" d="M3.4,260.3c0-21.4,8.6-40.9,22.7-55.2
				l-2.6-2.1C8.9,217.8,0,238,0,260.3c0,31.5,17.9,59,44.2,72.8c0.3-1.1,0.5-2.2,0.8-3.4C20.2,316.3,3.4,290.2,3.4,260.3z"/>
		</g>
		<g>
			<path id="line4" class="st12" d="M115.4,304.3c0.3,1.1,0.5,2.3,0.8,3.6
				c15.2-10.5,25.1-27.9,25.1-47.6c0-16.3-6.8-31.1-17.8-41.6l-2.6,2.1c10.5,9.9,17.1,24,17.1,39.5
				C138,278.4,129.1,294.4,115.4,304.3z"/>
			<path id="line5" class="st12" d="M118.3,317.2c0.3,1.1,0.5,2.3,0.8,3.4
				c20.7-12.2,34.6-34.7,34.6-60.3c0-19.3-7.9-36.8-20.6-49.5l-2.6,2.1c12.3,12.1,19.9,28.9,19.9,47.3
				C150.3,284.3,137.5,305.4,118.3,317.2L118.3,317.2z"/>
			<path id="line6" class="st12" d="M121.1,329.8c0.3,1.2,0.5,2.3,0.8,3.4
				c26.2-13.8,44.2-41.3,44.2-72.8c0-22.3-8.9-42.5-23.4-57.3l-2.6,2.1c14,14.2,22.7,33.7,22.7,55.2
				C162.6,290.2,145.8,316.3,121.1,329.8z"/>
		</g>
	</g>
</g>
</svg>
