<svg width="554" height="432" viewBox="0 0 554 432" fill="none" xmlns="http://www.w3.org/2000/svg">
<g clip-path="url(#clip0_56_14277)">
<path d="M252.195 12.4125C243.492 22.1202 233.196 32.7683 219.581 37.1704C201.153 43.1288 182.426 48.1644 163.495 52.2542C130.316 59.4194 93.5902 65.2524 71.4087 90.9402C66.6858 96.4098 62.7465 102.823 61.5746 109.955C59.6685 121.558 65.2544 133.342 63.7825 145.01C60.295 172.646 21.7173 183.202 14.0611 209.985C9.97709 224.275 15.8878 239.309 21.6944 252.99C31.3874 275.831 41.3415 299.092 57.6635 317.784C73.9855 336.474 98.0484 350.166 122.752 347.781C129.078 347.17 135.382 345.533 141.704 346.178C150.318 347.057 157.969 352.084 164.404 357.875C183.215 374.797 196.118 400.088 220.07 408.253C239.376 414.836 260.855 408.084 278.379 397.646C287.7 392.093 296.514 385.452 306.729 381.796C320.559 376.847 335.736 377.795 350.34 379.37C369.227 381.408 388.187 384.393 407.123 382.878C426.059 381.364 445.413 374.758 458.069 360.597C464.501 353.402 468.913 344.615 475.127 337.233C490.721 318.714 515.855 310.903 533.07 293.88C555.476 271.725 560.613 234.143 544.978 206.79C531.185 182.662 502.713 163.637 504.796 135.925C505.556 125.808 510.597 116.369 511.238 106.244C512.087 92.8122 505.071 80.0716 496.506 69.6881C463.827 30.0723 403.98 15.7067 356.865 36.1418C346.398 28.8866 338.761 17.584 328.323 10.0024C306.689 -5.71302 275.114 -1.36733 252.2 12.4161L252.195 12.4125Z" fill="#00DDF7"/>
<path d="M532.269 212.085C518.476 187.957 490.004 168.932 492.087 141.22C492.847 131.103 497.888 121.664 498.529 111.54C499.377 98.1072 492.362 85.3666 483.797 74.9832C451.117 35.3673 391.271 21.0017 344.156 41.4368C333.688 34.1817 326.052 22.879 315.614 15.2974C293.979 -0.417998 262.619 3.8677 239.705 17.6511C235.7 31.3833 220.49 38.0651 206.875 42.4672C188.448 48.4256 169.72 53.4611 150.79 57.551C117.611 64.7162 80.8846 70.5493 58.7031 96.237C53.9801 101.707 50.0408 108.12 48.8689 115.252C46.9628 126.854 52.5488 138.639 51.0768 150.307C47.5893 177.942 9.01169 188.499 1.35546 215.282C-2.72857 229.572 3.18215 244.606 8.98875 258.287C18.6817 281.127 28.6359 304.389 44.9578 323.081C61.2798 341.771 85.3428 355.463 110.046 353.077C116.372 352.467 122.676 350.829 128.998 351.475C137.613 352.354 145.264 357.381 151.699 363.171C170.509 380.094 183.412 405.384 207.364 413.55C226.671 420.133 248.15 413.381 265.674 402.942C274.994 397.39 283.808 390.749 294.024 387.093C307.854 382.144 323.03 383.091 337.635 384.667C356.521 386.705 375.482 389.69 394.418 388.176C413.353 386.662 432.708 380.057 445.364 365.896C451.795 358.7 456.208 349.914 462.422 342.532C478.015 324.013 503.149 316.202 520.364 299.179C542.77 277.023 547.908 239.442 532.272 212.089L532.269 212.085Z" fill="#E7F4FA"/>
<path d="M205.363 23.1296C197.004 20.9982 188.448 18.8492 179.583 19.5743C165.444 20.73 152.496 28.9503 140.327 36.8918C138.883 37.834 137.385 38.8291 136.478 40.2618C134.464 43.4377 136.377 47.6193 139.655 49.0361C142.934 50.4529 148.042 51.044 151.757 50.4829C159.268 49.3501 165.873 48.4803 169.413 47.0759C180.546 42.6578 184.141 41.8092 195.769 39.5119C199.962 38.6827 204.392 36.9341 206.817 33.4107C209.242 29.8872 208.391 24.377 204.406 23.3748L205.363 23.1313V23.1296Z" fill="#00DDF7"/>
<path d="M201.81 21.7497C193.451 19.6183 184.895 17.4693 176.03 18.1944C161.891 19.3501 148.943 27.5704 136.774 35.5119C135.331 36.4541 133.832 37.4492 132.925 38.8819C130.911 42.0578 132.824 46.2394 136.102 47.6562C139.381 49.073 144.489 49.6641 148.204 49.103C155.715 47.9703 162.32 47.1004 165.86 45.696C176.993 41.2779 180.588 40.4293 192.216 38.132C196.409 37.3028 200.839 35.5543 203.264 32.0308C205.689 28.5073 204.839 22.9971 200.853 21.9949L201.81 21.7514V21.7497Z" fill="#E7F4FA"/>
<path d="M193.284 88.438C193.344 90.8817 194.844 97.4893 203.31 115.142C213.176 135.708 238.946 174.118 242.04 198.89C242.04 198.898 242.041 198.906 242.043 198.913C242.673 203.967 242.357 208.452 240.765 212.104C240.463 212.801 240.112 213.466 239.712 214.101L220.984 227.295C218.293 226.533 215.562 224.102 212.165 219.964C208.889 215.975 204.992 210.401 199.914 203.197C194.657 195.739 191.386 186.356 189.418 176.61C184.032 149.957 188.375 120.61 188.375 120.61C188.832 112.028 191.049 99.7054 192.436 92.6249C192.784 90.8552 193.081 89.4172 193.282 88.4415L193.284 88.438Z" fill="#99C5CC"/>
<g style="mix-blend-mode:screen" opacity="0.61">
<path d="M193.982 120.53C194.911 128.357 196.379 136.078 198.171 143.686C199.923 151.308 202.064 158.81 204.537 166.173C207.015 173.541 210.077 180.648 213.003 187.803C214.475 191.379 216.018 194.926 217.613 198.455C219.18 202.001 220.883 205.479 222.491 209.039L222.237 209.196C219.895 206.082 217.714 202.839 215.763 199.46C214.74 197.796 213.854 196.057 212.91 194.345C212.445 193.486 212.032 192.6 211.591 191.729C211.157 190.854 210.714 189.98 210.306 189.093C208.633 185.557 207.189 181.908 205.876 178.213C205.255 176.35 204.613 174.498 204.034 172.622C203.421 170.759 202.867 168.875 202.299 166.995C200.084 159.462 198.213 151.816 196.738 144.076C196.017 140.201 195.384 136.306 194.861 132.39C194.339 128.474 193.903 124.542 193.688 120.573L193.979 120.53H193.982Z" fill="#77A5BA"/>
</g>
<g style="mix-blend-mode:multiply" opacity="0.32">
<path d="M192.438 92.6214C192.786 90.8517 193.082 89.4137 193.284 88.438C193.344 90.8817 194.844 97.4893 203.31 115.142C213.176 135.708 238.946 174.118 242.04 198.89L234.426 204.132C234.426 204.132 227.975 167.682 215.748 149.9C204.549 133.626 194.117 98.4438 192.438 92.6214Z" fill="#175C62"/>
</g>
<path d="M250.804 223.551L241.416 239.277L212.705 236.241C211.688 235.634 210.634 235.006 209.542 234.353C208.49 233.725 207.465 233.038 206.466 232.297C200.468 227.848 195.394 221.448 191.146 214.278C177.584 191.401 172.41 160.702 172.41 160.702C170.124 152.161 168.326 139.058 167.401 131.47C167.17 129.573 166.995 128.024 166.878 126.972C167.71 129.303 171.229 134.885 184.867 147.411C185.463 147.958 186.09 148.519 186.743 149.089C190.55 152.425 195.269 156.164 200.41 160.199C201.372 160.954 202.348 161.718 203.336 162.495C206.307 164.824 209.383 167.243 212.477 169.734C218.46 174.549 224.507 179.623 229.99 184.832C234.436 189.054 238.511 193.364 241.877 197.689C244.449 200.995 246.607 204.309 248.201 207.599C248.204 207.606 248.206 207.614 248.21 207.622C250.41 212.169 251.531 216.674 251.176 221.056C251.111 221.893 250.988 222.724 250.809 223.553L250.804 223.551Z" fill="#ADD5DB"/>
<g style="mix-blend-mode:screen" opacity="0.61">
<path d="M177.708 157.622C181.07 164.69 184.911 171.368 189.025 177.76C193.105 184.188 197.516 190.291 202.2 196.085C206.889 201.88 212.05 207.107 217.098 212.455C219.63 215.123 222.218 217.725 224.853 220.28C227.465 222.867 230.185 225.316 232.841 227.895L232.648 228.185C229.436 226.429 226.337 224.465 223.414 222.244C221.914 221.185 220.522 219.977 219.083 218.83C218.37 218.248 217.696 217.614 217.001 217.007C216.311 216.393 215.613 215.788 214.944 215.148C212.235 212.626 209.708 209.874 207.288 207.005C206.109 205.537 204.911 204.092 203.765 202.587C202.594 201.114 201.469 199.589 200.334 198.077C195.843 191.981 191.644 185.594 187.789 178.904C185.878 175.542 184.041 172.12 182.304 168.612C180.567 165.106 178.907 161.539 177.445 157.817L177.708 157.622Z" fill="#77A5BA"/>
</g>
<g style="mix-blend-mode:multiply" opacity="0.32">
<path d="M167.399 131.47C167.168 129.573 166.993 128.024 166.877 126.972C167.708 129.303 171.227 134.885 184.863 147.409C200.753 161.999 237.407 185.31 248.196 207.598L242.624 216.748C242.624 216.748 224.945 184.971 207.694 174.339C191.898 164.612 170.839 136.195 167.399 131.47Z" fill="#175C62"/>
</g>
<path d="M461.559 21.7127V233.401C461.559 236.643 458.929 239.272 455.685 239.272H218.769C216.462 239.272 214.466 237.942 213.504 236.008C213.114 235.223 212.895 234.337 212.895 233.401V21.7127C212.895 18.4698 215.525 15.8408 218.769 15.8408H455.685C458.929 15.8408 461.559 18.4698 461.559 21.7127Z" fill="#E3E3E3"/>
<path d="M216.681 25.2449V221.875C216.681 224.374 218 226.398 219.623 226.398H453.574C453.828 226.394 454.075 226.339 454.31 226.241C454.368 226.219 454.425 226.193 454.481 226.163C454.63 226.089 454.771 225.995 454.907 225.888C455.092 225.738 455.265 225.561 455.426 225.36L455.466 225.305C456.093 224.478 456.49 223.248 456.49 221.877V25.2449C456.49 22.7465 455.175 20.7192 453.548 20.7192H219.627C218.003 20.7192 216.685 22.7448 216.685 25.2449H216.681Z" fill="white"/>
<path d="M315.866 161.705C317.524 161.705 318.868 160.361 318.868 158.703C318.868 157.046 317.524 155.702 315.866 155.702C314.208 155.702 312.864 157.046 312.864 158.703C312.864 160.361 314.208 161.705 315.866 161.705Z" fill="#A6A8A9"/>
<path d="M315.866 172.492C317.524 172.492 318.868 171.149 318.868 169.491C318.868 167.833 317.524 166.49 315.866 166.49C314.208 166.49 312.864 167.833 312.864 169.491C312.864 171.149 314.208 172.492 315.866 172.492Z" fill="#A6A8A9"/>
<path d="M315.866 172.492C317.524 172.492 318.868 171.149 318.868 169.491C318.868 167.833 317.524 166.49 315.866 166.49C314.208 166.49 312.864 167.833 312.864 169.491C312.864 171.149 314.208 172.492 315.866 172.492Z" fill="#E7F4FA"/>
<path d="M315.866 183.28C317.524 183.28 318.868 181.936 318.868 180.279C318.868 178.621 317.524 177.277 315.866 177.277C314.208 177.277 312.864 178.621 312.864 180.279C312.864 181.936 314.208 183.28 315.866 183.28Z" fill="#A6A8A9"/>
<path d="M315.866 183.28C317.524 183.28 318.868 181.936 318.868 180.279C318.868 178.621 317.524 177.277 315.866 177.277C314.208 177.277 312.864 178.621 312.864 180.279C312.864 181.936 314.208 183.28 315.866 183.28Z" fill="#E6E6E6"/>
<path d="M315.866 194.067C317.524 194.067 318.868 192.723 318.868 191.066C318.868 189.408 317.524 188.064 315.866 188.064C314.208 188.064 312.864 189.408 312.864 191.066C312.864 192.723 314.208 194.067 315.866 194.067Z" fill="#FFF1D1"/>
<path d="M358.604 155.702H327.13C326.334 155.702 325.688 156.348 325.688 157.144V159.732C325.688 160.528 326.334 161.174 327.13 161.174H358.604C359.4 161.174 360.046 160.528 360.046 159.732V157.144C360.046 156.348 359.4 155.702 358.604 155.702Z" fill="#E6E6E6"/>
<path d="M358.604 166.756H327.13C326.334 166.756 325.688 167.401 325.688 168.197V170.786C325.688 171.582 326.334 172.227 327.13 172.227H358.604C359.4 172.227 360.046 171.582 360.046 170.786V168.197C360.046 167.401 359.4 166.756 358.604 166.756Z" fill="#E6E6E6"/>
<path d="M358.604 166.756H327.13C326.334 166.756 325.688 167.401 325.688 168.197V170.786C325.688 171.582 326.334 172.227 327.13 172.227H358.604C359.4 172.227 360.046 171.582 360.046 170.786V168.197C360.046 167.401 359.4 166.756 358.604 166.756Z" fill="#E6E6E6"/>
<path d="M358.604 177.808H327.13C326.334 177.808 325.688 178.453 325.688 179.25V181.838C325.688 182.634 326.334 183.279 327.13 183.279H358.604C359.4 183.279 360.046 182.634 360.046 181.838V179.25C360.046 178.453 359.4 177.808 358.604 177.808Z" fill="#E6E6E6"/>
<path d="M358.604 177.808H327.13C326.334 177.808 325.688 178.453 325.688 179.25V181.838C325.688 182.634 326.334 183.279 327.13 183.279H358.604C359.4 183.279 360.046 182.634 360.046 181.838V179.25C360.046 178.453 359.4 177.808 358.604 177.808Z" fill="#E6E6E6"/>
<path d="M358.604 188.862H327.13C326.334 188.862 325.688 189.508 325.688 190.304V192.892C325.688 193.688 326.334 194.334 327.13 194.334H358.604C359.4 194.334 360.046 193.688 360.046 192.892V190.304C360.046 189.508 359.4 188.862 358.604 188.862Z" fill="#E6E6E6"/>
<path d="M247.38 158.994H239.945V200.348H247.38V158.994Z" fill="#E6E6E6"/>
<path d="M257.913 161.861H250.478V200.348H257.913V161.861Z" fill="#E6E6E6"/>
<path d="M268.445 157.387H261.009V200.348H268.445V157.387Z" fill="#E6E6E6"/>
<path d="M278.978 154.749H271.542V200.348H278.978V154.749Z" fill="#E6E6E6"/>
<path d="M289.509 158.994H282.073V200.348H289.509V158.994Z" fill="#E6E6E6"/>
<path d="M306.982 202.799H231.302V145.343H233.949V200.152H306.982V202.799Z" fill="#E6E6E6"/>
<path d="M356.226 125.649H344.366C343.457 125.649 342.719 126.386 342.719 127.296V138.999C342.719 139.908 343.457 140.645 344.366 140.645H356.226C357.136 140.645 357.873 139.908 357.873 138.999V127.296C357.873 126.386 357.136 125.649 356.226 125.649Z" fill="#E6E6E6"/>
<path d="M383.772 126.422H364.912C364.782 126.422 364.677 126.527 364.677 126.657V130.671C364.677 130.801 364.782 130.906 364.912 130.906H383.772C383.901 130.906 384.006 130.801 384.006 130.671V126.657C384.006 126.527 383.901 126.422 383.772 126.422Z" fill="#E6E6E6"/>
<path d="M389.958 134.925H368.47C368.34 134.925 368.235 135.03 368.235 135.159V137.937C368.235 138.066 368.34 138.171 368.47 138.171H389.958C390.087 138.171 390.192 138.066 390.192 137.937V135.159C390.192 135.03 390.087 134.925 389.958 134.925Z" fill="#E6E6E6"/>
<path d="M408.976 128.432H390.427C390.297 128.432 390.192 128.537 390.192 128.666V132.061C390.192 132.191 390.297 132.296 390.427 132.296H408.976C409.106 132.296 409.211 132.191 409.211 132.061V128.666C409.211 128.537 409.106 128.432 408.976 128.432Z" fill="#E6E6E6"/>
<path d="M418.105 135.389H399.08C398.954 135.389 398.851 135.491 398.851 135.618V137.633C398.851 137.76 398.954 137.862 399.08 137.862H418.105C418.231 137.862 418.334 137.76 418.334 137.633V135.618C418.334 135.491 418.231 135.389 418.105 135.389Z" fill="#E6E6E6"/>
<path d="M433.518 34.2295H346.38C344.358 34.2295 342.719 35.8678 342.719 37.8888V118.472C342.719 120.493 344.358 122.131 346.38 122.131H433.518C435.539 122.131 437.178 120.493 437.178 118.472V37.8888C437.178 35.8678 435.539 34.2295 433.518 34.2295Z" fill="#E6E6E6"/>
<g style="mix-blend-mode:multiply" opacity="0.08">
<path d="M346.239 34.2295H433.659C435.6 34.2295 437.178 35.8051 437.178 37.7477V50.6771H342.719V37.7477C342.719 35.8069 344.296 34.2295 346.239 34.2295Z" fill="#BD934A"/>
</g>
<g style="mix-blend-mode:multiply" opacity="0.09">
<path d="M400.826 58.3594H358.147C357.883 58.3594 357.668 58.5734 357.668 58.8375V60.2684C357.668 60.5325 357.883 60.7466 358.147 60.7466H400.826C401.09 60.7466 401.304 60.5325 401.304 60.2684V58.8375C401.304 58.5734 401.09 58.3594 400.826 58.3594Z" fill="#004E7C"/>
</g>
<g style="mix-blend-mode:multiply" opacity="0.09">
<path d="M400.657 70.8496H358.316C357.958 70.8496 357.668 71.1395 357.668 71.4971V72.5893C357.668 72.9469 357.958 73.2368 358.316 73.2368H400.657C401.014 73.2368 401.304 72.9469 401.304 72.5893V71.4971C401.304 71.1395 401.014 70.8496 400.657 70.8496Z" fill="#004E7C"/>
</g>
<g style="mix-blend-mode:multiply" opacity="0.09">
<path d="M400.826 83.3394H358.147C357.883 83.3394 357.668 83.5534 357.668 83.8175V85.2484C357.668 85.5125 357.883 85.7266 358.147 85.7266H400.826C401.09 85.7266 401.304 85.5125 401.304 85.2484V83.8175C401.304 83.5534 401.09 83.3394 400.826 83.3394Z" fill="#004E7C"/>
</g>
<path d="M251.267 45.1211H232.55C232.087 45.1211 231.711 45.4963 231.711 45.9592V55.0281C231.711 55.491 232.087 55.8662 232.55 55.8662H251.267C251.73 55.8662 252.105 55.491 252.105 55.0281V45.9592C252.105 45.4963 251.73 45.1211 251.267 45.1211Z" fill="#FFEABA"/>
<path d="M319.89 45.1211H258.18C257.717 45.1211 257.341 45.4963 257.341 45.9592V55.0281C257.341 55.491 257.717 55.8662 258.18 55.8662H319.89C320.353 55.8662 320.729 55.491 320.729 55.0281V45.9592C320.729 45.4963 320.353 45.1211 319.89 45.1211Z" fill="#F5F5F5"/>
<path d="M251.267 72.6719H232.55C232.087 72.6719 231.711 73.0471 231.711 73.51V82.5789C231.711 83.0418 232.087 83.417 232.55 83.417H251.267C251.73 83.417 252.105 83.0418 252.105 82.5789V73.51C252.105 73.0471 251.73 72.6719 251.267 72.6719Z" fill="#A6A8A9"/>
<path d="M319.89 72.6719H258.18C257.717 72.6719 257.341 73.0471 257.341 73.51V82.5789C257.341 83.0418 257.717 83.417 258.18 83.417H319.89C320.353 83.417 320.729 83.0418 320.729 82.5789V73.51C320.729 73.0471 320.353 72.6719 319.89 72.6719Z" fill="#F5F5F5"/>
<g style="mix-blend-mode:multiply" opacity="0.09">
<path d="M251.267 100.223H232.55C232.087 100.223 231.711 100.598 231.711 101.061V110.13C231.711 110.593 232.087 110.968 232.55 110.968H251.267C251.73 110.968 252.105 110.593 252.105 110.13V101.061C252.105 100.598 251.73 100.223 251.267 100.223Z" fill="#004E7C"/>
</g>
<path d="M319.361 100.223H258.709C257.954 100.223 257.341 100.835 257.341 101.591V109.601C257.341 110.356 257.954 110.968 258.709 110.968H319.361C320.116 110.968 320.729 110.356 320.729 109.601V101.591C320.729 100.835 320.116 100.223 319.361 100.223Z" fill="#F5F5F5"/>
<path d="M251.267 127.774H232.55C232.087 127.774 231.711 128.149 231.711 128.612V137.681C231.711 138.144 232.087 138.519 232.55 138.519H251.267C251.73 138.519 252.105 138.144 252.105 137.681V128.612C252.105 128.149 251.73 127.774 251.267 127.774Z" fill="#E7F4FA"/>
<path d="M319.89 127.774H258.18C257.717 127.774 257.341 128.149 257.341 128.612V137.681C257.341 138.144 257.717 138.519 258.18 138.519H319.89C320.353 138.519 320.729 138.144 320.729 137.681V128.612C320.729 128.149 320.353 127.774 319.89 127.774Z" fill="#F5F5F5"/>
<path d="M502.081 178.035C501.594 180.768 498.735 187.526 485.969 203.469C471.095 222.045 434.862 253.26 427.058 279.791C427.056 279.8 427.053 279.807 427.051 279.816C425.461 285.229 425.057 290.446 426.26 295.327C426.488 296.257 426.779 297.174 427.129 298.081L446.414 321.851C449.64 322.262 453.198 320.806 457.819 317.738C462.27 314.779 467.709 310.324 474.787 304.584C482.113 298.644 487.484 289.585 491.418 279.502C502.182 251.93 502.214 216.709 502.214 216.709C503.158 206.795 502.718 191.819 502.335 183.161C502.238 180.998 502.145 179.232 502.081 178.034V178.035Z" fill="#A5C4C9"/>
<g style="mix-blend-mode:screen" opacity="0.61">
<path d="M495.779 213.974C493.37 222.38 490.357 230.411 486.991 238.162C483.67 245.947 479.919 253.412 475.812 260.565C471.698 267.719 466.958 274.302 462.365 281.003C460.059 284.349 457.678 287.627 455.237 290.859C452.826 294.125 450.272 297.25 447.81 300.512L448.076 300.81C451.305 298.398 454.37 295.766 457.192 292.869C458.655 291.473 459.972 289.924 461.352 288.438C462.033 287.685 462.662 286.88 463.318 286.104C463.968 285.321 464.626 284.544 465.247 283.733C467.778 280.527 470.064 277.088 472.208 273.533C473.241 271.721 474.298 269.932 475.286 268.086C476.31 266.271 477.272 264.402 478.246 262.548C482.085 255.081 485.548 247.326 488.571 239.277C490.062 235.239 491.46 231.138 492.733 226.958C494.003 222.778 495.179 218.542 496.107 214.159L495.779 213.974Z" fill="#77A5BA"/>
</g>
<g style="mix-blend-mode:multiply" opacity="0.32">
<path d="M502.335 183.163C502.238 181 502.145 179.234 502.081 178.036C501.594 180.769 498.735 187.526 485.969 203.469C471.095 222.045 434.862 253.26 427.058 279.791L434.919 289.316C434.919 289.316 448.587 251.175 465.703 236.864C481.375 223.769 499.406 188.945 502.337 183.161L502.335 183.163Z" fill="#175C62"/>
</g>
<path d="M412.879 247.803L402.787 291.765C401.032 299.408 394.942 306.121 387.273 306.917C387.273 306.917 354.624 309.624 353.233 311.353C352.333 312.473 352.448 312.036 354.163 312.953C362.333 317.316 381.933 324.707 421.527 325.2C422.358 325.482 439.7 324.175 454.146 320.545C459.97 319.083 464.413 314.283 465.555 308.288C468.523 292.701 474.549 261.537 477.102 248.338C477.715 245.172 475.341 242.226 472.173 242.219C462.577 242.196 442.942 241.965 422.333 240.645C417.889 240.361 413.893 243.389 412.88 247.803H412.879Z" fill="#4E4E4E"/>
<path d="M335.836 413.501C335.538 413.501 335.234 413.462 334.931 413.38C333.062 412.883 331.95 410.963 332.449 409.095L357.171 316.404C357.67 314.536 359.589 313.424 361.458 313.924C363.327 314.421 364.439 316.341 363.939 318.209L339.218 410.9C338.8 412.467 337.384 413.501 335.835 413.501H335.836Z" fill="#FFC948"/>
<path d="M419.852 432C419.797 432 419.742 432 419.688 431.996C417.755 431.906 416.26 430.269 416.35 428.337L420.773 332.51C420.863 330.578 422.503 329.08 424.434 329.173C426.366 329.263 427.861 330.9 427.771 332.832L423.348 428.66C423.262 430.537 421.712 432 419.852 432Z" fill="#FFC948"/>
<path d="M464.488 415.702C462.852 415.702 461.389 414.55 461.057 412.884L442.273 318.813C441.894 316.916 443.126 315.072 445.023 314.693C446.922 314.315 448.765 315.545 449.144 317.442L467.928 411.513C468.308 413.41 467.076 415.254 465.179 415.633C464.947 415.679 464.716 415.702 464.488 415.702Z" fill="#FFC948"/>
<path d="M395.792 388.559C395.736 388.559 395.681 388.559 395.625 388.555C393.692 388.464 392.199 386.824 392.291 384.892L395.967 307.085C396.059 305.153 397.7 303.658 399.631 303.752C401.564 303.843 403.057 305.483 402.965 307.415L399.287 385.222C399.199 387.098 397.649 388.559 395.791 388.559H395.792Z" fill="#BD934A"/>
<g style="mix-blend-mode:multiply" opacity="0.32">
<path d="M395.792 388.559C395.736 388.559 395.681 388.559 395.625 388.555C393.692 388.464 392.199 386.824 392.291 384.892L395.967 307.085C396.059 305.153 397.7 303.658 399.631 303.752C401.564 303.843 403.057 305.483 402.965 307.415L399.287 385.222C399.199 387.098 397.649 388.559 395.791 388.559H395.792Z" fill="#BD934A"/>
</g>
<g style="mix-blend-mode:multiply" opacity="0.32">
<path d="M361.458 313.924C359.587 313.424 357.668 314.536 357.171 316.404L354.349 326.987L359.714 334.057L363.941 318.209C364.439 316.341 363.328 314.421 361.459 313.924H361.458Z" fill="#BD934A"/>
</g>
<g style="mix-blend-mode:multiply" opacity="0.32">
<path d="M426.79 354.118L427.773 332.832C427.863 330.9 426.368 329.261 424.435 329.173C422.505 329.08 420.863 330.578 420.775 332.51L419.575 358.497L426.792 354.118H426.79Z" fill="#BD934A"/>
</g>
<g style="mix-blend-mode:multiply" opacity="0.32">
<path d="M449.142 317.442C448.763 315.545 446.92 314.315 445.021 314.693C443.124 315.072 441.894 316.916 442.272 318.813L446.887 341.924L453.26 338.057L449.144 317.442H449.142Z" fill="#BD934A"/>
</g>
<path d="M372.608 324.312C372.608 324.312 390.484 332.718 419.287 332.562C419.755 333.03 450.127 331.063 459.308 320.138C459.243 320.203 417.886 313.417 417.886 313.417L379.74 322.445L372.608 324.314V324.312Z" fill="#4E4E4E"/>
<path d="M410.464 251.754L400.334 295.715C398.572 303.358 392.22 309.024 384.522 309.82L352.241 313.16C350.307 313.359 351.975 311.799 352.649 313.629C355.568 321.567 379.4 328.658 419.144 329.148C419.979 329.431 437.386 328.123 451.887 324.494C457.732 323.031 462.192 318.232 463.338 312.237C466.317 296.65 472.365 265.486 474.93 252.286C475.544 249.121 473.161 246.175 469.981 246.167C460.348 246.145 440.639 245.913 419.952 244.594C415.491 244.31 411.481 247.337 410.464 251.752V251.754Z" fill="#4482A1"/>
<path d="M411.329 248.309L401.052 292.271C399.266 299.914 392.822 305.579 385.012 306.375L352.266 309.715C350.303 309.915 349.792 312.542 351.539 313.457C359.857 317.821 379.816 325.212 420.134 325.704C420.981 325.986 438.639 324.679 453.35 321.05C459.28 319.587 463.804 314.788 464.967 308.792C467.99 293.206 474.125 262.041 476.725 248.842C477.348 245.677 474.932 242.73 471.705 242.723C461.935 242.7 441.94 242.469 420.955 241.149C416.43 240.865 412.362 243.893 411.329 248.307V248.309Z" fill="#25566E"/>
<path d="M339.308 420.005L339.571 423.321C339.619 423.922 340.144 424.372 340.746 424.325L354.356 423.247C354.938 423.201 355.381 422.705 355.362 422.123L355.243 418.4L339.306 420.005H339.308Z" fill="#07203B"/>
<path d="M342.142 390.833L332.658 401.718L341.339 414.012L354.643 407.364C354.643 407.364 352.723 404.455 354.913 398.793L342.141 390.833H342.142Z" fill="white"/>
<path d="M333.113 399.465C333.113 399.465 337.494 402.231 340.107 407.777C342.033 410.263 346.662 413.485 354.315 406.651C354.357 406.762 357.592 412.83 355.247 418.399C355.226 418.582 352.451 420.075 344.49 420.389C341.694 420.5 338.927 421.008 336.29 421.94C333.101 423.065 328.727 424.396 326.318 424.279C326.108 424.295 304.14 426.88 300.421 417.253C300.01 416.23 300.824 412.999 307.379 413.114C307.379 413.114 318.81 413.476 324.228 407.241C324.317 407.022 329.719 400.578 333.115 399.465H333.113Z" fill="#0B223B"/>
<path d="M330.914 405.015C330.944 405.395 330.66 405.728 330.28 405.758C329.901 405.788 329.567 405.504 329.537 405.125C329.507 404.746 329.791 404.412 330.171 404.382C330.55 404.352 330.884 404.636 330.914 405.015Z" fill="#103052"/>
<path d="M327.892 407.11C327.922 407.489 327.638 407.823 327.259 407.853C326.879 407.883 326.546 407.598 326.516 407.219C326.486 406.84 326.77 406.506 327.149 406.476C327.529 406.446 327.862 406.73 327.892 407.11Z" fill="#103052"/>
<g style="mix-blend-mode:multiply" opacity="0.31">
<path d="M346.429 399.465C346.341 399.382 340.891 399.069 340.891 399.069L333.127 400.938C333.127 400.938 340.335 409.46 355.273 409.04C355.051 408.348 354.822 407.775 354.643 407.364V407.362C354.456 406.933 354.326 406.681 354.315 406.654C353.957 405.675 353.533 403.687 354.294 400.728C350.639 400.163 346.479 399.512 346.429 399.466V399.465Z" fill="#4E4E4E"/>
</g>
<g style="mix-blend-mode:screen" opacity="0.24">
<path d="M302.635 415.12C302.435 415.275 302.237 415.454 302.156 415.692C302.008 416.133 302.333 416.622 302.756 416.812C303.18 417.003 303.669 416.966 304.129 416.907C305.836 416.689 307.511 416.204 309.23 416.14C310.421 416.096 311.614 416.255 312.802 416.175C314.719 416.048 316.593 415.275 318.049 414.024C318.842 413.342 319.643 412.74 318.503 412.38C317.478 412.057 315.559 412.846 314.521 413.01C312.673 413.303 310.838 413.204 308.974 413.283C306.765 413.377 304.428 413.723 302.633 415.12H302.635Z" fill="#0F2D4B"/>
</g>
<path d="M302.144 379.711L302.689 382.992C302.788 383.587 303.351 383.991 303.948 383.892L317.416 381.657C317.991 381.561 318.39 381.03 318.323 380.452L317.887 376.753L302.146 379.714L302.144 379.711Z" fill="#07203B"/>
<path d="M417.667 182.734L436.103 175.829C436.103 175.829 431.285 181.247 431.197 181.305C431.109 181.363 425.738 183.488 425.417 183.638C425.095 183.786 422.06 185.053 422.002 185.134C421.943 185.215 418.498 186.263 418.352 186.209C418.205 186.154 417.667 182.734 417.667 182.734Z" fill="#BFBFBF"/>
<path d="M397.794 218.065L388.253 216.863C389.49 214.479 390.464 205.326 391.027 202.638C391.918 198.39 393.72 194.187 394.635 192.214C394.982 191.465 395.598 190.875 396.361 190.558C398.922 189.494 405.051 187.034 408.108 186.567C410.102 186.258 412.097 185.949 414.089 185.61L417.079 185.104C418.075 184.922 419.072 184.753 420.067 184.561L420.265 188.853C425.635 195.953 428.382 219.771 428.382 219.771L419.847 304.28L390.616 296.767L395.196 217.223C395.51 214.495 400.718 218.146 397.794 218.065Z" fill="#4E4E4E"/>
<path d="M302.476 350.404L293.956 362.058L303.656 373.567L316.345 365.807C316.345 365.807 314.182 363.073 315.882 357.245L302.476 350.404Z" fill="white"/>
<path d="M294.218 359.775C294.218 359.775 298.819 362.157 301.897 367.461C304.027 369.774 308.916 372.588 315.956 365.126C316.007 365.234 319.749 371.003 317.887 376.752C317.88 376.937 315.245 378.661 307.34 379.653C304.564 380.002 301.851 380.745 299.302 381.899C296.221 383.292 291.976 384.992 289.567 385.08C289.359 385.115 267.693 389.565 263.166 380.289C262.668 379.305 263.203 376.016 269.744 375.572C269.744 375.572 281.164 374.956 286.03 368.281C286.099 368.057 290.931 361.174 294.219 359.775H294.218Z" fill="#0B223B"/>
<path d="M295.878 362.832C295.94 363.208 295.686 363.564 295.31 363.626C294.934 363.688 294.578 363.434 294.516 363.058C294.454 362.682 294.708 362.326 295.084 362.264C295.46 362.202 295.817 362.456 295.878 362.832Z" fill="#103052"/>
<path d="M292.5 365.493C292.562 365.869 292.308 366.225 291.932 366.287C291.556 366.349 291.2 366.095 291.138 365.719C291.076 365.343 291.33 364.987 291.706 364.925C292.082 364.863 292.439 365.117 292.5 365.493Z" fill="#103052"/>
<path d="M289.668 367.836C289.729 368.212 289.475 368.568 289.099 368.63C288.723 368.692 288.367 368.438 288.305 368.062C288.243 367.686 288.498 367.33 288.874 367.268C289.249 367.206 289.606 367.46 289.668 367.836Z" fill="#103052"/>
<g style="mix-blend-mode:multiply" opacity="0.31">
<path d="M310.236 354.363L310.183 354.335C309.572 354.084 303.775 352.205 302.748 351.987C302.511 351.935 302.082 351.821 301.549 351.674L298.399 355.983C298.399 355.983 306.727 367.626 318.03 370.222C317.573 368.258 316.809 366.661 316.346 365.805V365.804C316.124 365.392 315.972 365.151 315.958 365.126C315.427 363.988 314.671 361.405 315.886 357.243L310.24 354.361L310.236 354.363Z" fill="#4E4E4E"/>
</g>
<path d="M334.507 402.653C334.537 403.033 334.253 403.366 333.874 403.396C333.494 403.426 333.161 403.142 333.131 402.763C333.101 402.383 333.385 402.05 333.764 402.02C334.144 401.99 334.477 402.274 334.507 402.653Z" fill="#103052"/>
<path d="M401.574 275.021L354.721 266.573C349.142 265.567 343.404 265.876 337.965 267.474L337.151 267.714C334.23 268.573 331.735 270.49 330.151 273.09L326.046 279.839C324.767 281.942 323.69 284.158 322.825 286.463C317.825 299.807 299.947 347.447 297.633 352.705C299.975 356.601 310.693 363.727 318.33 365.024C317.935 364.741 350.573 296.063 350.573 296.063C350.573 296.063 356.571 285.282 380.923 310.164C392.291 316.08 413.641 332.958 442.205 307.656C441.809 307.374 451.425 298.111 446.852 287.369C445.777 287.2 401.576 275.022 401.576 275.022L401.574 275.021Z" fill="#12365C"/>
<g style="mix-blend-mode:screen" opacity="0.17">
<path d="M326.927 291.662C327.79 289.358 328.868 287.142 330.148 285.039L334.253 278.29C335.835 275.689 338.332 273.771 341.253 272.914L342.066 272.674C347.506 271.075 353.244 270.767 358.823 271.772L405.676 280.22C405.676 280.22 437.937 289.108 448.006 291.802C447.858 290.366 447.496 288.88 446.85 287.364C445.775 287.195 401.574 275.017 401.574 275.017L354.721 266.569C349.142 265.564 343.404 265.872 337.965 267.471L337.151 267.711C334.23 268.57 331.735 270.486 330.151 273.087L326.046 279.836C324.767 281.939 323.69 284.155 322.825 286.459C317.825 299.803 299.947 347.444 297.633 352.701C298.381 353.945 299.984 355.517 302.065 357.125C305.388 349.077 322.118 304.498 326.929 291.661L326.927 291.662Z" fill="#3C1865"/>
</g>
<g style="mix-blend-mode:multiply" opacity="0.26">
<path d="M347.089 290.399C344.202 290.877 341.175 293.589 339.327 295.689C336.288 299.141 334.366 303.417 332.661 307.688C325.508 325.613 321.376 344.753 312.615 361.947C312.435 362.3 312.253 362.672 312.105 363.053C314.253 363.985 316.39 364.69 318.328 365.02C318.025 364.803 337.215 324.222 346.128 305.421C346.945 302.044 347.862 298.69 348.879 295.362C349.908 291.994 351.466 289.672 347.089 290.397V290.399Z" fill="#3E1762"/>
</g>
<path d="M374.423 300.366C374.423 300.366 359.818 286.491 351.336 289.99C349.149 290.118 342.795 298.062 342.795 298.062C342.795 298.062 337.534 303.466 335.259 327.539C334.525 327.313 332.622 393.619 331.939 400.004C334.509 401.684 337.905 407.433 355.362 405.76C355.644 405.365 355.854 394.859 355.854 394.859L357.278 390.004C357.824 387.423 357.857 385.427 357.511 383.35L357.453 377.171L360.288 352.308C360.288 352.308 363.521 334.535 364.95 323.298C365.563 318.491 370.143 315.227 374.883 316.237C385.859 318.573 402.642 322.481 409.661 321.126C409.889 321.154 392.284 319.843 374.421 300.366H374.423Z" fill="#103052"/>
<g style="mix-blend-mode:multiply" opacity="0.26">
<path d="M409.665 321.124C409.85 321.147 398.307 320.288 384.41 309.578C379.377 308.371 374.324 307.246 369.252 306.215C367.778 305.915 366.234 305.626 364.79 306.046C363.602 306.39 362.598 307.186 361.715 308.052C356.226 313.426 354.569 321.615 354.46 329.295C354.352 336.976 355.512 344.698 354.486 352.31C353.823 357.231 352.254 362.025 351.994 366.982C351.622 374.072 353.874 381.62 350.838 388.039C350.22 389.344 349.414 390.959 350.303 392.097C350.771 392.695 351.592 392.94 352.042 393.551C353.007 394.862 351.671 396.64 350.31 397.535C348.95 398.429 347.252 399.475 347.337 401.1C347.377 401.864 347.831 402.535 348.101 403.251C348.438 404.139 348.489 405.093 348.554 406.046C348.951 406.057 349.364 406.06 349.783 406.06C351.465 406.05 353.316 405.956 355.363 405.76C355.646 405.365 355.856 394.86 355.856 394.86L357.28 390.004C357.825 387.423 357.859 385.427 357.513 383.351L357.455 377.172L360.289 352.308C360.289 352.308 363.523 334.535 364.952 323.298C365.496 319.032 369.165 315.985 373.299 316.059C373.922 316.046 374.557 316.103 375.196 316.239C375.757 316.359 376.336 316.507 376.929 316.676C387.849 319.026 403.066 322.402 409.661 321.128L409.665 321.124Z" fill="#3E1762"/>
</g>
<g style="mix-blend-mode:screen" opacity="0.17">
<path d="M332.224 400.204C332.224 400.204 332.239 400.216 332.248 400.222C332.34 400.291 332.432 400.361 332.527 400.437C332.534 400.442 332.539 400.448 332.547 400.453C332.644 400.532 332.744 400.613 332.847 400.7C332.862 400.712 332.878 400.726 332.894 400.74C332.977 400.811 333.062 400.882 333.15 400.956C333.627 401.36 334.169 401.82 334.825 402.297C335.591 390.256 337.324 331.255 338.018 331.469C340.293 307.395 345.554 301.991 345.554 301.991C345.554 301.991 351.91 294.05 354.094 293.919C357.146 292.659 358.743 291.345 359.142 290.341C356.368 289.367 353.63 289.044 351.339 289.988C350.757 290.023 349.876 290.616 348.899 291.463C348.731 291.608 348.561 291.759 348.39 291.918C347.684 292.569 346.948 293.323 346.249 294.073C345.912 294.434 345.586 294.796 345.273 295.145C345.25 295.172 345.226 295.198 345.203 295.225C345.016 295.436 344.836 295.641 344.663 295.84C344.552 295.968 344.444 296.093 344.34 296.213C344.17 296.41 344.011 296.597 343.863 296.772C343.757 296.897 343.658 297.014 343.567 297.125C343.45 297.264 343.346 297.39 343.254 297.501C342.967 297.85 342.799 298.058 342.799 298.058C342.799 298.058 342.494 298.372 341.999 299.182C341.929 299.297 341.857 299.422 341.779 299.556C341.747 299.611 341.717 299.666 341.685 299.724C341.645 299.796 341.604 299.87 341.562 299.948C341.41 300.23 341.248 300.55 341.076 300.908C341.043 300.98 341.008 301.052 340.972 301.127C340.912 301.255 340.851 301.389 340.789 301.529C340.755 301.605 340.722 301.682 340.686 301.76C340.614 301.924 340.542 302.093 340.468 302.272C339.947 303.521 339.379 305.102 338.803 307.08C338.75 307.26 338.699 307.443 338.646 307.628C338.332 308.747 338.016 309.987 337.707 311.358C337.605 311.815 337.501 312.286 337.4 312.773C337.298 313.26 337.197 313.761 337.098 314.278C336.999 314.795 336.901 315.328 336.804 315.875C336.659 316.697 336.516 317.555 336.376 318.449C336.331 318.748 336.285 319.049 336.239 319.356C335.877 321.809 335.547 324.526 335.261 327.534C334.825 327.4 333.976 350.72 333.217 371.028C333.168 372.364 333.118 373.687 333.069 374.989C332.608 387.232 332.192 397.655 331.943 399.999C332.036 400.059 332.13 400.126 332.225 400.197L332.224 400.204Z" fill="#3C1865"/>
</g>
<g style="mix-blend-mode:multiply" opacity="0.26">
<path d="M388.336 314.287C399.834 320.538 416.89 327.384 438.256 310.922C438.154 309.313 437.843 307.713 437.469 306.141C436.553 302.289 435.02 297.284 431.426 295.039C427.67 292.693 426.769 297.144 425.487 299.932C422.383 306.69 416.491 311.905 409.474 314.347C402.699 316.703 395.176 316.498 388.336 314.289V314.287Z" fill="#3E1762"/>
</g>
<g style="mix-blend-mode:multiply" opacity="0.26">
<path d="M397.63 285.6C397.63 285.6 410.295 298.831 429.562 296.029C429.562 296.262 424.158 284.356 424.158 284.356L402.972 280.854L397.63 285.6Z" fill="#3E1762"/>
</g>
<path d="M399.938 212.68C401.883 202.511 410.113 191.925 418.278 185.72L435.669 181.182C444.317 185.157 451.202 190.508 452.655 200.039C454.473 211.974 452.912 224.422 448.204 235.512C446.075 240.529 443.313 245.291 441.774 250.526C439.555 258.067 440.088 266.393 443.156 273.607C443.758 275.024 444.746 280.275 443.438 281.064C431.431 288.31 417.351 289.676 405.967 288.386C399.381 287.64 390.623 278.752 390.094 275.714C387.531 261.003 397.993 222.846 399.938 212.678V212.68Z" fill="white"/>
<path d="M453.031 223.324C454.287 222.685 455.101 222.249 455.101 222.249L460.532 204.944C461.875 200.665 463.412 196.288 459.953 193.435L451.522 188.602L436.793 181.712C436.793 181.712 429.914 188.512 426.22 198.356C424.626 202.606 419.411 238.012 418.013 255.519C415.538 286.498 425.284 318.47 425.284 318.47L440.067 314.124C450.224 311.139 456.804 301.334 455.719 290.806C454.778 281.677 453.901 269.868 453.853 257.276C453.816 247.501 453.458 234.986 453.032 223.324H453.031Z" fill="#4E4E4E"/>
<path d="M435.422 178.824L417.617 189.377L418.606 161.376L434.557 157.44L435.422 178.824Z" fill="#AD4E44"/>
<g style="mix-blend-mode:multiply" opacity="0.54">
<path d="M418.553 162.897L417.969 179.431C421.138 178.097 423.593 175.664 425.355 173.289C426.878 171.237 427.783 168.794 428.009 166.249L428.443 161.35H418.71L418.671 161.358L418.551 162.895L418.553 162.897Z" fill="#F4908C"/>
</g>
<path d="M435.422 144.627C435.422 158.696 425.546 174.232 415.909 173.376C399.799 171.943 401.267 142.421 401.843 138.563C403.996 124.091 409.621 122.027 419.301 122.027C428.982 122.027 435.422 130.558 435.422 144.627Z" fill="#C6594E"/>
<g style="mix-blend-mode:screen" opacity="0.36">
<path d="M421.73 124.841C423.433 124.841 425.034 125.111 426.52 125.623C424.123 123.449 421.16 122.21 417.773 122.046C409.026 122.285 403.879 124.869 401.843 138.561C401.366 141.762 400.275 162.619 409.111 170.456C402.924 161.309 403.844 144.246 404.271 141.374C406.426 126.902 412.049 124.838 421.73 124.838V124.841Z" fill="#F4908C"/>
</g>
<path d="M418.613 193.694C418.613 193.694 418.609 193.679 418.618 193.656C418.62 193.677 418.618 193.694 418.613 193.694Z" fill="#021F42"/>
<path d="M416.874 188.29C417.277 188.371 418.424 185.097 418.424 185.097L419.137 185.164L422.257 189.014C422.257 189.014 418.812 193.238 418.618 193.656C418.569 193.204 416.49 188.211 416.874 188.288V188.29Z" fill="#FFC948"/>
<g style="mix-blend-mode:multiply" opacity="0.32">
<path d="M418.009 186.208C418.604 187.136 419.599 188.707 420.856 190.75C421.608 189.813 422.257 189.015 422.257 189.015L419.137 185.166L418.805 185.134C418.666 185.153 418.526 185.169 418.392 185.183C418.332 185.351 418.188 185.75 418.007 186.208H418.009Z" fill="#BD934A"/>
</g>
<path d="M418.659 185.12L416.5 190.037L415.821 186.394L417.667 182.734L418.659 185.12Z" fill="white"/>
<path d="M419.541 192.191C407.672 223.657 410.877 261.272 410.877 261.272L404.472 265.193C404.472 265.193 402.582 262.019 401.88 260.611C403.878 210.987 414.386 199.085 418.145 191.389C418.676 190.3 419.539 192.191 419.539 192.191H419.541Z" fill="#FFC948"/>
<path d="M436.617 179.045C436.702 179.77 436.79 181.711 436.79 181.711C436.79 181.711 429.875 189.254 422.249 191.447C419.831 187.487 418.661 185.121 418.661 185.121C418.661 185.121 427.03 181.063 436.105 175.83C436.105 175.83 436.532 178.3 436.619 179.047L436.617 179.045Z" fill="white"/>
<path d="M432.711 155.702C432.52 156.237 432.413 156.812 432.415 157.44C432.522 156.847 432.621 156.269 432.711 155.702Z" fill="#310137"/>
<path d="M445.779 136.333C445.727 133.068 444.707 129.945 443.359 126.974C442.471 125.019 441.128 123.013 440.42 122.392C440.152 121.628 440.749 123.46 439.965 123.334C439.407 123.246 438.867 123.435 438.368 123.722C437.542 123.947 436.991 124.681 436.246 125.448C433.821 127.95 431.95 131.068 431.006 134.431C431.006 134.431 435.157 140.294 432.713 155.702C433.403 153.774 435.193 152.387 436.965 150.965C437.408 150.61 437.858 150.248 438.304 149.876L438.322 151.686C439.232 149.782 441.142 148.592 442.542 147.014C445.069 144.165 445.837 140.14 445.779 136.333Z" fill="#06203B"/>
<path d="M441.825 146.645C441.97 143.881 441.287 141.179 440.316 138.587C439.679 136.881 438.657 135.108 438.094 134.542C437.911 133.88 438.311 135.465 437.655 135.313C437.189 135.205 436.719 135.334 436.281 135.549C435.57 135.692 435.06 136.28 434.386 136.887C432.19 138.863 430.427 141.395 429.434 144.186C429.434 144.186 434.633 144.352 431.677 157.249C432.372 155.658 431.942 159.621 433.523 158.518C433.918 158.243 434.321 157.964 434.718 157.675L434.63 159.208C435.51 157.65 437.194 156.752 438.47 155.497C440.773 153.232 441.654 149.871 441.823 146.647L441.825 146.645Z" fill="#06203B"/>
<path d="M438.925 146.435C441.827 147.058 443.677 149.906 443.055 152.794C442.436 155.684 439.441 162.581 432.817 161.159C429.238 160.392 430.526 154.767 431.146 151.877C431.767 148.987 436.024 145.813 438.925 146.434V146.435Z" fill="#C6594E"/>
<g style="mix-blend-mode:multiply" opacity="0.54">
<path d="M434.1 152.53C434.337 151.427 436.447 149.594 437.956 149.467C438.098 149.454 438.17 149.467 438.189 149.472C438.784 149.599 439.292 149.948 439.622 150.457C439.949 150.959 440.06 151.559 439.935 152.143C439.614 153.638 437.983 157.966 434.808 158.232C434.414 158.266 433.989 158.239 433.532 158.155C433.263 157.419 433.442 155.589 434.061 152.71L434.1 152.531V152.53Z" fill="#F4908C"/>
</g>
<g style="mix-blend-mode:multiply" opacity="0.26">
<path d="M453.851 257.274C453.842 254.926 453.814 252.419 453.772 249.804C453.525 249.762 453.269 249.746 453.009 249.765C452.175 249.827 451.402 250.213 450.671 250.626C445.297 253.659 441.068 258.313 436.566 262.532C432.063 266.751 426.935 270.726 420.863 271.839C419.79 272.035 418.738 272.377 417.762 272.833C417.951 277.097 418.302 281.258 418.752 285.222C423.885 286.824 439.414 282.974 442.992 279.684C448.557 274.567 449.065 274.781 450.738 266.156C451.017 264.716 452.928 264.076 453.927 262.917C453.885 261.057 453.858 259.175 453.851 257.273V257.274Z" fill="#3E1762"/>
</g>
<g style="mix-blend-mode:multiply" opacity="0.26">
<path d="M438.459 232.997C437.641 233.12 437.025 233.791 436.513 234.442C434.379 237.159 432.798 240.287 430.549 242.911C429.707 243.892 428.765 244.818 427.863 245.765C429.582 238.027 431.541 230.332 434.704 223.079C438.479 214.421 443.998 208.636 450.404 202.007C443.315 203.946 438.186 211.383 434.914 217.509C430.399 225.964 427.323 235.184 425.854 244.657C425.665 245.878 425.524 247.18 425.662 248.401C425.145 249.16 424.712 249.966 424.423 250.854C423.936 252.35 423.864 254.042 422.903 255.29C422.028 256.428 420.572 256.969 419.585 258.012C418.518 259.141 417.679 261.989 418.984 263.281C419.67 263.96 420.482 263.637 421.341 263.722C422.48 263.833 423.364 264.381 424.377 264.856C426.55 265.872 429.252 265.938 431.264 264.634C432.921 263.561 433.922 261.746 434.815 259.985C437.607 254.48 440.028 248.731 441.244 242.68C441.716 240.329 441.998 237.859 441.317 235.56C440.918 234.219 439.843 232.787 438.459 232.997Z" fill="#3E1762"/>
</g>
<g style="mix-blend-mode:screen" opacity="0.24">
<path d="M267.491 376.523C266.657 376.671 265.774 376.879 265.194 377.496C264.615 378.114 264.549 379.271 265.271 379.713C265.702 379.975 266.249 379.908 266.748 379.834C269.043 379.487 271.337 379.141 273.633 378.793C274.657 378.638 275.695 378.479 276.639 378.058C278.164 377.376 279.507 375.997 280.432 374.626C281.99 372.314 279.147 374.051 278.148 374.529C274.918 376.071 270.963 375.907 267.491 376.521V376.523Z" fill="#0F2D4B"/>
</g>
<path d="M405.688 141.215C405.005 140.991 404.317 140.751 403.627 140.496C401.145 139.579 398.962 137.988 397.024 136.184C392.707 132.169 387.434 125.053 390.692 118.858C391.35 117.607 392.674 116.633 394.084 116.725C395.221 116.799 396.197 117.512 397.213 118.025C401.571 120.231 405.443 120.338 410.132 118.745C413.975 117.439 417.651 115.502 421.671 114.948C425.692 114.394 430.358 115.65 432.266 119.23C432.406 119.493 432.542 119.777 432.796 119.933C433.195 120.176 433.703 120.005 434.153 119.881C436.149 119.336 439.363 120.337 441.031 123.311C444.727 129.901 436.624 136.08 432.086 138.905C423.403 144.309 414.829 144.205 405.688 141.215Z" fill="#06203B"/>
<g style="mix-blend-mode:multiply" opacity="0.12">
<path d="M421.673 114.948C417.653 115.502 413.976 117.439 410.134 118.745C405.445 120.338 401.573 120.231 397.215 118.025C396.198 117.512 395.222 116.797 394.086 116.725C392.868 116.645 391.715 117.363 390.999 118.366C392.166 122.477 395.051 126.118 398.795 128.153C404.298 131.147 411.297 130.827 416.841 127.907C422.086 125.144 426.271 120.227 431.977 118.74C429.917 115.537 425.503 114.42 421.673 114.948Z" fill="#3E1762"/>
</g>
<path d="M81.3417 160.104C82.7148 151.676 82.2065 135.567 82.2488 135.553L82.3389 132.523C82.5577 128.363 84.515 125.215 87.5789 122.399C88.4984 121.635 93.2267 119.481 93.2267 119.481C95.2245 118.734 97.3389 118.352 99.4709 118.352C105.034 118.352 110.498 119.828 115.308 122.632L124.561 128.026C134.355 133.418 148.5 144.987 143.71 165.41C141.3 174.129 126.139 189.631 93.5161 179.722C85.1292 177.175 79.9297 168.769 81.3417 160.102V160.104Z" fill="#4E4E4E"/>
<path d="M128.342 156.598C129.589 161.823 129.247 167.7 126.813 172.31C124.01 177.619 118.74 180.679 113.447 181.3C108.154 181.921 102.833 180.366 97.879 178.094C94.5733 176.578 91.1388 174.471 89.6086 170.708C88.5743 168.164 88.5726 165.235 88.5196 162.417C88.3925 155.598 87.8666 148.634 89.4533 142.072C91.0399 135.51 95.3622 129.294 101.132 128.516C105.623 127.911 109.905 130.625 113.806 133.312C117.57 135.905 120.378 138.868 122.45 143.386C124.471 147.794 127.171 151.693 128.342 156.595V156.598Z" fill="black"/>
<path d="M95.7346 179.248L108.885 180.814L108.574 187.11C108.574 187.11 104.13 188.068 103.821 188.246C103.513 188.424 98.8374 187.141 98.6044 186.547C98.3732 185.952 98.2179 183.539 97.639 183.083C97.0601 182.628 95.7346 179.248 95.7346 179.248Z" fill="#A79FB7"/>
<path d="M125.066 246.462L135.085 290.104C136.827 297.691 142.872 304.357 150.486 305.148C150.486 305.148 182.899 307.835 184.277 309.551C185.172 310.665 185.057 310.229 183.354 311.139C175.244 315.471 155.786 322.809 116.479 323.296C115.655 323.577 98.4385 322.278 84.0985 318.675C78.3166 317.223 73.9061 312.459 72.773 306.508C69.8256 291.034 63.846 260.097 61.3098 246.993C60.7027 243.851 63.0589 240.927 66.2039 240.918C75.7292 240.896 95.221 240.668 115.682 239.355C120.094 239.073 124.06 242.079 125.066 246.462Z" fill="#4E4E4E"/>
<path d="M201.549 410.955C201.845 410.955 202.147 410.916 202.447 410.836C204.304 410.342 205.407 408.437 204.911 406.581L180.37 314.564C179.874 312.708 177.969 311.605 176.113 312.101C174.256 312.595 173.153 314.501 173.649 316.357L198.192 408.373C198.607 409.928 200.013 410.955 201.55 410.955H201.549Z" fill="#FFC948"/>
<path d="M118.142 429.32C118.197 429.32 118.25 429.32 118.304 429.316C120.223 429.228 121.707 427.601 121.619 425.683L117.228 330.553C117.14 328.635 115.511 327.148 113.594 327.239C111.675 327.328 110.191 328.954 110.279 330.872L114.67 426.003C114.757 427.866 116.294 429.32 118.142 429.32Z" fill="#FFC948"/>
<path d="M73.8319 413.14C75.4557 413.14 76.9082 411.997 77.2382 410.344L95.8864 316.955C96.2623 315.072 95.041 313.241 93.1561 312.865C91.2711 312.489 89.4409 313.71 89.065 315.594L70.4168 408.983C70.0409 410.866 71.2622 412.697 73.1472 413.073C73.3766 413.119 73.606 413.14 73.8319 413.14Z" fill="#FFC948"/>
<path d="M142.027 386.195C142.081 386.195 142.138 386.195 142.194 386.191C144.113 386.101 145.595 384.473 145.504 382.555L141.854 305.313C141.764 303.396 140.133 301.912 138.216 302.005C136.298 302.095 134.815 303.724 134.907 305.642L138.557 382.883C138.645 384.744 140.182 386.195 142.029 386.195H142.027Z" fill="#BD934A"/>
<g style="mix-blend-mode:multiply" opacity="0.32">
<path d="M142.027 386.195C142.081 386.195 142.138 386.195 142.194 386.191C144.113 386.101 145.595 384.473 145.504 382.555L141.854 305.313C141.764 303.396 140.133 301.912 138.216 302.005C136.298 302.095 134.815 303.724 134.907 305.642L138.557 382.883C138.645 384.744 140.182 386.195 142.029 386.195H142.027Z" fill="#BD934A"/>
</g>
<g style="mix-blend-mode:multiply" opacity="0.32">
<path d="M176.113 312.103C177.969 311.607 179.874 312.712 180.37 314.566L183.172 325.071L177.846 332.09L173.649 316.357C173.155 314.503 174.258 312.597 176.113 312.101V312.103Z" fill="#BD934A"/>
</g>
<g style="mix-blend-mode:multiply" opacity="0.32">
<path d="M111.255 352.004L110.279 330.872C110.191 328.954 111.674 327.328 113.594 327.239C115.511 327.148 117.14 328.635 117.228 330.553L118.419 356.352L111.255 352.004Z" fill="#BD934A"/>
</g>
<g style="mix-blend-mode:multiply" opacity="0.32">
<path d="M89.065 315.594C89.4409 313.712 91.2711 312.491 93.1561 312.865C95.0392 313.241 96.2623 315.072 95.8864 316.955L91.3047 339.897L84.9792 336.058L89.065 315.593V315.594Z" fill="#BD934A"/>
</g>
<path d="M165.043 322.414C165.043 322.414 147.299 330.758 118.703 330.604C118.239 331.068 88.0872 329.115 78.9732 318.271C79.0367 318.336 120.094 311.598 120.094 311.598L157.962 320.559L165.041 322.414H165.043Z" fill="#4E4E4E"/>
<path d="M127.463 250.383L137.519 294.025C139.268 301.612 145.572 307.237 153.216 308.027L185.262 311.343C187.182 311.542 185.527 309.991 184.858 311.808C181.96 319.688 158.301 326.728 118.844 327.215C118.017 327.496 100.735 326.197 86.3399 322.594C80.5369 321.142 76.1087 316.378 74.9721 310.427C72.0141 294.953 66.0098 264.016 63.4648 250.912C62.8541 247.77 65.2191 244.846 68.3766 244.837C77.9389 244.814 97.5048 244.587 118.041 243.274C122.47 242.992 126.451 245.998 127.461 250.381L127.463 250.383Z" fill="#4482A1"/>
<path d="M126.603 246.963L136.804 290.606C138.578 298.193 144.974 303.817 152.727 304.608L185.236 307.923C187.184 308.122 187.692 310.728 185.957 311.639C177.699 315.97 157.885 323.309 117.86 323.796C117.02 324.076 99.4886 322.777 84.8856 319.175C78.9979 317.723 74.5079 312.959 73.3536 307.007C70.3533 291.534 64.2625 260.597 61.6805 247.493C61.061 244.35 63.4613 241.427 66.6646 241.418C76.3646 241.395 96.2129 241.167 117.046 239.855C121.538 239.572 125.578 242.579 126.601 246.962L126.603 246.963Z" fill="#25566E"/>
<path d="M114.492 185.479C115.678 184.659 117.129 184.324 118.552 184.557C123.229 185.324 133.862 190.665 141.416 221.81C141.924 223.53 144.951 225.978 146.143 227.273C146.361 227.511 146.478 227.825 146.476 228.148L146.462 230.664C146.458 231.124 146.702 231.549 147.097 231.784L147.164 231.825C147.459 231.999 147.673 232.283 147.759 232.615C147.99 233.513 149.063 233.884 149.799 233.319L149.958 233.197C150.264 232.963 150.655 232.874 151.03 232.961C153.114 233.441 159.371 236.177 154.849 251.581C154.699 252.09 154.252 252.45 153.723 252.51C152.295 252.669 149.489 253.994 149.489 253.994L147.865 254.813C145.354 256.078 142.394 256.092 139.87 254.852L138.804 254.328C138.001 253.932 137.426 253.186 137.249 252.309L136.882 250.49C136.834 250.25 136.718 250.03 136.548 249.853L124.895 237.663C124.552 237.305 124.34 236.843 124.284 236.35C124.099 234.724 123.357 230.565 120.424 225.445C120.375 225.36 120.32 225.275 120.251 225.205C119.312 224.24 112.478 209.465 112.08 208.6C112.067 208.572 112.057 208.545 112.044 208.517C111.693 207.571 105.848 191.452 114.49 185.481L114.492 185.479Z" fill="#2E6A87"/>
<path d="M118.552 184.557L91.91 183.082L73.5954 188.486L85.4187 213.177C85.4187 213.177 86.0099 281.762 85.4187 297.762C119.896 305.625 139.994 282.695 139.994 282.695C139.994 282.695 134.229 247.766 132.563 227.583C131.647 216.483 128.756 205.632 123.973 195.573C120.996 189.312 118.552 184.555 118.552 184.555V184.557Z" fill="#2E6A87"/>
<path d="M270.728 372.411L267.504 373.246L268.882 375.778L270.262 375.513C270.262 375.513 270.954 374.237 270.954 374.103C270.954 373.969 270.728 372.411 270.728 372.411Z" fill="#1B0B38"/>
<path d="M242.122 363.57L243.137 363.646C243.137 363.646 242.781 364.812 242.765 364.89C242.749 364.967 242.394 365.249 242.347 365.165C242.299 365.08 241.967 364.424 241.964 364.367C241.96 364.311 242.122 363.57 242.122 363.57Z" fill="#1B0B38"/>
<path d="M244.399 347.487L249.998 353.545C249.846 353.372 247.768 351.108 244.42 347.466C244.413 347.473 244.408 347.48 244.401 347.487H244.399Z" fill="#FFACA4"/>
<path d="M259.731 364.202C257.34 361.518 253.932 357.83 249.996 353.545C249.844 353.372 247.767 351.108 244.419 347.466C241.36 350.79 238.194 354.017 234.964 357.181C237.193 358.598 239.087 359.664 240.677 360.313C242.158 360.918 242.984 362.539 242.53 364.073C242.423 364.436 242.306 364.569 242.306 364.569L242.68 367.429L246.651 370.763L248.594 372.769C248.594 372.769 256.782 376.171 257.108 376.667C257.435 377.163 259.237 378.551 259.542 379.149C259.848 379.748 266.47 380.095 266.47 380.095C266.47 380.095 269.099 377.21 269.205 376.697C269.311 376.184 270.127 374.049 269.962 374.07C267.82 374.592 259.756 364.096 259.735 364.198L259.731 364.202Z" fill="#FFACA4"/>
<path opacity="0.22" d="M259.731 364.202C257.34 361.518 253.932 357.83 249.996 353.545C249.844 353.372 247.767 351.108 244.419 347.466C243.99 347.934 243.557 348.398 243.123 348.862C244.999 350.593 246.752 352.179 248.349 353.591C252.708 357.442 257.638 363.129 260.029 365.811C260.051 365.708 265.757 375.755 267.899 375.232C268.063 375.213 267.25 377.346 267.142 377.86C267.082 378.149 266.226 379.185 265.488 380.037C266.078 380.076 266.466 380.097 266.466 380.097C266.466 380.097 269.096 377.212 269.202 376.699C269.308 376.185 270.123 374.052 269.959 374.072C267.816 374.594 259.754 364.097 259.731 364.2V364.202Z" fill="white"/>
<path opacity="0.25" d="M246.468 362.13C243.842 359.433 240.065 357.501 236.584 355.584C236.046 356.119 235.506 356.652 234.964 357.181C237.193 358.598 239.087 359.664 240.677 360.313C242.158 360.918 242.984 362.54 242.53 364.073C242.423 364.436 242.306 364.569 242.306 364.569L242.68 367.429L246.651 370.764L248.593 372.77C248.593 372.77 256.78 376.171 257.107 376.667C257.433 377.163 259.235 378.552 259.541 379.15C259.549 379.166 259.563 379.183 259.583 379.199C259.588 379.203 259.592 379.208 259.597 379.211C259.616 379.227 259.638 379.241 259.666 379.257C259.666 379.257 259.669 379.257 259.669 379.259C259.698 379.275 259.731 379.289 259.768 379.305C259.779 379.31 259.791 379.314 259.803 379.319C259.835 379.331 259.871 379.344 259.909 379.356C259.92 379.36 259.931 379.363 259.941 379.367C259.982 379.379 260.026 379.391 260.072 379.404C260.091 379.409 260.112 379.414 260.134 379.42C260.171 379.428 260.209 379.439 260.248 379.448C260.28 379.455 260.314 379.464 260.347 379.471C260.388 379.48 260.427 379.488 260.469 379.497C260.502 379.504 260.536 379.511 260.571 379.517C260.601 379.522 260.633 379.529 260.665 379.534C260.732 379.547 260.802 379.559 260.875 379.571C260.899 379.575 260.924 379.58 260.949 379.584C260.997 379.591 261.046 379.6 261.095 379.607C261.115 379.61 261.134 379.612 261.155 379.615C261.261 379.631 261.371 379.647 261.482 379.663C261.485 379.663 261.487 379.663 261.491 379.663C258.48 376.713 254.945 372.142 254.931 372.209C252.054 368.981 249.426 365.165 246.469 362.129L246.468 362.13Z" fill="#E87D6E"/>
<path d="M247.675 376.438C247.675 376.438 247.791 377.692 253.547 386.909C253.589 386.837 253.376 387.732 253.376 387.732L251.055 385.62L247.841 379.656L245.924 376.745L247.675 376.436V376.438Z" fill="#493C60"/>
<g style="mix-blend-mode:multiply" opacity="0.14">
<path d="M247.841 379.658L245.924 376.746L247.675 376.438C247.675 376.438 247.768 377.44 251.89 384.22L251.404 384.349L250.292 383.709L249.195 382.166L247.843 379.658H247.841Z" fill="#4A2556"/>
</g>
<path d="M242.498 364.174C242.498 364.174 242.693 365.026 248.166 368.348C248.206 368.41 257.984 374.227 262.313 376.351C262.066 376.247 267.65 378.255 270.73 372.411C270.517 372.468 280.021 370.716 282.139 372.217C282.334 372.357 282.416 372.611 282.334 372.837C281.719 374.516 272.64 381.853 268.353 383.164C267.529 383.527 265.254 384.316 260.928 381.258C260.825 381.237 252.326 374.935 247.149 377.186C247.292 377.269 253.379 387.733 253.379 387.733L252.154 388.416C252.154 388.416 247.966 380.821 244.465 376.732C244.498 376.799 239.93 373.502 240.308 368.547C240.206 368.526 240.748 363.821 242.087 363.561C242.108 363.459 242.502 364.174 242.502 364.174H242.498Z" fill="#240F4B"/>
<path d="M245.252 377.701C245.148 377.568 245.043 377.438 244.941 377.311C244.909 377.272 244.878 377.231 244.846 377.193C244.717 377.036 244.59 376.882 244.463 376.734C244.466 376.741 245.382 377.687 247.147 377.187C247.147 377.187 247.16 377.2 247.17 377.214C247.17 377.216 247.174 377.217 247.175 377.221C247.186 377.237 247.2 377.258 247.218 377.283C247.221 377.288 247.225 377.291 247.227 377.297C247.246 377.325 247.267 377.358 247.292 377.397C247.292 377.399 247.294 377.401 247.295 377.403C247.433 377.621 247.661 377.995 247.947 378.475C248.815 379.929 250.236 382.348 251.406 384.351L249.671 384.188C248.42 382.154 246.851 379.746 245.333 377.801C245.306 377.768 245.282 377.734 245.255 377.703L245.252 377.701Z" fill="#1B0B38"/>
<g style="mix-blend-mode:multiply" opacity="0.25">
<path d="M245.333 363.102C245.319 363.106 245.303 363.109 245.289 363.113C244.895 363.194 244.664 363.145 244.288 363.023C244.159 362.98 244.011 362.952 243.896 363.025C243.566 363.233 244.267 363.965 244.412 364.103C244.731 364.406 245.511 364.8 246.286 364.362C246.558 364.209 246.787 363.981 246.951 363.714C247.288 363.164 247.387 362.566 246.983 362.012C246.916 361.918 246.826 361.828 246.711 361.812C246.528 361.788 246.385 361.961 246.288 362.116C246.041 362.515 245.781 362.984 245.333 363.102Z" fill="#C6594E"/>
</g>
<path d="M251.634 387.497L252.843 386.815L253.091 386.177C253.24 386.417 253.392 386.658 253.547 386.909C253.589 386.837 253.376 387.731 253.376 387.731L252.151 388.414C252.151 388.414 251.962 388.072 251.632 387.497H251.634Z" fill="#14082A"/>
<path opacity="0.47" d="M249.996 353.544C249.893 353.428 248.9 352.343 247.223 350.519L240.523 357.716L241.023 360.484C241.627 360.821 242.091 361.334 242.368 361.936L252.906 356.712C251.976 355.699 251.004 354.642 249.996 353.544Z" fill="#E87D6E"/>
<path d="M96.4176 184.779L108.207 185.621L107.298 159.903H97.7501L96.4176 184.779Z" fill="#FFACA4"/>
<path d="M107.932 177.848C102.635 175.973 98.9556 169.872 97.3831 166.78L97.7519 159.903H107.3L107.934 177.848H107.932Z" fill="#E87D6E"/>
<g style="mix-blend-mode:screen" opacity="0.24">
<path d="M106.684 121.452C104.284 121.452 102.088 122.023 100.147 123.114C101.467 122.687 102.877 122.468 104.365 122.468C113.825 122.468 120.119 130.639 120.119 145.239C120.119 156.835 117.452 165.837 112.39 169.05C118.952 167.343 122.436 157.479 122.436 144.223C122.436 129.623 116.142 121.452 106.682 121.452H106.684Z" fill="#C6594E"/>
</g>
<path d="M101.148 133.118C101.148 133.118 101.741 145.253 91.0117 147.252C90.8299 147.071 86.9012 143.087 86.9012 143.087C86.9012 143.087 92.0283 134.238 92.4113 133.118C92.7943 131.998 97.3813 128.725 97.3813 128.725L101.146 133.118H101.148Z" fill="#240F4B"/>
<path d="M100.251 133.996C100.251 133.996 109.298 143.168 122.21 139.618C122.154 139.099 128.984 137.725 128.984 137.725L118.414 128.724L101.151 122.605C101.151 122.605 98.4314 125.27 98.2496 126.178C98.0678 127.087 100.249 133.996 100.249 133.996H100.251Z" fill="#0A1D30"/>
<path d="M126.878 130.14L115.588 123.574C110.895 120.845 105.563 119.407 100.133 119.407C98.052 119.407 95.9888 119.779 94.0403 120.506L88.412 122.606C85.4222 125.347 83.629 129.153 83.4155 133.204L83.2584 136.177C83.2584 136.177 90.2616 138.358 90.424 138.095C90.5864 137.834 103.749 132.497 104.656 132.361C105.563 132.225 119.708 135.36 119.708 135.36C119.708 135.36 127.357 136.588 128.197 135.906C129.037 135.224 126.878 130.14 126.878 130.14Z" fill="#4E4E4E"/>
<path d="M131.322 277.325C153.01 271.592 178.854 264.386 186.086 264.496C186.266 264.499 192.32 265.794 196.302 271.73C209.254 291.041 235.88 334.533 249.849 350.52C247.156 349.783 237.438 361.047 237.438 361.047C237.438 361.047 222.841 345.986 208.559 333.923C208.125 333.556 207.406 332.966 206.949 332.628C203.446 330.023 190.299 313.849 183.566 297.135C182.648 294.857 180.068 293.737 177.786 294.647C161.046 301.327 141.859 311.413 130.417 318.315C124.256 321.526 115.842 321.135 108.666 319.822C99.3704 318.121 92.5348 310.052 92.5119 300.606C92.4819 288.262 119.729 280.988 131.319 277.327L131.322 277.325Z" fill="#FFC948"/>
<g style="mix-blend-mode:screen" opacity="0.31">
<path d="M196.302 271.73C192.322 265.794 186.268 264.499 186.086 264.496C178.854 264.388 153.01 271.592 131.323 277.325C120.159 280.852 94.478 287.729 92.6248 299.26C98.9574 290.185 119.812 284.543 129.57 281.459C151.257 275.726 177.101 268.52 184.334 268.63C184.515 268.633 190.567 269.928 194.549 275.864C206.919 294.309 231.764 334.812 246.141 352.339C247.696 351.103 249.067 350.305 249.849 350.519C235.88 334.531 209.254 291.039 196.302 271.728V271.73Z" fill="#FFC948"/>
</g>
<path d="M95.7346 179.248C97.3813 180.986 101.688 184.361 105.629 185.437C105.512 185.818 104.429 193.811 104.429 193.811L91.3047 183.262C91.3047 183.262 94.8027 178.263 95.7346 179.248Z" fill="white"/>
<path d="M105.631 185.437L108.952 192.304L112.893 184.245C112.893 184.245 108.834 179.722 108.797 181.025C108.758 182.376 105.631 185.437 105.631 185.437Z" fill="white"/>
<g style="mix-blend-mode:multiply" opacity="0.5">
<path d="M238.125 355.955C238.033 355.327 237.56 354.833 237.107 354.386C229.664 347.055 221.589 340.374 214.362 332.831C207.135 325.288 200.684 316.726 197.288 306.847C196.129 303.473 195.251 299.826 192.807 297.227C189.708 293.933 184.66 293.097 180.223 293.976C178.467 294.323 174.475 295.285 172.105 297.003C174.019 296.183 175.919 295.392 177.786 294.648C180.068 293.737 182.648 294.856 183.566 297.136C190.299 313.85 203.444 330.024 206.949 332.628C207.405 332.967 208.125 333.556 208.559 333.923C220.276 343.819 232.204 355.733 236.111 359.692C236.556 359.113 236.992 358.526 237.408 357.926C237.816 357.336 238.229 356.664 238.127 355.955H238.125Z" fill="#FFC948"/>
</g>
<path d="M247.79 346.978L251.888 351.459C251.888 351.459 240.91 362.432 238.593 363.783C238.515 363.667 235.347 359.494 233.647 358.49C233.647 358.026 241.994 349.374 247.79 346.979V346.978Z" fill="#FFDF91"/>
<g style="mix-blend-mode:multiply" opacity="0.23">
<path d="M92.1483 223.567C93.2284 228.412 93.329 233.412 93.4455 238.374C93.4791 239.83 93.5214 241.317 94.0368 242.679C94.9033 244.973 96.9612 246.564 98.9238 248.034C100.463 249.186 102.094 250.377 103.998 250.636C105.904 250.896 108.133 249.851 108.486 247.962C108.744 246.577 107.943 245.197 106.928 244.218C105.913 243.238 104.672 242.519 103.67 241.527C100.466 238.355 100.401 233.326 99.628 228.885C98.5885 222.914 95.8758 217.244 91.8783 212.684C89.9986 210.541 86.2641 207.372 83.3749 209.159C87.053 214.147 90.6587 216.875 92.1501 223.565L92.1483 223.567Z" fill="#3E1762"/>
</g>
<g style="mix-blend-mode:multiply" opacity="0.5">
<path d="M130.419 318.315C136.815 314.457 145.631 309.604 155.085 304.908C148.906 307.14 142.727 309.37 136.55 311.602C130.726 313.705 124.799 315.831 118.617 316.166C112.434 316.501 105.846 314.795 101.635 310.256C100.675 309.22 99.8222 307.974 99.7322 306.566C99.5416 303.614 102.545 301.599 105.105 300.114C110.041 297.248 114.734 293.961 119.113 290.3C120.924 288.786 129.535 281.332 124.185 280.241C123.721 280.146 123.255 280.062 122.787 279.984C109.884 284.116 92.4925 290.743 92.5172 300.606C92.5401 310.053 99.3757 318.121 108.671 319.822C115.846 321.135 124.261 321.528 130.422 318.315H130.419Z" fill="#FFC948"/>
</g>
<path d="M218.261 421.574L214.952 421.194L215.327 424.053L216.709 424.301C216.709 424.301 217.814 423.359 217.862 423.234C217.911 423.109 218.259 421.572 218.259 421.572L218.261 421.574Z" fill="#1B0B38"/>
<path d="M194.74 403.051L195.659 403.485C195.659 403.485 194.907 404.445 194.865 404.512C194.823 404.579 194.39 404.715 194.376 404.618C194.362 404.521 194.288 403.791 194.305 403.738C194.323 403.685 194.74 403.051 194.74 403.051Z" fill="#1B0B38"/>
<path d="M206.33 383.271C201.586 383.546 199.623 385.607 194.872 385.579C195.017 388.723 197.645 395.322 197.593 397.294C197.528 399.831 194.551 404.048 194.551 404.048L193.871 406.852L196.379 411.39L197.472 413.961C197.472 413.961 203.891 420.076 204.018 420.655C204.145 421.233 205.327 423.178 205.396 423.845C205.465 424.513 211.52 427.215 211.52 427.215C211.52 427.215 215.011 425.468 215.294 425.027C215.578 424.586 217.105 422.887 216.944 422.846C211.466 414.733 211.76 398.716 206.33 383.269V383.271Z" fill="#FFACA4"/>
<path opacity="0.22" d="M205.423 384.444C210.853 399.889 210.559 415.907 216.037 424.021C216.056 424.026 216.051 424.056 216.025 424.107C216.517 423.511 217.043 422.874 216.946 422.849C211.468 414.737 211.762 398.72 206.332 383.272C201.588 383.548 199.625 385.609 194.874 385.58C194.89 385.923 194.936 386.309 195.004 386.724C199.03 386.477 201.042 384.698 205.424 384.444H205.423Z" fill="white"/>
<g style="mix-blend-mode:multiply" opacity="0.25">
<path d="M199.494 401.472C199.48 401.467 199.466 401.462 199.452 401.456C199.078 401.31 198.912 401.142 198.663 400.835C198.578 400.729 198.469 400.625 198.333 400.624C197.943 400.618 198.13 401.613 198.176 401.807C198.278 402.236 198.718 402.99 199.606 403.046C199.918 403.065 200.234 403 200.516 402.866C201.099 402.587 201.508 402.141 201.473 401.456C201.468 401.342 201.443 401.216 201.355 401.141C201.215 401.021 201 401.086 200.834 401.163C200.409 401.363 199.936 401.615 199.496 401.47L199.494 401.472Z" fill="#C6594E"/>
</g>
<path opacity="0.25" d="M199.782 394.879L197.271 395.322C197.475 396.156 197.604 396.846 197.592 397.296C197.526 399.833 194.549 404.05 194.549 404.05L193.87 406.854L196.378 411.392L196.633 411.992C198.562 413.594 200.453 415.12 200.414 415.042C197.708 408.784 199.782 394.877 199.782 394.877V394.879Z" fill="#E87D6E"/>
<path opacity="0.47" d="M209.771 396.068C209.41 394.326 209.013 392.56 208.566 390.785C208.543 390.736 208.531 390.708 208.531 390.708L196.021 390.443L195.973 390.727C196.741 393.421 197.624 396.145 197.594 397.296C197.576 397.961 197.357 398.744 197.046 399.535C199.014 398.861 205.319 396.772 209.771 396.068Z" fill="#E87D6E"/>
<path d="M195.299 417.054C195.299 417.054 194.957 418.268 197.016 428.935C197.082 428.884 196.561 429.641 196.561 429.641L195.154 426.835L194.297 420.117L193.554 416.711L195.297 417.052L195.299 417.054Z" fill="#493C60"/>
<g style="mix-blend-mode:multiply" opacity="0.14">
<path d="M194.297 420.118L193.554 416.713L195.297 417.053C195.297 417.053 195.024 418.022 196.434 425.831L195.935 425.777L195.126 424.778L194.657 422.945L194.297 420.118Z" fill="#4A2556"/>
</g>
<path d="M194.876 403.748C194.876 403.748 194.75 404.613 198.665 409.68C198.681 409.753 205.716 418.693 208.991 422.229C208.799 422.043 213.289 425.921 218.263 421.574C218.051 421.551 226.826 423.194 228.778 425.242C229.089 425.569 229.046 426.112 228.681 426.375C226.935 427.622 216.651 431.072 212.179 430.756C211.279 430.8 208.873 430.717 205.935 426.311C205.846 426.255 200.179 417.32 194.538 417.564C194.643 417.692 196.563 429.644 196.563 429.644L195.174 429.842C195.174 429.842 193.993 421.249 192.195 416.177C192.202 416.251 189.124 411.533 191.257 407.046C191.169 406.99 193.367 402.792 194.71 403.03C194.766 402.942 194.876 403.75 194.876 403.75V403.748Z" fill="#240F4B"/>
<path d="M195.02 428.796L196.393 428.595L196.854 428.088C196.907 428.365 196.96 428.646 197.016 428.937C197.082 428.886 196.561 429.643 196.561 429.643L195.172 429.84C195.172 429.84 195.119 429.452 195.019 428.798L195.02 428.796Z" fill="#14082A"/>
<path d="M192.585 417.362C192.535 417.202 192.484 417.043 192.435 416.886C192.419 416.838 192.403 416.789 192.387 416.741C192.323 416.549 192.26 416.358 192.195 416.175C192.195 416.182 192.71 417.394 194.537 417.562C194.537 417.562 194.544 417.578 194.547 417.593C194.547 417.597 194.547 417.599 194.549 417.6C194.554 417.618 194.56 417.645 194.567 417.675C194.567 417.68 194.568 417.685 194.57 417.69C194.577 417.724 194.586 417.763 194.595 417.809C194.595 417.81 194.595 417.814 194.595 417.816C194.644 418.07 194.722 418.5 194.817 419.051C195.107 420.72 195.562 423.486 195.935 425.777L194.374 425.002C193.938 422.655 193.338 419.843 192.62 417.482C192.608 417.442 192.595 417.401 192.583 417.362H192.585Z" fill="#1B0B38"/>
<path d="M210.848 391.751C203.215 371.942 196.782 324.607 191.141 302.053C190.446 299.272 188.003 296.585 186.619 295.447C183.739 293.077 179.124 293.652 175.576 294.81C163.319 298.808 128.008 319.356 128.008 319.356C142.563 318.386 155.461 315.409 168.135 315.332C167.586 334.39 175.333 357.142 177.927 361.093C178.239 361.567 178.712 362.368 178.995 362.862C188.268 379.093 196.434 395.924 196.434 395.924C196.434 395.924 208.571 390.136 210.846 391.751H210.848Z" fill="#DD9F22"/>
<g style="mix-blend-mode:screen" opacity="0.15">
<path d="M136.328 318.598C141.384 318.031 146.261 317.327 151.024 316.717C146.243 317.248 141.367 317.955 136.328 318.598Z" fill="#DD9F22"/>
<path d="M191.141 302.051C190.446 299.27 188.003 296.583 186.619 295.445C184.124 293.393 180.329 293.55 177.053 294.379C178.859 294.447 180.569 294.911 181.907 296.012C183.289 297.15 185.733 299.837 186.429 302.617C192.052 325.101 198.462 372.203 206.063 392.123C208.213 391.499 210.086 391.207 210.848 391.749C203.215 371.94 196.782 324.605 191.141 302.051Z" fill="#DD9F22"/>
<path d="M195.829 394.683C196.222 395.482 196.436 395.922 196.436 395.922C196.436 395.922 201.642 393.439 205.875 392.179C204.175 391.518 199.371 393.224 195.829 394.683Z" fill="#DD9F22"/>
</g>
<g style="mix-blend-mode:multiply" opacity="0.2">
<path d="M196.017 390.064C187.807 372.482 176.766 355.387 175.49 336.024C175.26 332.547 175.343 328.974 174.164 325.694C173.049 322.59 170.804 319.518 171.64 316.328C172.067 314.702 173.225 312.826 172.131 311.55C171.287 310.566 169.731 310.809 168.472 311.125C159.191 313.456 149.72 315.037 140.186 315.852C138.532 315.993 136.372 315.834 134.247 315.783C130.442 317.941 128.01 319.356 128.01 319.356C142.565 318.386 155.463 315.409 168.137 315.331C167.588 334.39 175.334 357.142 177.929 361.093C178.241 361.567 178.714 362.368 178.997 362.862C186.6 376.171 193.458 389.88 195.68 394.387C195.94 394.219 196.173 394.018 196.349 393.762C197.087 392.693 196.566 391.242 196.016 390.066L196.017 390.064Z" fill="#DD9F22"/>
</g>
<path d="M210.216 387.319L211.891 393.339C211.891 393.339 197.712 398.265 195.116 398.468C195.096 398.334 194.041 393.388 192.964 391.805C193.157 391.403 204.136 386.971 210.216 387.32V387.319Z" fill="#FFC948"/>
<path d="M88.0237 297.866C88.0237 297.866 122.14 295.676 129.812 277.806C130.295 277.783 112.891 267.85 112.891 267.85L88.0237 259.704V297.866Z" fill="#2E6A87"/>
<g style="mix-blend-mode:multiply" opacity="0.23">
<path d="M133.979 241.102C128.797 241.08 124.171 245.341 119.873 248.659C110.897 255.586 99.5415 259.372 88.2019 259.22C87.3636 259.21 86.5129 259.18 85.6693 259.188C85.6781 263.058 85.6816 266.904 85.6799 270.611C88.8814 271.83 92.3142 272.451 95.6993 272.972C98.202 273.356 100.773 273.605 103.257 273.108C108.16 272.125 112 268.43 115.541 264.901C119.033 261.42 122.528 257.937 126.022 254.456C129.113 251.376 132.272 248.182 134.39 244.417C134.249 243.305 134.113 242.199 133.98 241.102H133.979Z" fill="#3E1762"/>
</g>
<path d="M141.711 239.992C141.654 239.819 141.621 239.711 141.607 239.664C141.531 239.466 141.455 239.27 141.372 239.076C141.176 238.619 140.959 238.171 140.721 237.735C140.242 236.864 140.142 236.731 139.506 236.01C139 235.435 138.855 235.267 138.442 234.978C138.435 234.972 138.426 234.967 138.417 234.962C138.386 234.939 138.352 234.916 138.317 234.893C138.306 234.886 138.294 234.877 138.283 234.87C138.246 234.845 138.207 234.821 138.169 234.794C138.158 234.787 138.147 234.78 138.137 234.773C138.084 234.739 138.029 234.702 137.971 234.664C137.764 234.531 137.554 234.406 137.339 234.29C137.286 234.268 137.223 234.242 137.143 234.208C136.665 234.034 136.188 233.896 135.691 233.785C134.981 233.628 134.411 233.178 134.01 232.596C130.348 234.15 127.473 235.117 127.473 235.117C127.473 235.117 114.985 244.765 105.246 247.637L99.8469 259.273L103.064 265.828C103.064 265.828 120.936 256.33 130.592 245.294C130.841 244.906 131.831 242.97 137.058 241.984C137.219 242.062 139.671 241.599 142.039 240.763C141.908 240.521 141.797 240.264 141.714 239.996L141.711 239.992Z" fill="#FFACA4"/>
<path d="M141.711 239.992C141.654 239.819 141.621 239.711 141.607 239.664C141.531 239.466 141.455 239.27 141.372 239.076C141.176 238.619 140.959 238.171 140.721 237.735C140.576 237.472 140.467 237.276 140.366 237.112C140.431 237.253 140.498 237.395 140.56 237.539C140.643 237.733 140.721 237.929 140.795 238.127C140.809 238.176 140.844 238.282 140.899 238.455C140.982 238.725 141.093 238.981 141.224 239.223C138.855 240.059 136.404 240.521 136.243 240.443C131.015 241.43 130.027 243.365 129.776 243.753C120.396 254.476 103.266 263.742 102.293 264.264L103.059 265.826C103.059 265.826 120.931 256.328 130.587 245.292C130.835 244.904 131.825 242.968 137.053 241.982C137.214 242.06 139.665 241.597 142.034 240.761C141.903 240.519 141.792 240.262 141.709 239.994L141.711 239.992Z" fill="#E87D6E"/>
<path opacity="0.22" d="M105.691 248.999C115.429 246.127 127.918 236.479 127.918 236.479C127.918 236.479 130.793 235.512 134.455 233.958C134.854 234.54 135.424 234.99 136.135 235.147C136.633 235.258 137.11 235.396 137.588 235.57C137.669 235.604 137.731 235.63 137.784 235.651C137.999 235.768 138.211 235.893 138.416 236.025C138.476 236.064 138.53 236.1 138.582 236.135C138.592 236.142 138.603 236.149 138.613 236.156C138.654 236.183 138.693 236.209 138.728 236.232C138.739 236.239 138.751 236.248 138.762 236.255C138.797 236.28 138.83 236.302 138.862 236.324C138.869 236.329 138.878 236.334 138.887 236.34C139.3 236.629 139.445 236.797 139.951 237.372C140.588 238.093 140.689 238.226 141.165 239.097C141.405 239.533 141.623 239.981 141.817 240.438C141.866 240.553 141.91 240.668 141.954 240.784C141.979 240.775 142.006 240.766 142.03 240.758C141.9 240.516 141.788 240.258 141.706 239.99C141.649 239.817 141.616 239.71 141.601 239.662C141.526 239.464 141.45 239.268 141.367 239.074C141.171 238.617 140.954 238.169 140.715 237.733C140.237 236.862 140.137 236.729 139.501 236.008C138.995 235.433 138.85 235.265 138.437 234.976C138.43 234.97 138.421 234.965 138.412 234.96C138.38 234.937 138.347 234.914 138.312 234.891C138.301 234.884 138.289 234.875 138.278 234.868C138.241 234.843 138.202 234.819 138.163 234.792C138.153 234.785 138.142 234.778 138.132 234.771C138.079 234.737 138.024 234.7 137.966 234.662C137.759 234.529 137.549 234.404 137.334 234.288C137.281 234.266 137.217 234.24 137.138 234.206C136.66 234.032 136.183 233.894 135.685 233.783C134.976 233.626 134.406 233.176 134.005 232.594C130.343 234.148 127.468 235.115 127.468 235.115C127.468 235.115 114.979 244.763 105.24 247.635L99.8416 259.271L100.399 260.406L105.691 248.999Z" fill="white"/>
<path d="M73.5954 188.488C75.318 187.966 77.3883 188.364 79.0685 188.973C84.5909 190.972 96.0047 199.169 95.4487 232.77C95.5299 234.651 98.4861 237.924 99.5433 239.551C99.7375 239.849 99.7834 240.199 99.6775 240.527L98.8621 243.078C98.7138 243.544 98.8762 244.041 99.2892 244.382L99.3598 244.44C99.6686 244.694 99.8416 245.04 99.8416 245.398C99.8416 246.37 101.047 247.027 102.134 246.646L102.369 246.563C102.819 246.404 103.331 246.416 103.765 246.603C106.181 247.634 113.027 252.045 102.574 266.509C102.228 266.987 101.562 267.238 100.892 267.158C99.0809 266.947 95.2034 267.561 95.2034 267.561L92.9425 267.968C89.4462 268.598 85.7928 267.841 83.0766 265.922L81.9276 265.11C81.0628 264.499 80.5898 263.593 80.6498 262.654L80.7734 260.711C80.7893 260.456 80.7169 260.201 80.5651 259.977L70.0638 244.557C69.755 244.103 69.6403 243.579 69.7267 243.066C70.0144 241.367 70.4186 236.949 68.4242 230.983C68.3907 230.884 68.3483 230.784 68.2866 230.694C67.4359 229.469 63.6942 212.681 63.4754 211.698C63.4683 211.667 63.463 211.637 63.4595 211.605C63.3254 210.553 61.0504 192.295 73.5954 188.486V188.488Z" fill="#2E6A87"/>
<path d="M167.862 215.206L148.412 214.05C147.254 213.981 146.137 214.486 145.424 215.4L121.622 245.903C121.061 246.623 121.573 247.671 122.486 247.671H142.018C143.206 247.671 144.328 247.134 145.075 246.21L168.649 216.986C169.208 216.293 168.749 215.259 167.862 215.206Z" fill="#D4D4D4"/>
<path d="M158.679 236.776C158.679 236.776 160.128 234.746 157.403 232.08C157.461 232.139 153.924 228.661 152.417 229.937C152.417 229.937 151.547 231.966 154.155 233.473C153.981 233.414 155.641 235.823 155.059 237.111C154.436 238.489 150.038 236.603 150.038 236.603L147.66 236.544L146.384 236.139C146.384 236.139 143.659 235.154 143.022 236.776C143.08 236.834 142.272 238.738 146.211 239.325C146.501 239.5 148.762 240.02 148.762 240.02C148.762 240.02 152.24 241.585 153.516 242.049C153.575 242.049 149.515 241.643 149.515 241.643C149.515 241.643 148.008 241.296 145.805 241.065C145.689 241.123 140.414 239.674 140.008 241.587C140.008 241.762 139.66 243.036 141.979 243.268C141.979 243.327 141.631 244.486 144.588 245.529C144.529 245.645 147.371 247.035 147.371 247.035C147.371 247.035 147.334 247.196 147.306 247.457C147.14 249.017 148.287 250.4 149.851 250.547C150.606 250.617 151.596 250.573 152.877 250.282C152.703 250.457 155.08 249.934 155.08 249.934L156.123 248.369L156.24 247.385L157.457 246.053L157.747 243.965L159.06 241.763L158.617 240.119L159.06 238.288L158.675 236.781L158.679 236.776Z" fill="#FFACA4"/>
<g opacity="0.31">
<path d="M148.553 239.973C147.641 239.572 146.91 239.244 146.91 239.244C146.91 239.244 144.649 238.722 144.36 238.549C144.106 238.51 143.871 238.468 143.654 238.418C144.12 238.789 144.904 239.131 146.215 239.327C146.45 239.468 147.985 239.839 148.553 239.973Z" fill="#E87D6E"/>
<path d="M151.593 241.265C151.642 241.27 151.67 241.273 151.665 241.273C151.527 241.222 151.361 241.159 151.178 241.086C151.316 241.146 151.455 241.206 151.593 241.265Z" fill="#E87D6E"/>
<path d="M159.064 238.283L158.679 236.776C158.679 236.776 160.128 234.747 157.403 232.081C157.449 232.127 155.161 229.879 153.483 229.672C154.619 230.39 155.578 231.333 155.548 231.303C158.273 233.969 156.824 235.998 156.824 235.998L157.209 237.504L156.766 239.336L157.209 240.98L155.895 243.182L155.606 245.268L154.388 246.602L154.272 247.586L153.229 249.151C153.229 249.151 150.851 249.673 151.026 249.499C149.835 249.769 148.899 249.825 148.167 249.776C148.612 250.198 149.194 250.48 149.852 250.542C150.608 250.612 151.598 250.568 152.879 250.277C152.705 250.452 155.082 249.929 155.082 249.929L156.125 248.364L156.241 247.38L157.459 246.048L157.749 243.96L159.062 241.758L158.619 240.114L159.062 238.283H159.064Z" fill="#E87D6E"/>
</g>
<path d="M90.0392 144.48C90.0392 159.441 100.193 169.491 109.886 169.491C117.992 169.491 122.325 158.742 122.325 143.782C122.325 128.822 115.876 120.448 106.181 120.448C96.4865 120.448 90.0374 129.518 90.0374 144.48H90.0392Z" fill="#FFACA4"/>
<path opacity="0.22" d="M120.408 144.822C120.408 129.862 113.959 121.488 104.264 121.488C102.265 121.488 100.405 121.875 98.7103 122.619C100.883 121.199 103.398 120.449 106.183 120.449C115.876 120.449 122.327 128.823 122.327 143.783C122.327 156.764 119.065 166.57 112.907 168.94C117.823 165.423 120.408 156.381 120.408 144.822Z" fill="white"/>
<path d="M86.2746 146.186C84.0367 146.993 82.8719 149.452 83.6749 151.682C84.478 153.911 87.5966 159.072 92.7078 157.231C95.4681 156.238 93.8426 151.907 93.0396 149.676C92.2365 147.446 88.5143 145.38 86.2746 146.186Z" fill="#FFB47F"/>
<path d="M86.2746 146.186C84.0367 146.993 82.8719 149.452 83.6749 151.682C84.478 153.913 87.5966 159.072 92.7078 157.231C95.4681 156.238 93.8426 151.907 93.0396 149.676C92.2365 147.446 88.5143 145.38 86.2746 146.186Z" fill="#FFACA4"/>
<path d="M90.6958 150.521C90.3904 149.671 88.5161 148.44 87.3036 148.501C87.1906 148.507 87.1342 148.524 87.1183 148.529C86.6594 148.694 86.2923 149.027 86.0858 149.465C85.8793 149.9 85.8564 150.387 86.0187 150.839C86.4335 151.993 88.1949 155.257 90.7452 155.127C91.0629 155.111 91.3964 155.045 91.7512 154.927C91.8853 154.313 91.5482 152.879 90.747 150.657L90.6975 150.52L90.6958 150.521Z" fill="#E87D6E"/>
<path d="M100.509 132.401C100.509 132.401 101.19 144.745 90.1945 146.793C90.0075 146.606 85.9111 142.617 85.9111 142.617C85.9111 142.617 91.1652 133.55 91.5588 132.401C91.9524 131.253 96.6524 127.898 96.6524 127.898L100.511 132.401H100.509Z" fill="#4E4E4E"/>
<path d="M99.591 133.303C99.591 133.303 110.68 138.861 122.094 139.064C122.035 138.531 129.035 137.123 129.035 137.123L118.204 127.901L100.514 121.63C100.514 121.63 97.7272 124.359 97.5401 125.291C97.353 126.223 99.5892 133.301 99.5892 133.301L99.591 133.303Z" fill="#4E4E4E"/>
<path d="M120.858 132.211L104.266 130.688L96.1847 132.971C96.1847 132.971 89.4833 135.027 89.1779 135.027C88.8726 135.027 86.8941 132.058 87.7307 130.687C88.569 129.316 92.7572 125.053 93.2143 124.444C93.6714 123.835 100.837 120.028 100.837 120.028L106.183 119.723L109.512 120.446L112.893 121.628L116.824 124.291L123.677 130.99L120.858 132.207V132.211Z" fill="#4E4E4E"/>
<path d="M377.462 284.028C377.462 300.691 327.246 314.199 265.301 314.199C203.356 314.199 153.14 300.691 153.14 284.028C153.14 282.101 152.21 274.033 153.493 272.207C163.308 258.238 210.518 253.857 265.301 253.857C320.084 253.857 368.343 258.305 377.285 272.559C378.318 274.204 377.462 282.304 377.462 284.028Z" fill="#004E7C"/>
<path d="M265.301 303.613C327.246 303.613 377.462 290.105 377.462 273.442C377.462 256.779 327.246 243.271 265.301 243.271C203.357 243.271 153.14 256.779 153.14 273.442C153.14 290.105 203.357 303.613 265.301 303.613Z" fill="#0071ED"/>
<path d="M257.186 307.494H273.423V427.825C273.423 429.967 271.683 431.707 269.541 431.707H261.069C258.926 431.707 257.186 429.967 257.186 427.825V307.494Z" fill="#004E7C"/>
<path d="M295.144 256.738L295.123 256.782L340.554 253.926C341.221 253.883 341.89 253.979 342.518 254.203L366.816 262.894L368.284 262.647V263.843C368.293 264.149 368.094 264.459 367.721 264.5L332.065 268.231L290.921 257.045V255.891L295.144 256.736V256.738Z" fill="white"/>
<path d="M332.065 267.079L367.721 263.348C368.388 263.277 368.498 262.344 367.866 262.118L342.518 253.051C341.888 252.825 341.219 252.731 340.554 252.774L290.919 255.893L332.063 267.079H332.065Z" fill="#919191"/>
<path d="M347.114 256.706C347.114 256.706 345.148 256.12 340.069 261.405C338.773 261.609 332.967 263.635 332.967 263.635C331.913 264.441 328.602 265.087 328.602 265.087C328.602 265.087 328.021 263.901 329.202 262.4C329.624 261.863 330.171 261.438 330.778 261.133C332.476 260.279 336.154 258.712 336.749 258.001C336.682 258.128 335.061 255.863 335.061 255.863C335.061 255.863 330.808 254.571 329.214 253.853C329.447 253.908 322.248 252.872 322.248 252.872L320.51 253.34C320.51 253.34 320.056 251.309 321.879 250.15C322.954 249.626 324.691 249.465 324.691 249.465L325.628 249.237C325.628 249.237 326.593 248.177 327.795 247.662C327.666 247.582 328.715 245.442 331.034 244.767C331.142 244.518 342.531 242.408 347.961 244.519C348.009 244.729 347.148 253.918 347.148 253.918L347.116 256.71L347.114 256.706Z" fill="#C6594E"/>
<g style="mix-blend-mode:multiply" opacity="0.54">
<path d="M347.96 244.516C347.981 244.608 347.831 246.388 347.652 248.377C339.384 244.952 332.031 245.972 328.058 247.029C328.501 246.321 329.483 245.217 331.032 244.765C331.14 244.516 342.529 242.406 347.96 244.518V244.516Z" fill="#F4908C"/>
</g>
<path d="M343.531 242.106C342.778 242.448 340.388 243.414 339.682 243.848C340.707 243.218 346.002 251.161 346.784 256.655C347.015 256.685 350.242 257.135 351.563 256.11C351.029 253.008 345.835 241.928 343.531 242.106Z" fill="white"/>
<path d="M396.525 190.912C395.671 191.013 394.91 191.502 394.462 192.236L378.794 217.904C375.466 223.589 371.292 228.734 366.415 233.162C365.27 232.854 364.057 233.337 363.44 234.348L362.66 234.897L360.111 234.743L342.021 242.849C342.021 242.849 349.608 246.882 346.784 256.655C349.529 256.791 360.362 254.841 366.302 254.61C367.781 254.552 369.252 254.37 370.695 254.042L372.917 253.537C373.952 257.086 370.693 268.254 373.851 270.177L389.659 273.152L394.121 251.87L402.577 220.718L408.825 189.462L396.525 190.912Z" fill="#4E4E4E"/>
<path d="M329.825 268.081L293.63 257.76C292.024 257.301 290.878 255.902 290.764 254.255L287.559 208.113C287.432 206.284 289.106 204.838 290.928 205.207L326.784 212.478C328.454 212.817 329.689 214.216 329.799 215.894L333.057 265.518C333.17 267.247 331.51 268.563 329.823 268.081H329.825Z" fill="white"/>
<path d="M328.5 268.764L292.772 258.443C291.187 257.984 290.056 256.585 289.943 254.939L286.78 208.796C286.655 206.967 288.309 205.522 290.105 205.89L325.497 213.161C327.146 213.5 328.364 214.899 328.473 216.577L331.689 266.201C331.802 267.93 330.162 269.246 328.498 268.764H328.5Z" fill="#A8A8A8"/>
<path d="M376.142 251.542C378.14 252.011 379.292 252.629 380.586 254.035C381.876 255.512 383.172 256.976 384.486 258.473C385.734 259.053 387.406 260.08 388.549 260.563C389.693 261.047 390.311 260.992 391.348 261.377C390.72 263.27 389.906 265.107 389.449 267.065C389.075 268.664 388.969 270.338 388.782 271.954C387.709 271.25 386.131 270.107 385.168 269.481C383.464 268.374 382.308 267.655 380.632 266.622C379.345 266.839 375.838 266.615 374.972 266.608C373.029 266.591 372.601 266.725 371.057 266.508C373.274 263.027 375.325 259.976 373.989 255.773C372.766 255.127 371.096 254.196 369.966 253.615C368.837 253.037 368.553 251.925 368.579 251.08C368.609 250.146 369.004 250.058 369.592 249.836C370.499 250.155 370.976 250.473 371.992 250.743C373.009 251.013 375.173 251.313 376.145 251.542H376.142Z" fill="#C6594E"/>
<g style="mix-blend-mode:screen" opacity="0.25">
<path d="M387.999 268.237C388.454 266.277 389.259 264.445 389.882 262.54C388.975 262.289 388.064 262.04 387.153 261.797C385.794 261.084 384.433 260.377 383.073 259.664C381.798 258.231 380.547 256.712 379.283 255.293C378.021 253.877 376.885 253.3 374.908 252.859C373.946 252.643 371.744 252.331 370.757 252.07C369.769 251.809 369.386 251.518 368.53 251.237C368.549 251.182 368.546 251.045 368.556 251.004C368.689 250.422 368.944 249.873 369.594 249.852C370.492 250.143 370.974 250.478 371.991 250.745C373.007 251.011 375.171 251.315 376.142 251.542C378.14 252.01 379.292 252.629 380.586 254.035C381.876 255.512 383.171 256.977 384.486 258.473C385.734 259.053 387.406 260.08 388.549 260.564C389.693 261.047 390.311 260.992 391.348 261.377C390.724 263.272 389.903 265.105 389.449 267.065C389.079 268.666 388.957 270.33 388.791 271.963C388.378 271.681 387.961 271.397 387.543 271.111C387.667 270.15 387.778 269.179 387.997 268.235L387.999 268.237Z" fill="#F4908C"/>
</g>
<path d="M366.816 253.792C368.533 254.395 371.645 255.067 373.639 255.634C373.752 255.695 373.759 255.725 373.842 255.794C373.653 256.137 373.637 256.819 373.41 257.11C372.695 258.023 371.994 258.691 370.581 258.36C369.167 258.028 366.915 256.886 365.464 256.301C364.013 255.715 362.9 255.048 361.512 254.48C361.235 254.309 356.597 251.757 358.113 250.857C359.728 250.203 361.777 251.701 363.196 252.32C364.615 252.939 365.097 253.19 366.814 253.793L366.816 253.792Z" fill="#C6594E"/>
<path d="M365.34 259.293C367.026 259.874 369.995 260.482 371.947 260.989C372.049 261.045 372.056 261.073 372.13 261.139C371.941 261.474 371.878 262.139 371.645 262.416C370.914 263.284 370.261 263.981 368.881 263.679C367.501 263.378 365.351 262.277 363.93 261.735C362.51 261.193 361.405 260.533 360.051 259.986C359.772 259.814 355.136 257.264 356.654 256.364C358.261 255.708 360.326 257.211 361.735 257.827C363.143 258.443 363.657 258.711 365.34 259.293Z" fill="#C6594E"/>
<path d="M366.731 262.261C368.45 262.621 371.385 262.709 373.336 263.032C373.436 263.072 373.457 263.106 373.526 263.16C373.411 263.522 373.256 264.175 373.124 264.475C372.711 265.417 372.211 265.95 371.38 266.486C369.592 266.022 367.257 265.408 365.609 264.934C363.96 264.459 363.013 264.083 361.493 263.639C361.207 263.506 356.203 261.438 357.652 260.352C359.197 259.491 361.472 260.81 362.958 261.237C364.444 261.664 365.007 261.899 366.728 262.261H366.731Z" fill="#C6594E"/>
<path d="M373.726 255.526C374.871 255.628 375.037 255.591 375.787 255.069C375.874 255.009 375.854 254.942 375.976 254.902C376.098 254.861 376.244 254.912 376.331 255.032C376.594 255.394 376.539 255.84 376.539 256.257C376.534 258.96 377.338 261.37 378.099 263.93C377.113 264.465 376.149 265.038 375.198 265.631C373.803 265.841 372.428 266.07 371.068 266.513C370.521 266.204 369.347 266.051 368.927 265.71C368.311 265.213 369.546 260.106 369.463 258.863C369.396 257.852 365.969 253.756 367.594 254.288C368.341 254.531 372.578 255.426 373.724 255.526H373.726Z" fill="#C6594E"/>
<path d="M365.273 259.274C366.724 259.789 368.773 260.214 370.365 260.623C365.614 261.282 361.399 257.959 357.194 256.177C358.779 256.292 360.36 257.215 361.717 257.822C363.074 258.429 363.823 258.759 365.273 259.276V259.274Z" fill="#C6594E"/>
<path d="M365.581 256.668C367.291 257.269 370.353 257.973 372.353 258.476C372.46 258.534 372.467 258.564 372.545 258.63C372.358 258.968 372.324 259.644 372.097 259.928C371.377 260.819 370.699 261.502 369.296 261.193C367.893 260.885 365.674 259.747 364.232 259.171C362.79 258.596 361.664 257.917 360.282 257.352C360.005 257.179 355.367 254.63 356.883 253.73C358.498 253.075 360.549 254.573 361.966 255.193C363.383 255.812 363.872 256.064 365.582 256.666L365.581 256.668Z" fill="#C6594E"/>
<g style="mix-blend-mode:multiply" opacity="0.54">
<path d="M357.448 260.502C358.281 259.822 357.529 260.433 358.032 260.103C359.064 261.449 360.27 261.855 362.183 262.612C362.229 262.63 365.219 263.595 366.057 263.844C366.894 264.094 369.518 264.773 370.247 264.98C370.976 265.186 371.186 265.31 371.477 265.4C371.733 265.477 371.512 265.417 371.512 265.417C373.124 265.696 373.53 265.56 375.517 265.569C376.403 265.573 379.882 265.793 381.177 265.567C382.829 266.591 384.015 267.333 385.688 268.417C386.539 268.967 387.953 269.991 388.904 270.613C388.876 271.074 388.837 271.524 388.784 271.958C387.706 271.252 386.133 270.111 385.168 269.484C383.461 268.378 382.319 267.66 380.623 266.624C379.467 266.859 375.681 266.598 374.984 266.614C373.422 266.649 371.934 266.638 371.267 266.54C370.665 266.45 371.145 266.522 371.145 266.522C370.348 266.291 370.736 266.342 369.772 266.06C368.809 265.777 366.789 265.292 365.535 264.911C364.28 264.532 362.76 264.061 361.555 263.612C360.619 263.925 357.028 260.846 357.448 260.502Z" fill="#F4908C"/>
</g>
<path d="M465.106 198.519C465.113 198.559 465.159 198.644 465.119 199.981C464.492 220.775 449.48 267.272 429.758 273.881C410.794 280.238 393.272 276.729 376.904 268.928C374.596 267.829 374.271 264.701 376.267 263.102C378.648 261.193 380.129 259.156 382.123 255.376C385.162 249.615 410.978 254.94 418.768 254.9C426.559 254.859 429.975 243.551 431.135 236.473C432.402 228.73 438.574 219.818 440.936 214.312C443.588 208.126 455.759 191.234 460.36 193.727C462.307 194.782 464.829 196.747 465.108 198.521L465.106 198.519Z" fill="#4E4E4E"/>
<path d="M207.978 276.903L179.623 268.646L203.215 262.751L231.572 271.008L207.978 276.903Z" fill="#C9D0D1"/>
<path d="M217.128 273.655L188.771 265.398L212.362 259.503L240.719 267.76L217.128 273.655Z" fill="#E6E6E6"/>
<path d="M219.509 280.732L191.153 272.475L214.745 266.58L243.1 274.837L219.509 280.732Z" fill="#F7F7F7"/>
</g>
<defs>
<clipPath id="clip0_56_14277">
<rect width="554" height="432" fill="white"/>
</clipPath>
</defs>
</svg>
