<svg width="22" height="28" viewBox="0 0 22 28" fill="none" xmlns="http://www.w3.org/2000/svg">
<path d="M0.325928 10.6985V17.5306H9.38601V9.7677H1.25627C0.741717 9.7677 0.325928 10.1849 0.325928 10.6985Z" fill="#A6A8A9"/>
<path d="M20.7435 9.7677H12.6138V17.5307H21.6738V10.6986C21.6738 10.1849 21.258 9.7677 20.7435 9.7677Z" fill="#A6A8A9"/>
<path d="M0.325928 27.0696C0.325928 27.5841 0.741772 28 1.25627 28H9.38601V20.2374H0.325928V27.0696Z" fill="#A6A8A9"/>
<path d="M12.6138 28.0001H20.7435C21.258 28.0001 21.6738 27.5842 21.6738 27.0697V20.2375H12.6138V28.0001Z" fill="#A6A8A9"/>
<path d="M18.475 6.21163C18.8577 5.7919 19.1649 5.33597 19.3795 4.85374C19.5937 4.37194 19.7156 3.86214 19.7156 3.34671C19.7161 3.00415 19.6609 2.66027 19.5467 2.33013C19.4191 1.9617 19.2338 1.62723 19.0046 1.33766C18.6611 0.901962 18.2211 0.566673 17.7346 0.341306C17.2481 0.116376 16.7137 7.72957e-07 16.1685 7.72957e-07C15.769 7.72957e-07 15.3644 0.0629461 14.9706 0.192665C14.3793 0.386587 13.8122 0.734345 13.3343 1.23424C12.8555 1.73458 12.4677 2.38487 12.213 3.17089C11.8803 4.19311 10.884 6.51241 10.8564 6.56928H10.7616C10.7336 6.51241 9.73767 4.19306 9.40501 3.17089C9.23476 2.64644 9.00677 2.18274 8.73054 1.78413C8.31683 1.18557 7.79588 0.73347 7.22789 0.437829C6.65986 0.141423 6.0479 -0.00038204 5.44929 7.72957e-07C4.72315 0.000438273 4.01386 0.206884 3.41393 0.603313C3.11447 0.801118 2.84207 1.04765 2.61364 1.33766C2.38395 1.62723 2.19867 1.96164 2.07108 2.33013C1.95646 2.66066 1.90215 3.00453 1.90259 3.34671C1.90259 3.68977 1.95646 4.03151 2.05599 4.3633C2.23055 4.94419 2.54129 5.49538 2.95751 5.99873C3.58325 6.75374 4.44857 7.40403 5.49966 7.87074C6.55026 8.337 7.78883 8.61842 9.15661 8.61842C9.93143 8.61799 10.7791 8.62488 10.8088 8.61842C10.8386 8.62488 11.6858 8.61799 12.4615 8.61842C13.5031 8.61842 14.4706 8.45556 15.3363 8.17152C16.6357 7.7449 17.7083 7.04977 18.475 6.21163ZM14.1966 2.68866C14.4702 2.29349 14.789 2.02459 15.1256 1.84877C15.4626 1.67295 15.8195 1.59152 16.1685 1.59064C16.5917 1.59064 16.9994 1.71303 17.3261 1.93025C17.4907 2.03886 17.635 2.17027 17.7557 2.32324C17.8763 2.4762 17.9737 2.65076 18.0431 2.85026C18.0974 3.00672 18.1237 3.17089 18.1241 3.34627C18.1241 3.52215 18.0965 3.70956 18.0375 3.90606C17.9349 4.25037 17.7345 4.62224 17.4342 4.98427C16.986 5.52683 16.3167 6.0422 15.4729 6.41627C14.6283 6.7912 13.6108 7.02691 12.4615 7.02691C12.3999 7.02691 12.34 7.02603 12.2822 7.02428C12.7002 6.32357 13.2053 5.26258 13.7259 3.66209C13.8527 3.27299 14.0138 2.9528 14.1966 2.68866ZM3.69279 4.20777C3.55623 3.90092 3.49372 3.60959 3.49372 3.34671C3.49372 3.17089 3.52041 3.00716 3.57472 2.85113L3.5751 2.85026C3.64406 2.65076 3.74146 2.47625 3.86254 2.32324C4.04311 2.09399 4.27838 1.91209 4.55116 1.78582C4.8235 1.6596 5.13211 1.59059 5.44924 1.59059C5.68193 1.59059 5.91813 1.62723 6.14951 1.70395C6.49689 1.81858 6.83256 2.02065 7.13383 2.33483C7.43418 2.64901 7.70225 3.07863 7.89224 3.66253C8.41237 5.26263 8.9179 6.32363 9.33588 7.02477C9.27775 7.02603 9.21825 7.02696 9.15661 7.02696C8.28096 7.02696 7.48154 6.89035 6.77694 6.65935C5.72027 6.31373 4.87737 5.7522 4.31754 5.13855C4.0371 4.83175 3.82814 4.51325 3.69279 4.20777Z" fill="#A6A8A9"/>
</svg>
