<svg width="26" height="26" viewBox="0 0 26 26" fill="none" xmlns="http://www.w3.org/2000/svg">
<g clip-path="url(#clip0_1_2737)">
<path d="M19.6146 6.84015C19.5455 6.84015 19.4755 6.82456 19.4101 6.7914C19.1851 6.67826 19.0942 6.40404 19.2074 6.17888C20.5233 3.56461 22.3769 1.04144 22.8785 0.540028C23.2247 0.193954 23.684 0.00210254 24.1726 0.00012207C24.1749 0.00012207 24.1776 0.00012207 24.1802 0.00012207C24.6671 0.00012207 25.1237 0.189028 25.4668 0.532259C25.6449 0.71045 25.6449 0.999294 25.4668 1.17733C25.2886 1.35552 24.9999 1.35552 24.8217 1.17733C24.6497 1.00534 24.4105 0.911138 24.1762 0.912458C23.9303 0.913575 23.6987 1.01047 23.5236 1.18531C23.157 1.55174 21.3497 3.95197 20.0226 6.58914C19.9425 6.74839 19.7816 6.84015 19.6146 6.84015Z" fill="#A6A8A9"/>
<path d="M20.9832 2.73718H14.721C13.9952 2.73718 13.299 3.02552 12.7857 3.53882L0.268226 16.0562C-0.0881064 16.4125 -0.0881064 16.9902 0.268226 17.3464L8.6547 25.7329C9.01103 26.0892 9.58862 26.0892 9.9449 25.7329L22.4623 13.2154C22.9756 12.7022 23.264 12.006 23.264 11.2801V5.01797C23.2641 3.75834 22.2428 2.73718 20.9832 2.73718ZM20.5824 7.35411C20.0479 7.88858 19.1814 7.88858 18.6471 7.35411C18.1126 6.81964 18.1126 5.95321 18.6471 5.41879C19.1815 4.88437 20.048 4.88432 20.5824 5.41879C21.1168 5.95326 21.1168 6.81974 20.5824 7.35411Z" fill="#E6E6E6"/>
<path d="M1.63744 17.4255L14.1548 4.90798C14.6681 4.39473 15.3643 4.10635 16.0901 4.10635H22.3523C22.6237 4.10635 22.8801 4.1619 23.1215 4.24879C22.8049 3.36951 21.9715 2.73718 20.9832 2.73718H14.721C13.9952 2.73718 13.299 3.02552 12.7857 3.53882L0.268226 16.0562C-0.0881064 16.4125 -0.0881064 16.9902 0.268226 17.3464L1.63739 18.7156C1.28111 18.3594 1.28111 17.7817 1.63744 17.4255Z" fill="#A6A8A9"/>
<path d="M19.6154 6.84015C19.4483 6.84015 19.2875 6.74839 19.2074 6.58894C19.0942 6.36398 19.1851 6.08976 19.4101 5.97641C22.0468 4.65001 24.4471 2.8423 24.8137 2.47561C24.9888 2.30056 25.0855 2.0689 25.0868 1.82302C25.0877 1.57845 24.9936 1.34923 24.8217 1.17733C24.6498 1.00544 24.4106 0.911138 24.1763 0.912458C23.9303 0.913575 23.6987 1.01047 23.5237 1.18531C23.3455 1.3635 23.0568 1.3635 22.8786 1.18531C22.7004 1.00737 22.7004 0.718423 22.8786 0.540231C23.2246 0.193903 23.6839 0.00210254 24.1726 0.00012207C24.1748 0.00012207 24.1775 0.00012207 24.1802 0.00012207C24.6671 0.00012207 25.1237 0.189028 25.4667 0.532259C25.812 0.877267 26.0008 1.33699 25.999 1.82657C25.9968 2.31499 25.8053 2.77456 25.4587 3.12068C24.9575 3.6223 22.4339 5.47637 19.8198 6.79161C19.7544 6.82456 19.684 6.84015 19.6154 6.84015Z" fill="#A6A8A9"/>
<path d="M12.3161 18.7709C12.0011 18.7709 11.7458 18.5157 11.7458 18.2007V9.16922C11.7458 8.85428 12.0011 8.599 12.3161 8.599C12.631 8.599 12.8863 8.85428 12.8863 9.16922V18.2008C12.8863 18.5157 12.631 18.7709 12.3161 18.7709Z" fill="#A6A8A9"/>
<path d="M9.09058 15.6236C8.57297 15.6236 8.08603 15.4218 7.71984 15.0556C7.35366 14.6896 7.15186 14.2028 7.15186 13.6849C7.15186 13.167 7.35366 12.6801 7.71984 12.3139C8.08603 11.948 8.57292 11.7462 9.09058 11.7462C9.60865 11.7462 10.0956 11.948 10.4613 12.3144C10.8275 12.6804 11.0293 13.1673 11.0293 13.6849C11.0293 14.2028 10.8275 14.6896 10.4613 15.0558C10.0956 15.4218 9.6087 15.6236 9.09058 15.6236ZM9.09058 12.8866C8.87766 12.8866 8.67717 12.9697 8.5262 13.1205C8.37523 13.2713 8.2923 13.4718 8.2923 13.6849C8.2923 13.898 8.37518 14.0985 8.5262 14.2491C8.82825 14.5514 9.35302 14.55 9.65502 14.2496C9.80599 14.0986 9.88891 13.8981 9.88891 13.6849C9.88891 13.4718 9.80604 13.2713 9.65502 13.1207C9.65502 13.1205 9.65502 13.1205 9.65502 13.1203C9.50399 12.9697 9.30396 12.8866 9.09058 12.8866Z" fill="#A6A8A9"/>
<path d="M15.542 15.6236C15.0239 15.6236 14.537 15.4218 14.1713 15.0554C13.8051 14.6896 13.6033 14.2028 13.6033 13.6849C13.6033 13.167 13.8051 12.6801 14.1713 12.314C14.537 11.948 15.0239 11.7462 15.542 11.7462C16.0596 11.7462 16.5466 11.948 16.9127 12.3142C17.2789 12.6804 17.4807 13.1671 17.4807 13.6849C17.4807 14.2028 17.2789 14.6897 16.9127 15.0559C16.5465 15.4218 16.0596 15.6236 15.542 15.6236ZM15.542 12.8866C15.3286 12.8866 15.1286 12.9696 14.9776 13.1203C14.8266 13.2712 14.7437 13.4717 14.7437 13.6849C14.7437 13.898 14.8266 14.0985 14.9776 14.2491C15.2797 14.5509 15.8044 14.5516 16.1064 14.2493C16.2574 14.0985 16.3403 13.8981 16.3403 13.6849C16.3403 13.4718 16.2575 13.2713 16.1064 13.1207C16.1064 13.1205 16.1064 13.1205 16.1064 13.1205C15.9554 12.9696 15.755 12.8866 15.542 12.8866Z" fill="#A6A8A9"/>
</g>
<defs>
<clipPath id="clip0_1_2737">
<rect width="26" height="26" fill="white"/>
</clipPath>
</defs>
</svg>
