<?xml version="1.0" encoding="utf-8"?>
<!-- Generator: Adobe Illustrator 27.1.1, SVG Export Plug-In . SVG Version: 6.00 Build 0)  -->
<svg version="1.1" id="Layer_1" xmlns="http://www.w3.org/2000/svg" xmlns:xlink="http://www.w3.org/1999/xlink" x="0px" y="0px"
	 viewBox="0 0 26 26" style="enable-background:new 0 0 26 26;" xml:space="preserve">
<style type="text/css">
	.st0{fill:#A6A8A9;}
	.st1{fill:#E6E6E6;}
</style>
<g>
	<path class="st0" d="M19.6,6.8c-0.1,0-0.1,0-0.2,0c-0.2-0.1-0.3-0.4-0.2-0.6c1.3-2.6,3.2-5.1,3.7-5.6C23.2,0.2,23.7,0,24.2,0l0,0
		c0.5,0,0.9,0.2,1.3,0.5c0.2,0.2,0.2,0.5,0,0.6c-0.2,0.2-0.5,0.2-0.6,0c-0.2-0.2-0.4-0.3-0.6-0.3s-0.5,0.1-0.7,0.3
		C23.2,1.6,21.3,4,20,6.6C19.9,6.7,19.8,6.8,19.6,6.8z"/>
	<path class="st1" d="M9.6,13.1c-0.1-0.1-0.3-0.2-0.5-0.2c-0.2,0-0.4,0.1-0.6,0.2c-0.2,0.2-0.2,0.4-0.2,0.6s0.1,0.4,0.2,0.6
		c0.3,0.3,0.8,0.3,1.1,0c0.2-0.2,0.2-0.4,0.2-0.6S9.7,13.3,9.6,13.1z M9.6,13.1c-0.1-0.1-0.3-0.2-0.5-0.2c-0.2,0-0.4,0.1-0.6,0.2
		c-0.2,0.2-0.2,0.4-0.2,0.6s0.1,0.4,0.2,0.6c0.3,0.3,0.8,0.3,1.1,0c0.2-0.2,0.2-0.4,0.2-0.6S9.7,13.3,9.6,13.1z M21,2.7h-6.3
		c-0.7,0-1.4,0.3-1.9,0.8L0.3,16.1c-0.4,0.4-0.4,0.9,0,1.3l8.4,8.4c0.4,0.4,0.9,0.4,1.3,0l12.5-12.5c0.5-0.5,0.8-1.2,0.8-1.9V5
		C23.3,3.8,22.2,2.7,21,2.7z M10.5,15c-0.4,0.4-0.9,0.6-1.4,0.6s-1-0.2-1.4-0.6c-0.4-0.4-0.6-0.9-0.6-1.4s0.2-1,0.6-1.4
		c0.4-0.4,0.9-0.6,1.4-0.6s1,0.2,1.4,0.6c0.4,0.4,0.6,0.9,0.6,1.4S10.9,14.6,10.5,15z M12.9,18.2c0,0.3-0.3,0.6-0.6,0.6
		s-0.6-0.3-0.6-0.6v-9c0-0.3,0.3-0.6,0.6-0.6s0.6,0.3,0.6,0.6V18.2z M16.9,15c-0.4,0.4-0.8,0.6-1.4,0.6c-0.5,0-1-0.2-1.4-0.6
		c-0.4-0.4-0.6-0.9-0.6-1.4s0.2-1,0.6-1.4c0.4-0.4,0.9-0.6,1.4-0.6s1,0.2,1.4,0.6c0.4,0.4,0.6,0.9,0.6,1.4S17.3,14.6,16.9,15z
		 M20.6,7.4c-0.5,0.5-1.4,0.5-1.9,0s-0.5-1.4,0-1.9s1.4-0.5,1.9,0S21.1,6.8,20.6,7.4z M15.5,12.9c-0.2,0-0.4,0.1-0.6,0.2
		c-0.2,0.2-0.2,0.4-0.2,0.6s0.1,0.4,0.2,0.6c0.3,0.3,0.8,0.3,1.1,0c0.2-0.2,0.2-0.4,0.2-0.6s-0.1-0.4-0.2-0.6
		C16,13,15.8,12.9,15.5,12.9z M9.1,12.9c-0.2,0-0.4,0.1-0.6,0.2c-0.2,0.2-0.2,0.4-0.2,0.6s0.1,0.4,0.2,0.6c0.3,0.3,0.8,0.3,1.1,0
		c0.2-0.2,0.2-0.4,0.2-0.6s-0.1-0.4-0.2-0.6C9.5,13,9.3,12.9,9.1,12.9z M9.6,13.1c-0.1-0.1-0.3-0.2-0.5-0.2c-0.2,0-0.4,0.1-0.6,0.2
		c-0.2,0.2-0.2,0.4-0.2,0.6s0.1,0.4,0.2,0.6c0.3,0.3,0.8,0.3,1.1,0c0.2-0.2,0.2-0.4,0.2-0.6S9.7,13.3,9.6,13.1z M9.6,13.1
		c-0.1-0.1-0.3-0.2-0.5-0.2c-0.2,0-0.4,0.1-0.6,0.2c-0.2,0.2-0.2,0.4-0.2,0.6s0.1,0.4,0.2,0.6c0.3,0.3,0.8,0.3,1.1,0
		c0.2-0.2,0.2-0.4,0.2-0.6S9.7,13.3,9.6,13.1z"/>
	<path class="st0" d="M1.6,17.4L14.2,4.9c0.5-0.5,1.2-0.8,1.9-0.8h6.3c0.3,0,0.5,0.1,0.8,0.1C22.8,3.4,22,2.7,21,2.7h-6.3
		c-0.7,0-1.4,0.3-1.9,0.8L0.3,16.1c-0.4,0.4-0.4,0.9,0,1.3l1.4,1.4C1.3,18.4,1.3,17.8,1.6,17.4z"/>
	<path class="st0" d="M19.6,6.8c-0.2,0-0.3-0.1-0.4-0.3c-0.1-0.2,0-0.5,0.2-0.6c2.6-1.3,5-3.1,5.4-3.5C25,2.2,25.1,2,25.1,1.7
		c0-0.2-0.1-0.5-0.3-0.6c-0.2-0.2-0.4-0.3-0.6-0.3s-0.5,0.1-0.7,0.3s-0.5,0.2-0.6,0c-0.2-0.2-0.2-0.5,0-0.6C23.2,0.2,23.7,0,24.2,0
		l0,0c0.5,0,0.9,0.2,1.3,0.5C25.8,0.9,26,1.3,26,1.8s-0.2,0.9-0.5,1.3c-0.5,0.5-3,2.4-5.6,3.7C19.8,6.8,19.7,6.8,19.6,6.8z"/>
</g>
</svg>
