<svg width="26" height="26" viewBox="0 0 26 26" fill="none" xmlns="http://www.w3.org/2000/svg">
<g clip-path="url(#clip0_1_2748)">
<path d="M9.90845 26.0003H16.078V24.6782H9.90845V26.0003Z" fill="#A6A8A9"/>
<path d="M15.2035 5.73576C15.2035 4.51902 14.2168 3.53235 13 3.53235C11.7833 3.53235 10.7966 4.51902 10.7966 5.73576C10.7966 6.9525 11.7833 7.93917 13 7.93917C14.2168 7.93917 15.2035 6.9525 15.2035 5.73576Z" fill="#E6E6E6"/>
<path d="M7.70511 11.4712C7.59227 11.4712 7.47949 11.428 7.39356 11.3421C5.89392 9.84248 5.06812 7.85147 5.06812 5.7358C5.06812 3.62013 5.89392 1.62912 7.39356 0.129491C7.56588 -0.0428382 7.84439 -0.0428382 8.01667 0.129491C8.189 0.301356 8.189 0.580326 8.01667 0.752604C6.68363 2.08564 5.94944 3.85588 5.94944 5.7358C5.94944 7.61619 6.68363 9.38596 8.01667 10.719C8.189 10.8913 8.189 11.1698 8.01667 11.3421C7.93074 11.428 7.8179 11.4712 7.70511 11.4712Z" fill="#A6A8A9"/>
<path d="M18.2948 11.4712C18.182 11.4712 18.0692 11.428 17.9833 11.3421C17.8109 11.1698 17.8109 10.8913 17.9833 10.719C19.3168 9.3855 20.0509 7.61572 20.0509 5.7358C20.0509 3.85588 19.3167 2.0861 17.9833 0.752604C17.8109 0.580274 17.8109 0.301356 17.9833 0.129491C18.1556 -0.0428382 18.4341 -0.0428382 18.6064 0.129491C20.106 1.62912 20.9323 3.62054 20.9323 5.7358C20.9323 7.85106 20.106 9.84248 18.6064 11.3421C18.5204 11.428 18.4076 11.4712 18.2948 11.4712Z" fill="#A6A8A9"/>
<path d="M17.049 10.2253C16.9361 10.2253 16.8233 10.1821 16.7374 10.0962C16.5651 9.92388 16.5651 9.64538 16.7374 9.4731C17.7373 8.47321 18.2886 7.14632 18.2886 5.73572C18.2886 4.32599 17.7373 2.99864 16.7374 1.99833C16.5651 1.826 16.5651 1.5475 16.7374 1.37522C16.9097 1.20289 17.1882 1.20289 17.3605 1.37522C18.527 2.54171 19.1695 4.09066 19.1695 5.73572C19.1695 7.38165 18.527 8.93019 17.3605 10.0962C17.2746 10.1821 17.1617 10.2253 17.049 10.2253Z" fill="#A6A8A9"/>
<path d="M8.95109 10.2253C8.83825 10.2253 8.72547 10.1821 8.63953 10.0962C7.47305 8.93019 6.83057 7.38119 6.83057 5.73572C6.83057 4.09066 7.4731 2.54166 8.63953 1.37522C8.81186 1.20289 9.09037 1.20289 9.26265 1.37522C9.43498 1.54755 9.43498 1.82605 9.26265 1.99833C8.26275 2.99869 7.71189 4.32599 7.71189 5.73572C7.71189 7.1459 8.26275 8.47279 9.26265 9.4731C9.43498 9.64543 9.43498 9.92394 9.26265 10.0962C9.17671 10.1821 9.06393 10.2253 8.95109 10.2253Z" fill="#A6A8A9"/>
<path d="M15.8029 8.97949C15.69 8.97949 15.5772 8.93632 15.4913 8.85039C15.319 8.67806 15.319 8.39914 15.4913 8.22727C16.1585 7.56052 16.5256 6.67564 16.5256 5.73611C16.5256 4.79613 16.1585 3.91124 15.4913 3.24408C15.319 3.07221 15.319 2.79324 15.4913 2.62096C15.6636 2.4491 15.9421 2.4491 16.1144 2.62096C16.9482 3.45431 17.4069 4.56084 17.4069 5.73611C17.4069 6.91185 16.9477 8.0175 16.1144 8.85039C16.0285 8.93632 15.9157 8.97949 15.8029 8.97949Z" fill="#A6A8A9"/>
<path d="M10.1969 8.97949C10.0841 8.97949 9.97128 8.93632 9.88535 8.85039C9.052 8.0175 8.59326 6.91185 8.59326 5.73611C8.59326 4.56038 9.052 3.45426 9.88535 2.62096C10.0577 2.4491 10.3362 2.4491 10.5085 2.62096C10.6808 2.79329 10.6808 3.07221 10.5085 3.24408C9.84171 3.91083 9.47464 4.79571 9.47464 5.73611C9.47464 6.6761 9.84171 7.56099 10.5085 8.22727C10.6808 8.39914 10.6808 8.67811 10.5085 8.85039C10.4225 8.93632 10.3097 8.97949 10.1969 8.97949Z" fill="#A6A8A9"/>
<path d="M13 7.82962C12.6863 7.82962 12.3888 7.80183 12.1187 7.75293L12.1121 14.5425H13.8748L13.8814 7.75298C13.6113 7.80189 13.3138 7.82962 13 7.82962Z" fill="#A6A8A9"/>
<path d="M11.2305 24.6782H14.7559V14.5426H11.2305V24.6782Z" fill="#E6E6E6"/>
</g>
<defs>
<clipPath id="clip0_1_2748">
<rect width="26" height="26" fill="white"/>
</clipPath>
</defs>
</svg>
