<svg width="26" height="28" viewBox="0 0 26 28" fill="none" xmlns="http://www.w3.org/2000/svg">
<path d="M14.6958 4.08669C15.8244 4.08669 16.7396 3.17193 16.7396 2.04334C16.7396 0.914812 15.8244 0 14.6958 0C13.5676 0 12.6528 0.914812 12.6528 2.04334C12.6528 3.17193 13.5676 4.08669 14.6958 4.08669Z" fill="#A6A8A9"/>
<path d="M19.3547 23.9686C19.3547 23.4163 18.907 22.9686 18.3547 22.9686H15.4465C14.8942 22.9686 14.4465 22.5209 14.4465 21.9686V20.3948C14.4465 19.8425 13.9988 19.3948 13.4465 19.3948H10.5402C9.98791 19.3948 9.5402 18.9471 9.5402 18.3948V16.8202C9.5402 16.2679 9.09248 15.8202 8.5402 15.8202H5.63238C5.08009 15.8202 4.63238 15.3725 4.63238 14.8202V13.2456C4.63238 12.6933 4.18466 12.2456 3.63238 12.2456H1.18086C0.778537 12.2456 0.452393 12.5718 0.452393 12.9741V12.9741C0.452393 13.3764 0.778537 13.7025 1.18086 13.7025H2.17578C2.72806 13.7025 3.17578 14.1503 3.17578 14.7025V16.2771C3.17578 16.8294 3.62349 17.2771 4.17578 17.2771H7.08365C7.63593 17.2771 8.08365 17.7248 8.08365 18.2771V19.8517C8.08365 20.404 8.53137 20.8517 9.08365 20.8517H11.9899C12.5422 20.8517 12.9899 21.2994 12.9899 21.8517V23.4255C12.9899 23.9778 13.4377 24.4255 13.9899 24.4255H16.8981C17.4504 24.4255 17.8981 24.8732 17.8981 25.4255V27.0001C17.8981 27.5524 18.3459 28.0001 18.8981 28.0001H23.441C23.8432 28.0001 24.1693 27.674 24.1693 27.2718V27.2718C24.1693 26.8696 23.8432 26.5435 23.441 26.5435L20.3546 26.5432C19.8024 26.5432 19.3547 26.0955 19.3547 25.5432V23.9686Z" fill="#A6A8A9"/>
<path d="M25.1397 9.91179C25.1049 9.67986 24.8888 9.51979 24.6564 9.55457L23.6758 9.702L23.5919 9.14447C23.5571 8.91762 23.3461 8.76231 23.1197 8.79589L23.0169 8.81131C23.0027 8.71648 22.9699 8.6228 22.9157 8.53667L21.4995 6.272C21.3466 6.02782 21.1138 5.84446 20.8404 5.75318L18.2762 4.55744C17.3579 4.12946 16.2846 4.19705 15.4267 4.73682L11.4851 7.21925L9.17817 6.13649C8.8198 5.93579 8.3677 6.05468 8.15475 6.40561L8.12555 6.45302C8.02044 6.62731 7.98801 6.8355 8.03701 7.03271C8.08562 7.22991 8.21168 7.39944 8.38635 7.50379L11.1358 9.14447C11.4777 9.34872 11.8946 9.38553 12.2671 9.24482L13.8956 8.36757L14.6677 11.4822L12.1012 11.4692C11.6689 11.468 11.2584 11.6597 10.9825 11.9928C10.7067 12.3259 10.5949 12.7649 10.677 13.1897L11.5405 17.6348C11.6361 18.1272 12.1027 18.4567 12.5987 18.3824L12.6358 18.3769C13.127 18.3034 13.4752 17.8596 13.4297 17.3653L13.1373 14.1804L17.0102 14.2704C17.5661 14.2831 18.0981 14.0432 18.4565 13.6177C18.8149 13.1925 18.9607 12.6274 18.8536 12.0813L18.7544 11.5778L17.9578 7.08258L20.0106 7.38566L21.5122 9.12713C21.4237 9.21725 21.3717 9.34047 21.3917 9.47489L21.4756 10.0332L20.4951 10.1806C20.2628 10.2154 20.1031 10.432 20.1383 10.6643L20.541 13.3434C20.5761 13.5754 20.7923 13.7354 21.0243 13.7006L25.1861 13.0747C25.418 13.04 25.5777 12.8234 25.5429 12.591L25.1397 9.91179ZM21.7908 9.44158C22.0275 9.6716 22.3912 9.71502 22.6743 9.53564L22.691 9.52493C22.8105 9.44946 22.8988 9.34358 22.9549 9.22502L23.1793 9.191L23.1967 9.20364L23.2807 9.76167L21.8708 9.97342L21.7908 9.44158Z" fill="#A6A8A9"/>
<path d="M20.5285 21.0456C20.8723 21.4047 21.4402 21.4265 21.8105 21.0942L21.8369 21.0709C22.206 20.7397 22.2463 20.175 21.9287 19.7937L19.8122 16.9537L19.2203 13.9458C19.1744 14.0118 19.1274 14.077 19.0752 14.139C18.5718 14.7369 17.834 15.0799 17.052 15.0799L16.6924 15.0715L17.3986 17.3567C17.5811 17.7345 17.8186 18.0838 18.1027 18.394L20.5285 21.0456Z" fill="#A6A8A9"/>
</svg>
