<svg width="28" height="28" viewBox="0 0 28 28" fill="none" xmlns="http://www.w3.org/2000/svg">
<path d="M9.0099 5.57214H6.51485C8.59406 3.76119 11.0891 2.78607 13.8614 2.78607C14.2772 2.78607 14.6931 2.78607 15.1089 2.92537C15.802 3.06468 16.495 2.50746 16.6337 1.67164C16.7723 0.975124 16.2178 0.278607 15.3861 0.139303C14.8317 -1.42339e-07 14.4158 0 13.8614 0C10.5347 0 7.34653 1.25373 4.85148 3.34328V1.39303C4.85148 0.557214 4.29703 0 3.46535 0C2.63366 0 2.07921 0.557214 2.07921 1.39303V6.96517C2.07921 7.801 2.63366 8.35821 3.46535 8.35821H9.0099C9.84158 8.35821 10.396 7.801 10.396 6.96517C10.396 6.12935 9.84158 5.57214 9.0099 5.57214ZM6.93069 17.4129C6.09901 17.4129 5.54455 17.9701 5.54455 18.806V21.3134C3.74257 19.2239 2.77228 16.7164 2.77228 13.9303C2.77228 13.5124 2.77228 13.0945 2.91089 12.6766C3.0495 11.9801 2.49505 11.2836 1.66337 11.1443C0.970297 11.005 0.277228 11.5622 0.138614 12.398C-1.41635e-07 12.9552 0 13.3731 0 13.9303C0 17.2736 1.24752 20.4776 3.32673 22.9851H1.38614C0.554455 22.9851 0 23.5423 0 24.3781C0 25.2139 0.554455 25.7711 1.38614 25.7711H6.93069C7.34653 25.7711 7.76238 25.4925 8.0396 25.2139C8.0396 25.0746 8.17822 24.9353 8.17822 24.796C8.17822 24.6567 8.17822 24.6567 8.17822 24.5174V18.806C8.31683 17.9701 7.76238 17.4129 6.93069 17.4129ZM26.3366 4.87562C27.1683 4.87562 27.7228 4.31841 27.7228 3.48259C27.7228 2.64677 27.1683 2.08955 26.3366 2.08955H20.7921C20.6535 2.08955 20.6535 2.08955 20.5148 2.08955C20.3762 2.08955 20.2376 2.22886 20.099 2.22886C19.9604 2.36816 19.8218 2.36816 19.8218 2.50746C19.8218 2.64677 19.6832 2.78607 19.6832 2.78607C19.6832 2.92537 19.6832 2.92537 19.6832 3.06468V8.77612C19.6832 9.61194 20.2376 10.1692 21.0693 10.1692C21.901 10.1692 22.4554 9.61194 22.4554 8.77612V6.54726C24.2574 8.49751 25.2277 11.1443 25.2277 13.9303C25.2277 14.3483 25.2277 14.7662 25.0891 15.1841C24.9505 15.8806 25.5049 16.5771 26.3366 16.7164H26.4752C27.1683 16.7164 27.7228 16.1592 27.8614 15.4627C27.8614 14.9055 28 14.4876 28 13.9303C28 10.5871 26.7525 7.38308 24.6733 4.87562H26.3366ZM25.3663 20.199C25.2277 20.0597 25.0891 19.9204 24.9505 19.7811C24.8119 19.6418 24.6733 19.6418 24.5347 19.6418H18.7129C17.8812 19.6418 17.3267 20.199 17.3267 21.0348C17.3267 21.8706 17.8812 22.4279 18.7129 22.4279H21.2079C19.2673 24.2388 16.6337 25.2139 13.8614 25.2139C13.4455 25.2139 13.0297 25.2139 12.6139 25.0746C11.9208 24.9353 11.2277 25.4925 11.0891 26.3284C10.9505 27.1642 11.5049 27.7214 12.3366 27.8607C12.8911 27.8607 13.3069 28 13.8614 28C17.1881 28 20.3762 26.7463 22.8713 24.6567V26.4677C22.8713 27.3035 23.4257 27.8607 24.2574 27.8607C25.0891 27.8607 25.6436 27.3035 25.6436 26.4677V20.8955C25.6436 20.6169 25.5049 20.3383 25.3663 20.199Z" fill="#A6A8A9"/>
</svg>
