<svg width="28" height="28" viewBox="0 0 28 28" fill="none" xmlns="http://www.w3.org/2000/svg">
<path d="M27.6408 9.39684C27.634 8.05718 26.5386 6.96729 25.1989 6.96729C24.767 6.96729 21.1208 6.96729 20.6983 6.96729C20.7843 7.28291 20.8317 7.61417 20.8334 7.95597L20.8744 16.1251C20.8789 17.0018 20.3957 17.769 19.6802 18.17V26.753C19.6802 27.4368 20.2346 27.9912 20.9184 27.9912C21.6022 27.9912 22.1566 27.4369 22.1566 26.753V17.1231C22.1566 16.9755 22.2763 16.8558 22.424 16.8558C22.5716 16.8558 22.6913 16.9755 22.6913 17.1232V26.7531C22.6913 27.4369 23.2456 27.9913 23.9295 27.9913C24.6134 27.9913 25.1677 27.437 25.1677 26.7531C25.1677 10.3801 25.1458 19.7512 25.1453 9.41309C25.1453 9.29496 25.2402 9.19868 25.3584 9.1971C25.4765 9.19552 25.5739 9.28918 25.5772 9.40731L25.6153 16.9879C25.6181 17.5561 26.0795 18.0146 26.647 18.0146C26.6487 18.0146 26.6506 18.0146 26.6523 18.0146C27.2221 18.0117 27.6818 17.5474 27.6789 16.9776L27.6408 9.39684Z" fill="#A6A8A9"/>
<path d="M22.4378 6.28541C23.6179 6.28541 24.5764 5.3271 24.5764 4.14689C24.5764 2.96576 23.6189 2.0083 22.4378 2.0083C21.2568 2.0083 20.2993 2.96576 20.2993 4.14689C20.2993 5.32752 21.2582 6.28541 22.4378 6.28541Z" fill="#A6A8A9"/>
<path d="M7.12547 16.1251L7.16649 7.95597C7.16819 7.61411 7.21554 7.28285 7.30154 6.96729C6.87923 6.96729 3.23276 6.96729 2.80089 6.96729C1.46116 6.96729 0.365791 8.05718 0.359096 9.39691L0.321058 16.9775C0.318198 17.5473 0.777818 18.0116 1.34772 18.0145C1.34948 18.0145 1.35125 18.0145 1.35301 18.0145C1.92042 18.0145 2.38186 17.556 2.38472 16.9878L2.42282 9.40719C2.4238 9.21469 2.57163 9.03089 2.82128 9.03089L2.82176 26.7529C2.82176 27.4367 3.37614 27.9911 4.05997 27.9911C4.74381 27.9911 5.29819 27.4368 5.29819 26.7529V17.1231C5.29819 16.9755 5.4179 16.8558 5.56555 16.8558C5.71319 16.8558 5.83291 16.9755 5.83291 17.1232V26.7531C5.83291 27.4369 6.38723 27.9913 7.07112 27.9913C7.75495 27.9913 8.30933 27.437 8.30933 26.7531V18.1639C7.59957 17.7612 7.12109 16.9974 7.12547 16.1251Z" fill="#A6A8A9"/>
<path d="M3.44092 4.14689C3.44092 4.78531 3.721 5.35801 4.16467 5.74989C4.54171 6.08292 5.03681 6.28541 5.57944 6.28541C6.76044 6.28541 7.71796 5.32801 7.71796 4.14689C7.71803 2.96576 6.76057 2.0083 5.57944 2.0083C4.39807 2.0083 3.44092 2.96613 3.44092 4.14689Z" fill="#A6A8A9"/>
<path d="M12.599 4.12654C12.9889 4.42877 13.4779 4.60916 14.0094 4.60916C15.2777 4.60916 16.3139 3.58025 16.3139 2.30461C16.314 1.02715 15.2755 0 14.0094 0C12.737 0 11.7048 1.03147 11.7048 2.30461C11.7048 3.01315 12.027 3.68323 12.599 4.12654Z" fill="#A6A8A9"/>
<path d="M16.9849 5.34375C16.3659 5.34375 11.6355 5.34375 11.0152 5.34375C9.93241 5.34375 8.99777 6.00445 8.595 6.94384C8.45709 7.26549 8.38557 7.61026 8.38381 7.96198L8.34279 16.1311V16.1312C8.33968 16.7453 8.83503 17.2456 9.44917 17.2487C9.45106 17.2487 9.45301 17.2487 9.4549 17.2487C10.0664 17.2487 10.5637 16.7545 10.5668 16.1423L10.6078 7.97311C10.6078 7.97281 10.6078 7.97245 10.6078 7.97214C10.6087 7.85389 10.705 7.75864 10.8233 7.75907C10.9415 7.75949 11.0372 7.85553 11.0372 7.97378L11.0376 26.6656V26.6657C11.0376 27.4026 11.635 28.0001 12.372 28.0001C13.109 28.0001 13.7064 27.4026 13.7064 26.6657V26.6656V16.2881C13.7064 16.129 13.8353 16 13.9944 16C14.1535 16 14.2825 16.129 14.2825 16.2881V26.6656V26.6657C14.2825 27.4026 14.8799 28.0001 15.6169 28.0001C16.3538 28.0001 16.9512 27.4026 16.9512 26.6657V26.6656C16.9512 21.8937 16.9283 12.9702 16.9271 7.97451C16.9271 7.8464 17.0306 7.74233 17.1588 7.74178C17.2869 7.74124 17.3914 7.84433 17.3925 7.97251C17.3925 7.97275 17.3925 7.97293 17.3925 7.97318L17.4335 16.1424C17.4366 16.7546 17.9338 17.2488 18.5453 17.2488C18.5472 17.2488 18.5491 17.2488 18.551 17.2488C19.1651 17.2457 19.6605 16.7454 19.6574 16.1312V16.1312L19.6164 7.96204C19.609 6.51714 18.4274 5.34375 16.9849 5.34375Z" fill="#A6A8A9"/>
</svg>
