<svg width="28" height="28" viewBox="0 0 28 28" fill="none" xmlns="http://www.w3.org/2000/svg">
<path d="M25.719 9.49626C25.3898 9.25411 25.1954 8.86368 25.1997 8.45507C25.1999 8.4367 25.2 8.41835 25.2 8.4C25.2 5.2972 22.5962 2.76546 19.5482 2.79928C19.1381 2.80383 18.7453 2.60873 18.5022 2.27837C17.4728 0.879481 15.8165 0 14 0C12.1835 0 10.5271 0.87955 9.49767 2.27854C9.25463 2.60882 8.86201 2.80394 8.45197 2.79929C5.39858 2.76467 2.8 5.29671 2.8 8.4C2.8 8.41835 2.8001 8.4367 2.80029 8.45507C2.80457 8.86368 2.61019 9.25411 2.28102 9.49626C0.880592 10.5265 0 12.1836 0 14C0 15.816 0.880256 17.4729 2.28022 18.5031C2.60974 18.7456 2.80487 19.1368 2.80034 19.5459C2.80014 19.564 2.80002 19.582 2.8 19.6C2.8 22.7038 5.39939 25.23 8.45338 25.1994C8.86268 25.1953 9.25428 25.3905 9.49677 25.7203C10.5261 27.1199 12.183 28 14 28C15.817 28 17.4738 27.12 18.5031 25.7204C18.7457 25.3906 19.1374 25.1955 19.5468 25.1995C22.5954 25.2292 25.2 22.7033 25.2 19.6C25.2 19.5817 25.1999 19.5633 25.1997 19.5449C25.1954 19.1363 25.3898 18.7459 25.719 18.5037C27.1194 17.4735 28 15.8164 28 14C28 12.1836 27.1194 10.5265 25.719 9.49626ZM13.2486 19.4761C12.8559 19.8659 12.2213 19.8627 11.8326 19.4689L8.10629 15.6949C7.71806 15.3017 7.72232 14.6682 8.11579 14.2802L8.6852 13.7188C9.07828 13.3312 9.71106 13.3355 10.0989 13.7283L11.8522 15.5042C12.2409 15.8979 12.8755 15.9011 13.2682 15.5114L17.9043 10.9107C18.2964 10.5215 18.9298 10.5241 19.3188 10.9164L19.8818 11.4842C20.2706 11.8763 20.268 12.5092 19.8762 12.8981L13.2486 19.4761Z" fill="#A6A8A9"/>
</svg>
