<svg width="27" height="26" viewBox="0 0 27 26" fill="none" xmlns="http://www.w3.org/2000/svg">
<g clip-path="url(#clip0_1_2763)">
<path d="M14.1948 14.6962H13.2529V20.6392H14.1948V14.6962Z" fill="#A4A9AD"/>
<path opacity="0.2" d="M13.7239 19.7105L13.2529 19.3413V20.6391H14.1948V19.3415L13.7239 19.7105Z" fill="#E7F4FA"/>
<path opacity="0.3" d="M13.2529 14.6962V16.4082C13.4052 16.4388 13.5626 16.4551 13.7239 16.4551C13.8851 16.4551 14.0425 16.4388 14.1948 16.4082V14.6962H13.2529Z" fill="#E7F4FA"/>
<path d="M11.7347 19.6785L16.1003 23.1001L16.6814 22.3588L12.3157 18.9371L11.7347 19.6785Z" fill="#A4A9AD"/>
<path opacity="0.1" d="M13.592 19.9375L12.8286 20.5358L13.592 21.1341L14.3554 20.5358L13.592 19.9375Z" fill="#E7F4FA"/>
<path opacity="0.2" d="M11.8586 19.5214L11.7998 19.729L12.6009 20.3568L12.8782 19.3776L12.3164 18.9373L11.8586 19.5214Z" fill="#E7F4FA"/>
<path opacity="0.1" d="M13.9372 20.2078L13.1738 20.8061L13.9372 21.4044L14.7006 20.8061L13.9372 20.2078Z" fill="#E7F4FA"/>
<path d="M10.7659 22.3588L11.3469 23.1001L15.7126 19.6785L15.1315 18.9371L10.7659 22.3588Z" fill="#A4A9AD"/>
<path opacity="0.2" d="M10.978 22.629L11.347 23.0997L11.9596 22.6196L12.3952 21.0815L11.137 22.0677L10.978 22.629Z" fill="#E7F4FA"/>
<path opacity="0.2" d="M15.1314 18.9373L14.5696 19.3776L14.8469 20.3568L15.648 19.729L15.5892 19.5214L15.1314 18.9373Z" fill="#E7F4FA"/>
<path opacity="0.2" d="M16.31 22.0677L15.0518 21.0815L15.4874 22.6196L16.1 23.0997L16.469 22.629L16.31 22.0677Z" fill="#E7F4FA"/>
<path d="M16.4293 24.5916L13.724 15.041L11.0187 24.5916L10.1125 24.335L13.2709 13.1848C13.3284 12.9821 13.5134 12.8422 13.7241 12.8422C13.9347 12.8422 14.1197 12.9821 14.1771 13.1848L17.3355 24.335L16.4293 24.5916Z" fill="#E6E6E6"/>
<path opacity="0.2" d="M14.1769 13.185C14.1195 12.9823 13.9345 12.8424 13.7239 12.8424C13.5132 12.8424 13.3282 12.9823 13.2708 13.185L12.4048 16.2422C12.6712 16.4051 12.9702 16.5195 13.2895 16.5747L13.7239 15.0412L14.1582 16.5747C14.4775 16.5195 14.7765 16.4051 15.0429 16.2422L14.1769 13.185Z" fill="#E7F4FA"/>
<path d="M13.7242 15.7783C14.662 15.7783 15.4222 15.0181 15.4222 14.0802C15.4222 13.1424 14.662 12.3822 13.7242 12.3822C12.7864 12.3822 12.0261 13.1424 12.0261 14.0802C12.0261 15.0181 12.7864 15.7783 13.7242 15.7783Z" fill="#D1D3D3"/>
<path d="M11.5013 16.1016C11.437 16.1016 11.3733 16.0737 11.3297 16.0199C10.8863 15.4733 10.6421 14.7844 10.6421 14.0801C10.6421 13.3759 10.8863 12.687 11.3297 12.1404C11.4065 12.0457 11.5455 12.0312 11.6402 12.1081C11.7349 12.1849 11.7494 12.3239 11.6726 12.4186C11.2928 12.8868 11.0836 13.4769 11.0836 14.0801C11.0836 14.6834 11.2928 15.2735 11.6726 15.7418C11.7493 15.8365 11.7349 15.9755 11.6402 16.0523C11.5993 16.0854 11.5501 16.1016 11.5013 16.1016Z" fill="#A6A8A9"/>
<path d="M10.4166 16.9803C10.3523 16.9803 10.2886 16.9524 10.245 16.8986C9.60101 16.1047 9.24634 15.1038 9.24634 14.0802C9.24634 13.0566 9.60101 12.0557 10.245 11.2618C10.3218 11.1671 10.4608 11.1525 10.5555 11.2294C10.6502 11.3062 10.6647 11.4452 10.5878 11.5399C10.0074 12.2554 9.68781 13.1576 9.68781 14.0802C9.68781 15.0028 10.0074 15.905 10.5878 16.6205C10.6646 16.7152 10.6502 16.8542 10.5555 16.931C10.5146 16.9642 10.4654 16.9803 10.4166 16.9803Z" fill="#A6A8A9"/>
<path d="M15.946 16.1016C15.8971 16.1016 15.848 16.0855 15.807 16.0523C15.7124 15.9755 15.6979 15.8365 15.7747 15.7418C16.1545 15.2735 16.3637 14.6834 16.3637 14.0801C16.3637 13.4768 16.1545 12.8867 15.7747 12.4185C15.6979 12.3238 15.7124 12.1849 15.807 12.1081C15.9017 12.0313 16.0407 12.0457 16.1175 12.1404C16.5609 12.687 16.8052 13.3759 16.8052 14.0801C16.8052 14.7843 16.5609 15.4732 16.1175 16.0199C16.0739 16.0737 16.0102 16.1016 15.946 16.1016Z" fill="#A6A8A9"/>
<path d="M17.0304 16.9803C16.9816 16.9803 16.9324 16.9642 16.8915 16.931C16.7968 16.8542 16.7823 16.7152 16.8591 16.6205C17.4395 15.905 17.7592 15.0028 17.7592 14.0802C17.7592 13.1576 17.4395 12.2554 16.8591 11.5399C16.7824 11.4452 16.7968 11.3062 16.8915 11.2294C16.9861 11.1526 17.1252 11.1671 17.202 11.2618C17.846 12.0557 18.2006 13.0566 18.2006 14.0802C18.2006 15.1038 17.846 16.1047 17.202 16.8986C17.1584 16.9524 17.0947 16.9803 17.0304 16.9803Z" fill="#A6A8A9"/>
<path d="M11.8061 24.0856C11.8061 23.991 11.7287 23.9137 11.6341 23.9137H9.49674C9.40212 23.9137 9.32471 23.991 9.32471 24.0856V24.8425C9.32471 24.9371 9.40212 25.0146 9.49674 25.0146H11.6341C11.7287 25.0146 11.8061 24.9371 11.8061 24.8425V24.0856Z" fill="#A4A9AD"/>
<path d="M15.6416 24.0856C15.6416 23.991 15.719 23.9137 15.8136 23.9137H17.9509C18.0456 23.9137 18.123 23.991 18.123 24.0856V24.8425C18.123 24.9371 18.0456 25.0146 17.9509 25.0146H15.8136C15.719 25.0146 15.6416 24.9371 15.6416 24.8425V24.0856Z" fill="#A4A9AD"/>
<path d="M17.9508 23.6924H17.3826L15.0516 15.4631C15.4154 15.1137 15.6426 14.623 15.6426 14.0799C15.6426 13.0219 14.7818 12.1611 13.7238 12.1611C12.6658 12.1611 11.805 13.0219 11.805 14.0799C11.805 14.623 12.0322 15.1137 12.396 15.4631L10.065 23.6924H9.49678C9.28021 23.6924 9.104 23.8686 9.104 24.0851V24.842C9.104 25.0585 9.28019 25.2348 9.49678 25.2348H11.6341C11.8507 25.2348 12.0268 25.0586 12.0268 24.842V24.0851C12.0268 23.8686 11.8507 23.6924 11.6341 23.6924H11.5027L11.6608 23.1346L13.7235 21.5179L15.788 23.1388L15.9448 23.6925H15.8135C15.5969 23.6925 15.4207 23.8686 15.4207 24.0851V24.842C15.4207 25.0586 15.5969 25.2348 15.8135 25.2348H17.9508C18.1674 25.2348 18.3436 25.0586 18.3436 24.842V24.0851C18.3436 23.8686 18.1674 23.6924 17.9508 23.6924ZM12.2465 14.0799C12.2465 13.2653 12.9092 12.6026 13.7238 12.6026C14.5384 12.6026 15.2011 13.2653 15.2011 14.0799C15.2011 14.8945 14.5383 15.5572 13.7238 15.5572C12.9092 15.5572 12.2465 14.8945 12.2465 14.0799ZM13.9876 16.7825V19.5534L13.7238 19.7601L13.46 19.5534V16.7825L13.6823 15.9976C13.6962 15.9979 13.7099 15.9987 13.7238 15.9987C13.7377 15.9987 13.7514 15.9979 13.7653 15.9976L13.9876 16.7825ZM12.5404 20.0292L12.6877 19.509L13.3659 20.0406L12.9604 20.3584L12.5404 20.0292ZM12.6025 20.6389L12.3006 20.8755L12.4103 20.4883L12.6025 20.6389ZM12.8177 19.05L13.0185 18.3411V19.2074L12.8177 19.05ZM11.5854 24.1339V24.7933H9.5455V24.1339H11.5854ZM11.0439 23.6924H10.5239L12.7746 15.7464C12.9193 15.8292 13.0756 15.894 13.2406 15.937L11.0439 23.6924ZM11.865 22.4136L12.0964 21.5966L14.7599 19.5091L14.9072 20.0293L11.865 22.4136ZM14.4291 19.2074V18.3411L14.6298 19.05L14.4291 19.2074ZM15.0373 20.4883L15.147 20.8756L14.8451 20.639L15.0373 20.4883ZM14.0814 21.2375L14.4872 20.9194L15.3512 21.5967L15.5835 22.4169L14.0814 21.2375ZM14.207 15.937C14.372 15.894 14.5283 15.8292 14.673 15.7464L16.9238 23.6924H16.4037L14.207 15.937ZM17.9021 24.7933H15.8622V24.1339H17.9021V24.7933Z" fill="#A6A8A9"/>
</g>
<g clip-path="url(#clip1_1_2763)">
<path d="M10.7224 3.03601H10.3372V5.46723H10.7224V3.03601Z" fill="#A4A9AD"/>
<path opacity="0.2" d="M10.5298 5.08742L10.3372 4.9364V5.46731H10.7225V4.93648L10.5298 5.08742Z" fill="#E7F4FA"/>
<path opacity="0.3" d="M10.3372 3.03601V3.73639C10.3994 3.74893 10.4639 3.75557 10.5298 3.75557C10.5958 3.75557 10.6602 3.74893 10.7224 3.7364V3.03601H10.3372Z" fill="#E7F4FA"/>
<path d="M9.71601 5.07437L11.502 6.47412L11.7396 6.17085L9.9537 4.77109L9.71601 5.07437Z" fill="#A4A9AD"/>
<path opacity="0.1" d="M10.4759 5.18018L10.1636 5.42493L10.4759 5.66969L10.7882 5.42493L10.4759 5.18018Z" fill="#E7F4FA"/>
<path opacity="0.2" d="M9.76674 5.00983L9.74268 5.09478L10.0704 5.35161L10.1838 4.95101L9.954 4.77087L9.76674 5.00983Z" fill="#E7F4FA"/>
<path opacity="0.1" d="M10.617 5.29089L10.3047 5.53565L10.617 5.78042L10.9293 5.53565L10.617 5.29089Z" fill="#E7F4FA"/>
<path d="M9.31968 6.17085L9.55737 6.47412L11.3433 5.07437L11.1056 4.77109L9.31968 6.17085Z" fill="#A4A9AD"/>
<path opacity="0.2" d="M9.40625 6.28149L9.55718 6.47406L9.80779 6.27763L9.98601 5.64844L9.47129 6.05185L9.40625 6.28149Z" fill="#E7F4FA"/>
<path opacity="0.2" d="M11.1053 4.77087L10.8755 4.95101L10.989 5.35161L11.3167 5.09478L11.2926 5.00983L11.1053 4.77087Z" fill="#E7F4FA"/>
<path opacity="0.2" d="M11.588 6.05185L11.0732 5.64844L11.2515 6.27763L11.5021 6.47406L11.653 6.28149L11.588 6.05185Z" fill="#E7F4FA"/>
<path d="M11.6364 7.08419L10.5297 3.17711L9.42296 7.08419L9.05225 6.97919L10.3443 2.41774C10.3678 2.33482 10.4435 2.27759 10.5297 2.27759C10.6158 2.27759 10.6915 2.33482 10.715 2.41774L12.0071 6.9792L11.6364 7.08419Z" fill="#E6E6E6"/>
<path opacity="0.2" d="M10.715 2.41774C10.6915 2.33482 10.6158 2.27759 10.5296 2.27759C10.4434 2.27759 10.3677 2.33482 10.3443 2.41774L9.98999 3.66843C10.099 3.73504 10.2213 3.78186 10.3519 3.80444L10.5296 3.17711L10.7073 3.80444C10.8379 3.78186 10.9603 3.73504 11.0692 3.66843L10.715 2.41774Z" fill="#E7F4FA"/>
<path d="M10.5299 3.47879C10.9135 3.47879 11.2245 3.16778 11.2245 2.78413C11.2245 2.40049 10.9135 2.08948 10.5299 2.08948C10.1462 2.08948 9.83521 2.40049 9.83521 2.78413C9.83521 3.16778 10.1462 3.47879 10.5299 3.47879Z" fill="#D1D3D3"/>
<path d="M9.61979 3.6108C9.5935 3.6108 9.56744 3.59939 9.5496 3.57739C9.36821 3.35377 9.26831 3.07194 9.26831 2.78386C9.26831 2.49575 9.36821 2.21395 9.5496 1.99034C9.58101 1.9516 9.63788 1.94565 9.67662 1.9771C9.71536 2.00851 9.72128 2.06538 9.68986 2.10412C9.5345 2.29565 9.44892 2.53706 9.44892 2.78386C9.44892 3.03065 9.5345 3.27206 9.68986 3.46363C9.72127 3.50237 9.71536 3.55923 9.67662 3.59066C9.65988 3.6042 9.63977 3.6108 9.61979 3.6108Z" fill="#A6A8A9"/>
<path d="M9.17625 3.97012C9.14996 3.97012 9.1239 3.95871 9.10606 3.93672C8.8426 3.61193 8.69751 3.20245 8.69751 2.78372C8.69751 2.36498 8.8426 1.9555 9.10606 1.63072C9.13748 1.59198 9.19435 1.58604 9.23307 1.61748C9.2718 1.64889 9.27774 1.70576 9.24631 1.74449C9.00887 2.03721 8.87811 2.40628 8.87811 2.78372C8.87811 3.16116 9.00887 3.53023 9.24631 3.82294C9.27772 3.86168 9.2718 3.91853 9.23307 3.94996C9.21636 3.96353 9.19623 3.97012 9.17625 3.97012Z" fill="#A6A8A9"/>
<path d="M11.4384 3.61057C11.4184 3.61057 11.3983 3.60397 11.3816 3.5904C11.3428 3.55899 11.3369 3.50211 11.3683 3.46338C11.5237 3.27182 11.6093 3.0304 11.6093 2.7836C11.6093 2.5368 11.5237 2.2954 11.3683 2.10386C11.3369 2.06513 11.3428 2.00827 11.3816 1.97685C11.4203 1.94544 11.4772 1.95132 11.5086 1.99009C11.69 2.21369 11.7899 2.49552 11.7899 2.7836C11.7899 3.07169 11.69 3.35351 11.5086 3.57714C11.4907 3.59915 11.4647 3.61057 11.4384 3.61057Z" fill="#A6A8A9"/>
<path d="M11.882 3.97013C11.862 3.97013 11.8419 3.96353 11.8252 3.94995C11.7864 3.91854 11.7805 3.86167 11.8119 3.82294C12.0494 3.53022 12.1801 3.16115 12.1801 2.78371C12.1801 2.40627 12.0494 2.0372 11.8119 1.74449C11.7805 1.70575 11.7864 1.6489 11.8252 1.61748C11.8639 1.58604 11.9208 1.59197 11.9522 1.63072C12.2156 1.9555 12.3607 2.36496 12.3607 2.78371C12.3607 3.20247 12.2156 3.61193 11.9522 3.93671C11.9343 3.95872 11.9083 3.97013 11.882 3.97013Z" fill="#A6A8A9"/>
<path d="M9.74533 6.8765C9.74533 6.83779 9.71368 6.80615 9.67497 6.80615H8.8006C8.76189 6.80615 8.73022 6.83779 8.73022 6.8765V7.18612C8.73022 7.22483 8.76189 7.25651 8.8006 7.25651H9.67497C9.71368 7.25651 9.74533 7.22483 9.74533 7.18612V6.8765Z" fill="#A4A9AD"/>
<path d="M11.3142 6.8765C11.3142 6.83779 11.3459 6.80615 11.3846 6.80615H12.2589C12.2976 6.80615 12.3293 6.83779 12.3293 6.8765V7.18612C12.3293 7.22483 12.2976 7.25651 12.2589 7.25651H11.3846C11.3459 7.25651 11.3142 7.22483 11.3142 7.18612V6.8765Z" fill="#A4A9AD"/>
<path d="M12.259 6.71637H12.0266L11.073 3.34983C11.2218 3.20689 11.3148 3.00614 11.3148 2.78398C11.3148 2.35116 10.9626 1.99902 10.5298 1.99902C10.097 1.99902 9.74485 2.35116 9.74485 2.78398C9.74485 3.00614 9.83778 3.20689 9.98662 3.34983L9.03302 6.71637H8.80057C8.71198 6.71637 8.63989 6.78844 8.63989 6.87702V7.18664C8.63989 7.27524 8.71197 7.34733 8.80057 7.34733H9.67494C9.76352 7.34733 9.8356 7.27525 9.8356 7.18664V6.87702C9.8356 6.78845 9.76352 6.71637 9.67494 6.71637H9.62119L9.68583 6.48816L10.5297 5.82679L11.3743 6.4899L11.4384 6.71638H11.3847C11.2961 6.71638 11.224 6.78845 11.224 6.87703V7.18665C11.224 7.27525 11.2961 7.34734 11.3847 7.34734H12.259C12.3476 7.34734 12.4197 7.27526 12.4197 7.18665V6.87703C12.4197 6.78844 12.3476 6.71637 12.259 6.71637ZM9.92546 2.78397C9.92546 2.45073 10.1966 2.17962 10.5298 2.17962C10.863 2.17962 11.1341 2.45074 11.1341 2.78397C11.1341 3.11721 10.863 3.38831 10.5298 3.38831C10.1966 3.38832 9.92546 3.11722 9.92546 2.78397ZM10.6377 3.88959V5.02313L10.5298 5.10771L10.4219 5.02313V3.88959L10.5128 3.56849C10.5185 3.56862 10.5241 3.56892 10.5298 3.56892C10.5355 3.56892 10.5411 3.56862 10.5468 3.56849L10.6377 3.88959ZM10.0457 5.21779L10.106 5.00499L10.3834 5.22244L10.2175 5.35247L10.0457 5.21779ZM10.0711 5.46721L9.94761 5.564L9.99248 5.40558L10.0711 5.46721ZM10.1591 4.8172L10.2413 4.5272V4.88158L10.1591 4.8172ZM9.655 6.89697V7.16671H8.82051V6.89697H9.655ZM9.43348 6.71637H9.22074L10.1415 3.46573C10.2007 3.49959 10.2646 3.52612 10.3322 3.54369L9.43348 6.71637ZM9.76939 6.1932L9.86405 5.85897L10.9536 5.005L11.0139 5.21781L9.76939 6.1932ZM10.8183 4.88158V4.5272L10.9005 4.8172L10.8183 4.88158ZM11.0671 5.40559L11.112 5.56405L10.9885 5.46722L11.0671 5.40559ZM10.6761 5.71207L10.8421 5.58195L11.1956 5.85902L11.2906 6.19457L10.6761 5.71207ZM10.7275 3.54369C10.795 3.52612 10.8589 3.49959 10.9181 3.46573L11.8389 6.71637H11.6261L10.7275 3.54369ZM12.2391 7.16671H11.4046V6.89697H12.2391V7.16671Z" fill="#A6A8A9"/>
</g>
<g clip-path="url(#clip2_1_2763)">
<path d="M7.44955 13.7597L7.36543 13.6914L6.27859 9.99109C6.40516 9.88763 6.47703 9.73725 6.47703 9.57397C6.47703 9.27524 6.23385 9.03186 5.93492 9.03186C5.63619 9.03186 5.39301 9.27524 5.39301 9.57397C5.39301 9.76621 5.49454 9.94159 5.66049 10.0392L5.08252 12.0081L4.9998 12.082L5.0488 12.1219L3.4807 17.4596L3.46899 17.4998L3.7088 17.5699L3.89961 16.9213L7.19248 13.9886L8.23321 17.5301L8.24511 17.5701L8.48492 17.4999L7.39896 13.805L7.44955 13.7597ZM7.06403 13.7675L4.03298 16.4672L5.25919 12.2935L7.06403 13.7675ZM5.38463 12.0734L6.37124 11.193L7.02306 13.4113L5.38463 12.0734ZM5.43561 11.6927L5.89995 10.1136C5.94717 10.1191 5.99667 10.1141 6.05083 10.1017L6.29347 10.9276L5.43561 11.6927Z" fill="#A6A8A9"/>
<path d="M6.95287 9.35132C6.95287 9.46778 6.92251 9.5828 6.86553 9.68412L6.85561 9.7175L6.96547 9.84671L6.99602 9.79666C7.0791 9.6623 7.12274 9.50805 7.12274 9.35132C7.12274 9.20238 7.08262 9.05522 7.00718 8.92567L6.98674 8.8905L6.95088 8.91054C6.92747 8.92334 6.90312 8.9345 6.87827 8.94392L6.83105 8.96113L6.85699 9.00428C6.91969 9.10938 6.95287 9.22941 6.95287 9.35132Z" fill="#A6A8A9"/>
<path d="M7.23151 10.1879C7.23771 10.1945 7.2443 10.2005 7.25031 10.2073L7.28259 10.2429L7.3133 10.2053C7.51194 9.9639 7.62125 9.66036 7.62125 9.35116C7.62125 9.07034 7.53356 8.79983 7.36741 8.56801L7.33388 8.52148L7.29995 8.56781C7.2824 8.59211 7.26429 8.61647 7.24544 8.63988L7.22625 8.66403L7.24366 8.68942C7.37961 8.88697 7.45118 9.11542 7.45118 9.35136C7.45118 9.62207 7.36121 9.87696 7.19079 10.0891L7.1709 10.1141L7.20621 10.1619C7.21445 10.1707 7.22298 10.1794 7.23151 10.1879Z" fill="#A6A8A9"/>
<path d="M7.99285 9.35114C7.99285 9.75849 7.8448 10.1556 7.57608 10.4689L7.54944 10.4999L7.58014 10.5271C7.59507 10.5404 7.6105 10.5534 7.62577 10.566L7.67865 10.6111L7.70563 10.5795C8.00044 10.2357 8.16287 9.79936 8.16287 9.35099C8.16287 8.88789 7.99196 8.44126 7.68217 8.09372L7.64789 8.05469L7.61734 8.09709C7.59993 8.12125 7.58292 8.14625 7.56571 8.17184L7.54761 8.19813L7.56854 8.22228C7.84232 8.53624 7.99285 8.93684 7.99285 9.35114Z" fill="#A6A8A9"/>
<path d="M8.53479 9.35122C8.53479 9.88658 8.34325 10.4067 7.99517 10.8161L7.96749 10.849L8.00102 10.8754C8.02056 10.8916 8.04025 10.9083 8.05925 10.9248L8.09778 10.9581L8.12496 10.9262C8.49898 10.4862 8.70507 9.92705 8.70507 9.35122C8.70507 8.73669 8.47433 8.14935 8.05538 7.69721L8.02785 7.6676L7.9973 7.69404C7.98291 7.70649 7.96838 7.71998 7.9545 7.73292L7.90088 7.78173L7.92965 7.81278C8.32003 8.23312 8.53479 8.7795 8.53479 9.35122Z" fill="#A6A8A9"/>
<path d="M4.83086 9.84671L4.94573 9.71056L4.93099 9.68427C4.87386 9.58289 4.8435 9.46788 4.8435 9.35147C4.8435 9.22936 4.87688 9.10933 4.93953 9.00428L4.96527 8.96113L4.91825 8.94392C4.8934 8.93435 4.8691 8.92334 4.84564 8.91054L4.80998 8.8905L4.78954 8.92567C4.71356 9.05527 4.67383 9.20238 4.67383 9.35132C4.67383 9.5079 4.71747 9.66215 4.8004 9.79666L4.83086 9.84671Z" fill="#A6A8A9"/>
<path d="M4.48291 10.2053L4.51326 10.243L4.54575 10.2073C4.55195 10.2006 4.5582 10.1945 4.56475 10.188C4.57328 10.1795 4.58181 10.1708 4.59193 10.1589L4.62531 10.1141L4.60527 10.0891C4.43505 9.87696 4.34468 9.62207 4.34468 9.35136C4.34468 9.11547 4.41655 8.88702 4.5522 8.68942L4.56976 8.66403L4.55041 8.63988C4.53142 8.61661 4.51351 8.59211 4.49576 8.56781L4.46203 8.52148L4.42865 8.56816C4.26269 8.79978 4.1748 9.07049 4.1748 9.35131C4.17476 9.66041 4.28432 9.96375 4.48291 10.2053Z" fill="#A6A8A9"/>
<path d="M4.0905 10.5798L4.11748 10.6114L4.17035 10.5663C4.18563 10.5537 4.20091 10.5406 4.21579 10.5275L4.24669 10.5003L4.2197 10.4692C3.95098 10.1559 3.80308 9.75902 3.80308 9.35148C3.80308 8.93718 3.95376 8.53653 4.22729 8.22292L4.24822 8.19876L4.23032 8.17233C4.21311 8.14659 4.1957 8.12174 4.17869 8.09758L4.14833 8.05518L4.11376 8.09421C3.80367 8.44174 3.63306 8.88838 3.63306 9.35148C3.63326 9.7997 3.79549 10.2362 4.0905 10.5798Z" fill="#A6A8A9"/>
<path d="M3.70514 10.9521L3.73693 10.9248C3.75627 10.9083 3.77581 10.8914 3.7957 10.8755L3.82908 10.849L3.80141 10.8162C3.45313 10.4067 3.26143 9.88662 3.26143 9.35126C3.26143 8.77934 3.47659 8.23317 3.86688 7.81302L3.89545 7.78197L3.84238 7.73317C3.82799 7.72022 3.81361 7.70673 3.79922 7.69428L3.76852 7.66785L3.74134 7.69751C3.32224 8.14959 3.09131 8.73699 3.09131 9.35151C3.09131 9.92735 3.29739 10.4865 3.67156 10.9265L3.70514 10.9521Z" fill="#A6A8A9"/>
</g>
<g clip-path="url(#clip3_1_2763)">
<path d="M23.4217 13.76L23.3376 13.6916L22.2508 9.99133C22.3773 9.88787 22.4492 9.73749 22.4492 9.57421C22.4492 9.27548 22.206 9.0321 21.9071 9.0321C21.6084 9.0321 21.3652 9.27548 21.3652 9.57421C21.3652 9.76646 21.4667 9.94184 21.6327 10.0394L21.0547 12.0083L20.972 12.0822L21.021 12.1221L19.4529 17.4599L19.4412 17.5L19.681 17.5701L19.8718 16.9216L23.1647 13.9888L24.2054 17.5304L24.2173 17.5703L24.4571 17.5002L23.3711 13.8052L23.4217 13.76ZM23.0362 13.7677L20.0051 16.4674L21.2314 12.2937L23.0362 13.7677ZM21.3568 12.0737L22.3434 11.1932L22.9952 13.4115L21.3568 12.0737ZM21.4078 11.6929L21.8721 10.1138C21.9193 10.1193 21.9688 10.1144 22.023 10.1019L22.2656 10.9278L21.4078 11.6929Z" fill="#A6A8A9"/>
<path d="M22.9245 9.35132C22.9245 9.46778 22.8942 9.5828 22.8372 9.68412L22.8273 9.7175L22.9371 9.84671L22.9677 9.79666C23.0508 9.6623 23.0944 9.50805 23.0944 9.35132C23.0944 9.20238 23.0543 9.05522 22.9789 8.92567L22.9584 8.8905L22.9226 8.91054C22.8992 8.92334 22.8748 8.9345 22.85 8.94392L22.8027 8.96113L22.8287 9.00428C22.8914 9.10938 22.9245 9.22941 22.9245 9.35132Z" fill="#A6A8A9"/>
<path d="M23.2032 10.1879C23.2094 10.1945 23.216 10.2005 23.222 10.2073L23.2543 10.2429L23.285 10.2053C23.4836 9.9639 23.5929 9.66036 23.5929 9.35116C23.5929 9.07034 23.5052 8.79983 23.3391 8.56801L23.3056 8.52148L23.2716 8.56781C23.2541 8.59211 23.236 8.61647 23.2171 8.63988L23.1979 8.66403L23.2153 8.68942C23.3513 8.88697 23.4229 9.11542 23.4229 9.35136C23.4229 9.62207 23.3329 9.87696 23.1625 10.0891L23.1426 10.1141L23.1779 10.1619C23.1861 10.1707 23.1947 10.1794 23.2032 10.1879Z" fill="#A6A8A9"/>
<path d="M23.9645 9.35114C23.9645 9.75849 23.8165 10.1556 23.5478 10.4689L23.5211 10.4999L23.5518 10.5271C23.5668 10.5404 23.5822 10.5534 23.5975 10.566L23.6503 10.6111L23.6773 10.5795C23.9721 10.2357 24.1346 9.79936 24.1346 9.35099C24.1346 8.88789 23.9636 8.44126 23.6538 8.09372L23.6196 8.05469L23.589 8.09709C23.5716 8.12125 23.5546 8.14625 23.5374 8.17184L23.5193 8.19813L23.5402 8.22228C23.814 8.53624 23.9645 8.93684 23.9645 9.35114Z" fill="#A6A8A9"/>
<path d="M24.5065 9.35122C24.5065 9.88658 24.3149 10.4067 23.9668 10.8161L23.9392 10.849L23.9727 10.8754C23.9922 10.8916 24.0119 10.9083 24.0309 10.9248L24.0695 10.9581L24.0966 10.9262C24.4707 10.4862 24.6767 9.92705 24.6767 9.35122C24.6767 8.73669 24.446 8.14935 24.0271 7.69721L23.9995 7.6676L23.969 7.69404C23.9546 7.70649 23.9401 7.71998 23.9262 7.73292L23.8726 7.78173L23.9013 7.81278C24.2917 8.23312 24.5065 8.7795 24.5065 9.35122Z" fill="#A6A8A9"/>
<path d="M20.8025 9.84671L20.9174 9.71056L20.9027 9.68427C20.8455 9.58289 20.8152 9.46788 20.8152 9.35147C20.8152 9.22936 20.8486 9.10933 20.9112 9.00428L20.9369 8.96113L20.8899 8.94392C20.8651 8.93435 20.8408 8.92334 20.8173 8.91054L20.7817 8.8905L20.7612 8.92567C20.6852 9.05527 20.6455 9.20238 20.6455 9.35132C20.6455 9.5079 20.6892 9.66215 20.7721 9.79666L20.8025 9.84671Z" fill="#A6A8A9"/>
<path d="M20.4546 10.2053L20.4849 10.243L20.5174 10.2073C20.5236 10.2006 20.5299 10.1945 20.5364 10.188C20.545 10.1795 20.5535 10.1708 20.5636 10.1589L20.597 10.1141L20.5769 10.0891C20.4067 9.87696 20.3164 9.62207 20.3164 9.35136C20.3164 9.11547 20.3882 8.88702 20.5239 8.68942L20.5414 8.66403L20.5221 8.63988C20.5031 8.61661 20.4852 8.59211 20.4674 8.56781L20.4337 8.52148L20.4003 8.56816C20.2344 8.79978 20.1465 9.07049 20.1465 9.35131C20.1464 9.66041 20.256 9.96375 20.4546 10.2053Z" fill="#A6A8A9"/>
<path d="M20.0622 10.5798L20.0892 10.6114L20.142 10.5663C20.1573 10.5537 20.1726 10.5406 20.1875 10.5275L20.2184 10.5003L20.1914 10.4692C19.9227 10.1559 19.7748 9.75902 19.7748 9.35148C19.7748 8.93718 19.9254 8.53653 20.199 8.22292L20.2199 8.19876L20.202 8.17233C20.1848 8.14659 20.1674 8.12174 20.1504 8.09758L20.12 8.05518L20.0854 8.09421C19.7754 8.44174 19.6047 8.88838 19.6047 9.35148C19.6049 9.7997 19.7672 10.2362 20.0622 10.5798Z" fill="#A6A8A9"/>
<path d="M19.6768 10.9521L19.7086 10.9248C19.728 10.9083 19.7475 10.8914 19.7674 10.8755L19.8008 10.849L19.7731 10.8162C19.4248 10.4067 19.2331 9.88662 19.2331 9.35126C19.2331 8.77934 19.4483 8.23317 19.8386 7.81302L19.8671 7.78197L19.8141 7.73317C19.7997 7.72022 19.7853 7.70673 19.7709 7.69428L19.7402 7.66785L19.713 7.69751C19.2939 8.14959 19.063 8.73699 19.063 9.35151C19.063 9.92735 19.2691 10.4865 19.6432 10.9265L19.6768 10.9521Z" fill="#A6A8A9"/>
</g>
<g clip-path="url(#clip4_1_2763)">
<path d="M17.1804 5.13534L17.1316 5.09566L16.5005 2.94711C16.574 2.88703 16.6157 2.79972 16.6157 2.70491C16.6157 2.53145 16.4745 2.39014 16.301 2.39014C16.1275 2.39014 15.9863 2.53145 15.9863 2.70491C15.9863 2.81653 16.0453 2.91837 16.1416 2.97504L15.806 4.11828L15.758 4.16116L15.7864 4.18434L14.8759 7.28369L14.8691 7.30699L15.0084 7.34771L15.1192 6.97111L17.0312 5.26822L17.6355 7.32461L17.6424 7.3478L17.7816 7.30708L17.1511 5.16164L17.1804 5.13534ZM16.9566 5.13986L15.1966 6.70742L15.9086 4.28399L16.9566 5.13986ZM15.9814 4.15621L16.5543 3.645L16.9328 4.93303L15.9814 4.15621ZM16.011 3.93512L16.2807 3.01824C16.3081 3.02144 16.3368 3.01856 16.3683 3.01133L16.5092 3.49089L16.011 3.93512Z" fill="#A6A8A9"/>
<path d="M16.8915 2.57519C16.8915 2.64281 16.8739 2.70959 16.8408 2.76843L16.8351 2.78781L16.8988 2.86283L16.9166 2.83377C16.9648 2.75576 16.9902 2.66619 16.9902 2.57519C16.9902 2.48871 16.9669 2.40326 16.9231 2.32804L16.9112 2.30762L16.8904 2.31925C16.8768 2.32668 16.8626 2.33316 16.8482 2.33863L16.8208 2.34863L16.8359 2.37368C16.8723 2.43471 16.8915 2.5044 16.8915 2.57519Z" fill="#A6A8A9"/>
<path d="M17.0535 3.061C17.0571 3.0648 17.0609 3.06832 17.0644 3.07223L17.0832 3.09294L17.101 3.07108C17.2163 2.93092 17.2798 2.75467 17.2798 2.57513C17.2798 2.41207 17.2289 2.255 17.1324 2.1204L17.1129 2.09338L17.0932 2.12028C17.0831 2.13439 17.0725 2.14853 17.0616 2.16213L17.0505 2.17615L17.0606 2.1909C17.1395 2.3056 17.1811 2.43825 17.1811 2.57525C17.1811 2.73243 17.1288 2.88043 17.0299 3.0036L17.0183 3.01815L17.0388 3.04588C17.0436 3.05101 17.0485 3.05605 17.0535 3.061Z" fill="#A6A8A9"/>
<path d="M17.4956 2.57541C17.4956 2.81193 17.4096 3.0425 17.2536 3.22442L17.2381 3.24245L17.256 3.25823C17.2646 3.26595 17.2736 3.2735 17.2824 3.28081L17.3131 3.30699L17.3288 3.28864C17.5 3.08901 17.5943 2.83567 17.5943 2.57532C17.5943 2.30643 17.4951 2.04709 17.3152 1.8453L17.2953 1.82263L17.2776 1.84725C17.2674 1.86128 17.2576 1.87579 17.2476 1.89066L17.2371 1.90592L17.2492 1.91994C17.4082 2.10224 17.4956 2.33485 17.4956 2.57541Z" fill="#A6A8A9"/>
<path d="M17.81 2.57536C17.81 2.88622 17.6988 3.1882 17.4966 3.42597L17.4806 3.44503L17.5 3.46038C17.5114 3.46977 17.5228 3.47945 17.5338 3.48904L17.5562 3.50842L17.572 3.48987C17.7892 3.23437 17.9088 2.90972 17.9088 2.57536C17.9088 2.21854 17.7749 1.8775 17.5316 1.61497L17.5156 1.59778L17.4979 1.61313C17.4895 1.62036 17.4811 1.62819 17.473 1.63571L17.4419 1.66404L17.4586 1.68207C17.6853 1.92614 17.81 2.24339 17.81 2.57536Z" fill="#A6A8A9"/>
<path d="M15.6598 2.86283L15.7265 2.78378L15.7179 2.76852C15.6847 2.70965 15.6671 2.64287 15.6671 2.57527C15.6671 2.50437 15.6865 2.43468 15.7229 2.37368L15.7378 2.34863L15.7105 2.33863C15.6961 2.33308 15.682 2.32668 15.6684 2.31925L15.6477 2.30762L15.6358 2.32804C15.5917 2.40329 15.5686 2.48871 15.5686 2.57519C15.5686 2.66611 15.5939 2.75567 15.6421 2.83377L15.6598 2.86283Z" fill="#A6A8A9"/>
<path d="M15.4577 3.07111L15.4753 3.09297L15.4942 3.07226C15.4978 3.06834 15.5014 3.06483 15.5052 3.06103C15.5102 3.05608 15.5151 3.05104 15.521 3.04412L15.5404 3.01815L15.5288 3.0036C15.4299 2.88043 15.3774 2.73243 15.3774 2.57525C15.3774 2.43828 15.4192 2.30563 15.4979 2.1909L15.5081 2.17615L15.4969 2.16213C15.4859 2.14862 15.4755 2.13439 15.4652 2.12028L15.4456 2.09338L15.4262 2.12048C15.3298 2.25497 15.2788 2.41216 15.2788 2.57522C15.2788 2.7547 15.3424 2.93083 15.4577 3.07111Z" fill="#A6A8A9"/>
<path d="M15.2295 3.28856L15.2451 3.3069L15.2758 3.28072C15.2847 3.27341 15.2936 3.26578 15.3022 3.25815L15.3202 3.24236L15.3045 3.22434C15.1485 3.04241 15.0626 2.81196 15.0626 2.57532C15.0626 2.33476 15.1501 2.10213 15.3089 1.92003L15.3211 1.906L15.3107 1.89066C15.3007 1.87571 15.2906 1.86128 15.2807 1.84725L15.2631 1.82263L15.243 1.8453C15.0629 2.04709 14.9639 2.30643 14.9639 2.57532C14.964 2.83558 15.0582 3.08901 15.2295 3.28856Z" fill="#A6A8A9"/>
<path d="M15.0061 3.50491L15.0245 3.48904C15.0358 3.47945 15.0471 3.46966 15.0587 3.46039L15.078 3.44504L15.062 3.42597C14.8597 3.18821 14.7484 2.88622 14.7484 2.57537C14.7484 2.24329 14.8734 1.92615 15.1 1.6822L15.1166 1.66417L15.0858 1.63583C15.0774 1.62831 15.0691 1.62048 15.0607 1.61325L15.0429 1.5979L15.0271 1.61512C14.7837 1.87763 14.6497 2.21869 14.6497 2.57551C14.6497 2.90987 14.7693 3.23452 14.9866 3.49002L15.0061 3.50491Z" fill="#A6A8A9"/>
</g>
<defs>
<clipPath id="clip0_1_2763">
<rect width="14.0551" height="14.0551" fill="white" transform="translate(6.69678 11.1803)"/>
</clipPath>
<clipPath id="clip1_1_2763">
<rect width="5.7498" height="5.7498" fill="white" transform="translate(7.65503 1.59705)"/>
</clipPath>
<clipPath id="clip2_1_2763">
<rect width="9.90244" height="9.90244" fill="white" transform="translate(0.947021 7.66638)"/>
</clipPath>
<clipPath id="clip3_1_2763">
<rect width="9.90244" height="9.90244" fill="white" transform="translate(16.9187 7.66638)"/>
</clipPath>
<clipPath id="clip4_1_2763">
<rect width="5.7498" height="5.7498" fill="white" transform="translate(13.4048 1.59705)"/>
</clipPath>
</defs>
</svg>
