<svg width="28" height="28" viewBox="0 0 28 28" fill="none" xmlns="http://www.w3.org/2000/svg">
<g clip-path="url(#clip0_1_2890)">
<path d="M7.875 4.375V28H11.8125V23.1875C11.8125 22.9456 12.0081 22.75 12.25 22.75H15.75C15.9919 22.75 16.1875 22.9456 16.1875 23.1875V28H20.125V8.75V1.75C20.125 0.782688 19.3423 0 18.375 0H9.625C8.65769 0 7.875 0.782688 7.875 1.75V4.375ZM14.875 3.9375C14.875 3.69556 15.0706 3.5 15.3125 3.5H17.0625C17.3044 3.5 17.5 3.69556 17.5 3.9375V5.6875C17.5 5.92944 17.3044 6.125 17.0625 6.125H15.3125C15.0706 6.125 14.875 5.92944 14.875 5.6875V3.9375ZM14.875 8.3125C14.875 8.07056 15.0706 7.875 15.3125 7.875H17.0625C17.3044 7.875 17.5 8.07056 17.5 8.3125V10.0625C17.5 10.3044 17.3044 10.5 17.0625 10.5H15.3125C15.0706 10.5 14.875 10.3044 14.875 10.0625V8.3125ZM14.875 12.6875C14.875 12.4456 15.0706 12.25 15.3125 12.25H17.0625C17.3044 12.25 17.5 12.4456 17.5 12.6875V14.4375C17.5 14.6794 17.3044 14.875 17.0625 14.875H15.3125C15.0706 14.875 14.875 14.6794 14.875 14.4375V12.6875ZM14.875 17.0625C14.875 16.8206 15.0706 16.625 15.3125 16.625H17.0625C17.3044 16.625 17.5 16.8206 17.5 17.0625V18.8125C17.5 19.0544 17.3044 19.25 17.0625 19.25H15.3125C15.0706 19.25 14.875 19.0544 14.875 18.8125V17.0625ZM10.5 3.9375C10.5 3.69556 10.6956 3.5 10.9375 3.5H12.6875C12.9294 3.5 13.125 3.69556 13.125 3.9375V5.6875C13.125 5.92944 12.9294 6.125 12.6875 6.125H10.9375C10.6956 6.125 10.5 5.92944 10.5 5.6875V3.9375ZM10.5 8.3125C10.5 8.07056 10.6956 7.875 10.9375 7.875H12.6875C12.9294 7.875 13.125 8.07056 13.125 8.3125V10.0625C13.125 10.3044 12.9294 10.5 12.6875 10.5H10.9375C10.6956 10.5 10.5 10.3044 10.5 10.0625V8.3125ZM10.5 12.6875C10.5 12.4456 10.6956 12.25 10.9375 12.25H12.6875C12.9294 12.25 13.125 12.4456 13.125 12.6875V14.4375C13.125 14.6794 12.9294 14.875 12.6875 14.875H10.9375C10.6956 14.875 10.5 14.6794 10.5 14.4375V12.6875ZM10.5 17.0625C10.5 16.8206 10.6956 16.625 10.9375 16.625H12.6875C12.9294 16.625 13.125 16.8206 13.125 17.0625V18.8125C13.125 19.0544 12.9294 19.25 12.6875 19.25H10.9375C10.6956 19.25 10.5 19.0544 10.5 18.8125V17.0625Z" fill="#A6A8A9"/>
<path d="M12.25 13.125H11.375V14H12.25V13.125Z" fill="#A6A8A9"/>
<path d="M12.25 17.5H11.375V18.375H12.25V17.5Z" fill="#A6A8A9"/>
<path d="M15.3125 23.625H12.6875V28H15.3125V23.625Z" fill="#A6A8A9"/>
<path d="M4.375 21.875H3.5V22.75H4.375V21.875Z" fill="#A6A8A9"/>
<path d="M12.25 4.375H11.375V5.25H12.25V4.375Z" fill="#A6A8A9"/>
<path d="M12.25 8.75H11.375V9.625H12.25V8.75Z" fill="#A6A8A9"/>
<path d="M16.625 8.75H15.75V9.625H16.625V8.75Z" fill="#A6A8A9"/>
<path d="M16.625 4.375H15.75V5.25H16.625V4.375Z" fill="#A6A8A9"/>
<path d="M16.625 13.125H15.75V14H16.625V13.125Z" fill="#A6A8A9"/>
<path d="M16.625 17.5H15.75V18.375H16.625V17.5Z" fill="#A6A8A9"/>
<path d="M4.375 17.5H3.5V18.375H4.375V17.5Z" fill="#A6A8A9"/>
<path d="M7 4.375H1.75C0.782688 4.375 0 5.15769 0 6.125V26.25C0 27.2173 0.782688 28 1.75 28H7V4.375ZM5.25 23.1875C5.25 23.4294 5.05444 23.625 4.8125 23.625H3.0625C2.82056 23.625 2.625 23.4294 2.625 23.1875V21.4375C2.625 21.1956 2.82056 21 3.0625 21H4.8125C5.05444 21 5.25 21.1956 5.25 21.4375V23.1875ZM5.25 18.8125C5.25 19.0544 5.05444 19.25 4.8125 19.25H3.0625C2.82056 19.25 2.625 19.0544 2.625 18.8125V17.0625C2.625 16.8206 2.82056 16.625 3.0625 16.625H4.8125C5.05444 16.625 5.25 16.8206 5.25 17.0625V18.8125ZM5.25 14.4375C5.25 14.6794 5.05444 14.875 4.8125 14.875H3.0625C2.82056 14.875 2.625 14.6794 2.625 14.4375V12.6875C2.625 12.4456 2.82056 12.25 3.0625 12.25H4.8125C5.05444 12.25 5.25 12.4456 5.25 12.6875V14.4375ZM4.8125 10.5H3.0625C2.82056 10.5 2.625 10.3044 2.625 10.0625V8.3125C2.625 8.07056 2.82056 7.875 3.0625 7.875H4.8125C5.05444 7.875 5.25 8.07056 5.25 8.3125V10.0625C5.25 10.3044 5.05444 10.5 4.8125 10.5Z" fill="#A6A8A9"/>
<path d="M24.5 21.875H23.625V22.75H24.5V21.875Z" fill="#A6A8A9"/>
<path d="M24.5 17.5H23.625V18.375H24.5V17.5Z" fill="#A6A8A9"/>
<path d="M24.5 13.125H23.625V14H24.5V13.125Z" fill="#A6A8A9"/>
<path d="M26.25 8.75H21V28H26.25C27.2173 28 28 27.2173 28 26.25V10.5C28 9.53269 27.2173 8.75 26.25 8.75ZM25.375 23.1875C25.375 23.4294 25.1794 23.625 24.9375 23.625H23.1875C22.9456 23.625 22.75 23.4294 22.75 23.1875V21.4375C22.75 21.1956 22.9456 21 23.1875 21H24.9375C25.1794 21 25.375 21.1956 25.375 21.4375V23.1875ZM25.375 18.8125C25.375 19.0544 25.1794 19.25 24.9375 19.25H23.1875C22.9456 19.25 22.75 19.0544 22.75 18.8125V17.0625C22.75 16.8206 22.9456 16.625 23.1875 16.625H24.9375C25.1794 16.625 25.375 16.8206 25.375 17.0625V18.8125ZM25.375 14.4375C25.375 14.6794 25.1794 14.875 24.9375 14.875H23.1875C22.9456 14.875 22.75 14.6794 22.75 14.4375V12.6875C22.75 12.4456 22.9456 12.25 23.1875 12.25H24.9375C25.1794 12.25 25.375 12.4456 25.375 12.6875V14.4375Z" fill="#A6A8A9"/>
<path d="M4.375 13.125H3.5V14H4.375V13.125Z" fill="#A6A8A9"/>
<path d="M4.375 8.75H3.5V9.625H4.375V8.75Z" fill="#A6A8A9"/>
</g>
<defs>
<clipPath id="clip0_1_2890">
<rect width="28" height="28" fill="white"/>
</clipPath>
</defs>
</svg>
