<svg width="26" height="26" viewBox="0 0 26 26" fill="none" xmlns="http://www.w3.org/2000/svg">
<path d="M18.1288 0.581434L12.8616 4.36727H5.56002C4.65801 4.36727 3.90246 4.99244 3.70173 5.833C1.62201 6.04936 0 7.80563 0 9.94263C0 12.0796 1.62201 13.8359 3.70173 14.0523C3.82366 14.5629 4.1502 14.9938 4.59022 15.2535C4.55895 18.5475 4.70365 22.1133 7.18636 25.1278C7.95709 26.0635 9.39327 26.0562 10.1569 25.1146L10.611 24.5545C11.1766 23.8571 11.1854 22.8585 10.6257 22.1564C9.86621 21.2035 9.48359 20.1308 9.29724 18.8377H9.4748C10.4254 18.8377 11.1961 18.0671 11.1961 17.1164V15.5179H12.8616L18.1288 19.3037C19.5465 20.3227 21.5225 19.3095 21.5225 17.5636V2.32155C21.5225 0.575671 19.5465 -0.437544 18.1288 0.581434Z" fill="#A6A8A9"/>
<path d="M23.2341 6.79248V13.0928C24.7945 12.8913 26 11.5578 26 9.94265C26 8.32748 24.7945 6.99395 23.2341 6.79248Z" fill="#A6A8A9"/>
</svg>
