<svg width="28" height="24" viewBox="0 0 28 24" fill="none" xmlns="http://www.w3.org/2000/svg">
<path d="M26.6986 0.624023H15.505C14.7872 0.624023 14.2034 1.20785 14.2034 1.92547V7.70125C14.2034 8.41892 14.7873 9.00275 15.505 9.00275H16.4878V11.2955C16.4878 11.454 16.5803 11.5979 16.7245 11.6639C16.7784 11.6885 16.8358 11.7006 16.8928 11.7006C16.9883 11.7006 17.0828 11.6669 17.1577 11.6019L20.166 9.00269H26.6984C27.4162 9.00269 27.9999 8.4188 27.9999 7.70119V1.92547C28.0001 1.2078 27.4162 0.624023 26.6986 0.624023ZM18.7305 4.57191L18.1328 5.15463L18.2739 5.97745C18.284 6.03687 18.2597 6.09676 18.2109 6.13219C18.1834 6.15221 18.1507 6.1624 18.1179 6.1624C18.0928 6.1624 18.0675 6.15637 18.0443 6.14425L17.3054 5.75579L16.5666 6.14425C16.5132 6.17223 16.4486 6.16755 16.3999 6.13219C16.3512 6.09682 16.3268 6.03687 16.337 5.97745L16.4781 5.15463L15.8803 4.57191C15.8373 4.52987 15.8216 4.46699 15.8402 4.40979C15.8587 4.35253 15.9083 4.31079 15.968 4.30212L16.7941 4.1821L17.1635 3.43352C17.1903 3.37948 17.2452 3.34529 17.3054 3.34529C17.3656 3.34529 17.4207 3.37948 17.4472 3.43352L17.8168 4.1821L18.6427 4.30212C18.7024 4.31079 18.7518 4.35253 18.7706 4.40979C18.7891 4.46699 18.7735 4.52993 18.7305 4.57191ZM22.5269 4.57191L21.9291 5.15463L22.0703 5.97745C22.0803 6.03687 22.056 6.09676 22.0073 6.13219C21.9798 6.15221 21.9473 6.1624 21.9143 6.1624C21.8891 6.1624 21.864 6.15637 21.8405 6.14425L21.1017 5.75579L20.3629 6.14425C20.3095 6.17223 20.245 6.16755 20.1963 6.13219C20.1475 6.09682 20.1231 6.03687 20.1333 5.97745L20.2744 5.15463L19.6767 4.57191C19.6337 4.52987 19.618 4.46699 19.6366 4.40979C19.6552 4.35253 19.7046 4.31079 19.7644 4.30212L20.5904 4.1821L20.9599 3.43352C20.9866 3.37948 21.0417 3.34529 21.1017 3.34529C21.162 3.34529 21.2169 3.37948 21.2435 3.43352L21.6131 4.1821L22.4391 4.30212C22.4989 4.31079 22.5482 4.35253 22.5669 4.40979C22.5855 4.46699 22.5699 4.52993 22.5269 4.57191ZM26.3231 4.57191L25.7253 5.15463L25.8663 5.97745C25.8766 6.03687 25.8524 6.09676 25.8035 6.13219C25.776 6.15221 25.7434 6.1624 25.7104 6.1624C25.6853 6.1624 25.6601 6.15637 25.6368 6.14425L24.8979 5.75579L24.1589 6.14425C24.1058 6.17223 24.0411 6.16755 23.9924 6.13219C23.9436 6.09682 23.9194 6.03687 23.9294 5.97745L24.0707 5.15463L23.4728 4.57191C23.4299 4.52987 23.4143 4.46699 23.4328 4.40979C23.4513 4.35253 23.5009 4.31079 23.5605 4.30212L24.3867 4.1821L24.7562 3.43352C24.7827 3.37948 24.8379 3.34529 24.8979 3.34529C24.958 3.34529 25.0133 3.37948 25.0399 3.43352L25.4094 4.1821L26.2354 4.30212C26.295 4.31079 26.3444 4.35253 26.3632 4.40979C26.3818 4.46699 26.3663 4.52993 26.3231 4.57191Z" fill="#A6A8A9"/>
<path d="M8.94862 4.61133C6.21096 4.61133 4.69582 6.02998 4.72352 8.76354C4.76368 12.5074 6.35458 14.7787 8.94862 14.739C8.94862 14.739 13.1717 14.9102 13.1717 8.76354C13.1717 6.02998 11.7449 4.61133 8.94862 4.61133Z" fill="#A6A8A9"/>
<path d="M16.4182 17.5806L12.3488 15.9581C12.2493 15.9184 12.1567 15.8629 12.0748 15.7939L11.2104 15.0654C10.9495 14.8449 10.564 14.8612 10.3218 15.1018L9.65232 15.7676C9.26262 16.1552 8.63315 16.1557 8.24291 15.7686L7.57031 15.1014C7.3281 14.8612 6.94309 14.8457 6.6825 15.0654L5.81787 15.7939C5.73593 15.863 5.64344 15.9184 5.54392 15.9581L1.47445 17.5807C0.512979 17.9636 0.23241 20.4849 0.109159 22.0832C0.0587064 22.7374 0.642682 23.3757 1.29887 23.3757H16.5959C17.2521 23.3757 17.8359 22.7375 17.7853 22.0833C17.6616 20.485 17.38 17.9631 16.4182 17.5806Z" fill="#A6A8A9"/>
</svg>
