<svg width="32" height="28" viewBox="0 0 32 28" fill="none" xmlns="http://www.w3.org/2000/svg">
<path d="M17.1645 14.7217C17.8426 14.4708 18.4275 14.0181 18.8404 13.4245C19.2534 12.831 19.4744 12.1251 19.4737 11.4021C19.4737 10.4451 19.0936 9.52733 18.4169 8.85065C17.7402 8.17397 16.8225 7.79382 15.8655 7.79382C14.9085 7.79382 13.9908 8.17397 13.3141 8.85065C12.6374 9.52733 12.2572 10.4451 12.2572 11.4021C12.2566 12.1251 12.4776 12.831 12.8905 13.4245C13.3034 14.0181 13.8884 14.4708 14.5665 14.7217L9.44281 27.0619C9.22632 27.567 9.44281 28 9.80364 28H21.9273C22.2882 28 22.5047 27.567 22.2882 27.0619L17.1645 14.7217ZM13.4119 25.1134L15.8655 19.1237L18.3191 25.1134H13.4119Z" fill="#A6A8A9"/>
<path d="M11.1748 18.9072C11.4187 18.609 11.5459 18.2323 11.5326 17.8472C11.5194 17.4622 11.3665 17.0951 11.1026 16.8144C10.3347 16.1372 9.71973 15.3044 9.29848 14.3712C8.87723 13.438 8.65937 12.4259 8.65937 11.4021C8.65937 10.3782 8.87723 9.3661 9.29848 8.43293C9.71973 7.49975 10.3347 6.6669 11.1026 5.98969C11.3665 5.70901 11.5194 5.34193 11.5326 4.95689C11.5459 4.57184 11.4187 4.19511 11.1748 3.89691C10.8941 3.633 10.527 3.48016 10.142 3.46688C9.75692 3.45361 9.38019 3.5808 9.08199 3.82474C8.04273 4.79584 7.21235 5.96861 6.6416 7.27143C6.07084 8.57424 5.77168 9.97974 5.7624 11.4021C5.77168 12.8244 6.07084 14.2299 6.6416 15.5327C7.21235 16.8355 8.04273 18.0083 9.08199 18.9794C9.38019 19.2233 9.75692 19.3505 10.142 19.3372C10.527 19.324 10.8941 19.1711 11.1748 18.9072Z" fill="#A6A8A9"/>
<path d="M22.649 3.82474C22.3579 3.56516 21.9779 3.4278 21.5881 3.44124C21.1983 3.45468 20.8287 3.61789 20.5562 3.89691C20.3123 4.19511 20.1851 4.57184 20.1984 4.95688C20.2116 5.34193 20.3645 5.709 20.6284 5.98969C21.3963 6.6669 22.0113 7.49975 22.4325 8.43293C22.8537 9.3661 23.0716 10.3782 23.0716 11.4021C23.0716 12.4259 22.8537 13.438 22.4325 14.3712C22.0113 15.3044 21.3963 16.1372 20.6284 16.8144C20.4316 17.0989 20.338 17.442 20.3632 17.787C20.3883 18.1319 20.5307 18.4579 20.7667 18.7107C21.0027 18.9636 21.3181 19.1281 21.6605 19.177C22.0029 19.2258 22.3517 19.1561 22.649 18.9794C23.6941 18.0132 24.528 16.8412 25.0983 15.5372C25.6686 14.2332 25.963 12.8253 25.963 11.4021C25.963 9.97879 25.6686 8.5709 25.0983 7.2669C24.528 5.96289 23.6941 4.79095 22.649 3.82474Z" fill="#A6A8A9"/>
<path d="M26.9789 0.288662C26.701 0.0802075 26.3572 -0.0209955 26.0106 0.00363299C25.6641 0.0282615 25.338 0.177069 25.0923 0.422735C24.8467 0.6684 24.6979 0.994437 24.6732 1.34099C24.6486 1.68754 24.7498 2.03134 24.9583 2.30928C26.1897 3.48205 27.17 4.89272 27.8399 6.45574C28.5098 8.01876 28.8552 9.70155 28.8552 11.4021C28.8552 13.1026 28.5098 14.7854 27.8399 16.3484C27.17 17.9114 26.1897 19.3221 24.9583 20.4948C24.7498 20.7728 24.6486 21.1166 24.6732 21.4631C24.6979 21.8097 24.8467 22.1357 25.0923 22.3814C25.338 22.6271 25.6641 22.7759 26.0106 22.8005C26.3572 22.8251 26.701 22.7239 26.9789 22.5155C28.4809 21.0803 29.6764 19.3556 30.4931 17.4454C31.3099 15.5353 31.731 13.4795 31.731 11.4021C31.731 9.32465 31.3099 7.26879 30.4931 5.35868C29.6764 3.44856 28.4809 1.72383 26.9789 0.288662Z" fill="#A6A8A9"/>
<path d="M2.8758 11.4021C2.87996 9.70219 3.22726 8.02065 3.89687 6.45822C4.56649 4.89579 5.54464 3.48462 6.77271 2.30928C6.98116 2.03134 7.08237 1.68754 7.05774 1.34099C7.03311 0.994437 6.8843 0.6684 6.63864 0.422735C6.39297 0.177069 6.06693 0.0282615 5.72039 0.00363295C5.37384 -0.0209956 5.03003 0.0802074 4.75209 0.288662C3.25011 1.72383 2.05463 3.44856 1.23787 5.35868C0.421101 7.26879 0 9.32465 0 11.4021C0 13.4795 0.421101 15.5353 1.23787 17.4454C2.05463 19.3556 3.25011 21.0803 4.75209 22.5155C5.03003 22.7239 5.37384 22.8251 5.72039 22.8005C6.06693 22.7759 6.39297 22.6271 6.63864 22.3814C6.8843 22.1357 7.03311 21.8097 7.05774 21.4631C7.08237 21.1166 6.98116 20.7728 6.77271 20.4948C5.54464 19.3195 4.56649 17.9083 3.89687 16.3459C3.22726 14.7835 2.87996 13.1019 2.8758 11.4021Z" fill="#A6A8A9"/>
</svg>
