<svg width="26" height="26" viewBox="0 0 26 26" fill="none" xmlns="http://www.w3.org/2000/svg">
<g clip-path="url(#clip0_1_2866)">
<path d="M12.9679 7.16249C12.5921 7.34444 12.2198 7.59657 11.8744 7.94234C10.1432 9.67387 8.56954 11.2476 8.56954 11.2476L8.5702 11.2486C8.5608 11.258 8.55136 11.2658 8.54191 11.2755C8.09382 11.724 8.07604 12.4389 8.48986 12.9079C8.50626 12.9268 8.52378 12.9453 8.54191 12.9631C9.00712 13.4289 9.76249 13.4301 10.2295 12.9631L12.0473 11.1453C12.3609 11.2602 12.6693 11.3272 12.9651 11.3607C13.3682 11.4054 13.7467 11.3887 14.0834 11.3412C14.9041 11.2249 14.8182 11.2588 15.2942 11.1023C15.7692 10.9465 16.3029 10.6273 16.3029 10.6273L16.6259 10.95C16.6615 10.9846 17.4851 11.8095 17.9052 12.2289C17.9796 12.3036 18.0428 12.3651 18.0851 12.4092C18.1336 12.4598 18.1878 12.4964 18.2213 12.5454L20.3174 14.6416C20.9216 13.9636 21.6117 12.954 21.5265 11.7949L16.2888 6.55789C16.2888 6.55789 14.4759 6.42834 12.9679 7.16249Z" fill="#A6A8A9"/>
<path d="M13.2597 20.0262C12.7958 19.5617 12.0429 19.5617 11.5787 20.0262L11.2337 20.3712C11.6968 19.9074 11.6965 19.1562 11.2327 18.692C10.7685 18.2286 10.0166 18.2286 9.55247 18.6924C10.0166 18.2286 10.0166 17.4767 9.55247 17.0122C9.08869 16.5477 8.33641 16.5484 7.87227 17.0122C8.33641 16.5484 8.33641 15.7961 7.87227 15.3316C7.40844 14.8679 6.65621 14.8679 6.19202 15.3323L5.15304 16.3709C4.6889 16.8354 4.6889 17.587 5.15304 18.0515C5.61682 18.5153 6.36879 18.5153 6.83288 18.0515C6.36874 18.5153 6.36874 19.2676 6.83288 19.7317C7.29738 20.1955 8.0493 20.1955 8.51344 19.7317C8.0493 20.1955 8.0493 20.9474 8.51344 21.4119C8.97758 21.8757 9.72949 21.8757 10.1937 21.4119L10.5391 21.0662C10.076 21.5307 10.0763 22.2819 10.5401 22.7461C11.0043 23.2098 11.7562 23.2098 12.2204 22.7461L13.2597 21.7067C13.7234 21.2419 13.7234 20.49 13.2597 20.0262Z" fill="#A6A8A9"/>
<path d="M25.7963 9.0533L19.68 2.9363C19.4083 2.66528 18.969 2.66528 18.698 2.9363L16.7362 4.89798C16.4652 5.169 16.4652 5.60836 16.7362 5.87973L22.8532 11.9964C23.1239 12.2681 23.564 12.2681 23.8346 11.9964L25.7963 10.0343C26.068 9.76404 26.068 9.32468 25.7963 9.0533ZM24.0529 10.4098C23.7609 10.7011 23.2887 10.7011 22.9978 10.4098C22.7066 10.1181 22.7066 9.64597 22.9978 9.35469C23.2887 9.06341 23.7609 9.06341 24.0529 9.35469C24.3442 9.64597 24.3438 10.1181 24.0529 10.4098Z" fill="#A6A8A9"/>
<path d="M9.26335 5.07119L7.30198 3.10951C7.03101 2.8385 6.59129 2.8385 6.32027 3.10951L0.203265 9.22647C-0.0677549 9.49678 -0.0677549 9.93685 0.203265 10.2075L2.165 12.1699C2.43566 12.4406 2.87603 12.4406 3.14634 12.1699L9.26335 6.0529C9.53473 5.78188 9.53473 5.34252 9.26335 5.07119ZM3.00207 10.5829C2.71079 10.8739 2.23832 10.8739 1.94699 10.5829C1.65576 10.2914 1.65576 9.81914 1.94699 9.52786C2.23827 9.23663 2.71079 9.23663 3.00207 9.52786C3.29335 9.81914 3.29335 10.2913 3.00207 10.5829Z" fill="#A6A8A9"/>
<path d="M20.187 15.8849L19.8077 15.5049L16.1256 11.8228L15.8777 11.9328L15.6077 12.0303L15.5882 12.0362C15.5407 12.0512 15.0964 12.1871 14.2206 12.311C13.7574 12.3757 13.2986 12.3837 12.8543 12.3331C12.6787 12.3135 12.5041 12.2848 12.3315 12.2471L10.922 13.656C10.075 14.503 8.69592 14.503 7.84899 13.656C7.81929 13.626 7.79065 13.5956 7.76414 13.5656L7.75505 13.5554C7.22037 12.9491 7.08453 12.1193 7.336 11.3992L7.87799 10.5558L7.87697 10.5548L11.1819 7.25022C11.3163 7.11611 11.4574 6.99108 11.6041 6.87302C10.5742 6.67081 9.71013 6.73052 9.71013 6.73052L4.47346 11.9681C4.40293 12.9323 5.06511 13.9891 5.53621 14.6063C6.38385 13.7957 7.73194 13.8062 8.56486 14.6395C8.87498 14.9493 9.07023 15.331 9.1526 15.7312C9.55352 15.8143 9.93493 16.0092 10.2451 16.3193C10.5552 16.6298 10.7504 17.0115 10.8328 17.4121C11.2334 17.4945 11.6155 17.6894 11.9253 17.9995C12.1324 18.2066 12.2885 18.4456 12.3936 18.7012C12.9573 18.6942 13.5231 18.9051 13.952 19.3337C14.7975 20.1785 14.7971 21.5545 13.952 22.399L13.6062 22.7454L13.7794 22.9187C14.244 23.3832 14.9958 23.3832 15.46 22.9187C15.9242 22.4548 15.9242 21.7026 15.46 21.2384L15.8058 21.5853C16.2703 22.049 17.0218 22.049 17.486 21.5853C17.9501 21.1208 17.9504 20.3688 17.486 19.9043C17.9504 20.3688 18.702 20.3688 19.1662 19.9043C19.63 19.4409 19.631 18.6886 19.1662 18.2241C19.631 18.6886 20.3826 18.6886 20.8464 18.2241C21.3109 17.7604 21.3109 17.008 20.8464 16.5443L20.187 15.8849Z" fill="#A6A8A9"/>
</g>
<defs>
<clipPath id="clip0_1_2866">
<rect width="26" height="26" fill="white"/>
</clipPath>
</defs>
</svg>
