<svg width="28" height="28" viewBox="0 0 28 28" fill="none" xmlns="http://www.w3.org/2000/svg">
<path fill-rule="evenodd" clip-rule="evenodd" d="M7.3501 0.542948C9.16829 0.13888 11.374 0 14 0C16.626 0 18.8317 0.13888 20.6499 0.542948C22.484 0.950558 24.0083 1.6464 25.181 2.81901C26.3536 3.99162 27.0494 5.51603 27.4571 7.3501C27.8611 9.16829 28 11.374 28 14C28 16.626 27.8611 18.8317 27.4571 20.6499C27.0494 22.484 26.3536 24.0083 25.181 25.181C24.0083 26.3536 22.484 27.0494 20.6499 27.4571C18.8317 27.8611 16.626 28 14 28C11.374 28 9.16829 27.8611 7.3501 27.4571C5.51603 27.0494 3.99162 26.3536 2.81901 25.181C1.6464 24.0083 0.950558 22.484 0.542948 20.6499C0.13888 18.8317 0 16.626 0 14C0 11.374 0.13888 9.16829 0.542948 7.3501C0.950558 5.51603 1.6464 3.99162 2.81901 2.81901C3.99162 1.6464 5.51603 0.950558 7.3501 0.542948ZM14 5.6C10.9072 5.6 8.4 8.1072 8.4 11.2C8.4 14.2927 10.9072 16.8 14 16.8C17.0927 16.8 19.6 14.2927 19.6 11.2C19.6 8.1072 17.0927 5.6 14 5.6ZM22.9285 21.4119C23.4224 22.2173 23.2477 23.282 22.4517 23.7909C21.7279 24.2537 20.8821 24.5371 20.0423 24.7237C18.5251 25.0608 16.5619 25.2 13.9997 25.2C11.4377 25.2 9.47442 25.0608 7.95733 24.7237C7.13322 24.5406 6.30287 24.2647 5.58783 23.8168C4.77746 23.3093 4.59932 22.23 5.10544 21.4187C5.68824 20.4845 6.49146 19.7505 7.57235 19.2282C9.21231 18.4358 11.362 18.2 13.9994 18.2C16.6279 18.2 18.7753 18.4167 20.413 19.1866C21.5218 19.7078 22.3401 20.4525 22.9285 21.4119Z" fill="#A6A8A9"/>
</svg>
