<svg width="28" height="28" viewBox="0 0 28 28" fill="none" xmlns="http://www.w3.org/2000/svg">
<path d="M14 0C6.26806 0 0 6.26784 0 14C0 21.7322 6.26806 28 14 28C21.7319 28 28 21.7322 28 14C28 6.26784 21.732 0 14 0ZM11.3574 20.7153C11.3574 19.7521 12.1384 18.9711 13.1015 18.9711C14.064 18.9711 14.845 19.7521 14.845 20.7153C14.845 21.6775 14.064 22.459 13.1015 22.459C12.1384 22.459 11.3574 21.6775 11.3574 20.7153ZM18.792 11.9685C18.5953 12.504 18.3106 12.9686 17.9884 13.3551C17.3405 14.1288 16.5726 14.5975 15.9408 14.9433C15.5186 15.1716 15.146 15.3474 14.9143 15.4775C14.7555 15.5653 14.6694 15.6389 14.6269 15.6868C14.5849 15.7374 14.5706 15.7582 14.5451 15.8413C14.5301 15.8965 14.5146 15.9842 14.5146 16.1197C14.5146 16.4953 14.5146 16.804 14.5146 16.804C14.5146 17.1579 14.2276 17.4454 13.8735 17.4454H12.3284C11.9743 17.4454 11.6868 17.1579 11.6868 16.804C11.6868 16.804 11.6868 16.4953 11.6868 16.1197C11.6868 15.7677 11.728 15.4228 11.8184 15.0929C11.9078 14.7643 12.0489 14.452 12.2289 14.1799C12.5898 13.6285 13.0789 13.2611 13.5406 13.0052C13.9453 12.7824 14.3457 12.5975 14.7172 12.3883C15.0885 12.1809 15.4196 11.9557 15.6634 11.7117C15.8268 11.549 15.9538 11.3809 16.051 11.1911C16.1787 10.938 16.2673 10.6405 16.2693 10.1854C16.27 10.0507 16.2311 9.87361 16.1254 9.6711C16.02 9.46952 15.8483 9.25034 15.6188 9.05368C15.1566 8.6573 14.4789 8.36762 13.7017 8.36894C12.8111 8.37211 12.215 8.58091 11.7556 8.84034C11.2984 9.10153 11.1524 9.36507 11.1524 9.36507C10.919 9.5684 10.5726 9.57562 10.3307 9.38224L9.14348 8.43084C8.99478 8.31201 8.90712 8.13345 8.90307 7.9427C8.89962 7.75245 8.981 7.57028 9.12516 7.4451C9.12516 7.4451 9.49512 6.87471 10.3529 6.38526C11.2072 5.89351 12.3393 5.53826 13.7018 5.54148C14.8073 5.54148 15.8258 5.84566 16.6696 6.34326C17.5136 6.84354 18.1952 7.53238 18.6302 8.35991C18.919 8.91084 19.0964 9.53187 19.0968 10.1854C19.0975 10.8304 18.9901 11.4329 18.792 11.9685Z" fill="#A6A8A9"/>
</svg>
